<?xml version="1.0" encoding="utf-8"?>
<svg version="1.1" xmlns:xlink="http://www.w3.org/1999/xlink" width="23px" height="27px" xmlns="http://www.w3.org/2000/svg">
  <g transform="matrix(1 0 0 1 -1065 -474 )">
    <path d="M 19.1666666666667 7.71428571428571  C 19.1666666666667 9.19084821428571  18.7723524305556 10.5569196428571  17.9837239583333 11.8125  C 18.4529079861111 11.953125  18.8996310763889 12.1439732142857  19.3238932291667 12.3850446428571  C 19.7481553819444 12.6261160714286  20.1923828125 12.9927455357143  20.6565755208333 13.4849330357143  C 21.1207682291667 13.9771205357143  21.517578125 14.5571986607143  21.8470052083333 15.2251674107143  C 22.1764322916667 15.8931361607143  22.4509548611111 16.7569754464286  22.6705729166667 17.8166852678571  C 22.8901909722222 18.8763950892857  23 20.0641741071429  23 21.3800223214286  C 23 22.9268973214286  22.5008680555556 24.2502790178571  21.5026041666667 25.3501674107143  C 20.5043402777778 26.4500558035714  19.3014322916667 27  17.8938802083333 27  L 5.10611979166667 27  C 3.69856770833333 27  2.49565972222222 26.4500558035714  1.49739583333333 25.3501674107143  C 0.499131944444444 24.2502790178571  0 22.9268973214286  0 21.3800223214286  C 0 20.0641741071429  0.109809027777778 18.8763950892857  0.329427083333333 17.8166852678571  C 0.549045138888889 16.7569754464286  0.823567708333333 15.8931361607143  1.15299479166667 15.2251674107143  C 1.482421875 14.5571986607143  1.87923177083333 13.9771205357143  2.34342447916667 13.4849330357143  C 2.8076171875 12.9927455357143  3.25184461805556 12.6261160714286  3.67610677083333 12.3850446428571  C 4.10036892361111 12.1439732142857  4.54709201388889 11.953125  5.01627604166667 11.8125  C 4.22764756944445 10.5569196428571  3.83333333333333 9.19084821428571  3.83333333333333 7.71428571428571  C 3.83333333333333 6.66964285714285  4.03548177083333 5.67271205357143  4.43977864583333 4.72349330357143  C 4.84407552083333 3.77427455357143  5.390625 2.953125  6.07942708333333 2.26004464285714  C 6.76822916666667 1.56696428571429  7.58430989583333 1.01702008928571  8.52766927083333 0.610212053571428  C 9.47102864583333 0.203404017857142  10.4618055555556 0  11.5 0  C 12.5381944444444 0  13.5289713541667 0.203404017857142  14.4723307291667 0.610212053571428  C 15.4156901041667 1.01702008928571  16.2317708333333 1.56696428571429  16.9205729166667 2.26004464285714  C 17.609375 2.953125  18.1559244791667 3.77427455357143  18.5602213541667 4.72349330357143  C 18.9645182291667 5.67271205357143  19.1666666666667 6.66964285714285  19.1666666666667 7.71428571428571  Z M 15.5654296875 3.62360491071429  C 14.4423828125 2.49358258928571  13.0872395833333 1.92857142857143  11.5 1.92857142857143  C 9.91276041666667 1.92857142857143  8.5576171875 2.49358258928571  7.4345703125 3.62360491071429  C 6.3115234375 4.75362723214286  5.75 6.1171875  5.75 7.71428571428571  C 5.75 9.31138392857143  6.3115234375 10.6749441964286  7.4345703125 11.8049665178571  C 8.5576171875 12.9349888392857  9.91276041666667 13.5  11.5 13.5  C 13.0872395833333 13.5  14.4423828125 12.9349888392857  15.5654296875 11.8049665178571  C 16.6884765625 10.6749441964286  17.25 9.31138392857143  17.25 7.71428571428571  C 17.25 6.1171875  16.6884765625 4.75362723214286  15.5654296875 3.62360491071429  Z M 5.10611979166667 25  L 17.8938802083333 25  C 18.7723524305556 25.0714285714286  19.5235460069444 24.7123325892857  20.1474609375 23.994140625  C 20.7713758680556 23.2759486607143  21.0833333333333 22.4045758928571  21.0833333333333 21.3800223214286  C 21.0833333333333 18.9793526785714  20.6915147569444 17.0859375  19.9078776041667 15.6997767857143  C 19.1242404513889 14.3136160714286  17.9986979166667 13.5853794642857  16.53125 13.5150669642857  C 15.0837673611111 14.7907366071429  13.4066840277778 15.4285714285714  11.5 15.4285714285714  C 9.59331597222222 15.4285714285714  7.91623263888889 14.7907366071429  6.46875 13.5150669642857  C 5.00130208333333 13.5853794642857  3.87575954861111 14.3136160714286  3.09212239583333 15.6997767857143  C 2.30848524305556 17.0859375  1.91666666666667 18.9793526785714  1.91666666666667 21.3800223214286  C 1.91666666666667 22.4045758928571  2.22862413194444 23.2759486607143  2.8525390625 23.994140625  C 3.47645399305556 24.7123325892857  4.22764756944445 25.0714285714286  5.10611979166667 25  Z " fill-rule="nonzero" fill="#70b603" stroke="none" transform="matrix(1 0 0 1 1065 474 )" />
  </g>
</svg>