<?xml version="1.0" encoding="utf-8"?>
<svg version="1.1" xmlns:xlink="http://www.w3.org/1999/xlink" width="23px" height="27px" xmlns="http://www.w3.org/2000/svg">
  <g transform="matrix(1 0 0 1 -1065 -546 )">
    <path d="M 6.38888888888889 8.59090909090909  L 6.38888888888889 12.2727272727273  L 16.6111111111111 12.2727272727273  L 16.6111111111111 8.59090909090909  C 16.6111111111111 7.23579545454545  16.1119791666667 6.07883522727273  15.1137152777778 5.12002840909091  C 14.1154513888889 4.16122159090909  12.9108796296296 3.68181818181818  11.5 3.68181818181818  C 10.0891203703704 3.68181818181818  8.88454861111111 4.16122159090909  7.88628472222222 5.12002840909091  C 6.88802083333333 6.07883522727273  6.38888888888889 7.23579545454545  6.38888888888889 8.59090909090909  Z M 22.4409722222222 12.8096590909091  C 22.8136574074074 13.1676136363636  23 13.6022727272727  23 14.1136363636364  L 23 25.1590909090909  C 23 25.6704545454545  22.8136574074074 26.1051136363636  22.4409722222222 26.4630681818182  C 22.068287037037 26.8210227272727  21.6157407407407 27  21.0833333333333 27  L 1.91666666666667 27  C 1.38425925925926 27  0.931712962962963 26.8210227272727  0.559027777777778 26.4630681818182  C 0.186342592592593 26.1051136363636  0 25.6704545454545  0 25.1590909090909  L 0 14.1136363636364  C 0 13.6022727272727  0.186342592592593 13.1676136363636  0.559027777777778 12.8096590909091  C 0.931712962962963 12.4517045454545  1.38425925925926 12.2727272727273  1.91666666666667 12.2727272727273  L 2.55555555555556 12.2727272727273  L 2.55555555555556 8.59090909090909  C 2.55555555555556 6.23863636363636  3.43402777777778 4.21875  5.19097222222222 2.53125  C 6.94791666666667 0.84375  9.05092592592593 0  11.5 0  C 13.9490740740741 0  16.0520833333333 0.84375  17.8090277777778 2.53125  C 19.5659722222222 4.21875  20.4444444444444 6.23863636363636  20.4444444444444 8.59090909090909  L 20.4444444444444 12.2727272727273  L 21.0833333333333 12.2727272727273  C 21.6157407407407 12.2727272727273  22.068287037037 12.4517045454545  22.4409722222222 12.8096590909091  Z " fill-rule="nonzero" fill="#70b603" stroke="none" transform="matrix(1 0 0 1 1065 546 )" />
  </g>
</svg>