<?xml version="1.0" encoding="utf-8"?>
<svg version="1.1" xmlns:xlink="http://www.w3.org/1999/xlink" width="15px" height="15px" xmlns="http://www.w3.org/2000/svg">
  <defs>
    <mask fill="white" id="clip268">
      <path d="M 0.840207519531248 11.2351689453125  L 7.5 14.9703544921875  L 14.1598095703125 11.2351689453125  L 14.1598095703125 3.76506347656249  L 7.49998291015625 0.0296787109375032  L 0.840190429687496 3.76484765625  L 0.840190429687496 11.235185546875  Z M 12.9183178710937 4.46108398437499  L 12.9183178710937 10.5387001953125  L 7.5 13.5773837890625  L 2.08216064453125 10.53868359375  L 2.08216064453125 4.4610673828125  L 7.5 1.42236718750002  L 12.9183178710937 4.4610673828125  Z M 3.32219970703125 4.51789453124999  L 3.32219970703125 10.1171201171875  L 2.36923583984375 10.1171201171875  L 2.36923583984375 7.09999999999999  L 2.36923583984375 4.51789453124999  L 3.32219970703125 4.51789453124999  Z " fill-rule="evenodd" />
    </mask>
  </defs>
  <g transform="matrix(1 0 0 1 -327 -400 )">
    <path d="M 0.840207519531248 11.2351689453125  L 7.5 14.9703544921875  L 14.1598095703125 11.2351689453125  L 14.1598095703125 3.76506347656249  L 7.49998291015625 0.0296787109375032  L 0.840190429687496 3.76484765625  L 0.840190429687496 11.235185546875  Z M 12.9183178710937 4.46108398437499  L 12.9183178710937 10.5387001953125  L 7.5 13.5773837890625  L 2.08216064453125 10.53868359375  L 2.08216064453125 4.4610673828125  L 7.5 1.42236718750002  L 12.9183178710937 4.4610673828125  Z M 3.32219970703125 4.51789453124999  L 3.32219970703125 10.1171201171875  L 2.36923583984375 10.1171201171875  L 2.36923583984375 7.09999999999999  L 2.36923583984375 4.51789453124999  L 3.32219970703125 4.51789453124999  Z " fill-rule="nonzero" fill="#475570" stroke="none" transform="matrix(1 0 0 1 327 400 )" />
    <path d="M 0.840207519531248 11.2351689453125  L 7.5 14.9703544921875  L 14.1598095703125 11.2351689453125  L 14.1598095703125 3.76506347656249  L 7.49998291015625 0.0296787109375032  L 0.840190429687496 3.76484765625  L 0.840190429687496 11.235185546875  Z " stroke-width="2" stroke="#d7d7d7" fill="none" transform="matrix(1 0 0 1 327 400 )" mask="url(#clip268)" />
    <path d="M 12.9183178710937 4.46108398437499  L 12.9183178710937 10.5387001953125  L 7.5 13.5773837890625  L 2.08216064453125 10.53868359375  L 2.08216064453125 4.4610673828125  L 7.5 1.42236718750002  L 12.9183178710937 4.4610673828125  Z " stroke-width="2" stroke="#d7d7d7" fill="none" transform="matrix(1 0 0 1 327 400 )" mask="url(#clip268)" />
    <path d="M 3.32219970703125 4.51789453124999  L 3.32219970703125 10.1171201171875  L 2.36923583984375 10.1171201171875  L 2.36923583984375 7.09999999999999  L 2.36923583984375 4.51789453124999  L 3.32219970703125 4.51789453124999  Z " stroke-width="2" stroke="#d7d7d7" fill="none" transform="matrix(1 0 0 1 327 400 )" mask="url(#clip268)" />
  </g>
</svg>