<?xml version="1.0" encoding="utf-8"?>
<svg version="1.1" xmlns:xlink="http://www.w3.org/1999/xlink" width="15px" height="15px" xmlns="http://www.w3.org/2000/svg">
  <defs>
    <mask fill="white" id="clip269">
      <path d="M 14.9716981132075 7.49660377358491  C 14.9716981132075 3.37009885032088  11.626504923264 0.024905660377339  7.5 0.024905660377339  C 3.37349507673597 0.024905660377339  0.0283018867924625 3.37009885032088  0.0283018867924625 7.49660377358491  C 0.0283018867924625 11.6231086968489  3.37349507673597 14.9683018867924  7.5 14.9683018867924  C 11.626504923264 14.9683018867924  14.9716981132075 11.6231086968489  14.9716981132075 7.49660377358491  Z M 7.97094339622643 11.1735849056604  L 7.97094339622643 11.1645283018868  C 7.82165652998641 11.3054242244138  7.6237617914238 11.3832844494221  7.41849056603773 11.3818867924528  C 7.21097889899593 11.3859202341973  7.01103408279812 11.3039756373949  6.86603773584905 11.1554716981132  C 6.71893307602927 11.013263111681  6.6370165814699 10.8166635247384  6.63962264150945 10.6120754716981  C 6.63119671962505 10.4064045281629  6.71406615047355 10.2075178941266  6.86603773584905 10.068679245283  C 7.01256600254207 9.92349602952574  7.21231699040662 9.84490547692328  7.41849056603773 9.85132075471697  C 7.6275876002972 9.84346927923664  7.83068707761758 9.92208843174775  7.98 10.068679245283  C 8.13197158537554 10.2075178941266  8.214841016224 10.4064045281629  8.2064150943396 10.6120754716981  C 8.2095155604012 10.823864160608  8.12417990275928 11.0273568826772  7.97094339622643 11.1735849056604  Z M 9.51056603773584 7.00754716981132  L 9.51056603773584 6.99849056603771  C 9.22457809964531 7.29302629297854  8.9222114905668 7.57120357333081  8.60490566037735 7.83169811320755  C 8.41867842192276 7.98149827995302  8.26725514669748 8.17000480625385  8.1611320754717 8.38415094339624  C 8.04391019409625 8.60088019713466  7.98463840066561 8.84420650700787  7.98905660377359 9.09056603773585  L 7.98905660377359 9.27169811320753  L 6.85698113207546 9.27169811320753  L 6.85698113207546 9.09056603773585  C 6.84428444318574 8.73966725043636  6.91897484724863 8.39111203147613  7.07433962264152 8.07622641509435  C 7.39678791484382 7.56701868516922  7.80064950030702 7.11420418025595  8.26981132075471 6.73584905660375  L 8.45094339622644 6.5366037735849  C 8.6361956036427 6.31849636790726  8.7416095573544 6.04378121581017  8.74981132075472 5.75773584905661  C 8.74450579817435 5.44648959752071  8.62154542199161 5.14879605518355  8.40566037735849 4.92452830188677  C 8.15903360637943 4.70078802129279  7.83232355273939 4.58643950251877  7.5 4.60754716981133  C 7.09678141495669 4.57383334690017  6.70418316712155 4.74794213507052  6.45849056603772 5.06943396226417  C 6.24900757697414 5.39176571212124  6.14750856175008 5.77238701921151  6.16867924528302 6.15622641509432  L 5.08188679245283 6.15622641509432  C 5.05152252736893 5.48672470202617  5.29325001223433 4.83340717536288  5.75207547169812 4.34490566037734  C 6.2507302251713 3.87204633440698  6.92260459050834 3.62623863977147  7.60867924528304 3.66566037735847  C 8.22140349545526 3.61324329432853  8.83087140157573 3.79802877650337  9.31132075471699 4.18188679245284  C 9.74765630719783 4.56746202449415  9.98438479185235 5.13094250205204  9.95433962264148 5.71245283018867  C 9.9579885947193 6.18205408227175  9.80145656704666 6.63887204058172  9.51056603773584 7.00754716981132  Z " fill-rule="evenodd" />
    </mask>
  </defs>
  <g transform="matrix(1 0 0 1 -15 -18 )">
    <path d="M 14.9716981132075 7.49660377358491  C 14.9716981132075 3.37009885032088  11.626504923264 0.024905660377339  7.5 0.024905660377339  C 3.37349507673597 0.024905660377339  0.0283018867924625 3.37009885032088  0.0283018867924625 7.49660377358491  C 0.0283018867924625 11.6231086968489  3.37349507673597 14.9683018867924  7.5 14.9683018867924  C 11.626504923264 14.9683018867924  14.9716981132075 11.6231086968489  14.9716981132075 7.49660377358491  Z M 7.97094339622643 11.1735849056604  L 7.97094339622643 11.1645283018868  C 7.82165652998641 11.3054242244138  7.6237617914238 11.3832844494221  7.41849056603773 11.3818867924528  C 7.21097889899593 11.3859202341973  7.01103408279812 11.3039756373949  6.86603773584905 11.1554716981132  C 6.71893307602927 11.013263111681  6.6370165814699 10.8166635247384  6.63962264150945 10.6120754716981  C 6.63119671962505 10.4064045281629  6.71406615047355 10.2075178941266  6.86603773584905 10.068679245283  C 7.01256600254207 9.92349602952574  7.21231699040662 9.84490547692328  7.41849056603773 9.85132075471697  C 7.6275876002972 9.84346927923664  7.83068707761758 9.92208843174775  7.98 10.068679245283  C 8.13197158537554 10.2075178941266  8.214841016224 10.4064045281629  8.2064150943396 10.6120754716981  C 8.2095155604012 10.823864160608  8.12417990275928 11.0273568826772  7.97094339622643 11.1735849056604  Z M 9.51056603773584 7.00754716981132  L 9.51056603773584 6.99849056603771  C 9.22457809964531 7.29302629297854  8.9222114905668 7.57120357333081  8.60490566037735 7.83169811320755  C 8.41867842192276 7.98149827995302  8.26725514669748 8.17000480625385  8.1611320754717 8.38415094339624  C 8.04391019409625 8.60088019713466  7.98463840066561 8.84420650700787  7.98905660377359 9.09056603773585  L 7.98905660377359 9.27169811320753  L 6.85698113207546 9.27169811320753  L 6.85698113207546 9.09056603773585  C 6.84428444318574 8.73966725043636  6.91897484724863 8.39111203147613  7.07433962264152 8.07622641509435  C 7.39678791484382 7.56701868516922  7.80064950030702 7.11420418025595  8.26981132075471 6.73584905660375  L 8.45094339622644 6.5366037735849  C 8.6361956036427 6.31849636790726  8.7416095573544 6.04378121581017  8.74981132075472 5.75773584905661  C 8.74450579817435 5.44648959752071  8.62154542199161 5.14879605518355  8.40566037735849 4.92452830188677  C 8.15903360637943 4.70078802129279  7.83232355273939 4.58643950251877  7.5 4.60754716981133  C 7.09678141495669 4.57383334690017  6.70418316712155 4.74794213507052  6.45849056603772 5.06943396226417  C 6.24900757697414 5.39176571212124  6.14750856175008 5.77238701921151  6.16867924528302 6.15622641509432  L 5.08188679245283 6.15622641509432  C 5.05152252736893 5.48672470202617  5.29325001223433 4.83340717536288  5.75207547169812 4.34490566037734  C 6.2507302251713 3.87204633440698  6.92260459050834 3.62623863977147  7.60867924528304 3.66566037735847  C 8.22140349545526 3.61324329432853  8.83087140157573 3.79802877650337  9.31132075471699 4.18188679245284  C 9.74765630719783 4.56746202449415  9.98438479185235 5.13094250205204  9.95433962264148 5.71245283018867  C 9.9579885947193 6.18205408227175  9.80145656704666 6.63887204058172  9.51056603773584 7.00754716981132  Z " fill-rule="nonzero" fill="#ff9900" stroke="none" transform="matrix(1 0 0 1 15 18 )" />
    <path d="M 14.9716981132075 7.49660377358491  C 14.9716981132075 3.37009885032088  11.626504923264 0.024905660377339  7.5 0.024905660377339  C 3.37349507673597 0.024905660377339  0.0283018867924625 3.37009885032088  0.0283018867924625 7.49660377358491  C 0.0283018867924625 11.6231086968489  3.37349507673597 14.9683018867924  7.5 14.9683018867924  C 11.626504923264 14.9683018867924  14.9716981132075 11.6231086968489  14.9716981132075 7.49660377358491  Z " stroke-width="2" stroke="#797979" fill="none" transform="matrix(1 0 0 1 15 18 )" mask="url(#clip269)" />
    <path d="M 7.97094339622643 11.1735849056604  L 7.97094339622643 11.1645283018868  C 7.82165652998641 11.3054242244138  7.6237617914238 11.3832844494221  7.41849056603773 11.3818867924528  C 7.21097889899593 11.3859202341973  7.01103408279812 11.3039756373949  6.86603773584905 11.1554716981132  C 6.71893307602927 11.013263111681  6.6370165814699 10.8166635247384  6.63962264150945 10.6120754716981  C 6.63119671962505 10.4064045281629  6.71406615047355 10.2075178941266  6.86603773584905 10.068679245283  C 7.01256600254207 9.92349602952574  7.21231699040662 9.84490547692328  7.41849056603773 9.85132075471697  C 7.6275876002972 9.84346927923664  7.83068707761758 9.92208843174775  7.98 10.068679245283  C 8.13197158537554 10.2075178941266  8.214841016224 10.4064045281629  8.2064150943396 10.6120754716981  C 8.2095155604012 10.823864160608  8.12417990275928 11.0273568826772  7.97094339622643 11.1735849056604  Z " stroke-width="2" stroke="#797979" fill="none" transform="matrix(1 0 0 1 15 18 )" mask="url(#clip269)" />
    <path d="M 9.51056603773584 7.00754716981132  L 9.51056603773584 6.99849056603771  C 9.22457809964531 7.29302629297854  8.9222114905668 7.57120357333081  8.60490566037735 7.83169811320755  C 8.41867842192276 7.98149827995302  8.26725514669748 8.17000480625385  8.1611320754717 8.38415094339624  C 8.04391019409625 8.60088019713466  7.98463840066561 8.84420650700787  7.98905660377359 9.09056603773585  L 7.98905660377359 9.27169811320753  L 6.85698113207546 9.27169811320753  L 6.85698113207546 9.09056603773585  C 6.84428444318574 8.73966725043636  6.91897484724863 8.39111203147613  7.07433962264152 8.07622641509435  C 7.39678791484382 7.56701868516922  7.80064950030702 7.11420418025595  8.26981132075471 6.73584905660375  L 8.45094339622644 6.5366037735849  C 8.6361956036427 6.31849636790726  8.7416095573544 6.04378121581017  8.74981132075472 5.75773584905661  C 8.74450579817435 5.44648959752071  8.62154542199161 5.14879605518355  8.40566037735849 4.92452830188677  C 8.15903360637943 4.70078802129279  7.83232355273939 4.58643950251877  7.5 4.60754716981133  C 7.09678141495669 4.57383334690017  6.70418316712155 4.74794213507052  6.45849056603772 5.06943396226417  C 6.24900757697414 5.39176571212124  6.14750856175008 5.77238701921151  6.16867924528302 6.15622641509432  L 5.08188679245283 6.15622641509432  C 5.05152252736893 5.48672470202617  5.29325001223433 4.83340717536288  5.75207547169812 4.34490566037734  C 6.2507302251713 3.87204633440698  6.92260459050834 3.62623863977147  7.60867924528304 3.66566037735847  C 8.22140349545526 3.61324329432853  8.83087140157573 3.79802877650337  9.31132075471699 4.18188679245284  C 9.74765630719783 4.56746202449415  9.98438479185235 5.13094250205204  9.95433962264148 5.71245283018867  C 9.9579885947193 6.18205408227175  9.80145656704666 6.63887204058172  9.51056603773584 7.00754716981132  Z " stroke-width="2" stroke="#797979" fill="none" transform="matrix(1 0 0 1 15 18 )" mask="url(#clip269)" />
  </g>
</svg>