<?xml version="1.0" encoding="utf-8"?>
<svg version="1.1" xmlns:xlink="http://www.w3.org/1999/xlink" width="13px" height="14px" xmlns="http://www.w3.org/2000/svg">
  <g transform="matrix(1 0 0 1 -909 -114 )">
    <path d="M 12.3340757238307 3.55889423076923  C 12.5174461766889 3.55889423076923  12.6815144766147 3.60096153846154  12.826280623608 3.68509615384615  C 13 3.79727564102564  13.0337787676318 3.92067307692308  12.9276169265033 4.05528846153846  L 5.11024498886414 13.7896634615385  C 4.98478099480327 13.9298878205128  4.78210838901262 14  4.5022271714922 14  C 4.46362286562732 14  4.39606533036377 13.994391025641  4.29955456570156 13.9831730769231  C 4.1354862657758 13.9551282051282  4.01243504083148 13.901842948718  3.9304008908686 13.8233173076923  C 3.84836674090572 13.7447916666667  3.82665181885672 13.6606570512821  3.8652561247216 13.5709134615385  L 6.71714922048998 6.77283653846154  L 0.839643652561247 7.62259615384615  C 0.801039346696362 7.62820512820513  0.743132887899035 7.63100961538462  0.665924276169265 7.63100961538462  C 0.492204899777283 7.63100961538462  0.342613214550854 7.60016025641026  0.217149220489978 7.53846153846154  C 0.0434298440979955 7.45432692307692  -0.0193021529324425 7.34495192307692  0.0289532293986637 7.21033653846154  L 2.93875278396437 0.26923076923077  C 2.97735708982925 0.190705128205128  3.05456570155902 0.126201923076924  3.17037861915367 0.075721153846154  C 3.28619153674833 0.0252403846153841  3.42130660727543 0  3.57572383073497 0  L 8.32405345211581 0  C 8.50742390497402 0  8.66184112843356 0.0350560897435879  8.78730512249443 0.10516826923077  C 8.91276911655531 0.175280448717949  8.97550111358574 0.25801282051282  8.97550111358574 0.353365384615384  C 8.97550111358574 0.398237179487179  8.95137342242019 0.448717948717949  8.90311804008909 0.504807692307692  L 6.42761692650334 4.40024038461538  L 12.1603563474388 3.57572115384615  C 12.2375649591685 3.5645032051282  12.2954714179659 3.55889423076923  12.3340757238307 3.55889423076923  Z " fill-rule="nonzero" fill="#ffffff" stroke="none" transform="matrix(1 0 0 1 909 114 )" />
  </g>
</svg>