<?xml version="1.0" encoding="utf-8"?>
<svg version="1.1" xmlns:xlink="http://www.w3.org/1999/xlink" width="83px" height="37px" xmlns="http://www.w3.org/2000/svg">
  <defs>
    <mask fill="white" id="clip278">
      <path d="M 45.5161290322581 10.0428571428572  C 35.0608435629194 10.0428571428572  25.4914428570637 6.29889559244657  18.1088465227317 0.0950970978624057  L 0.45693148360909 21.1097696456045  C 12.525187934413 31.0316546071021  28.0468107057397 37  44.9806451612903 37  C 58.879521835338 37  71.8270304128012 32.9792901732574  82.6945477564486 26.05192538189  L 68.0112396158518 3.65615066379681  C 61.4953260689955 7.70239045859398  53.7826245949891 10.0428571428572  45.5161290322581 10.0428571428572  Z " fill-rule="evenodd" />
    </mask>
  </defs>
  <g transform="matrix(1 0 0 1 -291 -690 )">
    <path d="M 45.5161290322581 10.0428571428572  C 35.0608435629194 10.0428571428572  25.4914428570637 6.29889559244657  18.1088465227317 0.0950970978624057  L 0.45693148360909 21.1097696456045  C 12.525187934413 31.0316546071021  28.0468107057397 37  44.9806451612903 37  C 58.879521835338 37  71.8270304128012 32.9792901732574  82.6945477564486 26.05192538189  L 68.0112396158518 3.65615066379681  C 61.4953260689955 7.70239045859398  53.7826245949891 10.0428571428572  45.5161290322581 10.0428571428572  Z " fill-rule="nonzero" fill="#13c2c2" stroke="none" transform="matrix(1 0 0 1 291 690 )" />
    <path d="M 45.5161290322581 10.0428571428572  C 35.0608435629194 10.0428571428572  25.4914428570637 6.29889559244657  18.1088465227317 0.0950970978624057  L 0.45693148360909 21.1097696456045  C 12.525187934413 31.0316546071021  28.0468107057397 37  44.9806451612903 37  C 58.879521835338 37  71.8270304128012 32.9792901732574  82.6945477564486 26.05192538189  L 68.0112396158518 3.65615066379681  C 61.4953260689955 7.70239045859398  53.7826245949891 10.0428571428572  45.5161290322581 10.0428571428572  Z " stroke-width="2" stroke="#ffffff" fill="none" transform="matrix(1 0 0 1 291 690 )" mask="url(#clip278)" />
  </g>
</svg>