<?xml version="1.0" encoding="utf-8"?>
<svg version="1.1" xmlns:xlink="http://www.w3.org/1999/xlink" width="48px" height="53px" xmlns="http://www.w3.org/2000/svg">
  <defs>
    <mask fill="white" id="clip280">
      <path d="M 28.2845541480948 52.6447434588235  C 30.1481066530632 40.2847315781782  37.4598263743708 29.6671762335866  47.747062657675 23.2189382524678  L 32.4867088711073 0.0430941176428747  C 15.4974849458907 10.5992824151756  3.39436742655644 28.0473384015507  0.257184155583673 48.382986580714  L 28.2845541480948 52.6447434588235  Z " fill-rule="evenodd" />
    </mask>
  </defs>
  <g transform="matrix(1 0 0 1 -267 -597 )">
    <path d="M 28.2845541480948 52.6447434588235  C 30.1481066530632 40.2847315781782  37.4598263743708 29.6671762335866  47.747062657675 23.2189382524678  L 32.4867088711073 0.0430941176428747  C 15.4974849458907 10.5992824151756  3.39436742655644 28.0473384015507  0.257184155583673 48.382986580714  L 28.2845541480948 52.6447434588235  Z " fill-rule="nonzero" fill="#facc14" stroke="none" transform="matrix(1 0 0 1 267 597 )" />
    <path d="M 28.2845541480948 52.6447434588235  C 30.1481066530632 40.2847315781782  37.4598263743708 29.6671762335866  47.747062657675 23.2189382524678  L 32.4867088711073 0.0430941176428747  C 15.4974849458907 10.5992824151756  3.39436742655644 28.0473384015507  0.257184155583673 48.382986580714  L 28.2845541480948 52.6447434588235  Z " stroke-width="2" stroke="#ffffff" fill="none" transform="matrix(1 0 0 1 267 597 )" mask="url(#clip280)" />
  </g>
</svg>