<?xml version="1.0" encoding="utf-8"?>
<svg version="1.1" xmlns:xlink="http://www.w3.org/1999/xlink" width="44px" height="65px" xmlns="http://www.w3.org/2000/svg">
  <defs>
    <mask fill="white" id="clip279">
      <path d="M 26.0145305347064 64.8892814211576  L 43.8385288285226 43.6471360567316  C 34.3154494243908 35.9270086873104  28.2469135802469 24.252859672866  28.2469135802469 11.1885245901639  C 28.2469135802469 8.84332649450065  28.4424683284127 6.54292626993225  28.8184571135037 4.30215484310576  L 0.889167789292568 0.166939909618268  C 0.304005149254313 3.75622016736834  0 7.4375514817634  0 11.1885245901639  C 0 32.8498035111531  10.1382087133824 52.1886117617198  26.0145305347064 64.8892814211576  Z " fill-rule="evenodd" />
    </mask>
  </defs>
  <g transform="matrix(1 0 0 1 -266 -646 )">
    <path d="M 26.0145305347064 64.8892814211576  L 43.8385288285226 43.6471360567316  C 34.3154494243908 35.9270086873104  28.2469135802469 24.252859672866  28.2469135802469 11.1885245901639  C 28.2469135802469 8.84332649450065  28.4424683284127 6.54292626993225  28.8184571135037 4.30215484310576  L 0.889167789292568 0.166939909618268  C 0.304005149254313 3.75622016736834  0 7.4375514817634  0 11.1885245901639  C 0 32.8498035111531  10.1382087133824 52.1886117617198  26.0145305347064 64.8892814211576  Z " fill-rule="nonzero" fill="#2fc25b" stroke="none" transform="matrix(1 0 0 1 266 646 )" />
    <path d="M 26.0145305347064 64.8892814211576  L 43.8385288285226 43.6471360567316  C 34.3154494243908 35.9270086873104  28.2469135802469 24.252859672866  28.2469135802469 11.1885245901639  C 28.2469135802469 8.84332649450065  28.4424683284127 6.54292626993225  28.8184571135037 4.30215484310576  L 0.889167789292568 0.166939909618268  C 0.304005149254313 3.75622016736834  0 7.4375514817634  0 11.1885245901639  C 0 32.8498035111531  10.1382087133824 52.1886117617198  26.0145305347064 64.8892814211576  Z " stroke-width="2" stroke="#ffffff" fill="none" transform="matrix(1 0 0 1 266 646 )" mask="url(#clip279)" />
  </g>
</svg>