<?xml version="1.0" encoding="utf-8"?>
<svg version="1.1" xmlns:xlink="http://www.w3.org/1999/xlink" width="38px" height="35px" xmlns="http://www.w3.org/2000/svg">
  <defs>
    <mask fill="white" id="clip281">
      <path d="M 15.1154703532722 34.5776764033197  C 21.6477318637526 30.1974762923231  29.4603145695789 27.5975039578647  37.8684156335156 27.4667217293218  L 37.8683593421469 0.000122618728006785  C 24.0746363030438 0.0258211946879356  11.222747575091 4.08979341032011  0.418454640957968 11.0795626174755  L 15.1154703532722 34.5776764033197  Z " fill-rule="evenodd" />
    </mask>
  </defs>
  <g transform="matrix(1 0 0 1 -298 -587 )">
    <path d="M 15.1154703532722 34.5776764033197  C 21.6477318637526 30.1974762923231  29.4603145695789 27.5975039578647  37.8684156335156 27.4667217293218  L 37.8683593421469 0.000122618728006785  C 24.0746363030438 0.0258211946879356  11.222747575091 4.08979341032011  0.418454640957968 11.0795626174755  L 15.1154703532722 34.5776764033197  Z " fill-rule="nonzero" fill="#f04864" stroke="none" transform="matrix(1 0 0 1 298 587 )" />
    <path d="M 15.1154703532722 34.5776764033197  C 21.6477318637526 30.1974762923231  29.4603145695789 27.5975039578647  37.8684156335156 27.4667217293218  L 37.8683593421469 0.000122618728006785  C 24.0746363030438 0.0258211946879356  11.222747575091 4.08979341032011  0.418454640957968 11.0795626174755  L 15.1154703532722 34.5776764033197  Z " stroke-width="2" stroke="#ffffff" fill="none" transform="matrix(1 0 0 1 298 587 )" mask="url(#clip281)" />
  </g>
</svg>