<?xml version="1.0" encoding="utf-8"?>
<svg version="1.1" xmlns:xlink="http://www.w3.org/1999/xlink" width="70px" height="130px" xmlns="http://www.w3.org/2000/svg">
  <defs>
    <mask fill="white" id="clip282">
      <path d="M 43.2824427480916 70.4166666666667  C 43.2824427480916 85.7043118847092  35.3739739050838 99.1195472562673  23.4779517617512 106.687778035673  L 38.1339985086341 129.636576950876  C 57.3061416099999 117.10245122165  70 95.2622585128828  70 70.4166666666667  C 70 31.5266155349165  38.8991696425956 0  0.534351145038179 0  C 0.38589289212799 0  0.237543411319937 0.000472084504589844  0.0894140280454012 0.00141493191820893  L 0.0894110207693794 27.6362879956429  C 0.414944651620536 27.6287762095925  0.74138843617652 27.625  1.06870229007633 27.625  C 24.3827073770533 27.625  43.2824427480916 46.7834817481418  43.2824427480916 70.4166666666667  Z " fill-rule="evenodd" />
    </mask>
  </defs>
  <g transform="matrix(1 0 0 1 -336 -587 )">
    <path d="M 43.2824427480916 70.4166666666667  C 43.2824427480916 85.7043118847092  35.3739739050838 99.1195472562673  23.4779517617512 106.687778035673  L 38.1339985086341 129.636576950876  C 57.3061416099999 117.10245122165  70 95.2622585128828  70 70.4166666666667  C 70 31.5266155349165  38.8991696425956 0  0.534351145038179 0  C 0.38589289212799 0  0.237543411319937 0.000472084504589844  0.0894140280454012 0.00141493191820893  L 0.0894110207693794 27.6362879956429  C 0.414944651620536 27.6287762095925  0.74138843617652 27.625  1.06870229007633 27.625  C 24.3827073770533 27.625  43.2824427480916 46.7834817481418  43.2824427480916 70.4166666666667  Z " fill-rule="nonzero" fill="#1890ff" stroke="none" transform="matrix(1 0 0 1 336 587 )" />
    <path d="M 43.2824427480916 70.4166666666667  C 43.2824427480916 85.7043118847092  35.3739739050838 99.1195472562673  23.4779517617512 106.687778035673  L 38.1339985086341 129.636576950876  C 57.3061416099999 117.10245122165  70 95.2622585128828  70 70.4166666666667  C 70 31.5266155349165  38.8991696425956 0  0.534351145038179 0  C 0.38589289212799 0  0.237543411319937 0.000472084504589844  0.0894140280454012 0.00141493191820893  L 0.0894110207693794 27.6362879956429  C 0.414944651620536 27.6287762095925  0.74138843617652 27.625  1.06870229007633 27.625  C 24.3827073770533 27.625  43.2824427480916 46.7834817481418  43.2824427480916 70.4166666666667  Z " stroke-width="2" stroke="#ffffff" fill="none" transform="matrix(1 0 0 1 336 587 )" mask="url(#clip282)" />
  </g>
</svg>