<?xml version="1.0" encoding="utf-8"?>
<svg version="1.1" xmlns:xlink="http://www.w3.org/1999/xlink" width="328px" height="220px" xmlns="http://www.w3.org/2000/svg">
  <g transform="matrix(1 0 0 1 -114 -175 )">
    <path d="M 25.6857747252747 214.342247252747  L 10.7126391941392 219.792016483516  C 4.20441299388824 201.910809923154  0.874999999999972 183.028768522136  0.874999999999972 163.999986208809  C 0.874999999999972 73.908536392661  73.9085501838518 0.874986208809162  164 0.874986208809162  C 254.091449816148 0.874986208809162  327.125 73.908536392661  327.125 163.999986208809  C 327.125 183.028768522136  323.795587006112 201.910809923154  317.287360805861 219.792016483516  L 302.314225274725 214.342247252747  C 308.186734625624 198.207669703264  311.190934065934 181.170017250952  311.190934065934 163.999957298329  C 311.190934065934 82.708649100364  245.291308197965 16.8090232323952  164 16.8090232323952  C 82.7086918020348 16.8090232323952  16.8090659340659 82.708649100364  16.8090659340659 163.999957298329  C 16.8090659340659 181.170017250952  19.8132653743761 198.207669703264  25.6857747252747 214.342247252747  Z " fill-rule="nonzero" fill="#cfd4db" stroke="none" fill-opacity="0.2" transform="matrix(1 0 0 1 114 175 )" />
  </g>
</svg>