<?xml version="1.0" encoding="utf-8"?>
<svg version="1.1" xmlns:xlink="http://www.w3.org/1999/xlink" width="16px" height="16px" xmlns="http://www.w3.org/2000/svg">
  <g transform="matrix(1 0 0 1 -485 -451 )">
    <path d="M 15.6200256739409 7.47826086956522  C 15.8733418913137 7.76086956521739  16 8.09057971014493  16 8.46739130434783  C 16 8.83695652173913  15.8733418913137 9.16304347826087  15.6200256739409 9.44565217391304  L 14.8498074454429 10.2608695652174  C 14.5896448438169 10.536231884058  14.278134360291 10.6739130434783  13.9152759948652 10.6739130434783  C 13.5455712451861 10.6739130434783  13.2374839537869 10.536231884058  12.9910141206675 10.2608695652174  L 9.97175866495507 7.07608695652174  L 9.97175866495507 14.7282608695652  C 9.97175866495507 15.1050724637681  9.84338896020539 15.411231884058  9.58664955070603 15.6467391304348  C 9.32991014120667 15.8822463768116  9.02011125374412 16  8.65725288831836 16  L 7.34274711168164 16  C 6.97988874625588 16  6.67008985879332 15.8822463768116  6.41335044929397 15.6467391304348  C 6.15661103979461 15.411231884058  6.02824133504493 15.1050724637681  6.02824133504493 14.7282608695652  L 6.02824133504493 7.07608695652174  L 3.00898587933248 10.2608695652174  C 2.76251604621309 10.536231884058  2.45442875481386 10.6739130434783  2.08472400513479 10.6739130434783  C 1.71501925545571 10.6739130434783  1.40693196405648 10.536231884058  1.1604621309371 10.2608695652174  L 0.390243902439024 9.44565217391304  C 0.130081300813008 9.17028985507246  0 8.84420289855072  0 8.46739130434783  C 0 8.08333333333333  0.130081300813008 7.7536231884058  0.390243902439024 7.47826086956522  L 7.07573812580231 0.402173913043478  C 7.31536157466838 0.134057971014492  7.62344886606761 0  8 0  C 8.36970474967907 0  8.68121523320496 0.134057971014492  8.93453145057766 0.402173913043478  L 15.6200256739409 7.47826086956522  Z " fill-rule="nonzero" fill="#d9001b" stroke="none" transform="matrix(1 0 0 1 485 451 )" />
  </g>
</svg>