<?xml version="1.0" encoding="utf-8"?>
<svg version="1.1" xmlns:xlink="http://www.w3.org/1999/xlink" width="25px" height="25px" xmlns="http://www.w3.org/2000/svg">
  <g transform="matrix(1 0 0 1 -501 -102 )">
    <path d="M 24.9934895833333 15.007560483871  C 23.7955729166667 14.5539314516129  22.9361979166667 13.4261592741935  22.9361979166667 12.0967741935484  C 22.9361979166667 10.773689516129  23.7890625 9.64591733870968  25 9.19228830645161  C 24.6809895833333 7.90070564516129  24.1536458333333 6.69102822580645  23.45703125 5.59475806451613  C 23.0403645833333 5.77116935483871  22.59765625 5.86567540322581  22.1484375 5.86567540322581  C 21.328125 5.86567540322581  20.5078125 5.5632560483871  19.8763020833333 4.95841733870968  C 18.90625 4.01965725806452  18.69140625 2.6398689516129  19.2122395833333 1.49319556451613  C 18.0859375 0.819052419354839  16.8294270833333 0.308719758064516  15.5013020833333 0  C 15.0390625 1.16557459677419  13.8671875 1.99722782258065  12.5 1.99722782258065  C 11.1328125 1.99722782258065  9.9609375 1.16557459677419  9.49869791666667 0  C 8.1640625 0.308719758064516  6.9140625 0.819052419354839  5.78125 1.49319556451613  C 6.30859375 2.6335685483871  6.08723958333333 4.01965725806452  5.1171875 4.95841733870968  C 4.4921875 5.5632560483871  3.66536458333333 5.86567540322581  2.84505208333333 5.86567540322581  C 2.39583333333333 5.86567540322581  1.953125 5.77746975806452  1.53645833333333 5.59475806451613  C 0.846354166666667 6.69732862903226  0.319010416666667 7.9070060483871  0 9.19858870967742  C 1.20442708333333 9.64591733870968  2.06380208333333 10.773689516129  2.06380208333333 12.1030745967742  C 2.06380208333333 13.4261592741935  1.2109375 14.5539314516129  0.00651041666666667 15.007560483871  C 0.325520833333333 16.2991431451613  0.852864583333333 17.5088205645161  1.54947916666667 18.6050907258065  C 1.96614583333333 18.4286794354839  2.40885416666667 18.3404737903226  2.8515625 18.3404737903226  C 3.671875 18.3404737903226  4.4921875 18.6428931451613  5.12369791666667 19.2477318548387  C 6.08723958333333 20.1801915322581  6.30859375 21.5662802419355  5.78776041666667 22.7066532258065  C 6.92057291666667 23.3807963709677  8.17708333333333 23.8911290322581  9.50520833333333 24.1998487903226  C 9.96744791666667 23.0342741935484  11.1328125 22.2089213709677  12.5 22.2089213709677  C 13.8671875 22.2089213709677  15.0325520833333 23.0342741935484  15.4947916666667 24.1998487903226  C 16.8294270833333 23.8911290322581  18.0794270833333 23.3807963709677  19.2122395833333 22.7066532258065  C 18.69140625 21.5662802419355  18.9127604166667 20.1864919354839  19.8763020833333 19.2477318548387  C 20.5013020833333 18.6428931451613  21.3216145833333 18.3404737903226  22.1484375 18.3404737903226  C 22.5911458333333 18.3404737903226  23.0403645833333 18.4286794354839  23.4505208333333 18.6050907258065  C 24.1471354166667 17.5088205645161  24.6744791666667 16.2928427419355  24.9934895833333 15.007560483871  Z M 17.7669270833333 12.0904737903226  C 17.7669270833333 14.8689516129032  15.4427083333333 17.1307963709677  12.55859375 17.1307963709677  C 9.67447916666667 17.1307963709677  7.35026041666667 14.8689516129032  7.35026041666667 12.0904737903226  C 7.35026041666667 9.31199596774194  9.67447916666667 7.05015120967742  12.55859375 7.05015120967742  C 15.4427083333333 7.05015120967742  17.7669270833333 9.31199596774194  17.7669270833333 12.0904737903226  Z " fill-rule="nonzero" fill="#5c6b77" stroke="none" transform="matrix(1 0 0 1 501 102 )" />
  </g>
</svg>