<?xml version="1.0" encoding="utf-8"?>
<svg version="1.1" xmlns:xlink="http://www.w3.org/1999/xlink" width="11px" height="12px" xmlns="http://www.w3.org/2000/svg">
  <g transform="matrix(1 0 0 1 -195 -170 )">
    <path d="M 8.10677003888889 6.234993018  C 7.43837202777778 6.81999426  6.56944444444444 7.20999918  5.566834735 7.20999918  C 4.56422501944444 7.20999918  3.69531012277778 6.81999426  2.96006469 6.234993018  C 1.28905695722222 7.07999754  0.152777777777778 9.684993  0.152777777777778 11.7  L 10.8472222222222 11.7  C 10.8472222222222 9.684993  9.71094306111111 7.14499218  8.10677003888889 6.234993018  Z M 2.49218354 3.44000082  C 2.49218354 5.129997534  3.89582699611111 6.430001646  5.5 6.430001646  C 7.17100773888889 6.430001646  8.50781647222222 5.065002876  8.50781647222222 3.44000082  C 8.50781647222222 1.81499877  7.17100773888889 0.45  5.5 0.45  C 3.82899226111111 0.45  2.49218354 1.81499877  2.49218354 3.44000082  Z " fill-rule="nonzero" fill="#c0d5fb" stroke="none" transform="matrix(1 0 0 1 195 170 )" />
  </g>
</svg>