<?xml version="1.0" encoding="utf-8"?>
<svg version="1.1" xmlns:xlink="http://www.w3.org/1999/xlink" width="23px" height="20px" xmlns="http://www.w3.org/2000/svg">
  <g transform="matrix(1 0 0 1 -35 -82 )">
    <path d="M 13.1428571428571 16.3636363636364  L 13.1428571428571 18.1818181818182  L 21.3571428571429 18.1818181818182  L 21.3571428571429 16.3636363636364  L 13.1428571428571 16.3636363636364  Z M 8.21428571428572 9  L 8.21428571428572 11  L 21.3571428571429 11  L 21.3571428571429 9  L 8.21428571428572 9  Z M 16.4285714285714 1.81818181818182  L 16.4285714285714 3.63636363636364  L 21.3571428571429 3.63636363636364  L 21.3571428571429 1.81818181818182  L 16.4285714285714 1.81818181818182  Z M 22.7561383928571 14.8153409090909  C 22.918712797619 14.9952651515151  23 15.2083333333333  23 15.4545454545455  L 23 19.0909090909091  C 23 19.3371212121212  22.918712797619 19.5501893939394  22.7561383928571 19.7301136363636  C 22.5935639880952 19.9100378787879  22.4010416666667 20  22.1785714285714 20  L 0.821428571428571 20  C 0.598958333333333 20  0.406436011904762 19.9100378787879  0.243861607142857 19.7301136363636  C 0.0812872023809524 19.5501893939394  0 19.3371212121212  0 19.0909090909091  L 0 15.4545454545455  C 0 15.2083333333333  0.0812872023809524 14.9952651515151  0.243861607142857 14.8153409090909  C 0.406436011904762 14.6354166666667  0.598958333333333 14.5454545454545  0.821428571428571 14.5454545454545  L 22.1785714285714 14.5454545454545  C 22.4010416666667 14.5454545454545  22.5935639880952 14.6354166666667  22.7561383928571 14.8153409090909  Z M 22.7561383928571 7.54261363636363  C 22.918712797619 7.72253787878788  23 7.93560606060606  23 8.18181818181818  L 23 11.8181818181818  C 23 12.0643939393939  22.918712797619 12.2774621212121  22.7561383928571 12.4573863636364  C 22.5935639880952 12.6373106060606  22.4010416666667 12.7272727272727  22.1785714285714 12.7272727272727  L 0.821428571428571 12.7272727272727  C 0.598958333333333 12.7272727272727  0.406436011904762 12.6373106060606  0.243861607142857 12.4573863636364  C 0.0812872023809524 12.2774621212121  0 12.0643939393939  0 11.8181818181818  L 0 8.18181818181818  C 0 7.93560606060606  0.0812872023809524 7.72253787878788  0.243861607142857 7.54261363636363  C 0.406436011904762 7.36268939393939  0.598958333333333 7.27272727272727  0.821428571428571 7.27272727272727  L 22.1785714285714 7.27272727272727  C 22.4010416666667 7.27272727272727  22.5935639880952 7.36268939393939  22.7561383928571 7.54261363636363  Z M 22.7561383928571 0.269886363636365  C 22.918712797619 0.449810606060603  23 0.662878787878787  23 0.909090909090908  L 23 4.54545454545455  C 23 4.79166666666667  22.918712797619 5.00473484848485  22.7561383928571 5.18465909090909  C 22.5935639880952 5.36458333333333  22.4010416666667 5.45454545454545  22.1785714285714 5.45454545454545  L 0.821428571428571 5.45454545454545  C 0.598958333333333 5.45454545454545  0.406436011904762 5.36458333333333  0.243861607142857 5.18465909090909  C 0.0812872023809524 5.00473484848485  0 4.79166666666667  0 4.54545454545455  L 0 0.909090909090908  C 0 0.662878787878787  0.0812872023809524 0.449810606060603  0.243861607142857 0.269886363636365  C 0.406436011904762 0.0899621212121193  0.598958333333333 0  0.821428571428571 0  L 22.1785714285714 0  C 22.4010416666667 0  22.5935639880952 0.0899621212121193  22.7561383928571 0.269886363636365  Z " fill-rule="nonzero" fill="#2c55eb" stroke="none" fill-opacity="0.8" transform="matrix(1 0 0 1 35 82 )" />
  </g>
</svg>