<?xml version="1.0" encoding="utf-8"?>
<svg version="1.1" xmlns:xlink="http://www.w3.org/1999/xlink" width="23px" height="20px" xmlns="http://www.w3.org/2000/svg">
  <g transform="matrix(1 0 0 1 -45 -282 )">
    <path d="M 1.4375 18  L 23 18  L 23 20  L 0 20  L 0 0  L 1.4375 0  L 1.4375 18  Z M 21.46142578125 1.78385416666667  C 21.52880859375 1.86197916666667  21.5625 1.96180555555555  21.5625 2.08333333333333  L 21.5625 7.74739583333333  C 21.5625 7.9296875  21.489501953125 8.05772569444444  21.343505859375 8.13151041666667  C 21.197509765625 8.20529513888889  21.0646158854167 8.17274305555556  20.94482421875 8.03385416666667  L 19.5859375 6.45833333333333  L 12.47705078125 14.7005208333333  C 12.4021809895833 14.7873263888889  12.3160807291667 14.8307291666667  12.21875 14.8307291666667  C 12.1214192708333 14.8307291666667  12.0353190104167 14.7873263888889  11.96044921875 14.7005208333333  L 9.34375 11.6666666666667  L 4.671875 17.0833333333333  L 2.515625 14.5833333333333  L 9.08544921875 6.96614583333333  C 9.16031901041667 6.87934027777778  9.24641927083334 6.8359375  9.34375 6.8359375  C 9.44108072916667 6.8359375  9.52718098958333 6.87934027777778  9.60205078125 6.96614583333333  L 12.21875 10  L 17.4296875 3.95833333333333  L 16.07080078125 2.3828125  C 15.9510091145833 2.24392361111111  15.9229329427083 2.08984375  15.986572265625 1.92057291666667  C 16.0502115885417 1.75130208333333  16.16064453125 1.66666666666667  16.31787109375 1.66666666666667  L 21.203125 1.66666666666667  C 21.3079427083333 1.66666666666667  21.39404296875 1.70572916666667  21.46142578125 1.78385416666667  Z " fill-rule="nonzero" fill="#2c55eb" stroke="none" fill-opacity="0.8" transform="matrix(1 0 0 1 45 282 )" />
  </g>
</svg>