<?xml version="1.0" encoding="utf-8"?>
<svg version="1.1" xmlns:xlink="http://www.w3.org/1999/xlink" width="30px" height="14px" xmlns="http://www.w3.org/2000/svg">
  <g transform="matrix(1 0 0 1 -1156 -87 )">
    <path d="M 30 6.875  C 30 3.07499999999982  26.925 0  23.1375 0  L 23.1312499999999 0  C 19.34375 0  16.26875 3.07499999999982  16.26875 6.88124999999991  C 16.26875 8.78749999999991  17.0374999999999 10.5062499999999  18.2874999999999 11.75  L 11.71875 11.75  C 12.9625000000001 10.5062499999999  13.7375 8.78125  13.7375 6.88124999999991  C 13.7375 3.08125000000018  10.6624999999999 0  6.875 0  L 6.86875000000009 0  L 6.86249999999995 0  C 3.07500000000005 0  0 3.07499999999982  0 6.875  C 0 10.6750000000002  3.07500000000005 13.75  6.86249999999995 13.75  L 23.1375 13.75  C 26.925 13.75  30 10.6750000000002  30 6.875  Z M 23.1312499999999 1.98750000000018  C 25.8187499999999 1.98750000000018  28 4.18125000000009  28 6.875  C 28 9.56874999999991  25.8187499999999 11.7624999999998  23.1312499999999 11.7624999999998  C 20.4437499999999 11.7624999999998  18.2625 9.56874999999991  18.2625 6.875  C 18.2625 4.18125000000009  20.4437499999999 1.98750000000018  23.1312499999999 1.98750000000018  Z M 11.7375 6.875  C 11.7375 9.56874999999991  9.55625000000009 11.7624999999998  6.86875000000009 11.7624999999998  C 4.1875 11.7624999999998  2 9.56874999999991  2 6.875  C 2 4.18125000000009  4.18125000000009 1.98750000000018  6.86875000000009 1.98750000000018  C 9.55625000000009 1.98750000000018  11.7375 4.18125000000009  11.7375 6.875  Z " fill-rule="nonzero" fill="#2c55eb" stroke="none" fill-opacity="0.8" transform="matrix(1 0 0 1 1156 87 )" />
  </g>
</svg>