<?xml version="1.0" encoding="utf-8"?>
<svg version="1.1" xmlns:xlink="http://www.w3.org/1999/xlink" width="19px" height="13px" xmlns="http://www.w3.org/2000/svg">
  <defs>
    <linearGradient gradientUnits="userSpaceOnUse" x1="1.30850423829543E-08" y1="3.42773438015686" x2="18.9999999820828" y2="9.57226563902038" id="LinearGradient272">
      <stop id="Stop273" stop-color="#33afff" offset="0" />
      <stop id="Stop274" stop-color="#405cff" offset="1" />
    </linearGradient>
  </defs>
  <g transform="matrix(1 0 0 1 -209 -161 )">
    <path d="M 15.709200296875 5.601215564556  L 15.709200296875 5.56870611005798  C 15.706788128125 2.85632395037854  13.7125258625 0.539546178758344  10.985263309375 0.0808059257912094  C 8.25800075625 -0.377934333085019  5.589864125 1.15460280422471  4.665076709375 3.71102502185894  C 2.048388159375 3.7507813263464  -0.0399777812500017 5.86229054599332  0.000580925000000621 8.42721293770606  C 0.0411395718749981 10.9921352703279  2.195264096875 13.0391868855234  4.811952646875 13  L 15.235406975 13  C 17.226538396875 12.986113617419  18.867696409375 11.4648789696382  18.9924463125 9.51692718157089  C 19.117196275 7.56897533441263  17.6830017 5.85850577327157  15.709200296875 5.601215564556  Z " fill-rule="nonzero" fill="url(#LinearGradient272)" stroke="none" transform="matrix(1 0 0 1 209 161 )" />
  </g>
</svg>