<?xml version="1.0" encoding="utf-8"?>
<svg version="1.1" xmlns:xlink="http://www.w3.org/1999/xlink" width="14px" height="16px" xmlns="http://www.w3.org/2000/svg">
  <g transform="matrix(1 0 0 1 -405 -459 )">
    <path d="M 6.55079569010417 1.226322578125  L 7.06021505729167 0.774193546875  L 7.647913984375 1.297032265625  L 7.69247312239583 1.337290328125  L 8.07965591927083 1.695483875  L 8.2431397890625 1.849806453125  L 8.32683871614583 1.929290328125  L 8.58546235677083 2.178064515625  C 9.32845360724391 2.89646073237541  10.0390121326249 3.63902846586018  10.7155698854167 4.40412903125  C 12.6123440807292 6.558967734375  13.744086015625 8.4077419375  13.744086015625 9.727483875  C 13.744086015625 12.828903234375  10.7453763411458 15.3517419375  7.06021505729167 15.3517419375  C 3.3750537734375 15.3517419375  0.376344080729166 12.828903234375  0.376344080729166 9.727483875  C 0.376344080729166 8.457806453125  1.424086015625 6.697806453125  3.1935053828125 4.646967734375  L 3.4048602109375 4.40438709375  C 4.07655913802083 3.64103225  4.80184946354166 2.889548390625  5.53496773958333 2.178322578125  L 5.7935913984375 1.929548390625  L 6.04047312239583 1.6957419375  L 6.32920430989583 1.42787096875  L 6.55079569010417 1.226322578125  Z M 7.19630107291667 2.39690321875  L 7.06021505729167 2.270967734375  L 6.92984946354167 2.3917419375  L 6.69290321875 2.6162580625  L 6.4375913984375 2.861677421875  C 5.71626094983545 3.55883539827306  5.02639188471528 4.27945107805406  4.3695053828125 5.021935484375  L 4.16176344791667 5.26064515625  L 3.96516128385417 5.49109678125  C 2.38993547916667 7.35690321875  1.58064515364583 8.825032265625  1.58064515364583 9.727483875  C 1.58064515364583 12.254193546875  4.03501074739583 14.319483875  7.06021505729167 14.319483875  C 10.0857204401042 14.319483875  12.5397849427083 12.254451609375  12.5397849427083 9.727483875  C 12.5397849427083 8.784516140625  11.6597419348958 7.232  9.95475268229167 5.2557419375  L 9.75423655208334 5.026064515625  C 9.09749472659818 4.28313648974278  8.40772531518691 3.56208957120513  7.686451609375 2.864516125  L 7.4311397890625 2.61909678125  L 7.19630107291667 2.39690321875  Z M 9.8081290234375 10.453677421875  C 9.91260214583333 10.177290328125  10.2648602109375 10.024516125  10.5954408619792 10.111483875  L 10.6396989270833 10.12464515625  C 10.9419785052083 10.225806453125  11.1051612838542 10.506838703125  11.00490321875 10.77109678125  C 10.7450752682292 11.457548390625  10.1989247317708 12.0472258125  9.46761291145834 12.4322580625  C 9.3661505546875 12.485419359375  9.25083871614583 12.51303225  9.133720421875 12.513032265625  C 8.91995697395834 12.513032265625  8.71944084375 12.4227096875  8.60262365885417 12.26838709375  C 8.53944006870126 12.1846078081046  8.50582834796332 12.0869707541432  8.50582834796332 11.9872110996275  C 8.50582834796332 11.8053770603332  8.61707406887682 11.6368609473062  8.79892473177084 11.5432258125  C 9.2756032607786 11.2942915311198  9.63335263881336 10.9080612482093  9.8081290234375 10.453677421875  Z " fill-rule="nonzero" fill="#475570" stroke="none" transform="matrix(1 0 0 1 405 459 )" />
  </g>
</svg>