<?xml version="1.0" encoding="utf-8"?>
<svg version="1.1" xmlns:xlink="http://www.w3.org/1999/xlink" width="30px" height="34px" xmlns="http://www.w3.org/2000/svg">
  <defs>
    <linearGradient gradientUnits="userSpaceOnUse" x1="99.3184810440959" y1="192.219030112642" x2="114.715026006705" y2="178.026426291836" id="LinearGradient215">
      <stop id="Stop216" stop-color="#f2f6fa" stop-opacity="0" offset="0" />
      <stop id="Stop217" stop-color="#e6e6e6" stop-opacity="0.501960784313725" offset="0.7" />
      <stop id="Stop218" stop-color="#e6e6e6" stop-opacity="0.501960784313725" offset="1" />
    </linearGradient>
  </defs>
  <g transform="matrix(1 0 0 1 -428 -671 )">
    <path d="M 10.52 31.51  L 10.44 31.48  C 6.12 28.61  0.629999999999995 22.6  0.499999999999993 18.35  C 1.20076665969759 18.4491951444247  1.82621032419876 18.8419155849255  2.22 19.43  C 2.22 19.43  11.89 32.12  7.22 21.62  C 5.02 16.62  2.22 11.73  0.729999999999997 6.87  C -2 -2  5 -2.29000000000001  10 8.05000000000001  C 10.66 9.41000000000003  14.74 20.18  16.94 19.7  C 17.2061911478202 19.6044913827661  17.403295288215 19.3770635284644  17.46 19.1  C 18.12 17.24  17.59 14.1  19.72 13.96  C 21.59 13.86  24.16 16.31  25.84 18.58  C 29.22 23.17  31.26 29.93  27.59 31.98  C 23.92 34.0300000000001  16.16 35.26  10.52 31.51  Z " fill-rule="nonzero" fill="url(#LinearGradient215)" stroke="none" transform="matrix(1 0 0 1 428 671 )" />
  </g>
</svg>