<?xml version="1.0" encoding="utf-8"?>
<svg version="1.1" xmlns:xlink="http://www.w3.org/1999/xlink" width="36px" height="57px" xmlns="http://www.w3.org/2000/svg">
  <defs>
    <linearGradient gradientUnits="userSpaceOnUse" x1="0.0200000000000031" y1="28.57" x2="35.85" y2="28.57" id="LinearGradient219">
      <stop id="Stop220" stop-color="#f2f6fa" stop-opacity="0" offset="0" />
      <stop id="Stop221" stop-color="#e6e6e6" stop-opacity="0.501960784313725" offset="0.7" />
      <stop id="Stop222" stop-color="#e6e6e6" stop-opacity="0.501960784313725" offset="1" />
    </linearGradient>
  </defs>
  <g transform="matrix(1 0 0 1 -571 -642 )">
    <path d="M 15 51.19  C 15 51.19  16.56 33.92  23.58 21.38  C 23.58 21.38  10.26 36.87  10.7 51.19  L 15 51.19  Z M 26.54 5.35999999999999  C 28.43 3.23999999999999  33 2.17  34.26 0.669999999999987  C 31.31 4.36999999999999  29.42 9.60999999999999  31.18 14.3  C 32.41 17.53  36.09 17.55  35.83 22.04  C 35.5801463037011 24.2832942579418  34.8096722511421 26.4371972759846  33.58 28.33  C 31.4925090134241 31.9824128051796  28.9339218087432 35.3445510504897  25.97 38.33  C 28.4389647735643 40.25478262039  29.6962933962393 43.3485730495173  29.27 46.45  C 28.7781955059768 49.5252246558368  27.3172386948943 52.3630544327598  25.1 54.55  C 24.4456058307838 55.348180015948  23.5942116899292 55.9617353077379  22.63 56.33  C 21.6915877088991 56.5398411156479  20.718412291101 56.5398411156479  19.78 56.33  C 15.1838146659998 55.5475299769015  10.7202489466675 54.1236323153045  6.52000000000004 52.1  C 3.90000000000003 50.85  1.22000000000003 49.1  0.330000000000041 46.43  C -0.669999999999959 43.32  0.940000000000055 42.33  2.71000000000004 41.35  L 3.16000000000003 41.1  C 4.09919642440417 40.6651109197145  4.91159333638709 39.9972931191861  5.52000000000004 39.16  C 6.81000000000003 37.04  6.85000000000005 34.16  7.31000000000003 31.83  C 7.98000000000002 28.34  6.99000000000004 21.98  11.36 20.61  C 13.06 20.08  14.9 20.2  16.59 19.61  C 20.27 18.44  21.8 14.99  23.27 11.5  L 23.5400000000001 10.86  C 24.2593647729055 8.88697454439362  25.2706155767957 7.03301473726152  26.54 5.35999999999999  Z " fill-rule="nonzero" fill="url(#LinearGradient219)" stroke="none" transform="matrix(1 0 0 1 571 642 )" />
  </g>
</svg>