<?xml version="1.0" encoding="utf-8"?>
<svg version="1.1" xmlns:xlink="http://www.w3.org/1999/xlink" width="115px" height="74px" xmlns="http://www.w3.org/2000/svg">
  <defs>
    <mask fill="white" id="clip243">
      <path d="M 0.0300000000000011 46.06  C 0.0300000000000011 46.06  19.61 0.329999999999998  19.61 0.329999999999998  C 19.61 0.329999999999998  94.74 0.75  94.74 0.75  C 94.74 0.75  114.3 46.5  114.3 46.5  C 114.3 46.5  104.5 66.5  104.5 66.5  C 104.5 66.5  44.08 73.18  42.74 73.18  C 41.4 73.18  11.14 65.18  11.14 65.18  C 11.14 65.18  0.0300000000000011 46.06  0.0300000000000011 46.06  Z " fill-rule="evenodd" />
    </mask>
  </defs>
  <g transform="matrix(1 0 0 1 -454 -629 )">
    <path d="M 0.0300000000000011 46.06  C 0.0300000000000011 46.06  19.61 0.329999999999998  19.61 0.329999999999998  C 19.61 0.329999999999998  94.74 0.75  94.74 0.75  C 94.74 0.75  114.3 46.5  114.3 46.5  C 114.3 46.5  104.5 66.5  104.5 66.5  C 104.5 66.5  44.08 73.18  42.74 73.18  C 41.4 73.18  11.14 65.18  11.14 65.18  C 11.14 65.18  0.0300000000000011 46.06  0.0300000000000011 46.06  Z " fill-rule="nonzero" fill="#cccccc" stroke="none" transform="matrix(1 0 0 1 454 629 )" />
    <path d="M 0.0300000000000011 46.06  C 0.0300000000000011 46.06  19.61 0.329999999999998  19.61 0.329999999999998  C 19.61 0.329999999999998  94.74 0.75  94.74 0.75  C 94.74 0.75  114.3 46.5  114.3 46.5  C 114.3 46.5  104.5 66.5  104.5 66.5  C 104.5 66.5  44.08 73.18  42.74 73.18  C 41.4 73.18  11.14 65.18  11.14 65.18  C 11.14 65.18  0.0300000000000011 46.06  0.0300000000000011 46.06  Z " stroke-width="6" stroke="#ffffff" fill="none" transform="matrix(1 0 0 1 454 629 )" mask="url(#clip243)" />
  </g>
</svg>