<?xml version="1.0" encoding="utf-8"?>
<svg version="1.1" xmlns:xlink="http://www.w3.org/1999/xlink" width="120px" height="99px" xmlns="http://www.w3.org/2000/svg">
  <defs>
    <linearGradient gradientUnits="userSpaceOnUse" x1="61.08" y1="-2.48" x2="59.3" y2="116.22" id="LinearGradient244">
      <stop id="Stop245" stop-color="#f4f4f4" offset="0" />
      <stop id="Stop246" stop-color="#e7e7e7" offset="0.32" />
      <stop id="Stop247" stop-color="#cccccc" offset="1" />
    </linearGradient>
  </defs>
  <g transform="matrix(1 0 0 1 -451 -626 )">
    <path d="M 119 47.21  C 119.359673316592 46.4215537914262  119.174737187783 45.6441371018062  118.82 44.94  L 100.82 7.84999999999999  C 98.57 3.20999999999999  93.11 0.159999999999997  87.04 1  L 33 1  C 26.94 0.159999999999997  21.48 3.16  19.23 7.84999999999999  L 1.23000000000001 44.94  C 0.879883036034926 45.6493798121835  0.695250078458429 46.4289411886176  1 47.22  L 1 91.91  C 0.690000000000005 95.28  4.02000000000001 98.02  8.11 98  L 111.94 98  C 116.03 98.02  119.36 95.28  119 91.91  L 119 47.21  Z M 11.38 46  C 10.06 46  9.16 44.94  9.64999999999999 43.94  L 23.33 10.13  C 24.7212861355427 7.64950836041004  27.3884460820803 6.16131041922597  30.23 7  L 90 7  C 92.8375485784832 6.1561385653586  95.5027921641688 7.64155734170592  96.89 10.12  L 110.36 43.93  C 110.85 44.93  109.95 46.02  108.64 46  L 88.24 46  C 86.7535833038672 45.9481794308572  85.3695016095407 46.7762624958389  84.73 48.12  L 83.11 52.12  L 81.48 56.12  C 80.8370028219286 57.4653280048264  79.4492921539508 58.2932235737904  77.96 58  L 42.05 58  C 40.5613842559972 58.2905163262445  39.1750581960098 57.4634468018202  38.53 56.12  L 36.91 52.12  L 35.28 48.12  C 34.638431206847 46.7781438244598  33.2557363106337 45.950890467751  31.77 46  L 11.38 46  Z " fill-rule="nonzero" fill="url(#LinearGradient244)" stroke="none" transform="matrix(1 0 0 1 451 626 )" />
  </g>
</svg>