<?xml version="1.0" encoding="utf-8"?>
<svg version="1.1" xmlns:xlink="http://www.w3.org/1999/xlink" width="11px" height="15px" xmlns="http://www.w3.org/2000/svg">
  <g transform="matrix(1 0 0 1 -441 -680 )">
    <path d="M 8.47000000000001 10.45  L 10.5 7.49000000000001  L 8.5 1.12  L 4 0.449999999999989  C 3.18 0.0799999999999841  2.43 0.679999999999978  1.76 2.09999999999999  C 0.759999999999998 4.19  0.759999999999998 9.35999999999999  0.759999999999998 9.88  C 0.759999999999998 10.4  0.759999999999998 10.7  1.51 10.93  C 1.74 11  3.51 10.78  3.98 11.08  C 4.27999999999999 11.3  4.43 11.98  4.35999999999999 13.02  C 5.14686389489851 13.749060725487  6.13782348223874 14.2201154589058  7.2 14.37  C 8.06874241772693 14.3278683462862  8.89285854150811 13.9726458791391  9.52 13.37  L 8.47000000000001 10.45  Z " fill-rule="nonzero" fill="#fef0e2" stroke="none" transform="matrix(1 0 0 1 441 680 )" />
  </g>
</svg>