<?xml version="1.0" encoding="utf-8"?>
<svg version="1.1" xmlns:xlink="http://www.w3.org/1999/xlink" width="29px" height="30px" xmlns="http://www.w3.org/2000/svg">
  <defs>
    <linearGradient gradientUnits="userSpaceOnUse" x1="0.770000000000004" y1="14.97" x2="28.9" y2="14.97" id="LinearGradient257">
      <stop id="Stop258" stop-color="#ff9084" offset="0" />
      <stop id="Stop259" stop-color="#ff9084" offset="0.21" />
      <stop id="Stop260" stop-color="#ffc8ae" offset="0.83" />
      <stop id="Stop261" stop-color="#ffc8ae" offset="1" />
    </linearGradient>
  </defs>
  <g transform="matrix(1 0 0 1 -433 -691 )">
    <path d="M 21.07 1.00999999999999  C 19.8786455424911 0.701031126350784  18.6697999168943 0.463937094811087  17.45 0.300000000000011  C 17.9 1.95000000000002  17.38 2.77000000000001  15.96 2.77000000000001  C 14.54 2.77000000000001  12.81 1.95000000000002  10.87 0.300000000000011  C 9.55370074919802 0.306584443456501  8.25303808713707 0.585784281909383  7.05 1.12  C 5.74498389357377 2.04205559395575  4.58545122265816 3.15439798175271  3.61000000000001 4.42000000000002  L 0.77000000000001 7.49000000000001  C 1.77212744398974 7.78343493901232  2.7486894710264 8.15800667540995  3.69000000000001 8.61000000000001  C 4.20080908173679 8.98665575256379  4.59015889782024 9.50463006146052  4.81000000000001 10.1  L 23.14 28.1  L 25.69 29.6  L 28.9 27.5  C 28.75 21.59  28.6 17.1  28.3 14.11  C 27.93 9.62  27.48 7.30000000000001  26.3 4.90000000000001  C 25.12 2.5  22.41 1.61000000000001  21.07 1.00999999999999  Z " fill-rule="nonzero" fill="url(#LinearGradient257)" stroke="none" transform="matrix(1 0 0 1 433 691 )" />
  </g>
</svg>