<?xml version="1.0" encoding="utf-8"?>
<svg version="1.1" xmlns:xlink="http://www.w3.org/1999/xlink" width="31px" height="31px" xmlns="http://www.w3.org/2000/svg">
  <g transform="matrix(1 0 0 1 -431 -701 )">
    <path d="M 29.67 22.51  C 30.2295922698563 20.9213195793107  30.6413391118318 19.2843748173103  30.9 17.62  C 27.61 18.51  25.81 18.81  25.59 18.06  C 25.1649413220663 15.0335875970638  24.9145267441604 11.9852074686898  24.84 8.92999999999998  C 25.5232352968532 8.22117107079382  25.5232352968532 7.09882892920621  24.84 6.39000000000001  C 24.17 5.64000000000001  22.52 5.19000000000003  19.9 4.97000000000003  C 18.71 3.40000000000003  17.66 2.50000000000003  16.69 2.35000000000002  C 15.72 2.20000000000002  14.69 2.65000000000003  13.47 3.77000000000001  C 12.57 1.08000000000001  10.62 -0.119999999999976  7.71000000000001 0.100000000000023  C 3.44000000000001 0.480000000000018  2.09000000000001 16.34  1.94000000000001 17.02  C 1.34665590599107 19.7491071152243  1.01184214580708 22.5280613247514  0.940000000000012 25.3200000000001  C 0.940000000000012 26.74  5.65000000000001 25.02  5.43000000000001 26.0700000000001  C 5.13000000000002 27.7200000000001  6.43000000000001 28.99  9.17000000000002 30.0700000000001  L 13.51 24.7500000000001  C 15.0833333333334 25.1300000000001  16.88 25.5800000000001  18.9 26.1000000000001  C 21.3368895376177 26.8502884707037  23.9431104623824 26.8502884707037  26.38 26.1000000000001  C 28.55 25.4300000000001  29 24.5300000000001  29.67 22.51  Z " fill-rule="nonzero" fill="#8faded" stroke="none" transform="matrix(1 0 0 1 431 701 )" />
  </g>
</svg>