<?xml version="1.0" encoding="utf-8"?>
<svg version="1.1" xmlns:xlink="http://www.w3.org/1999/xlink" width="28px" height="20px" xmlns="http://www.w3.org/2000/svg">
  <g transform="matrix(1 0 0 1 -429 -698 )">
    <path d="M 26.17 8.42000000000002  C 25.1926619025421 8.03157900220083  24.1516627738187 7.82812640375323  23.1 7.81999999999999  C 23.1 7.81999999999999  20.78 14.03  18.91 14.82  C 16.81 15.72  15.09 14.07  14.12 13.82  C 13.2326294035061 13.4679816332276  12.4007180516446 12.9897168074611  11.65 12.4  C 10.65 11.58  10.23 10.15  9.56 10.15  C 8.89 10.15  9.86 12.02  9.56 12.02  C 9.26000000000001 12.02  5.74 9.93000000000001  5.74 8.73000000000002  C 5.74 7.53000000000003  9.74 3.57000000000002  9.74 3.27000000000001  C 9.74 2.97  7.74 0.350000000000023  6.37 0.650000000000006  C 5.00000000000001 0.949999999999989  3.52 3.65000000000001  2.93000000000001 4.65000000000001  C 1.50000000000001 6.89000000000001  0.460000000000008 9.59  1.13000000000001 10.78  C 2.48000000000001 13.48  15.72 18.12  17.44 18.78  C 19.16 19.44  19.84 19.78  21.44 19.08  C 23.04 18.38  25 15  26.17 13.58  C 26.8857804354448 12.7685567059023  27.3083640906144 11.7402698116563  27.37 10.66  C 27.5046032660579 9.73095324495895  27.0180104063041 8.8226465734185  26.17 8.42000000000002  Z " fill-rule="nonzero" fill="#fbdbbe" stroke="none" transform="matrix(1 0 0 1 429 698 )" />
  </g>
</svg>