<?xml version="1.0" encoding="utf-8"?>
<svg version="1.1" xmlns:xlink="http://www.w3.org/1999/xlink" width="11px" height="9px" xmlns="http://www.w3.org/2000/svg">
  <g transform="matrix(1 0 0 1 -427 -725 )">
    <path d="M 10.12 3.41999999999996  C 9.86946476363563 2.68555231126314  9.4902182507368 2.00155413621349  9 1.40000000000003  C 8.11466941017103 0.752892152358413  7.02079070635144 0.457152958817574  5.93 0.569999999999993  C 5.1830594289945 0.778935131150178  4.51048448793598 1.1949608678874  3.99 1.76999999999998  C 2.99 2.66999999999999  1.99 4.16999999999999  0.990000000000002 5.05999999999997  C 0.561371657652117 5.42479587091987  0.314399227678351 5.9592975096383  0.314399227678351 6.52214587581176  C 0.314399227678351 7.58253259548687  1.17401250800323 8.44214587581178  2.23439922767835 8.44214587581178  C 2.42262484066005 8.44214587581178  2.60982749005402 8.41446786247047  2.79 8.35999999999999  C 2.87 8.35999999999999  2.87 8.35999999999999  2.94 8.27999999999997  C 4.89 7.67999999999998  7.36 5.88999999999999  10.12 3.41999999999996  Z " fill-rule="nonzero" fill="#45487a" stroke="none" transform="matrix(1 0 0 1 427 725 )" />
  </g>
</svg>