<?xml version="1.0" encoding="utf-8"?>
<svg version="1.1" xmlns:xlink="http://www.w3.org/1999/xlink" width="11px" height="9px" xmlns="http://www.w3.org/2000/svg">
  <g transform="matrix(1 0 0 1 -431 -729 )">
    <path d="M 10.07 3.93999999999997  C 9.93512075890969 3.23437880390009  9.63719798592383 2.57004526413846  9.2 2  C 8.4785641384518 1.15190342970297  7.51007035530138 0.55052822861316  6.43 0.280000000000001  C 5.58826073596854 0.717561572780795  4.83004312283265 1.29976438286727  4.19 2  C 3.19 2.90000000000001  2.19 4.38999999999999  1.12 5.28999999999999  L 1.04999999999999 5.35999999999996  C 0.592170703734908 5.71413918670552  0.3241389769967 6.26032586398736  0.3241389769967 6.83913691094398  C 0.3241389769967 7.87190939312757  1.16136649481312 8.70913691094398  2.1941389769967 8.70913691094398  C 2.33750690690747 8.70913691094398  2.48039926645513 8.69264963277945  2.62 8.66  C 2.77 8.57999999999998  2.91999999999999 8.57999999999998  3.07 8.50999999999999  C 5.01 7.91  7.33 6.41  10.07 3.93999999999997  Z " fill-rule="nonzero" fill="#45487a" stroke="none" transform="matrix(1 0 0 1 431 729 )" />
  </g>
</svg>