<?xml version="1.0" encoding="utf-8"?>
<svg version="1.1" xmlns:xlink="http://www.w3.org/1999/xlink" width="13px" height="13px" xmlns="http://www.w3.org/2000/svg">
  <g transform="matrix(1 0 0 1 -440 -677 )">
    <path d="M 11.73 10.65  C 12.6275900827719 8.67936624478259  12.9132396204055 6.48474174832936  12.55 4.34999999999999  C 11.88 0.22999999999999  8.95999999999999 0.00999999999999091  4.69 0.349999999999994  C 0.420000000000002 0.689999999999998  0.349999999999994 3.19  1.18 4.98999999999998  C 1.77 6.32999999999998  4.02 5.28999999999999  4.92 4.75999999999999  C 4.92 4.75999999999999  7.39 4.09  8.73 7.67999999999998  C 8.73 7.75999999999999  8.81 7.82999999999998  8.81 7.90999999999997  L 8.81 7.97999999999996  C 9.06942880504636 8.48479894384329  9.53111517936219 8.85560217360876  10.08 9  C 10.213269089607 9.05516300518798  10.3378853120625 9.1292591374588  10.45 9.22  C 10.6698078577306 9.46402842643988  10.7557779123209 9.80043298788027  10.68 10.12  C 10.1703703513682 10.9637876767158  9.59526938834632 11.7662541367463  8.95999999999999 12.52  C 10.08 12.74  10.96 12.07  11.73 10.65  Z " fill-rule="nonzero" fill="#3b3d6f" stroke="none" transform="matrix(1 0 0 1 440 677 )" />
  </g>
</svg>