<?xml version="1.0" encoding="utf-8"?>
<svg version="1.1" xmlns:xlink="http://www.w3.org/1999/xlink" width="14px" height="16px" xmlns="http://www.w3.org/2000/svg">
  <g transform="matrix(1 0 0 1 -735 -461 )">
    <path d="M 13.208379171875 9.774962078125  C 13.2050474375 13.377248  10.478344890625 15.99267015625  6.71546871875 15.99267015625  C 2.98124559375 15.99267015625  0.336504046875 13.3752489375  0.336504046875 9.771630328125  C 0.336504046875 7.8572079375  1.4706310625 5.7948559375  1.52060728125 5.710229546875  C 1.61978355971784 5.53374400974669  1.81530158553067 5.43414544315336  2.016371375 5.457683046875  C 2.217608953125 5.48433703125  2.378199203125 5.6309339375  2.43350621875 5.82550803125  C 2.4375043125 5.836169625  2.744025125 6.995617921875  3.146500296875 7.637312578125  C 3.416371890625 8.0704398125  3.69290696875 8.374295234375  4.002759515625 8.587527109375  C 3.792859390625 7.66996371875  3.63360184375 6.288621  3.89414453125 4.8739608125  C 4.60580590625 0.989142671875  7.633032109375 0.056919578125  7.7623039375 0.01893765625  C 7.806285087544 0.00651015622479787  7.85176997822697 0.000207346939409581  7.89747319820181 0.000207346939409581  C 8.17201217830561 0.000207346939409581  8.39456999507681 0.222765163710611  8.39456999507681 0.49730414381441  C 8.39456999507681 0.530449198759796  8.39125498327864 0.563511158979435  8.384674453125 0.59599640625  C 8.381342703125 0.622650390625  7.879581453125 3.34535484375  8.939077328125 5.66491778125  C 9.035698015625 5.876150609375  9.1689679375 6.119368203125  9.313565796875 6.36658390625  C 9.35385365936302 6.01424178424237  9.4224879730879 5.66572208184693  9.51880146875 5.324413140625  C 9.909282328125 3.949067578125  10.914803875 3.478624765625  10.95811659375 3.4606333125  C 11.1258560587599 3.38551725089089  11.3214189517259 3.40964180629331  11.465874984375 3.523270171875  C 11.612471890625 3.636549609375  11.680439546875 3.8244601875  11.647788421875 4.0083726875  C 11.642457625 4.043022859375  11.501191515625 4.979910390625  12.291482140625 6.30727878125  C 13.0051425625 7.505375359375  13.2083791875 8.282338984375  13.208379171875 9.774962078125  Z M 2.340883625 8.271677390625  C 2.18015047979273 8.00134723459935  2.04132799974899 7.71857720495036  1.925747828125 7.42607975  C 1.6386501854694 8.15868532865565  1.48976301684093 8.93814017346482  1.486623453125 9.724985859375  C 1.486623453125 12.659589484375  3.649594234375 14.7885764375  6.717467765625 14.7885764375  C 9.809329890625 14.7885764375  12.05292896875 12.659589484375  12.052928984375 9.724319515625  C 12.052928984375 8.455589890625  11.89766953125 7.86986859375  11.298621234375 6.860348953125  C 10.898811484375 6.187335859375  10.69890659375 5.582290421875  10.6082830625 5.09918696875  C 10.4993041832141 5.27840761696444  10.4158720386943 5.4719612238654  10.360401015625 5.674246671875  C 10.067873546875 6.707088546875  10.143171046875 7.9198448125  10.143171046875 7.933171796875  C 10.1563006294581 8.14880051626396  10.0262217299765 8.34744183012058  9.823323234375 8.421606046875  C 9.62104539623806 8.49469648892922  9.39492072563618 8.42215043929609  9.27291846875 8.24502340625  C 9.234936546875 8.19438084375  8.38267540625 6.972295671875  8.006854234375 6.1460221875  C 7.227225203125 4.439500875  7.237886796875 2.591713453125  7.3165160625 1.528219484375  C 6.5262254375 1.9933315  5.3101374375 3.034835921875  4.917657515625 5.151162234375  C 4.53783825 7.213514234375  5.27615359375 9.369155171875  5.2834834375 9.389145671875  C 5.34773341379745 9.55788217116214  5.31421144730543 9.74826646766634  5.196191640625 9.884909765625  C 5.07991800075742 10.0209593997106  4.89682805585448 10.0797544800129  4.7230834375 10.03683746875  C 4.664444671875 10.02217778125  3.214467953125 9.6670134375  2.340883625 8.271677390625  Z " fill-rule="nonzero" fill="#475570" stroke="none" transform="matrix(1 0 0 1 735 461 )" />
  </g>
</svg>