<?xml version="1.0" encoding="utf-8"?>
<svg version="1.1" xmlns:xlink="http://www.w3.org/1999/xlink" width="584px" height="144px" xmlns="http://www.w3.org/2000/svg">
  <defs>
    <linearGradient gradientUnits="userSpaceOnUse" x1="584" y1="69.6247848537005" x2="17.52" y2="72.6299483648882" id="LinearGradient262">
      <stop id="Stop263" stop-color="#ffffff" stop-opacity="0.698039215686274" offset="0" />
      <stop id="Stop264" stop-color="#476ee7" offset="1" />
    </linearGradient>
  </defs>
  <g transform="matrix(1 0 0 1 -543 -292 )">
    <path d="M 0 121.707112970711  L 0 2.41004184100418  C 0 1.06041841004184  1.75699145299144 0  3.99316239316239 0  L 580.006837606838 0  C 582.243008547009 0  584 1.06041841004184  584 2.41004184100418  L 584 121.707112970711  C 584 123.056736401674  582.243008547009 124.117154811715  580.006837606838 124.117154811715  C 580.006837606838 124.117154811715  520.026770943639 100.645968176922  442.873234367971 99.858181017397  C 355.597575574226 98.9670404891942  286.299235267656 124.117154811715  286.299235267656 124.117154811715  C 286.299235267656 124.117154811715  219.412742955302 144.421624204666  134.979397210976 143.619467077736  C 61.3605051790714 142.920052428234  3.99316239316239 124.117154811715  3.99316239316239 124.117154811715  C 1.75699145299144 124.117154811715  0 123.056736401674  0 121.707112970711  Z " fill-rule="nonzero" fill="url(#LinearGradient262)" stroke="none" transform="matrix(1 0 0 1 543 292 )" />
  </g>
</svg>