<?xml version="1.0" encoding="utf-8"?>
<svg version="1.1" xmlns:xlink="http://www.w3.org/1999/xlink" width="163px" height="54px" xmlns="http://www.w3.org/2000/svg">
  <defs>
    <filter x="747px" y="96px" width="163px" height="54px" filterUnits="userSpaceOnUse" id="filter265">
      <feOffset dx="5" dy="5" in="SourceAlpha" result="shadowOffsetInner" />
      <feGaussianBlur stdDeviation="2.5" in="shadowOffsetInner" result="shadowGaussian" />
      <feComposite in2="shadowGaussian" operator="atop" in="SourceAlpha" result="shadowComposite" />
      <feColorMatrix type="matrix" values="0 0 0 0 0  0 0 0 0 0  0 0 0 0 0  0 0 0 0.349019607843137 0  " in="shadowComposite" />
    </filter>
    <g id="widget266">
      <path d="M 748 106  A 9 9 0 0 1 757 97 L 890 97  A 9 9 0 0 1 899 106 L 899 130  A 9 9 0 0 1 890 139 L 757 139  A 9 9 0 0 1 748 130 L 748 106  Z " fill-rule="nonzero" fill="#ffffff" stroke="none" />
      <path d="M 747.5 106  A 9.5 9.5 0 0 1 757 96.5 L 890 96.5  A 9.5 9.5 0 0 1 899.5 106 L 899.5 130  A 9.5 9.5 0 0 1 890 139.5 L 757 139.5  A 9.5 9.5 0 0 1 747.5 130 L 747.5 106  Z " stroke-width="1" stroke="#797979" fill="none" stroke-opacity="0.196078431372549" />
    </g>
  </defs>
  <g transform="matrix(1 0 0 1 -747 -96 )">
    <use xlink:href="#widget266" filter="url(#filter265)" />
    <use xlink:href="#widget266" />
  </g>
</svg>