<?xml version="1.0" encoding="utf-8"?>
<svg version="1.1" xmlns:xlink="http://www.w3.org/1999/xlink" width="20px" height="18px" xmlns="http://www.w3.org/2000/svg">
  <g transform="matrix(1 0 0 1 -615 -427 )">
    <path d="M 3.66071428571429 13.8068181818182  C 4.07738095238095 14.2840909090909  4.28571428571429 14.8636363636364  4.28571428571429 15.5454545454545  C 4.28571428571429 16.2272727272727  4.07738095238095 16.8068181818182  3.66071428571429 17.2840909090909  C 3.24404761904762 17.7613636363636  2.73809523809524 18  2.14285714285714 18  C 1.54761904761905 18  1.04166666666667 17.7613636363636  0.625 17.2840909090909  C 0.208333333333333 16.8068181818182  0 16.2272727272727  0 15.5454545454545  C 0 14.8636363636364  0.208333333333333 14.2840909090909  0.625 13.8068181818182  C 1.04166666666667 13.3295454545455  1.54761904761905 13.0909090909091  2.14285714285714 13.0909090909091  C 2.73809523809524 13.0909090909091  3.24404761904762 13.3295454545455  3.66071428571429 13.8068181818182  Z M 3.66071428571429 7.26136363636364  C 4.07738095238095 7.73863636363636  4.28571428571429 8.31818181818182  4.28571428571429 9  C 4.28571428571429 9.68181818181818  4.07738095238095 10.2613636363636  3.66071428571429 10.7386363636364  C 3.24404761904762 11.2159090909091  2.73809523809524 11.4545454545455  2.14285714285714 11.4545454545455  C 1.54761904761905 11.4545454545455  1.04166666666667 11.2159090909091  0.625 10.7386363636364  C 0.208333333333333 10.2613636363636  0 9.68181818181818  0 9  C 0 8.31818181818182  0.208333333333333 7.73863636363636  0.625 7.26136363636364  C 1.04166666666667 6.78409090909091  1.54761904761905 6.54545454545455  2.14285714285714 6.54545454545455  C 2.73809523809524 6.54545454545455  3.24404761904762 6.78409090909091  3.66071428571429 7.26136363636364  Z M 19.8939732142857 14.0305397727273  C 19.9646577380952 14.1115056818182  20 14.2073863636364  20 14.3181818181818  L 20 16.7727272727273  C 20 16.8835227272727  19.9646577380952 16.9794034090909  19.8939732142857 17.0603693181818  C 19.8232886904762 17.1413352272727  19.7395833333333 17.1818181818182  19.6428571428571 17  L 6.07142857142857 17  C 5.97470238095238 17.1818181818182  5.89099702380952 17.1413352272727  5.8203125 17.0603693181818  C 5.74962797619048 16.9794034090909  5.71428571428571 16.8835227272727  5.71428571428571 16.7727272727273  L 5.71428571428571 14.3181818181818  C 5.71428571428571 14.2073863636364  5.74962797619048 14.1115056818182  5.8203125 14.0305397727273  C 5.89099702380952 13.9495738636364  5.97470238095238 13.9090909090909  6.07142857142857 14  L 19.6428571428571 14  C 19.7395833333333 13.9090909090909  19.8232886904762 13.9495738636364  19.8939732142857 14.0305397727273  Z M 3.66071428571429 0.715909090909091  C 4.07738095238095 1.19318181818182  4.28571428571429 1.77272727272727  4.28571428571429 2.45454545454545  C 4.28571428571429 3.13636363636364  4.07738095238095 3.71590909090909  3.66071428571429 4.19318181818182  C 3.24404761904762 4.67045454545454  2.73809523809524 4.90909090909091  2.14285714285714 4.90909090909091  C 1.54761904761905 4.90909090909091  1.04166666666667 4.67045454545454  0.625 4.19318181818182  C 0.208333333333333 3.71590909090909  0 3.13636363636364  0 2.45454545454545  C 0 1.77272727272727  0.208333333333333 1.19318181818182  0.625 0.715909090909091  C 1.04166666666667 0.238636363636362  1.54761904761905 0  2.14285714285714 0  C 2.73809523809524 0  3.24404761904762 0.238636363636362  3.66071428571429 0.715909090909091  Z M 19.8939732142857 7.48508522727273  C 19.9646577380952 7.56605113636364  20 7.66193181818182  20 7.77272727272727  L 20 10.2272727272727  C 20 10.3380681818182  19.9646577380952 10.4339488636364  19.8939732142857 10.5149147727273  C 19.8232886904762 10.5958806818182  19.7395833333333 10.6363636363636  19.6428571428571 10.6363636363636  L 6.07142857142857 10.6363636363636  C 5.97470238095238 10.6363636363636  5.89099702380952 10.5958806818182  5.8203125 10.5149147727273  C 5.74962797619048 10.4339488636364  5.71428571428571 10.3380681818182  5.71428571428571 10.2272727272727  L 5.71428571428571 7.77272727272727  C 5.71428571428571 7.66193181818182  5.74962797619048 7.56605113636364  5.8203125 7.48508522727273  C 5.89099702380952 7.40411931818182  5.97470238095238 7.36363636363636  6.07142857142857 7.36363636363636  L 19.6428571428571 7.36363636363636  C 19.7395833333333 7.36363636363636  19.8232886904762 7.40411931818182  19.8939732142857 7.48508522727273  Z M 19.8939732142857 0.939630681818183  C 19.9646577380952 1.02059659090909  20 1.11647727272727  20 1.22727272727273  L 20 3.68181818181818  C 20 3.79261363636363  19.9646577380952 3.88849431818182  19.8939732142857 3.96946022727273  C 19.8232886904762 4.05042613636364  19.7395833333333 4.09090909090909  19.6428571428571 4  L 6.07142857142857 4  C 5.97470238095238 4.09090909090909  5.89099702380952 4.05042613636364  5.8203125 3.96946022727273  C 5.74962797619048 3.88849431818182  5.71428571428571 3.79261363636363  5.71428571428571 3.68181818181818  L 5.71428571428571 1.22727272727273  C 5.71428571428571 1.11647727272727  5.74962797619048 1.02059659090909  5.8203125 0.939630681818183  C 5.89099702380952 0.858664772727271  5.97470238095238 0.818181818181817  6.07142857142857 1  L 19.6428571428571 1  C 19.7395833333333 0.818181818181817  19.8232886904762 0.858664772727271  19.8939732142857 0.939630681818183  Z " fill-rule="nonzero" fill="#ffffff" stroke="none" transform="matrix(1 0 0 1 615 427 )" />
  </g>
</svg>