<?xml version="1.0" encoding="utf-8"?>
<svg version="1.1" xmlns:xlink="http://www.w3.org/1999/xlink" width="17px" height="14px" xmlns="http://www.w3.org/2000/svg">
  <g transform="matrix(1 0 0 1 -15 -128 )">
    <path d="M 4.71484375 0.0312500000000007  C 4.75911458333333 0.0104166666666674  4.80654761904762 0  4.85714285714286 0  C 4.93936011904762 0  5.01050967261905 0.0247395833333339  5.07059151785714 0.0742187500000002  C 5.13067336309524 0.123697916666667  5.16071428571429 0.182291666666666  5.16071428571429 0.250000000000001  L 5.16071428571429 11.75  C 5.16071428571429 11.8541666666667  5.1069568452381 11.9270833333333  4.99944196428571 11.96875  L 0.445870535714286 13.96875  C 0.401599702380952 13.9895833333333  0.354166666666667 14  0.303571428571429 14  C 0.221354166666667 14  0.150204613095238 13.9752604166667  0.0901227678571429 13.92578125  C 0.0300409226190476 13.8763020833333  0 13.8177083333333  0 13.75  L 0 2.25  C 0 2.14583333333333  0.0537574404761905 2.07291666666667  0.161272321428571 2.03125  L 4.71484375 0.0312500000000007  Z M 16.5541294642857 0.0312500000000007  C 16.5984002976191 0.0104166666666674  16.6458333333333 0  16.6964285714286 0  C 16.7786458333333 0  16.8497953869048 0.0247395833333339  16.9098772321429 0.0742187500000002  C 16.969959077381 0.123697916666667  17 0.182291666666666  17 0.250000000000001  L 17 11.75  C 17 11.8541666666667  16.9462425595238 11.9270833333333  16.8387276785714 11.96875  L 12.28515625 13.96875  C 12.2408854166667 13.9895833333333  12.1934523809524 14  12.1428571428571 14  C 12.0606398809524 14  11.989490327381 13.9752604166667  11.9294084821429 13.92578125  C 11.8693266369048 13.8763020833333  11.8392857142857 13.8177083333333  11.8392857142857 13.75  L 11.8392857142857 2.25  C 11.8392857142857 2.14583333333333  11.8930431547619 2.07291666666667  12.0005580357143 2.03125  L 16.5541294642857 0.0312500000000007  Z M 5.85797991071429 0.0742187500000002  C 5.91806175595238 0.0247395833333339  5.98921130952381 0  6.07142857142857 0  C 6.12202380952381 0  6.16629464285714 0.00781249999999978  6.20424107142857 0.0234374999999993  L 11.0613839285714 2.0234375  C 11.1752232142857 2.07552083333333  11.2321428571429 2.15104166666667  11 2.25  L 11 13.75  C 11.2321428571429 13.8177083333333  11.2021019345238 13.8763020833333  11.1420200892857 13.92578125  C 11.0819382440476 13.9752604166667  11.0107886904762 14  10.9285714285714 14  C 10.8779761904762 14  10.8337053571429 13.9921875  10.7957589285714 13.9765625  L 5.93861607142857 11.9765625  C 5.82477678571429 11.9244791666667  5.76785714285714 11.8489583333333  6 11.75  L 6 0.250000000000001  C 5.76785714285714 0.182291666666666  5.79789806547619 0.123697916666667  5.85797991071429 0.0742187500000002  Z " fill-rule="nonzero" fill="#ffffff" stroke="none" transform="matrix(1 0 0 1 15 128 )" />
  </g>
</svg>