<?xml version="1.0" encoding="utf-8"?>
<svg version="1.1" xmlns:xlink="http://www.w3.org/1999/xlink" width="13px" height="14px" xmlns="http://www.w3.org/2000/svg">
  <g transform="matrix(1 0 0 1 -17 -20 )">
    <path d="M 12.9390625 4.88254847645429  L 10.9129922049542 3.33525763105811  L 6.6015625 0.0426592797783343  C 6.54062500000005 -0.00387811634344004  6.45937499999995 -0.00387811634344004  6.3984375 0.0426592797783343  L 0.0609374999999479 4.88254847645429  C 0.0243749999999547 4.91357340720218  0 4.95623268698063  0 5.00277008310253  L 0 13.9224376731302  C 0 13.9650969529085  0.0365624999999964 14  0.0812499999999756 14  L 4.46875 14  C 4.51343749999998 14  4.54999999999998 13.9650969529085  4.54999999999998 13.9224376731302  L 4.54999999999998 8.49307479224374  C 4.54999999999998 8.45041551246541  4.58656249999997 8.41551246537396  4.63124999999995 8.41551246537396  L 8.36875000000005 8.41551246537396  C 8.41343750000003 8.41551246537396  8.45000000000003 8.45041551246541  8.45000000000003 8.49307479224374  L 8.45000000000003 13.9224376731302  C 8.45000000000003 13.9650969529085  8.48656250000002 14  8.53125 14  L 12.91875 14  C 12.9634375 14  13 13.9650969529085  13 13.9224376731302  L 13 5.00277008310253  C 13 4.95623268698063  12.975625 4.90969529085874  12.9390625 4.88254847645429  Z " fill-rule="nonzero" fill="#ffffff" stroke="none" transform="matrix(1 0 0 1 17 20 )" />
  </g>
</svg>