<?xml version="1.0" encoding="utf-8"?>
<svg version="1.1" xmlns:xlink="http://www.w3.org/1999/xlink" width="17px" height="7px" xmlns="http://www.w3.org/2000/svg">
  <g transform="matrix(1 0 0 1 -15 -21 )">
    <path d="M 16.9633971291866 6.40000000000004  C 16.9511961722488 6.2461538461538  16.8739234449761 6.10384615384609  16.7437799043062 6.0076923076923  L 9.05717703349288 0.184615384615392  C 8.90263157894731 0.0653846153846434  8.70334928229661 0  8.5 0  C 8.29665071770339 0  8.09736842105269 0.0653846153846434  7.94282296650712 0.184615384615392  L 4.59569377990432 2.75769230769234  L 4.59569377990432 1.1346153846154  C 4.59569377990432 1.09230769230771  4.55909090909089 1.05769230769234  4.51435406698563 1.05769230769234  L 2.07416267942582 1.05769230769234  C 2.02942583732056 1.05769230769234  1.99282296650712 1.09230769230771  1.99282296650712 1.1346153846154  L 1.99282296650712 4.68076923076919  L 0.256220095693811 6.03076923076926  C 0.13014354066986 6.12692307692305  0.0488038277511653 6.26923076923075  0.0406698564593474 6.42307692307687  C 0.0325358851674006 6.57692307692311  0.0935406698564217 6.72692307692313  0.207416267942646 6.83461538461534  C 0.313157894736795 6.93461538461536  0.455502392344511 6.99230769230768  0.610047846889953 6.99230769230768  C 0.740191387559814 6.99230769230768  0.866267942583765 6.94999999999999  0.967942583732004 6.87307692307693  L 8.44712918660293 1.18076923076919  C 8.4674641148326 1.16538461538455  8.48373205741624 1.16538461538455  8.5 1.16538461538455  C 8.51626794258376 1.16538461538455  8.53253588516753 1.16923076923077  8.55287081339707 1.18076923076919  L 16.032057416268 6.84999999999998  C 16.1337320574162 6.92692307692304  16.2598086124402 6.96923076923073  16.38995215311 6.96923076923073  C 16.5404306220096 6.96923076923073  16.6827751196172 6.91538461538462  16.7925837320574 6.81153846153851  C 16.9105263157895 6.70384615384618  16.9715311004785 6.55384615384616  16.9633971291866 6.40000000000004  Z " fill-rule="nonzero" fill="#ffffff" stroke="none" transform="matrix(1 0 0 1 15 21 )" />
  </g>
</svg>