<?xml version="1.0" encoding="utf-8"?>
<svg version="1.1" xmlns:xlink="http://www.w3.org/1999/xlink" width="17px" height="14px" xmlns="http://www.w3.org/2000/svg">
  <g transform="matrix(1 0 0 1 -15 -183 )">
    <path d="M 3.1875 7  L 5.3125 7  L 5.3125 11.6666666666667  L 3.1875 11.6666666666667  L 3.1875 7  Z M 6.375 2.33333333333333  L 8.5 2.33333333333333  L 8.5 11.6666666666667  L 6.375 11.6666666666667  L 6.375 2.33333333333333  Z M 1 12.8333333333333  L 17 12.8333333333333  L 17 14  L 0 14  L 0 0  L 1 0  L 1 12.8333333333333  Z M 9.5625 4.66666666666667  L 11.6875 4.66666666666667  L 11.6875 11.6666666666667  L 9.5625 11.6666666666667  L 9.5625 4.66666666666667  Z M 12.75 1.16666666666667  L 14.875 1.16666666666667  L 14.875 11.6666666666667  L 12.75 11.6666666666667  L 12.75 1.16666666666667  Z " fill-rule="nonzero" fill="#ffffff" stroke="none" transform="matrix(1 0 0 1 15 183 )" />
  </g>
</svg>