<?xml version="1.0" encoding="utf-8"?>
<svg version="1.1" xmlns:xlink="http://www.w3.org/1999/xlink" width="17px" height="17px" xmlns="http://www.w3.org/2000/svg">
  <g transform="matrix(1 0 0 1 -15 -335 )">
    <path d="M 10.5032552083333 10.5032552083333  C 11.056640625 9.94986979166667  11.3333333333333 9.28211805555556  11.3333333333333 8.5  C 11.3333333333333 7.71788194444444  11.056640625 7.05013020833333  10.5032552083333 6.49674479166667  C 9.94986979166667 5.943359375  9.28211805555556 5.66666666666667  8.5 5.66666666666667  C 7.71788194444444 5.66666666666667  7.05013020833333 5.943359375  6.49674479166667 6.49674479166667  C 5.943359375 7.05013020833333  5.66666666666667 7.71788194444444  5.66666666666667 8.5  C 5.66666666666667 9.28211805555556  5.943359375 9.94986979166667  6.49674479166667 10.5032552083333  C 7.05013020833333 11.056640625  7.71788194444444 11.3333333333333  8.5 11.3333333333333  C 9.28211805555556 11.3333333333333  9.94986979166667 11.056640625  10.5032552083333 10.5032552083333  Z M 16.9114583333333 7.03352864583333  C 16.9704861111111 7.11100260416667  17 7.19769965277778  17 7.29361979166667  L 17 9.75065104166667  C 17 9.83919270833333  16.9704861111111 9.92404513888889  16.9114583333333 10.0052083333333  C 16.8524305555556 10.0863715277778  16.7786458333333 10.1343315972222  16.6901041666667 10.1490885416667  L 14.642578125 10.458984375  C 14.5023871527778 10.857421875  14.3585069444444 11.1931423611111  14.2109375 11.4661458333333  C 14.4691840277778 11.8350694444444  14.8639322916667 12.3441840277778  15.3951822916667 12.9934895833333  C 15.4689670138889 13.08203125  15.505859375 13.1742621527778  15.505859375 13.2701822916667  C 15.505859375 13.3661024305556  15.47265625 13.4509548611111  15.40625 13.5247395833333  C 15.20703125 13.7977430555556  14.841796875 14.1961805555556  14.310546875 14.7200520833333  C 13.779296875 15.2439236111111  13.4325086805556 15.505859375  13.2701822916667 15.505859375  C 13.181640625 15.505859375  13.0857204861111 15.47265625  12.982421875 15.40625  L 11.455078125 14.2109375  C 11.1304253472222 14.3806423611111  10.7947048611111 14.5208333333333  10.4479166666667 14.6315104166667  C 10.3298611111111 15.6349826388889  10.2228732638889 16.3211805555556  10.126953125 16.6901041666667  C 10.0753038194444 16.8967013888889  9.94249131944444 17  9.728515625 17  L 7.271484375 17  C 7.16818576388889 17  7.07779947916667 16.9686414930556  7.00032552083333 16.9059244791667  C 6.9228515625 16.8432074652778  6.88042534722222 16.7638888888889  6.873046875 16.66796875  L 6.56315104166667 14.6315104166667  C 6.20160590277778 14.5134548611111  5.86957465277778 14.376953125  5.56705729166667 14.2220052083333  L 4.00651041666667 15.40625  C 3.93272569444444 15.47265625  3.84049479166667 15.505859375  3.72981770833333 15.505859375  C 3.62651909722222 15.505859375  3.53428819444444 15.4652777777778  3.453125 15.3841145833333  C 2.5234375 14.54296875  1.91471354166667 13.9231770833333  1.626953125 13.5247395833333  C 1.57530381944444 13.4509548611111  1.54947916666667 13.3661024305556  1.54947916666667 13.2701822916667  C 1.54947916666667 13.181640625  1.57899305555556 13.0967881944444  1.63802083333333 13.015625  C 1.74869791666667 12.8606770833333  1.93684895833333 12.6153428819444  2.20247395833333 12.2796223958333  C 2.46809895833333 11.9439019097222  2.66731770833333 11.6838107638889  2.80013020833333 11.4993489583333  C 2.60091145833333 11.1304253472222  2.44965277777778 10.7651909722222  2.34635416666667 10.4036458333333  L 0.320963541666667 10.1048177083333  C 0.225043402777778 10.0900607638889  0.147569444444444 10.0439453125  0.0885416666666667 9.96647135416667  C 0.0295138888888889 9.88899739583333  0 9.80230034722222  0 9.70638020833333  L 0 7.24934895833333  C 0 7.16080729166667  0.0295138888888889 7.07595486111111  0.0885416666666667 6.99479166666667  C 0.147569444444444 6.91362847222222  0.217664930555556 6.86566840277778  0.298828125 6.85091145833333  L 2.357421875 6.541015625  C 2.46072048611111 6.20160590277778  2.60460069444444 5.86219618055556  2.7890625 5.52278645833333  C 2.49392361111111 5.10221354166667  2.09917534722222 4.59309895833333  1.60481770833333 3.99544270833333  C 1.53103298611111 3.90690104166667  1.494140625 3.818359375  1.494140625 3.72981770833333  C 1.494140625 3.65603298611111  1.52734375 3.57118055555555  1.59375 3.47526041666667  C 1.78559027777778 3.20963541666667  2.14898003472222 2.81304253472222  2.68391927083333 2.28548177083333  C 3.21885850694444 1.75792100694444  3.56749131944444 1.494140625  3.72981770833333 1.494140625  C 3.82573784722222 1.494140625  3.92165798611111 1.53103298611111  4.017578125 1.60481770833333  L 5.544921875 2.7890625  C 5.86957465277778 2.61935763888889  6.20529513888889 2.47916666666667  6.55208333333333 2.36848958333333  C 6.67013888888889 1.36501736111111  6.77712673611111 0.678819444444443  6.873046875 0.309895833333333  C 6.92469618055556 0.10329861111111  7.05750868055556 0  7.271484375 0  L 9.728515625 0  C 9.83181423611111 0  9.92220052083333 0.031358506944443  9.99967447916667 0.0940755208333327  C 10.0771484375 0.156792534722221  10.1195746527778 0.23611111111111  10.126953125 0.33203125  L 10.4368489583333 2.36848958333333  C 10.7983940972222 2.48654513888889  11.1304253472222 2.623046875  11.4329427083333 2.77799479166667  L 13.0045572916667 1.59375  C 13.0709635416667 1.52734375  13.1595052083333 1.494140625  13.2701822916667 1.494140625  C 13.3661024305556 1.494140625  13.4583333333333 1.53103298611111  13.546875 1.60481770833333  C 14.4986979166667 2.48285590277778  15.107421875 3.11002604166667  15.373046875 3.486328125  C 15.4246961805556 3.54535590277778  15.4505208333333 3.62651909722222  15.4505208333333 3.72981770833333  C 15.4505208333333 3.818359375  15.4210069444444 3.90321180555555  15.3619791666667 3.984375  C 15.2513020833333 4.13932291666667  15.0631510416667 4.38465711805555  14.7975260416667 4.72037760416667  C 14.5319010416667 5.05609809027778  14.3326822916667 5.31618923611111  14.1998697916667 5.50065104166667  C 14.3917100694444 5.86957465277778  14.54296875 6.23111979166667  14.6536458333333 6.58528645833333  L 16.6790364583333 6.89518229166667  C 16.7749565972222 6.90993923611111  16.8524305555556 6.9560546875  16.9114583333333 7.03352864583333  Z " fill-rule="nonzero" fill="#ffffff" stroke="none" transform="matrix(1 0 0 1 15 335 )" />
  </g>
</svg>