<?xml version="1.0" encoding="utf-8"?>
<svg version="1.1" xmlns:xlink="http://www.w3.org/1999/xlink" width="17px" height="14px" xmlns="http://www.w3.org/2000/svg">
  <g transform="matrix(1 0 0 1 -15 -75 )">
    <path d="M 7.92825112107623 10.5  L 8.46188340807175 10.5  L 9.56726457399103 9.34659090909091  L 8.11883408071749 7.83522727272727  L 7.01345291479821 8.98863636363636  L 7.01345291479821 9.54545454545455  L 7.92825112107623 9.54545454545455  L 7.92825112107623 10.5  Z M 12.6451793721973 3.66903409090909  C 12.7531763826607 3.5563446969697  12.7563527653214 3.4469696969697  12.6547085201794 3.34090909090909  C 12.5530642750374 3.23484848484848  12.4482436472347 3.23816287878788  12.3402466367713 3.35085227272727  L 9.00504484304933 6.83096590909091  C 8.89704783258595 6.9436553030303  8.89387144992526 7.0530303030303  8.99551569506726 7.15909090909091  C 9.09715994020927 7.26515151515151  9.20198056801196 7.26183712121212  9.30997757847534 7.14914772727273  L 12.6451793721973 3.66903409090909  Z M 13.2264573991031 8.95880681818182  C 13.3535127055306 9.01183712121212  13.4170403587444 9.10795454545455  13.4170403587444 9.24715909090909  L 13.4170403587444 11.1363636363636  C 13.4170403587444 11.9251893939394  13.1486360239163 12.5996685606061  12.6118273542601 13.1598011363636  C 12.0750186846039 13.7199337121212  11.428624813154 14  10.6726457399103 14  L 2.74439461883408 14  C 1.98841554559043 14  1.34202167414051 13.7199337121212  0.805213004484305 13.1598011363636  C 0.268404334828102 12.5996685606061  0 11.9251893939394  0 11.1363636363636  L 0 2.86363636363636  C 0 2.0748106060606  0.268404334828102 1.40033143939394  0.805213004484305 0.840198863636364  C 1.34202167414051 0.280066287878787  1.98841554559043 0  2.74439461883408 0  L 10.6726457399103 0  C 11.072869955157 0  11.4445067264574 0.0828598484848477  11.7875560538117 0.248579545454545  C 11.8828475336323 0.29498106060606  11.9400224215247 0.371212121212121  11.9590807174888 0.477272727272727  C 11.9781390134529 0.589962121212121  11.9495515695067 0.686079545454545  11.8733183856502 0.765625  L 11.4063901345291 1.25284090909091  C 11.3174514200299 1.34564393939394  11.2158071748879 1.37215909090909  11.1014573991031 1.33238636363636  C 10.9553437967115 1.29261363636364  10.8124065769806 1.27272727272727  10.6726457399103 1.27272727272727  L 2.74439461883408 1.27272727272727  C 2.32511210762332 1.27272727272727  1.96618086696562 1.42850378787879  1.66760089686099 1.74005681818182  C 1.36902092675635 2.05160984848485  1.21973094170404 2.42613636363636  1.21973094170404 2.86363636363636  L 1.21973094170404 11.1363636363636  C 1.21973094170404 11.5738636363636  1.36902092675635 11.9483901515151  1.66760089686099 12.2599431818182  C 1.96618086696562 12.5714962121212  2.32511210762332 12.7272727272727  2.74439461883408 12.7272727272727  L 10.6726457399103 12.7272727272727  C 11.0919282511211 12.7272727272727  11.4508594917788 12.5714962121212  11.7494394618834 12.2599431818182  C 12.048019431988 11.9483901515151  12.1973094170404 11.5738636363636  12.1973094170404 11.1363636363636  L 12.1973094170404 9.88352272727273  C 12.1973094170404 9.79734848484848  12.2258968609865 9.72443181818182  12.2830717488789 9.66477272727273  L 12.8929372197309 9.02840909090909  C 12.9882286995516 8.92897727272727  13.0994020926756 8.90577651515152  13.2264573991031 8.95880681818182  Z M 6.09865470852018 8.59090909090909  L 12.5022421524664 1.90909090909091  L 15.2466367713004 4.77272727272727  L 8.84304932735426 11.4545454545455  L 6.09865470852018 11.4545454545455  L 6.09865470852018 8.59090909090909  Z M 17 2.54545454545455  C 17 2.81060606060606  16.9110612855007 3.03598484848485  16.7331838565022 3.22159090909091  L 15.8565022421525 4.13636363636364  L 13.1121076233184 1.27272727272727  L 13.9887892376682 0.357954545454545  C 14.1666666666667 0.172348484848484  14.3826606875934 0.0795454545454553  14.6367713004484 0.0795454545454553  C 14.8908819133034 0.0795454545454553  15.1068759342302 0.172348484848484  15.2847533632287 0.357954545454545  L 16.7331838565022 1.86931818181818  C 16.9110612855007 2.05492424242424  17 2.28030303030303  17 2.54545454545455  Z " fill-rule="nonzero" fill="#ffffff" stroke="none" transform="matrix(1 0 0 1 15 75 )" />
  </g>
</svg>