<?xml version="1.0" encoding="utf-8"?>
<svg version="1.1" xmlns:xlink="http://www.w3.org/1999/xlink" width="17px" height="14px" xmlns="http://www.w3.org/2000/svg">
  <g transform="matrix(1 0 0 1 -15 -393 )">
    <path d="M 0 2.02644230769238  C 0 0.868990384615472  1.79399038461543 0.00360576923071676  4.00480769230765 0.00360576923071676  C 6.215625 0.00360576923071676  8.09134615384617 1.00961538461547  8 2.96033653846143  L 8 13.7740384615383  C 8.09134615384617 13.8533653846152  7.96466346153852 13.8713942307693  7.93605769230765 13.7992788461538  L 7.93605769230765 13.7956730769231  C 7.51514423076926 12.5625  6.375 11.3581730769231  4.57283653846148 11.2536057692307  C 3.17524038461543 11.1742788461538  1.83894230769235 11.71875  0.76826923076926 12.5913461538462  C 0.702884615384566 12.6454326923076  0.592548076923087 12.6959134615383  0.498557692307653 12.6959134615383  L 0.314663461538521 12.6959134615383  C 0.163461538461479 12.6959134615383  0.00408653846147899 12.5985576923076  0 12.4759615384614  L 0 2.02644230769238  Z M 17 2.01923076923072  C 17 0.865384615384528  15.2060096153846 0  12.9951923076923 0  C 10.784375 0  8.90865384615383 1.00600961538453  9 2.95673076923072  L 9 13.7704326923076  C 8.90865384615383 13.8497596153845  9.03533653846148 13.8677884615383  9.06394230769235 13.7956730769231  L 9.06394230769235 13.7920673076924  C 9.48485576923074 12.5588942307693  10.6740384615385 11.34375  12.4271634615385 11.25  C 13.7716346153846 11.1778846153845  15.0384615384615 11.6466346153845  16.2317307692307 12.5877403846152  C 16.2971153846154 12.6382211538462  16.4074519230769 12.6923076923076  16.5014423076923 12.6923076923076  L 16.6853365384615 12.6923076923076  C 16.8365384615385 12.6923076923076  16.9959134615385 12.5949519230769  17 12.4723557692307  L 17 2.01923076923072  Z " fill-rule="nonzero" fill="#ffffff" stroke="none" transform="matrix(1 0 0 1 15 393 )" />
  </g>
</svg>