<?xml version="1.0" encoding="utf-8"?>
<svg version="1.1" xmlns:xlink="http://www.w3.org/1999/xlink" width="1537px" height="182px" xmlns="http://www.w3.org/2000/svg">
  <g transform="matrix(1 0 0 1 -102 -237 )">
    <path d="M 0 164.748407643312  L 62.7142857142871 155.717479668904  L 125.428571428571 179  L 188.142857142858 137.95541401274  L 250.857142857142 116.292993630574  L 282.214285714286 132.254777070065  L 313.571428571427 110.592356687898  L 376.285714285714 104.314853853131  L 407.642857142855 13.1229759665516  L 439 0  L 493.592592592593 49.6407845516126  L 570.312169312169 25.511104370977  L 624.280423280423 69.5477707006369  L 692.301587301587 87.0417888315977  L 760.259259259259 116.292993630574  L 827.984126984127 91.264482863209  L 885.656084656085 132.254777070065  L 949.677248677249 144.953021265123  L 1013.16931216931 171.495669463822  L 1084.06878306878 155.717479668904  L 1152.85185185185 132.254777070065  L 1214.75661375661 69.5477707006369  L 1277.19047619048 59.2926566238669  L 1331.15873015873 82.2158527954707  L 1400.4708994709 66.5315606780575  L 1458.14285714286 123.839551107067  L 1533.80423280423 110.592356687898  " stroke-width="2" stroke="#5b8ff9" fill="none" transform="matrix(1 0 0 1 103 238 )" />
  </g>
</svg>