<?xml version="1.0" encoding="utf-8"?>
<svg version="1.1" xmlns:xlink="http://www.w3.org/1999/xlink" width="16px" height="14px" xmlns="http://www.w3.org/2000/svg">
  <g transform="matrix(1 0 0 1 -1561 -123 )">
    <path d="M 1 12.8333333333333  L 16 12.8333333333333  L 16 14  L 0 14  L 0 0  L 1 0  L 1 12.8333333333333  Z M 14.9296875 1.24869791666667  C 14.9765625 1.30338541666667  15 1.37326388888889  15 1.45833333333333  L 15 5.42317708333333  C 15 5.55078125  14.94921875 5.64040798611111  14.84765625 5.69205729166667  C 14.74609375 5.74370659722222  14.6536458333333 5.72092013888889  14.5703125 5.62369791666667  L 13.625 4.52083333333333  L 8.6796875 10.2903645833333  C 8.62760416666667 10.3511284722222  8.56770833333333 10.3815104166667  8.5 10.3815104166667  C 8.43229166666667 10.3815104166667  8.37239583333333 10.3511284722222  8.3203125 10.2903645833333  L 6.5 8.16666666666667  L 3.25 11.9583333333333  L 1.75 10.2083333333333  L 6.3203125 4.87630208333333  C 6.37239583333333 4.81553819444444  6.43229166666667 4.78515625  6.5 4.78515625  C 6.56770833333333 4.78515625  6.62760416666667 4.81553819444444  6.6796875 4.87630208333333  L 8.5 7  L 12.125 2.77083333333333  L 11.1796875 1.66796875  C 11.0963541666667 1.57074652777778  11.0768229166667 1.462890625  11.12109375 1.34440104166667  C 11.1653645833333 1.22591145833333  11.2421875 1.16666666666667  11.3515625 1.16666666666667  L 14.75 1.16666666666667  C 14.8229166666667 1.16666666666667  14.8828125 1.19401041666667  14.9296875 1.24869791666667  Z " fill-rule="nonzero" fill="#ffffff" stroke="none" transform="matrix(1 0 0 1 1561 123 )" />
  </g>
</svg>