<?xml version="1.0" encoding="utf-8"?>
<svg version="1.1" xmlns:xlink="http://www.w3.org/1999/xlink" width="16px" height="14px" xmlns="http://www.w3.org/2000/svg">
  <g transform="matrix(1 0 0 1 -1621 -123 )">
    <path d="M 4.83653846153846 12.6377840909091  C 4.89423076923077 12.578125  4.92307692307692 12.5018939393939  4.92307692307692 12.4090909090909  L 4.92307692307692 10.5  C 4.92307692307692 10.407196969697  4.89423076923077 10.3309659090909  4.83653846153846 10.2713068181818  C 4.77884615384615 10.2116477272727  4.70512820512821 10.1818181818182  4.61538461538462 10.1818181818182  L 1.53846153846154 10.1818181818182  C 1.44871794871795 10.1818181818182  1.375 10.2116477272727  1.31730769230769 10.2713068181818  C 1.25961538461538 10.3309659090909  1.23076923076923 10.407196969697  1.23076923076923 10.5  L 1.23076923076923 12.4090909090909  C 1.23076923076923 12.5018939393939  1.25961538461538 12.578125  1.31730769230769 12.6377840909091  C 1.375 12.6974431818182  1.44871794871795 12.7272727272727  1.53846153846154 12.7272727272727  L 4.61538461538462 12.7272727272727  C 4.70512820512821 12.7272727272727  4.77884615384615 12.6974431818182  4.83653846153846 12.6377840909091  Z M 4.83653846153846 8.81960227272727  C 4.89423076923077 8.75994318181818  4.92307692307692 8.68371212121212  4.92307692307692 8.59090909090909  L 4.92307692307692 6.68181818181818  C 4.92307692307692 6.58901515151515  4.89423076923077 6.51278409090909  4.83653846153846 6.453125  C 4.77884615384615 6.39346590909091  4.70512820512821 6.36363636363636  4.61538461538462 6.36363636363636  L 1.53846153846154 6.36363636363636  C 1.44871794871795 6.36363636363636  1.375 6.39346590909091  1.31730769230769 6.453125  C 1.25961538461538 6.51278409090909  1.23076923076923 6.58901515151515  1.23076923076923 6.68181818181818  L 1.23076923076923 8.59090909090909  C 1.23076923076923 8.68371212121212  1.25961538461538 8.75994318181818  1.31730769230769 8.81960227272727  C 1.375 8.87926136363636  1.44871794871795 8.90909090909091  1.53846153846154 8.90909090909091  L 4.61538461538462 8.90909090909091  C 4.70512820512821 8.90909090909091  4.77884615384615 8.87926136363636  4.83653846153846 8.81960227272727  Z M 9.75961538461539 12.6377840909091  C 9.81730769230769 12.578125  9.84615384615385 12.5018939393939  9.84615384615385 12.4090909090909  L 9.84615384615385 10.5  C 9.84615384615385 10.407196969697  9.81730769230769 10.3309659090909  9.75961538461539 10.2713068181818  C 9.70192307692308 10.2116477272727  9.62820512820513 10.1818181818182  9.53846153846154 10.1818181818182  L 6.46153846153846 10.1818181818182  C 6.37179487179487 10.1818181818182  6.29807692307692 10.2116477272727  6.24038461538462 10.2713068181818  C 6.18269230769231 10.3309659090909  6.15384615384615 10.407196969697  6.15384615384615 10.5  L 6.15384615384615 12.4090909090909  C 6.15384615384615 12.5018939393939  6.18269230769231 12.578125  6.24038461538462 12.6377840909091  C 6.29807692307692 12.6974431818182  6.37179487179487 12.7272727272727  6.46153846153846 12.7272727272727  L 9.53846153846154 12.7272727272727  C 9.62820512820513 12.7272727272727  9.70192307692308 12.6974431818182  9.75961538461539 12.6377840909091  Z M 4.83653846153846 5.00142045454546  C 4.89423076923077 4.94176136363636  4.92307692307692 4.8655303030303  4.92307692307692 4.77272727272727  L 4.92307692307692 2.86363636363636  C 4.92307692307692 2.77083333333333  4.89423076923077 2.69460227272727  4.83653846153846 2.63494318181818  C 4.77884615384615 2.57528409090909  4.70512820512821 2.54545454545455  4.61538461538462 2.54545454545455  L 1.53846153846154 2.54545454545455  C 1.44871794871795 2.54545454545455  1.375 2.57528409090909  1.31730769230769 2.63494318181818  C 1.25961538461538 2.69460227272727  1.23076923076923 2.77083333333333  1.23076923076923 2.86363636363636  L 1.23076923076923 4.77272727272727  C 1.23076923076923 4.8655303030303  1.25961538461538 4.94176136363636  1.31730769230769 5.00142045454546  C 1.375 5.06107954545455  1.44871794871795 5.09090909090909  1.53846153846154 5.09090909090909  L 4.61538461538462 5.09090909090909  C 4.70512820512821 5.09090909090909  4.77884615384615 5.06107954545455  4.83653846153846 5.00142045454546  Z M 9.75961538461539 8.81960227272727  C 9.81730769230769 8.75994318181818  9.84615384615385 8.68371212121212  9.84615384615385 8.59090909090909  L 9.84615384615385 6.68181818181818  C 9.84615384615385 6.58901515151515  9.81730769230769 6.51278409090909  9.75961538461539 6.453125  C 9.70192307692308 6.39346590909091  9.62820512820513 6.36363636363636  9.53846153846154 6.36363636363636  L 6.46153846153846 6.36363636363636  C 6.37179487179487 6.36363636363636  6.29807692307692 6.39346590909091  6.24038461538462 6.453125  C 6.18269230769231 6.51278409090909  6.15384615384615 6.58901515151515  6.15384615384615 6.68181818181818  L 6.15384615384615 8.59090909090909  C 6.15384615384615 8.68371212121212  6.18269230769231 8.75994318181818  6.24038461538462 8.81960227272727  C 6.29807692307692 8.87926136363636  6.37179487179487 8.90909090909091  6.46153846153846 8.90909090909091  L 9.53846153846154 8.90909090909091  C 9.62820512820513 8.90909090909091  9.70192307692308 8.87926136363636  9.75961538461539 8.81960227272727  Z M 14.6826923076923 12.6377840909091  C 14.7403846153846 12.578125  14.7692307692308 12.5018939393939  14.7692307692308 12.4090909090909  L 14.7692307692308 10.5  C 14.7692307692308 10.407196969697  14.7403846153846 10.3309659090909  14.6826923076923 10.2713068181818  C 14.625 10.2116477272727  14.5512820512821 10.1818181818182  14.4615384615385 10.1818181818182  L 11.3846153846154 10.1818181818182  C 11.2948717948718 10.1818181818182  11.2211538461538 10.2116477272727  11.1634615384615 10.2713068181818  C 11.1057692307692 10.3309659090909  11.0769230769231 10.407196969697  11.0769230769231 10.5  L 11.0769230769231 12.4090909090909  C 11.0769230769231 12.5018939393939  11.1057692307692 12.578125  11.1634615384615 12.6377840909091  C 11.2211538461538 12.6974431818182  11.2948717948718 12.7272727272727  11.3846153846154 12.7272727272727  L 14.4615384615385 12.7272727272727  C 14.5512820512821 12.7272727272727  14.625 12.6974431818182  14.6826923076923 12.6377840909091  Z M 9.75961538461539 5.00142045454546  C 9.81730769230769 4.94176136363636  9.84615384615385 4.8655303030303  9.84615384615385 4.77272727272727  L 9.84615384615385 2.86363636363636  C 9.84615384615385 2.77083333333333  9.81730769230769 2.69460227272727  9.75961538461539 2.63494318181818  C 9.70192307692308 2.57528409090909  9.62820512820513 2.54545454545455  9.53846153846154 2.54545454545455  L 6.46153846153846 2.54545454545455  C 6.37179487179487 2.54545454545455  6.29807692307692 2.57528409090909  6.24038461538462 2.63494318181818  C 6.18269230769231 2.69460227272727  6.15384615384615 2.77083333333333  6.15384615384615 2.86363636363636  L 6.15384615384615 4.77272727272727  C 6.15384615384615 4.8655303030303  6.18269230769231 4.94176136363636  6.24038461538462 5.00142045454546  C 6.29807692307692 5.06107954545455  6.37179487179487 5.09090909090909  6.46153846153846 5.09090909090909  L 9.53846153846154 5.09090909090909  C 9.62820512820513 5.09090909090909  9.70192307692308 5.06107954545455  9.75961538461539 5.00142045454546  Z M 14.6826923076923 8.81960227272727  C 14.7403846153846 8.75994318181818  14.7692307692308 8.68371212121212  14.7692307692308 8.59090909090909  L 14.7692307692308 6.68181818181818  C 14.7692307692308 6.58901515151515  14.7403846153846 6.51278409090909  14.6826923076923 6.453125  C 14.625 6.39346590909091  14.5512820512821 6.36363636363636  14.4615384615385 6.36363636363636  L 11.3846153846154 6.36363636363636  C 11.2948717948718 6.36363636363636  11.2211538461538 6.39346590909091  11.1634615384615 6.453125  C 11.1057692307692 6.51278409090909  11.0769230769231 6.58901515151515  11.0769230769231 6.68181818181818  L 11.0769230769231 8.59090909090909  C 11.0769230769231 8.68371212121212  11.1057692307692 8.75994318181818  11.1634615384615 8.81960227272727  C 11.2211538461538 8.87926136363636  11.2948717948718 8.90909090909091  11.3846153846154 8.90909090909091  L 14.4615384615385 8.90909090909091  C 14.5512820512821 8.90909090909091  14.625 8.87926136363636  14.6826923076923 8.81960227272727  Z M 14.6826923076923 5.00142045454546  C 14.7403846153846 4.94176136363636  14.7692307692308 4.8655303030303  14.7692307692308 4.77272727272727  L 14.7692307692308 2.86363636363636  C 14.7692307692308 2.77083333333333  14.7403846153846 2.69460227272727  14.6826923076923 2.63494318181818  C 14.625 2.57528409090909  14.5512820512821 2.54545454545455  14.4615384615385 2.54545454545455  L 11.3846153846154 2.54545454545455  C 11.2948717948718 2.54545454545455  11.2211538461538 2.57528409090909  11.1634615384615 2.63494318181818  C 11.1057692307692 2.69460227272727  11.0769230769231 2.77083333333333  11.0769230769231 2.86363636363636  L 11.0769230769231 4.77272727272727  C 11.0769230769231 4.8655303030303  11.1057692307692 4.94176136363636  11.1634615384615 5.00142045454546  C 11.2211538461538 5.06107954545455  11.2948717948718 5.09090909090909  11.3846153846154 5.09090909090909  L 14.4615384615385 5.09090909090909  C 14.5512820512821 5.09090909090909  14.625 5.06107954545455  14.6826923076923 5.00142045454546  Z M 15.5480769230769 0.467329545454545  C 15.849358974359 0.778882575757575  16 1.15340909090909  16 1.59090909090909  L 16 12.4090909090909  C 16 12.8465909090909  15.849358974359 13.2211174242424  15.5480769230769 13.5326704545455  C 15.2467948717949 13.8442234848485  14.8846153846154 14  14.4615384615385 14  L 1.53846153846154 14  C 1.11538461538462 14  0.753205128205128 13.8442234848485  0.451923076923077 13.5326704545455  C 0.150641025641026 13.2211174242424  0 12.8465909090909  0 12.4090909090909  L 0 1.59090909090909  C 0 1.15340909090909  0.150641025641026 0.778882575757575  0.451923076923077 0.467329545454545  C 0.753205128205128 0.155776515151513  1.11538461538462 0  1.53846153846154 0  L 14.4615384615385 0  C 14.8846153846154 0  15.2467948717949 0.155776515151513  15.5480769230769 0.467329545454545  Z " fill-rule="nonzero" fill="#7f7f7f" stroke="none" transform="matrix(1 0 0 1 1621 123 )" />
  </g>
</svg>