<?xml version="1.0" encoding="utf-8"?>
<svg version="1.1" xmlns:xlink="http://www.w3.org/1999/xlink" width="16px" height="14px" xmlns="http://www.w3.org/2000/svg">
  <g transform="matrix(1 0 0 1 -1592 -123 )">
    <path d="M 3 7  L 5 7  L 5 11.6666666666667  L 3 11.6666666666667  L 3 7  Z M 6 2.33333333333333  L 8 2.33333333333333  L 8 11.6666666666667  L 6 11.6666666666667  L 6 2.33333333333333  Z M 1 12.8333333333333  L 16 12.8333333333333  L 16 14  L 0 14  L 0 0  L 1 0  L 1 12.8333333333333  Z M 9 4.66666666666667  L 11 4.66666666666667  L 11 11.6666666666667  L 9 11.6666666666667  L 9 4.66666666666667  Z M 12 1.16666666666667  L 14 1.16666666666667  L 14 11.6666666666667  L 12 11.6666666666667  L 12 1.16666666666667  Z " fill-rule="nonzero" fill="#7f7f7f" stroke="none" transform="matrix(1 0 0 1 1592 123 )" />
  </g>
</svg>