<?xml version="1.0" encoding="utf-8"?>
<svg version="1.1" xmlns:xlink="http://www.w3.org/1999/xlink" width="10px" height="10px" xmlns="http://www.w3.org/2000/svg">
  <defs>
    <mask fill="white" id="clip5">
      <path d="M 0 5  C 0 7.761423749  2.238576251 10  5 10  C 7.761423749 10  10 7.761423749  10 5  C 10 2.238576251  7.761423749 0  5 0  C 2.238576251 0  0 2.238576251  0 5  Z " fill-rule="evenodd" />
    </mask>
  </defs>
  <g transform="matrix(1 0 0 1 -977 -541 )">
    <path d="M 0 5  C 0 7.761423749  2.238576251 10  5 10  C 7.761423749 10  10 7.761423749  10 5  C 10 2.238576251  7.761423749 0  5 0  C 2.238576251 0  0 2.238576251  0 5  Z " fill-rule="nonzero" fill="#5b8ff9" stroke="none" transform="matrix(1 0 0 1 977 541 )" />
    <path d="M 0 5  C 0 7.761423749  2.238576251 10  5 10  C 7.761423749 10  10 7.761423749  10 5  C 10 2.238576251  7.761423749 0  5 0  C 2.238576251 0  0 2.238576251  0 5  Z " stroke-width="2" stroke="#000000" fill="none" stroke-opacity="0.850980392156863" transform="matrix(1 0 0 1 977 541 )" mask="url(#clip5)" />
  </g>
</svg>