<?xml version="1.0" encoding="utf-8"?>
<svg version="1.1" xmlns:xlink="http://www.w3.org/1999/xlink" width="17px" height="17px" xmlns="http://www.w3.org/2000/svg">
  <g transform="matrix(1 0 0 1 -463 -74 )">
    <path d="M 5.71568080357143 8.25149501661129  C 5.95284598214286 7.96910299003322  6.07142857142857 7.62834994462901  6.07142857142857 7.22923588039867  C 6.07142857142857 6.83012181616833  5.95284598214286 6.48936877076412  5.71568080357143 6.20697674418605  C 5.478515625 5.92458471760797  5.19233630952381 5.78338870431894  4.85714285714286 5.78338870431894  C 4.52194940476191 5.78338870431894  4.23577008928571 5.92458471760797  3.99860491071429 6.20697674418605  C 3.76143973214286 6.48936877076412  3.64285714285714 6.83012181616833  3.64285714285714 7.22923588039867  C 3.64285714285714 7.62834994462901  3.76143973214286 7.96910299003322  3.99860491071429 8.25149501661129  C 4.23577008928571 8.53388704318937  4.52194940476191 8.67508305647841  4.85714285714286 8.67508305647841  C 5.19233630952381 8.67508305647841  5.478515625 8.53388704318937  5.71568080357143 8.25149501661129  Z M 9.35853794642857 8.25149501661129  C 9.595703125 7.96910299003322  9.71428571428571 7.62834994462901  9.71428571428571 7.22923588039867  C 9.71428571428571 6.83012181616833  9.595703125 6.48936877076412  9.35853794642857 6.20697674418605  C 9.12137276785714 5.92458471760797  8.83519345238095 5.78338870431894  8.5 5.78338870431894  C 8.16480654761905 5.78338870431894  7.87862723214286 5.92458471760797  7.64146205357143 6.20697674418605  C 7.404296875 6.48936877076412  7.28571428571429 6.83012181616833  7.28571428571429 7.22923588039867  C 7.28571428571429 7.62834994462901  7.404296875 7.96910299003322  7.64146205357143 8.25149501661129  C 7.87862723214286 8.53388704318937  8.16480654761905 8.67508305647841  8.5 8.67508305647841  C 8.83519345238095 8.67508305647841  9.12137276785714 8.53388704318937  9.35853794642857 8.25149501661129  Z M 13.0013950892857 8.25149501661129  C 13.2385602678571 7.96910299003322  13.3571428571429 7.62834994462901  13.3571428571429 7.22923588039867  C 13.3571428571429 6.83012181616833  13.2385602678571 6.48936877076412  13.0013950892857 6.20697674418605  C 12.7642299107143 5.92458471760797  12.4780505952381 5.78338870431894  12.1428571428571 5.78338870431894  C 11.8076636904762 5.78338870431894  11.521484375 5.92458471760797  11.2843191964286 6.20697674418605  C 11.0471540178571 6.48936877076412  10.9285714285714 6.83012181616833  10.9285714285714 7.22923588039867  C 10.9285714285714 7.62834994462901  11.0471540178571 7.96910299003322  11.2843191964286 8.25149501661129  C 11.521484375 8.53388704318937  11.8076636904762 8.67508305647841  12.1428571428571 8.67508305647841  C 12.4780505952381 8.67508305647841  12.7642299107143 8.53388704318937  13.0013950892857 8.25149501661129  Z M 15.8616071428571 3.59767441860465  C 16.6205357142857 4.70841638981174  17 5.91893687707641  17 7.22923588039867  C 17 8.53953488372093  16.6205357142857 9.7500553709856  15.8616071428571 10.8607973421927  C 15.1026785714286 11.9715393133998  14.0718005952381 12.8488372093023  12.7689732142857 13.4926910299003  C 11.4661458333333 14.1365448504983  10.0431547619048 14.4584717607973  8.5 14.4584717607973  C 7.80431547619048 14.4584717607973  7.13709077380953 14.3906976744186  6.49832589285714 14.2551495016611  C 5.40420386904762 15.5579180509413  4.02864583333333 16.4201550387597  2.37165178571429 16.8418604651163  C 2.04278273809524 16.9171650055371  1.77083333333333 16.9661129568106  1.55580357142857 16.9887043189369  C 1.47991071428571 16.996234772979  1.41034226190476 16.9736434108527  1.34709821428571 16.9209302325581  C 1.28385416666667 16.8682170542636  1.24274553571429 16.8004429678848  1.22377232142857 16.7176079734219  C 1.19847470238095 16.6046511627907  1.26171875 16.4653377630122  1.41350446428571 16.2996677740864  C 1.44512648809524 16.262015503876  1.51943824404762 16.1810631229236  1.63643973214286 16.0568106312292  C 1.7534412202381 15.9325581395349  1.83407738095238 15.8440753045404  1.87834821428571 15.7913621262458  C 1.92261904761905 15.7386489479513  1.99693080357143 15.6426356589147  2.10128348214286 15.5033222591362  C 2.20563616071429 15.3640088593577  2.28152901785714 15.2454042081949  2.32896205357143 15.1475083056478  C 2.37639508928571 15.0496124031008  2.44122023809524 14.9102990033223  2.5234375 14.7295681063123  C 2.60565476190476 14.5488372093023  2.66889880952381 14.3681063122924  2.71316964285714 14.1873754152824  C 2.75744047619048 14.0066445182724  2.80329241071429 13.7901439645626  2.85072544642857 13.5378737541528  C 2.89815848214286 13.2856035437431  2.93768601190476 13.0126245847176  2.96930803571429 12.7189368770764  C 2.04594494047619 12.041196013289  1.32021949404762 11.2260243632337  0.792131696428571 10.2734219269103  C 0.264043898809524 9.32081949058693  0 8.30609080841639  0 7.22923588039867  C 0 5.91893687707641  0.379464285714286 4.70841638981174  1.13839285714286 3.59767441860465  C 1.89732142857143 2.48693244739756  2.9281994047619 1.60963455149502  4.23102678571429 0.96578073089701  C 5.53385416666667 0.321926910299004  6.95684523809524 0  8.5 0  C 10.0431547619048 0  11.4661458333333 0.321926910299004  12.7689732142857 0.96578073089701  C 14.0718005952381 1.60963455149502  15.1026785714286 2.48693244739756  15.8616071428571 3.59767441860465  Z " fill-rule="nonzero" fill="#3152ef" stroke="none" transform="matrix(1 0 0 1 463 74 )" />
  </g>
</svg>