<?xml version="1.0" encoding="utf-8"?>
<svg version="1.1" xmlns:xlink="http://www.w3.org/1999/xlink" width="12px" height="12px" xmlns="http://www.w3.org/2000/svg">
  <g transform="matrix(1 0 0 1 -319 -332 )">
    <path d="M 11.7150192554557 5.60869565217391  C 11.9050064184852 5.82065217391304  12 6.06793478260869  12 6.35054347826087  C 12 6.62771739130435  11.9050064184852 6.87228260869565  11.7150192554557 7.08423913043478  L 11.1373555840822 7.69565217391304  C 10.9422336328626 7.90217391304348  10.7086007702182 8.0054347826087  10.4364569961489 8.0054347826087  C 10.1591784338896 8.0054347826087  9.92811296534018 7.90217391304348  9.74326059050064 7.69565217391304  L 7.4788189987163 5.3070652173913  L 7.4788189987163 11.0461956521739  C 7.4788189987163 11.3288043478261  7.38254172015404 11.5584239130435  7.18998716302952 11.7350543478261  C 6.99743260590501 11.9116847826087  6.76508344030809 12  6.49293966623877 12  L 5.50706033376123 12  C 5.23491655969191 12  5.00256739409499 11.9116847826087  4.81001283697048 11.7350543478261  C 4.61745827984596 11.5584239130435  4.5211810012837 11.3288043478261  4.5211810012837 11.0461956521739  L 4.5211810012837 5.3070652173913  L 2.25673940949936 7.69565217391304  C 2.07188703465982 7.90217391304348  1.8408215661104 8.0054347826087  1.56354300385109 8.0054347826087  C 1.28626444159178 8.0054347826087  1.05519897304236 7.90217391304348  0.870346598202824 7.69565217391304  L 0.292682926829268 7.08423913043478  C 0.0975609756097561 6.87771739130435  0 6.63315217391304  0 6.35054347826087  C 0 6.0625  0.0975609756097561 5.81521739130435  0.292682926829268 5.60869565217391  L 5.30680359435173 0.301630434782609  C 5.48652118100128 0.100543478260869  5.71758664955071 0  6 0  C 6.27727856225931 0  6.51091142490372 0.100543478260869  6.70089858793325 0.301630434782609  L 11.7150192554557 5.60869565217391  Z " fill-rule="nonzero" fill="#52c41a" stroke="none" transform="matrix(1 0 0 1 319 332 )" />
  </g>
</svg>