<?xml version="1.0" encoding="utf-8"?>
<svg version="1.1" xmlns:xlink="http://www.w3.org/1999/xlink" width="11px" height="20px" xmlns="http://www.w3.org/2000/svg">
  <g transform="matrix(1 0 0 1 -1835 -70 )">
    <path d="M 10.8109965635739 1.20240480961924  C 10.9369988545246 1.33600534402137  11 1.48964595858383  11 1.66332665330661  C 11 1.83700734802939  10.9369988545246 1.99064796259185  10.8109965635739 2.12424849699399  L 3.38316151202749 10  L 10.8109965635739 17.875751503006  C 10.9369988545246 18.0093520374081  11 18.1629926519706  11 18.3366733466934  C 11 18.5103540414162  10.9369988545246 18.6639946559786  10.8109965635739 18.7975951903808  L 9.8659793814433 19.7995991983968  C 9.73997709049256 19.9331997327989  9.5950744558992 20  9.43127147766323 20  C 9.26746849942726 20  9.12256586483391 19.9331997327989  8.99656357388316 19.7995991983968  L 0.189003436426117 10.4609218436874  C 0.0630011454753723 10.3273213092852  0 10.1736806947228  0 10  C 0 9.82631930527722  0.0630011454753723 9.67267869071476  0.189003436426117 9.53907815631263  L 8.99656357388316 0.200400801603207  C 9.12256586483391 0.0668002672010681  9.26746849942726 0  9.43127147766323 0  C 9.5950744558992 0  9.73997709049256 0.0668002672010681  9.8659793814433 0.200400801603207  L 10.8109965635739 1.20240480961924  Z " fill-rule="nonzero" fill="#2c55eb" stroke="none" fill-opacity="0.803921568627451" transform="matrix(1 0 0 1 1835 70 )" />
  </g>
</svg>