<?xml version="1.0" encoding="utf-8"?>
<svg version="1.1" xmlns:xlink="http://www.w3.org/1999/xlink" width="11px" height="20px" xmlns="http://www.w3.org/2000/svg">
  <g transform="matrix(1 0 0 1 -1864 -70 )">
    <path d="M 10.8109965635739 9.53907815631263  C 10.9369988545246 9.67267869071476  11 9.82631930527722  11 10  C 11 10.1736806947228  10.9369988545246 10.3273213092852  10.8109965635739 10.4609218436874  L 2.00343642611684 19.7995991983968  C 1.87743413516609 19.9331997327989  1.73253150057274 20  1.56872852233677 20  C 1.4049255441008 20  1.26002290950745 19.9331997327989  1.1340206185567 19.7995991983968  L 0.189003436426117 18.7975951903808  C 0.0630011454753723 18.6639946559786  0 18.5103540414162  0 18.3366733466934  C 0 18.1629926519706  0.0630011454753723 18.0093520374081  0.189003436426117 17.875751503006  L 7.61683848797251 10  L 0.189003436426117 2.12424849699399  C 0.0630011454753723 1.99064796259185  0 1.83700734802939  0 1.66332665330661  C 0 1.48964595858383  0.0630011454753723 1.33600534402137  0.189003436426117 1.20240480961924  L 1.1340206185567 0.200400801603207  C 1.26002290950745 0.0668002672010681  1.4049255441008 0  1.56872852233677 0  C 1.73253150057274 0  1.87743413516609 0.0668002672010681  2.00343642611684 0.200400801603207  L 10.8109965635739 9.53907815631263  Z " fill-rule="nonzero" fill="#2c55eb" stroke="none" fill-opacity="0.803921568627451" transform="matrix(1 0 0 1 1864 70 )" />
  </g>
</svg>