<?xml version="1.0" encoding="utf-8"?>
<svg version="1.1" xmlns:xlink="http://www.w3.org/1999/xlink" width="14px" height="8px" xmlns="http://www.w3.org/2000/svg">
  <defs>
    <mask fill="white" id="clip267">
      <path d="M 13.1444073485107 8  C 13.8763065555099 8  14.291975428871 7.0219090546332  13.758862545581 6.48281416805538  L 7.61452246726945 0.26735108137674  C 7.26216017970659 -0.0891170271255799  6.73806515161179 -0.0891170271255799  6.38567260627281 0.26735108137674  L 0.241544367577548 6.48281416805538  C -0.305307129325639 7.035775953183  0.151184198602045 8  0.865017419843038 8  L 13.1444073485107 8  Z " fill-rule="evenodd" />
    </mask>
  </defs>
  <g>
    <path d="M 13.1444073485107 8  C 13.8763065555099 8  14.291975428871 7.0219090546332  13.758862545581 6.48281416805538  L 7.61452246726945 0.26735108137674  C 7.26216017970659 -0.0891170271255799  6.73806515161179 -0.0891170271255799  6.38567260627281 0.26735108137674  L 0.241544367577548 6.48281416805538  C -0.305307129325639 7.035775953183  0.151184198602045 8  0.865017419843038 8  L 13.1444073485107 8  Z " fill-rule="nonzero" fill="#c2c2c2" stroke="none" />
    <path d="M 13.1444073485107 8  C 13.8763065555099 8  14.291975428871 7.0219090546332  13.758862545581 6.48281416805538  L 7.61452246726945 0.26735108137674  C 7.26216017970659 -0.0891170271255799  6.73806515161179 -0.0891170271255799  6.38567260627281 0.26735108137674  L 0.241544367577548 6.48281416805538  C -0.305307129325639 7.035775953183  0.151184198602045 8  0.865017419843038 8  L 13.1444073485107 8  Z " stroke-width="2" stroke="#797979" fill="none" mask="url(#clip267)" />
  </g>
</svg>