<?xml version="1.0" encoding="utf-8"?>
<svg version="1.1" xmlns:xlink="http://www.w3.org/1999/xlink" width="82px" height="92px" xmlns="http://www.w3.org/2000/svg">
  <defs>
    <mask fill="white" id="clip16">
      <path d="M 48.319446669662 91.3833282681464  C 51.5030155323163 69.9282133055168  63.9938700562167 51.4977398771692  81.5678987068615 40.3045720608874  L 55.4981276548083 0.0748048834555561  C 26.4748701158966 18.3987543810595  5.79871102036725 48.6859459045785  0.439356265788774 83.9855616118054  L 48.319446669662 91.3833282681464  Z " fill-rule="evenodd" />
    </mask>
  </defs>
  <g transform="matrix(1 0 0 1 -1280 -184 )">
    <path d="M 48.319446669662 91.3833282681464  C 51.5030155323163 69.9282133055168  63.9938700562167 51.4977398771692  81.5678987068615 40.3045720608874  L 55.4981276548083 0.0748048834555561  C 26.4748701158966 18.3987543810595  5.79871102036725 48.6859459045785  0.439356265788774 83.9855616118054  L 48.319446669662 91.3833282681464  Z " fill-rule="nonzero" fill="#facc14" stroke="none" transform="matrix(1 0 0 1 1280 184 )" />
    <path d="M 48.319446669662 91.3833282681464  C 51.5030155323163 69.9282133055168  63.9938700562167 51.4977398771692  81.5678987068615 40.3045720608874  L 55.4981276548083 0.0748048834555561  C 26.4748701158966 18.3987543810595  5.79871102036725 48.6859459045785  0.439356265788774 83.9855616118054  L 48.319446669662 91.3833282681464  Z " stroke-width="2" stroke="#ffffff" fill="none" transform="matrix(1 0 0 1 1280 184 )" mask="url(#clip16)" />
  </g>
</svg>