<?xml version="1.0" encoding="utf-8"?>
<svg version="1.1" xmlns:xlink="http://www.w3.org/1999/xlink" width="75px" height="113px" xmlns="http://www.w3.org/2000/svg">
  <defs>
    <mask fill="white" id="clip172">
      <path d="M 44.3429497750677 112.807520009089  L 74.7247650486181 75.8788672986257  C 58.4922433370299 62.4577227948628  48.1481481481482 42.1626637389824  48.1481481481482 19.4508196721312  C 48.1481481481482 15.3737829827473  48.4814801052489 11.3746256692668  49.1223700798358 7.4791307272454  L 1.51562691356688 0.290218612105605  C 0.518190595319851 6.53004429096342  0 12.9298971913733  0 19.4508196721312  C 0 57.1081199501584  17.281037579629 90.7278942934514  44.3429497750677 112.807520009089  Z " fill-rule="evenodd" />
    </mask>
  </defs>
  <g transform="matrix(1 0 0 1 -1279 -267 )">
    <path d="M 44.3429497750677 112.807520009089  L 74.7247650486181 75.8788672986257  C 58.4922433370299 62.4577227948628  48.1481481481482 42.1626637389824  48.1481481481482 19.4508196721312  C 48.1481481481482 15.3737829827473  48.4814801052489 11.3746256692668  49.1223700798358 7.4791307272454  L 1.51562691356688 0.290218612105605  C 0.518190595319851 6.53004429096342  0 12.9298971913733  0 19.4508196721312  C 0 57.1081199501584  17.281037579629 90.7278942934514  44.3429497750677 112.807520009089  Z " fill-rule="nonzero" fill="#2fc25b" stroke="none" transform="matrix(1 0 0 1 1279 267 )" />
    <path d="M 44.3429497750677 112.807520009089  L 74.7247650486181 75.8788672986257  C 58.4922433370299 62.4577227948628  48.1481481481482 42.1626637389824  48.1481481481482 19.4508196721312  C 48.1481481481482 15.3737829827473  48.4814801052489 11.3746256692668  49.1223700798358 7.4791307272454  L 1.51562691356688 0.290218612105605  C 0.518190595319851 6.53004429096342  0 12.9298971913733  0 19.4508196721312  C 0 57.1081199501584  17.281037579629 90.7278942934514  44.3429497750677 112.807520009089  Z " stroke-width="2" stroke="#ffffff" fill="none" transform="matrix(1 0 0 1 1279 267 )" mask="url(#clip172)" />
  </g>
</svg>