<?xml version="1.0" encoding="utf-8"?>
<svg version="1.1" xmlns:xlink="http://www.w3.org/1999/xlink" width="122px" height="223px" xmlns="http://www.w3.org/2000/svg">
  <defs>
    <mask fill="white" id="clip175">
      <path d="M 75.4351145038168 120.791666666667  C 75.4351145038168 147.015858079155  61.6517830917174 170.028146447289  40.9187159276235 183.010573091963  L 66.4621116864766 222.376589692656  C 99.8764182345713 200.875743249447  122 163.411412679791  122 120.791666666667  C 122 54.0802712637414  67.7956956628095 0  0.931297709923683 0  C 0.672556183423069 0  0.414004231157605 0.000809806496334886  0.155835877450556 0.00242715244431224  L 0.155830636198061 47.4068632540644  C 0.72318924996722 47.3939776518394  1.29213413162194 47.3875  1.86259541984731 47.3875  C 42.4955757142929 47.3875  75.4351145038168 80.2516648448894  75.4351145038168 120.791666666667  Z " fill-rule="evenodd" />
    </mask>
  </defs>
  <g transform="matrix(1 0 0 1 -1399 -166 )">
    <path d="M 75.4351145038168 120.791666666667  C 75.4351145038168 147.015858079155  61.6517830917174 170.028146447289  40.9187159276235 183.010573091963  L 66.4621116864766 222.376589692656  C 99.8764182345713 200.875743249447  122 163.411412679791  122 120.791666666667  C 122 54.0802712637414  67.7956956628095 0  0.931297709923683 0  C 0.672556183423069 0  0.414004231157605 0.000809806496334886  0.155835877450556 0.00242715244431224  L 0.155830636198061 47.4068632540644  C 0.72318924996722 47.3939776518394  1.29213413162194 47.3875  1.86259541984731 47.3875  C 42.4955757142929 47.3875  75.4351145038168 80.2516648448894  75.4351145038168 120.791666666667  Z " fill-rule="nonzero" fill="#1890ff" stroke="none" transform="matrix(1 0 0 1 1399 166 )" />
    <path d="M 75.4351145038168 120.791666666667  C 75.4351145038168 147.015858079155  61.6517830917174 170.028146447289  40.9187159276235 183.010573091963  L 66.4621116864766 222.376589692656  C 99.8764182345713 200.875743249447  122 163.411412679791  122 120.791666666667  C 122 54.0802712637414  67.7956956628095 0  0.931297709923683 0  C 0.672556183423069 0  0.414004231157605 0.000809806496334886  0.155835877450556 0.00242715244431224  L 0.155830636198061 47.4068632540644  C 0.72318924996722 47.3939776518394  1.29213413162194 47.3875  1.86259541984731 47.3875  C 42.4955757142929 47.3875  75.4351145038168 80.2516648448894  75.4351145038168 120.791666666667  Z " stroke-width="2" stroke="#ffffff" fill="none" transform="matrix(1 0 0 1 1399 166 )" mask="url(#clip175)" />
  </g>
</svg>