<?xml version="1.0" encoding="utf-8"?>
<svg version="1.1" xmlns:xlink="http://www.w3.org/1999/xlink" width="66px" height="60px" xmlns="http://www.w3.org/2000/svg">
  <defs>
    <mask fill="white" id="clip174">
      <path d="M 26.2531853504202 59.2760166914052  C 37.5986921844124 51.7671022154111  51.1679147787423 47.310006784911  65.7714587318955 47.0858086788374  L 65.7713609626763 0.000210203533725917  C 41.8138420000234 0.0442649051793182  19.4921405251581 7.01107441769162  0.726789639558575 18.9935359156723  L 26.2531853504202 59.2760166914052  Z " fill-rule="evenodd" />
    </mask>
  </defs>
  <g transform="matrix(1 0 0 1 -1334 -166 )">
    <path d="M 26.2531853504202 59.2760166914052  C 37.5986921844124 51.7671022154111  51.1679147787423 47.310006784911  65.7714587318955 47.0858086788374  L 65.7713609626763 0.000210203533725917  C 41.8138420000234 0.0442649051793182  19.4921405251581 7.01107441769162  0.726789639558575 18.9935359156723  L 26.2531853504202 59.2760166914052  Z " fill-rule="nonzero" fill="#f04864" stroke="none" transform="matrix(1 0 0 1 1334 166 )" />
    <path d="M 26.2531853504202 59.2760166914052  C 37.5986921844124 51.7671022154111  51.1679147787423 47.310006784911  65.7714587318955 47.0858086788374  L 65.7713609626763 0.000210203533725917  C 41.8138420000234 0.0442649051793182  19.4921405251581 7.01107441769162  0.726789639558575 18.9935359156723  L 26.2531853504202 59.2760166914052  Z " stroke-width="2" stroke="#ffffff" fill="none" transform="matrix(1 0 0 1 1334 166 )" mask="url(#clip174)" />
  </g>
</svg>