<?xml version="1.0" encoding="utf-8"?>
<svg version="1.1" xmlns:xlink="http://www.w3.org/1999/xlink" width="144px" height="65px" xmlns="http://www.w3.org/2000/svg">
  <defs>
    <mask fill="white" id="clip171">
      <path d="M 78.9677419354839 17.6428571428572  C 60.8284514826553 17.6428571428572  44.2261177279178 11.0656273921359  31.4177578225707 0.16706246921774  L 0.792748598068783 37.0847304584944  C 21.7304465368129 54.5150689043685  48.6595270075483 65  78.0387096774194 65  C 102.152423425165 65  124.615570836667 57.9365908449116  143.470058758176 45.7668959411581  L 117.995403670875 6.42296738234575  C 106.690686191992 13.5312264813138  93.3096137551619 17.6428571428572  78.9677419354839 17.6428571428572  Z " fill-rule="evenodd" />
    </mask>
  </defs>
  <g transform="matrix(1 0 0 1 -1322 -342 )">
    <path d="M 78.9677419354839 17.6428571428572  C 60.8284514826553 17.6428571428572  44.2261177279178 11.0656273921359  31.4177578225707 0.16706246921774  L 0.792748598068783 37.0847304584944  C 21.7304465368129 54.5150689043685  48.6595270075483 65  78.0387096774194 65  C 102.152423425165 65  124.615570836667 57.9365908449116  143.470058758176 45.7668959411581  L 117.995403670875 6.42296738234575  C 106.690686191992 13.5312264813138  93.3096137551619 17.6428571428572  78.9677419354839 17.6428571428572  Z " fill-rule="nonzero" fill="#13c2c2" stroke="none" transform="matrix(1 0 0 1 1322 342 )" />
    <path d="M 78.9677419354839 17.6428571428572  C 60.8284514826553 17.6428571428572  44.2261177279178 11.0656273921359  31.4177578225707 0.16706246921774  L 0.792748598068783 37.0847304584944  C 21.7304465368129 54.5150689043685  48.6595270075483 65  78.0387096774194 65  C 102.152423425165 65  124.615570836667 57.9365908449116  143.470058758176 45.7668959411581  L 117.995403670875 6.42296738234575  C 106.690686191992 13.5312264813138  93.3096137551619 17.6428571428572  78.9677419354839 17.6428571428572  Z " stroke-width="2" stroke="#ffffff" fill="none" transform="matrix(1 0 0 1 1322 342 )" mask="url(#clip171)" />
  </g>
</svg>