<?xml version="1.0" encoding="utf-8"?>
<svg version="1.1" xmlns:xlink="http://www.w3.org/1999/xlink" width="15px" height="15px" xmlns="http://www.w3.org/2000/svg">
  <defs>
    <mask fill="white" id="clip13">
      <path d="M 0 7.5  C 0 11.6421356235  3.35786437649996 15  7.5 15  C 11.6421356235 15  15 11.6421356235  15 7.5  C 15 3.35786437649996  11.6421356235 0  7.5 0  C 3.35786437649996 0  0 3.35786437649996  0 7.5  Z " fill-rule="evenodd" />
    </mask>
  </defs>
  <g transform="matrix(1 0 0 1 -1553 -469 )">
    <path d="M 0 7.5  C 0 11.6421356235  3.35786437649996 15  7.5 15  C 11.6421356235 15  15 11.6421356235  15 7.5  C 15 3.35786437649996  11.6421356235 0  7.5 0  C 3.35786437649996 0  0 3.35786437649996  0 7.5  Z " fill-rule="nonzero" fill="#f04864" stroke="none" transform="matrix(1 0 0 1 1553 469 )" />
    <path d="M 0 7.5  C 0 11.6421356235  3.35786437649996 15  7.5 15  C 11.6421356235 15  15 11.6421356235  15 7.5  C 15 3.35786437649996  11.6421356235 0  7.5 0  C 3.35786437649996 0  0 3.35786437649996  0 7.5  Z " stroke-width="2" stroke="#ffffff" fill="none" transform="matrix(1 0 0 1 1553 469 )" mask="url(#clip13)" />
  </g>
</svg>