<?xml version="1.0" encoding="utf-8"?>
<svg version="1.1" xmlns:xlink="http://www.w3.org/1999/xlink" width="25px" height="20px" xmlns="http://www.w3.org/2000/svg">
  <g transform="matrix(1 0 0 1 -35 -81 )">
    <path d="M 2 18  L 25 18  L 25 20  L 0 20  L 0 0  L 2 0  L 2 18  Z M 23.32763671875 1.78385416666667  C 23.40087890625 1.86197916666667  23.4375 1.96180555555555  23.4375 2.08333333333333  L 23.4375 7.74739583333333  C 23.4375 7.9296875  23.358154296875 8.05772569444444  23.199462890625 8.13151041666667  C 23.040771484375 8.20529513888889  22.8963216145833 8.17274305555556  22.76611328125 8.03385416666667  L 21.2890625 6.45833333333333  L 13.56201171875 14.7005208333333  C 13.4806315104167 14.7873263888889  13.3870442708333 14.8307291666667  13.28125 14.8307291666667  C 13.1754557291667 14.8307291666667  13.0818684895833 14.7873263888889  13.00048828125 14.7005208333333  L 10.15625 11.6666666666667  L 5.078125 17.0833333333333  L 2.734375 14.5833333333333  L 9.87548828125 6.96614583333333  C 9.95686848958333 6.87934027777778  10.0504557291667 6.8359375  10.15625 6.8359375  C 10.2620442708333 6.8359375  10.3556315104167 6.87934027777778  10.43701171875 6.96614583333333  L 13.28125 10  L 18.9453125 3.95833333333333  L 17.46826171875 2.3828125  C 17.3380533854167 2.24392361111111  17.3075358072917 2.08984375  17.376708984375 1.92057291666667  C 17.4458821614583 1.75130208333333  17.56591796875 1.66666666666667  17.73681640625 1.66666666666667  L 23.046875 1.66666666666667  C 23.1608072916667 1.66666666666667  23.25439453125 1.70572916666667  23.32763671875 1.78385416666667  Z " fill-rule="nonzero" fill="#2c55eb" stroke="none" fill-opacity="0.803921568627451" transform="matrix(1 0 0 1 35 81 )" />
  </g>
</svg>