<?xml version="1.0" encoding="utf-8"?>
<svg version="1.1" xmlns:xlink="http://www.w3.org/1999/xlink" width="25px" height="25px" xmlns="http://www.w3.org/2000/svg">
  <defs>
    <linearGradient gradientUnits="userSpaceOnUse" x1="12.5" y1="0" x2="12.5" y2="25" id="LinearGradient163">
      <stop id="Stop164" stop-color="#169bd5" offset="0" />
      <stop id="Stop165" stop-color="#3366ff" offset="1" />
    </linearGradient>
  </defs>
  <g transform="matrix(1 0 0 1 -1152 -81 )">
    <path d="M 4.41761363636364 16.7203985932005  C 5.15625 16.837631887456  7.56628787878788 16.9744040640875  11.6477272727273 17.130715123095  L 11.4346590909091 22.5234466588511  L 11.40625 22.8458382180539  L 5.44034090909091 22.4208675263775  C 5.09943181818182 22.3915592028136  4.78219696969697 22.2376905041032  4.48863636363636 21.9592614302462  C 4.19507575757576 21.6808323563892  3.97253787878788 21.3608831574834  3.82102272727273 20.9994138335287  C 3.71685606060606 20.7356389214537  3.64820075757576 20.4669792887847  3.61505681818182 20.1934349355217  C 3.58191287878788 19.9198905822587  3.60085227272727 19.6023837436499  3.671875 19.2409144196952  C 3.74289772727273 18.8794450957405  3.79971590909091 18.6107854630715  3.84232954545455 18.4349355216882  C 3.88494318181818 18.2590855803048  3.98674242424242 17.94646346229  4.14772727272727 17.4970691676436  C 4.30871212121212 17.0476748729973  4.39867424242424 16.7887846815162  4.41761363636364 16.7203985932005  Z M 0 8.29425556858148  L 6.15056818181818 8.54337631887456  L 8.70738636363636 14.0973036342321  L 6.61931818181818 12.7491207502931  C 6.02272727272727 13.4525205158265  5.49479166666667 14.1583626416569  5.03551136363636 14.8666471277843  C 4.57623106060606 15.5749316139117  4.23295454545455 16.1855216881594  4.00568181818182 16.6984173505275  C 3.77840909090909 17.2113130128957  3.59138257575758 17.672919109027  3.44460227272727 18.0832356389215  C 3.29782196969697 18.4935521688159  3.21022727272727 18.8012895662368  3.18181818181818 19.0064478311841  L 3.125 19.3141852286049  L 0.426136363636364 14.0826494724502  C 0.265151515151515 13.8286440015631  0.179924242424242 13.5550996483001  0.170454545454545 13.2620164126612  C 0.160984848484849 12.9689331770223  0.189393939393939 12.7393513091051  0.255681818181818 12.5732708089097  L 0.369318181818182 12.3094958968347  C 0.700757575757576 11.694021101993  1.2405303030303 10.7756936303243  1.98863636363636 9.55451348182884  L 0 8.29425556858148  Z M 22.8409090909091 16.4419695193435  L 23.6363636363636 16.1195779601407  L 20.9659090909091 21.3804220398593  C 20.8522727272727 21.6637358343103  20.6794507575758 21.8908753419304  20.4474431818182 22.0618405627198  C 20.2154356060606 22.2328057835092  20.0094696969697 22.3329425556858  19.8295454545455 22.3622508792497  L 19.5738636363636 22.4208675263775  C 18.9015151515152 22.4892536146932  17.8645833333333 22.547870261821  16.4630681818182 22.5967174677608  L 16.5767045454545 25  L 13.3096590909091 19.6219226260258  L 16.3068181818182 14.3171160609613  L 16.40625 16.852286049238  C 18.0160984848485 17.0085971082454  19.3560606060606 17.0330207112153  20.4261363636364 16.9255568581477  C 21.4962121212121 16.8180930050801  22.3011363636364 16.6568972254787  22.8409090909091 16.4419695193435  Z M 12.03125 2.0662368112544  C 12.2585227272727 2.33001172332943  12.4100378787879 2.50097694411879  12.4857954545455 2.57913247362251  C 12.0407196969697 3.19460726846424  10.7859848484848 5.31946072684643  8.72159090909091 8.95369284876905  L 4.21875 6.21336459554513  L 3.94886363636364 6.03751465416178  L 7.14488636363636 0.82063305978898  C 7.3342803030303 0.517780382962094  7.61837121212121 0.297967956232903  7.99715909090909 0.161195779601406  C 8.37594696969697 0.0244236029699085  8.75473484848485 -0.0244236029699141  9.13352272727273 0.0146541617819462  C 9.36079545454546 0.0341930441578736  9.59043560606061 0.0928096912856585  9.82244318181818 0.190504103165298  C 10.0544507575758 0.288198515044938  10.2533143939394 0.390777647518559  10.4190340909091 0.498241500586166  C 10.5847537878788 0.605705353653771  10.78125 0.766901133255177  11.0085227272727 0.981828839390386  C 11.2357954545455 1.19675654552559  11.40625 1.36527940601797  11.5198863636364 1.48739742086753  C 11.6335227272727 1.60951543571708  11.8039772727273 1.80246189917937  12.03125 2.0662368112544  Z M 21.5198863636364 7.23915592028136  L 21.7897727272727 7.07796014067995  L 24.8011363636364 12.3974208675264  C 24.9715909090909 12.758890191481  25.0307765151515 13.1301289566237  24.9786931818182 13.5111371629543  C 24.9266098484849 13.8921453692849  24.7964015151515 14.2536146932395  24.5880681818182 14.5955451348183  C 24.4649621212121 14.7909339585776  24.3087121212121 14.9716686205549  24.1193181818182 15.1377491207503  C 23.9299242424242 15.3038296209457  23.75 15.4406017975772  23.5795454545455 15.5480656506448  C 23.4090909090909 15.6555295037124  23.1794507575758 15.76299335678  22.890625 15.8704572098476  C 22.6017992424242 15.9779210629152  22.3792613636364 16.0560765924189  22.2230113636364 16.1049237983587  C 22.0667613636364 16.1537710042986  21.8229166666667 16.2221570926143  21.4914772727273 16.310082063306  C 21.1600378787879 16.3980070339977  20.9422348484849 16.4566236811254  20.8380681818182 16.4859320046893  C 20.5160984848485 15.7825322391559  19.2613636363636 13.6527940601798  17.0738636363636 10.0967174677608  L 21.5198863636364 7.23915592028136  Z M 18.1676136363636 0.981828839390386  C 18.5369318181818 1.57776475185619  19.0672348484849 2.50586166471278  19.7585227272727 3.76611957796014  L 21.7755681818182 2.54982415005862  L 18.6505681818182 8.0158264947245  L 12.6988636363636 7.72274325908558  L 14.84375 6.46248534583822  C 14.5217803030303 5.59300508010941  14.1666666666667 4.7821414615084  13.7784090909091 4.02989449003517  C 13.3901515151515 3.27764751856194  13.0326704545455 2.67438452520516  12.7059659090909 2.22010550996483  C 12.3792613636364 1.7658264947245  12.0738636363636 1.37504884720594  11.7897727272727 1.04777256740914  C 11.5056818181818 0.720496287612346  11.2831439393939 0.493356779992182  11.1221590909091 0.366354044548653  L 10.8806818181818 0.175849941383352  L 16.6335227272727 0.190504103165298  C 16.9270833333333 0.161195779601406  17.2017045454545 0.212485345838218  17.4573863636364 0.344372801875734  C 17.7130681818182 0.476260257913247  17.8977272727273 0.615474794841736  18.0113636363636 0.762016412661196  L 18.1676136363636 0.981828839390386  Z " fill-rule="nonzero" fill="url(#LinearGradient163)" stroke="none" transform="matrix(1 0 0 1 1152 81 )" />
  </g>
</svg>