<?xml version="1.0" encoding="utf-8"?>
<svg version="1.1" xmlns:xlink="http://www.w3.org/1999/xlink" width="27px" height="22px" xmlns="http://www.w3.org/2000/svg">
  <g transform="matrix(1 0 0 1 -35 -594 )">
    <path d="M 5.220703125 15.4140625  C 5.59737723214286 15.0234375  5.78571428571429 14.5520833333333  5.78571428571429 14  C 5.78571428571429 13.4479166666667  5.59737723214286 12.9765625  5.220703125 12.5859375  C 4.84402901785714 12.1953125  4.38950892857143 12  3.85714285714286 12  C 3.32477678571429 12  2.87025669642857 12.1953125  2.49358258928571 12.5859375  C 2.11690848214286 12.9765625  1.92857142857143 13.4479166666667  1.92857142857143 14  C 1.92857142857143 14.5520833333333  2.11690848214286 15.0234375  2.49358258928571 15.4140625  C 2.87025669642857 15.8046875  3.32477678571429 16  3.85714285714286 16  C 4.38950892857143 16  4.84402901785714 15.8046875  5.220703125 15.4140625  Z M 8.11356026785714 8.4140625  C 8.490234375 8.0234375  8.67857142857143 7.55208333333333  8.67857142857143 7  C 8.67857142857143 6.44791666666666  8.490234375 5.9765625  8.11356026785714 5.5859375  C 7.73688616071429 5.1953125  7.28236607142857 5  6.75 5  C 6.21763392857143 5  5.76311383928571 5.1953125  5.38643973214286 5.5859375  C 5.009765625 5.9765625  4.82142857142857 6.44791666666666  4.82142857142857 7  C 4.82142857142857 7.55208333333333  5.009765625 8.0234375  5.38643973214286 8.4140625  C 5.76311383928571 8.8046875  6.21763392857143 9  6.75 9  C 7.28236607142857 9  7.73688616071429 8.8046875  8.11356026785714 8.4140625  Z M 16.2120535714286 15.9375  C 15.9910714285714 15.34375  15.6294642857143 14.8697916666667  15.1272321428571 14.515625  L 16.6489955357143 8.546875  C 16.7092633928571 8.27604166666666  16.6715959821429 8.0234375  16.5359933035714 7.7890625  C 16.400390625 7.5546875  16.20703125 7.40104166666666  15.9559151785714 7.328125  C 15.7047991071429 7.25520833333333  15.4637276785714 7.2890625  15.2327008928571 7.4296875  C 15.0016741071429 7.5703125  14.8510044642857 7.77604166666667  14.7806919642857 8.046875  L 13.2589285714286 14.015625  C 12.65625 14.0677083333333  12.1188616071429 14.2942708333333  11.6467633928571 14.6953125  C 11.1746651785714 15.0963541666667  10.8582589285714 15.609375  10.6975446428571 16.234375  C 10.4966517857143 17.0364583333333  10.5970982142857 17.796875  10.9988839285714 18.515625  C 11.4006696428571 19.234375  11.98828125 19.6979166666667  12.76171875 19.90625  C 13.53515625 20.1145833333333  14.2684151785714 20.0104166666667  14.9614955357143 19.59375  C 15.6545758928571 19.1770833333333  16.1015625 18.5677083333333  16.3024553571429 17.765625  C 16.4631696428571 17.140625  16.4330357142857 16.53125  16.2120535714286 15.9375  Z M 24.5064174107143 15.4140625  C 24.8830915178571 15.0234375  25.0714285714286 14.5520833333333  25.0714285714286 14  C 25.0714285714286 13.4479166666667  24.8830915178571 12.9765625  24.5064174107143 12.5859375  C 24.1297433035714 12.1953125  23.6752232142857 12  23.1428571428571 12  C 22.6104910714286 12  22.1559709821429 12.1953125  21.779296875 12.5859375  C 21.4026227678571 12.9765625  21.2142857142857 13.4479166666667  21.2142857142857 14  C 21.2142857142857 14.5520833333333  21.4026227678571 15.0234375  21.779296875 15.4140625  C 22.1559709821429 15.8046875  22.6104910714286 16  23.1428571428571 16  C 23.6752232142857 16  24.1297433035714 15.8046875  24.5064174107143 15.4140625  Z M 14.8635602678571 5.4140625  C 15.240234375 5.0234375  15.4285714285714 4.55208333333333  15.4285714285714 4  C 15.4285714285714 3.44791666666666  15.240234375 2.9765625  14.8635602678571 2.5859375  C 14.4868861607143 2.1953125  14.0323660714286 2  13.5 2  C 12.9676339285714 2  12.5131138392857 2.1953125  12.1364397321429 2.5859375  C 11.759765625 2.9765625  11.5714285714286 3.44791666666666  11.5714285714286 4  C 11.5714285714286 4.55208333333333  11.759765625 5.0234375  12.1364397321429 5.4140625  C 12.5131138392857 5.8046875  12.9676339285714 6  13.5 6  C 14.0323660714286 6  14.4868861607143 5.8046875  14.8635602678571 5.4140625  Z M 21.6135602678571 8.4140625  C 21.990234375 8.0234375  22.1785714285714 7.55208333333333  22.1785714285714 7  C 22.1785714285714 6.44791666666666  21.990234375 5.9765625  21.6135602678571 5.5859375  C 21.2368861607143 5.1953125  20.7823660714286 5  20.25 5  C 19.7176339285714 5  19.2631138392857 5.1953125  18.8864397321429 5.5859375  C 18.509765625 5.9765625  18.3214285714286 6.44791666666666  18.3214285714286 7  C 18.3214285714286 7.55208333333333  18.509765625 8.0234375  18.8864397321429 8.4140625  C 19.2631138392857 8.8046875  19.7176339285714 9  20.25 9  C 20.7823660714286 9  21.2368861607143 8.8046875  21.6135602678571 8.4140625  Z M 25.9302455357143 8.5625  C 26.6434151785714 10.2916666666667  27 12.1041666666667  27 14  C 27 16.71875  26.2918526785714 19.234375  24.8755580357143 21.546875  C 24.6847098214286 21.8489583333333  24.4135044642857 22  24.0619419642857 22  L 2.93805803571429 22  C 2.58649553571429 22  2.31529017857143 21.8489583333333  2.12444196428571 21.546875  C 0.708147321428571 19.2447916666667  0 16.7291666666667  0 14  C 0 12.1041666666667  0.356584821428571 10.2916666666667  1.06975446428571 8.5625  C 1.78292410714286 6.83333333333333  2.7421875 5.34375  3.94754464285714 4.09375  C 5.15290178571429 2.84375  6.58928571428572 1.84895833333333  8.25669642857143 1.109375  C 9.92410714285714 0.369791666666665  11.671875 0  13.5 0  C 15.328125 0  17.0758928571429 0.369791666666665  18.7433035714286 1.109375  C 20.4107142857143 1.84895833333333  21.8470982142857 2.84375  23.0524553571429 4.09375  C 24.2578125 5.34375  25.2170758928571 6.83333333333333  25.9302455357143 8.5625  Z " fill-rule="nonzero" fill="#2c55eb" stroke="none" fill-opacity="0.8" transform="matrix(1 0 0 1 35 594 )" />
  </g>
</svg>