<?xml version="1.0" encoding="utf-8"?>
<svg version="1.1" xmlns:xlink="http://www.w3.org/1999/xlink" width="26px" height="23px" xmlns="http://www.w3.org/2000/svg">
  <g transform="matrix(1 0 0 1 -1142 -671 )">
    <path d="M 24.011 19.7288888888889  C 24.011 19.6607407407407  23.9936666666667 19.6062222222222  24.0023333333333 19.5335308641975  C 23.8896666666667 20.4966913580247  23.2743333333333 21.2872098765432  22.4423333333333 21.6461234567901  C 20.5573333333333 22.3821234567901  16.9996666666667 22.8955061728395  12.8656666666667 22.9273086419753  C 8.827 22.9545679012346  5.34733333333333 22.5093333333333  3.44933333333333 21.8323950617284  C 2.58266666666666 21.4871111111111  1.94133333333333 20.6693333333333  1.82866666666666 19.6789135802469  C 1.82866666666666 19.6970864197531  1.82433333333333 19.7198024691358  1.82866666666666 19.737975308642  L 0.03033333333333 5.58587654320988  C 0.0389999999999967 5.57679012345679  0.0519999999999962 5.59041975308642  0.0519999999999962 5.55861728395062  C 0.0519999999999962 5.06795061728395  0.441999999999997 4.66814814814815  0.91433333333333 4.67269135802469  C 1.09633333333333 4.66814814814815  1.25666666666666 4.74538271604938  1.39966666666666 4.84987654320988  L 7.27133333333333 10.3517037037037  L 11.9036666666667 0.801876543209878  C 12.1073333333333 0.406617283950619  12.506 0.13856790123457  12.9696666666667 0.143111111111112  C 13.403 0.143111111111112  13.7713333333333 0.397530864197532  13.9793333333333 0.747358024691359  L 18.5986666666667 10.3698765432099  L 24.3836666666667 4.99525925925926  C 24.388 4.99525925925926  24.375 5.02251851851852  24.3793333333333 5.01343209876543  C 24.531 4.85896296296296  24.7433333333333 4.76355555555555  24.9773333333333 4.76355555555555  C 25.454 4.7680987654321  25.8353333333333 5.16335802469136  25.8353333333333 5.65402469135802  C 25.8353333333333 5.67674074074074  25.844 5.66311111111111  25.857 5.67674074074074  L 24.011 19.7288888888889  Z " fill-rule="nonzero" fill="#fed530" stroke="none" transform="matrix(1 0 0 1 1142 671 )" />
  </g>
</svg>