<?xml version="1.0" encoding="utf-8"?>
<svg version="1.1" xmlns:xlink="http://www.w3.org/1999/xlink" width="22px" height="13px" xmlns="http://www.w3.org/2000/svg">
  <g transform="matrix(1 0 0 1 -1144 -673 )">
    <path d="M 8.0242962962963 7.55582608695653  C 8.3762962962963 7.01321739130435  8.3762962962963 6.1224347826087  8.02864197530864 5.57078260869565  L 4.8562962962963 0.592347826086957  C 4.50864197530864 0.0452173913043489  3.93935802469136 0.0406956521739146  3.58301234567901 0.587826086956523  L 0.388938271604939 5.55269565217392  C 0.036938271604939 6.09982608695652  0.0325925925925929 6.99060869565218  0.384592592592594 7.54226086956522  L 3.55693827160494 12.5161739130435  C 3.90459259259259 13.0678260869565  4.47822222222222 13.0678260869565  4.83022222222222 12.5206956521739  L 8.0242962962963 7.55582608695653  Z M 21.648 7.58747826086957  C 21.9956543209877 7.04034782608696  22 6.14956521739131  21.648 5.6024347826087  L 18.4756543209877 0.624000000000002  C 18.128 0.0768695652173929  17.5543703703704 0.0723478260869586  17.2023703703704 0.619478260869567  L 14.0126419753086 5.57982608695652  C 13.6606419753086 6.12695652173913  13.6562962962963 7.01773913043478  14.0082962962963 7.56939130434783  L 17.1806419753086 12.5478260869565  C 17.5282962962963 13.0949565217391  18.1019259259259 13.0994782608696  18.4539259259259 12.552347826087  L 21.648 7.58747826086957  Z " fill-rule="nonzero" fill="#feae30" stroke="none" transform="matrix(1 0 0 1 1144 673 )" />
  </g>
</svg>