<?xml version="1.0" encoding="utf-8"?>
<svg version="1.1" xmlns:xlink="http://www.w3.org/1999/xlink" width="3px" height="6px" xmlns="http://www.w3.org/2000/svg">
  <g transform="matrix(1 0 0 1 -1154 -683 )">
    <path d="M 1.47 1.63636363636363  L 1.542 5.02254545454545  C 1.542 5.45018181818182  1.858 5.79490909090909  2.246 5.79490909090909  C 2.638 5.79490909090909  2.954 5.45018181818182  2.954 5.02690909090909  L 2.878 0.833454545454541  C 2.878 0.405818181818178  2.562 0.0610909090909062  2.174 0.0610909090909062  L 2.154 0.0610909090909062  C 1.958 0.0567272727272684  1.754 0.109090909090907  1.486 0.191999999999998  L 0.566000000000001 0.484363636363635  C 0.278 0.575999999999999  0.0899999999999999 0.837818181818182  0.0940000000000012 1.152  C 0.0900000000000016 1.51854545454545  0.382000000000001 1.824  0.714 1.81963636363636  C 0.790000000000001 1.81963636363636  0.886000000000001 1.79781818181818  0.966000000000001 1.776  L 1.47 1.63636363636363  Z " fill-rule="nonzero" fill="#fed530" stroke="none" transform="matrix(1 0 0 1 1154 683 )" />
  </g>
</svg>