<?xml version="1.0" encoding="utf-8"?>
<svg version="1.1" xmlns:xlink="http://www.w3.org/1999/xlink" width="5px" height="6px" xmlns="http://www.w3.org/2000/svg">
  <g transform="matrix(1 0 0 1 -1155 -901 )">
    <path d="M 0.552560623853214 4.3868932293578  L 0.552560623853212 4.38579256880734  L 1.50792675229358 4.16566212844037  C 1.61028741284404 4.65435170642202  1.8832491559633 4.89869651376147  2.34332179816514 4.89429388990826  C 2.80339444036697 4.88989126605505  3.05104117431193 4.66205627522936  3.06975225688073 4.18657451376147  C 3.07635616513762 3.73310579816514  2.72524811009174 3.49976752293578  2.03844111926606 3.50086818348624  C 1.89425566972477 3.50086818348624  1.75667414678899 3.49426427522936  1.62239458715596 3.50086818348624  L 1.62899849541285 2.77553836697248  L 2.00211959633028 2.77553836697248  C 2.64490048929664 2.77553836697248  2.96849224464832 2.56311248929664  2.97289486238532 2.13826073394495  C 2.95418377981651 1.72661680733945  2.75276442201835 1.50978831192661  2.33231526605505 1.49437919266055  C 1.90416155963303 1.51749288073395  1.64440763302752 1.76734093577982  1.55525480733945 2.2153063853211  L 0.651619321100917 2.02929616513761  C 0.856340642201836 1.23022266055046  1.45179348623853 0.829585247706422  2.39505244036697 0.818578715596329  C 3.3515192293578 0.844994366972477  3.85781924770642 1.25883959633028  3.9150531559633 2.01718899082569  C 3.92275772477064 2.59393075229358  3.61237379816514 2.95714598165138  2.95968702752294 3.11784121100917  C 3.62007836697248 3.22790644036697  3.9865955412844 3.61423535779817  4.0361249174312 4.24380844036697  C 3.9832936146789 5.1111223853211  3.4109544587156 5.55138328440367  2.2849872293578 5.56459110091743  C 1.32962110091743 5.60971783486239  0.755080642201836 5.21898631192661  0.552560623853214 4.3868932293578  Z " fill-rule="nonzero" fill="#c5925f" stroke="none" transform="matrix(1 0 0 1 1155 901 )" />
  </g>
</svg>