<?xml version="1.0" encoding="utf-8"?>
<svg version="1.1" xmlns:xlink="http://www.w3.org/1999/xlink" width="18px" height="11px" xmlns="http://www.w3.org/2000/svg">
  <g transform="matrix(1 0 0 1 -1147 -784 )">
    <path d="M 6.83692684947712 4.93325788436482  L 6.83779571746957 4.93234072801303  L 4.46314689010801 0.952822392508143  C 4.20161402623007 0.514424200325732  3.7645674347677 0.506169846905537  3.48739472638436 0.934479372964169  L 0.981545016115207 4.81861400325733  C 0.704372324704269 5.24692352931596  0.692208003085891 5.95221267915309  0.955478619921138 6.3915280276873  L 3.32752082633293 10.3682949120521  C 3.58731592028116 10.8066931042345  4.02610028167324 10.8176989267101  4.30240410509172 10.3866379315961  L 6.80912268335334 6.50342045765472  C 7.08890201268644 6.07694522638436  7.09845969638265 5.37165607654723  6.83692684947712 4.93325788436482  Z M 17.2773880466312 5.13594827361564  L 14.9036080872621 1.15642992019544  C 14.6429441083491 0.718031728013029  14.2032908619921 0.70794306188925  13.9278559235385 1.13808690065147  L 11.4228750982342 5.01855294136808  C 11.1448335218584 5.44686246742671  11.1335380852049 6.15215161726384  11.3968087020401 6.59146694788274  L 13.7697197764444 10.5700681449511  C 14.0303837553575 11.0084663371336  14.4700370017144 11.0194721596091  14.745471940168 10.5893283208469  L 17.2530594033945 6.70519369055375  C 17.5258877039259 6.2778013029316  17.5397897785016 5.57526362214984  17.2773880466312 5.13503111726384  Z " fill-rule="nonzero" fill="#89b8d4" stroke="none" transform="matrix(1 0 0 1 1147 784 )" />
  </g>
</svg>