<?xml version="1.0" encoding="utf-8"?>
<svg version="1.1" xmlns:xlink="http://www.w3.org/1999/xlink" width="22px" height="19px" xmlns="http://www.w3.org/2000/svg">
  <g transform="matrix(1 0 0 1 -1146 -782 )">
    <path d="M 19.5490742882736 16.3551504625407  C 19.5490742882736 16.3019556986971  19.535317014658 16.2579324446254  19.5435713859935 16.1992347785016  C 19.4358574344671 16.9427107375377  18.9339627967328 17.5695525687497  18.2320453990228 17.8372665276873  C 16.6710543355049 18.3903086009772  13.7398396368078 18.7470803615635  10.3390436091205 18.717731519544  C 7.01712256188925 18.6847140879479  4.15836278501629 18.2894219934853  2.60746038762215 17.7317941563518  C 1.8878170652388 17.447261205604  1.38475521123277 16.7878088979687  1.30052016449511 16.018556034202  C 1.30052016449511 16.0332304462541  1.29501726221498 16.0497391710098  1.29868586970684 16.0644135830619  L 0 4.93295149022801  C 0.00733721498371336 4.92653143159609  0.0183430195439739 4.93662009771987  0.0192601758957655 4.91093986319218  C 0.027563315588739 4.52999253608847  0.338759376550823 4.22550540336451  0.719797180654599 4.22550540336451  C 0.726885355168679 4.22550540336451  0.733973121661968 4.22561295718567  0.74105803257329 4.2258280276873  C 0.891470796416938 4.2258280276873  1.02262340228013 4.28911145765472  1.13635012703583 4.3716550456026  L 5.8991154543974 8.76755994625407  L 9.82910763355049 1.33129936807818  C 10.003331562362 1.02115232770347  10.3313721328722 0.829172520880826  10.687104003842 0.829172520880826  C 11.0375487650867 0.829172520880826  11.361553066452 1.01553575583631  11.537760009772 1.31845925081433  L 15.2155356612378 8.93448143485342  L 20.0397500879479 4.79262737459283  C 20.0425015390879 4.79446166938111  20.033330029316 4.81555615798045  20.0379157931596 4.80821894299674  C 20.1727602446922 4.68431643332283  20.3500801079236 4.61700056098125  20.5331773566775 4.62020298371335  C 20.9238837052117 4.62937449348534  21.2329636042345 4.94487445114006  21.2274606840391 5.33099503583062  C 21.2256263892508 5.35025521172638  21.2366321938111 5.3401665456026  21.2448865472313 5.34933805537459  L 19.5490742882736 16.3551504625407  Z " fill-rule="nonzero" fill="#bed8ea" stroke="none" transform="matrix(1 0 0 1 1146 782 )" />
  </g>
</svg>