<?xml version="1.0" encoding="utf-8"?>
<svg version="1.1" xmlns:xlink="http://www.w3.org/1999/xlink" width="4px" height="6px" xmlns="http://www.w3.org/2000/svg">
  <g transform="matrix(1 0 0 1 -1155 -790 )">
    <path d="M 0.790587281758961 1.49669503583062  C 1.09232996579805 1.16285205863192  1.49037352931596 0.995930570032574  1.98471793648208 0.995930570032574  C 2.42770189250814 0.995930570032574  2.79364514495114 1.12433170684039  3.08254772964169 1.38113399837134  C 3.36503025570033 1.63793628990228  3.50627150977199 1.96535920846905  3.50627149185668 2.37624287133551  C 3.50627149185668 2.77428641693811  3.35219012052117 3.1338096286645  3.05686749511401 3.46123254723127  C 2.87710588925081 3.65383427035831  2.55610302931596 3.89779644462541  2.10669901465798 4.1995391286645  C 1.63803484201954 4.50770187133551  1.35555231596091 4.77734428013029  1.25283141368078 5.00846633713355  L 3.5126915504886 5.00846633713355  L 3.5126915504886 5.66973223289902  L 0.315503050488601 5.66973223289902  C 0.315503050488601 5.20106806026059  0.463164363192183 4.79660445602606  0.771327123778503 4.44992136156352  C 0.938248612377853 4.25731963843648  1.29135176547231 3.97483713029316  1.82421650651466 3.60889385993485  C 2.11953913192182 3.40345201954397  2.32498097231271 3.23011049022801  2.45338210912052 3.09528927687296  C 2.65240389087948 2.87058727850163  2.75512479315961 2.62662510423453  2.75512481107492 2.36982281270358  C 2.75512481107492 2.11944057980456  2.68450418403909 1.93325891530945  2.55610302931596 1.81127783713355  C 2.42128183387622 1.68929674104234  2.22226005211727 1.63151623127036  1.9590377019544 1.63151623127036  C 1.67655517589577 1.63151623127036  1.46469329478828 1.72781709283388  1.32345204071661 1.9204187980456  C 1.18221078664495 2.10018040390879  1.1051701009772 2.37624285342019  1.09232998371336 2.73576606514658  L 0.341183285016289 2.73576606514658  C 0.34760334364821 2.22216148208469  0.495264656351795 1.81127781921824  0.790587281758961 1.49669503583062  Z " fill-rule="nonzero" fill="#ffffff" stroke="none" transform="matrix(1 0 0 1 1155 790 )" />
  </g>
</svg>