<?xml version="1.0" encoding="utf-8"?>
<svg version="1.1" xmlns:xlink="http://www.w3.org/1999/xlink" width="22px" height="19px" xmlns="http://www.w3.org/2000/svg">
  <g transform="matrix(1 0 0 1 -1146 -892 )">
    <path d="M 20.3844682846734 4.21268220790848  C 20.377031200856 4.21268220790848  20.3695946464 4.21280683738353  20.3621617965696 4.21305604311927  C 20.18124301671 4.21407307905082  20.0077226170881 4.28450658932238  19.877874822497 4.40963253577982  C 19.8715580406861 4.42008872385321  19.8620828591943 4.40963253577982  19.8673468528121 4.40335882293578  L 15.1560767945752 8.59420221009174  L 11.3460016433985 0.961179059633027  C 11.1617810191163 0.714206557737836  10.8689963796487 0.570564101717958  10.5595617024332 0.575345414678899  C 10.1959280797352 0.579738432321231  9.86183824749652 0.775085761131144  9.68152836378141 1.0887446587156  L 5.89145636378141 8.56387923853211  L 1.06016736338253 4.21305604311927  C 0.954917362674384 4.15464483953952  0.836468250966006 4.12370548417219  0.715902482648584 4.1231327559633  C 0.334789681691264 4.1231327559633  0.00210559393697621 4.37617269908257  0 4.75050452844037  C 0 4.96694778715596  1.46444171519745 16.0034627788991  1.46444171519745 16.0034627788991  L 1.4570721276426 15.8769427899083  C 1.54656785152464 16.64090957194  2.05673614172669 17.2919073009659  2.78043892620662 17.5656184623853  C 2.72013676467327 17.5410546975835  2.65729086298315 17.5231710573111  2.59304092540886 17.512291859633  C 4.09433056082968 18.0800633165138  7.05479790027922 18.442893312844  10.4584931232549 18.4240721743119  C 13.8779803095333 18.4000229155963  16.8668731934583 17.9922312669725  18.3986939497407 17.4087755192661  C 18.3375079997419 17.416351580397  18.2776485664219 17.4321818113756  18.2207711304348 17.4558284091743  C 18.95019906722 17.1869935596155  19.4649395229043 16.5329901530543  19.5515075165536 15.7650614990826  C 19.5400257241776 15.8485437693538  19.5365007726814 15.9329158132536  19.5409795293179 16.0170558321101  L 21.0580611280415 4.93348795045872  C 21.0455903102907 4.92079752393381  21.0407877168787 4.90251309159597  21.0454275644196 4.88538945045872  C 21.0455593764511 4.88003774237188  21.0456252898589 4.87468463346827  21.0456252898589 4.86933132442224  C 21.0456252898589 4.50667403138183  20.7496152158811 4.21268220790848  20.3844682846734 4.21268220790848  Z " fill-rule="nonzero" fill="#c5925f" stroke="none" transform="matrix(1 0 0 1 1146 892 )" />
  </g>
</svg>