<?xml version="1.0" encoding="utf-8"?>
<svg version="1.1" xmlns:xlink="http://www.w3.org/1999/xlink" width="7px" height="14px" xmlns="http://www.w3.org/2000/svg">
  <defs>
    <mask fill="white" id="clip182">
      <path d="M 6.76666666666667 11.2424242424242  C 6.76666666666667 11.2424242424242  5.83333333333333 11.6666666666667  5.83333333333333 11.6666666666667  C 5.83333333333333 11.6666666666667  4.9 11.6666666666667  4.9 11.6666666666667  C 4.9 11.6666666666667  5.36666666666667 13.7878787878788  5.36666666666667 13.7878787878788  C 5.36666666666667 13.7878787878788  3.03333333333333 13.3636363636364  3.03333333333333 13.3636363636364  C 3.03333333333333 13.3636363636364  3.96666666666667 12.0909090909091  3.96666666666667 12.0909090909091  C 3.96666666666667 12.0909090909091  2.56666666666667 12.0909090909091  2.56666666666667 12.0909090909091  C 2.56666666666667 12.0909090909091  2.56666666666667 7.42424242424242  2.56666666666667 7.42424242424242  C 2.56666666666667 7.42424242424242  1.63333333333333 7.42424242424242  1.63333333333333 7.42424242424242  C 1.63333333333333 7.42424242424242  1.63333333333333 8.6969696969697  1.63333333333333 8.6969696969697  C 1.63333333333333 8.6969696969697  0.233333333333333 0.212121212121212  0.233333333333333 0.212121212121212  C 0.233333333333333 0.212121212121212  1.16666666666667 1.06060606060606  1.16666666666667 1.06060606060606  C 1.16666666666667 1.06060606060606  1.63333333333333 4.03030303030303  1.63333333333333 4.03030303030303  C 1.63333333333333 4.03030303030303  4.9 3.18181818181818  4.9 3.18181818181818  C 4.9 3.18181818181818  4.9 1.06060606060606  4.9 1.06060606060606  C 4.9 1.06060606060606  5.83333333333333 2.75757575757576  5.83333333333333 2.75757575757576  C 5.83333333333333 2.75757575757576  6.76666666666667 11.2424242424242  6.76666666666667 11.2424242424242  Z " fill-rule="evenodd" />
    </mask>
  </defs>
  <g transform="matrix(1 0 0 1 -228 -839 )">
    <path d="M 6.76666666666667 11.2424242424242  C 6.76666666666667 11.2424242424242  5.83333333333333 11.6666666666667  5.83333333333333 11.6666666666667  C 5.83333333333333 11.6666666666667  4.9 11.6666666666667  4.9 11.6666666666667  C 4.9 11.6666666666667  5.36666666666667 13.7878787878788  5.36666666666667 13.7878787878788  C 5.36666666666667 13.7878787878788  3.03333333333333 13.3636363636364  3.03333333333333 13.3636363636364  C 3.03333333333333 13.3636363636364  3.96666666666667 12.0909090909091  3.96666666666667 12.0909090909091  C 3.96666666666667 12.0909090909091  2.56666666666667 12.0909090909091  2.56666666666667 12.0909090909091  C 2.56666666666667 12.0909090909091  2.56666666666667 7.42424242424242  2.56666666666667 7.42424242424242  C 2.56666666666667 7.42424242424242  1.63333333333333 7.42424242424242  1.63333333333333 7.42424242424242  C 1.63333333333333 7.42424242424242  1.63333333333333 8.6969696969697  1.63333333333333 8.6969696969697  C 1.63333333333333 8.6969696969697  0.233333333333333 0.212121212121212  0.233333333333333 0.212121212121212  C 0.233333333333333 0.212121212121212  1.16666666666667 1.06060606060606  1.16666666666667 1.06060606060606  C 1.16666666666667 1.06060606060606  1.63333333333333 4.03030303030303  1.63333333333333 4.03030303030303  C 1.63333333333333 4.03030303030303  4.9 3.18181818181818  4.9 3.18181818181818  C 4.9 3.18181818181818  4.9 1.06060606060606  4.9 1.06060606060606  C 4.9 1.06060606060606  5.83333333333333 2.75757575757576  5.83333333333333 2.75757575757576  C 5.83333333333333 2.75757575757576  6.76666666666667 11.2424242424242  6.76666666666667 11.2424242424242  Z " fill-rule="nonzero" fill="#ffffff" stroke="none" fill-opacity="0" transform="matrix(1 0 0 1 228 839 )" />
    <path d="M 6.76666666666667 11.2424242424242  C 6.76666666666667 11.2424242424242  5.83333333333333 11.6666666666667  5.83333333333333 11.6666666666667  C 5.83333333333333 11.6666666666667  4.9 11.6666666666667  4.9 11.6666666666667  C 4.9 11.6666666666667  5.36666666666667 13.7878787878788  5.36666666666667 13.7878787878788  C 5.36666666666667 13.7878787878788  3.03333333333333 13.3636363636364  3.03333333333333 13.3636363636364  C 3.03333333333333 13.3636363636364  3.96666666666667 12.0909090909091  3.96666666666667 12.0909090909091  C 3.96666666666667 12.0909090909091  2.56666666666667 12.0909090909091  2.56666666666667 12.0909090909091  C 2.56666666666667 12.0909090909091  2.56666666666667 7.42424242424242  2.56666666666667 7.42424242424242  C 2.56666666666667 7.42424242424242  1.63333333333333 7.42424242424242  1.63333333333333 7.42424242424242  C 1.63333333333333 7.42424242424242  1.63333333333333 8.6969696969697  1.63333333333333 8.6969696969697  C 1.63333333333333 8.6969696969697  0.233333333333333 0.212121212121212  0.233333333333333 0.212121212121212  C 0.233333333333333 0.212121212121212  1.16666666666667 1.06060606060606  1.16666666666667 1.06060606060606  C 1.16666666666667 1.06060606060606  1.63333333333333 4.03030303030303  1.63333333333333 4.03030303030303  C 1.63333333333333 4.03030303030303  4.9 3.18181818181818  4.9 3.18181818181818  C 4.9 3.18181818181818  4.9 1.06060606060606  4.9 1.06060606060606  C 4.9 1.06060606060606  5.83333333333333 2.75757575757576  5.83333333333333 2.75757575757576  C 5.83333333333333 2.75757575757576  6.76666666666667 11.2424242424242  6.76666666666667 11.2424242424242  Z " stroke-width="2" stroke-dasharray="1,1" stroke="#999999" fill="none" transform="matrix(1 0 0 1 228 839 )" mask="url(#clip182)" />
  </g>
</svg>