<?xml version="1.0" encoding="utf-8"?>
<svg version="1.1" xmlns:xlink="http://www.w3.org/1999/xlink" width="54px" height="55px" xmlns="http://www.w3.org/2000/svg">
  <defs>
    <mask fill="white" id="clip185">
      <path d="M 33.8031496062992 52.7083333333333  C 33.8031496062992 52.7083333333333  32.9527559055118 52.7083333333333  32.9527559055118 52.7083333333333  C 32.9527559055118 52.7083333333333  31.6771653543307 52.7083333333333  31.6771653543307 52.7083333333333  C 31.6771653543307 52.7083333333333  31.6771653543307 48.125  31.6771653543307 48.125  C 31.6771653543307 48.125  28.7007874015748 48.9583333333333  28.7007874015748 48.9583333333333  C 28.7007874015748 48.9583333333333  28.2755905511811 48.125  28.2755905511811 48.125  C 28.2755905511811 48.125  24.4488188976378 48.9583333333333  24.4488188976378 48.9583333333333  C 24.4488188976378 48.9583333333333  24.4488188976378 46.875  24.4488188976378 46.875  C 24.4488188976378 46.875  25.7244094488189 46.875  25.7244094488189 46.875  C 25.7244094488189 46.875  25.2992125984252 42.2916666666667  25.2992125984252 42.2916666666667  C 25.2992125984252 42.2916666666667  21.0472440944882 38.125  21.0472440944882 38.125  C 21.0472440944882 38.125  21.0472440944882 35.625  21.0472440944882 35.625  C 21.0472440944882 35.625  19.7716535433071 34.7916666666667  19.7716535433071 34.7916666666667  C 19.7716535433071 34.7916666666667  19.7716535433071 36.0416666666667  19.7716535433071 36.0416666666667  C 19.7716535433071 36.0416666666667  18.9212598425197 36.875  18.9212598425197 36.875  C 18.9212598425197 36.875  18.0708661417323 34.7916666666667  18.0708661417323 34.7916666666667  C 18.0708661417323 34.7916666666667  16.7952755905512 35.625  16.7952755905512 35.625  C 16.7952755905512 35.625  15.5196850393701 33.5416666666667  15.5196850393701 33.5416666666667  C 15.5196850393701 33.5416666666667  17.2204724409449 32.2916666666667  17.2204724409449 32.2916666666667  C 17.2204724409449 32.2916666666667  18.9212598425197 32.2916666666667  18.9212598425197 32.2916666666667  C 18.9212598425197 32.2916666666667  19.3464566929134 31.0416666666667  19.3464566929134 31.0416666666667  C 19.3464566929134 31.0416666666667  16.7952755905512 28.125  16.7952755905512 28.125  C 16.7952755905512 28.125  15.5196850393701 28.125  15.5196850393701 28.125  C 15.5196850393701 28.125  13.8188976377953 26.0416666666667  13.8188976377953 26.0416666666667  C 13.8188976377953 26.0416666666667  11.2677165354331 26.0416666666667  11.2677165354331 26.0416666666667  C 11.2677165354331 26.0416666666667  9.99212598425197 25.2083333333333  9.99212598425197 25.2083333333333  C 9.99212598425197 25.2083333333333  4.46456692913386 25.625  4.46456692913386 25.625  C 4.46456692913386 25.625  2.76377952755906 21.4583333333333  2.76377952755906 21.4583333333333  C 2.76377952755906 21.4583333333333  3.18897637795276 19.7916666666667  3.18897637795276 19.7916666666667  C 3.18897637795276 19.7916666666667  2.33858267716535 17.2916666666667  2.33858267716535 17.2916666666667  C 2.33858267716535 17.2916666666667  0.637795275590551 16.4583333333333  0.637795275590551 16.4583333333333  C 0.637795275590551 16.4583333333333  0.21259842519685 15.2083333333333  0.21259842519685 15.2083333333333  C 0.21259842519685 15.2083333333333  0.21259842519685 13.9583333333333  0.21259842519685 13.9583333333333  C 0.21259842519685 13.9583333333333  1.91338582677165 12.2916666666667  1.91338582677165 12.2916666666667  C 1.91338582677165 12.2916666666667  1.91338582677165 11.4583333333333  1.91338582677165 11.4583333333333  C 1.91338582677165 11.4583333333333  3.18897637795276 11.0416666666667  3.18897637795276 11.0416666666667  C 3.18897637795276 11.0416666666667  3.61417322834646 8.95833333333333  3.61417322834646 8.95833333333333  C 3.61417322834646 8.95833333333333  5.31496062992126 8.125  5.31496062992126 8.125  C 5.31496062992126 8.125  7.01574803149606 7.70833333333333  7.01574803149606 7.70833333333333  C 7.01574803149606 7.70833333333333  8.29133858267716 8.95833333333333  8.29133858267716 8.95833333333333  C 8.29133858267716 8.95833333333333  12.1181102362205 8.95833333333333  12.1181102362205 8.95833333333333  C 12.1181102362205 8.95833333333333  12.9685039370079 7.70833333333333  12.9685039370079 7.70833333333333  C 12.9685039370079 7.70833333333333  18.496062992126 7.29166666666667  18.496062992126 7.29166666666667  C 18.496062992126 7.29166666666667  18.0708661417323 6.45833333333333  18.0708661417323 6.45833333333333  C 18.0708661417323 6.45833333333333  18.9212598425197 6.45833333333333  18.9212598425197 6.45833333333333  C 18.9212598425197 6.45833333333333  18.0708661417323 3.95833333333333  18.0708661417323 3.95833333333333  C 18.0708661417323 3.95833333333333  20.1968503937008 2.70833333333333  20.1968503937008 2.70833333333333  C 20.1968503937008 2.70833333333333  20.6220472440945 0.625  20.6220472440945 0.625  C 20.6220472440945 0.625  21.8976377952756 1.04166666666667  21.8976377952756 1.04166666666667  C 21.8976377952756 1.04166666666667  22.3228346456693 0.208333333333333  22.3228346456693 0.208333333333333  C 22.3228346456693 0.208333333333333  23.5984251968504 0.208333333333333  23.5984251968504 0.208333333333333  C 23.5984251968504 0.208333333333333  24.0236220472441 3.54166666666667  24.0236220472441 3.54166666666667  C 24.0236220472441 3.54166666666667  30.8267716535433 4.79166666666667  30.8267716535433 4.79166666666667  C 30.8267716535433 4.79166666666667  30.8267716535433 8.54166666666667  30.8267716535433 8.54166666666667  C 30.8267716535433 8.54166666666667  29.9763779527559 8.54166666666667  29.9763779527559 8.54166666666667  C 29.9763779527559 8.54166666666667  29.9763779527559 10.625  29.9763779527559 10.625  C 29.9763779527559 10.625  32.1023622047244 11.0416666666667  32.1023622047244 11.0416666666667  C 32.1023622047244 11.0416666666667  32.9527559055118 10.625  32.9527559055118 10.625  C 32.9527559055118 10.625  32.5275590551181 9.79166666666667  32.5275590551181 9.79166666666667  C 32.5275590551181 9.79166666666667  33.3779527559055 10.2083333333333  33.3779527559055 10.2083333333333  C 33.3779527559055 10.2083333333333  33.3779527559055 11.4583333333333  33.3779527559055 11.4583333333333  C 33.3779527559055 11.4583333333333  32.5275590551181 11.875  32.5275590551181 11.875  C 32.5275590551181 11.875  33.8031496062992 13.125  33.8031496062992 13.125  C 33.8031496062992 13.125  35.0787401574803 13.125  35.0787401574803 13.125  C 35.0787401574803 13.125  35.9291338582677 16.0416666666667  35.9291338582677 16.0416666666667  C 35.9291338582677 16.0416666666667  37.6299212598425 15.625  37.6299212598425 15.625  C 37.6299212598425 15.625  39.755905511811 19.7916666666667  39.755905511811 19.7916666666667  C 39.755905511811 19.7916666666667  41.8818897637795 19.7916666666667  41.8818897637795 19.7916666666667  C 41.8818897637795 19.7916666666667  43.1574803149606 21.0416666666667  43.1574803149606 21.0416666666667  C 43.1574803149606 21.0416666666667  45.2834645669291 20.2083333333333  45.2834645669291 20.2083333333333  C 45.2834645669291 20.2083333333333  45.2834645669291 21.0416666666667  45.2834645669291 21.0416666666667  C 45.2834645669291 21.0416666666667  49.1102362204724 18.125  49.1102362204724 18.125  C 49.1102362204724 18.125  51.6614173228346 18.9583333333333  51.6614173228346 18.9583333333333  C 51.6614173228346 18.9583333333333  52.0866141732283 19.7916666666667  52.0866141732283 19.7916666666667  C 52.0866141732283 19.7916666666667  49.5354330708661 21.4583333333333  49.5354330708661 21.4583333333333  C 49.5354330708661 21.4583333333333  49.9606299212598 22.7083333333333  49.9606299212598 22.7083333333333  C 49.9606299212598 22.7083333333333  53.3622047244095 23.9583333333333  53.3622047244095 23.9583333333333  C 53.3622047244095 23.9583333333333  52.9370078740157 24.7916666666667  52.9370078740157 24.7916666666667  C 52.9370078740157 24.7916666666667  53.7874015748031 25.625  53.7874015748031 25.625  C 53.7874015748031 25.625  46.9842519685039 26.4583333333333  46.9842519685039 26.4583333333333  C 46.9842519685039 26.4583333333333  50.8110236220472 33.5416666666667  50.8110236220472 33.5416666666667  C 50.8110236220472 33.5416666666667  51.6614173228346 38.5416666666667  51.6614173228346 38.5416666666667  C 51.6614173228346 38.5416666666667  49.9606299212598 38.5416666666667  49.9606299212598 38.5416666666667  C 49.9606299212598 38.5416666666667  50.3858267716535 42.7083333333333  50.3858267716535 42.7083333333333  C 50.3858267716535 42.7083333333333  47.8346456692913 43.5416666666667  47.8346456692913 43.5416666666667  C 47.8346456692913 43.5416666666667  47.8346456692913 41.875  47.8346456692913 41.875  C 47.8346456692913 41.875  46.9842519685039 41.875  46.9842519685039 41.875  C 46.9842519685039 41.875  46.9842519685039 43.5416666666667  46.9842519685039 43.5416666666667  C 46.9842519685039 43.5416666666667  43.5826771653543 43.9583333333333  43.5826771653543 43.9583333333333  C 43.5826771653543 43.9583333333333  44.4330708661417 44.375  44.4330708661417 44.375  C 44.4330708661417 44.375  44.8582677165354 52.7083333333333  44.8582677165354 52.7083333333333  C 44.8582677165354 52.7083333333333  41.0314960629921 52.7083333333333  41.0314960629921 52.7083333333333  C 41.0314960629921 52.7083333333333  39.755905511811 53.5416666666667  39.755905511811 53.5416666666667  C 39.755905511811 53.5416666666667  40.1811023622047 53.9583333333333  40.1811023622047 53.9583333333333  C 40.1811023622047 53.9583333333333  38.4803149606299 54.7916666666667  38.4803149606299 54.7916666666667  C 38.4803149606299 54.7916666666667  38.4803149606299 52.7083333333333  38.4803149606299 52.7083333333333  C 38.4803149606299 52.7083333333333  33.8031496062992 52.7083333333333  33.8031496062992 52.7083333333333  Z " fill-rule="evenodd" />
    </mask>
  </defs>
  <g transform="matrix(1 0 0 1 -148 -827 )">
    <path d="M 33.8031496062992 52.7083333333333  C 33.8031496062992 52.7083333333333  32.9527559055118 52.7083333333333  32.9527559055118 52.7083333333333  C 32.9527559055118 52.7083333333333  31.6771653543307 52.7083333333333  31.6771653543307 52.7083333333333  C 31.6771653543307 52.7083333333333  31.6771653543307 48.125  31.6771653543307 48.125  C 31.6771653543307 48.125  28.7007874015748 48.9583333333333  28.7007874015748 48.9583333333333  C 28.7007874015748 48.9583333333333  28.2755905511811 48.125  28.2755905511811 48.125  C 28.2755905511811 48.125  24.4488188976378 48.9583333333333  24.4488188976378 48.9583333333333  C 24.4488188976378 48.9583333333333  24.4488188976378 46.875  24.4488188976378 46.875  C 24.4488188976378 46.875  25.7244094488189 46.875  25.7244094488189 46.875  C 25.7244094488189 46.875  25.2992125984252 42.2916666666667  25.2992125984252 42.2916666666667  C 25.2992125984252 42.2916666666667  21.0472440944882 38.125  21.0472440944882 38.125  C 21.0472440944882 38.125  21.0472440944882 35.625  21.0472440944882 35.625  C 21.0472440944882 35.625  19.7716535433071 34.7916666666667  19.7716535433071 34.7916666666667  C 19.7716535433071 34.7916666666667  19.7716535433071 36.0416666666667  19.7716535433071 36.0416666666667  C 19.7716535433071 36.0416666666667  18.9212598425197 36.875  18.9212598425197 36.875  C 18.9212598425197 36.875  18.0708661417323 34.7916666666667  18.0708661417323 34.7916666666667  C 18.0708661417323 34.7916666666667  16.7952755905512 35.625  16.7952755905512 35.625  C 16.7952755905512 35.625  15.5196850393701 33.5416666666667  15.5196850393701 33.5416666666667  C 15.5196850393701 33.5416666666667  17.2204724409449 32.2916666666667  17.2204724409449 32.2916666666667  C 17.2204724409449 32.2916666666667  18.9212598425197 32.2916666666667  18.9212598425197 32.2916666666667  C 18.9212598425197 32.2916666666667  19.3464566929134 31.0416666666667  19.3464566929134 31.0416666666667  C 19.3464566929134 31.0416666666667  16.7952755905512 28.125  16.7952755905512 28.125  C 16.7952755905512 28.125  15.5196850393701 28.125  15.5196850393701 28.125  C 15.5196850393701 28.125  13.8188976377953 26.0416666666667  13.8188976377953 26.0416666666667  C 13.8188976377953 26.0416666666667  11.2677165354331 26.0416666666667  11.2677165354331 26.0416666666667  C 11.2677165354331 26.0416666666667  9.99212598425197 25.2083333333333  9.99212598425197 25.2083333333333  C 9.99212598425197 25.2083333333333  4.46456692913386 25.625  4.46456692913386 25.625  C 4.46456692913386 25.625  2.76377952755906 21.4583333333333  2.76377952755906 21.4583333333333  C 2.76377952755906 21.4583333333333  3.18897637795276 19.7916666666667  3.18897637795276 19.7916666666667  C 3.18897637795276 19.7916666666667  2.33858267716535 17.2916666666667  2.33858267716535 17.2916666666667  C 2.33858267716535 17.2916666666667  0.637795275590551 16.4583333333333  0.637795275590551 16.4583333333333  C 0.637795275590551 16.4583333333333  0.21259842519685 15.2083333333333  0.21259842519685 15.2083333333333  C 0.21259842519685 15.2083333333333  0.21259842519685 13.9583333333333  0.21259842519685 13.9583333333333  C 0.21259842519685 13.9583333333333  1.91338582677165 12.2916666666667  1.91338582677165 12.2916666666667  C 1.91338582677165 12.2916666666667  1.91338582677165 11.4583333333333  1.91338582677165 11.4583333333333  C 1.91338582677165 11.4583333333333  3.18897637795276 11.0416666666667  3.18897637795276 11.0416666666667  C 3.18897637795276 11.0416666666667  3.61417322834646 8.95833333333333  3.61417322834646 8.95833333333333  C 3.61417322834646 8.95833333333333  5.31496062992126 8.125  5.31496062992126 8.125  C 5.31496062992126 8.125  7.01574803149606 7.70833333333333  7.01574803149606 7.70833333333333  C 7.01574803149606 7.70833333333333  8.29133858267716 8.95833333333333  8.29133858267716 8.95833333333333  C 8.29133858267716 8.95833333333333  12.1181102362205 8.95833333333333  12.1181102362205 8.95833333333333  C 12.1181102362205 8.95833333333333  12.9685039370079 7.70833333333333  12.9685039370079 7.70833333333333  C 12.9685039370079 7.70833333333333  18.496062992126 7.29166666666667  18.496062992126 7.29166666666667  C 18.496062992126 7.29166666666667  18.0708661417323 6.45833333333333  18.0708661417323 6.45833333333333  C 18.0708661417323 6.45833333333333  18.9212598425197 6.45833333333333  18.9212598425197 6.45833333333333  C 18.9212598425197 6.45833333333333  18.0708661417323 3.95833333333333  18.0708661417323 3.95833333333333  C 18.0708661417323 3.95833333333333  20.1968503937008 2.70833333333333  20.1968503937008 2.70833333333333  C 20.1968503937008 2.70833333333333  20.6220472440945 0.625  20.6220472440945 0.625  C 20.6220472440945 0.625  21.8976377952756 1.04166666666667  21.8976377952756 1.04166666666667  C 21.8976377952756 1.04166666666667  22.3228346456693 0.208333333333333  22.3228346456693 0.208333333333333  C 22.3228346456693 0.208333333333333  23.5984251968504 0.208333333333333  23.5984251968504 0.208333333333333  C 23.5984251968504 0.208333333333333  24.0236220472441 3.54166666666667  24.0236220472441 3.54166666666667  C 24.0236220472441 3.54166666666667  30.8267716535433 4.79166666666667  30.8267716535433 4.79166666666667  C 30.8267716535433 4.79166666666667  30.8267716535433 8.54166666666667  30.8267716535433 8.54166666666667  C 30.8267716535433 8.54166666666667  29.9763779527559 8.54166666666667  29.9763779527559 8.54166666666667  C 29.9763779527559 8.54166666666667  29.9763779527559 10.625  29.9763779527559 10.625  C 29.9763779527559 10.625  32.1023622047244 11.0416666666667  32.1023622047244 11.0416666666667  C 32.1023622047244 11.0416666666667  32.9527559055118 10.625  32.9527559055118 10.625  C 32.9527559055118 10.625  32.5275590551181 9.79166666666667  32.5275590551181 9.79166666666667  C 32.5275590551181 9.79166666666667  33.3779527559055 10.2083333333333  33.3779527559055 10.2083333333333  C 33.3779527559055 10.2083333333333  33.3779527559055 11.4583333333333  33.3779527559055 11.4583333333333  C 33.3779527559055 11.4583333333333  32.5275590551181 11.875  32.5275590551181 11.875  C 32.5275590551181 11.875  33.8031496062992 13.125  33.8031496062992 13.125  C 33.8031496062992 13.125  35.0787401574803 13.125  35.0787401574803 13.125  C 35.0787401574803 13.125  35.9291338582677 16.0416666666667  35.9291338582677 16.0416666666667  C 35.9291338582677 16.0416666666667  37.6299212598425 15.625  37.6299212598425 15.625  C 37.6299212598425 15.625  39.755905511811 19.7916666666667  39.755905511811 19.7916666666667  C 39.755905511811 19.7916666666667  41.8818897637795 19.7916666666667  41.8818897637795 19.7916666666667  C 41.8818897637795 19.7916666666667  43.1574803149606 21.0416666666667  43.1574803149606 21.0416666666667  C 43.1574803149606 21.0416666666667  45.2834645669291 20.2083333333333  45.2834645669291 20.2083333333333  C 45.2834645669291 20.2083333333333  45.2834645669291 21.0416666666667  45.2834645669291 21.0416666666667  C 45.2834645669291 21.0416666666667  49.1102362204724 18.125  49.1102362204724 18.125  C 49.1102362204724 18.125  51.6614173228346 18.9583333333333  51.6614173228346 18.9583333333333  C 51.6614173228346 18.9583333333333  52.0866141732283 19.7916666666667  52.0866141732283 19.7916666666667  C 52.0866141732283 19.7916666666667  49.5354330708661 21.4583333333333  49.5354330708661 21.4583333333333  C 49.5354330708661 21.4583333333333  49.9606299212598 22.7083333333333  49.9606299212598 22.7083333333333  C 49.9606299212598 22.7083333333333  53.3622047244095 23.9583333333333  53.3622047244095 23.9583333333333  C 53.3622047244095 23.9583333333333  52.9370078740157 24.7916666666667  52.9370078740157 24.7916666666667  C 52.9370078740157 24.7916666666667  53.7874015748031 25.625  53.7874015748031 25.625  C 53.7874015748031 25.625  46.9842519685039 26.4583333333333  46.9842519685039 26.4583333333333  C 46.9842519685039 26.4583333333333  50.8110236220472 33.5416666666667  50.8110236220472 33.5416666666667  C 50.8110236220472 33.5416666666667  51.6614173228346 38.5416666666667  51.6614173228346 38.5416666666667  C 51.6614173228346 38.5416666666667  49.9606299212598 38.5416666666667  49.9606299212598 38.5416666666667  C 49.9606299212598 38.5416666666667  50.3858267716535 42.7083333333333  50.3858267716535 42.7083333333333  C 50.3858267716535 42.7083333333333  47.8346456692913 43.5416666666667  47.8346456692913 43.5416666666667  C 47.8346456692913 43.5416666666667  47.8346456692913 41.875  47.8346456692913 41.875  C 47.8346456692913 41.875  46.9842519685039 41.875  46.9842519685039 41.875  C 46.9842519685039 41.875  46.9842519685039 43.5416666666667  46.9842519685039 43.5416666666667  C 46.9842519685039 43.5416666666667  43.5826771653543 43.9583333333333  43.5826771653543 43.9583333333333  C 43.5826771653543 43.9583333333333  44.4330708661417 44.375  44.4330708661417 44.375  C 44.4330708661417 44.375  44.8582677165354 52.7083333333333  44.8582677165354 52.7083333333333  C 44.8582677165354 52.7083333333333  41.0314960629921 52.7083333333333  41.0314960629921 52.7083333333333  C 41.0314960629921 52.7083333333333  39.755905511811 53.5416666666667  39.755905511811 53.5416666666667  C 39.755905511811 53.5416666666667  40.1811023622047 53.9583333333333  40.1811023622047 53.9583333333333  C 40.1811023622047 53.9583333333333  38.4803149606299 54.7916666666667  38.4803149606299 54.7916666666667  C 38.4803149606299 54.7916666666667  38.4803149606299 52.7083333333333  38.4803149606299 52.7083333333333  C 38.4803149606299 52.7083333333333  33.8031496062992 52.7083333333333  33.8031496062992 52.7083333333333  Z " fill-rule="nonzero" fill="#ffffff" stroke="none" fill-opacity="0" transform="matrix(1 0 0 1 148 827 )" />
    <path d="M 33.8031496062992 52.7083333333333  C 33.8031496062992 52.7083333333333  32.9527559055118 52.7083333333333  32.9527559055118 52.7083333333333  C 32.9527559055118 52.7083333333333  31.6771653543307 52.7083333333333  31.6771653543307 52.7083333333333  C 31.6771653543307 52.7083333333333  31.6771653543307 48.125  31.6771653543307 48.125  C 31.6771653543307 48.125  28.7007874015748 48.9583333333333  28.7007874015748 48.9583333333333  C 28.7007874015748 48.9583333333333  28.2755905511811 48.125  28.2755905511811 48.125  C 28.2755905511811 48.125  24.4488188976378 48.9583333333333  24.4488188976378 48.9583333333333  C 24.4488188976378 48.9583333333333  24.4488188976378 46.875  24.4488188976378 46.875  C 24.4488188976378 46.875  25.7244094488189 46.875  25.7244094488189 46.875  C 25.7244094488189 46.875  25.2992125984252 42.2916666666667  25.2992125984252 42.2916666666667  C 25.2992125984252 42.2916666666667  21.0472440944882 38.125  21.0472440944882 38.125  C 21.0472440944882 38.125  21.0472440944882 35.625  21.0472440944882 35.625  C 21.0472440944882 35.625  19.7716535433071 34.7916666666667  19.7716535433071 34.7916666666667  C 19.7716535433071 34.7916666666667  19.7716535433071 36.0416666666667  19.7716535433071 36.0416666666667  C 19.7716535433071 36.0416666666667  18.9212598425197 36.875  18.9212598425197 36.875  C 18.9212598425197 36.875  18.0708661417323 34.7916666666667  18.0708661417323 34.7916666666667  C 18.0708661417323 34.7916666666667  16.7952755905512 35.625  16.7952755905512 35.625  C 16.7952755905512 35.625  15.5196850393701 33.5416666666667  15.5196850393701 33.5416666666667  C 15.5196850393701 33.5416666666667  17.2204724409449 32.2916666666667  17.2204724409449 32.2916666666667  C 17.2204724409449 32.2916666666667  18.9212598425197 32.2916666666667  18.9212598425197 32.2916666666667  C 18.9212598425197 32.2916666666667  19.3464566929134 31.0416666666667  19.3464566929134 31.0416666666667  C 19.3464566929134 31.0416666666667  16.7952755905512 28.125  16.7952755905512 28.125  C 16.7952755905512 28.125  15.5196850393701 28.125  15.5196850393701 28.125  C 15.5196850393701 28.125  13.8188976377953 26.0416666666667  13.8188976377953 26.0416666666667  C 13.8188976377953 26.0416666666667  11.2677165354331 26.0416666666667  11.2677165354331 26.0416666666667  C 11.2677165354331 26.0416666666667  9.99212598425197 25.2083333333333  9.99212598425197 25.2083333333333  C 9.99212598425197 25.2083333333333  4.46456692913386 25.625  4.46456692913386 25.625  C 4.46456692913386 25.625  2.76377952755906 21.4583333333333  2.76377952755906 21.4583333333333  C 2.76377952755906 21.4583333333333  3.18897637795276 19.7916666666667  3.18897637795276 19.7916666666667  C 3.18897637795276 19.7916666666667  2.33858267716535 17.2916666666667  2.33858267716535 17.2916666666667  C 2.33858267716535 17.2916666666667  0.637795275590551 16.4583333333333  0.637795275590551 16.4583333333333  C 0.637795275590551 16.4583333333333  0.21259842519685 15.2083333333333  0.21259842519685 15.2083333333333  C 0.21259842519685 15.2083333333333  0.21259842519685 13.9583333333333  0.21259842519685 13.9583333333333  C 0.21259842519685 13.9583333333333  1.91338582677165 12.2916666666667  1.91338582677165 12.2916666666667  C 1.91338582677165 12.2916666666667  1.91338582677165 11.4583333333333  1.91338582677165 11.4583333333333  C 1.91338582677165 11.4583333333333  3.18897637795276 11.0416666666667  3.18897637795276 11.0416666666667  C 3.18897637795276 11.0416666666667  3.61417322834646 8.95833333333333  3.61417322834646 8.95833333333333  C 3.61417322834646 8.95833333333333  5.31496062992126 8.125  5.31496062992126 8.125  C 5.31496062992126 8.125  7.01574803149606 7.70833333333333  7.01574803149606 7.70833333333333  C 7.01574803149606 7.70833333333333  8.29133858267716 8.95833333333333  8.29133858267716 8.95833333333333  C 8.29133858267716 8.95833333333333  12.1181102362205 8.95833333333333  12.1181102362205 8.95833333333333  C 12.1181102362205 8.95833333333333  12.9685039370079 7.70833333333333  12.9685039370079 7.70833333333333  C 12.9685039370079 7.70833333333333  18.496062992126 7.29166666666667  18.496062992126 7.29166666666667  C 18.496062992126 7.29166666666667  18.0708661417323 6.45833333333333  18.0708661417323 6.45833333333333  C 18.0708661417323 6.45833333333333  18.9212598425197 6.45833333333333  18.9212598425197 6.45833333333333  C 18.9212598425197 6.45833333333333  18.0708661417323 3.95833333333333  18.0708661417323 3.95833333333333  C 18.0708661417323 3.95833333333333  20.1968503937008 2.70833333333333  20.1968503937008 2.70833333333333  C 20.1968503937008 2.70833333333333  20.6220472440945 0.625  20.6220472440945 0.625  C 20.6220472440945 0.625  21.8976377952756 1.04166666666667  21.8976377952756 1.04166666666667  C 21.8976377952756 1.04166666666667  22.3228346456693 0.208333333333333  22.3228346456693 0.208333333333333  C 22.3228346456693 0.208333333333333  23.5984251968504 0.208333333333333  23.5984251968504 0.208333333333333  C 23.5984251968504 0.208333333333333  24.0236220472441 3.54166666666667  24.0236220472441 3.54166666666667  C 24.0236220472441 3.54166666666667  30.8267716535433 4.79166666666667  30.8267716535433 4.79166666666667  C 30.8267716535433 4.79166666666667  30.8267716535433 8.54166666666667  30.8267716535433 8.54166666666667  C 30.8267716535433 8.54166666666667  29.9763779527559 8.54166666666667  29.9763779527559 8.54166666666667  C 29.9763779527559 8.54166666666667  29.9763779527559 10.625  29.9763779527559 10.625  C 29.9763779527559 10.625  32.1023622047244 11.0416666666667  32.1023622047244 11.0416666666667  C 32.1023622047244 11.0416666666667  32.9527559055118 10.625  32.9527559055118 10.625  C 32.9527559055118 10.625  32.5275590551181 9.79166666666667  32.5275590551181 9.79166666666667  C 32.5275590551181 9.79166666666667  33.3779527559055 10.2083333333333  33.3779527559055 10.2083333333333  C 33.3779527559055 10.2083333333333  33.3779527559055 11.4583333333333  33.3779527559055 11.4583333333333  C 33.3779527559055 11.4583333333333  32.5275590551181 11.875  32.5275590551181 11.875  C 32.5275590551181 11.875  33.8031496062992 13.125  33.8031496062992 13.125  C 33.8031496062992 13.125  35.0787401574803 13.125  35.0787401574803 13.125  C 35.0787401574803 13.125  35.9291338582677 16.0416666666667  35.9291338582677 16.0416666666667  C 35.9291338582677 16.0416666666667  37.6299212598425 15.625  37.6299212598425 15.625  C 37.6299212598425 15.625  39.755905511811 19.7916666666667  39.755905511811 19.7916666666667  C 39.755905511811 19.7916666666667  41.8818897637795 19.7916666666667  41.8818897637795 19.7916666666667  C 41.8818897637795 19.7916666666667  43.1574803149606 21.0416666666667  43.1574803149606 21.0416666666667  C 43.1574803149606 21.0416666666667  45.2834645669291 20.2083333333333  45.2834645669291 20.2083333333333  C 45.2834645669291 20.2083333333333  45.2834645669291 21.0416666666667  45.2834645669291 21.0416666666667  C 45.2834645669291 21.0416666666667  49.1102362204724 18.125  49.1102362204724 18.125  C 49.1102362204724 18.125  51.6614173228346 18.9583333333333  51.6614173228346 18.9583333333333  C 51.6614173228346 18.9583333333333  52.0866141732283 19.7916666666667  52.0866141732283 19.7916666666667  C 52.0866141732283 19.7916666666667  49.5354330708661 21.4583333333333  49.5354330708661 21.4583333333333  C 49.5354330708661 21.4583333333333  49.9606299212598 22.7083333333333  49.9606299212598 22.7083333333333  C 49.9606299212598 22.7083333333333  53.3622047244095 23.9583333333333  53.3622047244095 23.9583333333333  C 53.3622047244095 23.9583333333333  52.9370078740157 24.7916666666667  52.9370078740157 24.7916666666667  C 52.9370078740157 24.7916666666667  53.7874015748031 25.625  53.7874015748031 25.625  C 53.7874015748031 25.625  46.9842519685039 26.4583333333333  46.9842519685039 26.4583333333333  C 46.9842519685039 26.4583333333333  50.8110236220472 33.5416666666667  50.8110236220472 33.5416666666667  C 50.8110236220472 33.5416666666667  51.6614173228346 38.5416666666667  51.6614173228346 38.5416666666667  C 51.6614173228346 38.5416666666667  49.9606299212598 38.5416666666667  49.9606299212598 38.5416666666667  C 49.9606299212598 38.5416666666667  50.3858267716535 42.7083333333333  50.3858267716535 42.7083333333333  C 50.3858267716535 42.7083333333333  47.8346456692913 43.5416666666667  47.8346456692913 43.5416666666667  C 47.8346456692913 43.5416666666667  47.8346456692913 41.875  47.8346456692913 41.875  C 47.8346456692913 41.875  46.9842519685039 41.875  46.9842519685039 41.875  C 46.9842519685039 41.875  46.9842519685039 43.5416666666667  46.9842519685039 43.5416666666667  C 46.9842519685039 43.5416666666667  43.5826771653543 43.9583333333333  43.5826771653543 43.9583333333333  C 43.5826771653543 43.9583333333333  44.4330708661417 44.375  44.4330708661417 44.375  C 44.4330708661417 44.375  44.8582677165354 52.7083333333333  44.8582677165354 52.7083333333333  C 44.8582677165354 52.7083333333333  41.0314960629921 52.7083333333333  41.0314960629921 52.7083333333333  C 41.0314960629921 52.7083333333333  39.755905511811 53.5416666666667  39.755905511811 53.5416666666667  C 39.755905511811 53.5416666666667  40.1811023622047 53.9583333333333  40.1811023622047 53.9583333333333  C 40.1811023622047 53.9583333333333  38.4803149606299 54.7916666666667  38.4803149606299 54.7916666666667  C 38.4803149606299 54.7916666666667  38.4803149606299 52.7083333333333  38.4803149606299 52.7083333333333  C 38.4803149606299 52.7083333333333  33.8031496062992 52.7083333333333  33.8031496062992 52.7083333333333  Z " stroke-width="2" stroke-dasharray="1,1" stroke="#999999" fill="none" transform="matrix(1 0 0 1 148 827 )" mask="url(#clip185)" />
  </g>
</svg>