<?xml version="1.0" encoding="utf-8"?>
<svg version="1.1" xmlns:xlink="http://www.w3.org/1999/xlink" width="81px" height="62px" xmlns="http://www.w3.org/2000/svg">
  <defs>
    <mask fill="white" id="clip189">
      <path d="M 48.5575916230367 57.9657534246575  C 48.5575916230367 57.9657534246575  47.7094240837696 60.513698630137  47.7094240837696 60.513698630137  C 47.7094240837696 60.513698630137  45.1649214659686 60.513698630137  45.1649214659686 60.513698630137  C 45.1649214659686 60.513698630137  43.8926701570681 59.2397260273973  43.8926701570681 59.2397260273973  C 43.8926701570681 59.2397260273973  43.8926701570681 58.3904109589041  43.8926701570681 58.3904109589041  C 43.8926701570681 58.3904109589041  42.6204188481675 57.9657534246575  42.6204188481675 57.9657534246575  C 42.6204188481675 57.9657534246575  41.7722513089005 58.3904109589041  41.7722513089005 58.3904109589041  C 41.7722513089005 58.3904109589041  41.7722513089005 59.2397260273973  41.7722513089005 59.2397260273973  C 41.7722513089005 59.2397260273973  39.2277486910995 58.8150684931507  39.2277486910995 58.8150684931507  C 39.2277486910995 58.8150684931507  39.2277486910995 59.6643835616438  39.2277486910995 59.6643835616438  C 39.2277486910995 59.6643835616438  37.5314136125654 57.9657534246575  37.5314136125654 57.9657534246575  C 37.5314136125654 57.9657534246575  37.1073298429319 59.6643835616438  37.1073298429319 59.6643835616438  C 37.1073298429319 59.6643835616438  34.1387434554974 60.0890410958904  34.1387434554974 60.0890410958904  C 34.1387434554974 60.0890410958904  34.5628272251309 61.7876712328767  34.5628272251309 61.7876712328767  C 34.5628272251309 61.7876712328767  33.7146596858639 60.513698630137  33.7146596858639 60.513698630137  C 33.7146596858639 60.513698630137  31.5942408376963 60.9383561643836  31.5942408376963 60.9383561643836  C 31.5942408376963 60.9383561643836  30.3219895287958 59.2397260273973  30.3219895287958 59.2397260273973  C 30.3219895287958 59.2397260273973  29.4738219895288 59.6643835616438  29.4738219895288 59.6643835616438  C 29.4738219895288 59.6643835616438  28.6256544502618 58.3904109589041  28.6256544502618 58.3904109589041  C 28.6256544502618 58.3904109589041  26.5052356020942 59.6643835616438  26.5052356020942 59.6643835616438  C 26.5052356020942 59.6643835616438  26.0811518324607 58.8150684931507  26.0811518324607 58.8150684931507  C 26.0811518324607 58.8150684931507  23.9607329842932 58.8150684931507  23.9607329842932 58.8150684931507  C 23.9607329842932 58.8150684931507  23.9607329842932 57.9657534246575  23.9607329842932 57.9657534246575  C 23.9607329842932 57.9657534246575  22.2643979057592 57.1164383561644  22.2643979057592 57.1164383561644  C 22.2643979057592 57.1164383561644  21.4162303664921 52.8698630136986  21.4162303664921 52.8698630136986  C 21.4162303664921 52.8698630136986  22.2643979057592 52.4452054794521  22.2643979057592 52.4452054794521  C 22.2643979057592 52.4452054794521  21.4162303664921 44.3767123287671  21.4162303664921 44.3767123287671  C 21.4162303664921 44.3767123287671  20.5680628272251 42.6780821917808  20.5680628272251 42.6780821917808  C 20.5680628272251 42.6780821917808  20.5680628272251 44.8013698630137  20.5680628272251 44.8013698630137  C 20.5680628272251 44.8013698630137  18.0235602094241 45.6506849315068  18.0235602094241 45.6506849315068  C 18.0235602094241 45.6506849315068  17.5994764397906 42.6780821917808  17.5994764397906 42.6780821917808  C 17.5994764397906 42.6780821917808  16.7513089005236 41.8287671232877  16.7513089005236 41.8287671232877  C 16.7513089005236 41.8287671232877  17.5994764397906 48.1986301369863  17.5994764397906 48.1986301369863  C 17.5994764397906 48.1986301369863  13.3586387434555 51.5958904109589  13.3586387434555 51.5958904109589  C 13.3586387434555 51.5958904109589  12.934554973822 50.7465753424658  12.934554973822 50.7465753424658  C 12.934554973822 50.7465753424658  12.086387434555 51.5958904109589  12.086387434555 51.5958904109589  C 12.086387434555 51.5958904109589  9.54188481675393 49.0479452054795  9.54188481675393 49.0479452054795  C 9.54188481675393 49.0479452054795  7.42146596858639 49.472602739726  7.42146596858639 49.472602739726  C 7.42146596858639 49.472602739726  5.30104712041885 47.3493150684932  5.30104712041885 47.3493150684932  C 5.30104712041885 47.3493150684932  3.18062827225131 47.3493150684932  3.18062827225131 47.3493150684932  C 3.18062827225131 47.3493150684932  2.7565445026178 46.5  2.7565445026178 46.5  C 2.7565445026178 46.5  0.212041884816754 45.2260273972603  0.212041884816754 45.2260273972603  C 0.212041884816754 45.2260273972603  0.212041884816754 44.3767123287671  0.212041884816754 44.3767123287671  C 0.212041884816754 44.3767123287671  3.60471204188482 43.1027397260274  3.60471204188482 43.1027397260274  C 3.60471204188482 43.1027397260274  4.45287958115183 40.9794520547945  4.45287958115183 40.9794520547945  C 4.45287958115183 40.9794520547945  3.18062827225131 35.0342465753425  3.18062827225131 35.0342465753425  C 3.18062827225131 35.0342465753425  2.33246073298429 33.7602739726027  2.33246073298429 33.7602739726027  C 2.33246073298429 33.7602739726027  4.02879581151832 33.3356164383562  4.02879581151832 33.3356164383562  C 4.02879581151832 33.3356164383562  4.45287958115183 31.6369863013699  4.45287958115183 31.6369863013699  C 4.45287958115183 31.6369863013699  1.90837696335079 31.2123287671233  1.90837696335079 31.2123287671233  C 1.90837696335079 31.2123287671233  2.33246073298429 28.2397260273973  2.33246073298429 28.2397260273973  C 2.33246073298429 28.2397260273973  4.02879581151832 26.541095890411  4.02879581151832 26.541095890411  C 4.02879581151832 26.541095890411  3.18062827225131 23.5684931506849  3.18062827225131 23.5684931506849  C 3.18062827225131 23.5684931506849  1.06020942408377 21.8698630136986  1.06020942408377 21.8698630136986  C 1.06020942408377 21.8698630136986  1.48429319371728 18.472602739726  1.48429319371728 18.472602739726  C 1.48429319371728 18.472602739726  1.90837696335079 17.6232876712329  1.90837696335079 17.6232876712329  C 1.90837696335079 17.6232876712329  2.7565445026178 17.6232876712329  2.7565445026178 17.6232876712329  C 2.7565445026178 17.6232876712329  2.7565445026178 13.3767123287671  2.7565445026178 13.3767123287671  C 2.7565445026178 13.3767123287671  5.72513089005236 12.1027397260274  5.72513089005236 12.1027397260274  C 5.72513089005236 12.1027397260274  5.72513089005236 10.4041095890411  5.72513089005236 10.4041095890411  C 5.72513089005236 10.4041095890411  10.8141361256544 10.4041095890411  10.8141361256544 10.4041095890411  C 10.8141361256544 10.4041095890411  11.6623036649215 9.13013698630137  11.6623036649215 9.13013698630137  C 11.6623036649215 9.13013698630137  11.238219895288 7.00684931506849  11.238219895288 7.00684931506849  C 11.238219895288 7.00684931506849  13.3586387434555 7.85616438356164  13.3586387434555 7.85616438356164  C 13.3586387434555 7.85616438356164  15.479057591623 7.00684931506849  15.479057591623 7.00684931506849  C 15.479057591623 7.00684931506849  16.3272251308901 8.7054794520548  16.3272251308901 8.7054794520548  C 16.3272251308901 8.7054794520548  19.2958115183246 8.7054794520548  19.2958115183246 8.7054794520548  C 19.2958115183246 8.7054794520548  19.2958115183246 9.55479452054795  19.2958115183246 9.55479452054795  C 19.2958115183246 9.55479452054795  20.9921465968586 9.55479452054795  20.9921465968586 9.55479452054795  C 20.9921465968586 9.55479452054795  21.4162303664921 12.1027397260274  21.4162303664921 12.1027397260274  C 21.4162303664921 12.1027397260274  24.3848167539267 12.527397260274  24.3848167539267 12.527397260274  C 24.3848167539267 12.527397260274  24.3848167539267 10.4041095890411  24.3848167539267 10.4041095890411  C 24.3848167539267 10.4041095890411  27.3534031413613 10.8287671232877  27.3534031413613 10.8287671232877  C 27.3534031413613 10.8287671232877  31.1701570680628 9.97945205479452  31.1701570680628 9.97945205479452  C 31.1701570680628 9.97945205479452  32.0183246073298 13.3767123287671  32.0183246073298 13.3767123287671  C 32.0183246073298 13.3767123287671  31.5942408376963 15.0753424657534  31.5942408376963 15.0753424657534  C 31.5942408376963 15.0753424657534  32.8664921465969 15.0753424657534  32.8664921465969 15.0753424657534  C 32.8664921465969 15.0753424657534  32.8664921465969 15.9246575342466  32.8664921465969 15.9246575342466  C 32.8664921465969 15.9246575342466  33.7146596858639 15.9246575342466  33.7146596858639 15.9246575342466  C 33.7146596858639 15.9246575342466  42.6204188481675 5.73287671232877  42.6204188481675 5.73287671232877  C 42.6204188481675 5.73287671232877  42.6204188481675 6.58219178082192  42.6204188481675 6.58219178082192  C 42.6204188481675 6.58219178082192  46.4371727748691 8.7054794520548  46.4371727748691 8.7054794520548  C 46.4371727748691 8.7054794520548  47.2853403141361 8.28082191780822  47.2853403141361 8.28082191780822  C 47.2853403141361 8.28082191780822  47.7094240837696 9.13013698630137  47.7094240837696 9.13013698630137  C 47.7094240837696 9.13013698630137  49.4057591623037 7.85616438356164  49.4057591623037 7.85616438356164  C 49.4057591623037 7.85616438356164  50.2539267015707 4.45890410958904  50.2539267015707 4.45890410958904  C 50.2539267015707 4.45890410958904  52.3743455497382 4.45890410958904  52.3743455497382 4.45890410958904  C 52.3743455497382 4.45890410958904  54.0706806282723 6.15753424657534  54.0706806282723 6.15753424657534  C 54.0706806282723 6.15753424657534  56.1910994764398 5.30821917808219  56.1910994764398 5.30821917808219  C 56.1910994764398 5.30821917808219  56.1910994764398 2.76027397260274  56.1910994764398 2.76027397260274  C 56.1910994764398 2.76027397260274  57.0392670157068 2.76027397260274  57.0392670157068 2.76027397260274  C 57.0392670157068 2.76027397260274  56.6151832460733 1.48630136986301  56.6151832460733 1.48630136986301  C 56.6151832460733 1.48630136986301  58.3115183246073 0.212328767123288  58.3115183246073 0.212328767123288  C 58.3115183246073 0.212328767123288  59.5837696335078 0.212328767123288  59.5837696335078 0.212328767123288  C 59.5837696335078 0.212328767123288  60.8560209424084 4.03424657534247  60.8560209424084 4.03424657534247  C 60.8560209424084 4.03424657534247  63.4005235602094 4.45890410958904  63.4005235602094 4.45890410958904  C 63.4005235602094 4.45890410958904  64.67277486911 10.8287671232877  64.67277486911 10.8287671232877  C 64.67277486911 10.8287671232877  66.7931937172775 14.6506849315068  66.7931937172775 14.6506849315068  C 66.7931937172775 14.6506849315068  68.065445026178 15.0753424657534  68.065445026178 15.0753424657534  C 68.065445026178 15.0753424657534  66.7931937172775 15.9246575342466  66.7931937172775 15.9246575342466  C 66.7931937172775 15.9246575342466  68.4895287958115 16.7739726027397  68.4895287958115 16.7739726027397  C 68.4895287958115 16.7739726027397  69.761780104712 18.472602739726  69.761780104712 18.472602739726  C 69.761780104712 18.472602739726  71.0340314136126 18.472602739726  71.0340314136126 18.472602739726  C 71.0340314136126 18.472602739726  72.3062827225131 16.3493150684932  72.3062827225131 16.3493150684932  C 72.3062827225131 16.3493150684932  74.0026178010471 18.0479452054795  74.0026178010471 18.0479452054795  C 74.0026178010471 18.0479452054795  73.5785340314136 20.5958904109589  73.5785340314136 20.5958904109589  C 73.5785340314136 20.5958904109589  72.3062827225131 20.1712328767123  72.3062827225131 20.1712328767123  C 72.3062827225131 20.1712328767123  72.3062827225131 21.4452054794521  72.3062827225131 21.4452054794521  C 72.3062827225131 21.4452054794521  73.5785340314136 24.4178082191781  73.5785340314136 24.4178082191781  C 73.5785340314136 24.4178082191781  74.8507853403141 23.9931506849315  74.8507853403141 23.9931506849315  C 74.8507853403141 23.9931506849315  74.8507853403141 26.541095890411  74.8507853403141 26.541095890411  C 74.8507853403141 26.541095890411  75.6989528795811 27.8150684931507  75.6989528795811 27.8150684931507  C 75.6989528795811 27.8150684931507  77.3952879581152 27.8150684931507  77.3952879581152 27.8150684931507  C 77.3952879581152 27.8150684931507  76.9712041884817 28.2397260273973  76.9712041884817 28.2397260273973  C 76.9712041884817 28.2397260273973  79.5157068062827 32.9109589041096  79.5157068062827 32.9109589041096  C 79.5157068062827 32.9109589041096  78.2434554973822 35.0342465753425  78.2434554973822 35.0342465753425  C 78.2434554973822 35.0342465753425  77.8193717277487 37.5821917808219  77.8193717277487 37.5821917808219  C 77.8193717277487 37.5821917808219  78.6675392670157 38.4315068493151  78.6675392670157 38.4315068493151  C 78.6675392670157 38.4315068493151  78.2434554973822 39.7054794520548  78.2434554973822 39.7054794520548  C 78.2434554973822 39.7054794520548  79.5157068062827 40.9794520547945  79.5157068062827 40.9794520547945  C 79.5157068062827 40.9794520547945  79.0916230366492 42.6780821917808  79.0916230366492 42.6780821917808  C 79.0916230366492 42.6780821917808  78.2434554973822 43.1027397260274  78.2434554973822 43.1027397260274  C 78.2434554973822 43.1027397260274  79.0916230366492 44.3767123287671  79.0916230366492 44.3767123287671  C 79.0916230366492 44.3767123287671  79.9397905759162 44.3767123287671  79.9397905759162 44.3767123287671  C 79.9397905759162 44.3767123287671  80.7879581151832 47.7739726027397  80.7879581151832 47.7739726027397  C 80.7879581151832 47.7739726027397  79.9397905759162 50.3219178082192  79.9397905759162 50.3219178082192  C 79.9397905759162 50.3219178082192  77.3952879581152 50.7465753424658  77.3952879581152 50.7465753424658  C 77.3952879581152 50.7465753424658  77.3952879581152 53.2945205479452  77.3952879581152 53.2945205479452  C 77.3952879581152 53.2945205479452  74.4267015706806 54.9931506849315  74.4267015706806 54.9931506849315  C 74.4267015706806 54.9931506849315  74.4267015706806 53.7191780821918  74.4267015706806 53.7191780821918  C 74.4267015706806 53.7191780821918  73.5785340314136 54.1438356164384  73.5785340314136 54.1438356164384  C 73.5785340314136 54.1438356164384  73.5785340314136 53.2945205479452  73.5785340314136 53.2945205479452  C 73.5785340314136 53.2945205479452  71.8821989528796 52.4452054794521  71.8821989528796 52.4452054794521  C 71.8821989528796 52.4452054794521  71.4581151832461 54.1438356164384  71.4581151832461 54.1438356164384  C 71.4581151832461 54.1438356164384  70.6099476439791 54.5684931506849  70.6099476439791 54.5684931506849  C 70.6099476439791 54.5684931506849  69.761780104712 52.8698630136986  69.761780104712 52.8698630136986  C 69.761780104712 52.8698630136986  63.4005235602094 54.9931506849315  63.4005235602094 54.9931506849315  C 63.4005235602094 54.9931506849315  62.5523560209424 54.9931506849315  62.5523560209424 54.9931506849315  C 62.5523560209424 54.9931506849315  61.2801047120419 52.8698630136986  61.2801047120419 52.8698630136986  C 61.2801047120419 52.8698630136986  60.0078534031414 52.4452054794521  60.0078534031414 52.4452054794521  C 60.0078534031414 52.4452054794521  55.7670157068063 54.1438356164384  55.7670157068063 54.1438356164384  C 55.7670157068063 54.1438356164384  55.3429319371728 57.9657534246575  55.3429319371728 57.9657534246575  C 55.3429319371728 57.9657534246575  54.4947643979058 57.1164383561644  54.4947643979058 57.1164383561644  C 54.4947643979058 57.1164383561644  52.3743455497382 57.541095890411  52.3743455497382 57.541095890411  C 52.3743455497382 57.541095890411  49.4057591623037 56.6917808219178  49.4057591623037 56.6917808219178  C 49.4057591623037 56.6917808219178  48.5575916230367 57.9657534246575  48.5575916230367 57.9657534246575  Z " fill-rule="evenodd" />
    </mask>
  </defs>
  <g transform="matrix(1 0 0 1 -212 -798 )">
    <path d="M 48.5575916230367 57.9657534246575  C 48.5575916230367 57.9657534246575  47.7094240837696 60.513698630137  47.7094240837696 60.513698630137  C 47.7094240837696 60.513698630137  45.1649214659686 60.513698630137  45.1649214659686 60.513698630137  C 45.1649214659686 60.513698630137  43.8926701570681 59.2397260273973  43.8926701570681 59.2397260273973  C 43.8926701570681 59.2397260273973  43.8926701570681 58.3904109589041  43.8926701570681 58.3904109589041  C 43.8926701570681 58.3904109589041  42.6204188481675 57.9657534246575  42.6204188481675 57.9657534246575  C 42.6204188481675 57.9657534246575  41.7722513089005 58.3904109589041  41.7722513089005 58.3904109589041  C 41.7722513089005 58.3904109589041  41.7722513089005 59.2397260273973  41.7722513089005 59.2397260273973  C 41.7722513089005 59.2397260273973  39.2277486910995 58.8150684931507  39.2277486910995 58.8150684931507  C 39.2277486910995 58.8150684931507  39.2277486910995 59.6643835616438  39.2277486910995 59.6643835616438  C 39.2277486910995 59.6643835616438  37.5314136125654 57.9657534246575  37.5314136125654 57.9657534246575  C 37.5314136125654 57.9657534246575  37.1073298429319 59.6643835616438  37.1073298429319 59.6643835616438  C 37.1073298429319 59.6643835616438  34.1387434554974 60.0890410958904  34.1387434554974 60.0890410958904  C 34.1387434554974 60.0890410958904  34.5628272251309 61.7876712328767  34.5628272251309 61.7876712328767  C 34.5628272251309 61.7876712328767  33.7146596858639 60.513698630137  33.7146596858639 60.513698630137  C 33.7146596858639 60.513698630137  31.5942408376963 60.9383561643836  31.5942408376963 60.9383561643836  C 31.5942408376963 60.9383561643836  30.3219895287958 59.2397260273973  30.3219895287958 59.2397260273973  C 30.3219895287958 59.2397260273973  29.4738219895288 59.6643835616438  29.4738219895288 59.6643835616438  C 29.4738219895288 59.6643835616438  28.6256544502618 58.3904109589041  28.6256544502618 58.3904109589041  C 28.6256544502618 58.3904109589041  26.5052356020942 59.6643835616438  26.5052356020942 59.6643835616438  C 26.5052356020942 59.6643835616438  26.0811518324607 58.8150684931507  26.0811518324607 58.8150684931507  C 26.0811518324607 58.8150684931507  23.9607329842932 58.8150684931507  23.9607329842932 58.8150684931507  C 23.9607329842932 58.8150684931507  23.9607329842932 57.9657534246575  23.9607329842932 57.9657534246575  C 23.9607329842932 57.9657534246575  22.2643979057592 57.1164383561644  22.2643979057592 57.1164383561644  C 22.2643979057592 57.1164383561644  21.4162303664921 52.8698630136986  21.4162303664921 52.8698630136986  C 21.4162303664921 52.8698630136986  22.2643979057592 52.4452054794521  22.2643979057592 52.4452054794521  C 22.2643979057592 52.4452054794521  21.4162303664921 44.3767123287671  21.4162303664921 44.3767123287671  C 21.4162303664921 44.3767123287671  20.5680628272251 42.6780821917808  20.5680628272251 42.6780821917808  C 20.5680628272251 42.6780821917808  20.5680628272251 44.8013698630137  20.5680628272251 44.8013698630137  C 20.5680628272251 44.8013698630137  18.0235602094241 45.6506849315068  18.0235602094241 45.6506849315068  C 18.0235602094241 45.6506849315068  17.5994764397906 42.6780821917808  17.5994764397906 42.6780821917808  C 17.5994764397906 42.6780821917808  16.7513089005236 41.8287671232877  16.7513089005236 41.8287671232877  C 16.7513089005236 41.8287671232877  17.5994764397906 48.1986301369863  17.5994764397906 48.1986301369863  C 17.5994764397906 48.1986301369863  13.3586387434555 51.5958904109589  13.3586387434555 51.5958904109589  C 13.3586387434555 51.5958904109589  12.934554973822 50.7465753424658  12.934554973822 50.7465753424658  C 12.934554973822 50.7465753424658  12.086387434555 51.5958904109589  12.086387434555 51.5958904109589  C 12.086387434555 51.5958904109589  9.54188481675393 49.0479452054795  9.54188481675393 49.0479452054795  C 9.54188481675393 49.0479452054795  7.42146596858639 49.472602739726  7.42146596858639 49.472602739726  C 7.42146596858639 49.472602739726  5.30104712041885 47.3493150684932  5.30104712041885 47.3493150684932  C 5.30104712041885 47.3493150684932  3.18062827225131 47.3493150684932  3.18062827225131 47.3493150684932  C 3.18062827225131 47.3493150684932  2.7565445026178 46.5  2.7565445026178 46.5  C 2.7565445026178 46.5  0.212041884816754 45.2260273972603  0.212041884816754 45.2260273972603  C 0.212041884816754 45.2260273972603  0.212041884816754 44.3767123287671  0.212041884816754 44.3767123287671  C 0.212041884816754 44.3767123287671  3.60471204188482 43.1027397260274  3.60471204188482 43.1027397260274  C 3.60471204188482 43.1027397260274  4.45287958115183 40.9794520547945  4.45287958115183 40.9794520547945  C 4.45287958115183 40.9794520547945  3.18062827225131 35.0342465753425  3.18062827225131 35.0342465753425  C 3.18062827225131 35.0342465753425  2.33246073298429 33.7602739726027  2.33246073298429 33.7602739726027  C 2.33246073298429 33.7602739726027  4.02879581151832 33.3356164383562  4.02879581151832 33.3356164383562  C 4.02879581151832 33.3356164383562  4.45287958115183 31.6369863013699  4.45287958115183 31.6369863013699  C 4.45287958115183 31.6369863013699  1.90837696335079 31.2123287671233  1.90837696335079 31.2123287671233  C 1.90837696335079 31.2123287671233  2.33246073298429 28.2397260273973  2.33246073298429 28.2397260273973  C 2.33246073298429 28.2397260273973  4.02879581151832 26.541095890411  4.02879581151832 26.541095890411  C 4.02879581151832 26.541095890411  3.18062827225131 23.5684931506849  3.18062827225131 23.5684931506849  C 3.18062827225131 23.5684931506849  1.06020942408377 21.8698630136986  1.06020942408377 21.8698630136986  C 1.06020942408377 21.8698630136986  1.48429319371728 18.472602739726  1.48429319371728 18.472602739726  C 1.48429319371728 18.472602739726  1.90837696335079 17.6232876712329  1.90837696335079 17.6232876712329  C 1.90837696335079 17.6232876712329  2.7565445026178 17.6232876712329  2.7565445026178 17.6232876712329  C 2.7565445026178 17.6232876712329  2.7565445026178 13.3767123287671  2.7565445026178 13.3767123287671  C 2.7565445026178 13.3767123287671  5.72513089005236 12.1027397260274  5.72513089005236 12.1027397260274  C 5.72513089005236 12.1027397260274  5.72513089005236 10.4041095890411  5.72513089005236 10.4041095890411  C 5.72513089005236 10.4041095890411  10.8141361256544 10.4041095890411  10.8141361256544 10.4041095890411  C 10.8141361256544 10.4041095890411  11.6623036649215 9.13013698630137  11.6623036649215 9.13013698630137  C 11.6623036649215 9.13013698630137  11.238219895288 7.00684931506849  11.238219895288 7.00684931506849  C 11.238219895288 7.00684931506849  13.3586387434555 7.85616438356164  13.3586387434555 7.85616438356164  C 13.3586387434555 7.85616438356164  15.479057591623 7.00684931506849  15.479057591623 7.00684931506849  C 15.479057591623 7.00684931506849  16.3272251308901 8.7054794520548  16.3272251308901 8.7054794520548  C 16.3272251308901 8.7054794520548  19.2958115183246 8.7054794520548  19.2958115183246 8.7054794520548  C 19.2958115183246 8.7054794520548  19.2958115183246 9.55479452054795  19.2958115183246 9.55479452054795  C 19.2958115183246 9.55479452054795  20.9921465968586 9.55479452054795  20.9921465968586 9.55479452054795  C 20.9921465968586 9.55479452054795  21.4162303664921 12.1027397260274  21.4162303664921 12.1027397260274  C 21.4162303664921 12.1027397260274  24.3848167539267 12.527397260274  24.3848167539267 12.527397260274  C 24.3848167539267 12.527397260274  24.3848167539267 10.4041095890411  24.3848167539267 10.4041095890411  C 24.3848167539267 10.4041095890411  27.3534031413613 10.8287671232877  27.3534031413613 10.8287671232877  C 27.3534031413613 10.8287671232877  31.1701570680628 9.97945205479452  31.1701570680628 9.97945205479452  C 31.1701570680628 9.97945205479452  32.0183246073298 13.3767123287671  32.0183246073298 13.3767123287671  C 32.0183246073298 13.3767123287671  31.5942408376963 15.0753424657534  31.5942408376963 15.0753424657534  C 31.5942408376963 15.0753424657534  32.8664921465969 15.0753424657534  32.8664921465969 15.0753424657534  C 32.8664921465969 15.0753424657534  32.8664921465969 15.9246575342466  32.8664921465969 15.9246575342466  C 32.8664921465969 15.9246575342466  33.7146596858639 15.9246575342466  33.7146596858639 15.9246575342466  C 33.7146596858639 15.9246575342466  42.6204188481675 5.73287671232877  42.6204188481675 5.73287671232877  C 42.6204188481675 5.73287671232877  42.6204188481675 6.58219178082192  42.6204188481675 6.58219178082192  C 42.6204188481675 6.58219178082192  46.4371727748691 8.7054794520548  46.4371727748691 8.7054794520548  C 46.4371727748691 8.7054794520548  47.2853403141361 8.28082191780822  47.2853403141361 8.28082191780822  C 47.2853403141361 8.28082191780822  47.7094240837696 9.13013698630137  47.7094240837696 9.13013698630137  C 47.7094240837696 9.13013698630137  49.4057591623037 7.85616438356164  49.4057591623037 7.85616438356164  C 49.4057591623037 7.85616438356164  50.2539267015707 4.45890410958904  50.2539267015707 4.45890410958904  C 50.2539267015707 4.45890410958904  52.3743455497382 4.45890410958904  52.3743455497382 4.45890410958904  C 52.3743455497382 4.45890410958904  54.0706806282723 6.15753424657534  54.0706806282723 6.15753424657534  C 54.0706806282723 6.15753424657534  56.1910994764398 5.30821917808219  56.1910994764398 5.30821917808219  C 56.1910994764398 5.30821917808219  56.1910994764398 2.76027397260274  56.1910994764398 2.76027397260274  C 56.1910994764398 2.76027397260274  57.0392670157068 2.76027397260274  57.0392670157068 2.76027397260274  C 57.0392670157068 2.76027397260274  56.6151832460733 1.48630136986301  56.6151832460733 1.48630136986301  C 56.6151832460733 1.48630136986301  58.3115183246073 0.212328767123288  58.3115183246073 0.212328767123288  C 58.3115183246073 0.212328767123288  59.5837696335078 0.212328767123288  59.5837696335078 0.212328767123288  C 59.5837696335078 0.212328767123288  60.8560209424084 4.03424657534247  60.8560209424084 4.03424657534247  C 60.8560209424084 4.03424657534247  63.4005235602094 4.45890410958904  63.4005235602094 4.45890410958904  C 63.4005235602094 4.45890410958904  64.67277486911 10.8287671232877  64.67277486911 10.8287671232877  C 64.67277486911 10.8287671232877  66.7931937172775 14.6506849315068  66.7931937172775 14.6506849315068  C 66.7931937172775 14.6506849315068  68.065445026178 15.0753424657534  68.065445026178 15.0753424657534  C 68.065445026178 15.0753424657534  66.7931937172775 15.9246575342466  66.7931937172775 15.9246575342466  C 66.7931937172775 15.9246575342466  68.4895287958115 16.7739726027397  68.4895287958115 16.7739726027397  C 68.4895287958115 16.7739726027397  69.761780104712 18.472602739726  69.761780104712 18.472602739726  C 69.761780104712 18.472602739726  71.0340314136126 18.472602739726  71.0340314136126 18.472602739726  C 71.0340314136126 18.472602739726  72.3062827225131 16.3493150684932  72.3062827225131 16.3493150684932  C 72.3062827225131 16.3493150684932  74.0026178010471 18.0479452054795  74.0026178010471 18.0479452054795  C 74.0026178010471 18.0479452054795  73.5785340314136 20.5958904109589  73.5785340314136 20.5958904109589  C 73.5785340314136 20.5958904109589  72.3062827225131 20.1712328767123  72.3062827225131 20.1712328767123  C 72.3062827225131 20.1712328767123  72.3062827225131 21.4452054794521  72.3062827225131 21.4452054794521  C 72.3062827225131 21.4452054794521  73.5785340314136 24.4178082191781  73.5785340314136 24.4178082191781  C 73.5785340314136 24.4178082191781  74.8507853403141 23.9931506849315  74.8507853403141 23.9931506849315  C 74.8507853403141 23.9931506849315  74.8507853403141 26.541095890411  74.8507853403141 26.541095890411  C 74.8507853403141 26.541095890411  75.6989528795811 27.8150684931507  75.6989528795811 27.8150684931507  C 75.6989528795811 27.8150684931507  77.3952879581152 27.8150684931507  77.3952879581152 27.8150684931507  C 77.3952879581152 27.8150684931507  76.9712041884817 28.2397260273973  76.9712041884817 28.2397260273973  C 76.9712041884817 28.2397260273973  79.5157068062827 32.9109589041096  79.5157068062827 32.9109589041096  C 79.5157068062827 32.9109589041096  78.2434554973822 35.0342465753425  78.2434554973822 35.0342465753425  C 78.2434554973822 35.0342465753425  77.8193717277487 37.5821917808219  77.8193717277487 37.5821917808219  C 77.8193717277487 37.5821917808219  78.6675392670157 38.4315068493151  78.6675392670157 38.4315068493151  C 78.6675392670157 38.4315068493151  78.2434554973822 39.7054794520548  78.2434554973822 39.7054794520548  C 78.2434554973822 39.7054794520548  79.5157068062827 40.9794520547945  79.5157068062827 40.9794520547945  C 79.5157068062827 40.9794520547945  79.0916230366492 42.6780821917808  79.0916230366492 42.6780821917808  C 79.0916230366492 42.6780821917808  78.2434554973822 43.1027397260274  78.2434554973822 43.1027397260274  C 78.2434554973822 43.1027397260274  79.0916230366492 44.3767123287671  79.0916230366492 44.3767123287671  C 79.0916230366492 44.3767123287671  79.9397905759162 44.3767123287671  79.9397905759162 44.3767123287671  C 79.9397905759162 44.3767123287671  80.7879581151832 47.7739726027397  80.7879581151832 47.7739726027397  C 80.7879581151832 47.7739726027397  79.9397905759162 50.3219178082192  79.9397905759162 50.3219178082192  C 79.9397905759162 50.3219178082192  77.3952879581152 50.7465753424658  77.3952879581152 50.7465753424658  C 77.3952879581152 50.7465753424658  77.3952879581152 53.2945205479452  77.3952879581152 53.2945205479452  C 77.3952879581152 53.2945205479452  74.4267015706806 54.9931506849315  74.4267015706806 54.9931506849315  C 74.4267015706806 54.9931506849315  74.4267015706806 53.7191780821918  74.4267015706806 53.7191780821918  C 74.4267015706806 53.7191780821918  73.5785340314136 54.1438356164384  73.5785340314136 54.1438356164384  C 73.5785340314136 54.1438356164384  73.5785340314136 53.2945205479452  73.5785340314136 53.2945205479452  C 73.5785340314136 53.2945205479452  71.8821989528796 52.4452054794521  71.8821989528796 52.4452054794521  C 71.8821989528796 52.4452054794521  71.4581151832461 54.1438356164384  71.4581151832461 54.1438356164384  C 71.4581151832461 54.1438356164384  70.6099476439791 54.5684931506849  70.6099476439791 54.5684931506849  C 70.6099476439791 54.5684931506849  69.761780104712 52.8698630136986  69.761780104712 52.8698630136986  C 69.761780104712 52.8698630136986  63.4005235602094 54.9931506849315  63.4005235602094 54.9931506849315  C 63.4005235602094 54.9931506849315  62.5523560209424 54.9931506849315  62.5523560209424 54.9931506849315  C 62.5523560209424 54.9931506849315  61.2801047120419 52.8698630136986  61.2801047120419 52.8698630136986  C 61.2801047120419 52.8698630136986  60.0078534031414 52.4452054794521  60.0078534031414 52.4452054794521  C 60.0078534031414 52.4452054794521  55.7670157068063 54.1438356164384  55.7670157068063 54.1438356164384  C 55.7670157068063 54.1438356164384  55.3429319371728 57.9657534246575  55.3429319371728 57.9657534246575  C 55.3429319371728 57.9657534246575  54.4947643979058 57.1164383561644  54.4947643979058 57.1164383561644  C 54.4947643979058 57.1164383561644  52.3743455497382 57.541095890411  52.3743455497382 57.541095890411  C 52.3743455497382 57.541095890411  49.4057591623037 56.6917808219178  49.4057591623037 56.6917808219178  C 49.4057591623037 56.6917808219178  48.5575916230367 57.9657534246575  48.5575916230367 57.9657534246575  Z " fill-rule="nonzero" fill="#ffffff" stroke="none" fill-opacity="0" transform="matrix(1 0 0 1 212 798 )" />
    <path d="M 48.5575916230367 57.9657534246575  C 48.5575916230367 57.9657534246575  47.7094240837696 60.513698630137  47.7094240837696 60.513698630137  C 47.7094240837696 60.513698630137  45.1649214659686 60.513698630137  45.1649214659686 60.513698630137  C 45.1649214659686 60.513698630137  43.8926701570681 59.2397260273973  43.8926701570681 59.2397260273973  C 43.8926701570681 59.2397260273973  43.8926701570681 58.3904109589041  43.8926701570681 58.3904109589041  C 43.8926701570681 58.3904109589041  42.6204188481675 57.9657534246575  42.6204188481675 57.9657534246575  C 42.6204188481675 57.9657534246575  41.7722513089005 58.3904109589041  41.7722513089005 58.3904109589041  C 41.7722513089005 58.3904109589041  41.7722513089005 59.2397260273973  41.7722513089005 59.2397260273973  C 41.7722513089005 59.2397260273973  39.2277486910995 58.8150684931507  39.2277486910995 58.8150684931507  C 39.2277486910995 58.8150684931507  39.2277486910995 59.6643835616438  39.2277486910995 59.6643835616438  C 39.2277486910995 59.6643835616438  37.5314136125654 57.9657534246575  37.5314136125654 57.9657534246575  C 37.5314136125654 57.9657534246575  37.1073298429319 59.6643835616438  37.1073298429319 59.6643835616438  C 37.1073298429319 59.6643835616438  34.1387434554974 60.0890410958904  34.1387434554974 60.0890410958904  C 34.1387434554974 60.0890410958904  34.5628272251309 61.7876712328767  34.5628272251309 61.7876712328767  C 34.5628272251309 61.7876712328767  33.7146596858639 60.513698630137  33.7146596858639 60.513698630137  C 33.7146596858639 60.513698630137  31.5942408376963 60.9383561643836  31.5942408376963 60.9383561643836  C 31.5942408376963 60.9383561643836  30.3219895287958 59.2397260273973  30.3219895287958 59.2397260273973  C 30.3219895287958 59.2397260273973  29.4738219895288 59.6643835616438  29.4738219895288 59.6643835616438  C 29.4738219895288 59.6643835616438  28.6256544502618 58.3904109589041  28.6256544502618 58.3904109589041  C 28.6256544502618 58.3904109589041  26.5052356020942 59.6643835616438  26.5052356020942 59.6643835616438  C 26.5052356020942 59.6643835616438  26.0811518324607 58.8150684931507  26.0811518324607 58.8150684931507  C 26.0811518324607 58.8150684931507  23.9607329842932 58.8150684931507  23.9607329842932 58.8150684931507  C 23.9607329842932 58.8150684931507  23.9607329842932 57.9657534246575  23.9607329842932 57.9657534246575  C 23.9607329842932 57.9657534246575  22.2643979057592 57.1164383561644  22.2643979057592 57.1164383561644  C 22.2643979057592 57.1164383561644  21.4162303664921 52.8698630136986  21.4162303664921 52.8698630136986  C 21.4162303664921 52.8698630136986  22.2643979057592 52.4452054794521  22.2643979057592 52.4452054794521  C 22.2643979057592 52.4452054794521  21.4162303664921 44.3767123287671  21.4162303664921 44.3767123287671  C 21.4162303664921 44.3767123287671  20.5680628272251 42.6780821917808  20.5680628272251 42.6780821917808  C 20.5680628272251 42.6780821917808  20.5680628272251 44.8013698630137  20.5680628272251 44.8013698630137  C 20.5680628272251 44.8013698630137  18.0235602094241 45.6506849315068  18.0235602094241 45.6506849315068  C 18.0235602094241 45.6506849315068  17.5994764397906 42.6780821917808  17.5994764397906 42.6780821917808  C 17.5994764397906 42.6780821917808  16.7513089005236 41.8287671232877  16.7513089005236 41.8287671232877  C 16.7513089005236 41.8287671232877  17.5994764397906 48.1986301369863  17.5994764397906 48.1986301369863  C 17.5994764397906 48.1986301369863  13.3586387434555 51.5958904109589  13.3586387434555 51.5958904109589  C 13.3586387434555 51.5958904109589  12.934554973822 50.7465753424658  12.934554973822 50.7465753424658  C 12.934554973822 50.7465753424658  12.086387434555 51.5958904109589  12.086387434555 51.5958904109589  C 12.086387434555 51.5958904109589  9.54188481675393 49.0479452054795  9.54188481675393 49.0479452054795  C 9.54188481675393 49.0479452054795  7.42146596858639 49.472602739726  7.42146596858639 49.472602739726  C 7.42146596858639 49.472602739726  5.30104712041885 47.3493150684932  5.30104712041885 47.3493150684932  C 5.30104712041885 47.3493150684932  3.18062827225131 47.3493150684932  3.18062827225131 47.3493150684932  C 3.18062827225131 47.3493150684932  2.7565445026178 46.5  2.7565445026178 46.5  C 2.7565445026178 46.5  0.212041884816754 45.2260273972603  0.212041884816754 45.2260273972603  C 0.212041884816754 45.2260273972603  0.212041884816754 44.3767123287671  0.212041884816754 44.3767123287671  C 0.212041884816754 44.3767123287671  3.60471204188482 43.1027397260274  3.60471204188482 43.1027397260274  C 3.60471204188482 43.1027397260274  4.45287958115183 40.9794520547945  4.45287958115183 40.9794520547945  C 4.45287958115183 40.9794520547945  3.18062827225131 35.0342465753425  3.18062827225131 35.0342465753425  C 3.18062827225131 35.0342465753425  2.33246073298429 33.7602739726027  2.33246073298429 33.7602739726027  C 2.33246073298429 33.7602739726027  4.02879581151832 33.3356164383562  4.02879581151832 33.3356164383562  C 4.02879581151832 33.3356164383562  4.45287958115183 31.6369863013699  4.45287958115183 31.6369863013699  C 4.45287958115183 31.6369863013699  1.90837696335079 31.2123287671233  1.90837696335079 31.2123287671233  C 1.90837696335079 31.2123287671233  2.33246073298429 28.2397260273973  2.33246073298429 28.2397260273973  C 2.33246073298429 28.2397260273973  4.02879581151832 26.541095890411  4.02879581151832 26.541095890411  C 4.02879581151832 26.541095890411  3.18062827225131 23.5684931506849  3.18062827225131 23.5684931506849  C 3.18062827225131 23.5684931506849  1.06020942408377 21.8698630136986  1.06020942408377 21.8698630136986  C 1.06020942408377 21.8698630136986  1.48429319371728 18.472602739726  1.48429319371728 18.472602739726  C 1.48429319371728 18.472602739726  1.90837696335079 17.6232876712329  1.90837696335079 17.6232876712329  C 1.90837696335079 17.6232876712329  2.7565445026178 17.6232876712329  2.7565445026178 17.6232876712329  C 2.7565445026178 17.6232876712329  2.7565445026178 13.3767123287671  2.7565445026178 13.3767123287671  C 2.7565445026178 13.3767123287671  5.72513089005236 12.1027397260274  5.72513089005236 12.1027397260274  C 5.72513089005236 12.1027397260274  5.72513089005236 10.4041095890411  5.72513089005236 10.4041095890411  C 5.72513089005236 10.4041095890411  10.8141361256544 10.4041095890411  10.8141361256544 10.4041095890411  C 10.8141361256544 10.4041095890411  11.6623036649215 9.13013698630137  11.6623036649215 9.13013698630137  C 11.6623036649215 9.13013698630137  11.238219895288 7.00684931506849  11.238219895288 7.00684931506849  C 11.238219895288 7.00684931506849  13.3586387434555 7.85616438356164  13.3586387434555 7.85616438356164  C 13.3586387434555 7.85616438356164  15.479057591623 7.00684931506849  15.479057591623 7.00684931506849  C 15.479057591623 7.00684931506849  16.3272251308901 8.7054794520548  16.3272251308901 8.7054794520548  C 16.3272251308901 8.7054794520548  19.2958115183246 8.7054794520548  19.2958115183246 8.7054794520548  C 19.2958115183246 8.7054794520548  19.2958115183246 9.55479452054795  19.2958115183246 9.55479452054795  C 19.2958115183246 9.55479452054795  20.9921465968586 9.55479452054795  20.9921465968586 9.55479452054795  C 20.9921465968586 9.55479452054795  21.4162303664921 12.1027397260274  21.4162303664921 12.1027397260274  C 21.4162303664921 12.1027397260274  24.3848167539267 12.527397260274  24.3848167539267 12.527397260274  C 24.3848167539267 12.527397260274  24.3848167539267 10.4041095890411  24.3848167539267 10.4041095890411  C 24.3848167539267 10.4041095890411  27.3534031413613 10.8287671232877  27.3534031413613 10.8287671232877  C 27.3534031413613 10.8287671232877  31.1701570680628 9.97945205479452  31.1701570680628 9.97945205479452  C 31.1701570680628 9.97945205479452  32.0183246073298 13.3767123287671  32.0183246073298 13.3767123287671  C 32.0183246073298 13.3767123287671  31.5942408376963 15.0753424657534  31.5942408376963 15.0753424657534  C 31.5942408376963 15.0753424657534  32.8664921465969 15.0753424657534  32.8664921465969 15.0753424657534  C 32.8664921465969 15.0753424657534  32.8664921465969 15.9246575342466  32.8664921465969 15.9246575342466  C 32.8664921465969 15.9246575342466  33.7146596858639 15.9246575342466  33.7146596858639 15.9246575342466  C 33.7146596858639 15.9246575342466  42.6204188481675 5.73287671232877  42.6204188481675 5.73287671232877  C 42.6204188481675 5.73287671232877  42.6204188481675 6.58219178082192  42.6204188481675 6.58219178082192  C 42.6204188481675 6.58219178082192  46.4371727748691 8.7054794520548  46.4371727748691 8.7054794520548  C 46.4371727748691 8.7054794520548  47.2853403141361 8.28082191780822  47.2853403141361 8.28082191780822  C 47.2853403141361 8.28082191780822  47.7094240837696 9.13013698630137  47.7094240837696 9.13013698630137  C 47.7094240837696 9.13013698630137  49.4057591623037 7.85616438356164  49.4057591623037 7.85616438356164  C 49.4057591623037 7.85616438356164  50.2539267015707 4.45890410958904  50.2539267015707 4.45890410958904  C 50.2539267015707 4.45890410958904  52.3743455497382 4.45890410958904  52.3743455497382 4.45890410958904  C 52.3743455497382 4.45890410958904  54.0706806282723 6.15753424657534  54.0706806282723 6.15753424657534  C 54.0706806282723 6.15753424657534  56.1910994764398 5.30821917808219  56.1910994764398 5.30821917808219  C 56.1910994764398 5.30821917808219  56.1910994764398 2.76027397260274  56.1910994764398 2.76027397260274  C 56.1910994764398 2.76027397260274  57.0392670157068 2.76027397260274  57.0392670157068 2.76027397260274  C 57.0392670157068 2.76027397260274  56.6151832460733 1.48630136986301  56.6151832460733 1.48630136986301  C 56.6151832460733 1.48630136986301  58.3115183246073 0.212328767123288  58.3115183246073 0.212328767123288  C 58.3115183246073 0.212328767123288  59.5837696335078 0.212328767123288  59.5837696335078 0.212328767123288  C 59.5837696335078 0.212328767123288  60.8560209424084 4.03424657534247  60.8560209424084 4.03424657534247  C 60.8560209424084 4.03424657534247  63.4005235602094 4.45890410958904  63.4005235602094 4.45890410958904  C 63.4005235602094 4.45890410958904  64.67277486911 10.8287671232877  64.67277486911 10.8287671232877  C 64.67277486911 10.8287671232877  66.7931937172775 14.6506849315068  66.7931937172775 14.6506849315068  C 66.7931937172775 14.6506849315068  68.065445026178 15.0753424657534  68.065445026178 15.0753424657534  C 68.065445026178 15.0753424657534  66.7931937172775 15.9246575342466  66.7931937172775 15.9246575342466  C 66.7931937172775 15.9246575342466  68.4895287958115 16.7739726027397  68.4895287958115 16.7739726027397  C 68.4895287958115 16.7739726027397  69.761780104712 18.472602739726  69.761780104712 18.472602739726  C 69.761780104712 18.472602739726  71.0340314136126 18.472602739726  71.0340314136126 18.472602739726  C 71.0340314136126 18.472602739726  72.3062827225131 16.3493150684932  72.3062827225131 16.3493150684932  C 72.3062827225131 16.3493150684932  74.0026178010471 18.0479452054795  74.0026178010471 18.0479452054795  C 74.0026178010471 18.0479452054795  73.5785340314136 20.5958904109589  73.5785340314136 20.5958904109589  C 73.5785340314136 20.5958904109589  72.3062827225131 20.1712328767123  72.3062827225131 20.1712328767123  C 72.3062827225131 20.1712328767123  72.3062827225131 21.4452054794521  72.3062827225131 21.4452054794521  C 72.3062827225131 21.4452054794521  73.5785340314136 24.4178082191781  73.5785340314136 24.4178082191781  C 73.5785340314136 24.4178082191781  74.8507853403141 23.9931506849315  74.8507853403141 23.9931506849315  C 74.8507853403141 23.9931506849315  74.8507853403141 26.541095890411  74.8507853403141 26.541095890411  C 74.8507853403141 26.541095890411  75.6989528795811 27.8150684931507  75.6989528795811 27.8150684931507  C 75.6989528795811 27.8150684931507  77.3952879581152 27.8150684931507  77.3952879581152 27.8150684931507  C 77.3952879581152 27.8150684931507  76.9712041884817 28.2397260273973  76.9712041884817 28.2397260273973  C 76.9712041884817 28.2397260273973  79.5157068062827 32.9109589041096  79.5157068062827 32.9109589041096  C 79.5157068062827 32.9109589041096  78.2434554973822 35.0342465753425  78.2434554973822 35.0342465753425  C 78.2434554973822 35.0342465753425  77.8193717277487 37.5821917808219  77.8193717277487 37.5821917808219  C 77.8193717277487 37.5821917808219  78.6675392670157 38.4315068493151  78.6675392670157 38.4315068493151  C 78.6675392670157 38.4315068493151  78.2434554973822 39.7054794520548  78.2434554973822 39.7054794520548  C 78.2434554973822 39.7054794520548  79.5157068062827 40.9794520547945  79.5157068062827 40.9794520547945  C 79.5157068062827 40.9794520547945  79.0916230366492 42.6780821917808  79.0916230366492 42.6780821917808  C 79.0916230366492 42.6780821917808  78.2434554973822 43.1027397260274  78.2434554973822 43.1027397260274  C 78.2434554973822 43.1027397260274  79.0916230366492 44.3767123287671  79.0916230366492 44.3767123287671  C 79.0916230366492 44.3767123287671  79.9397905759162 44.3767123287671  79.9397905759162 44.3767123287671  C 79.9397905759162 44.3767123287671  80.7879581151832 47.7739726027397  80.7879581151832 47.7739726027397  C 80.7879581151832 47.7739726027397  79.9397905759162 50.3219178082192  79.9397905759162 50.3219178082192  C 79.9397905759162 50.3219178082192  77.3952879581152 50.7465753424658  77.3952879581152 50.7465753424658  C 77.3952879581152 50.7465753424658  77.3952879581152 53.2945205479452  77.3952879581152 53.2945205479452  C 77.3952879581152 53.2945205479452  74.4267015706806 54.9931506849315  74.4267015706806 54.9931506849315  C 74.4267015706806 54.9931506849315  74.4267015706806 53.7191780821918  74.4267015706806 53.7191780821918  C 74.4267015706806 53.7191780821918  73.5785340314136 54.1438356164384  73.5785340314136 54.1438356164384  C 73.5785340314136 54.1438356164384  73.5785340314136 53.2945205479452  73.5785340314136 53.2945205479452  C 73.5785340314136 53.2945205479452  71.8821989528796 52.4452054794521  71.8821989528796 52.4452054794521  C 71.8821989528796 52.4452054794521  71.4581151832461 54.1438356164384  71.4581151832461 54.1438356164384  C 71.4581151832461 54.1438356164384  70.6099476439791 54.5684931506849  70.6099476439791 54.5684931506849  C 70.6099476439791 54.5684931506849  69.761780104712 52.8698630136986  69.761780104712 52.8698630136986  C 69.761780104712 52.8698630136986  63.4005235602094 54.9931506849315  63.4005235602094 54.9931506849315  C 63.4005235602094 54.9931506849315  62.5523560209424 54.9931506849315  62.5523560209424 54.9931506849315  C 62.5523560209424 54.9931506849315  61.2801047120419 52.8698630136986  61.2801047120419 52.8698630136986  C 61.2801047120419 52.8698630136986  60.0078534031414 52.4452054794521  60.0078534031414 52.4452054794521  C 60.0078534031414 52.4452054794521  55.7670157068063 54.1438356164384  55.7670157068063 54.1438356164384  C 55.7670157068063 54.1438356164384  55.3429319371728 57.9657534246575  55.3429319371728 57.9657534246575  C 55.3429319371728 57.9657534246575  54.4947643979058 57.1164383561644  54.4947643979058 57.1164383561644  C 54.4947643979058 57.1164383561644  52.3743455497382 57.541095890411  52.3743455497382 57.541095890411  C 52.3743455497382 57.541095890411  49.4057591623037 56.6917808219178  49.4057591623037 56.6917808219178  C 49.4057591623037 56.6917808219178  48.5575916230367 57.9657534246575  48.5575916230367 57.9657534246575  Z " stroke-width="2" stroke-dasharray="1,1" stroke="#999999" fill="none" transform="matrix(1 0 0 1 212 798 )" mask="url(#clip189)" />
  </g>
</svg>