<?xml version="1.0" encoding="utf-8"?>
<svg version="1.1" xmlns:xlink="http://www.w3.org/1999/xlink" width="11px" height="12px" xmlns="http://www.w3.org/2000/svg">
  <defs>
    <mask fill="white" id="clip190">
      <path d="M 1.1 3.4  C 1.1 3.4  5.94 0.2  5.94 0.2  C 5.94 0.2  6.38 1.8  6.38 1.8  C 6.38 1.8  6.38 0.6  6.38 0.6  C 6.38 0.6  7.26 0.6  7.26 0.6  C 7.26 0.6  7.26 5  7.26 5  C 7.26 5  8.14 5  8.14 5  C 8.14 5  7.7 6.6  7.7 6.6  C 7.7 6.6  9.46 7  9.46 7  C 9.46 7  9.02 4.6  9.02 4.6  C 9.02 4.6  9.9 4.6  9.9 4.6  C 9.9 4.6  10.78 9  10.78 9  C 10.78 9  9.46 11.4  9.46 11.4  C 9.46 11.4  8.58 11.8  8.58 11.8  C 8.58 11.8  5.94 9.8  5.94 9.8  C 5.94 9.8  5.94 8.6  5.94 8.6  C 5.94 8.6  4.18 9  4.18 9  C 4.18 9  3.3 7.4  3.3 7.4  C 3.3 7.4  0.22 5.4  0.22 5.4  C 0.22 5.4  1.54 4.2  1.54 4.2  C 1.54 4.2  1.1 3.4  1.1 3.4  Z " fill-rule="evenodd" />
    </mask>
  </defs>
  <g transform="matrix(1 0 0 1 -224 -845 )">
    <path d="M 1.1 3.4  C 1.1 3.4  5.94 0.2  5.94 0.2  C 5.94 0.2  6.38 1.8  6.38 1.8  C 6.38 1.8  6.38 0.6  6.38 0.6  C 6.38 0.6  7.26 0.6  7.26 0.6  C 7.26 0.6  7.26 5  7.26 5  C 7.26 5  8.14 5  8.14 5  C 8.14 5  7.7 6.6  7.7 6.6  C 7.7 6.6  9.46 7  9.46 7  C 9.46 7  9.02 4.6  9.02 4.6  C 9.02 4.6  9.9 4.6  9.9 4.6  C 9.9 4.6  10.78 9  10.78 9  C 10.78 9  9.46 11.4  9.46 11.4  C 9.46 11.4  8.58 11.8  8.58 11.8  C 8.58 11.8  5.94 9.8  5.94 9.8  C 5.94 9.8  5.94 8.6  5.94 8.6  C 5.94 8.6  4.18 9  4.18 9  C 4.18 9  3.3 7.4  3.3 7.4  C 3.3 7.4  0.22 5.4  0.22 5.4  C 0.22 5.4  1.54 4.2  1.54 4.2  C 1.54 4.2  1.1 3.4  1.1 3.4  Z " fill-rule="nonzero" fill="#ffffff" stroke="none" fill-opacity="0" transform="matrix(1 0 0 1 224 845 )" />
    <path d="M 1.1 3.4  C 1.1 3.4  5.94 0.2  5.94 0.2  C 5.94 0.2  6.38 1.8  6.38 1.8  C 6.38 1.8  6.38 0.6  6.38 0.6  C 6.38 0.6  7.26 0.6  7.26 0.6  C 7.26 0.6  7.26 5  7.26 5  C 7.26 5  8.14 5  8.14 5  C 8.14 5  7.7 6.6  7.7 6.6  C 7.7 6.6  9.46 7  9.46 7  C 9.46 7  9.02 4.6  9.02 4.6  C 9.02 4.6  9.9 4.6  9.9 4.6  C 9.9 4.6  10.78 9  10.78 9  C 10.78 9  9.46 11.4  9.46 11.4  C 9.46 11.4  8.58 11.8  8.58 11.8  C 8.58 11.8  5.94 9.8  5.94 9.8  C 5.94 9.8  5.94 8.6  5.94 8.6  C 5.94 8.6  4.18 9  4.18 9  C 4.18 9  3.3 7.4  3.3 7.4  C 3.3 7.4  0.22 5.4  0.22 5.4  C 0.22 5.4  1.54 4.2  1.54 4.2  C 1.54 4.2  1.1 3.4  1.1 3.4  Z " stroke-width="2" stroke-dasharray="1,1" stroke="#999999" fill="none" transform="matrix(1 0 0 1 224 845 )" mask="url(#clip190)" />
  </g>
</svg>