<?xml version="1.0" encoding="utf-8"?>
<svg version="1.1" xmlns:xlink="http://www.w3.org/1999/xlink" width="11px" height="25px" xmlns="http://www.w3.org/2000/svg">
  <defs>
    <mask fill="white" id="clip22">
      <path d="M 1.01851851851852 4.16666666666667  C 1.01851851851852 4.16666666666667  1.01851851851852 3.28947368421053  1.01851851851852 3.28947368421053  C 1.01851851851852 3.28947368421053  4.27777777777778 2.85087719298246  4.27777777777778 2.85087719298246  C 4.27777777777778 2.85087719298246  4.27777777777778 0.219298245614035  4.27777777777778 0.219298245614035  C 4.27777777777778 0.219298245614035  4.68518518518519 2.41228070175439  4.68518518518519 2.41228070175439  C 4.68518518518519 2.41228070175439  7.12962962962963 2.85087719298246  7.12962962962963 2.85087719298246  C 7.12962962962963 2.85087719298246  7.94444444444444 3.7280701754386  7.94444444444444 3.7280701754386  C 7.94444444444444 3.7280701754386  7.94444444444444 5.48245614035088  7.94444444444444 5.48245614035088  C 7.94444444444444 5.48245614035088  9.57407407407407 5.48245614035088  9.57407407407407 5.48245614035088  C 9.57407407407407 5.48245614035088  9.57407407407407 6.35964912280702  9.57407407407407 6.35964912280702  C 9.57407407407407 6.35964912280702  10.3888888888889 6.35964912280702  10.3888888888889 6.35964912280702  C 10.3888888888889 6.35964912280702  9.98148148148148 9.86842105263158  9.98148148148148 9.86842105263158  C 9.98148148148148 9.86842105263158  8.35185185185185 9.86842105263158  8.35185185185185 9.86842105263158  C 8.35185185185185 9.86842105263158  8.75925925925926 16.0087719298246  8.75925925925926 16.0087719298246  C 8.75925925925926 16.0087719298246  10.7962962962963 15.5701754385965  10.7962962962963 15.5701754385965  C 10.7962962962963 15.5701754385965  10.7962962962963 18.2017543859649  10.7962962962963 18.2017543859649  C 10.7962962962963 18.2017543859649  9.98148148148148 18.2017543859649  9.98148148148148 18.2017543859649  C 9.98148148148148 18.2017543859649  9.98148148148148 22.1491228070175  9.98148148148148 22.1491228070175  C 9.98148148148148 22.1491228070175  5.09259259259259 22.1491228070175  5.09259259259259 22.1491228070175  C 5.09259259259259 22.1491228070175  5.90740740740741 23.9035087719298  5.90740740740741 23.9035087719298  C 5.90740740740741 23.9035087719298  4.68518518518519 24.780701754386  4.68518518518519 24.780701754386  C 4.68518518518519 24.780701754386  2.24074074074074 24.780701754386  2.24074074074074 24.780701754386  C 2.24074074074074 24.780701754386  1.42592592592593 23.0263157894737  1.42592592592593 23.0263157894737  C 1.42592592592593 23.0263157894737  0.203703703703704 23.4649122807018  0.203703703703704 23.4649122807018  C 0.203703703703704 23.4649122807018  0.203703703703704 22.1491228070175  0.203703703703704 22.1491228070175  C 0.203703703703704 22.1491228070175  3.05555555555556 22.1491228070175  3.05555555555556 22.1491228070175  C 3.05555555555556 22.1491228070175  1.83333333333333 11.1842105263158  1.83333333333333 11.1842105263158  C 1.83333333333333 11.1842105263158  3.05555555555556 10.7456140350877  3.05555555555556 10.7456140350877  C 3.05555555555556 10.7456140350877  2.24074074074074 3.7280701754386  2.24074074074074 3.7280701754386  C 2.24074074074074 3.7280701754386  1.01851851851852 4.16666666666667  1.01851851851852 4.16666666666667  Z " fill-rule="evenodd" />
    </mask>
  </defs>
  <g transform="matrix(1 0 0 1 -199 -864 )">
    <path d="M 1.01851851851852 4.16666666666667  C 1.01851851851852 4.16666666666667  1.01851851851852 3.28947368421053  1.01851851851852 3.28947368421053  C 1.01851851851852 3.28947368421053  4.27777777777778 2.85087719298246  4.27777777777778 2.85087719298246  C 4.27777777777778 2.85087719298246  4.27777777777778 0.219298245614035  4.27777777777778 0.219298245614035  C 4.27777777777778 0.219298245614035  4.68518518518519 2.41228070175439  4.68518518518519 2.41228070175439  C 4.68518518518519 2.41228070175439  7.12962962962963 2.85087719298246  7.12962962962963 2.85087719298246  C 7.12962962962963 2.85087719298246  7.94444444444444 3.7280701754386  7.94444444444444 3.7280701754386  C 7.94444444444444 3.7280701754386  7.94444444444444 5.48245614035088  7.94444444444444 5.48245614035088  C 7.94444444444444 5.48245614035088  9.57407407407407 5.48245614035088  9.57407407407407 5.48245614035088  C 9.57407407407407 5.48245614035088  9.57407407407407 6.35964912280702  9.57407407407407 6.35964912280702  C 9.57407407407407 6.35964912280702  10.3888888888889 6.35964912280702  10.3888888888889 6.35964912280702  C 10.3888888888889 6.35964912280702  9.98148148148148 9.86842105263158  9.98148148148148 9.86842105263158  C 9.98148148148148 9.86842105263158  8.35185185185185 9.86842105263158  8.35185185185185 9.86842105263158  C 8.35185185185185 9.86842105263158  8.75925925925926 16.0087719298246  8.75925925925926 16.0087719298246  C 8.75925925925926 16.0087719298246  10.7962962962963 15.5701754385965  10.7962962962963 15.5701754385965  C 10.7962962962963 15.5701754385965  10.7962962962963 18.2017543859649  10.7962962962963 18.2017543859649  C 10.7962962962963 18.2017543859649  9.98148148148148 18.2017543859649  9.98148148148148 18.2017543859649  C 9.98148148148148 18.2017543859649  9.98148148148148 22.1491228070175  9.98148148148148 22.1491228070175  C 9.98148148148148 22.1491228070175  5.09259259259259 22.1491228070175  5.09259259259259 22.1491228070175  C 5.09259259259259 22.1491228070175  5.90740740740741 23.9035087719298  5.90740740740741 23.9035087719298  C 5.90740740740741 23.9035087719298  4.68518518518519 24.780701754386  4.68518518518519 24.780701754386  C 4.68518518518519 24.780701754386  2.24074074074074 24.780701754386  2.24074074074074 24.780701754386  C 2.24074074074074 24.780701754386  1.42592592592593 23.0263157894737  1.42592592592593 23.0263157894737  C 1.42592592592593 23.0263157894737  0.203703703703704 23.4649122807018  0.203703703703704 23.4649122807018  C 0.203703703703704 23.4649122807018  0.203703703703704 22.1491228070175  0.203703703703704 22.1491228070175  C 0.203703703703704 22.1491228070175  3.05555555555556 22.1491228070175  3.05555555555556 22.1491228070175  C 3.05555555555556 22.1491228070175  1.83333333333333 11.1842105263158  1.83333333333333 11.1842105263158  C 1.83333333333333 11.1842105263158  3.05555555555556 10.7456140350877  3.05555555555556 10.7456140350877  C 3.05555555555556 10.7456140350877  2.24074074074074 3.7280701754386  2.24074074074074 3.7280701754386  C 2.24074074074074 3.7280701754386  1.01851851851852 4.16666666666667  1.01851851851852 4.16666666666667  Z " fill-rule="nonzero" fill="#ffffff" stroke="none" fill-opacity="0" transform="matrix(1 0 0 1 199 864 )" />
    <path d="M 1.01851851851852 4.16666666666667  C 1.01851851851852 4.16666666666667  1.01851851851852 3.28947368421053  1.01851851851852 3.28947368421053  C 1.01851851851852 3.28947368421053  4.27777777777778 2.85087719298246  4.27777777777778 2.85087719298246  C 4.27777777777778 2.85087719298246  4.27777777777778 0.219298245614035  4.27777777777778 0.219298245614035  C 4.27777777777778 0.219298245614035  4.68518518518519 2.41228070175439  4.68518518518519 2.41228070175439  C 4.68518518518519 2.41228070175439  7.12962962962963 2.85087719298246  7.12962962962963 2.85087719298246  C 7.12962962962963 2.85087719298246  7.94444444444444 3.7280701754386  7.94444444444444 3.7280701754386  C 7.94444444444444 3.7280701754386  7.94444444444444 5.48245614035088  7.94444444444444 5.48245614035088  C 7.94444444444444 5.48245614035088  9.57407407407407 5.48245614035088  9.57407407407407 5.48245614035088  C 9.57407407407407 5.48245614035088  9.57407407407407 6.35964912280702  9.57407407407407 6.35964912280702  C 9.57407407407407 6.35964912280702  10.3888888888889 6.35964912280702  10.3888888888889 6.35964912280702  C 10.3888888888889 6.35964912280702  9.98148148148148 9.86842105263158  9.98148148148148 9.86842105263158  C 9.98148148148148 9.86842105263158  8.35185185185185 9.86842105263158  8.35185185185185 9.86842105263158  C 8.35185185185185 9.86842105263158  8.75925925925926 16.0087719298246  8.75925925925926 16.0087719298246  C 8.75925925925926 16.0087719298246  10.7962962962963 15.5701754385965  10.7962962962963 15.5701754385965  C 10.7962962962963 15.5701754385965  10.7962962962963 18.2017543859649  10.7962962962963 18.2017543859649  C 10.7962962962963 18.2017543859649  9.98148148148148 18.2017543859649  9.98148148148148 18.2017543859649  C 9.98148148148148 18.2017543859649  9.98148148148148 22.1491228070175  9.98148148148148 22.1491228070175  C 9.98148148148148 22.1491228070175  5.09259259259259 22.1491228070175  5.09259259259259 22.1491228070175  C 5.09259259259259 22.1491228070175  5.90740740740741 23.9035087719298  5.90740740740741 23.9035087719298  C 5.90740740740741 23.9035087719298  4.68518518518519 24.780701754386  4.68518518518519 24.780701754386  C 4.68518518518519 24.780701754386  2.24074074074074 24.780701754386  2.24074074074074 24.780701754386  C 2.24074074074074 24.780701754386  1.42592592592593 23.0263157894737  1.42592592592593 23.0263157894737  C 1.42592592592593 23.0263157894737  0.203703703703704 23.4649122807018  0.203703703703704 23.4649122807018  C 0.203703703703704 23.4649122807018  0.203703703703704 22.1491228070175  0.203703703703704 22.1491228070175  C 0.203703703703704 22.1491228070175  3.05555555555556 22.1491228070175  3.05555555555556 22.1491228070175  C 3.05555555555556 22.1491228070175  1.83333333333333 11.1842105263158  1.83333333333333 11.1842105263158  C 1.83333333333333 11.1842105263158  3.05555555555556 10.7456140350877  3.05555555555556 10.7456140350877  C 3.05555555555556 10.7456140350877  2.24074074074074 3.7280701754386  2.24074074074074 3.7280701754386  C 2.24074074074074 3.7280701754386  1.01851851851852 4.16666666666667  1.01851851851852 4.16666666666667  Z " stroke-width="2" stroke-dasharray="1,1" stroke="#999999" fill="none" transform="matrix(1 0 0 1 199 864 )" mask="url(#clip22)" />
  </g>
</svg>