<?xml version="1.0" encoding="utf-8"?>
<svg version="1.1" xmlns:xlink="http://www.w3.org/1999/xlink" width="13px" height="22px" xmlns="http://www.w3.org/2000/svg">
  <defs>
    <mask fill="white" id="clip23">
      <path d="M 9.85483870967742 1.07843137254902  C 9.85483870967742 1.07843137254902  9.85483870967742 0.215686274509804  9.85483870967742 0.215686274509804  C 9.85483870967742 0.215686274509804  11.9516129032258 0.215686274509804  11.9516129032258 0.215686274509804  C 11.9516129032258 0.215686274509804  11.9516129032258 1.07843137254902  11.9516129032258 1.07843137254902  C 11.9516129032258 1.07843137254902  11.1129032258065 1.07843137254902  11.1129032258065 1.07843137254902  C 11.1129032258065 1.07843137254902  10.6935483870968 3.66666666666667  10.6935483870968 3.66666666666667  C 10.6935483870968 3.66666666666667  11.9516129032258 3.23529411764706  11.9516129032258 3.23529411764706  C 11.9516129032258 3.23529411764706  12.7903225806452 10.1372549019608  12.7903225806452 10.1372549019608  C 12.7903225806452 10.1372549019608  11.5322580645161 10.5686274509804  11.5322580645161 10.5686274509804  C 11.5322580645161 10.5686274509804  11.5322580645161 14.0196078431373  11.5322580645161 14.0196078431373  C 11.5322580645161 14.0196078431373  12.3709677419355 15.7450980392157  12.3709677419355 15.7450980392157  C 12.3709677419355 15.7450980392157  12.7903225806452 21.3529411764706  12.7903225806452 21.3529411764706  C 12.7903225806452 21.3529411764706  4.82258064516129 21.7843137254902  4.82258064516129 21.7843137254902  C 4.82258064516129 21.7843137254902  4.82258064516129 20.921568627451  4.82258064516129 20.921568627451  C 4.82258064516129 20.921568627451  3.56451612903226 20.4901960784314  3.56451612903226 20.4901960784314  C 3.56451612903226 20.4901960784314  0.209677419354839 20.4901960784314  0.209677419354839 20.4901960784314  C 0.209677419354839 20.4901960784314  1.04838709677419 16.1764705882353  1.04838709677419 16.1764705882353  C 1.04838709677419 16.1764705882353  2.7258064516129 16.1764705882353  2.7258064516129 16.1764705882353  C 2.7258064516129 16.1764705882353  2.30645161290323 7.11764705882353  2.30645161290323 7.11764705882353  C 2.30645161290323 7.11764705882353  1.46774193548387 6.68627450980392  1.46774193548387 6.68627450980392  C 1.46774193548387 6.68627450980392  4.82258064516129 6.25490196078431  4.82258064516129 6.25490196078431  C 4.82258064516129 6.25490196078431  4.82258064516129 4.52941176470588  4.82258064516129 4.52941176470588  C 4.82258064516129 4.52941176470588  5.66129032258065 4.52941176470588  5.66129032258065 4.52941176470588  C 5.66129032258065 4.52941176470588  5.66129032258065 6.25490196078431  5.66129032258065 6.25490196078431  C 5.66129032258065 6.25490196078431  8.59677419354839 5.3921568627451  8.59677419354839 5.3921568627451  C 8.59677419354839 5.3921568627451  8.17741935483871 1.07843137254902  8.17741935483871 1.07843137254902  C 8.17741935483871 1.07843137254902  9.85483870967742 1.07843137254902  9.85483870967742 1.07843137254902  Z " fill-rule="evenodd" />
    </mask>
  </defs>
  <g transform="matrix(1 0 0 1 -190 -865 )">
    <path d="M 9.85483870967742 1.07843137254902  C 9.85483870967742 1.07843137254902  9.85483870967742 0.215686274509804  9.85483870967742 0.215686274509804  C 9.85483870967742 0.215686274509804  11.9516129032258 0.215686274509804  11.9516129032258 0.215686274509804  C 11.9516129032258 0.215686274509804  11.9516129032258 1.07843137254902  11.9516129032258 1.07843137254902  C 11.9516129032258 1.07843137254902  11.1129032258065 1.07843137254902  11.1129032258065 1.07843137254902  C 11.1129032258065 1.07843137254902  10.6935483870968 3.66666666666667  10.6935483870968 3.66666666666667  C 10.6935483870968 3.66666666666667  11.9516129032258 3.23529411764706  11.9516129032258 3.23529411764706  C 11.9516129032258 3.23529411764706  12.7903225806452 10.1372549019608  12.7903225806452 10.1372549019608  C 12.7903225806452 10.1372549019608  11.5322580645161 10.5686274509804  11.5322580645161 10.5686274509804  C 11.5322580645161 10.5686274509804  11.5322580645161 14.0196078431373  11.5322580645161 14.0196078431373  C 11.5322580645161 14.0196078431373  12.3709677419355 15.7450980392157  12.3709677419355 15.7450980392157  C 12.3709677419355 15.7450980392157  12.7903225806452 21.3529411764706  12.7903225806452 21.3529411764706  C 12.7903225806452 21.3529411764706  4.82258064516129 21.7843137254902  4.82258064516129 21.7843137254902  C 4.82258064516129 21.7843137254902  4.82258064516129 20.921568627451  4.82258064516129 20.921568627451  C 4.82258064516129 20.921568627451  3.56451612903226 20.4901960784314  3.56451612903226 20.4901960784314  C 3.56451612903226 20.4901960784314  0.209677419354839 20.4901960784314  0.209677419354839 20.4901960784314  C 0.209677419354839 20.4901960784314  1.04838709677419 16.1764705882353  1.04838709677419 16.1764705882353  C 1.04838709677419 16.1764705882353  2.7258064516129 16.1764705882353  2.7258064516129 16.1764705882353  C 2.7258064516129 16.1764705882353  2.30645161290323 7.11764705882353  2.30645161290323 7.11764705882353  C 2.30645161290323 7.11764705882353  1.46774193548387 6.68627450980392  1.46774193548387 6.68627450980392  C 1.46774193548387 6.68627450980392  4.82258064516129 6.25490196078431  4.82258064516129 6.25490196078431  C 4.82258064516129 6.25490196078431  4.82258064516129 4.52941176470588  4.82258064516129 4.52941176470588  C 4.82258064516129 4.52941176470588  5.66129032258065 4.52941176470588  5.66129032258065 4.52941176470588  C 5.66129032258065 4.52941176470588  5.66129032258065 6.25490196078431  5.66129032258065 6.25490196078431  C 5.66129032258065 6.25490196078431  8.59677419354839 5.3921568627451  8.59677419354839 5.3921568627451  C 8.59677419354839 5.3921568627451  8.17741935483871 1.07843137254902  8.17741935483871 1.07843137254902  C 8.17741935483871 1.07843137254902  9.85483870967742 1.07843137254902  9.85483870967742 1.07843137254902  Z " fill-rule="nonzero" fill="#ffffff" stroke="none" fill-opacity="0" transform="matrix(1 0 0 1 190 865 )" />
    <path d="M 9.85483870967742 1.07843137254902  C 9.85483870967742 1.07843137254902  9.85483870967742 0.215686274509804  9.85483870967742 0.215686274509804  C 9.85483870967742 0.215686274509804  11.9516129032258 0.215686274509804  11.9516129032258 0.215686274509804  C 11.9516129032258 0.215686274509804  11.9516129032258 1.07843137254902  11.9516129032258 1.07843137254902  C 11.9516129032258 1.07843137254902  11.1129032258065 1.07843137254902  11.1129032258065 1.07843137254902  C 11.1129032258065 1.07843137254902  10.6935483870968 3.66666666666667  10.6935483870968 3.66666666666667  C 10.6935483870968 3.66666666666667  11.9516129032258 3.23529411764706  11.9516129032258 3.23529411764706  C 11.9516129032258 3.23529411764706  12.7903225806452 10.1372549019608  12.7903225806452 10.1372549019608  C 12.7903225806452 10.1372549019608  11.5322580645161 10.5686274509804  11.5322580645161 10.5686274509804  C 11.5322580645161 10.5686274509804  11.5322580645161 14.0196078431373  11.5322580645161 14.0196078431373  C 11.5322580645161 14.0196078431373  12.3709677419355 15.7450980392157  12.3709677419355 15.7450980392157  C 12.3709677419355 15.7450980392157  12.7903225806452 21.3529411764706  12.7903225806452 21.3529411764706  C 12.7903225806452 21.3529411764706  4.82258064516129 21.7843137254902  4.82258064516129 21.7843137254902  C 4.82258064516129 21.7843137254902  4.82258064516129 20.921568627451  4.82258064516129 20.921568627451  C 4.82258064516129 20.921568627451  3.56451612903226 20.4901960784314  3.56451612903226 20.4901960784314  C 3.56451612903226 20.4901960784314  0.209677419354839 20.4901960784314  0.209677419354839 20.4901960784314  C 0.209677419354839 20.4901960784314  1.04838709677419 16.1764705882353  1.04838709677419 16.1764705882353  C 1.04838709677419 16.1764705882353  2.7258064516129 16.1764705882353  2.7258064516129 16.1764705882353  C 2.7258064516129 16.1764705882353  2.30645161290323 7.11764705882353  2.30645161290323 7.11764705882353  C 2.30645161290323 7.11764705882353  1.46774193548387 6.68627450980392  1.46774193548387 6.68627450980392  C 1.46774193548387 6.68627450980392  4.82258064516129 6.25490196078431  4.82258064516129 6.25490196078431  C 4.82258064516129 6.25490196078431  4.82258064516129 4.52941176470588  4.82258064516129 4.52941176470588  C 4.82258064516129 4.52941176470588  5.66129032258065 4.52941176470588  5.66129032258065 4.52941176470588  C 5.66129032258065 4.52941176470588  5.66129032258065 6.25490196078431  5.66129032258065 6.25490196078431  C 5.66129032258065 6.25490196078431  8.59677419354839 5.3921568627451  8.59677419354839 5.3921568627451  C 8.59677419354839 5.3921568627451  8.17741935483871 1.07843137254902  8.17741935483871 1.07843137254902  C 8.17741935483871 1.07843137254902  9.85483870967742 1.07843137254902  9.85483870967742 1.07843137254902  Z " stroke-width="2" stroke-dasharray="1,1" stroke="#999999" fill="none" transform="matrix(1 0 0 1 190 865 )" mask="url(#clip23)" />
  </g>
</svg>