<?xml version="1.0" encoding="utf-8"?>
<svg version="1.1" xmlns:xlink="http://www.w3.org/1999/xlink" width="46px" height="57px" xmlns="http://www.w3.org/2000/svg">
  <defs>
    <mask fill="white" id="clip24">
      <path d="M 35.6605504587156 12.8777777777778  C 35.6605504587156 12.8777777777778  38.1926605504587 14.9888888888889  38.1926605504587 14.9888888888889  C 38.1926605504587 14.9888888888889  39.0366972477064 15.8333333333333  39.0366972477064 15.8333333333333  C 39.0366972477064 15.8333333333333  43.256880733945 16.6777777777778  43.256880733945 16.6777777777778  C 43.256880733945 16.6777777777778  42.8348623853211 17.9444444444444  42.8348623853211 17.9444444444444  C 42.8348623853211 17.9444444444444  44.5229357798165 17.9444444444444  44.5229357798165 17.9444444444444  C 44.5229357798165 17.9444444444444  45.7889908256881 20.4777777777778  45.7889908256881 20.4777777777778  C 45.7889908256881 20.4777777777778  44.1009174311927 21.3222222222222  44.1009174311927 21.3222222222222  C 44.1009174311927 21.3222222222222  44.1009174311927 22.1666666666667  44.1009174311927 22.1666666666667  C 44.1009174311927 22.1666666666667  44.9449541284404 21.7444444444444  44.9449541284404 21.7444444444444  C 44.9449541284404 21.7444444444444  45.7889908256881 29.7666666666667  45.7889908256881 29.7666666666667  C 45.7889908256881 29.7666666666667  43.6788990825688 28.9222222222222  43.6788990825688 28.9222222222222  C 43.6788990825688 28.9222222222222  43.6788990825688 34.4111111111111  43.6788990825688 34.4111111111111  C 43.6788990825688 34.4111111111111  41.9908256880734 34.4111111111111  41.9908256880734 34.4111111111111  C 41.9908256880734 34.4111111111111  42.4128440366973 38.2111111111111  42.4128440366973 38.2111111111111  C 42.4128440366973 38.2111111111111  41.1467889908257 39.9  41.1467889908257 39.9  C 41.1467889908257 39.9  41.1467889908257 40.7444444444444  41.1467889908257 40.7444444444444  C 41.1467889908257 40.7444444444444  43.256880733945 40.7444444444444  43.256880733945 40.7444444444444  C 43.256880733945 40.7444444444444  43.256880733945 42.4333333333333  43.256880733945 42.4333333333333  C 43.256880733945 42.4333333333333  41.9908256880734 44.9666666666667  41.9908256880734 44.9666666666667  C 41.9908256880734 44.9666666666667  43.256880733945 46.6555555555556  43.256880733945 46.6555555555556  C 43.256880733945 46.6555555555556  41.1467889908257 48.7666666666667  41.1467889908257 48.7666666666667  C 41.1467889908257 48.7666666666667  39.4587155963303 48.7666666666667  39.4587155963303 48.7666666666667  C 39.4587155963303 48.7666666666667  39.4587155963303 49.6111111111111  39.4587155963303 49.6111111111111  C 39.4587155963303 49.6111111111111  40.302752293578 49.6111111111111  40.302752293578 49.6111111111111  C 40.302752293578 49.6111111111111  39.0366972477064 50.8777777777778  39.0366972477064 50.8777777777778  C 39.0366972477064 50.8777777777778  39.4587155963303 52.5666666666667  39.4587155963303 52.5666666666667  C 39.4587155963303 52.5666666666667  38.6146788990826 52.5666666666667  38.6146788990826 52.5666666666667  C 38.6146788990826 52.5666666666667  38.6146788990826 53.8333333333333  38.6146788990826 53.8333333333333  C 38.6146788990826 53.8333333333333  36.5045871559633 53.8333333333333  36.5045871559633 53.8333333333333  C 36.5045871559633 53.8333333333333  36.9266055045872 53.4111111111111  36.9266055045872 53.4111111111111  C 36.9266055045872 53.4111111111111  35.6605504587156 53.4111111111111  35.6605504587156 53.4111111111111  C 35.6605504587156 53.4111111111111  34.394495412844 52.1444444444444  34.394495412844 52.1444444444444  C 34.394495412844 52.1444444444444  30.1743119266055 51.7222222222222  30.1743119266055 51.7222222222222  C 30.1743119266055 51.7222222222222  30.1743119266055 52.9888888888889  30.1743119266055 52.9888888888889  C 30.1743119266055 52.9888888888889  28.4862385321101 52.5666666666667  28.4862385321101 52.5666666666667  C 28.4862385321101 52.5666666666667  29.3302752293578 53.4111111111111  29.3302752293578 53.4111111111111  C 29.3302752293578 53.4111111111111  28.9082568807339 53.8333333333333  28.9082568807339 53.8333333333333  C 28.9082568807339 53.8333333333333  25.954128440367 52.9888888888889  25.954128440367 52.9888888888889  C 25.954128440367 52.9888888888889  25.1100917431193 53.4111111111111  25.1100917431193 53.4111111111111  C 25.1100917431193 53.4111111111111  25.1100917431193 54.6777777777778  25.1100917431193 54.6777777777778  C 25.1100917431193 54.6777777777778  23.8440366972477 55.1  23.8440366972477 55.1  C 23.8440366972477 55.1  24.2660550458716 55.5222222222222  24.2660550458716 55.5222222222222  C 24.2660550458716 55.5222222222222  20.8899082568807 55.5222222222222  20.8899082568807 55.5222222222222  C 20.8899082568807 55.5222222222222  20.8899082568807 56.3666666666667  20.8899082568807 56.3666666666667  C 20.8899082568807 56.3666666666667  19.2018348623853 56.7888888888889  19.2018348623853 56.7888888888889  C 19.2018348623853 56.7888888888889  15.8256880733945 54.2555555555556  15.8256880733945 54.2555555555556  C 15.8256880733945 54.2555555555556  14.5596330275229 54.6777777777778  14.5596330275229 54.6777777777778  C 14.5596330275229 54.6777777777778  14.9816513761468 53.4111111111111  14.9816513761468 53.4111111111111  C 14.9816513761468 53.4111111111111  11.605504587156 52.5666666666667  11.605504587156 52.5666666666667  C 11.605504587156 52.5666666666667  12.8715596330275 52.1444444444444  12.8715596330275 52.1444444444444  C 12.8715596330275 52.1444444444444  13.2935779816514 50.4555555555556  13.2935779816514 50.4555555555556  C 13.2935779816514 50.4555555555556  14.1376146788991 50.8777777777778  14.1376146788991 50.8777777777778  C 14.1376146788991 50.8777777777778  14.1376146788991 50.0333333333333  14.1376146788991 50.0333333333333  C 14.1376146788991 50.0333333333333  14.9816513761468 50.0333333333333  14.9816513761468 50.0333333333333  C 14.9816513761468 50.0333333333333  15.8256880733945 48.3444444444444  15.8256880733945 48.3444444444444  C 15.8256880733945 48.3444444444444  17.0917431192661 49.1888888888889  17.0917431192661 49.1888888888889  C 17.0917431192661 49.1888888888889  18.3577981651376 47.5  18.3577981651376 47.5  C 18.3577981651376 47.5  14.5596330275229 45.8111111111111  14.5596330275229 45.8111111111111  C 14.5596330275229 45.8111111111111  14.5596330275229 40.7444444444444  14.5596330275229 40.7444444444444  C 14.5596330275229 40.7444444444444  15.4036697247706 40.7444444444444  15.4036697247706 40.7444444444444  C 15.4036697247706 40.7444444444444  15.4036697247706 38.2111111111111  15.4036697247706 38.2111111111111  C 15.4036697247706 38.2111111111111  13.2935779816514 38.6333333333333  13.2935779816514 38.6333333333333  C 13.2935779816514 38.6333333333333  12.8715596330275 33.1444444444444  12.8715596330275 33.1444444444444  C 12.8715596330275 33.1444444444444  14.5596330275229 33.1444444444444  14.5596330275229 33.1444444444444  C 14.5596330275229 33.1444444444444  14.9816513761468 29.7666666666667  14.9816513761468 29.7666666666667  C 14.9816513761468 29.7666666666667  14.1376146788991 29.7666666666667  14.1376146788991 29.7666666666667  C 14.1376146788991 29.7666666666667  14.1376146788991 28.9222222222222  14.1376146788991 28.9222222222222  C 14.1376146788991 28.9222222222222  13.2935779816514 28.0777777777778  13.2935779816514 28.0777777777778  C 13.2935779816514 28.0777777777778  12.4495412844037 28.9222222222222  12.4495412844037 28.9222222222222  C 12.4495412844037 28.9222222222222  12.4495412844037 26.8111111111111  12.4495412844037 26.8111111111111  C 12.4495412844037 26.8111111111111  11.605504587156 25.9666666666667  11.605504587156 25.9666666666667  C 11.605504587156 25.9666666666667  9.91743119266055 25.9666666666667  9.91743119266055 25.9666666666667  C 9.91743119266055 25.9666666666667  9.07339449541285 23.4333333333333  9.07339449541285 23.4333333333333  C 9.07339449541285 23.4333333333333  9.07339449541285 25.9666666666667  9.07339449541285 25.9666666666667  C 9.07339449541285 25.9666666666667  5.69724770642202 26.3888888888889  5.69724770642202 26.3888888888889  C 5.69724770642202 26.3888888888889  6.96330275229358 23.8555555555556  6.96330275229358 23.8555555555556  C 6.96330275229358 23.8555555555556  4.85321100917431 23.8555555555556  4.85321100917431 23.8555555555556  C 4.85321100917431 23.8555555555556  4.00917431192661 19.6333333333333  4.00917431192661 19.6333333333333  C 4.00917431192661 19.6333333333333  0.211009174311927 12.8777777777778  0.211009174311927 12.8777777777778  C 0.211009174311927 12.8777777777778  6.96330275229358 12.0333333333333  6.96330275229358 12.0333333333333  C 6.96330275229358 12.0333333333333  6.11926605504587 11.1888888888889  6.11926605504587 11.1888888888889  C 6.11926605504587 11.1888888888889  6.54128440366973 10.3444444444444  6.54128440366973 10.3444444444444  C 6.54128440366973 10.3444444444444  6.96330275229358 11.1888888888889  6.96330275229358 11.1888888888889  C 6.96330275229358 11.1888888888889  8.65137614678899 10.7666666666667  8.65137614678899 10.7666666666667  C 8.65137614678899 10.7666666666667  9.07339449541285 7.38888888888889  9.07339449541285 7.38888888888889  C 9.07339449541285 7.38888888888889  12.8715596330275 6.12222222222222  12.8715596330275 6.12222222222222  C 12.8715596330275 6.12222222222222  17.0917431192661 6.54444444444444  17.0917431192661 6.54444444444444  C 17.0917431192661 6.54444444444444  17.5137614678899 4.85555555555556  17.5137614678899 4.85555555555556  C 17.5137614678899 4.85555555555556  16.6697247706422 4.43333333333333  16.6697247706422 4.43333333333333  C 16.6697247706422 4.43333333333333  16.6697247706422 3.16666666666667  16.6697247706422 3.16666666666667  C 16.6697247706422 3.16666666666667  17.5137614678899 3.16666666666667  17.5137614678899 3.16666666666667  C 17.5137614678899 3.16666666666667  17.0917431192661 2.32222222222222  17.0917431192661 2.32222222222222  C 17.0917431192661 2.32222222222222  17.9357798165138 1.9  17.9357798165138 1.9  C 17.9357798165138 1.9  17.9357798165138 0.211111111111111  17.9357798165138 0.211111111111111  C 17.9357798165138 0.211111111111111  20.4678899082569 1.47777777777778  20.4678899082569 1.47777777777778  C 20.4678899082569 1.47777777777778  20.8899082568807 2.32222222222222  20.8899082568807 2.32222222222222  C 20.8899082568807 2.32222222222222  23.4220183486239 2.32222222222222  23.4220183486239 2.32222222222222  C 23.4220183486239 2.32222222222222  25.5321100917431 4.43333333333333  25.5321100917431 4.43333333333333  C 25.5321100917431 4.43333333333333  27.6422018348624 4.01111111111111  27.6422018348624 4.01111111111111  C 27.6422018348624 4.01111111111111  30.1743119266055 6.54444444444444  30.1743119266055 6.54444444444444  C 30.1743119266055 6.54444444444444  31.0183486238532 5.7  31.0183486238532 5.7  C 31.0183486238532 5.7  31.8623853211009 7.38888888888889  31.8623853211009 7.38888888888889  C 31.8623853211009 7.38888888888889  30.5963302752294 8.65555555555556  30.5963302752294 8.65555555555556  C 30.5963302752294 8.65555555555556  33.5504587155963 10.3444444444444  33.5504587155963 10.3444444444444  C 33.5504587155963 10.3444444444444  34.394495412844 12.0333333333333  34.394495412844 12.0333333333333  C 34.394495412844 12.0333333333333  35.6605504587156 11.6111111111111  35.6605504587156 11.6111111111111  C 35.6605504587156 11.6111111111111  35.6605504587156 12.8777777777778  35.6605504587156 12.8777777777778  Z " fill-rule="evenodd" />
    </mask>
  </defs>
  <g transform="matrix(1 0 0 1 -194 -842 )">
    <path d="M 35.6605504587156 12.8777777777778  C 35.6605504587156 12.8777777777778  38.1926605504587 14.9888888888889  38.1926605504587 14.9888888888889  C 38.1926605504587 14.9888888888889  39.0366972477064 15.8333333333333  39.0366972477064 15.8333333333333  C 39.0366972477064 15.8333333333333  43.256880733945 16.6777777777778  43.256880733945 16.6777777777778  C 43.256880733945 16.6777777777778  42.8348623853211 17.9444444444444  42.8348623853211 17.9444444444444  C 42.8348623853211 17.9444444444444  44.5229357798165 17.9444444444444  44.5229357798165 17.9444444444444  C 44.5229357798165 17.9444444444444  45.7889908256881 20.4777777777778  45.7889908256881 20.4777777777778  C 45.7889908256881 20.4777777777778  44.1009174311927 21.3222222222222  44.1009174311927 21.3222222222222  C 44.1009174311927 21.3222222222222  44.1009174311927 22.1666666666667  44.1009174311927 22.1666666666667  C 44.1009174311927 22.1666666666667  44.9449541284404 21.7444444444444  44.9449541284404 21.7444444444444  C 44.9449541284404 21.7444444444444  45.7889908256881 29.7666666666667  45.7889908256881 29.7666666666667  C 45.7889908256881 29.7666666666667  43.6788990825688 28.9222222222222  43.6788990825688 28.9222222222222  C 43.6788990825688 28.9222222222222  43.6788990825688 34.4111111111111  43.6788990825688 34.4111111111111  C 43.6788990825688 34.4111111111111  41.9908256880734 34.4111111111111  41.9908256880734 34.4111111111111  C 41.9908256880734 34.4111111111111  42.4128440366973 38.2111111111111  42.4128440366973 38.2111111111111  C 42.4128440366973 38.2111111111111  41.1467889908257 39.9  41.1467889908257 39.9  C 41.1467889908257 39.9  41.1467889908257 40.7444444444444  41.1467889908257 40.7444444444444  C 41.1467889908257 40.7444444444444  43.256880733945 40.7444444444444  43.256880733945 40.7444444444444  C 43.256880733945 40.7444444444444  43.256880733945 42.4333333333333  43.256880733945 42.4333333333333  C 43.256880733945 42.4333333333333  41.9908256880734 44.9666666666667  41.9908256880734 44.9666666666667  C 41.9908256880734 44.9666666666667  43.256880733945 46.6555555555556  43.256880733945 46.6555555555556  C 43.256880733945 46.6555555555556  41.1467889908257 48.7666666666667  41.1467889908257 48.7666666666667  C 41.1467889908257 48.7666666666667  39.4587155963303 48.7666666666667  39.4587155963303 48.7666666666667  C 39.4587155963303 48.7666666666667  39.4587155963303 49.6111111111111  39.4587155963303 49.6111111111111  C 39.4587155963303 49.6111111111111  40.302752293578 49.6111111111111  40.302752293578 49.6111111111111  C 40.302752293578 49.6111111111111  39.0366972477064 50.8777777777778  39.0366972477064 50.8777777777778  C 39.0366972477064 50.8777777777778  39.4587155963303 52.5666666666667  39.4587155963303 52.5666666666667  C 39.4587155963303 52.5666666666667  38.6146788990826 52.5666666666667  38.6146788990826 52.5666666666667  C 38.6146788990826 52.5666666666667  38.6146788990826 53.8333333333333  38.6146788990826 53.8333333333333  C 38.6146788990826 53.8333333333333  36.5045871559633 53.8333333333333  36.5045871559633 53.8333333333333  C 36.5045871559633 53.8333333333333  36.9266055045872 53.4111111111111  36.9266055045872 53.4111111111111  C 36.9266055045872 53.4111111111111  35.6605504587156 53.4111111111111  35.6605504587156 53.4111111111111  C 35.6605504587156 53.4111111111111  34.394495412844 52.1444444444444  34.394495412844 52.1444444444444  C 34.394495412844 52.1444444444444  30.1743119266055 51.7222222222222  30.1743119266055 51.7222222222222  C 30.1743119266055 51.7222222222222  30.1743119266055 52.9888888888889  30.1743119266055 52.9888888888889  C 30.1743119266055 52.9888888888889  28.4862385321101 52.5666666666667  28.4862385321101 52.5666666666667  C 28.4862385321101 52.5666666666667  29.3302752293578 53.4111111111111  29.3302752293578 53.4111111111111  C 29.3302752293578 53.4111111111111  28.9082568807339 53.8333333333333  28.9082568807339 53.8333333333333  C 28.9082568807339 53.8333333333333  25.954128440367 52.9888888888889  25.954128440367 52.9888888888889  C 25.954128440367 52.9888888888889  25.1100917431193 53.4111111111111  25.1100917431193 53.4111111111111  C 25.1100917431193 53.4111111111111  25.1100917431193 54.6777777777778  25.1100917431193 54.6777777777778  C 25.1100917431193 54.6777777777778  23.8440366972477 55.1  23.8440366972477 55.1  C 23.8440366972477 55.1  24.2660550458716 55.5222222222222  24.2660550458716 55.5222222222222  C 24.2660550458716 55.5222222222222  20.8899082568807 55.5222222222222  20.8899082568807 55.5222222222222  C 20.8899082568807 55.5222222222222  20.8899082568807 56.3666666666667  20.8899082568807 56.3666666666667  C 20.8899082568807 56.3666666666667  19.2018348623853 56.7888888888889  19.2018348623853 56.7888888888889  C 19.2018348623853 56.7888888888889  15.8256880733945 54.2555555555556  15.8256880733945 54.2555555555556  C 15.8256880733945 54.2555555555556  14.5596330275229 54.6777777777778  14.5596330275229 54.6777777777778  C 14.5596330275229 54.6777777777778  14.9816513761468 53.4111111111111  14.9816513761468 53.4111111111111  C 14.9816513761468 53.4111111111111  11.605504587156 52.5666666666667  11.605504587156 52.5666666666667  C 11.605504587156 52.5666666666667  12.8715596330275 52.1444444444444  12.8715596330275 52.1444444444444  C 12.8715596330275 52.1444444444444  13.2935779816514 50.4555555555556  13.2935779816514 50.4555555555556  C 13.2935779816514 50.4555555555556  14.1376146788991 50.8777777777778  14.1376146788991 50.8777777777778  C 14.1376146788991 50.8777777777778  14.1376146788991 50.0333333333333  14.1376146788991 50.0333333333333  C 14.1376146788991 50.0333333333333  14.9816513761468 50.0333333333333  14.9816513761468 50.0333333333333  C 14.9816513761468 50.0333333333333  15.8256880733945 48.3444444444444  15.8256880733945 48.3444444444444  C 15.8256880733945 48.3444444444444  17.0917431192661 49.1888888888889  17.0917431192661 49.1888888888889  C 17.0917431192661 49.1888888888889  18.3577981651376 47.5  18.3577981651376 47.5  C 18.3577981651376 47.5  14.5596330275229 45.8111111111111  14.5596330275229 45.8111111111111  C 14.5596330275229 45.8111111111111  14.5596330275229 40.7444444444444  14.5596330275229 40.7444444444444  C 14.5596330275229 40.7444444444444  15.4036697247706 40.7444444444444  15.4036697247706 40.7444444444444  C 15.4036697247706 40.7444444444444  15.4036697247706 38.2111111111111  15.4036697247706 38.2111111111111  C 15.4036697247706 38.2111111111111  13.2935779816514 38.6333333333333  13.2935779816514 38.6333333333333  C 13.2935779816514 38.6333333333333  12.8715596330275 33.1444444444444  12.8715596330275 33.1444444444444  C 12.8715596330275 33.1444444444444  14.5596330275229 33.1444444444444  14.5596330275229 33.1444444444444  C 14.5596330275229 33.1444444444444  14.9816513761468 29.7666666666667  14.9816513761468 29.7666666666667  C 14.9816513761468 29.7666666666667  14.1376146788991 29.7666666666667  14.1376146788991 29.7666666666667  C 14.1376146788991 29.7666666666667  14.1376146788991 28.9222222222222  14.1376146788991 28.9222222222222  C 14.1376146788991 28.9222222222222  13.2935779816514 28.0777777777778  13.2935779816514 28.0777777777778  C 13.2935779816514 28.0777777777778  12.4495412844037 28.9222222222222  12.4495412844037 28.9222222222222  C 12.4495412844037 28.9222222222222  12.4495412844037 26.8111111111111  12.4495412844037 26.8111111111111  C 12.4495412844037 26.8111111111111  11.605504587156 25.9666666666667  11.605504587156 25.9666666666667  C 11.605504587156 25.9666666666667  9.91743119266055 25.9666666666667  9.91743119266055 25.9666666666667  C 9.91743119266055 25.9666666666667  9.07339449541285 23.4333333333333  9.07339449541285 23.4333333333333  C 9.07339449541285 23.4333333333333  9.07339449541285 25.9666666666667  9.07339449541285 25.9666666666667  C 9.07339449541285 25.9666666666667  5.69724770642202 26.3888888888889  5.69724770642202 26.3888888888889  C 5.69724770642202 26.3888888888889  6.96330275229358 23.8555555555556  6.96330275229358 23.8555555555556  C 6.96330275229358 23.8555555555556  4.85321100917431 23.8555555555556  4.85321100917431 23.8555555555556  C 4.85321100917431 23.8555555555556  4.00917431192661 19.6333333333333  4.00917431192661 19.6333333333333  C 4.00917431192661 19.6333333333333  0.211009174311927 12.8777777777778  0.211009174311927 12.8777777777778  C 0.211009174311927 12.8777777777778  6.96330275229358 12.0333333333333  6.96330275229358 12.0333333333333  C 6.96330275229358 12.0333333333333  6.11926605504587 11.1888888888889  6.11926605504587 11.1888888888889  C 6.11926605504587 11.1888888888889  6.54128440366973 10.3444444444444  6.54128440366973 10.3444444444444  C 6.54128440366973 10.3444444444444  6.96330275229358 11.1888888888889  6.96330275229358 11.1888888888889  C 6.96330275229358 11.1888888888889  8.65137614678899 10.7666666666667  8.65137614678899 10.7666666666667  C 8.65137614678899 10.7666666666667  9.07339449541285 7.38888888888889  9.07339449541285 7.38888888888889  C 9.07339449541285 7.38888888888889  12.8715596330275 6.12222222222222  12.8715596330275 6.12222222222222  C 12.8715596330275 6.12222222222222  17.0917431192661 6.54444444444444  17.0917431192661 6.54444444444444  C 17.0917431192661 6.54444444444444  17.5137614678899 4.85555555555556  17.5137614678899 4.85555555555556  C 17.5137614678899 4.85555555555556  16.6697247706422 4.43333333333333  16.6697247706422 4.43333333333333  C 16.6697247706422 4.43333333333333  16.6697247706422 3.16666666666667  16.6697247706422 3.16666666666667  C 16.6697247706422 3.16666666666667  17.5137614678899 3.16666666666667  17.5137614678899 3.16666666666667  C 17.5137614678899 3.16666666666667  17.0917431192661 2.32222222222222  17.0917431192661 2.32222222222222  C 17.0917431192661 2.32222222222222  17.9357798165138 1.9  17.9357798165138 1.9  C 17.9357798165138 1.9  17.9357798165138 0.211111111111111  17.9357798165138 0.211111111111111  C 17.9357798165138 0.211111111111111  20.4678899082569 1.47777777777778  20.4678899082569 1.47777777777778  C 20.4678899082569 1.47777777777778  20.8899082568807 2.32222222222222  20.8899082568807 2.32222222222222  C 20.8899082568807 2.32222222222222  23.4220183486239 2.32222222222222  23.4220183486239 2.32222222222222  C 23.4220183486239 2.32222222222222  25.5321100917431 4.43333333333333  25.5321100917431 4.43333333333333  C 25.5321100917431 4.43333333333333  27.6422018348624 4.01111111111111  27.6422018348624 4.01111111111111  C 27.6422018348624 4.01111111111111  30.1743119266055 6.54444444444444  30.1743119266055 6.54444444444444  C 30.1743119266055 6.54444444444444  31.0183486238532 5.7  31.0183486238532 5.7  C 31.0183486238532 5.7  31.8623853211009 7.38888888888889  31.8623853211009 7.38888888888889  C 31.8623853211009 7.38888888888889  30.5963302752294 8.65555555555556  30.5963302752294 8.65555555555556  C 30.5963302752294 8.65555555555556  33.5504587155963 10.3444444444444  33.5504587155963 10.3444444444444  C 33.5504587155963 10.3444444444444  34.394495412844 12.0333333333333  34.394495412844 12.0333333333333  C 34.394495412844 12.0333333333333  35.6605504587156 11.6111111111111  35.6605504587156 11.6111111111111  C 35.6605504587156 11.6111111111111  35.6605504587156 12.8777777777778  35.6605504587156 12.8777777777778  Z " fill-rule="nonzero" fill="#ffffff" stroke="none" fill-opacity="0" transform="matrix(1 0 0 1 194 842 )" />
    <path d="M 35.6605504587156 12.8777777777778  C 35.6605504587156 12.8777777777778  38.1926605504587 14.9888888888889  38.1926605504587 14.9888888888889  C 38.1926605504587 14.9888888888889  39.0366972477064 15.8333333333333  39.0366972477064 15.8333333333333  C 39.0366972477064 15.8333333333333  43.256880733945 16.6777777777778  43.256880733945 16.6777777777778  C 43.256880733945 16.6777777777778  42.8348623853211 17.9444444444444  42.8348623853211 17.9444444444444  C 42.8348623853211 17.9444444444444  44.5229357798165 17.9444444444444  44.5229357798165 17.9444444444444  C 44.5229357798165 17.9444444444444  45.7889908256881 20.4777777777778  45.7889908256881 20.4777777777778  C 45.7889908256881 20.4777777777778  44.1009174311927 21.3222222222222  44.1009174311927 21.3222222222222  C 44.1009174311927 21.3222222222222  44.1009174311927 22.1666666666667  44.1009174311927 22.1666666666667  C 44.1009174311927 22.1666666666667  44.9449541284404 21.7444444444444  44.9449541284404 21.7444444444444  C 44.9449541284404 21.7444444444444  45.7889908256881 29.7666666666667  45.7889908256881 29.7666666666667  C 45.7889908256881 29.7666666666667  43.6788990825688 28.9222222222222  43.6788990825688 28.9222222222222  C 43.6788990825688 28.9222222222222  43.6788990825688 34.4111111111111  43.6788990825688 34.4111111111111  C 43.6788990825688 34.4111111111111  41.9908256880734 34.4111111111111  41.9908256880734 34.4111111111111  C 41.9908256880734 34.4111111111111  42.4128440366973 38.2111111111111  42.4128440366973 38.2111111111111  C 42.4128440366973 38.2111111111111  41.1467889908257 39.9  41.1467889908257 39.9  C 41.1467889908257 39.9  41.1467889908257 40.7444444444444  41.1467889908257 40.7444444444444  C 41.1467889908257 40.7444444444444  43.256880733945 40.7444444444444  43.256880733945 40.7444444444444  C 43.256880733945 40.7444444444444  43.256880733945 42.4333333333333  43.256880733945 42.4333333333333  C 43.256880733945 42.4333333333333  41.9908256880734 44.9666666666667  41.9908256880734 44.9666666666667  C 41.9908256880734 44.9666666666667  43.256880733945 46.6555555555556  43.256880733945 46.6555555555556  C 43.256880733945 46.6555555555556  41.1467889908257 48.7666666666667  41.1467889908257 48.7666666666667  C 41.1467889908257 48.7666666666667  39.4587155963303 48.7666666666667  39.4587155963303 48.7666666666667  C 39.4587155963303 48.7666666666667  39.4587155963303 49.6111111111111  39.4587155963303 49.6111111111111  C 39.4587155963303 49.6111111111111  40.302752293578 49.6111111111111  40.302752293578 49.6111111111111  C 40.302752293578 49.6111111111111  39.0366972477064 50.8777777777778  39.0366972477064 50.8777777777778  C 39.0366972477064 50.8777777777778  39.4587155963303 52.5666666666667  39.4587155963303 52.5666666666667  C 39.4587155963303 52.5666666666667  38.6146788990826 52.5666666666667  38.6146788990826 52.5666666666667  C 38.6146788990826 52.5666666666667  38.6146788990826 53.8333333333333  38.6146788990826 53.8333333333333  C 38.6146788990826 53.8333333333333  36.5045871559633 53.8333333333333  36.5045871559633 53.8333333333333  C 36.5045871559633 53.8333333333333  36.9266055045872 53.4111111111111  36.9266055045872 53.4111111111111  C 36.9266055045872 53.4111111111111  35.6605504587156 53.4111111111111  35.6605504587156 53.4111111111111  C 35.6605504587156 53.4111111111111  34.394495412844 52.1444444444444  34.394495412844 52.1444444444444  C 34.394495412844 52.1444444444444  30.1743119266055 51.7222222222222  30.1743119266055 51.7222222222222  C 30.1743119266055 51.7222222222222  30.1743119266055 52.9888888888889  30.1743119266055 52.9888888888889  C 30.1743119266055 52.9888888888889  28.4862385321101 52.5666666666667  28.4862385321101 52.5666666666667  C 28.4862385321101 52.5666666666667  29.3302752293578 53.4111111111111  29.3302752293578 53.4111111111111  C 29.3302752293578 53.4111111111111  28.9082568807339 53.8333333333333  28.9082568807339 53.8333333333333  C 28.9082568807339 53.8333333333333  25.954128440367 52.9888888888889  25.954128440367 52.9888888888889  C 25.954128440367 52.9888888888889  25.1100917431193 53.4111111111111  25.1100917431193 53.4111111111111  C 25.1100917431193 53.4111111111111  25.1100917431193 54.6777777777778  25.1100917431193 54.6777777777778  C 25.1100917431193 54.6777777777778  23.8440366972477 55.1  23.8440366972477 55.1  C 23.8440366972477 55.1  24.2660550458716 55.5222222222222  24.2660550458716 55.5222222222222  C 24.2660550458716 55.5222222222222  20.8899082568807 55.5222222222222  20.8899082568807 55.5222222222222  C 20.8899082568807 55.5222222222222  20.8899082568807 56.3666666666667  20.8899082568807 56.3666666666667  C 20.8899082568807 56.3666666666667  19.2018348623853 56.7888888888889  19.2018348623853 56.7888888888889  C 19.2018348623853 56.7888888888889  15.8256880733945 54.2555555555556  15.8256880733945 54.2555555555556  C 15.8256880733945 54.2555555555556  14.5596330275229 54.6777777777778  14.5596330275229 54.6777777777778  C 14.5596330275229 54.6777777777778  14.9816513761468 53.4111111111111  14.9816513761468 53.4111111111111  C 14.9816513761468 53.4111111111111  11.605504587156 52.5666666666667  11.605504587156 52.5666666666667  C 11.605504587156 52.5666666666667  12.8715596330275 52.1444444444444  12.8715596330275 52.1444444444444  C 12.8715596330275 52.1444444444444  13.2935779816514 50.4555555555556  13.2935779816514 50.4555555555556  C 13.2935779816514 50.4555555555556  14.1376146788991 50.8777777777778  14.1376146788991 50.8777777777778  C 14.1376146788991 50.8777777777778  14.1376146788991 50.0333333333333  14.1376146788991 50.0333333333333  C 14.1376146788991 50.0333333333333  14.9816513761468 50.0333333333333  14.9816513761468 50.0333333333333  C 14.9816513761468 50.0333333333333  15.8256880733945 48.3444444444444  15.8256880733945 48.3444444444444  C 15.8256880733945 48.3444444444444  17.0917431192661 49.1888888888889  17.0917431192661 49.1888888888889  C 17.0917431192661 49.1888888888889  18.3577981651376 47.5  18.3577981651376 47.5  C 18.3577981651376 47.5  14.5596330275229 45.8111111111111  14.5596330275229 45.8111111111111  C 14.5596330275229 45.8111111111111  14.5596330275229 40.7444444444444  14.5596330275229 40.7444444444444  C 14.5596330275229 40.7444444444444  15.4036697247706 40.7444444444444  15.4036697247706 40.7444444444444  C 15.4036697247706 40.7444444444444  15.4036697247706 38.2111111111111  15.4036697247706 38.2111111111111  C 15.4036697247706 38.2111111111111  13.2935779816514 38.6333333333333  13.2935779816514 38.6333333333333  C 13.2935779816514 38.6333333333333  12.8715596330275 33.1444444444444  12.8715596330275 33.1444444444444  C 12.8715596330275 33.1444444444444  14.5596330275229 33.1444444444444  14.5596330275229 33.1444444444444  C 14.5596330275229 33.1444444444444  14.9816513761468 29.7666666666667  14.9816513761468 29.7666666666667  C 14.9816513761468 29.7666666666667  14.1376146788991 29.7666666666667  14.1376146788991 29.7666666666667  C 14.1376146788991 29.7666666666667  14.1376146788991 28.9222222222222  14.1376146788991 28.9222222222222  C 14.1376146788991 28.9222222222222  13.2935779816514 28.0777777777778  13.2935779816514 28.0777777777778  C 13.2935779816514 28.0777777777778  12.4495412844037 28.9222222222222  12.4495412844037 28.9222222222222  C 12.4495412844037 28.9222222222222  12.4495412844037 26.8111111111111  12.4495412844037 26.8111111111111  C 12.4495412844037 26.8111111111111  11.605504587156 25.9666666666667  11.605504587156 25.9666666666667  C 11.605504587156 25.9666666666667  9.91743119266055 25.9666666666667  9.91743119266055 25.9666666666667  C 9.91743119266055 25.9666666666667  9.07339449541285 23.4333333333333  9.07339449541285 23.4333333333333  C 9.07339449541285 23.4333333333333  9.07339449541285 25.9666666666667  9.07339449541285 25.9666666666667  C 9.07339449541285 25.9666666666667  5.69724770642202 26.3888888888889  5.69724770642202 26.3888888888889  C 5.69724770642202 26.3888888888889  6.96330275229358 23.8555555555556  6.96330275229358 23.8555555555556  C 6.96330275229358 23.8555555555556  4.85321100917431 23.8555555555556  4.85321100917431 23.8555555555556  C 4.85321100917431 23.8555555555556  4.00917431192661 19.6333333333333  4.00917431192661 19.6333333333333  C 4.00917431192661 19.6333333333333  0.211009174311927 12.8777777777778  0.211009174311927 12.8777777777778  C 0.211009174311927 12.8777777777778  6.96330275229358 12.0333333333333  6.96330275229358 12.0333333333333  C 6.96330275229358 12.0333333333333  6.11926605504587 11.1888888888889  6.11926605504587 11.1888888888889  C 6.11926605504587 11.1888888888889  6.54128440366973 10.3444444444444  6.54128440366973 10.3444444444444  C 6.54128440366973 10.3444444444444  6.96330275229358 11.1888888888889  6.96330275229358 11.1888888888889  C 6.96330275229358 11.1888888888889  8.65137614678899 10.7666666666667  8.65137614678899 10.7666666666667  C 8.65137614678899 10.7666666666667  9.07339449541285 7.38888888888889  9.07339449541285 7.38888888888889  C 9.07339449541285 7.38888888888889  12.8715596330275 6.12222222222222  12.8715596330275 6.12222222222222  C 12.8715596330275 6.12222222222222  17.0917431192661 6.54444444444444  17.0917431192661 6.54444444444444  C 17.0917431192661 6.54444444444444  17.5137614678899 4.85555555555556  17.5137614678899 4.85555555555556  C 17.5137614678899 4.85555555555556  16.6697247706422 4.43333333333333  16.6697247706422 4.43333333333333  C 16.6697247706422 4.43333333333333  16.6697247706422 3.16666666666667  16.6697247706422 3.16666666666667  C 16.6697247706422 3.16666666666667  17.5137614678899 3.16666666666667  17.5137614678899 3.16666666666667  C 17.5137614678899 3.16666666666667  17.0917431192661 2.32222222222222  17.0917431192661 2.32222222222222  C 17.0917431192661 2.32222222222222  17.9357798165138 1.9  17.9357798165138 1.9  C 17.9357798165138 1.9  17.9357798165138 0.211111111111111  17.9357798165138 0.211111111111111  C 17.9357798165138 0.211111111111111  20.4678899082569 1.47777777777778  20.4678899082569 1.47777777777778  C 20.4678899082569 1.47777777777778  20.8899082568807 2.32222222222222  20.8899082568807 2.32222222222222  C 20.8899082568807 2.32222222222222  23.4220183486239 2.32222222222222  23.4220183486239 2.32222222222222  C 23.4220183486239 2.32222222222222  25.5321100917431 4.43333333333333  25.5321100917431 4.43333333333333  C 25.5321100917431 4.43333333333333  27.6422018348624 4.01111111111111  27.6422018348624 4.01111111111111  C 27.6422018348624 4.01111111111111  30.1743119266055 6.54444444444444  30.1743119266055 6.54444444444444  C 30.1743119266055 6.54444444444444  31.0183486238532 5.7  31.0183486238532 5.7  C 31.0183486238532 5.7  31.8623853211009 7.38888888888889  31.8623853211009 7.38888888888889  C 31.8623853211009 7.38888888888889  30.5963302752294 8.65555555555556  30.5963302752294 8.65555555555556  C 30.5963302752294 8.65555555555556  33.5504587155963 10.3444444444444  33.5504587155963 10.3444444444444  C 33.5504587155963 10.3444444444444  34.394495412844 12.0333333333333  34.394495412844 12.0333333333333  C 34.394495412844 12.0333333333333  35.6605504587156 11.6111111111111  35.6605504587156 11.6111111111111  C 35.6605504587156 11.6111111111111  35.6605504587156 12.8777777777778  35.6605504587156 12.8777777777778  Z " stroke-width="2" stroke-dasharray="1,1" stroke="#999999" fill="none" transform="matrix(1 0 0 1 194 842 )" mask="url(#clip24)" />
  </g>
</svg>