<?xml version="1.0" encoding="utf-8"?>
<svg version="1.1" xmlns:xlink="http://www.w3.org/1999/xlink" width="65px" height="28px" xmlns="http://www.w3.org/2000/svg">
  <defs>
    <mask fill="white" id="clip26">
      <path d="M 17.2058823529412 2.33333333333333  C 17.2058823529412 2.33333333333333  17.6307189542484 1.90909090909091  17.6307189542484 1.90909090909091  C 17.6307189542484 1.90909090909091  19.7549019607843 3.18181818181818  19.7549019607843 3.18181818181818  C 19.7549019607843 3.18181818181818  22.7287581699346 3.18181818181818  22.7287581699346 3.18181818181818  C 22.7287581699346 3.18181818181818  24.0032679738562 4.87878787878788  24.0032679738562 4.87878787878788  C 24.0032679738562 4.87878787878788  24.8529411764706 4.87878787878788  24.8529411764706 4.87878787878788  C 24.8529411764706 4.87878787878788  24.4281045751634 4.03030303030303  24.4281045751634 4.03030303030303  C 24.4281045751634 4.03030303030303  25.702614379085 4.45454545454545  25.702614379085 4.45454545454545  C 25.702614379085 4.45454545454545  25.702614379085 3.18181818181818  25.702614379085 3.18181818181818  C 25.702614379085 3.18181818181818  26.9771241830065 2.75757575757576  26.9771241830065 2.75757575757576  C 26.9771241830065 2.75757575757576  26.9771241830065 1.90909090909091  26.9771241830065 1.90909090909091  C 26.9771241830065 1.90909090909091  28.2516339869281 1.90909090909091  28.2516339869281 1.90909090909091  C 28.2516339869281 1.90909090909091  27.8267973856209 1.06060606060606  27.8267973856209 1.06060606060606  C 27.8267973856209 1.06060606060606  30.8006535947712 0.212121212121212  30.8006535947712 0.212121212121212  C 30.8006535947712 0.212121212121212  38.0228758169935 0.212121212121212  38.0228758169935 0.212121212121212  C 38.0228758169935 0.212121212121212  38.0228758169935 2.33333333333333  38.0228758169935 2.33333333333333  C 38.0228758169935 2.33333333333333  39.7222222222222 1.48484848484848  39.7222222222222 1.48484848484848  C 39.7222222222222 1.48484848484848  39.297385620915 1.06060606060606  39.297385620915 1.06060606060606  C 39.297385620915 1.06060606060606  40.5718954248366 0.212121212121212  40.5718954248366 0.212121212121212  C 40.5718954248366 0.212121212121212  42.6960784313725 0.212121212121212  42.6960784313725 0.212121212121212  C 42.6960784313725 0.212121212121212  41.8464052287582 4.45454545454545  41.8464052287582 4.45454545454545  C 41.8464052287582 4.45454545454545  45.2450980392157 4.45454545454545  45.2450980392157 4.45454545454545  C 45.2450980392157 4.45454545454545  46.5196078431373 4.87878787878788  46.5196078431373 4.87878787878788  C 46.5196078431373 4.87878787878788  46.5196078431373 5.72727272727273  46.5196078431373 5.72727272727273  C 46.5196078431373 5.72727272727273  51.1928104575163 5.3030303030303  51.1928104575163 5.3030303030303  C 51.1928104575163 5.3030303030303  51.1928104575163 6.57575757575758  51.1928104575163 6.57575757575758  C 51.1928104575163 6.57575757575758  52.4673202614379 6.15151515151515  52.4673202614379 6.15151515151515  C 52.4673202614379 6.15151515151515  53.3169934640523 7.84848484848485  53.3169934640523 7.84848484848485  C 53.3169934640523 7.84848484848485  55.8660130718954 7.84848484848485  55.8660130718954 7.84848484848485  C 55.8660130718954 7.84848484848485  56.7156862745098 7  56.7156862745098 7  C 56.7156862745098 7  56.2908496732026 5.3030303030303  56.2908496732026 5.3030303030303  C 56.2908496732026 5.3030303030303  60.5392156862745 5.3030303030303  60.5392156862745 5.3030303030303  C 60.5392156862745 5.3030303030303  61.3888888888889 7.42424242424242  61.3888888888889 7.42424242424242  C 61.3888888888889 7.42424242424242  64.7875816993464 8.27272727272727  64.7875816993464 8.27272727272727  C 64.7875816993464 8.27272727272727  63.5130718954248 9.96969696969697  63.5130718954248 9.96969696969697  C 63.5130718954248 9.96969696969697  62.2385620915033 9.12121212121212  62.2385620915033 9.12121212121212  C 62.2385620915033 9.12121212121212  61.3888888888889 10.8181818181818  61.3888888888889 10.8181818181818  C 61.3888888888889 10.8181818181818  60.5392156862745 10.8181818181818  60.5392156862745 10.8181818181818  C 60.5392156862745 10.8181818181818  60.5392156862745 11.6666666666667  60.5392156862745 11.6666666666667  C 60.5392156862745 11.6666666666667  59.6895424836601 11.2424242424242  59.6895424836601 11.2424242424242  C 59.6895424836601 11.2424242424242  59.2647058823529 12.9393939393939  59.2647058823529 12.9393939393939  C 59.2647058823529 12.9393939393939  57.140522875817 14.6363636363636  57.140522875817 14.6363636363636  C 57.140522875817 14.6363636363636  56.7156862745098 14.2121212121212  56.7156862745098 14.2121212121212  C 56.7156862745098 14.2121212121212  56.2908496732026 15.4848484848485  56.2908496732026 15.4848484848485  C 56.2908496732026 15.4848484848485  57.140522875817 15.4848484848485  57.140522875817 15.4848484848485  C 57.140522875817 15.4848484848485  57.140522875817 17.1818181818182  57.140522875817 17.1818181818182  C 57.140522875817 17.1818181818182  55.8660130718954 16.7575757575758  55.8660130718954 16.7575757575758  C 55.8660130718954 16.7575757575758  55.8660130718954 18.030303030303  55.8660130718954 18.030303030303  C 55.8660130718954 18.030303030303  56.7156862745098 17.6060606060606  56.7156862745098 17.6060606060606  C 56.7156862745098 17.6060606060606  57.9901960784314 19.3030303030303  57.9901960784314 19.3030303030303  C 57.9901960784314 19.3030303030303  58.8398692810458 19.3030303030303  58.8398692810458 19.3030303030303  C 58.8398692810458 19.3030303030303  58.8398692810458 21.4242424242424  58.8398692810458 21.4242424242424  C 58.8398692810458 21.4242424242424  57.5653594771242 21.4242424242424  57.5653594771242 21.4242424242424  C 57.5653594771242 21.4242424242424  57.140522875817 22.6969696969697  57.140522875817 22.6969696969697  C 57.140522875817 22.6969696969697  53.3169934640523 22.6969696969697  53.3169934640523 22.6969696969697  C 53.3169934640523 22.6969696969697  54.1666666666667 26.9393939393939  54.1666666666667 26.9393939393939  C 54.1666666666667 26.9393939393939  52.8921568627451 26.9393939393939  52.8921568627451 26.9393939393939  C 52.8921568627451 26.9393939393939  52.8921568627451 23.969696969697  52.8921568627451 23.969696969697  C 52.8921568627451 23.969696969697  50.7679738562092 24.3939393939394  50.7679738562092 24.3939393939394  C 50.7679738562092 24.3939393939394  50.7679738562092 23.1212121212121  50.7679738562092 23.1212121212121  C 50.7679738562092 23.1212121212121  49.0686274509804 23.1212121212121  49.0686274509804 23.1212121212121  C 49.0686274509804 23.1212121212121  49.0686274509804 20.1515151515152  49.0686274509804 20.1515151515152  C 49.0686274509804 20.1515151515152  47.3692810457516 20.1515151515152  47.3692810457516 20.1515151515152  C 47.3692810457516 20.1515151515152  47.3692810457516 18.8787878787879  47.3692810457516 18.8787878787879  C 47.3692810457516 18.8787878787879  45.2450980392157 18.4545454545455  45.2450980392157 18.4545454545455  C 45.2450980392157 18.4545454545455  44.8202614379085 19.7272727272727  44.8202614379085 19.7272727272727  C 44.8202614379085 19.7272727272727  43.1209150326797 19.7272727272727  43.1209150326797 19.7272727272727  C 43.1209150326797 19.7272727272727  41.8464052287582 23.5454545454545  41.8464052287582 23.5454545454545  C 41.8464052287582 23.5454545454545  39.7222222222222 26.0909090909091  39.7222222222222 26.0909090909091  C 39.7222222222222 26.0909090909091  38.8725490196078 25.2424242424242  38.8725490196078 25.2424242424242  C 38.8725490196078 25.2424242424242  38.0228758169935 21.8484848484848  38.0228758169935 21.8484848484848  C 38.0228758169935 21.8484848484848  37.1732026143791 21.4242424242424  37.1732026143791 21.4242424242424  C 37.1732026143791 21.4242424242424  38.0228758169935 21  38.0228758169935 21  C 38.0228758169935 21  37.1732026143791 21  37.1732026143791 21  C 37.1732026143791 21  36.7483660130719 20.1515151515152  36.7483660130719 20.1515151515152  C 36.7483660130719 20.1515151515152  32.9248366013072 21.4242424242424  32.9248366013072 21.4242424242424  C 32.9248366013072 21.4242424242424  32.0751633986928 20.5757575757576  32.0751633986928 20.5757575757576  C 32.0751633986928 20.5757575757576  30.8006535947712 21.4242424242424  30.8006535947712 21.4242424242424  C 30.8006535947712 21.4242424242424  31.2254901960784 18.8787878787879  31.2254901960784 18.8787878787879  C 31.2254901960784 18.8787878787879  29.5261437908497 16.3333333333333  29.5261437908497 16.3333333333333  C 29.5261437908497 16.3333333333333  29.5261437908497 15.0606060606061  29.5261437908497 15.0606060606061  C 29.5261437908497 15.0606060606061  26.9771241830065 14.6363636363636  26.9771241830065 14.6363636363636  C 26.9771241830065 14.6363636363636  24.8529411764706 15.0606060606061  24.8529411764706 15.0606060606061  C 24.8529411764706 15.0606060606061  25.2777777777778 16.7575757575758  25.2777777777778 16.7575757575758  C 25.2777777777778 16.7575757575758  23.1535947712418 20.1515151515152  23.1535947712418 20.1515151515152  C 23.1535947712418 20.1515151515152  22.7287581699346 24.3939393939394  22.7287581699346 24.3939393939394  C 22.7287581699346 24.3939393939394  18.0555555555556 23.1212121212121  18.0555555555556 23.1212121212121  C 18.0555555555556 23.1212121212121  16.781045751634 26.5151515151515  16.781045751634 26.5151515151515  C 16.781045751634 26.5151515151515  14.2320261437908 27.3636363636364  14.2320261437908 27.3636363636364  C 14.2320261437908 27.3636363636364  12.5326797385621 26.9393939393939  12.5326797385621 26.9393939393939  C 12.5326797385621 26.9393939393939  10.8333333333333 27.7878787878788  10.8333333333333 27.7878787878788  C 10.8333333333333 27.7878787878788  9.98366013071895 25.6666666666667  9.98366013071895 25.6666666666667  C 9.98366013071895 25.6666666666667  10.8333333333333 24.3939393939394  10.8333333333333 24.3939393939394  C 10.8333333333333 24.3939393939394  12.5326797385621 24.3939393939394  12.5326797385621 24.3939393939394  C 12.5326797385621 24.3939393939394  12.1078431372549 23.5454545454545  12.1078431372549 23.5454545454545  C 12.1078431372549 23.5454545454545  10.4084967320261 23.1212121212121  10.4084967320261 23.1212121212121  C 10.4084967320261 23.1212121212121  10.4084967320261 22.2727272727273  10.4084967320261 22.2727272727273  C 10.4084967320261 22.2727272727273  8.2843137254902 22.2727272727273  8.2843137254902 22.2727272727273  C 8.2843137254902 22.2727272727273  8.2843137254902 23.1212121212121  8.2843137254902 23.1212121212121  C 8.2843137254902 23.1212121212121  6.58496732026144 23.969696969697  6.58496732026144 23.969696969697  C 6.58496732026144 23.969696969697  6.16013071895425 23.5454545454545  6.16013071895425 23.5454545454545  C 6.16013071895425 23.5454545454545  4.88562091503268 21  4.88562091503268 21  C 4.88562091503268 21  5.73529411764706 14.2121212121212  5.73529411764706 14.2121212121212  C 5.73529411764706 14.2121212121212  4.0359477124183 13.3636363636364  4.0359477124183 13.3636363636364  C 4.0359477124183 13.3636363636364  3.61111111111111 12.0909090909091  3.61111111111111 12.0909090909091  C 3.61111111111111 12.0909090909091  0.212418300653595 10.3939393939394  0.212418300653595 10.3939393939394  C 0.212418300653595 10.3939393939394  0.637254901960784 9.54545454545455  0.637254901960784 9.54545454545455  C 0.637254901960784 9.54545454545455  2.76143790849673 9.12121212121212  2.76143790849673 9.12121212121212  C 2.76143790849673 9.12121212121212  2.76143790849673 6.15151515151515  2.76143790849673 6.15151515151515  C 2.76143790849673 6.15151515151515  4.0359477124183 5.72727272727273  4.0359477124183 5.72727272727273  C 4.0359477124183 5.72727272727273  5.31045751633987 6.57575757575758  5.31045751633987 6.57575757575758  C 5.31045751633987 6.57575757575758  15.9313725490196 1.90909090909091  15.9313725490196 1.90909090909091  C 15.9313725490196 1.90909090909091  17.2058823529412 2.33333333333333  17.2058823529412 2.33333333333333  Z " fill-rule="evenodd" />
    </mask>
  </defs>
  <g transform="matrix(1 0 0 1 -148 -881 )">
    <path d="M 17.2058823529412 2.33333333333333  C 17.2058823529412 2.33333333333333  17.6307189542484 1.90909090909091  17.6307189542484 1.90909090909091  C 17.6307189542484 1.90909090909091  19.7549019607843 3.18181818181818  19.7549019607843 3.18181818181818  C 19.7549019607843 3.18181818181818  22.7287581699346 3.18181818181818  22.7287581699346 3.18181818181818  C 22.7287581699346 3.18181818181818  24.0032679738562 4.87878787878788  24.0032679738562 4.87878787878788  C 24.0032679738562 4.87878787878788  24.8529411764706 4.87878787878788  24.8529411764706 4.87878787878788  C 24.8529411764706 4.87878787878788  24.4281045751634 4.03030303030303  24.4281045751634 4.03030303030303  C 24.4281045751634 4.03030303030303  25.702614379085 4.45454545454545  25.702614379085 4.45454545454545  C 25.702614379085 4.45454545454545  25.702614379085 3.18181818181818  25.702614379085 3.18181818181818  C 25.702614379085 3.18181818181818  26.9771241830065 2.75757575757576  26.9771241830065 2.75757575757576  C 26.9771241830065 2.75757575757576  26.9771241830065 1.90909090909091  26.9771241830065 1.90909090909091  C 26.9771241830065 1.90909090909091  28.2516339869281 1.90909090909091  28.2516339869281 1.90909090909091  C 28.2516339869281 1.90909090909091  27.8267973856209 1.06060606060606  27.8267973856209 1.06060606060606  C 27.8267973856209 1.06060606060606  30.8006535947712 0.212121212121212  30.8006535947712 0.212121212121212  C 30.8006535947712 0.212121212121212  38.0228758169935 0.212121212121212  38.0228758169935 0.212121212121212  C 38.0228758169935 0.212121212121212  38.0228758169935 2.33333333333333  38.0228758169935 2.33333333333333  C 38.0228758169935 2.33333333333333  39.7222222222222 1.48484848484848  39.7222222222222 1.48484848484848  C 39.7222222222222 1.48484848484848  39.297385620915 1.06060606060606  39.297385620915 1.06060606060606  C 39.297385620915 1.06060606060606  40.5718954248366 0.212121212121212  40.5718954248366 0.212121212121212  C 40.5718954248366 0.212121212121212  42.6960784313725 0.212121212121212  42.6960784313725 0.212121212121212  C 42.6960784313725 0.212121212121212  41.8464052287582 4.45454545454545  41.8464052287582 4.45454545454545  C 41.8464052287582 4.45454545454545  45.2450980392157 4.45454545454545  45.2450980392157 4.45454545454545  C 45.2450980392157 4.45454545454545  46.5196078431373 4.87878787878788  46.5196078431373 4.87878787878788  C 46.5196078431373 4.87878787878788  46.5196078431373 5.72727272727273  46.5196078431373 5.72727272727273  C 46.5196078431373 5.72727272727273  51.1928104575163 5.3030303030303  51.1928104575163 5.3030303030303  C 51.1928104575163 5.3030303030303  51.1928104575163 6.57575757575758  51.1928104575163 6.57575757575758  C 51.1928104575163 6.57575757575758  52.4673202614379 6.15151515151515  52.4673202614379 6.15151515151515  C 52.4673202614379 6.15151515151515  53.3169934640523 7.84848484848485  53.3169934640523 7.84848484848485  C 53.3169934640523 7.84848484848485  55.8660130718954 7.84848484848485  55.8660130718954 7.84848484848485  C 55.8660130718954 7.84848484848485  56.7156862745098 7  56.7156862745098 7  C 56.7156862745098 7  56.2908496732026 5.3030303030303  56.2908496732026 5.3030303030303  C 56.2908496732026 5.3030303030303  60.5392156862745 5.3030303030303  60.5392156862745 5.3030303030303  C 60.5392156862745 5.3030303030303  61.3888888888889 7.42424242424242  61.3888888888889 7.42424242424242  C 61.3888888888889 7.42424242424242  64.7875816993464 8.27272727272727  64.7875816993464 8.27272727272727  C 64.7875816993464 8.27272727272727  63.5130718954248 9.96969696969697  63.5130718954248 9.96969696969697  C 63.5130718954248 9.96969696969697  62.2385620915033 9.12121212121212  62.2385620915033 9.12121212121212  C 62.2385620915033 9.12121212121212  61.3888888888889 10.8181818181818  61.3888888888889 10.8181818181818  C 61.3888888888889 10.8181818181818  60.5392156862745 10.8181818181818  60.5392156862745 10.8181818181818  C 60.5392156862745 10.8181818181818  60.5392156862745 11.6666666666667  60.5392156862745 11.6666666666667  C 60.5392156862745 11.6666666666667  59.6895424836601 11.2424242424242  59.6895424836601 11.2424242424242  C 59.6895424836601 11.2424242424242  59.2647058823529 12.9393939393939  59.2647058823529 12.9393939393939  C 59.2647058823529 12.9393939393939  57.140522875817 14.6363636363636  57.140522875817 14.6363636363636  C 57.140522875817 14.6363636363636  56.7156862745098 14.2121212121212  56.7156862745098 14.2121212121212  C 56.7156862745098 14.2121212121212  56.2908496732026 15.4848484848485  56.2908496732026 15.4848484848485  C 56.2908496732026 15.4848484848485  57.140522875817 15.4848484848485  57.140522875817 15.4848484848485  C 57.140522875817 15.4848484848485  57.140522875817 17.1818181818182  57.140522875817 17.1818181818182  C 57.140522875817 17.1818181818182  55.8660130718954 16.7575757575758  55.8660130718954 16.7575757575758  C 55.8660130718954 16.7575757575758  55.8660130718954 18.030303030303  55.8660130718954 18.030303030303  C 55.8660130718954 18.030303030303  56.7156862745098 17.6060606060606  56.7156862745098 17.6060606060606  C 56.7156862745098 17.6060606060606  57.9901960784314 19.3030303030303  57.9901960784314 19.3030303030303  C 57.9901960784314 19.3030303030303  58.8398692810458 19.3030303030303  58.8398692810458 19.3030303030303  C 58.8398692810458 19.3030303030303  58.8398692810458 21.4242424242424  58.8398692810458 21.4242424242424  C 58.8398692810458 21.4242424242424  57.5653594771242 21.4242424242424  57.5653594771242 21.4242424242424  C 57.5653594771242 21.4242424242424  57.140522875817 22.6969696969697  57.140522875817 22.6969696969697  C 57.140522875817 22.6969696969697  53.3169934640523 22.6969696969697  53.3169934640523 22.6969696969697  C 53.3169934640523 22.6969696969697  54.1666666666667 26.9393939393939  54.1666666666667 26.9393939393939  C 54.1666666666667 26.9393939393939  52.8921568627451 26.9393939393939  52.8921568627451 26.9393939393939  C 52.8921568627451 26.9393939393939  52.8921568627451 23.969696969697  52.8921568627451 23.969696969697  C 52.8921568627451 23.969696969697  50.7679738562092 24.3939393939394  50.7679738562092 24.3939393939394  C 50.7679738562092 24.3939393939394  50.7679738562092 23.1212121212121  50.7679738562092 23.1212121212121  C 50.7679738562092 23.1212121212121  49.0686274509804 23.1212121212121  49.0686274509804 23.1212121212121  C 49.0686274509804 23.1212121212121  49.0686274509804 20.1515151515152  49.0686274509804 20.1515151515152  C 49.0686274509804 20.1515151515152  47.3692810457516 20.1515151515152  47.3692810457516 20.1515151515152  C 47.3692810457516 20.1515151515152  47.3692810457516 18.8787878787879  47.3692810457516 18.8787878787879  C 47.3692810457516 18.8787878787879  45.2450980392157 18.4545454545455  45.2450980392157 18.4545454545455  C 45.2450980392157 18.4545454545455  44.8202614379085 19.7272727272727  44.8202614379085 19.7272727272727  C 44.8202614379085 19.7272727272727  43.1209150326797 19.7272727272727  43.1209150326797 19.7272727272727  C 43.1209150326797 19.7272727272727  41.8464052287582 23.5454545454545  41.8464052287582 23.5454545454545  C 41.8464052287582 23.5454545454545  39.7222222222222 26.0909090909091  39.7222222222222 26.0909090909091  C 39.7222222222222 26.0909090909091  38.8725490196078 25.2424242424242  38.8725490196078 25.2424242424242  C 38.8725490196078 25.2424242424242  38.0228758169935 21.8484848484848  38.0228758169935 21.8484848484848  C 38.0228758169935 21.8484848484848  37.1732026143791 21.4242424242424  37.1732026143791 21.4242424242424  C 37.1732026143791 21.4242424242424  38.0228758169935 21  38.0228758169935 21  C 38.0228758169935 21  37.1732026143791 21  37.1732026143791 21  C 37.1732026143791 21  36.7483660130719 20.1515151515152  36.7483660130719 20.1515151515152  C 36.7483660130719 20.1515151515152  32.9248366013072 21.4242424242424  32.9248366013072 21.4242424242424  C 32.9248366013072 21.4242424242424  32.0751633986928 20.5757575757576  32.0751633986928 20.5757575757576  C 32.0751633986928 20.5757575757576  30.8006535947712 21.4242424242424  30.8006535947712 21.4242424242424  C 30.8006535947712 21.4242424242424  31.2254901960784 18.8787878787879  31.2254901960784 18.8787878787879  C 31.2254901960784 18.8787878787879  29.5261437908497 16.3333333333333  29.5261437908497 16.3333333333333  C 29.5261437908497 16.3333333333333  29.5261437908497 15.0606060606061  29.5261437908497 15.0606060606061  C 29.5261437908497 15.0606060606061  26.9771241830065 14.6363636363636  26.9771241830065 14.6363636363636  C 26.9771241830065 14.6363636363636  24.8529411764706 15.0606060606061  24.8529411764706 15.0606060606061  C 24.8529411764706 15.0606060606061  25.2777777777778 16.7575757575758  25.2777777777778 16.7575757575758  C 25.2777777777778 16.7575757575758  23.1535947712418 20.1515151515152  23.1535947712418 20.1515151515152  C 23.1535947712418 20.1515151515152  22.7287581699346 24.3939393939394  22.7287581699346 24.3939393939394  C 22.7287581699346 24.3939393939394  18.0555555555556 23.1212121212121  18.0555555555556 23.1212121212121  C 18.0555555555556 23.1212121212121  16.781045751634 26.5151515151515  16.781045751634 26.5151515151515  C 16.781045751634 26.5151515151515  14.2320261437908 27.3636363636364  14.2320261437908 27.3636363636364  C 14.2320261437908 27.3636363636364  12.5326797385621 26.9393939393939  12.5326797385621 26.9393939393939  C 12.5326797385621 26.9393939393939  10.8333333333333 27.7878787878788  10.8333333333333 27.7878787878788  C 10.8333333333333 27.7878787878788  9.98366013071895 25.6666666666667  9.98366013071895 25.6666666666667  C 9.98366013071895 25.6666666666667  10.8333333333333 24.3939393939394  10.8333333333333 24.3939393939394  C 10.8333333333333 24.3939393939394  12.5326797385621 24.3939393939394  12.5326797385621 24.3939393939394  C 12.5326797385621 24.3939393939394  12.1078431372549 23.5454545454545  12.1078431372549 23.5454545454545  C 12.1078431372549 23.5454545454545  10.4084967320261 23.1212121212121  10.4084967320261 23.1212121212121  C 10.4084967320261 23.1212121212121  10.4084967320261 22.2727272727273  10.4084967320261 22.2727272727273  C 10.4084967320261 22.2727272727273  8.2843137254902 22.2727272727273  8.2843137254902 22.2727272727273  C 8.2843137254902 22.2727272727273  8.2843137254902 23.1212121212121  8.2843137254902 23.1212121212121  C 8.2843137254902 23.1212121212121  6.58496732026144 23.969696969697  6.58496732026144 23.969696969697  C 6.58496732026144 23.969696969697  6.16013071895425 23.5454545454545  6.16013071895425 23.5454545454545  C 6.16013071895425 23.5454545454545  4.88562091503268 21  4.88562091503268 21  C 4.88562091503268 21  5.73529411764706 14.2121212121212  5.73529411764706 14.2121212121212  C 5.73529411764706 14.2121212121212  4.0359477124183 13.3636363636364  4.0359477124183 13.3636363636364  C 4.0359477124183 13.3636363636364  3.61111111111111 12.0909090909091  3.61111111111111 12.0909090909091  C 3.61111111111111 12.0909090909091  0.212418300653595 10.3939393939394  0.212418300653595 10.3939393939394  C 0.212418300653595 10.3939393939394  0.637254901960784 9.54545454545455  0.637254901960784 9.54545454545455  C 0.637254901960784 9.54545454545455  2.76143790849673 9.12121212121212  2.76143790849673 9.12121212121212  C 2.76143790849673 9.12121212121212  2.76143790849673 6.15151515151515  2.76143790849673 6.15151515151515  C 2.76143790849673 6.15151515151515  4.0359477124183 5.72727272727273  4.0359477124183 5.72727272727273  C 4.0359477124183 5.72727272727273  5.31045751633987 6.57575757575758  5.31045751633987 6.57575757575758  C 5.31045751633987 6.57575757575758  15.9313725490196 1.90909090909091  15.9313725490196 1.90909090909091  C 15.9313725490196 1.90909090909091  17.2058823529412 2.33333333333333  17.2058823529412 2.33333333333333  Z " fill-rule="nonzero" fill="#ffffff" stroke="none" fill-opacity="0" transform="matrix(1 0 0 1 148 881 )" />
    <path d="M 17.2058823529412 2.33333333333333  C 17.2058823529412 2.33333333333333  17.6307189542484 1.90909090909091  17.6307189542484 1.90909090909091  C 17.6307189542484 1.90909090909091  19.7549019607843 3.18181818181818  19.7549019607843 3.18181818181818  C 19.7549019607843 3.18181818181818  22.7287581699346 3.18181818181818  22.7287581699346 3.18181818181818  C 22.7287581699346 3.18181818181818  24.0032679738562 4.87878787878788  24.0032679738562 4.87878787878788  C 24.0032679738562 4.87878787878788  24.8529411764706 4.87878787878788  24.8529411764706 4.87878787878788  C 24.8529411764706 4.87878787878788  24.4281045751634 4.03030303030303  24.4281045751634 4.03030303030303  C 24.4281045751634 4.03030303030303  25.702614379085 4.45454545454545  25.702614379085 4.45454545454545  C 25.702614379085 4.45454545454545  25.702614379085 3.18181818181818  25.702614379085 3.18181818181818  C 25.702614379085 3.18181818181818  26.9771241830065 2.75757575757576  26.9771241830065 2.75757575757576  C 26.9771241830065 2.75757575757576  26.9771241830065 1.90909090909091  26.9771241830065 1.90909090909091  C 26.9771241830065 1.90909090909091  28.2516339869281 1.90909090909091  28.2516339869281 1.90909090909091  C 28.2516339869281 1.90909090909091  27.8267973856209 1.06060606060606  27.8267973856209 1.06060606060606  C 27.8267973856209 1.06060606060606  30.8006535947712 0.212121212121212  30.8006535947712 0.212121212121212  C 30.8006535947712 0.212121212121212  38.0228758169935 0.212121212121212  38.0228758169935 0.212121212121212  C 38.0228758169935 0.212121212121212  38.0228758169935 2.33333333333333  38.0228758169935 2.33333333333333  C 38.0228758169935 2.33333333333333  39.7222222222222 1.48484848484848  39.7222222222222 1.48484848484848  C 39.7222222222222 1.48484848484848  39.297385620915 1.06060606060606  39.297385620915 1.06060606060606  C 39.297385620915 1.06060606060606  40.5718954248366 0.212121212121212  40.5718954248366 0.212121212121212  C 40.5718954248366 0.212121212121212  42.6960784313725 0.212121212121212  42.6960784313725 0.212121212121212  C 42.6960784313725 0.212121212121212  41.8464052287582 4.45454545454545  41.8464052287582 4.45454545454545  C 41.8464052287582 4.45454545454545  45.2450980392157 4.45454545454545  45.2450980392157 4.45454545454545  C 45.2450980392157 4.45454545454545  46.5196078431373 4.87878787878788  46.5196078431373 4.87878787878788  C 46.5196078431373 4.87878787878788  46.5196078431373 5.72727272727273  46.5196078431373 5.72727272727273  C 46.5196078431373 5.72727272727273  51.1928104575163 5.3030303030303  51.1928104575163 5.3030303030303  C 51.1928104575163 5.3030303030303  51.1928104575163 6.57575757575758  51.1928104575163 6.57575757575758  C 51.1928104575163 6.57575757575758  52.4673202614379 6.15151515151515  52.4673202614379 6.15151515151515  C 52.4673202614379 6.15151515151515  53.3169934640523 7.84848484848485  53.3169934640523 7.84848484848485  C 53.3169934640523 7.84848484848485  55.8660130718954 7.84848484848485  55.8660130718954 7.84848484848485  C 55.8660130718954 7.84848484848485  56.7156862745098 7  56.7156862745098 7  C 56.7156862745098 7  56.2908496732026 5.3030303030303  56.2908496732026 5.3030303030303  C 56.2908496732026 5.3030303030303  60.5392156862745 5.3030303030303  60.5392156862745 5.3030303030303  C 60.5392156862745 5.3030303030303  61.3888888888889 7.42424242424242  61.3888888888889 7.42424242424242  C 61.3888888888889 7.42424242424242  64.7875816993464 8.27272727272727  64.7875816993464 8.27272727272727  C 64.7875816993464 8.27272727272727  63.5130718954248 9.96969696969697  63.5130718954248 9.96969696969697  C 63.5130718954248 9.96969696969697  62.2385620915033 9.12121212121212  62.2385620915033 9.12121212121212  C 62.2385620915033 9.12121212121212  61.3888888888889 10.8181818181818  61.3888888888889 10.8181818181818  C 61.3888888888889 10.8181818181818  60.5392156862745 10.8181818181818  60.5392156862745 10.8181818181818  C 60.5392156862745 10.8181818181818  60.5392156862745 11.6666666666667  60.5392156862745 11.6666666666667  C 60.5392156862745 11.6666666666667  59.6895424836601 11.2424242424242  59.6895424836601 11.2424242424242  C 59.6895424836601 11.2424242424242  59.2647058823529 12.9393939393939  59.2647058823529 12.9393939393939  C 59.2647058823529 12.9393939393939  57.140522875817 14.6363636363636  57.140522875817 14.6363636363636  C 57.140522875817 14.6363636363636  56.7156862745098 14.2121212121212  56.7156862745098 14.2121212121212  C 56.7156862745098 14.2121212121212  56.2908496732026 15.4848484848485  56.2908496732026 15.4848484848485  C 56.2908496732026 15.4848484848485  57.140522875817 15.4848484848485  57.140522875817 15.4848484848485  C 57.140522875817 15.4848484848485  57.140522875817 17.1818181818182  57.140522875817 17.1818181818182  C 57.140522875817 17.1818181818182  55.8660130718954 16.7575757575758  55.8660130718954 16.7575757575758  C 55.8660130718954 16.7575757575758  55.8660130718954 18.030303030303  55.8660130718954 18.030303030303  C 55.8660130718954 18.030303030303  56.7156862745098 17.6060606060606  56.7156862745098 17.6060606060606  C 56.7156862745098 17.6060606060606  57.9901960784314 19.3030303030303  57.9901960784314 19.3030303030303  C 57.9901960784314 19.3030303030303  58.8398692810458 19.3030303030303  58.8398692810458 19.3030303030303  C 58.8398692810458 19.3030303030303  58.8398692810458 21.4242424242424  58.8398692810458 21.4242424242424  C 58.8398692810458 21.4242424242424  57.5653594771242 21.4242424242424  57.5653594771242 21.4242424242424  C 57.5653594771242 21.4242424242424  57.140522875817 22.6969696969697  57.140522875817 22.6969696969697  C 57.140522875817 22.6969696969697  53.3169934640523 22.6969696969697  53.3169934640523 22.6969696969697  C 53.3169934640523 22.6969696969697  54.1666666666667 26.9393939393939  54.1666666666667 26.9393939393939  C 54.1666666666667 26.9393939393939  52.8921568627451 26.9393939393939  52.8921568627451 26.9393939393939  C 52.8921568627451 26.9393939393939  52.8921568627451 23.969696969697  52.8921568627451 23.969696969697  C 52.8921568627451 23.969696969697  50.7679738562092 24.3939393939394  50.7679738562092 24.3939393939394  C 50.7679738562092 24.3939393939394  50.7679738562092 23.1212121212121  50.7679738562092 23.1212121212121  C 50.7679738562092 23.1212121212121  49.0686274509804 23.1212121212121  49.0686274509804 23.1212121212121  C 49.0686274509804 23.1212121212121  49.0686274509804 20.1515151515152  49.0686274509804 20.1515151515152  C 49.0686274509804 20.1515151515152  47.3692810457516 20.1515151515152  47.3692810457516 20.1515151515152  C 47.3692810457516 20.1515151515152  47.3692810457516 18.8787878787879  47.3692810457516 18.8787878787879  C 47.3692810457516 18.8787878787879  45.2450980392157 18.4545454545455  45.2450980392157 18.4545454545455  C 45.2450980392157 18.4545454545455  44.8202614379085 19.7272727272727  44.8202614379085 19.7272727272727  C 44.8202614379085 19.7272727272727  43.1209150326797 19.7272727272727  43.1209150326797 19.7272727272727  C 43.1209150326797 19.7272727272727  41.8464052287582 23.5454545454545  41.8464052287582 23.5454545454545  C 41.8464052287582 23.5454545454545  39.7222222222222 26.0909090909091  39.7222222222222 26.0909090909091  C 39.7222222222222 26.0909090909091  38.8725490196078 25.2424242424242  38.8725490196078 25.2424242424242  C 38.8725490196078 25.2424242424242  38.0228758169935 21.8484848484848  38.0228758169935 21.8484848484848  C 38.0228758169935 21.8484848484848  37.1732026143791 21.4242424242424  37.1732026143791 21.4242424242424  C 37.1732026143791 21.4242424242424  38.0228758169935 21  38.0228758169935 21  C 38.0228758169935 21  37.1732026143791 21  37.1732026143791 21  C 37.1732026143791 21  36.7483660130719 20.1515151515152  36.7483660130719 20.1515151515152  C 36.7483660130719 20.1515151515152  32.9248366013072 21.4242424242424  32.9248366013072 21.4242424242424  C 32.9248366013072 21.4242424242424  32.0751633986928 20.5757575757576  32.0751633986928 20.5757575757576  C 32.0751633986928 20.5757575757576  30.8006535947712 21.4242424242424  30.8006535947712 21.4242424242424  C 30.8006535947712 21.4242424242424  31.2254901960784 18.8787878787879  31.2254901960784 18.8787878787879  C 31.2254901960784 18.8787878787879  29.5261437908497 16.3333333333333  29.5261437908497 16.3333333333333  C 29.5261437908497 16.3333333333333  29.5261437908497 15.0606060606061  29.5261437908497 15.0606060606061  C 29.5261437908497 15.0606060606061  26.9771241830065 14.6363636363636  26.9771241830065 14.6363636363636  C 26.9771241830065 14.6363636363636  24.8529411764706 15.0606060606061  24.8529411764706 15.0606060606061  C 24.8529411764706 15.0606060606061  25.2777777777778 16.7575757575758  25.2777777777778 16.7575757575758  C 25.2777777777778 16.7575757575758  23.1535947712418 20.1515151515152  23.1535947712418 20.1515151515152  C 23.1535947712418 20.1515151515152  22.7287581699346 24.3939393939394  22.7287581699346 24.3939393939394  C 22.7287581699346 24.3939393939394  18.0555555555556 23.1212121212121  18.0555555555556 23.1212121212121  C 18.0555555555556 23.1212121212121  16.781045751634 26.5151515151515  16.781045751634 26.5151515151515  C 16.781045751634 26.5151515151515  14.2320261437908 27.3636363636364  14.2320261437908 27.3636363636364  C 14.2320261437908 27.3636363636364  12.5326797385621 26.9393939393939  12.5326797385621 26.9393939393939  C 12.5326797385621 26.9393939393939  10.8333333333333 27.7878787878788  10.8333333333333 27.7878787878788  C 10.8333333333333 27.7878787878788  9.98366013071895 25.6666666666667  9.98366013071895 25.6666666666667  C 9.98366013071895 25.6666666666667  10.8333333333333 24.3939393939394  10.8333333333333 24.3939393939394  C 10.8333333333333 24.3939393939394  12.5326797385621 24.3939393939394  12.5326797385621 24.3939393939394  C 12.5326797385621 24.3939393939394  12.1078431372549 23.5454545454545  12.1078431372549 23.5454545454545  C 12.1078431372549 23.5454545454545  10.4084967320261 23.1212121212121  10.4084967320261 23.1212121212121  C 10.4084967320261 23.1212121212121  10.4084967320261 22.2727272727273  10.4084967320261 22.2727272727273  C 10.4084967320261 22.2727272727273  8.2843137254902 22.2727272727273  8.2843137254902 22.2727272727273  C 8.2843137254902 22.2727272727273  8.2843137254902 23.1212121212121  8.2843137254902 23.1212121212121  C 8.2843137254902 23.1212121212121  6.58496732026144 23.969696969697  6.58496732026144 23.969696969697  C 6.58496732026144 23.969696969697  6.16013071895425 23.5454545454545  6.16013071895425 23.5454545454545  C 6.16013071895425 23.5454545454545  4.88562091503268 21  4.88562091503268 21  C 4.88562091503268 21  5.73529411764706 14.2121212121212  5.73529411764706 14.2121212121212  C 5.73529411764706 14.2121212121212  4.0359477124183 13.3636363636364  4.0359477124183 13.3636363636364  C 4.0359477124183 13.3636363636364  3.61111111111111 12.0909090909091  3.61111111111111 12.0909090909091  C 3.61111111111111 12.0909090909091  0.212418300653595 10.3939393939394  0.212418300653595 10.3939393939394  C 0.212418300653595 10.3939393939394  0.637254901960784 9.54545454545455  0.637254901960784 9.54545454545455  C 0.637254901960784 9.54545454545455  2.76143790849673 9.12121212121212  2.76143790849673 9.12121212121212  C 2.76143790849673 9.12121212121212  2.76143790849673 6.15151515151515  2.76143790849673 6.15151515151515  C 2.76143790849673 6.15151515151515  4.0359477124183 5.72727272727273  4.0359477124183 5.72727272727273  C 4.0359477124183 5.72727272727273  5.31045751633987 6.57575757575758  5.31045751633987 6.57575757575758  C 5.31045751633987 6.57575757575758  15.9313725490196 1.90909090909091  15.9313725490196 1.90909090909091  C 15.9313725490196 1.90909090909091  17.2058823529412 2.33333333333333  17.2058823529412 2.33333333333333  Z " stroke-width="2" stroke-dasharray="1,1" stroke="#999999" fill="none" transform="matrix(1 0 0 1 148 881 )" mask="url(#clip26)" />
  </g>
</svg>