<?xml version="1.0" encoding="utf-8"?>
<svg version="1.1" xmlns:xlink="http://www.w3.org/1999/xlink" width="24px" height="25px" xmlns="http://www.w3.org/2000/svg">
  <defs>
    <mask fill="white" id="clip27">
      <path d="M 22.5 20.1271186440678  C 22.5 20.1271186440678  23.7857142857143 20.1271186440678  23.7857142857143 20.1271186440678  C 23.7857142857143 20.1271186440678  19.5 20.9745762711864  19.5 20.9745762711864  C 19.5 20.9745762711864  19.9285714285714 21.8220338983051  19.9285714285714 21.8220338983051  C 19.9285714285714 21.8220338983051  18.6428571428571 21.8220338983051  18.6428571428571 21.8220338983051  C 18.6428571428571 21.8220338983051  18.6428571428571 22.6694915254237  18.6428571428571 22.6694915254237  C 18.6428571428571 22.6694915254237  17.3571428571429 23.0932203389831  17.3571428571429 23.0932203389831  C 17.3571428571429 23.0932203389831  17.3571428571429 24.364406779661  17.3571428571429 24.364406779661  C 17.3571428571429 24.364406779661  16.0714285714286 23.9406779661017  16.0714285714286 23.9406779661017  C 16.0714285714286 23.9406779661017  16.5 24.7881355932203  16.5 24.7881355932203  C 16.5 24.7881355932203  15.6428571428571 24.7881355932203  15.6428571428571 24.7881355932203  C 15.6428571428571 24.7881355932203  14.3571428571429 23.0932203389831  14.3571428571429 23.0932203389831  C 14.3571428571429 23.0932203389831  10.9285714285714 23.0932203389831  10.9285714285714 23.0932203389831  C 10.9285714285714 23.0932203389831  8.78571428571428 21.8220338983051  8.78571428571428 21.8220338983051  C 8.78571428571428 21.8220338983051  7.92857142857143 20.1271186440678  7.92857142857143 20.1271186440678  C 7.92857142857143 20.1271186440678  6.64285714285714 19.2796610169492  6.64285714285714 19.2796610169492  C 6.64285714285714 19.2796610169492  6.64285714285714 18.0084745762712  6.64285714285714 18.0084745762712  C 6.64285714285714 18.0084745762712  5.78571428571429 17.5847457627119  5.78571428571429 17.5847457627119  C 5.78571428571429 17.5847457627119  4.5 15.0423728813559  4.5 15.0423728813559  C 4.5 15.0423728813559  3.21428571428571 14.6186440677966  3.21428571428571 14.6186440677966  C 3.21428571428571 14.6186440677966  2.35714285714286 12.0762711864407  2.35714285714286 12.0762711864407  C 2.35714285714286 12.0762711864407  1.5 12.9237288135593  1.5 12.9237288135593  C 1.5 12.9237288135593  0.214285714285714 10.3813559322034  0.214285714285714 10.3813559322034  C 0.214285714285714 10.3813559322034  1.5 8.6864406779661  1.5 8.6864406779661  C 1.5 8.6864406779661  0.642857142857143 7.41525423728813  0.642857142857143 7.41525423728813  C 0.642857142857143 7.41525423728813  1.92857142857143 5.72033898305085  1.92857142857143 5.72033898305085  C 1.92857142857143 5.72033898305085  0.642857142857143 2.75423728813559  0.642857142857143 2.75423728813559  C 0.642857142857143 2.75423728813559  6.21428571428572 0.211864406779661  6.21428571428572 0.211864406779661  C 6.21428571428572 0.211864406779661  7.5 2.33050847457627  7.5 2.33050847457627  C 7.5 2.33050847457627  8.78571428571428 1.48305084745763  8.78571428571428 1.48305084745763  C 8.78571428571428 1.48305084745763  9.64285714285714 3.60169491525424  9.64285714285714 3.60169491525424  C 9.64285714285714 3.60169491525424  10.5 2.75423728813559  10.5 2.75423728813559  C 10.5 2.75423728813559  10.5 1.48305084745763  10.5 1.48305084745763  C 10.5 1.48305084745763  12.2142857142857 2.33050847457627  12.2142857142857 2.33050847457627  C 12.2142857142857 2.33050847457627  12.2142857142857 4.8728813559322  12.2142857142857 4.8728813559322  C 12.2142857142857 4.8728813559322  13.0714285714286 5.29661016949153  13.0714285714286 5.29661016949153  C 13.0714285714286 5.29661016949153  13.0714285714286 6.14406779661017  13.0714285714286 6.14406779661017  C 13.0714285714286 6.14406779661017  14.7857142857143 6.99152542372881  14.7857142857143 6.99152542372881  C 14.7857142857143 6.99152542372881  16.9285714285714 10.3813559322034  16.9285714285714 10.3813559322034  C 16.9285714285714 10.3813559322034  16.9285714285714 14.1949152542373  16.9285714285714 14.1949152542373  C 16.9285714285714 14.1949152542373  15.6428571428571 14.1949152542373  15.6428571428571 14.1949152542373  C 15.6428571428571 14.1949152542373  15.6428571428571 16.3135593220339  15.6428571428571 16.3135593220339  C 15.6428571428571 16.3135593220339  19.0714285714286 15.4661016949153  19.0714285714286 15.4661016949153  C 19.0714285714286 15.4661016949153  19.5 16.3135593220339  19.5 16.3135593220339  C 19.5 16.3135593220339  22.5 15.4661016949153  22.5 15.4661016949153  C 22.5 15.4661016949153  22.5 20.1271186440678  22.5 20.1271186440678  Z " fill-rule="evenodd" />
    </mask>
  </defs>
  <g transform="matrix(1 0 0 1 -157 -861 )">
    <path d="M 22.5 20.1271186440678  C 22.5 20.1271186440678  23.7857142857143 20.1271186440678  23.7857142857143 20.1271186440678  C 23.7857142857143 20.1271186440678  19.5 20.9745762711864  19.5 20.9745762711864  C 19.5 20.9745762711864  19.9285714285714 21.8220338983051  19.9285714285714 21.8220338983051  C 19.9285714285714 21.8220338983051  18.6428571428571 21.8220338983051  18.6428571428571 21.8220338983051  C 18.6428571428571 21.8220338983051  18.6428571428571 22.6694915254237  18.6428571428571 22.6694915254237  C 18.6428571428571 22.6694915254237  17.3571428571429 23.0932203389831  17.3571428571429 23.0932203389831  C 17.3571428571429 23.0932203389831  17.3571428571429 24.364406779661  17.3571428571429 24.364406779661  C 17.3571428571429 24.364406779661  16.0714285714286 23.9406779661017  16.0714285714286 23.9406779661017  C 16.0714285714286 23.9406779661017  16.5 24.7881355932203  16.5 24.7881355932203  C 16.5 24.7881355932203  15.6428571428571 24.7881355932203  15.6428571428571 24.7881355932203  C 15.6428571428571 24.7881355932203  14.3571428571429 23.0932203389831  14.3571428571429 23.0932203389831  C 14.3571428571429 23.0932203389831  10.9285714285714 23.0932203389831  10.9285714285714 23.0932203389831  C 10.9285714285714 23.0932203389831  8.78571428571428 21.8220338983051  8.78571428571428 21.8220338983051  C 8.78571428571428 21.8220338983051  7.92857142857143 20.1271186440678  7.92857142857143 20.1271186440678  C 7.92857142857143 20.1271186440678  6.64285714285714 19.2796610169492  6.64285714285714 19.2796610169492  C 6.64285714285714 19.2796610169492  6.64285714285714 18.0084745762712  6.64285714285714 18.0084745762712  C 6.64285714285714 18.0084745762712  5.78571428571429 17.5847457627119  5.78571428571429 17.5847457627119  C 5.78571428571429 17.5847457627119  4.5 15.0423728813559  4.5 15.0423728813559  C 4.5 15.0423728813559  3.21428571428571 14.6186440677966  3.21428571428571 14.6186440677966  C 3.21428571428571 14.6186440677966  2.35714285714286 12.0762711864407  2.35714285714286 12.0762711864407  C 2.35714285714286 12.0762711864407  1.5 12.9237288135593  1.5 12.9237288135593  C 1.5 12.9237288135593  0.214285714285714 10.3813559322034  0.214285714285714 10.3813559322034  C 0.214285714285714 10.3813559322034  1.5 8.6864406779661  1.5 8.6864406779661  C 1.5 8.6864406779661  0.642857142857143 7.41525423728813  0.642857142857143 7.41525423728813  C 0.642857142857143 7.41525423728813  1.92857142857143 5.72033898305085  1.92857142857143 5.72033898305085  C 1.92857142857143 5.72033898305085  0.642857142857143 2.75423728813559  0.642857142857143 2.75423728813559  C 0.642857142857143 2.75423728813559  6.21428571428572 0.211864406779661  6.21428571428572 0.211864406779661  C 6.21428571428572 0.211864406779661  7.5 2.33050847457627  7.5 2.33050847457627  C 7.5 2.33050847457627  8.78571428571428 1.48305084745763  8.78571428571428 1.48305084745763  C 8.78571428571428 1.48305084745763  9.64285714285714 3.60169491525424  9.64285714285714 3.60169491525424  C 9.64285714285714 3.60169491525424  10.5 2.75423728813559  10.5 2.75423728813559  C 10.5 2.75423728813559  10.5 1.48305084745763  10.5 1.48305084745763  C 10.5 1.48305084745763  12.2142857142857 2.33050847457627  12.2142857142857 2.33050847457627  C 12.2142857142857 2.33050847457627  12.2142857142857 4.8728813559322  12.2142857142857 4.8728813559322  C 12.2142857142857 4.8728813559322  13.0714285714286 5.29661016949153  13.0714285714286 5.29661016949153  C 13.0714285714286 5.29661016949153  13.0714285714286 6.14406779661017  13.0714285714286 6.14406779661017  C 13.0714285714286 6.14406779661017  14.7857142857143 6.99152542372881  14.7857142857143 6.99152542372881  C 14.7857142857143 6.99152542372881  16.9285714285714 10.3813559322034  16.9285714285714 10.3813559322034  C 16.9285714285714 10.3813559322034  16.9285714285714 14.1949152542373  16.9285714285714 14.1949152542373  C 16.9285714285714 14.1949152542373  15.6428571428571 14.1949152542373  15.6428571428571 14.1949152542373  C 15.6428571428571 14.1949152542373  15.6428571428571 16.3135593220339  15.6428571428571 16.3135593220339  C 15.6428571428571 16.3135593220339  19.0714285714286 15.4661016949153  19.0714285714286 15.4661016949153  C 19.0714285714286 15.4661016949153  19.5 16.3135593220339  19.5 16.3135593220339  C 19.5 16.3135593220339  22.5 15.4661016949153  22.5 15.4661016949153  C 22.5 15.4661016949153  22.5 20.1271186440678  22.5 20.1271186440678  Z " fill-rule="nonzero" fill="#ffffff" stroke="none" fill-opacity="0" transform="matrix(1 0 0 1 157 861 )" />
    <path d="M 22.5 20.1271186440678  C 22.5 20.1271186440678  23.7857142857143 20.1271186440678  23.7857142857143 20.1271186440678  C 23.7857142857143 20.1271186440678  19.5 20.9745762711864  19.5 20.9745762711864  C 19.5 20.9745762711864  19.9285714285714 21.8220338983051  19.9285714285714 21.8220338983051  C 19.9285714285714 21.8220338983051  18.6428571428571 21.8220338983051  18.6428571428571 21.8220338983051  C 18.6428571428571 21.8220338983051  18.6428571428571 22.6694915254237  18.6428571428571 22.6694915254237  C 18.6428571428571 22.6694915254237  17.3571428571429 23.0932203389831  17.3571428571429 23.0932203389831  C 17.3571428571429 23.0932203389831  17.3571428571429 24.364406779661  17.3571428571429 24.364406779661  C 17.3571428571429 24.364406779661  16.0714285714286 23.9406779661017  16.0714285714286 23.9406779661017  C 16.0714285714286 23.9406779661017  16.5 24.7881355932203  16.5 24.7881355932203  C 16.5 24.7881355932203  15.6428571428571 24.7881355932203  15.6428571428571 24.7881355932203  C 15.6428571428571 24.7881355932203  14.3571428571429 23.0932203389831  14.3571428571429 23.0932203389831  C 14.3571428571429 23.0932203389831  10.9285714285714 23.0932203389831  10.9285714285714 23.0932203389831  C 10.9285714285714 23.0932203389831  8.78571428571428 21.8220338983051  8.78571428571428 21.8220338983051  C 8.78571428571428 21.8220338983051  7.92857142857143 20.1271186440678  7.92857142857143 20.1271186440678  C 7.92857142857143 20.1271186440678  6.64285714285714 19.2796610169492  6.64285714285714 19.2796610169492  C 6.64285714285714 19.2796610169492  6.64285714285714 18.0084745762712  6.64285714285714 18.0084745762712  C 6.64285714285714 18.0084745762712  5.78571428571429 17.5847457627119  5.78571428571429 17.5847457627119  C 5.78571428571429 17.5847457627119  4.5 15.0423728813559  4.5 15.0423728813559  C 4.5 15.0423728813559  3.21428571428571 14.6186440677966  3.21428571428571 14.6186440677966  C 3.21428571428571 14.6186440677966  2.35714285714286 12.0762711864407  2.35714285714286 12.0762711864407  C 2.35714285714286 12.0762711864407  1.5 12.9237288135593  1.5 12.9237288135593  C 1.5 12.9237288135593  0.214285714285714 10.3813559322034  0.214285714285714 10.3813559322034  C 0.214285714285714 10.3813559322034  1.5 8.6864406779661  1.5 8.6864406779661  C 1.5 8.6864406779661  0.642857142857143 7.41525423728813  0.642857142857143 7.41525423728813  C 0.642857142857143 7.41525423728813  1.92857142857143 5.72033898305085  1.92857142857143 5.72033898305085  C 1.92857142857143 5.72033898305085  0.642857142857143 2.75423728813559  0.642857142857143 2.75423728813559  C 0.642857142857143 2.75423728813559  6.21428571428572 0.211864406779661  6.21428571428572 0.211864406779661  C 6.21428571428572 0.211864406779661  7.5 2.33050847457627  7.5 2.33050847457627  C 7.5 2.33050847457627  8.78571428571428 1.48305084745763  8.78571428571428 1.48305084745763  C 8.78571428571428 1.48305084745763  9.64285714285714 3.60169491525424  9.64285714285714 3.60169491525424  C 9.64285714285714 3.60169491525424  10.5 2.75423728813559  10.5 2.75423728813559  C 10.5 2.75423728813559  10.5 1.48305084745763  10.5 1.48305084745763  C 10.5 1.48305084745763  12.2142857142857 2.33050847457627  12.2142857142857 2.33050847457627  C 12.2142857142857 2.33050847457627  12.2142857142857 4.8728813559322  12.2142857142857 4.8728813559322  C 12.2142857142857 4.8728813559322  13.0714285714286 5.29661016949153  13.0714285714286 5.29661016949153  C 13.0714285714286 5.29661016949153  13.0714285714286 6.14406779661017  13.0714285714286 6.14406779661017  C 13.0714285714286 6.14406779661017  14.7857142857143 6.99152542372881  14.7857142857143 6.99152542372881  C 14.7857142857143 6.99152542372881  16.9285714285714 10.3813559322034  16.9285714285714 10.3813559322034  C 16.9285714285714 10.3813559322034  16.9285714285714 14.1949152542373  16.9285714285714 14.1949152542373  C 16.9285714285714 14.1949152542373  15.6428571428571 14.1949152542373  15.6428571428571 14.1949152542373  C 15.6428571428571 14.1949152542373  15.6428571428571 16.3135593220339  15.6428571428571 16.3135593220339  C 15.6428571428571 16.3135593220339  19.0714285714286 15.4661016949153  19.0714285714286 15.4661016949153  C 19.0714285714286 15.4661016949153  19.5 16.3135593220339  19.5 16.3135593220339  C 19.5 16.3135593220339  22.5 15.4661016949153  22.5 15.4661016949153  C 22.5 15.4661016949153  22.5 20.1271186440678  22.5 20.1271186440678  Z " stroke-width="2" stroke-dasharray="1,1" stroke="#999999" fill="none" transform="matrix(1 0 0 1 157 861 )" mask="url(#clip27)" />
  </g>
</svg>