<?xml version="1.0" encoding="utf-8"?>
<svg version="1.1" xmlns:xlink="http://www.w3.org/1999/xlink" width="116px" height="74px" xmlns="http://www.w3.org/2000/svg">
  <defs>
    <mask fill="white" id="clip29">
      <path d="M 65.3550724637681 6.51704545454546  C 65.3550724637681 6.51704545454546  66.6159420289855 6.09659090909091  66.6159420289855 6.09659090909091  C 66.6159420289855 6.09659090909091  68.2971014492754 6.09659090909091  68.2971014492754 6.09659090909091  C 68.2971014492754 6.09659090909091  70.8188405797102 8.19886363636364  70.8188405797102 8.19886363636364  C 70.8188405797102 8.19886363636364  77.1231884057971 9.03977272727273  77.1231884057971 9.03977272727273  C 77.1231884057971 9.03977272727273  80.9057971014493 14.5056818181818  80.9057971014493 14.5056818181818  C 80.9057971014493 14.5056818181818  80.4855072463768 15.3465909090909  80.4855072463768 15.3465909090909  C 80.4855072463768 15.3465909090909  82.5869565217391 16.6079545454545  82.5869565217391 16.6079545454545  C 82.5869565217391 16.6079545454545  82.5869565217391 15.7670454545455  82.5869565217391 15.7670454545455  C 82.5869565217391 15.7670454545455  83.4275362318841 15.3465909090909  83.4275362318841 15.3465909090909  C 83.4275362318841 15.3465909090909  83.0072463768116 17.4488636363636  83.0072463768116 17.4488636363636  C 83.0072463768116 17.4488636363636  84.268115942029 20.8125  84.268115942029 20.8125  C 84.268115942029 20.8125  86.7898550724638 19.1306818181818  86.7898550724638 19.1306818181818  C 86.7898550724638 19.1306818181818  92.2536231884058 21.2329545454545  92.2536231884058 21.2329545454545  C 92.2536231884058 21.2329545454545  93.9347826086957 19.5511363636364  93.9347826086957 19.5511363636364  C 93.9347826086957 19.5511363636364  94.3550724637681 19.9715909090909  94.3550724637681 19.9715909090909  C 94.3550724637681 19.9715909090909  94.7753623188406 19.1306818181818  94.7753623188406 19.1306818181818  C 94.7753623188406 19.1306818181818  96.4565217391304 19.1306818181818  96.4565217391304 19.1306818181818  C 96.4565217391304 19.1306818181818  97.2971014492754 20.3920454545455  97.2971014492754 20.3920454545455  C 97.2971014492754 20.3920454545455  98.9782608695652 21.2329545454545  98.9782608695652 21.2329545454545  C 98.9782608695652 21.2329545454545  99.8188405797102 23.7556818181818  99.8188405797102 23.7556818181818  C 99.8188405797102 23.7556818181818  99.3985507246377 25.4375  99.3985507246377 25.4375  C 99.3985507246377 25.4375  101.079710144928 29.6420454545455  101.079710144928 29.6420454545455  C 101.079710144928 29.6420454545455  108.644927536232 29.6420454545455  108.644927536232 29.6420454545455  C 108.644927536232 29.6420454545455  110.326086956522 30.0625  110.326086956522 30.0625  C 110.326086956522 30.0625  112.007246376812 31.7443181818182  112.007246376812 31.7443181818182  C 112.007246376812 31.7443181818182  113.268115942029 31.7443181818182  113.268115942029 31.7443181818182  C 113.268115942029 31.7443181818182  114.108695652174 32.5852272727273  114.108695652174 32.5852272727273  C 114.108695652174 32.5852272727273  115.789855072464 34.6875  115.789855072464 34.6875  C 115.789855072464 34.6875  115.369565217391 35.9488636363636  115.369565217391 35.9488636363636  C 115.369565217391 35.9488636363636  113.688405797101 35.9488636363636  113.688405797101 35.9488636363636  C 113.688405797101 35.9488636363636  111.166666666667 38.4715909090909  111.166666666667 38.4715909090909  C 111.166666666667 38.4715909090909  107.384057971014 39.3125  107.384057971014 39.3125  C 107.384057971014 39.3125  106.54347826087 40.1534090909091  106.54347826087 40.1534090909091  C 106.54347826087 40.1534090909091  107.804347826087 43.0965909090909  107.804347826087 43.0965909090909  C 107.804347826087 43.0965909090909  106.54347826087 44.7784090909091  106.54347826087 44.7784090909091  C 106.54347826087 44.7784090909091  107.384057971014 46.0397727272727  107.384057971014 46.0397727272727  C 107.384057971014 46.0397727272727  106.123188405797 47.7215909090909  106.123188405797 47.7215909090909  C 106.123188405797 47.7215909090909  107.384057971014 49.8238636363636  107.384057971014 49.8238636363636  C 107.384057971014 49.8238636363636  108.224637681159 49.4034090909091  108.224637681159 49.4034090909091  C 108.224637681159 49.4034090909091  108.644927536232 51.0852272727273  108.644927536232 51.0852272727273  C 108.644927536232 51.0852272727273  110.326086956522 51.9261363636364  110.326086956522 51.9261363636364  C 110.326086956522 51.9261363636364  111.586956521739 54.4488636363636  111.586956521739 54.4488636363636  C 111.586956521739 54.4488636363636  112.427536231884 54.8693181818182  112.427536231884 54.8693181818182  C 112.427536231884 54.8693181818182  112.427536231884 56.1306818181818  112.427536231884 56.1306818181818  C 112.427536231884 56.1306818181818  113.688405797101 56.9715909090909  113.688405797101 56.9715909090909  C 113.688405797101 56.9715909090909  114.528985507246 58.6534090909091  114.528985507246 58.6534090909091  C 114.528985507246 58.6534090909091  112.847826086957 58.6534090909091  112.847826086957 58.6534090909091  C 112.847826086957 58.6534090909091  112.007246376812 59.4943181818182  112.007246376812 59.4943181818182  C 112.007246376812 59.4943181818182  107.384057971014 60.7556818181818  107.384057971014 60.7556818181818  C 107.384057971014 60.7556818181818  102.340579710145 63.2784090909091  102.340579710145 63.2784090909091  C 102.340579710145 63.2784090909091  101.079710144928 62.4375  101.079710144928 62.4375  C 101.079710144928 62.4375  99.8188405797102 62.8579545454545  99.8188405797102 62.8579545454545  C 99.8188405797102 62.8579545454545  99.8188405797102 65.8011363636364  99.8188405797102 65.8011363636364  C 99.8188405797102 65.8011363636364  97.7173913043478 66.2215909090909  97.7173913043478 66.2215909090909  C 97.7173913043478 66.2215909090909  97.2971014492754 67.0625  97.2971014492754 67.0625  C 97.2971014492754 67.0625  93.9347826086957 67.0625  93.9347826086957 67.0625  C 93.9347826086957 67.0625  92.2536231884058 68.3238636363636  92.2536231884058 68.3238636363636  C 92.2536231884058 68.3238636363636  91.4130434782609 66.6420454545455  91.4130434782609 66.6420454545455  C 91.4130434782609 66.6420454545455  90.1521739130435 66.6420454545455  90.1521739130435 66.6420454545455  C 90.1521739130435 66.6420454545455  87.6304347826087 68.3238636363636  87.6304347826087 68.3238636363636  C 87.6304347826087 68.3238636363636  86.7898550724638 66.6420454545455  86.7898550724638 66.6420454545455  C 86.7898550724638 66.6420454545455  87.2101449275362 63.2784090909091  87.2101449275362 63.2784090909091  C 87.2101449275362 63.2784090909091  88.0507246376812 62.8579545454545  88.0507246376812 62.8579545454545  C 88.0507246376812 62.8579545454545  88.4710144927536 61.1761363636364  88.4710144927536 61.1761363636364  C 88.4710144927536 61.1761363636364  84.268115942029 62.8579545454545  84.268115942029 62.8579545454545  C 84.268115942029 62.8579545454545  84.268115942029 62.0170454545455  84.268115942029 62.0170454545455  C 84.268115942029 62.0170454545455  82.1666666666667 62.8579545454545  82.1666666666667 62.8579545454545  C 82.1666666666667 62.8579545454545  81.3260869565217 62.0170454545455  81.3260869565217 62.0170454545455  C 81.3260869565217 62.0170454545455  77.963768115942 61.1761363636364  77.963768115942 61.1761363636364  C 77.963768115942 61.1761363636364  77.1231884057971 59.4943181818182  77.1231884057971 59.4943181818182  C 77.1231884057971 59.4943181818182  79.2246376811594 56.5511363636364  79.2246376811594 56.5511363636364  C 79.2246376811594 56.5511363636364  80.4855072463768 56.1306818181818  80.4855072463768 56.1306818181818  C 80.4855072463768 56.1306818181818  80.9057971014493 54.0284090909091  80.9057971014493 54.0284090909091  C 80.9057971014493 54.0284090909091  80.0652173913043 52.7670454545455  80.0652173913043 52.7670454545455  C 80.0652173913043 52.7670454545455  77.963768115942 53.6079545454545  77.963768115942 53.6079545454545  C 77.963768115942 53.6079545454545  74.1811594202898 53.6079545454545  74.1811594202898 53.6079545454545  C 74.1811594202898 53.6079545454545  72.0797101449275 52.7670454545455  72.0797101449275 52.7670454545455  C 72.0797101449275 52.7670454545455  70.3985507246377 53.1875  70.3985507246377 53.1875  C 70.3985507246377 53.1875  67.8768115942029 56.1306818181818  67.8768115942029 56.1306818181818  C 67.8768115942029 56.1306818181818  65.3550724637681 56.9715909090909  65.3550724637681 56.9715909090909  C 65.3550724637681 56.9715909090909  64.5144927536232 56.1306818181818  64.5144927536232 56.1306818181818  C 64.5144927536232 56.1306818181818  63.6739130434783 56.5511363636364  63.6739130434783 56.5511363636364  C 63.6739130434783 56.5511363636364  62.4130434782609 54.4488636363636  62.4130434782609 54.4488636363636  C 62.4130434782609 54.4488636363636  60.3115942028985 53.6079545454545  60.3115942028985 53.6079545454545  C 60.3115942028985 53.6079545454545  59.4710144927536 52.3465909090909  59.4710144927536 52.3465909090909  C 59.4710144927536 52.3465909090909  54.0072463768116 52.3465909090909  54.0072463768116 52.3465909090909  C 54.0072463768116 52.3465909090909  53.1666666666667 51.5056818181818  53.1666666666667 51.5056818181818  C 53.1666666666667 51.5056818181818  47.2826086956522 54.8693181818182  47.2826086956522 54.8693181818182  C 47.2826086956522 54.8693181818182  43.9202898550725 55.2897727272727  43.9202898550725 55.2897727272727  C 43.9202898550725 55.2897727272727  41.3985507246377 56.5511363636364  41.3985507246377 56.5511363636364  C 41.3985507246377 56.5511363636364  39.2971014492754 59.0738636363636  39.2971014492754 59.0738636363636  C 39.2971014492754 59.0738636363636  35.9347826086956 59.9147727272727  35.9347826086956 59.9147727272727  C 35.9347826086956 59.9147727272727  33.4130434782609 62.0170454545455  33.4130434782609 62.0170454545455  C 33.4130434782609 62.0170454545455  30.8913043478261 62.8579545454545  30.8913043478261 62.8579545454545  C 30.8913043478261 62.8579545454545  29.2101449275362 67.4829545454545  29.2101449275362 67.4829545454545  C 29.2101449275362 67.4829545454545  25.4275362318841 73.7897727272727  25.4275362318841 73.7897727272727  C 25.4275362318841 73.7897727272727  22.4855072463768 73.7897727272727  22.4855072463768 73.7897727272727  C 22.4855072463768 73.7897727272727  17.4420289855072 70.0056818181818  17.4420289855072 70.0056818181818  C 17.4420289855072 70.0056818181818  16.6014492753623 70.4261363636364  16.6014492753623 70.4261363636364  C 16.6014492753623 70.4261363636364  16.1811594202899 69.1647727272727  16.1811594202899 69.1647727272727  C 16.1811594202899 69.1647727272727  14.5 68.7443181818182  14.5 68.7443181818182  C 14.5 68.7443181818182  13.6594202898551 67.4829545454545  13.6594202898551 67.4829545454545  C 13.6594202898551 67.4829545454545  15.3405797101449 64.5397727272727  15.3405797101449 64.5397727272727  C 15.3405797101449 64.5397727272727  15.3405797101449 62.8579545454545  15.3405797101449 62.8579545454545  C 15.3405797101449 62.8579545454545  16.6014492753623 61.1761363636364  16.6014492753623 61.1761363636364  C 16.6014492753623 61.1761363636364  13.6594202898551 59.9147727272727  13.6594202898551 59.9147727272727  C 13.6594202898551 59.9147727272727  15.7608695652174 56.5511363636364  15.7608695652174 56.5511363636364  C 15.7608695652174 56.5511363636364  15.3405797101449 55.7102272727273  15.3405797101449 55.7102272727273  C 15.3405797101449 55.7102272727273  12.8188405797101 53.1875  12.8188405797101 53.1875  C 12.8188405797101 53.1875  11.1376811594203 52.7670454545455  11.1376811594203 52.7670454545455  C 11.1376811594203 52.7670454545455  9.03623188405797 49.4034090909091  9.03623188405797 49.4034090909091  C 9.03623188405797 49.4034090909091  7.77536231884058 48.5625  7.77536231884058 48.5625  C 7.77536231884058 48.5625  6.51449275362319 48.5625  6.51449275362319 48.5625  C 6.51449275362319 48.5625  3.57246376811594 46.0397727272727  3.57246376811594 46.0397727272727  C 3.57246376811594 46.0397727272727  0.630434782608696 46.4602272727273  0.630434782608696 46.4602272727273  C 0.630434782608696 46.4602272727273  1.05072463768116 43.5170454545455  1.05072463768116 43.5170454545455  C 1.05072463768116 43.5170454545455  0.210144927536232 42.2556818181818  0.210144927536232 42.2556818181818  C 0.210144927536232 42.2556818181818  2.31159420289855 38.0511363636364  2.31159420289855 38.0511363636364  C 2.31159420289855 38.0511363636364  4.41304347826087 37.6306818181818  4.41304347826087 37.6306818181818  C 4.41304347826087 37.6306818181818  4.41304347826087 35.5284090909091  4.41304347826087 35.5284090909091  C 4.41304347826087 35.5284090909091  3.15217391304348 34.6875  3.15217391304348 34.6875  C 3.15217391304348 34.6875  3.15217391304348 33.8465909090909  3.15217391304348 33.8465909090909  C 3.15217391304348 33.8465909090909  4.83333333333333 31.7443181818182  4.83333333333333 31.7443181818182  C 4.83333333333333 31.7443181818182  5.2536231884058 30.0625  5.2536231884058 30.0625  C 5.2536231884058 30.0625  8.61594202898551 28.8011363636364  8.61594202898551 28.8011363636364  C 8.61594202898551 28.8011363636364  12.3985507246377 25.4375  12.3985507246377 25.4375  C 12.3985507246377 25.4375  16.1811594202899 20.8125  16.1811594202899 20.8125  C 16.1811594202899 20.8125  18.7028985507246 20.8125  18.7028985507246 20.8125  C 18.7028985507246 20.8125  19.963768115942 19.9715909090909  19.963768115942 19.9715909090909  C 19.963768115942 19.9715909090909  20.3840579710145 17.8693181818182  20.3840579710145 17.8693181818182  C 20.3840579710145 17.8693181818182  21.6449275362319 16.6079545454545  21.6449275362319 16.6079545454545  C 21.6449275362319 16.6079545454545  23.7463768115942 15.7670454545455  23.7463768115942 15.7670454545455  C 23.7463768115942 15.7670454545455  25.0072463768116 17.0284090909091  25.0072463768116 17.0284090909091  C 25.0072463768116 17.0284090909091  25.8478260869565 16.6079545454545  25.8478260869565 16.6079545454545  C 25.8478260869565 16.6079545454545  27.1086956521739 11.9829545454545  27.1086956521739 11.9829545454545  C 27.1086956521739 11.9829545454545  32.9927536231884 12.8238636363636  32.9927536231884 12.8238636363636  C 32.9927536231884 12.8238636363636  34.2536231884058 12.4034090909091  34.2536231884058 12.4034090909091  C 34.2536231884058 12.4034090909091  34.2536231884058 10.7215909090909  34.2536231884058 10.7215909090909  C 34.2536231884058 10.7215909090909  35.9347826086956 9.88068181818182  35.9347826086956 9.88068181818182  C 35.9347826086956 9.88068181818182  36.3550724637681 10.3011363636364  36.3550724637681 10.3011363636364  C 36.3550724637681 10.3011363636364  41.8188405797101 9.46022727272727  41.8188405797101 9.46022727272727  C 41.8188405797101 9.46022727272727  42.2391304347826 10.7215909090909  42.2391304347826 10.7215909090909  C 42.2391304347826 10.7215909090909  44.3405797101449 10.7215909090909  44.3405797101449 10.7215909090909  C 44.3405797101449 10.7215909090909  42.6594202898551 9.46022727272727  42.6594202898551 9.46022727272727  C 42.6594202898551 9.46022727272727  43.9202898550725 9.03977272727273  43.9202898550725 9.03977272727273  C 43.9202898550725 9.03977272727273  46.4420289855073 10.3011363636364  46.4420289855073 10.3011363636364  C 46.4420289855073 10.3011363636364  48.1231884057971 10.3011363636364  48.1231884057971 10.3011363636364  C 48.1231884057971 10.3011363636364  50.2246376811594 8.61931818181818  50.2246376811594 8.61931818181818  C 50.2246376811594 8.61931818181818  51.0652173913044 6.9375  51.0652173913044 6.9375  C 51.0652173913044 6.9375  50.2246376811594 5.25568181818182  50.2246376811594 5.25568181818182  C 50.2246376811594 5.25568181818182  51.0652173913044 3.15340909090909  51.0652173913044 3.15340909090909  C 51.0652173913044 3.15340909090909  52.3260869565217 3.57386363636364  52.3260869565217 3.57386363636364  C 52.3260869565217 3.57386363636364  54.0072463768116 0.630681818181818  54.0072463768116 0.630681818181818  C 54.0072463768116 0.630681818181818  56.1086956521739 0.210227272727273  56.1086956521739 0.210227272727273  C 56.1086956521739 0.210227272727273  56.1086956521739 1.89204545454545  56.1086956521739 1.89204545454545  C 56.1086956521739 1.89204545454545  58.6304347826087 4.83522727272727  58.6304347826087 4.83522727272727  C 58.6304347826087 4.83522727272727  61.9927536231884 5.67613636363636  61.9927536231884 5.67613636363636  C 61.9927536231884 5.67613636363636  64.0942028985507 6.9375  64.0942028985507 6.9375  C 64.0942028985507 6.9375  63.6739130434783 6.09659090909091  63.6739130434783 6.09659090909091  C 63.6739130434783 6.09659090909091  65.3550724637681 6.51704545454546  65.3550724637681 6.51704545454546  Z " fill-rule="evenodd" />
    </mask>
  </defs>
  <g transform="matrix(1 0 0 1 -51 -824 )">
    <path d="M 65.3550724637681 6.51704545454546  C 65.3550724637681 6.51704545454546  66.6159420289855 6.09659090909091  66.6159420289855 6.09659090909091  C 66.6159420289855 6.09659090909091  68.2971014492754 6.09659090909091  68.2971014492754 6.09659090909091  C 68.2971014492754 6.09659090909091  70.8188405797102 8.19886363636364  70.8188405797102 8.19886363636364  C 70.8188405797102 8.19886363636364  77.1231884057971 9.03977272727273  77.1231884057971 9.03977272727273  C 77.1231884057971 9.03977272727273  80.9057971014493 14.5056818181818  80.9057971014493 14.5056818181818  C 80.9057971014493 14.5056818181818  80.4855072463768 15.3465909090909  80.4855072463768 15.3465909090909  C 80.4855072463768 15.3465909090909  82.5869565217391 16.6079545454545  82.5869565217391 16.6079545454545  C 82.5869565217391 16.6079545454545  82.5869565217391 15.7670454545455  82.5869565217391 15.7670454545455  C 82.5869565217391 15.7670454545455  83.4275362318841 15.3465909090909  83.4275362318841 15.3465909090909  C 83.4275362318841 15.3465909090909  83.0072463768116 17.4488636363636  83.0072463768116 17.4488636363636  C 83.0072463768116 17.4488636363636  84.268115942029 20.8125  84.268115942029 20.8125  C 84.268115942029 20.8125  86.7898550724638 19.1306818181818  86.7898550724638 19.1306818181818  C 86.7898550724638 19.1306818181818  92.2536231884058 21.2329545454545  92.2536231884058 21.2329545454545  C 92.2536231884058 21.2329545454545  93.9347826086957 19.5511363636364  93.9347826086957 19.5511363636364  C 93.9347826086957 19.5511363636364  94.3550724637681 19.9715909090909  94.3550724637681 19.9715909090909  C 94.3550724637681 19.9715909090909  94.7753623188406 19.1306818181818  94.7753623188406 19.1306818181818  C 94.7753623188406 19.1306818181818  96.4565217391304 19.1306818181818  96.4565217391304 19.1306818181818  C 96.4565217391304 19.1306818181818  97.2971014492754 20.3920454545455  97.2971014492754 20.3920454545455  C 97.2971014492754 20.3920454545455  98.9782608695652 21.2329545454545  98.9782608695652 21.2329545454545  C 98.9782608695652 21.2329545454545  99.8188405797102 23.7556818181818  99.8188405797102 23.7556818181818  C 99.8188405797102 23.7556818181818  99.3985507246377 25.4375  99.3985507246377 25.4375  C 99.3985507246377 25.4375  101.079710144928 29.6420454545455  101.079710144928 29.6420454545455  C 101.079710144928 29.6420454545455  108.644927536232 29.6420454545455  108.644927536232 29.6420454545455  C 108.644927536232 29.6420454545455  110.326086956522 30.0625  110.326086956522 30.0625  C 110.326086956522 30.0625  112.007246376812 31.7443181818182  112.007246376812 31.7443181818182  C 112.007246376812 31.7443181818182  113.268115942029 31.7443181818182  113.268115942029 31.7443181818182  C 113.268115942029 31.7443181818182  114.108695652174 32.5852272727273  114.108695652174 32.5852272727273  C 114.108695652174 32.5852272727273  115.789855072464 34.6875  115.789855072464 34.6875  C 115.789855072464 34.6875  115.369565217391 35.9488636363636  115.369565217391 35.9488636363636  C 115.369565217391 35.9488636363636  113.688405797101 35.9488636363636  113.688405797101 35.9488636363636  C 113.688405797101 35.9488636363636  111.166666666667 38.4715909090909  111.166666666667 38.4715909090909  C 111.166666666667 38.4715909090909  107.384057971014 39.3125  107.384057971014 39.3125  C 107.384057971014 39.3125  106.54347826087 40.1534090909091  106.54347826087 40.1534090909091  C 106.54347826087 40.1534090909091  107.804347826087 43.0965909090909  107.804347826087 43.0965909090909  C 107.804347826087 43.0965909090909  106.54347826087 44.7784090909091  106.54347826087 44.7784090909091  C 106.54347826087 44.7784090909091  107.384057971014 46.0397727272727  107.384057971014 46.0397727272727  C 107.384057971014 46.0397727272727  106.123188405797 47.7215909090909  106.123188405797 47.7215909090909  C 106.123188405797 47.7215909090909  107.384057971014 49.8238636363636  107.384057971014 49.8238636363636  C 107.384057971014 49.8238636363636  108.224637681159 49.4034090909091  108.224637681159 49.4034090909091  C 108.224637681159 49.4034090909091  108.644927536232 51.0852272727273  108.644927536232 51.0852272727273  C 108.644927536232 51.0852272727273  110.326086956522 51.9261363636364  110.326086956522 51.9261363636364  C 110.326086956522 51.9261363636364  111.586956521739 54.4488636363636  111.586956521739 54.4488636363636  C 111.586956521739 54.4488636363636  112.427536231884 54.8693181818182  112.427536231884 54.8693181818182  C 112.427536231884 54.8693181818182  112.427536231884 56.1306818181818  112.427536231884 56.1306818181818  C 112.427536231884 56.1306818181818  113.688405797101 56.9715909090909  113.688405797101 56.9715909090909  C 113.688405797101 56.9715909090909  114.528985507246 58.6534090909091  114.528985507246 58.6534090909091  C 114.528985507246 58.6534090909091  112.847826086957 58.6534090909091  112.847826086957 58.6534090909091  C 112.847826086957 58.6534090909091  112.007246376812 59.4943181818182  112.007246376812 59.4943181818182  C 112.007246376812 59.4943181818182  107.384057971014 60.7556818181818  107.384057971014 60.7556818181818  C 107.384057971014 60.7556818181818  102.340579710145 63.2784090909091  102.340579710145 63.2784090909091  C 102.340579710145 63.2784090909091  101.079710144928 62.4375  101.079710144928 62.4375  C 101.079710144928 62.4375  99.8188405797102 62.8579545454545  99.8188405797102 62.8579545454545  C 99.8188405797102 62.8579545454545  99.8188405797102 65.8011363636364  99.8188405797102 65.8011363636364  C 99.8188405797102 65.8011363636364  97.7173913043478 66.2215909090909  97.7173913043478 66.2215909090909  C 97.7173913043478 66.2215909090909  97.2971014492754 67.0625  97.2971014492754 67.0625  C 97.2971014492754 67.0625  93.9347826086957 67.0625  93.9347826086957 67.0625  C 93.9347826086957 67.0625  92.2536231884058 68.3238636363636  92.2536231884058 68.3238636363636  C 92.2536231884058 68.3238636363636  91.4130434782609 66.6420454545455  91.4130434782609 66.6420454545455  C 91.4130434782609 66.6420454545455  90.1521739130435 66.6420454545455  90.1521739130435 66.6420454545455  C 90.1521739130435 66.6420454545455  87.6304347826087 68.3238636363636  87.6304347826087 68.3238636363636  C 87.6304347826087 68.3238636363636  86.7898550724638 66.6420454545455  86.7898550724638 66.6420454545455  C 86.7898550724638 66.6420454545455  87.2101449275362 63.2784090909091  87.2101449275362 63.2784090909091  C 87.2101449275362 63.2784090909091  88.0507246376812 62.8579545454545  88.0507246376812 62.8579545454545  C 88.0507246376812 62.8579545454545  88.4710144927536 61.1761363636364  88.4710144927536 61.1761363636364  C 88.4710144927536 61.1761363636364  84.268115942029 62.8579545454545  84.268115942029 62.8579545454545  C 84.268115942029 62.8579545454545  84.268115942029 62.0170454545455  84.268115942029 62.0170454545455  C 84.268115942029 62.0170454545455  82.1666666666667 62.8579545454545  82.1666666666667 62.8579545454545  C 82.1666666666667 62.8579545454545  81.3260869565217 62.0170454545455  81.3260869565217 62.0170454545455  C 81.3260869565217 62.0170454545455  77.963768115942 61.1761363636364  77.963768115942 61.1761363636364  C 77.963768115942 61.1761363636364  77.1231884057971 59.4943181818182  77.1231884057971 59.4943181818182  C 77.1231884057971 59.4943181818182  79.2246376811594 56.5511363636364  79.2246376811594 56.5511363636364  C 79.2246376811594 56.5511363636364  80.4855072463768 56.1306818181818  80.4855072463768 56.1306818181818  C 80.4855072463768 56.1306818181818  80.9057971014493 54.0284090909091  80.9057971014493 54.0284090909091  C 80.9057971014493 54.0284090909091  80.0652173913043 52.7670454545455  80.0652173913043 52.7670454545455  C 80.0652173913043 52.7670454545455  77.963768115942 53.6079545454545  77.963768115942 53.6079545454545  C 77.963768115942 53.6079545454545  74.1811594202898 53.6079545454545  74.1811594202898 53.6079545454545  C 74.1811594202898 53.6079545454545  72.0797101449275 52.7670454545455  72.0797101449275 52.7670454545455  C 72.0797101449275 52.7670454545455  70.3985507246377 53.1875  70.3985507246377 53.1875  C 70.3985507246377 53.1875  67.8768115942029 56.1306818181818  67.8768115942029 56.1306818181818  C 67.8768115942029 56.1306818181818  65.3550724637681 56.9715909090909  65.3550724637681 56.9715909090909  C 65.3550724637681 56.9715909090909  64.5144927536232 56.1306818181818  64.5144927536232 56.1306818181818  C 64.5144927536232 56.1306818181818  63.6739130434783 56.5511363636364  63.6739130434783 56.5511363636364  C 63.6739130434783 56.5511363636364  62.4130434782609 54.4488636363636  62.4130434782609 54.4488636363636  C 62.4130434782609 54.4488636363636  60.3115942028985 53.6079545454545  60.3115942028985 53.6079545454545  C 60.3115942028985 53.6079545454545  59.4710144927536 52.3465909090909  59.4710144927536 52.3465909090909  C 59.4710144927536 52.3465909090909  54.0072463768116 52.3465909090909  54.0072463768116 52.3465909090909  C 54.0072463768116 52.3465909090909  53.1666666666667 51.5056818181818  53.1666666666667 51.5056818181818  C 53.1666666666667 51.5056818181818  47.2826086956522 54.8693181818182  47.2826086956522 54.8693181818182  C 47.2826086956522 54.8693181818182  43.9202898550725 55.2897727272727  43.9202898550725 55.2897727272727  C 43.9202898550725 55.2897727272727  41.3985507246377 56.5511363636364  41.3985507246377 56.5511363636364  C 41.3985507246377 56.5511363636364  39.2971014492754 59.0738636363636  39.2971014492754 59.0738636363636  C 39.2971014492754 59.0738636363636  35.9347826086956 59.9147727272727  35.9347826086956 59.9147727272727  C 35.9347826086956 59.9147727272727  33.4130434782609 62.0170454545455  33.4130434782609 62.0170454545455  C 33.4130434782609 62.0170454545455  30.8913043478261 62.8579545454545  30.8913043478261 62.8579545454545  C 30.8913043478261 62.8579545454545  29.2101449275362 67.4829545454545  29.2101449275362 67.4829545454545  C 29.2101449275362 67.4829545454545  25.4275362318841 73.7897727272727  25.4275362318841 73.7897727272727  C 25.4275362318841 73.7897727272727  22.4855072463768 73.7897727272727  22.4855072463768 73.7897727272727  C 22.4855072463768 73.7897727272727  17.4420289855072 70.0056818181818  17.4420289855072 70.0056818181818  C 17.4420289855072 70.0056818181818  16.6014492753623 70.4261363636364  16.6014492753623 70.4261363636364  C 16.6014492753623 70.4261363636364  16.1811594202899 69.1647727272727  16.1811594202899 69.1647727272727  C 16.1811594202899 69.1647727272727  14.5 68.7443181818182  14.5 68.7443181818182  C 14.5 68.7443181818182  13.6594202898551 67.4829545454545  13.6594202898551 67.4829545454545  C 13.6594202898551 67.4829545454545  15.3405797101449 64.5397727272727  15.3405797101449 64.5397727272727  C 15.3405797101449 64.5397727272727  15.3405797101449 62.8579545454545  15.3405797101449 62.8579545454545  C 15.3405797101449 62.8579545454545  16.6014492753623 61.1761363636364  16.6014492753623 61.1761363636364  C 16.6014492753623 61.1761363636364  13.6594202898551 59.9147727272727  13.6594202898551 59.9147727272727  C 13.6594202898551 59.9147727272727  15.7608695652174 56.5511363636364  15.7608695652174 56.5511363636364  C 15.7608695652174 56.5511363636364  15.3405797101449 55.7102272727273  15.3405797101449 55.7102272727273  C 15.3405797101449 55.7102272727273  12.8188405797101 53.1875  12.8188405797101 53.1875  C 12.8188405797101 53.1875  11.1376811594203 52.7670454545455  11.1376811594203 52.7670454545455  C 11.1376811594203 52.7670454545455  9.03623188405797 49.4034090909091  9.03623188405797 49.4034090909091  C 9.03623188405797 49.4034090909091  7.77536231884058 48.5625  7.77536231884058 48.5625  C 7.77536231884058 48.5625  6.51449275362319 48.5625  6.51449275362319 48.5625  C 6.51449275362319 48.5625  3.57246376811594 46.0397727272727  3.57246376811594 46.0397727272727  C 3.57246376811594 46.0397727272727  0.630434782608696 46.4602272727273  0.630434782608696 46.4602272727273  C 0.630434782608696 46.4602272727273  1.05072463768116 43.5170454545455  1.05072463768116 43.5170454545455  C 1.05072463768116 43.5170454545455  0.210144927536232 42.2556818181818  0.210144927536232 42.2556818181818  C 0.210144927536232 42.2556818181818  2.31159420289855 38.0511363636364  2.31159420289855 38.0511363636364  C 2.31159420289855 38.0511363636364  4.41304347826087 37.6306818181818  4.41304347826087 37.6306818181818  C 4.41304347826087 37.6306818181818  4.41304347826087 35.5284090909091  4.41304347826087 35.5284090909091  C 4.41304347826087 35.5284090909091  3.15217391304348 34.6875  3.15217391304348 34.6875  C 3.15217391304348 34.6875  3.15217391304348 33.8465909090909  3.15217391304348 33.8465909090909  C 3.15217391304348 33.8465909090909  4.83333333333333 31.7443181818182  4.83333333333333 31.7443181818182  C 4.83333333333333 31.7443181818182  5.2536231884058 30.0625  5.2536231884058 30.0625  C 5.2536231884058 30.0625  8.61594202898551 28.8011363636364  8.61594202898551 28.8011363636364  C 8.61594202898551 28.8011363636364  12.3985507246377 25.4375  12.3985507246377 25.4375  C 12.3985507246377 25.4375  16.1811594202899 20.8125  16.1811594202899 20.8125  C 16.1811594202899 20.8125  18.7028985507246 20.8125  18.7028985507246 20.8125  C 18.7028985507246 20.8125  19.963768115942 19.9715909090909  19.963768115942 19.9715909090909  C 19.963768115942 19.9715909090909  20.3840579710145 17.8693181818182  20.3840579710145 17.8693181818182  C 20.3840579710145 17.8693181818182  21.6449275362319 16.6079545454545  21.6449275362319 16.6079545454545  C 21.6449275362319 16.6079545454545  23.7463768115942 15.7670454545455  23.7463768115942 15.7670454545455  C 23.7463768115942 15.7670454545455  25.0072463768116 17.0284090909091  25.0072463768116 17.0284090909091  C 25.0072463768116 17.0284090909091  25.8478260869565 16.6079545454545  25.8478260869565 16.6079545454545  C 25.8478260869565 16.6079545454545  27.1086956521739 11.9829545454545  27.1086956521739 11.9829545454545  C 27.1086956521739 11.9829545454545  32.9927536231884 12.8238636363636  32.9927536231884 12.8238636363636  C 32.9927536231884 12.8238636363636  34.2536231884058 12.4034090909091  34.2536231884058 12.4034090909091  C 34.2536231884058 12.4034090909091  34.2536231884058 10.7215909090909  34.2536231884058 10.7215909090909  C 34.2536231884058 10.7215909090909  35.9347826086956 9.88068181818182  35.9347826086956 9.88068181818182  C 35.9347826086956 9.88068181818182  36.3550724637681 10.3011363636364  36.3550724637681 10.3011363636364  C 36.3550724637681 10.3011363636364  41.8188405797101 9.46022727272727  41.8188405797101 9.46022727272727  C 41.8188405797101 9.46022727272727  42.2391304347826 10.7215909090909  42.2391304347826 10.7215909090909  C 42.2391304347826 10.7215909090909  44.3405797101449 10.7215909090909  44.3405797101449 10.7215909090909  C 44.3405797101449 10.7215909090909  42.6594202898551 9.46022727272727  42.6594202898551 9.46022727272727  C 42.6594202898551 9.46022727272727  43.9202898550725 9.03977272727273  43.9202898550725 9.03977272727273  C 43.9202898550725 9.03977272727273  46.4420289855073 10.3011363636364  46.4420289855073 10.3011363636364  C 46.4420289855073 10.3011363636364  48.1231884057971 10.3011363636364  48.1231884057971 10.3011363636364  C 48.1231884057971 10.3011363636364  50.2246376811594 8.61931818181818  50.2246376811594 8.61931818181818  C 50.2246376811594 8.61931818181818  51.0652173913044 6.9375  51.0652173913044 6.9375  C 51.0652173913044 6.9375  50.2246376811594 5.25568181818182  50.2246376811594 5.25568181818182  C 50.2246376811594 5.25568181818182  51.0652173913044 3.15340909090909  51.0652173913044 3.15340909090909  C 51.0652173913044 3.15340909090909  52.3260869565217 3.57386363636364  52.3260869565217 3.57386363636364  C 52.3260869565217 3.57386363636364  54.0072463768116 0.630681818181818  54.0072463768116 0.630681818181818  C 54.0072463768116 0.630681818181818  56.1086956521739 0.210227272727273  56.1086956521739 0.210227272727273  C 56.1086956521739 0.210227272727273  56.1086956521739 1.89204545454545  56.1086956521739 1.89204545454545  C 56.1086956521739 1.89204545454545  58.6304347826087 4.83522727272727  58.6304347826087 4.83522727272727  C 58.6304347826087 4.83522727272727  61.9927536231884 5.67613636363636  61.9927536231884 5.67613636363636  C 61.9927536231884 5.67613636363636  64.0942028985507 6.9375  64.0942028985507 6.9375  C 64.0942028985507 6.9375  63.6739130434783 6.09659090909091  63.6739130434783 6.09659090909091  C 63.6739130434783 6.09659090909091  65.3550724637681 6.51704545454546  65.3550724637681 6.51704545454546  Z " fill-rule="nonzero" fill="#ffffff" stroke="none" fill-opacity="0" transform="matrix(1 0 0 1 51 824 )" />
    <path d="M 65.3550724637681 6.51704545454546  C 65.3550724637681 6.51704545454546  66.6159420289855 6.09659090909091  66.6159420289855 6.09659090909091  C 66.6159420289855 6.09659090909091  68.2971014492754 6.09659090909091  68.2971014492754 6.09659090909091  C 68.2971014492754 6.09659090909091  70.8188405797102 8.19886363636364  70.8188405797102 8.19886363636364  C 70.8188405797102 8.19886363636364  77.1231884057971 9.03977272727273  77.1231884057971 9.03977272727273  C 77.1231884057971 9.03977272727273  80.9057971014493 14.5056818181818  80.9057971014493 14.5056818181818  C 80.9057971014493 14.5056818181818  80.4855072463768 15.3465909090909  80.4855072463768 15.3465909090909  C 80.4855072463768 15.3465909090909  82.5869565217391 16.6079545454545  82.5869565217391 16.6079545454545  C 82.5869565217391 16.6079545454545  82.5869565217391 15.7670454545455  82.5869565217391 15.7670454545455  C 82.5869565217391 15.7670454545455  83.4275362318841 15.3465909090909  83.4275362318841 15.3465909090909  C 83.4275362318841 15.3465909090909  83.0072463768116 17.4488636363636  83.0072463768116 17.4488636363636  C 83.0072463768116 17.4488636363636  84.268115942029 20.8125  84.268115942029 20.8125  C 84.268115942029 20.8125  86.7898550724638 19.1306818181818  86.7898550724638 19.1306818181818  C 86.7898550724638 19.1306818181818  92.2536231884058 21.2329545454545  92.2536231884058 21.2329545454545  C 92.2536231884058 21.2329545454545  93.9347826086957 19.5511363636364  93.9347826086957 19.5511363636364  C 93.9347826086957 19.5511363636364  94.3550724637681 19.9715909090909  94.3550724637681 19.9715909090909  C 94.3550724637681 19.9715909090909  94.7753623188406 19.1306818181818  94.7753623188406 19.1306818181818  C 94.7753623188406 19.1306818181818  96.4565217391304 19.1306818181818  96.4565217391304 19.1306818181818  C 96.4565217391304 19.1306818181818  97.2971014492754 20.3920454545455  97.2971014492754 20.3920454545455  C 97.2971014492754 20.3920454545455  98.9782608695652 21.2329545454545  98.9782608695652 21.2329545454545  C 98.9782608695652 21.2329545454545  99.8188405797102 23.7556818181818  99.8188405797102 23.7556818181818  C 99.8188405797102 23.7556818181818  99.3985507246377 25.4375  99.3985507246377 25.4375  C 99.3985507246377 25.4375  101.079710144928 29.6420454545455  101.079710144928 29.6420454545455  C 101.079710144928 29.6420454545455  108.644927536232 29.6420454545455  108.644927536232 29.6420454545455  C 108.644927536232 29.6420454545455  110.326086956522 30.0625  110.326086956522 30.0625  C 110.326086956522 30.0625  112.007246376812 31.7443181818182  112.007246376812 31.7443181818182  C 112.007246376812 31.7443181818182  113.268115942029 31.7443181818182  113.268115942029 31.7443181818182  C 113.268115942029 31.7443181818182  114.108695652174 32.5852272727273  114.108695652174 32.5852272727273  C 114.108695652174 32.5852272727273  115.789855072464 34.6875  115.789855072464 34.6875  C 115.789855072464 34.6875  115.369565217391 35.9488636363636  115.369565217391 35.9488636363636  C 115.369565217391 35.9488636363636  113.688405797101 35.9488636363636  113.688405797101 35.9488636363636  C 113.688405797101 35.9488636363636  111.166666666667 38.4715909090909  111.166666666667 38.4715909090909  C 111.166666666667 38.4715909090909  107.384057971014 39.3125  107.384057971014 39.3125  C 107.384057971014 39.3125  106.54347826087 40.1534090909091  106.54347826087 40.1534090909091  C 106.54347826087 40.1534090909091  107.804347826087 43.0965909090909  107.804347826087 43.0965909090909  C 107.804347826087 43.0965909090909  106.54347826087 44.7784090909091  106.54347826087 44.7784090909091  C 106.54347826087 44.7784090909091  107.384057971014 46.0397727272727  107.384057971014 46.0397727272727  C 107.384057971014 46.0397727272727  106.123188405797 47.7215909090909  106.123188405797 47.7215909090909  C 106.123188405797 47.7215909090909  107.384057971014 49.8238636363636  107.384057971014 49.8238636363636  C 107.384057971014 49.8238636363636  108.224637681159 49.4034090909091  108.224637681159 49.4034090909091  C 108.224637681159 49.4034090909091  108.644927536232 51.0852272727273  108.644927536232 51.0852272727273  C 108.644927536232 51.0852272727273  110.326086956522 51.9261363636364  110.326086956522 51.9261363636364  C 110.326086956522 51.9261363636364  111.586956521739 54.4488636363636  111.586956521739 54.4488636363636  C 111.586956521739 54.4488636363636  112.427536231884 54.8693181818182  112.427536231884 54.8693181818182  C 112.427536231884 54.8693181818182  112.427536231884 56.1306818181818  112.427536231884 56.1306818181818  C 112.427536231884 56.1306818181818  113.688405797101 56.9715909090909  113.688405797101 56.9715909090909  C 113.688405797101 56.9715909090909  114.528985507246 58.6534090909091  114.528985507246 58.6534090909091  C 114.528985507246 58.6534090909091  112.847826086957 58.6534090909091  112.847826086957 58.6534090909091  C 112.847826086957 58.6534090909091  112.007246376812 59.4943181818182  112.007246376812 59.4943181818182  C 112.007246376812 59.4943181818182  107.384057971014 60.7556818181818  107.384057971014 60.7556818181818  C 107.384057971014 60.7556818181818  102.340579710145 63.2784090909091  102.340579710145 63.2784090909091  C 102.340579710145 63.2784090909091  101.079710144928 62.4375  101.079710144928 62.4375  C 101.079710144928 62.4375  99.8188405797102 62.8579545454545  99.8188405797102 62.8579545454545  C 99.8188405797102 62.8579545454545  99.8188405797102 65.8011363636364  99.8188405797102 65.8011363636364  C 99.8188405797102 65.8011363636364  97.7173913043478 66.2215909090909  97.7173913043478 66.2215909090909  C 97.7173913043478 66.2215909090909  97.2971014492754 67.0625  97.2971014492754 67.0625  C 97.2971014492754 67.0625  93.9347826086957 67.0625  93.9347826086957 67.0625  C 93.9347826086957 67.0625  92.2536231884058 68.3238636363636  92.2536231884058 68.3238636363636  C 92.2536231884058 68.3238636363636  91.4130434782609 66.6420454545455  91.4130434782609 66.6420454545455  C 91.4130434782609 66.6420454545455  90.1521739130435 66.6420454545455  90.1521739130435 66.6420454545455  C 90.1521739130435 66.6420454545455  87.6304347826087 68.3238636363636  87.6304347826087 68.3238636363636  C 87.6304347826087 68.3238636363636  86.7898550724638 66.6420454545455  86.7898550724638 66.6420454545455  C 86.7898550724638 66.6420454545455  87.2101449275362 63.2784090909091  87.2101449275362 63.2784090909091  C 87.2101449275362 63.2784090909091  88.0507246376812 62.8579545454545  88.0507246376812 62.8579545454545  C 88.0507246376812 62.8579545454545  88.4710144927536 61.1761363636364  88.4710144927536 61.1761363636364  C 88.4710144927536 61.1761363636364  84.268115942029 62.8579545454545  84.268115942029 62.8579545454545  C 84.268115942029 62.8579545454545  84.268115942029 62.0170454545455  84.268115942029 62.0170454545455  C 84.268115942029 62.0170454545455  82.1666666666667 62.8579545454545  82.1666666666667 62.8579545454545  C 82.1666666666667 62.8579545454545  81.3260869565217 62.0170454545455  81.3260869565217 62.0170454545455  C 81.3260869565217 62.0170454545455  77.963768115942 61.1761363636364  77.963768115942 61.1761363636364  C 77.963768115942 61.1761363636364  77.1231884057971 59.4943181818182  77.1231884057971 59.4943181818182  C 77.1231884057971 59.4943181818182  79.2246376811594 56.5511363636364  79.2246376811594 56.5511363636364  C 79.2246376811594 56.5511363636364  80.4855072463768 56.1306818181818  80.4855072463768 56.1306818181818  C 80.4855072463768 56.1306818181818  80.9057971014493 54.0284090909091  80.9057971014493 54.0284090909091  C 80.9057971014493 54.0284090909091  80.0652173913043 52.7670454545455  80.0652173913043 52.7670454545455  C 80.0652173913043 52.7670454545455  77.963768115942 53.6079545454545  77.963768115942 53.6079545454545  C 77.963768115942 53.6079545454545  74.1811594202898 53.6079545454545  74.1811594202898 53.6079545454545  C 74.1811594202898 53.6079545454545  72.0797101449275 52.7670454545455  72.0797101449275 52.7670454545455  C 72.0797101449275 52.7670454545455  70.3985507246377 53.1875  70.3985507246377 53.1875  C 70.3985507246377 53.1875  67.8768115942029 56.1306818181818  67.8768115942029 56.1306818181818  C 67.8768115942029 56.1306818181818  65.3550724637681 56.9715909090909  65.3550724637681 56.9715909090909  C 65.3550724637681 56.9715909090909  64.5144927536232 56.1306818181818  64.5144927536232 56.1306818181818  C 64.5144927536232 56.1306818181818  63.6739130434783 56.5511363636364  63.6739130434783 56.5511363636364  C 63.6739130434783 56.5511363636364  62.4130434782609 54.4488636363636  62.4130434782609 54.4488636363636  C 62.4130434782609 54.4488636363636  60.3115942028985 53.6079545454545  60.3115942028985 53.6079545454545  C 60.3115942028985 53.6079545454545  59.4710144927536 52.3465909090909  59.4710144927536 52.3465909090909  C 59.4710144927536 52.3465909090909  54.0072463768116 52.3465909090909  54.0072463768116 52.3465909090909  C 54.0072463768116 52.3465909090909  53.1666666666667 51.5056818181818  53.1666666666667 51.5056818181818  C 53.1666666666667 51.5056818181818  47.2826086956522 54.8693181818182  47.2826086956522 54.8693181818182  C 47.2826086956522 54.8693181818182  43.9202898550725 55.2897727272727  43.9202898550725 55.2897727272727  C 43.9202898550725 55.2897727272727  41.3985507246377 56.5511363636364  41.3985507246377 56.5511363636364  C 41.3985507246377 56.5511363636364  39.2971014492754 59.0738636363636  39.2971014492754 59.0738636363636  C 39.2971014492754 59.0738636363636  35.9347826086956 59.9147727272727  35.9347826086956 59.9147727272727  C 35.9347826086956 59.9147727272727  33.4130434782609 62.0170454545455  33.4130434782609 62.0170454545455  C 33.4130434782609 62.0170454545455  30.8913043478261 62.8579545454545  30.8913043478261 62.8579545454545  C 30.8913043478261 62.8579545454545  29.2101449275362 67.4829545454545  29.2101449275362 67.4829545454545  C 29.2101449275362 67.4829545454545  25.4275362318841 73.7897727272727  25.4275362318841 73.7897727272727  C 25.4275362318841 73.7897727272727  22.4855072463768 73.7897727272727  22.4855072463768 73.7897727272727  C 22.4855072463768 73.7897727272727  17.4420289855072 70.0056818181818  17.4420289855072 70.0056818181818  C 17.4420289855072 70.0056818181818  16.6014492753623 70.4261363636364  16.6014492753623 70.4261363636364  C 16.6014492753623 70.4261363636364  16.1811594202899 69.1647727272727  16.1811594202899 69.1647727272727  C 16.1811594202899 69.1647727272727  14.5 68.7443181818182  14.5 68.7443181818182  C 14.5 68.7443181818182  13.6594202898551 67.4829545454545  13.6594202898551 67.4829545454545  C 13.6594202898551 67.4829545454545  15.3405797101449 64.5397727272727  15.3405797101449 64.5397727272727  C 15.3405797101449 64.5397727272727  15.3405797101449 62.8579545454545  15.3405797101449 62.8579545454545  C 15.3405797101449 62.8579545454545  16.6014492753623 61.1761363636364  16.6014492753623 61.1761363636364  C 16.6014492753623 61.1761363636364  13.6594202898551 59.9147727272727  13.6594202898551 59.9147727272727  C 13.6594202898551 59.9147727272727  15.7608695652174 56.5511363636364  15.7608695652174 56.5511363636364  C 15.7608695652174 56.5511363636364  15.3405797101449 55.7102272727273  15.3405797101449 55.7102272727273  C 15.3405797101449 55.7102272727273  12.8188405797101 53.1875  12.8188405797101 53.1875  C 12.8188405797101 53.1875  11.1376811594203 52.7670454545455  11.1376811594203 52.7670454545455  C 11.1376811594203 52.7670454545455  9.03623188405797 49.4034090909091  9.03623188405797 49.4034090909091  C 9.03623188405797 49.4034090909091  7.77536231884058 48.5625  7.77536231884058 48.5625  C 7.77536231884058 48.5625  6.51449275362319 48.5625  6.51449275362319 48.5625  C 6.51449275362319 48.5625  3.57246376811594 46.0397727272727  3.57246376811594 46.0397727272727  C 3.57246376811594 46.0397727272727  0.630434782608696 46.4602272727273  0.630434782608696 46.4602272727273  C 0.630434782608696 46.4602272727273  1.05072463768116 43.5170454545455  1.05072463768116 43.5170454545455  C 1.05072463768116 43.5170454545455  0.210144927536232 42.2556818181818  0.210144927536232 42.2556818181818  C 0.210144927536232 42.2556818181818  2.31159420289855 38.0511363636364  2.31159420289855 38.0511363636364  C 2.31159420289855 38.0511363636364  4.41304347826087 37.6306818181818  4.41304347826087 37.6306818181818  C 4.41304347826087 37.6306818181818  4.41304347826087 35.5284090909091  4.41304347826087 35.5284090909091  C 4.41304347826087 35.5284090909091  3.15217391304348 34.6875  3.15217391304348 34.6875  C 3.15217391304348 34.6875  3.15217391304348 33.8465909090909  3.15217391304348 33.8465909090909  C 3.15217391304348 33.8465909090909  4.83333333333333 31.7443181818182  4.83333333333333 31.7443181818182  C 4.83333333333333 31.7443181818182  5.2536231884058 30.0625  5.2536231884058 30.0625  C 5.2536231884058 30.0625  8.61594202898551 28.8011363636364  8.61594202898551 28.8011363636364  C 8.61594202898551 28.8011363636364  12.3985507246377 25.4375  12.3985507246377 25.4375  C 12.3985507246377 25.4375  16.1811594202899 20.8125  16.1811594202899 20.8125  C 16.1811594202899 20.8125  18.7028985507246 20.8125  18.7028985507246 20.8125  C 18.7028985507246 20.8125  19.963768115942 19.9715909090909  19.963768115942 19.9715909090909  C 19.963768115942 19.9715909090909  20.3840579710145 17.8693181818182  20.3840579710145 17.8693181818182  C 20.3840579710145 17.8693181818182  21.6449275362319 16.6079545454545  21.6449275362319 16.6079545454545  C 21.6449275362319 16.6079545454545  23.7463768115942 15.7670454545455  23.7463768115942 15.7670454545455  C 23.7463768115942 15.7670454545455  25.0072463768116 17.0284090909091  25.0072463768116 17.0284090909091  C 25.0072463768116 17.0284090909091  25.8478260869565 16.6079545454545  25.8478260869565 16.6079545454545  C 25.8478260869565 16.6079545454545  27.1086956521739 11.9829545454545  27.1086956521739 11.9829545454545  C 27.1086956521739 11.9829545454545  32.9927536231884 12.8238636363636  32.9927536231884 12.8238636363636  C 32.9927536231884 12.8238636363636  34.2536231884058 12.4034090909091  34.2536231884058 12.4034090909091  C 34.2536231884058 12.4034090909091  34.2536231884058 10.7215909090909  34.2536231884058 10.7215909090909  C 34.2536231884058 10.7215909090909  35.9347826086956 9.88068181818182  35.9347826086956 9.88068181818182  C 35.9347826086956 9.88068181818182  36.3550724637681 10.3011363636364  36.3550724637681 10.3011363636364  C 36.3550724637681 10.3011363636364  41.8188405797101 9.46022727272727  41.8188405797101 9.46022727272727  C 41.8188405797101 9.46022727272727  42.2391304347826 10.7215909090909  42.2391304347826 10.7215909090909  C 42.2391304347826 10.7215909090909  44.3405797101449 10.7215909090909  44.3405797101449 10.7215909090909  C 44.3405797101449 10.7215909090909  42.6594202898551 9.46022727272727  42.6594202898551 9.46022727272727  C 42.6594202898551 9.46022727272727  43.9202898550725 9.03977272727273  43.9202898550725 9.03977272727273  C 43.9202898550725 9.03977272727273  46.4420289855073 10.3011363636364  46.4420289855073 10.3011363636364  C 46.4420289855073 10.3011363636364  48.1231884057971 10.3011363636364  48.1231884057971 10.3011363636364  C 48.1231884057971 10.3011363636364  50.2246376811594 8.61931818181818  50.2246376811594 8.61931818181818  C 50.2246376811594 8.61931818181818  51.0652173913044 6.9375  51.0652173913044 6.9375  C 51.0652173913044 6.9375  50.2246376811594 5.25568181818182  50.2246376811594 5.25568181818182  C 50.2246376811594 5.25568181818182  51.0652173913044 3.15340909090909  51.0652173913044 3.15340909090909  C 51.0652173913044 3.15340909090909  52.3260869565217 3.57386363636364  52.3260869565217 3.57386363636364  C 52.3260869565217 3.57386363636364  54.0072463768116 0.630681818181818  54.0072463768116 0.630681818181818  C 54.0072463768116 0.630681818181818  56.1086956521739 0.210227272727273  56.1086956521739 0.210227272727273  C 56.1086956521739 0.210227272727273  56.1086956521739 1.89204545454545  56.1086956521739 1.89204545454545  C 56.1086956521739 1.89204545454545  58.6304347826087 4.83522727272727  58.6304347826087 4.83522727272727  C 58.6304347826087 4.83522727272727  61.9927536231884 5.67613636363636  61.9927536231884 5.67613636363636  C 61.9927536231884 5.67613636363636  64.0942028985507 6.9375  64.0942028985507 6.9375  C 64.0942028985507 6.9375  63.6739130434783 6.09659090909091  63.6739130434783 6.09659090909091  C 63.6739130434783 6.09659090909091  65.3550724637681 6.51704545454546  65.3550724637681 6.51704545454546  Z " stroke-width="2" stroke-dasharray="1,1" stroke="#999999" fill="none" transform="matrix(1 0 0 1 51 824 )" mask="url(#clip29)" />
  </g>
</svg>