<?xml version="1.0" encoding="utf-8"?>
<svg version="1.1" xmlns:xlink="http://www.w3.org/1999/xlink" width="129px" height="84px" xmlns="http://www.w3.org/2000/svg">
  <defs>
    <mask fill="white" id="clip30">
      <path d="M 96.5378289473684 15.75  C 96.5378289473684 15.75  97.8108552631579 15.75  97.8108552631579 15.75  C 97.8108552631579 15.75  101.205592105263 17.43  101.205592105263 17.43  C 101.205592105263 17.43  101.629934210526 18.69  101.629934210526 18.69  C 101.629934210526 18.69  103.327302631579 19.11  103.327302631579 19.11  C 103.327302631579 19.11  102.478618421053 25.83  102.478618421053 25.83  C 102.478618421053 25.83  103.751644736842 28.35  103.751644736842 28.35  C 103.751644736842 28.35  104.175986842105 28.77  104.175986842105 28.77  C 104.175986842105 28.77  105.873355263158 27.93  105.873355263158 27.93  C 105.873355263158 27.93  105.873355263158 27.09  105.873355263158 27.09  C 105.873355263158 27.09  107.995065789474 27.09  107.995065789474 27.09  C 107.995065789474 27.09  107.995065789474 27.93  107.995065789474 27.93  C 107.995065789474 27.93  109.692434210526 28.35  109.692434210526 28.35  C 109.692434210526 28.35  110.116776315789 29.19  110.116776315789 29.19  C 110.116776315789 29.19  108.419407894737 29.19  108.419407894737 29.19  C 108.419407894737 29.19  107.570723684211 30.45  107.570723684211 30.45  C 107.570723684211 30.45  108.419407894737 32.55  108.419407894737 32.55  C 108.419407894737 32.55  110.116776315789 31.71  110.116776315789 31.71  C 110.116776315789 31.71  111.814144736842 32.13  111.814144736842 32.13  C 111.814144736842 32.13  114.360197368421 31.29  114.360197368421 31.29  C 114.360197368421 31.29  115.633223684211 27.93  115.633223684211 27.93  C 115.633223684211 27.93  120.300986842105 29.19  120.300986842105 29.19  C 120.300986842105 29.19  120.725328947368 24.99  120.725328947368 24.99  C 120.725328947368 24.99  122.847039473684 21.63  122.847039473684 21.63  C 122.847039473684 21.63  122.422697368421 19.95  122.422697368421 19.95  C 122.422697368421 19.95  126.666118421053 19.53  126.666118421053 19.53  C 126.666118421053 19.53  127.090460526316 21.21  127.090460526316 21.21  C 127.090460526316 21.21  128.363486842105 22.47  128.363486842105 22.47  C 128.363486842105 22.47  128.787828947368 32.13  128.787828947368 32.13  C 128.787828947368 32.13  128.363486842105 35.07  128.363486842105 35.07  C 128.363486842105 35.07  127.090460526316 36.75  127.090460526316 36.75  C 127.090460526316 36.75  127.939144736842 39.27  127.939144736842 39.27  C 127.939144736842 39.27  127.514802631579 41.37  127.514802631579 41.37  C 127.514802631579 41.37  125.817434210526 42.63  125.817434210526 42.63  C 125.817434210526 42.63  125.817434210526 44.73  125.817434210526 44.73  C 125.817434210526 44.73  123.695723684211 49.77  123.695723684211 49.77  C 123.695723684211 49.77  124.120065789474 52.29  124.120065789474 52.29  C 124.120065789474 52.29  122.847039473684 54.81  122.847039473684 54.81  C 122.847039473684 54.81  123.271381578947 63.63  123.271381578947 63.63  C 123.271381578947 63.63  124.120065789474 65.73  124.120065789474 65.73  C 124.120065789474 65.73  123.695723684211 66.57  123.695723684211 66.57  C 123.695723684211 66.57  124.544407894737 66.57  124.544407894737 66.57  C 124.544407894737 66.57  123.695723684211 69.51  123.695723684211 69.51  C 123.695723684211 69.51  121.574013157895 69.51  121.574013157895 69.51  C 121.574013157895 69.51  120.725328947368 67.83  120.725328947368 67.83  C 120.725328947368 67.83  116.90625 66.99  116.90625 66.99  C 116.90625 66.99  116.90625 67.83  116.90625 67.83  C 116.90625 67.83  113.087171052632 68.67  113.087171052632 68.67  C 113.087171052632 68.67  112.662828947368 70.35  112.662828947368 70.35  C 112.662828947368 70.35  109.692434210526 71.61  109.692434210526 71.61  C 109.692434210526 71.61  108.419407894737 71.19  108.419407894737 71.19  C 108.419407894737 71.19  108.419407894737 70.35  108.419407894737 70.35  C 108.419407894737 70.35  107.570723684211 70.35  107.570723684211 70.35  C 107.570723684211 70.35  107.146381578947 71.19  107.146381578947 71.19  C 107.146381578947 71.19  105.873355263158 70.77  105.873355263158 70.77  C 105.873355263158 70.77  105.024671052632 69.09  105.024671052632 69.09  C 105.024671052632 69.09  105.024671052632 69.93  105.024671052632 69.93  C 105.024671052632 69.93  94.4161184210526 70.77  94.4161184210526 70.77  C 94.4161184210526 70.77  93.1430921052632 69.93  93.1430921052632 69.93  C 93.1430921052632 69.93  93.5674342105263 67.83  93.5674342105263 67.83  C 93.5674342105263 67.83  91.4457236842105 67.41  91.4457236842105 67.41  C 91.4457236842105 67.41  91.4457236842105 68.67  91.4457236842105 68.67  C 91.4457236842105 68.67  88.8996710526316 69.93  88.8996710526316 69.93  C 88.8996710526316 69.93  88.0509868421053 66.57  88.0509868421053 66.57  C 88.0509868421053 66.57  85.9292763157895 66.15  85.9292763157895 66.15  C 85.9292763157895 66.15  85.9292763157895 70.77  85.9292763157895 70.77  C 85.9292763157895 70.77  84.65625 70.77  84.65625 70.77  C 84.65625 70.77  84.65625 72.03  84.65625 72.03  C 84.65625 72.03  82.9588815789474 72.87  82.9588815789474 72.87  C 82.9588815789474 72.87  82.5345394736842 72.03  82.5345394736842 72.03  C 82.5345394736842 72.03  81.6858552631579 72.03  81.6858552631579 72.03  C 81.6858552631579 72.03  81.6858552631579 70.35  81.6858552631579 70.35  C 81.6858552631579 70.35  79.9884868421053 69.51  79.9884868421053 69.51  C 79.9884868421053 69.51  77.8667763157895 65.73  77.8667763157895 65.73  C 77.8667763157895 65.73  75.7450657894737 65.31  75.7450657894737 65.31  C 75.7450657894737 65.31  74.8963815789474 66.99  74.8963815789474 66.99  C 74.8963815789474 66.99  75.3207236842105 68.25  75.3207236842105 68.25  C 75.3207236842105 68.25  76.59375 68.67  76.59375 68.67  C 76.59375 68.67  75.7450657894737 70.35  75.7450657894737 70.35  C 75.7450657894737 70.35  76.1694078947369 70.77  76.1694078947369 70.77  C 76.1694078947369 70.77  75.3207236842105 71.61  75.3207236842105 71.61  C 75.3207236842105 71.61  72.3503289473684 71.61  72.3503289473684 71.61  C 72.3503289473684 71.61  73.1990131578947 72.87  73.1990131578947 72.87  C 73.1990131578947 72.87  71.5016447368421 75.39  71.5016447368421 75.39  C 71.5016447368421 75.39  68.9555921052632 75.81  68.9555921052632 75.81  C 68.9555921052632 75.81  68.9555921052632 74.97  68.9555921052632 74.97  C 68.9555921052632 74.97  68.1069078947369 75.39  68.1069078947369 75.39  C 68.1069078947369 75.39  67.2582236842105 74.13  67.2582236842105 74.13  C 67.2582236842105 74.13  65.1365131578947 76.65  65.1365131578947 76.65  C 65.1365131578947 76.65  62.5904605263158 76.65  62.5904605263158 76.65  C 62.5904605263158 76.65  62.5904605263158 77.91  62.5904605263158 77.91  C 62.5904605263158 77.91  60.8930921052632 78.75  60.8930921052632 78.75  C 60.8930921052632 78.75  62.5904605263158 83.79  62.5904605263158 83.79  C 62.5904605263158 83.79  61.3174342105263 82.95  61.3174342105263 82.95  C 61.3174342105263 82.95  55.8009868421053 82.95  55.8009868421053 82.95  C 55.8009868421053 82.95  53.2549342105263 81.69  53.2549342105263 81.69  C 53.2549342105263 81.69  53.2549342105263 83.37  53.2549342105263 83.37  C 53.2549342105263 83.37  52.8305921052632 82.11  52.8305921052632 82.11  C 52.8305921052632 82.11  50.7088815789474 82.11  50.7088815789474 82.11  C 50.7088815789474 82.11  48.5871710526316 75.81  48.5871710526316 75.81  C 48.5871710526316 75.81  46.8898026315789 75.39  46.8898026315789 75.39  C 46.8898026315789 75.39  46.8898026315789 76.23  46.8898026315789 76.23  C 46.8898026315789 76.23  46.0411184210526 76.23  46.0411184210526 76.23  C 46.0411184210526 76.23  45.1924342105263 72.87  45.1924342105263 72.87  C 45.1924342105263 72.87  41.3733552631579 72.03  41.3733552631579 72.03  C 41.3733552631579 72.03  41.7976973684211 71.19  41.7976973684211 71.19  C 41.7976973684211 71.19  42.6463815789474 71.19  42.6463815789474 71.19  C 42.6463815789474 71.19  41.7976973684211 67.41  41.7976973684211 67.41  C 41.7976973684211 67.41  40.9490131578947 66.57  40.9490131578947 66.57  C 40.9490131578947 66.57  40.5246710526316 64.47  40.5246710526316 64.47  C 40.5246710526316 64.47  38.4029605263158 63.63  38.4029605263158 63.63  C 38.4029605263158 63.63  37.5542763157895 61.95  37.5542763157895 61.95  C 37.5542763157895 61.95  37.5542763157895 63.21  37.5542763157895 63.21  C 37.5542763157895 63.21  36.28125 65.31  36.28125 65.31  C 36.28125 65.31  34.1595394736842 65.31  34.1595394736842 65.31  C 34.1595394736842 65.31  33.7351973684211 64.47  33.7351973684211 64.47  C 33.7351973684211 64.47  32.4621710526316 64.47  32.4621710526316 64.47  C 32.4621710526316 64.47  32.4621710526316 65.73  32.4621710526316 65.73  C 32.4621710526316 65.73  29.9161184210526 64.47  29.9161184210526 64.47  C 29.9161184210526 64.47  28.21875 65.31  28.21875 65.31  C 28.21875 65.31  27.3700657894737 64.89  27.3700657894737 64.89  C 27.3700657894737 64.89  26.9457236842105 65.73  26.9457236842105 65.73  C 26.9457236842105 65.73  26.0970394736842 65.73  26.0970394736842 65.73  C 26.0970394736842 65.73  25.2483552631579 67.41  25.2483552631579 67.41  C 25.2483552631579 67.41  22.7023026315789 66.99  22.7023026315789 66.99  C 22.7023026315789 66.99  23.1266447368421 65.73  23.1266447368421 65.73  C 23.1266447368421 65.73  18.8832236842105 61.53  18.8832236842105 61.53  C 18.8832236842105 61.53  16.7615131578947 62.79  16.7615131578947 62.79  C 16.7615131578947 62.79  17.1858552631579 63.63  17.1858552631579 63.63  C 17.1858552631579 63.63  14.6398026315789 65.73  14.6398026315789 65.73  C 14.6398026315789 65.73  14.2154605263158 66.99  14.2154605263158 66.99  C 14.2154605263158 66.99  13.7911184210526 62.37  13.7911184210526 62.37  C 13.7911184210526 62.37  15.4884868421053 61.11  15.4884868421053 61.11  C 15.4884868421053 61.11  15.0641447368421 57.33  15.0641447368421 57.33  C 15.0641447368421 57.33  13.3667763157895 56.49  13.3667763157895 56.49  C 13.3667763157895 56.49  12.9424342105263 54.81  12.9424342105263 54.81  C 12.9424342105263 54.81  8.27467105263158 55.23  8.27467105263158 55.23  C 8.27467105263158 55.23  9.12335526315789 52.71  9.12335526315789 52.71  C 9.12335526315789 52.71  10.3963815789474 51.45  10.3963815789474 51.45  C 10.3963815789474 51.45  9.54769736842105 50.61  9.54769736842105 50.61  C 9.54769736842105 50.61  10.3963815789474 49.77  10.3963815789474 49.77  C 10.3963815789474 49.77  9.97203947368421 48.93  9.97203947368421 48.93  C 9.97203947368421 48.93  11.6694078947368 47.25  11.6694078947368 47.25  C 11.6694078947368 47.25  10.3963815789474 42.21  10.3963815789474 42.21  C 10.3963815789474 42.21  10.3963815789474 37.17  10.3963815789474 37.17  C 10.3963815789474 37.17  9.12335526315789 36.33  9.12335526315789 36.33  C 9.12335526315789 36.33  6.57730263157895 36.75  6.57730263157895 36.75  C 6.57730263157895 36.75  2.33388157894737 34.23  2.33388157894737 34.23  C 2.33388157894737 34.23  1.48519736842105 32.13  1.48519736842105 32.13  C 1.48519736842105 32.13  1.90953947368421 30.87  1.90953947368421 30.87  C 1.90953947368421 30.87  0.212171052631579 30.45  0.212171052631579 30.45  C 0.212171052631579 30.45  1.06085526315789 30.03  1.06085526315789 30.03  C 1.06085526315789 30.03  1.48519736842105 28.35  1.48519736842105 28.35  C 1.48519736842105 28.35  3.18256578947368 27.93  3.18256578947368 27.93  C 3.18256578947368 27.93  5.30427631578947 28.77  5.30427631578947 28.77  C 5.30427631578947 28.77  9.12335526315789 25.41  9.12335526315789 25.41  C 9.12335526315789 25.41  10.3963815789474 25.83  10.3963815789474 25.83  C 10.3963815789474 25.83  12.9424342105263 28.35  12.9424342105263 28.35  C 12.9424342105263 28.35  13.7911184210526 27.09  13.7911184210526 27.09  C 13.7911184210526 27.09  20.15625 25.83  20.15625 25.83  C 20.15625 25.83  21.4292763157895 24.15  21.4292763157895 24.15  C 21.4292763157895 24.15  22.2779605263158 24.15  22.2779605263158 24.15  C 22.2779605263158 24.15  22.2779605263158 22.47  22.2779605263158 22.47  C 22.2779605263158 22.47  25.2483552631579 22.47  25.2483552631579 22.47  C 25.2483552631579 22.47  26.5213815789474 20.79  26.5213815789474 20.79  C 26.5213815789474 20.79  30.7648026315789 11.55  30.7648026315789 11.55  C 30.7648026315789 11.55  33.3108552631579 10.71  33.3108552631579 10.71  C 33.3108552631579 10.71  35.8569078947368 8.61  35.8569078947368 8.61  C 35.8569078947368 8.61  39.2516447368421 7.77  39.2516447368421 7.77  C 39.2516447368421 7.77  41.3733552631579 5.25  41.3733552631579 5.25  C 41.3733552631579 5.25  43.9194078947368 3.99  43.9194078947368 3.99  C 43.9194078947368 3.99  47.3141447368421 3.57  47.3141447368421 3.57  C 47.3141447368421 3.57  53.2549342105263 0.21  53.2549342105263 0.21  C 53.2549342105263 0.21  54.1036184210526 1.05  54.1036184210526 1.05  C 54.1036184210526 1.05  59.1957236842105 1.05  59.1957236842105 1.05  C 59.1957236842105 1.05  60.0444078947368 2.31  60.0444078947368 2.31  C 60.0444078947368 2.31  62.1661184210526 3.15  62.1661184210526 3.15  C 62.1661184210526 3.15  63.4391447368421 5.25  63.4391447368421 5.25  C 63.4391447368421 5.25  64.7121710526316 4.83  64.7121710526316 4.83  C 64.7121710526316 4.83  65.5608552631579 5.67  65.5608552631579 5.67  C 65.5608552631579 5.67  68.1069078947369 4.83  68.1069078947369 4.83  C 68.1069078947369 4.83  70.6529605263158 1.89  70.6529605263158 1.89  C 70.6529605263158 1.89  72.3503289473684 1.47  72.3503289473684 1.47  C 72.3503289473684 1.47  74.4720394736842 2.31  74.4720394736842 2.31  C 74.4720394736842 2.31  78.2911184210526 2.31  78.2911184210526 2.31  C 78.2911184210526 2.31  80.4128289473684 1.47  80.4128289473684 1.47  C 80.4128289473684 1.47  81.2615131578947 2.73  81.2615131578947 2.73  C 81.2615131578947 2.73  80.8371710526316 4.83  80.8371710526316 4.83  C 80.8371710526316 4.83  79.5641447368421 5.25  79.5641447368421 5.25  C 79.5641447368421 5.25  77.4424342105263 8.19  77.4424342105263 8.19  C 77.4424342105263 8.19  78.2911184210526 9.87  78.2911184210526 9.87  C 78.2911184210526 9.87  81.6858552631579 10.71  81.6858552631579 10.71  C 81.6858552631579 10.71  82.5345394736842 11.55  82.5345394736842 11.55  C 82.5345394736842 11.55  84.65625 10.71  84.65625 10.71  C 84.65625 10.71  84.65625 11.55  84.65625 11.55  C 84.65625 11.55  85.9292763157895 11.55  85.9292763157895 11.55  C 85.9292763157895 11.55  88.8996710526316 9.87  88.8996710526316 9.87  C 88.8996710526316 9.87  88.4753289473684 11.55  88.4753289473684 11.55  C 88.4753289473684 11.55  87.6266447368421 11.97  87.6266447368421 11.97  C 87.6266447368421 11.97  87.2023026315789 15.33  87.2023026315789 15.33  C 87.2023026315789 15.33  88.0509868421053 17.01  88.0509868421053 17.01  C 88.0509868421053 17.01  90.5970394736842 15.33  90.5970394736842 15.33  C 90.5970394736842 15.33  91.8700657894737 15.33  91.8700657894737 15.33  C 91.8700657894737 15.33  92.71875 17.01  92.71875 17.01  C 92.71875 17.01  94.4161184210526 15.75  94.4161184210526 15.75  C 94.4161184210526 15.75  96.5378289473684 15.75  96.5378289473684 15.75  Z " fill-rule="evenodd" />
    </mask>
  </defs>
  <g transform="matrix(1 0 0 1 -52 -875 )">
    <path d="M 96.5378289473684 15.75  C 96.5378289473684 15.75  97.8108552631579 15.75  97.8108552631579 15.75  C 97.8108552631579 15.75  101.205592105263 17.43  101.205592105263 17.43  C 101.205592105263 17.43  101.629934210526 18.69  101.629934210526 18.69  C 101.629934210526 18.69  103.327302631579 19.11  103.327302631579 19.11  C 103.327302631579 19.11  102.478618421053 25.83  102.478618421053 25.83  C 102.478618421053 25.83  103.751644736842 28.35  103.751644736842 28.35  C 103.751644736842 28.35  104.175986842105 28.77  104.175986842105 28.77  C 104.175986842105 28.77  105.873355263158 27.93  105.873355263158 27.93  C 105.873355263158 27.93  105.873355263158 27.09  105.873355263158 27.09  C 105.873355263158 27.09  107.995065789474 27.09  107.995065789474 27.09  C 107.995065789474 27.09  107.995065789474 27.93  107.995065789474 27.93  C 107.995065789474 27.93  109.692434210526 28.35  109.692434210526 28.35  C 109.692434210526 28.35  110.116776315789 29.19  110.116776315789 29.19  C 110.116776315789 29.19  108.419407894737 29.19  108.419407894737 29.19  C 108.419407894737 29.19  107.570723684211 30.45  107.570723684211 30.45  C 107.570723684211 30.45  108.419407894737 32.55  108.419407894737 32.55  C 108.419407894737 32.55  110.116776315789 31.71  110.116776315789 31.71  C 110.116776315789 31.71  111.814144736842 32.13  111.814144736842 32.13  C 111.814144736842 32.13  114.360197368421 31.29  114.360197368421 31.29  C 114.360197368421 31.29  115.633223684211 27.93  115.633223684211 27.93  C 115.633223684211 27.93  120.300986842105 29.19  120.300986842105 29.19  C 120.300986842105 29.19  120.725328947368 24.99  120.725328947368 24.99  C 120.725328947368 24.99  122.847039473684 21.63  122.847039473684 21.63  C 122.847039473684 21.63  122.422697368421 19.95  122.422697368421 19.95  C 122.422697368421 19.95  126.666118421053 19.53  126.666118421053 19.53  C 126.666118421053 19.53  127.090460526316 21.21  127.090460526316 21.21  C 127.090460526316 21.21  128.363486842105 22.47  128.363486842105 22.47  C 128.363486842105 22.47  128.787828947368 32.13  128.787828947368 32.13  C 128.787828947368 32.13  128.363486842105 35.07  128.363486842105 35.07  C 128.363486842105 35.07  127.090460526316 36.75  127.090460526316 36.75  C 127.090460526316 36.75  127.939144736842 39.27  127.939144736842 39.27  C 127.939144736842 39.27  127.514802631579 41.37  127.514802631579 41.37  C 127.514802631579 41.37  125.817434210526 42.63  125.817434210526 42.63  C 125.817434210526 42.63  125.817434210526 44.73  125.817434210526 44.73  C 125.817434210526 44.73  123.695723684211 49.77  123.695723684211 49.77  C 123.695723684211 49.77  124.120065789474 52.29  124.120065789474 52.29  C 124.120065789474 52.29  122.847039473684 54.81  122.847039473684 54.81  C 122.847039473684 54.81  123.271381578947 63.63  123.271381578947 63.63  C 123.271381578947 63.63  124.120065789474 65.73  124.120065789474 65.73  C 124.120065789474 65.73  123.695723684211 66.57  123.695723684211 66.57  C 123.695723684211 66.57  124.544407894737 66.57  124.544407894737 66.57  C 124.544407894737 66.57  123.695723684211 69.51  123.695723684211 69.51  C 123.695723684211 69.51  121.574013157895 69.51  121.574013157895 69.51  C 121.574013157895 69.51  120.725328947368 67.83  120.725328947368 67.83  C 120.725328947368 67.83  116.90625 66.99  116.90625 66.99  C 116.90625 66.99  116.90625 67.83  116.90625 67.83  C 116.90625 67.83  113.087171052632 68.67  113.087171052632 68.67  C 113.087171052632 68.67  112.662828947368 70.35  112.662828947368 70.35  C 112.662828947368 70.35  109.692434210526 71.61  109.692434210526 71.61  C 109.692434210526 71.61  108.419407894737 71.19  108.419407894737 71.19  C 108.419407894737 71.19  108.419407894737 70.35  108.419407894737 70.35  C 108.419407894737 70.35  107.570723684211 70.35  107.570723684211 70.35  C 107.570723684211 70.35  107.146381578947 71.19  107.146381578947 71.19  C 107.146381578947 71.19  105.873355263158 70.77  105.873355263158 70.77  C 105.873355263158 70.77  105.024671052632 69.09  105.024671052632 69.09  C 105.024671052632 69.09  105.024671052632 69.93  105.024671052632 69.93  C 105.024671052632 69.93  94.4161184210526 70.77  94.4161184210526 70.77  C 94.4161184210526 70.77  93.1430921052632 69.93  93.1430921052632 69.93  C 93.1430921052632 69.93  93.5674342105263 67.83  93.5674342105263 67.83  C 93.5674342105263 67.83  91.4457236842105 67.41  91.4457236842105 67.41  C 91.4457236842105 67.41  91.4457236842105 68.67  91.4457236842105 68.67  C 91.4457236842105 68.67  88.8996710526316 69.93  88.8996710526316 69.93  C 88.8996710526316 69.93  88.0509868421053 66.57  88.0509868421053 66.57  C 88.0509868421053 66.57  85.9292763157895 66.15  85.9292763157895 66.15  C 85.9292763157895 66.15  85.9292763157895 70.77  85.9292763157895 70.77  C 85.9292763157895 70.77  84.65625 70.77  84.65625 70.77  C 84.65625 70.77  84.65625 72.03  84.65625 72.03  C 84.65625 72.03  82.9588815789474 72.87  82.9588815789474 72.87  C 82.9588815789474 72.87  82.5345394736842 72.03  82.5345394736842 72.03  C 82.5345394736842 72.03  81.6858552631579 72.03  81.6858552631579 72.03  C 81.6858552631579 72.03  81.6858552631579 70.35  81.6858552631579 70.35  C 81.6858552631579 70.35  79.9884868421053 69.51  79.9884868421053 69.51  C 79.9884868421053 69.51  77.8667763157895 65.73  77.8667763157895 65.73  C 77.8667763157895 65.73  75.7450657894737 65.31  75.7450657894737 65.31  C 75.7450657894737 65.31  74.8963815789474 66.99  74.8963815789474 66.99  C 74.8963815789474 66.99  75.3207236842105 68.25  75.3207236842105 68.25  C 75.3207236842105 68.25  76.59375 68.67  76.59375 68.67  C 76.59375 68.67  75.7450657894737 70.35  75.7450657894737 70.35  C 75.7450657894737 70.35  76.1694078947369 70.77  76.1694078947369 70.77  C 76.1694078947369 70.77  75.3207236842105 71.61  75.3207236842105 71.61  C 75.3207236842105 71.61  72.3503289473684 71.61  72.3503289473684 71.61  C 72.3503289473684 71.61  73.1990131578947 72.87  73.1990131578947 72.87  C 73.1990131578947 72.87  71.5016447368421 75.39  71.5016447368421 75.39  C 71.5016447368421 75.39  68.9555921052632 75.81  68.9555921052632 75.81  C 68.9555921052632 75.81  68.9555921052632 74.97  68.9555921052632 74.97  C 68.9555921052632 74.97  68.1069078947369 75.39  68.1069078947369 75.39  C 68.1069078947369 75.39  67.2582236842105 74.13  67.2582236842105 74.13  C 67.2582236842105 74.13  65.1365131578947 76.65  65.1365131578947 76.65  C 65.1365131578947 76.65  62.5904605263158 76.65  62.5904605263158 76.65  C 62.5904605263158 76.65  62.5904605263158 77.91  62.5904605263158 77.91  C 62.5904605263158 77.91  60.8930921052632 78.75  60.8930921052632 78.75  C 60.8930921052632 78.75  62.5904605263158 83.79  62.5904605263158 83.79  C 62.5904605263158 83.79  61.3174342105263 82.95  61.3174342105263 82.95  C 61.3174342105263 82.95  55.8009868421053 82.95  55.8009868421053 82.95  C 55.8009868421053 82.95  53.2549342105263 81.69  53.2549342105263 81.69  C 53.2549342105263 81.69  53.2549342105263 83.37  53.2549342105263 83.37  C 53.2549342105263 83.37  52.8305921052632 82.11  52.8305921052632 82.11  C 52.8305921052632 82.11  50.7088815789474 82.11  50.7088815789474 82.11  C 50.7088815789474 82.11  48.5871710526316 75.81  48.5871710526316 75.81  C 48.5871710526316 75.81  46.8898026315789 75.39  46.8898026315789 75.39  C 46.8898026315789 75.39  46.8898026315789 76.23  46.8898026315789 76.23  C 46.8898026315789 76.23  46.0411184210526 76.23  46.0411184210526 76.23  C 46.0411184210526 76.23  45.1924342105263 72.87  45.1924342105263 72.87  C 45.1924342105263 72.87  41.3733552631579 72.03  41.3733552631579 72.03  C 41.3733552631579 72.03  41.7976973684211 71.19  41.7976973684211 71.19  C 41.7976973684211 71.19  42.6463815789474 71.19  42.6463815789474 71.19  C 42.6463815789474 71.19  41.7976973684211 67.41  41.7976973684211 67.41  C 41.7976973684211 67.41  40.9490131578947 66.57  40.9490131578947 66.57  C 40.9490131578947 66.57  40.5246710526316 64.47  40.5246710526316 64.47  C 40.5246710526316 64.47  38.4029605263158 63.63  38.4029605263158 63.63  C 38.4029605263158 63.63  37.5542763157895 61.95  37.5542763157895 61.95  C 37.5542763157895 61.95  37.5542763157895 63.21  37.5542763157895 63.21  C 37.5542763157895 63.21  36.28125 65.31  36.28125 65.31  C 36.28125 65.31  34.1595394736842 65.31  34.1595394736842 65.31  C 34.1595394736842 65.31  33.7351973684211 64.47  33.7351973684211 64.47  C 33.7351973684211 64.47  32.4621710526316 64.47  32.4621710526316 64.47  C 32.4621710526316 64.47  32.4621710526316 65.73  32.4621710526316 65.73  C 32.4621710526316 65.73  29.9161184210526 64.47  29.9161184210526 64.47  C 29.9161184210526 64.47  28.21875 65.31  28.21875 65.31  C 28.21875 65.31  27.3700657894737 64.89  27.3700657894737 64.89  C 27.3700657894737 64.89  26.9457236842105 65.73  26.9457236842105 65.73  C 26.9457236842105 65.73  26.0970394736842 65.73  26.0970394736842 65.73  C 26.0970394736842 65.73  25.2483552631579 67.41  25.2483552631579 67.41  C 25.2483552631579 67.41  22.7023026315789 66.99  22.7023026315789 66.99  C 22.7023026315789 66.99  23.1266447368421 65.73  23.1266447368421 65.73  C 23.1266447368421 65.73  18.8832236842105 61.53  18.8832236842105 61.53  C 18.8832236842105 61.53  16.7615131578947 62.79  16.7615131578947 62.79  C 16.7615131578947 62.79  17.1858552631579 63.63  17.1858552631579 63.63  C 17.1858552631579 63.63  14.6398026315789 65.73  14.6398026315789 65.73  C 14.6398026315789 65.73  14.2154605263158 66.99  14.2154605263158 66.99  C 14.2154605263158 66.99  13.7911184210526 62.37  13.7911184210526 62.37  C 13.7911184210526 62.37  15.4884868421053 61.11  15.4884868421053 61.11  C 15.4884868421053 61.11  15.0641447368421 57.33  15.0641447368421 57.33  C 15.0641447368421 57.33  13.3667763157895 56.49  13.3667763157895 56.49  C 13.3667763157895 56.49  12.9424342105263 54.81  12.9424342105263 54.81  C 12.9424342105263 54.81  8.27467105263158 55.23  8.27467105263158 55.23  C 8.27467105263158 55.23  9.12335526315789 52.71  9.12335526315789 52.71  C 9.12335526315789 52.71  10.3963815789474 51.45  10.3963815789474 51.45  C 10.3963815789474 51.45  9.54769736842105 50.61  9.54769736842105 50.61  C 9.54769736842105 50.61  10.3963815789474 49.77  10.3963815789474 49.77  C 10.3963815789474 49.77  9.97203947368421 48.93  9.97203947368421 48.93  C 9.97203947368421 48.93  11.6694078947368 47.25  11.6694078947368 47.25  C 11.6694078947368 47.25  10.3963815789474 42.21  10.3963815789474 42.21  C 10.3963815789474 42.21  10.3963815789474 37.17  10.3963815789474 37.17  C 10.3963815789474 37.17  9.12335526315789 36.33  9.12335526315789 36.33  C 9.12335526315789 36.33  6.57730263157895 36.75  6.57730263157895 36.75  C 6.57730263157895 36.75  2.33388157894737 34.23  2.33388157894737 34.23  C 2.33388157894737 34.23  1.48519736842105 32.13  1.48519736842105 32.13  C 1.48519736842105 32.13  1.90953947368421 30.87  1.90953947368421 30.87  C 1.90953947368421 30.87  0.212171052631579 30.45  0.212171052631579 30.45  C 0.212171052631579 30.45  1.06085526315789 30.03  1.06085526315789 30.03  C 1.06085526315789 30.03  1.48519736842105 28.35  1.48519736842105 28.35  C 1.48519736842105 28.35  3.18256578947368 27.93  3.18256578947368 27.93  C 3.18256578947368 27.93  5.30427631578947 28.77  5.30427631578947 28.77  C 5.30427631578947 28.77  9.12335526315789 25.41  9.12335526315789 25.41  C 9.12335526315789 25.41  10.3963815789474 25.83  10.3963815789474 25.83  C 10.3963815789474 25.83  12.9424342105263 28.35  12.9424342105263 28.35  C 12.9424342105263 28.35  13.7911184210526 27.09  13.7911184210526 27.09  C 13.7911184210526 27.09  20.15625 25.83  20.15625 25.83  C 20.15625 25.83  21.4292763157895 24.15  21.4292763157895 24.15  C 21.4292763157895 24.15  22.2779605263158 24.15  22.2779605263158 24.15  C 22.2779605263158 24.15  22.2779605263158 22.47  22.2779605263158 22.47  C 22.2779605263158 22.47  25.2483552631579 22.47  25.2483552631579 22.47  C 25.2483552631579 22.47  26.5213815789474 20.79  26.5213815789474 20.79  C 26.5213815789474 20.79  30.7648026315789 11.55  30.7648026315789 11.55  C 30.7648026315789 11.55  33.3108552631579 10.71  33.3108552631579 10.71  C 33.3108552631579 10.71  35.8569078947368 8.61  35.8569078947368 8.61  C 35.8569078947368 8.61  39.2516447368421 7.77  39.2516447368421 7.77  C 39.2516447368421 7.77  41.3733552631579 5.25  41.3733552631579 5.25  C 41.3733552631579 5.25  43.9194078947368 3.99  43.9194078947368 3.99  C 43.9194078947368 3.99  47.3141447368421 3.57  47.3141447368421 3.57  C 47.3141447368421 3.57  53.2549342105263 0.21  53.2549342105263 0.21  C 53.2549342105263 0.21  54.1036184210526 1.05  54.1036184210526 1.05  C 54.1036184210526 1.05  59.1957236842105 1.05  59.1957236842105 1.05  C 59.1957236842105 1.05  60.0444078947368 2.31  60.0444078947368 2.31  C 60.0444078947368 2.31  62.1661184210526 3.15  62.1661184210526 3.15  C 62.1661184210526 3.15  63.4391447368421 5.25  63.4391447368421 5.25  C 63.4391447368421 5.25  64.7121710526316 4.83  64.7121710526316 4.83  C 64.7121710526316 4.83  65.5608552631579 5.67  65.5608552631579 5.67  C 65.5608552631579 5.67  68.1069078947369 4.83  68.1069078947369 4.83  C 68.1069078947369 4.83  70.6529605263158 1.89  70.6529605263158 1.89  C 70.6529605263158 1.89  72.3503289473684 1.47  72.3503289473684 1.47  C 72.3503289473684 1.47  74.4720394736842 2.31  74.4720394736842 2.31  C 74.4720394736842 2.31  78.2911184210526 2.31  78.2911184210526 2.31  C 78.2911184210526 2.31  80.4128289473684 1.47  80.4128289473684 1.47  C 80.4128289473684 1.47  81.2615131578947 2.73  81.2615131578947 2.73  C 81.2615131578947 2.73  80.8371710526316 4.83  80.8371710526316 4.83  C 80.8371710526316 4.83  79.5641447368421 5.25  79.5641447368421 5.25  C 79.5641447368421 5.25  77.4424342105263 8.19  77.4424342105263 8.19  C 77.4424342105263 8.19  78.2911184210526 9.87  78.2911184210526 9.87  C 78.2911184210526 9.87  81.6858552631579 10.71  81.6858552631579 10.71  C 81.6858552631579 10.71  82.5345394736842 11.55  82.5345394736842 11.55  C 82.5345394736842 11.55  84.65625 10.71  84.65625 10.71  C 84.65625 10.71  84.65625 11.55  84.65625 11.55  C 84.65625 11.55  85.9292763157895 11.55  85.9292763157895 11.55  C 85.9292763157895 11.55  88.8996710526316 9.87  88.8996710526316 9.87  C 88.8996710526316 9.87  88.4753289473684 11.55  88.4753289473684 11.55  C 88.4753289473684 11.55  87.6266447368421 11.97  87.6266447368421 11.97  C 87.6266447368421 11.97  87.2023026315789 15.33  87.2023026315789 15.33  C 87.2023026315789 15.33  88.0509868421053 17.01  88.0509868421053 17.01  C 88.0509868421053 17.01  90.5970394736842 15.33  90.5970394736842 15.33  C 90.5970394736842 15.33  91.8700657894737 15.33  91.8700657894737 15.33  C 91.8700657894737 15.33  92.71875 17.01  92.71875 17.01  C 92.71875 17.01  94.4161184210526 15.75  94.4161184210526 15.75  C 94.4161184210526 15.75  96.5378289473684 15.75  96.5378289473684 15.75  Z " fill-rule="nonzero" fill="#ffffff" stroke="none" fill-opacity="0" transform="matrix(1 0 0 1 52 875 )" />
    <path d="M 96.5378289473684 15.75  C 96.5378289473684 15.75  97.8108552631579 15.75  97.8108552631579 15.75  C 97.8108552631579 15.75  101.205592105263 17.43  101.205592105263 17.43  C 101.205592105263 17.43  101.629934210526 18.69  101.629934210526 18.69  C 101.629934210526 18.69  103.327302631579 19.11  103.327302631579 19.11  C 103.327302631579 19.11  102.478618421053 25.83  102.478618421053 25.83  C 102.478618421053 25.83  103.751644736842 28.35  103.751644736842 28.35  C 103.751644736842 28.35  104.175986842105 28.77  104.175986842105 28.77  C 104.175986842105 28.77  105.873355263158 27.93  105.873355263158 27.93  C 105.873355263158 27.93  105.873355263158 27.09  105.873355263158 27.09  C 105.873355263158 27.09  107.995065789474 27.09  107.995065789474 27.09  C 107.995065789474 27.09  107.995065789474 27.93  107.995065789474 27.93  C 107.995065789474 27.93  109.692434210526 28.35  109.692434210526 28.35  C 109.692434210526 28.35  110.116776315789 29.19  110.116776315789 29.19  C 110.116776315789 29.19  108.419407894737 29.19  108.419407894737 29.19  C 108.419407894737 29.19  107.570723684211 30.45  107.570723684211 30.45  C 107.570723684211 30.45  108.419407894737 32.55  108.419407894737 32.55  C 108.419407894737 32.55  110.116776315789 31.71  110.116776315789 31.71  C 110.116776315789 31.71  111.814144736842 32.13  111.814144736842 32.13  C 111.814144736842 32.13  114.360197368421 31.29  114.360197368421 31.29  C 114.360197368421 31.29  115.633223684211 27.93  115.633223684211 27.93  C 115.633223684211 27.93  120.300986842105 29.19  120.300986842105 29.19  C 120.300986842105 29.19  120.725328947368 24.99  120.725328947368 24.99  C 120.725328947368 24.99  122.847039473684 21.63  122.847039473684 21.63  C 122.847039473684 21.63  122.422697368421 19.95  122.422697368421 19.95  C 122.422697368421 19.95  126.666118421053 19.53  126.666118421053 19.53  C 126.666118421053 19.53  127.090460526316 21.21  127.090460526316 21.21  C 127.090460526316 21.21  128.363486842105 22.47  128.363486842105 22.47  C 128.363486842105 22.47  128.787828947368 32.13  128.787828947368 32.13  C 128.787828947368 32.13  128.363486842105 35.07  128.363486842105 35.07  C 128.363486842105 35.07  127.090460526316 36.75  127.090460526316 36.75  C 127.090460526316 36.75  127.939144736842 39.27  127.939144736842 39.27  C 127.939144736842 39.27  127.514802631579 41.37  127.514802631579 41.37  C 127.514802631579 41.37  125.817434210526 42.63  125.817434210526 42.63  C 125.817434210526 42.63  125.817434210526 44.73  125.817434210526 44.73  C 125.817434210526 44.73  123.695723684211 49.77  123.695723684211 49.77  C 123.695723684211 49.77  124.120065789474 52.29  124.120065789474 52.29  C 124.120065789474 52.29  122.847039473684 54.81  122.847039473684 54.81  C 122.847039473684 54.81  123.271381578947 63.63  123.271381578947 63.63  C 123.271381578947 63.63  124.120065789474 65.73  124.120065789474 65.73  C 124.120065789474 65.73  123.695723684211 66.57  123.695723684211 66.57  C 123.695723684211 66.57  124.544407894737 66.57  124.544407894737 66.57  C 124.544407894737 66.57  123.695723684211 69.51  123.695723684211 69.51  C 123.695723684211 69.51  121.574013157895 69.51  121.574013157895 69.51  C 121.574013157895 69.51  120.725328947368 67.83  120.725328947368 67.83  C 120.725328947368 67.83  116.90625 66.99  116.90625 66.99  C 116.90625 66.99  116.90625 67.83  116.90625 67.83  C 116.90625 67.83  113.087171052632 68.67  113.087171052632 68.67  C 113.087171052632 68.67  112.662828947368 70.35  112.662828947368 70.35  C 112.662828947368 70.35  109.692434210526 71.61  109.692434210526 71.61  C 109.692434210526 71.61  108.419407894737 71.19  108.419407894737 71.19  C 108.419407894737 71.19  108.419407894737 70.35  108.419407894737 70.35  C 108.419407894737 70.35  107.570723684211 70.35  107.570723684211 70.35  C 107.570723684211 70.35  107.146381578947 71.19  107.146381578947 71.19  C 107.146381578947 71.19  105.873355263158 70.77  105.873355263158 70.77  C 105.873355263158 70.77  105.024671052632 69.09  105.024671052632 69.09  C 105.024671052632 69.09  105.024671052632 69.93  105.024671052632 69.93  C 105.024671052632 69.93  94.4161184210526 70.77  94.4161184210526 70.77  C 94.4161184210526 70.77  93.1430921052632 69.93  93.1430921052632 69.93  C 93.1430921052632 69.93  93.5674342105263 67.83  93.5674342105263 67.83  C 93.5674342105263 67.83  91.4457236842105 67.41  91.4457236842105 67.41  C 91.4457236842105 67.41  91.4457236842105 68.67  91.4457236842105 68.67  C 91.4457236842105 68.67  88.8996710526316 69.93  88.8996710526316 69.93  C 88.8996710526316 69.93  88.0509868421053 66.57  88.0509868421053 66.57  C 88.0509868421053 66.57  85.9292763157895 66.15  85.9292763157895 66.15  C 85.9292763157895 66.15  85.9292763157895 70.77  85.9292763157895 70.77  C 85.9292763157895 70.77  84.65625 70.77  84.65625 70.77  C 84.65625 70.77  84.65625 72.03  84.65625 72.03  C 84.65625 72.03  82.9588815789474 72.87  82.9588815789474 72.87  C 82.9588815789474 72.87  82.5345394736842 72.03  82.5345394736842 72.03  C 82.5345394736842 72.03  81.6858552631579 72.03  81.6858552631579 72.03  C 81.6858552631579 72.03  81.6858552631579 70.35  81.6858552631579 70.35  C 81.6858552631579 70.35  79.9884868421053 69.51  79.9884868421053 69.51  C 79.9884868421053 69.51  77.8667763157895 65.73  77.8667763157895 65.73  C 77.8667763157895 65.73  75.7450657894737 65.31  75.7450657894737 65.31  C 75.7450657894737 65.31  74.8963815789474 66.99  74.8963815789474 66.99  C 74.8963815789474 66.99  75.3207236842105 68.25  75.3207236842105 68.25  C 75.3207236842105 68.25  76.59375 68.67  76.59375 68.67  C 76.59375 68.67  75.7450657894737 70.35  75.7450657894737 70.35  C 75.7450657894737 70.35  76.1694078947369 70.77  76.1694078947369 70.77  C 76.1694078947369 70.77  75.3207236842105 71.61  75.3207236842105 71.61  C 75.3207236842105 71.61  72.3503289473684 71.61  72.3503289473684 71.61  C 72.3503289473684 71.61  73.1990131578947 72.87  73.1990131578947 72.87  C 73.1990131578947 72.87  71.5016447368421 75.39  71.5016447368421 75.39  C 71.5016447368421 75.39  68.9555921052632 75.81  68.9555921052632 75.81  C 68.9555921052632 75.81  68.9555921052632 74.97  68.9555921052632 74.97  C 68.9555921052632 74.97  68.1069078947369 75.39  68.1069078947369 75.39  C 68.1069078947369 75.39  67.2582236842105 74.13  67.2582236842105 74.13  C 67.2582236842105 74.13  65.1365131578947 76.65  65.1365131578947 76.65  C 65.1365131578947 76.65  62.5904605263158 76.65  62.5904605263158 76.65  C 62.5904605263158 76.65  62.5904605263158 77.91  62.5904605263158 77.91  C 62.5904605263158 77.91  60.8930921052632 78.75  60.8930921052632 78.75  C 60.8930921052632 78.75  62.5904605263158 83.79  62.5904605263158 83.79  C 62.5904605263158 83.79  61.3174342105263 82.95  61.3174342105263 82.95  C 61.3174342105263 82.95  55.8009868421053 82.95  55.8009868421053 82.95  C 55.8009868421053 82.95  53.2549342105263 81.69  53.2549342105263 81.69  C 53.2549342105263 81.69  53.2549342105263 83.37  53.2549342105263 83.37  C 53.2549342105263 83.37  52.8305921052632 82.11  52.8305921052632 82.11  C 52.8305921052632 82.11  50.7088815789474 82.11  50.7088815789474 82.11  C 50.7088815789474 82.11  48.5871710526316 75.81  48.5871710526316 75.81  C 48.5871710526316 75.81  46.8898026315789 75.39  46.8898026315789 75.39  C 46.8898026315789 75.39  46.8898026315789 76.23  46.8898026315789 76.23  C 46.8898026315789 76.23  46.0411184210526 76.23  46.0411184210526 76.23  C 46.0411184210526 76.23  45.1924342105263 72.87  45.1924342105263 72.87  C 45.1924342105263 72.87  41.3733552631579 72.03  41.3733552631579 72.03  C 41.3733552631579 72.03  41.7976973684211 71.19  41.7976973684211 71.19  C 41.7976973684211 71.19  42.6463815789474 71.19  42.6463815789474 71.19  C 42.6463815789474 71.19  41.7976973684211 67.41  41.7976973684211 67.41  C 41.7976973684211 67.41  40.9490131578947 66.57  40.9490131578947 66.57  C 40.9490131578947 66.57  40.5246710526316 64.47  40.5246710526316 64.47  C 40.5246710526316 64.47  38.4029605263158 63.63  38.4029605263158 63.63  C 38.4029605263158 63.63  37.5542763157895 61.95  37.5542763157895 61.95  C 37.5542763157895 61.95  37.5542763157895 63.21  37.5542763157895 63.21  C 37.5542763157895 63.21  36.28125 65.31  36.28125 65.31  C 36.28125 65.31  34.1595394736842 65.31  34.1595394736842 65.31  C 34.1595394736842 65.31  33.7351973684211 64.47  33.7351973684211 64.47  C 33.7351973684211 64.47  32.4621710526316 64.47  32.4621710526316 64.47  C 32.4621710526316 64.47  32.4621710526316 65.73  32.4621710526316 65.73  C 32.4621710526316 65.73  29.9161184210526 64.47  29.9161184210526 64.47  C 29.9161184210526 64.47  28.21875 65.31  28.21875 65.31  C 28.21875 65.31  27.3700657894737 64.89  27.3700657894737 64.89  C 27.3700657894737 64.89  26.9457236842105 65.73  26.9457236842105 65.73  C 26.9457236842105 65.73  26.0970394736842 65.73  26.0970394736842 65.73  C 26.0970394736842 65.73  25.2483552631579 67.41  25.2483552631579 67.41  C 25.2483552631579 67.41  22.7023026315789 66.99  22.7023026315789 66.99  C 22.7023026315789 66.99  23.1266447368421 65.73  23.1266447368421 65.73  C 23.1266447368421 65.73  18.8832236842105 61.53  18.8832236842105 61.53  C 18.8832236842105 61.53  16.7615131578947 62.79  16.7615131578947 62.79  C 16.7615131578947 62.79  17.1858552631579 63.63  17.1858552631579 63.63  C 17.1858552631579 63.63  14.6398026315789 65.73  14.6398026315789 65.73  C 14.6398026315789 65.73  14.2154605263158 66.99  14.2154605263158 66.99  C 14.2154605263158 66.99  13.7911184210526 62.37  13.7911184210526 62.37  C 13.7911184210526 62.37  15.4884868421053 61.11  15.4884868421053 61.11  C 15.4884868421053 61.11  15.0641447368421 57.33  15.0641447368421 57.33  C 15.0641447368421 57.33  13.3667763157895 56.49  13.3667763157895 56.49  C 13.3667763157895 56.49  12.9424342105263 54.81  12.9424342105263 54.81  C 12.9424342105263 54.81  8.27467105263158 55.23  8.27467105263158 55.23  C 8.27467105263158 55.23  9.12335526315789 52.71  9.12335526315789 52.71  C 9.12335526315789 52.71  10.3963815789474 51.45  10.3963815789474 51.45  C 10.3963815789474 51.45  9.54769736842105 50.61  9.54769736842105 50.61  C 9.54769736842105 50.61  10.3963815789474 49.77  10.3963815789474 49.77  C 10.3963815789474 49.77  9.97203947368421 48.93  9.97203947368421 48.93  C 9.97203947368421 48.93  11.6694078947368 47.25  11.6694078947368 47.25  C 11.6694078947368 47.25  10.3963815789474 42.21  10.3963815789474 42.21  C 10.3963815789474 42.21  10.3963815789474 37.17  10.3963815789474 37.17  C 10.3963815789474 37.17  9.12335526315789 36.33  9.12335526315789 36.33  C 9.12335526315789 36.33  6.57730263157895 36.75  6.57730263157895 36.75  C 6.57730263157895 36.75  2.33388157894737 34.23  2.33388157894737 34.23  C 2.33388157894737 34.23  1.48519736842105 32.13  1.48519736842105 32.13  C 1.48519736842105 32.13  1.90953947368421 30.87  1.90953947368421 30.87  C 1.90953947368421 30.87  0.212171052631579 30.45  0.212171052631579 30.45  C 0.212171052631579 30.45  1.06085526315789 30.03  1.06085526315789 30.03  C 1.06085526315789 30.03  1.48519736842105 28.35  1.48519736842105 28.35  C 1.48519736842105 28.35  3.18256578947368 27.93  3.18256578947368 27.93  C 3.18256578947368 27.93  5.30427631578947 28.77  5.30427631578947 28.77  C 5.30427631578947 28.77  9.12335526315789 25.41  9.12335526315789 25.41  C 9.12335526315789 25.41  10.3963815789474 25.83  10.3963815789474 25.83  C 10.3963815789474 25.83  12.9424342105263 28.35  12.9424342105263 28.35  C 12.9424342105263 28.35  13.7911184210526 27.09  13.7911184210526 27.09  C 13.7911184210526 27.09  20.15625 25.83  20.15625 25.83  C 20.15625 25.83  21.4292763157895 24.15  21.4292763157895 24.15  C 21.4292763157895 24.15  22.2779605263158 24.15  22.2779605263158 24.15  C 22.2779605263158 24.15  22.2779605263158 22.47  22.2779605263158 22.47  C 22.2779605263158 22.47  25.2483552631579 22.47  25.2483552631579 22.47  C 25.2483552631579 22.47  26.5213815789474 20.79  26.5213815789474 20.79  C 26.5213815789474 20.79  30.7648026315789 11.55  30.7648026315789 11.55  C 30.7648026315789 11.55  33.3108552631579 10.71  33.3108552631579 10.71  C 33.3108552631579 10.71  35.8569078947368 8.61  35.8569078947368 8.61  C 35.8569078947368 8.61  39.2516447368421 7.77  39.2516447368421 7.77  C 39.2516447368421 7.77  41.3733552631579 5.25  41.3733552631579 5.25  C 41.3733552631579 5.25  43.9194078947368 3.99  43.9194078947368 3.99  C 43.9194078947368 3.99  47.3141447368421 3.57  47.3141447368421 3.57  C 47.3141447368421 3.57  53.2549342105263 0.21  53.2549342105263 0.21  C 53.2549342105263 0.21  54.1036184210526 1.05  54.1036184210526 1.05  C 54.1036184210526 1.05  59.1957236842105 1.05  59.1957236842105 1.05  C 59.1957236842105 1.05  60.0444078947368 2.31  60.0444078947368 2.31  C 60.0444078947368 2.31  62.1661184210526 3.15  62.1661184210526 3.15  C 62.1661184210526 3.15  63.4391447368421 5.25  63.4391447368421 5.25  C 63.4391447368421 5.25  64.7121710526316 4.83  64.7121710526316 4.83  C 64.7121710526316 4.83  65.5608552631579 5.67  65.5608552631579 5.67  C 65.5608552631579 5.67  68.1069078947369 4.83  68.1069078947369 4.83  C 68.1069078947369 4.83  70.6529605263158 1.89  70.6529605263158 1.89  C 70.6529605263158 1.89  72.3503289473684 1.47  72.3503289473684 1.47  C 72.3503289473684 1.47  74.4720394736842 2.31  74.4720394736842 2.31  C 74.4720394736842 2.31  78.2911184210526 2.31  78.2911184210526 2.31  C 78.2911184210526 2.31  80.4128289473684 1.47  80.4128289473684 1.47  C 80.4128289473684 1.47  81.2615131578947 2.73  81.2615131578947 2.73  C 81.2615131578947 2.73  80.8371710526316 4.83  80.8371710526316 4.83  C 80.8371710526316 4.83  79.5641447368421 5.25  79.5641447368421 5.25  C 79.5641447368421 5.25  77.4424342105263 8.19  77.4424342105263 8.19  C 77.4424342105263 8.19  78.2911184210526 9.87  78.2911184210526 9.87  C 78.2911184210526 9.87  81.6858552631579 10.71  81.6858552631579 10.71  C 81.6858552631579 10.71  82.5345394736842 11.55  82.5345394736842 11.55  C 82.5345394736842 11.55  84.65625 10.71  84.65625 10.71  C 84.65625 10.71  84.65625 11.55  84.65625 11.55  C 84.65625 11.55  85.9292763157895 11.55  85.9292763157895 11.55  C 85.9292763157895 11.55  88.8996710526316 9.87  88.8996710526316 9.87  C 88.8996710526316 9.87  88.4753289473684 11.55  88.4753289473684 11.55  C 88.4753289473684 11.55  87.6266447368421 11.97  87.6266447368421 11.97  C 87.6266447368421 11.97  87.2023026315789 15.33  87.2023026315789 15.33  C 87.2023026315789 15.33  88.0509868421053 17.01  88.0509868421053 17.01  C 88.0509868421053 17.01  90.5970394736842 15.33  90.5970394736842 15.33  C 90.5970394736842 15.33  91.8700657894737 15.33  91.8700657894737 15.33  C 91.8700657894737 15.33  92.71875 17.01  92.71875 17.01  C 92.71875 17.01  94.4161184210526 15.75  94.4161184210526 15.75  C 94.4161184210526 15.75  96.5378289473684 15.75  96.5378289473684 15.75  Z " stroke-width="2" stroke-dasharray="1,1" stroke="#999999" fill="none" transform="matrix(1 0 0 1 52 875 )" mask="url(#clip30)" />
  </g>
</svg>