<?xml version="1.0" encoding="utf-8"?>
<svg version="1.1" xmlns:xlink="http://www.w3.org/1999/xlink" width="67px" height="88px" xmlns="http://www.w3.org/2000/svg">
  <defs>
    <mask fill="white" id="clip31">
      <path d="M 2.33227848101266 42.1142857142857  C 2.33227848101266 42.1142857142857  1.48417721518987 41.2761904761905  1.48417721518987 41.2761904761905  C 1.48417721518987 41.2761904761905  1.90822784810127 40.8571428571429  1.90822784810127 40.8571428571429  C 1.90822784810127 40.8571428571429  1.06012658227848 40.0190476190476  1.06012658227848 40.0190476190476  C 1.06012658227848 40.0190476190476  2.75632911392405 40.4380952380952  2.75632911392405 40.4380952380952  C 2.75632911392405 40.4380952380952  2.75632911392405 39.1809523809524  2.75632911392405 39.1809523809524  C 2.75632911392405 39.1809523809524  6.99683544303798 39.6  6.99683544303798 39.6  C 6.99683544303798 39.6  10.3892405063291 41.6952380952381  10.3892405063291 41.6952380952381  C 10.3892405063291 41.6952380952381  11.2373417721519 41.2761904761905  11.2373417721519 41.2761904761905  C 11.2373417721519 41.2761904761905  11.2373417721519 40.0190476190476  11.2373417721519 40.0190476190476  C 11.2373417721519 40.0190476190476  12.0854430379747 40.0190476190476  12.0854430379747 40.0190476190476  C 12.0854430379747 40.0190476190476  11.6613924050633 38.3428571428571  11.6613924050633 38.3428571428571  C 11.6613924050633 38.3428571428571  12.9335443037975 37.0857142857143  12.9335443037975 37.0857142857143  C 12.9335443037975 37.0857142857143  12.0854430379747 37.0857142857143  12.0854430379747 37.0857142857143  C 12.0854430379747 37.0857142857143  12.0854430379747 36.247619047619  12.0854430379747 36.247619047619  C 12.0854430379747 36.247619047619  13.7816455696203 36.247619047619  13.7816455696203 36.247619047619  C 13.7816455696203 36.247619047619  15.9018987341772 34.152380952381  15.9018987341772 34.152380952381  C 15.9018987341772 34.152380952381  14.629746835443 32.4761904761905  14.629746835443 32.4761904761905  C 14.629746835443 32.4761904761905  15.9018987341772 29.9619047619048  15.9018987341772 29.9619047619048  C 15.9018987341772 29.9619047619048  15.9018987341772 28.2857142857143  15.9018987341772 28.2857142857143  C 15.9018987341772 28.2857142857143  13.7816455696203 28.2857142857143  13.7816455696203 28.2857142857143  C 13.7816455696203 28.2857142857143  13.7816455696203 27.4476190476191  13.7816455696203 27.4476190476191  C 13.7816455696203 27.4476190476191  15.0537974683544 25.7714285714286  15.0537974683544 25.7714285714286  C 15.0537974683544 25.7714285714286  14.629746835443 22  14.629746835443 22  C 14.629746835443 22  16.3259493670886 22  16.3259493670886 22  C 16.3259493670886 22  15.4778481012658 20.3238095238095  15.4778481012658 20.3238095238095  C 15.4778481012658 20.3238095238095  16.75 18.2285714285714  16.75 18.2285714285714  C 16.75 18.2285714285714  16.3259493670886 16.552380952381  16.3259493670886 16.552380952381  C 16.3259493670886 16.552380952381  18.4462025316456 17.3904761904762  18.4462025316456 17.3904761904762  C 18.4462025316456 17.3904761904762  17.5981012658228 9.84761904761905  17.5981012658228 9.84761904761905  C 17.5981012658228 9.84761904761905  16.75 10.2666666666667  16.75 10.2666666666667  C 16.75 10.2666666666667  16.75 9.42857142857143  16.75 9.42857142857143  C 16.75 9.42857142857143  18.4462025316456 8.59047619047619  18.4462025316456 8.59047619047619  C 18.4462025316456 8.59047619047619  17.1740506329114 6.07619047619048  17.1740506329114 6.07619047619048  C 17.1740506329114 6.07619047619048  15.4778481012658 6.07619047619048  15.4778481012658 6.07619047619048  C 15.4778481012658 6.07619047619048  15.9018987341772 4.81904761904762  15.9018987341772 4.81904761904762  C 15.9018987341772 4.81904761904762  11.6613924050633 3.98095238095238  11.6613924050633 3.98095238095238  C 11.6613924050633 3.98095238095238  10.8132911392405 3.14285714285714  10.8132911392405 3.14285714285714  C 10.8132911392405 3.14285714285714  11.6613924050633 2.72380952380952  11.6613924050633 2.72380952380952  C 11.6613924050633 2.72380952380952  12.0854430379747 1.04761904761905  12.0854430379747 1.04761904761905  C 12.0854430379747 1.04761904761905  13.7816455696203 0.20952380952381  13.7816455696203 0.20952380952381  C 13.7816455696203 0.20952380952381  14.629746835443 1.88571428571429  14.629746835443 1.88571428571429  C 14.629746835443 1.88571428571429  16.75 1.88571428571429  16.75 1.88571428571429  C 16.75 1.88571428571429  17.1740506329114 2.72380952380952  17.1740506329114 2.72380952380952  C 17.1740506329114 2.72380952380952  19.2943037974684 1.46666666666667  19.2943037974684 1.46666666666667  C 19.2943037974684 1.46666666666667  20.1424050632911 2.72380952380952  20.1424050632911 2.72380952380952  C 20.1424050632911 2.72380952380952  20.9905063291139 2.30476190476191  20.9905063291139 2.30476190476191  C 20.9905063291139 2.30476190476191  22.2626582278481 3.98095238095238  22.2626582278481 3.98095238095238  C 22.2626582278481 3.98095238095238  24.3829113924051 3.56190476190476  24.3829113924051 3.56190476190476  C 24.3829113924051 3.56190476190476  24.8069620253165 4.81904761904762  24.8069620253165 4.81904761904762  C 24.8069620253165 4.81904761904762  24.8069620253165 3.14285714285714  24.8069620253165 3.14285714285714  C 24.8069620253165 3.14285714285714  27.7753164556962 2.72380952380952  27.7753164556962 2.72380952380952  C 27.7753164556962 2.72380952380952  28.1993670886076 1.04761904761905  28.1993670886076 1.04761904761905  C 28.1993670886076 1.04761904761905  29.8955696202532 2.72380952380952  29.8955696202532 2.72380952380952  C 29.8955696202532 2.72380952380952  29.8955696202532 1.88571428571429  29.8955696202532 1.88571428571429  C 29.8955696202532 1.88571428571429  32.0158227848101 2.30476190476191  32.0158227848101 2.30476190476191  C 32.0158227848101 2.30476190476191  32.0158227848101 1.46666666666667  32.0158227848101 1.46666666666667  C 32.0158227848101 1.46666666666667  32.8639240506329 1.04761904761905  32.8639240506329 1.04761904761905  C 32.8639240506329 1.04761904761905  34.5601265822785 1.46666666666667  34.5601265822785 1.46666666666667  C 34.5601265822785 1.46666666666667  34.5601265822785 2.30476190476191  34.5601265822785 2.30476190476191  C 34.5601265822785 2.30476190476191  35.8322784810127 3.56190476190476  35.8322784810127 3.56190476190476  C 35.8322784810127 3.56190476190476  38.376582278481 3.56190476190476  38.376582278481 3.56190476190476  C 38.376582278481 3.56190476190476  39.2246835443038 6.07619047619048  39.2246835443038 6.07619047619048  C 39.2246835443038 6.07619047619048  39.2246835443038 8.17142857142857  39.2246835443038 8.17142857142857  C 39.2246835443038 8.17142857142857  37.5284810126582 10.2666666666667  37.5284810126582 10.2666666666667  C 37.5284810126582 10.2666666666667  36.2563291139241 14.0380952380952  36.2563291139241 14.0380952380952  C 36.2563291139241 14.0380952380952  37.1044303797468 15.2952380952381  37.1044303797468 15.2952380952381  C 37.1044303797468 15.2952380952381  40.0727848101266 16.552380952381  40.0727848101266 16.552380952381  C 40.0727848101266 16.552380952381  40.0727848101266 24.5142857142857  40.0727848101266 24.5142857142857  C 40.0727848101266 24.5142857142857  40.9208860759494 29.1238095238095  40.9208860759494 29.1238095238095  C 40.9208860759494 29.1238095238095  43.4651898734177 30.8  43.4651898734177 30.8  C 43.4651898734177 30.8  43.4651898734177 29.5428571428571  43.4651898734177 29.5428571428571  C 43.4651898734177 29.5428571428571  44.3132911392405 29.5428571428571  44.3132911392405 29.5428571428571  C 44.3132911392405 29.5428571428571  44.3132911392405 28.7047619047619  44.3132911392405 28.7047619047619  C 44.3132911392405 28.7047619047619  45.5854430379747 30.8  45.5854430379747 30.8  C 45.5854430379747 30.8  47.2816455696203 31.2190476190476  47.2816455696203 31.2190476190476  C 47.2816455696203 31.2190476190476  48.5537974683544 33.3142857142857  48.5537974683544 33.3142857142857  C 48.5537974683544 33.3142857142857  51.0981012658228 34.5714285714286  51.0981012658228 34.5714285714286  C 51.0981012658228 34.5714285714286  51.9462025316456 36.6666666666667  51.9462025316456 36.6666666666667  C 51.9462025316456 36.6666666666667  54.0664556962025 37.9238095238095  54.0664556962025 37.9238095238095  C 54.0664556962025 37.9238095238095  56.1867088607595 37.5047619047619  56.1867088607595 37.5047619047619  C 56.1867088607595 37.5047619047619  58.7310126582278 40.4380952380952  58.7310126582278 40.4380952380952  C 58.7310126582278 40.4380952380952  59.5791139240506 39.6  59.5791139240506 39.6  C 59.5791139240506 39.6  58.7310126582278 36.6666666666667  58.7310126582278 36.6666666666667  C 58.7310126582278 36.6666666666667  60.003164556962 36.247619047619  60.003164556962 36.247619047619  C 60.003164556962 36.247619047619  62.123417721519 39.1809523809524  62.123417721519 39.1809523809524  C 62.123417721519 39.1809523809524  62.9715189873418 44.6285714285714  62.9715189873418 44.6285714285714  C 62.9715189873418 44.6285714285714  65.0917721518987 46.3047619047619  65.0917721518987 46.3047619047619  C 65.0917721518987 46.3047619047619  63.8196202531646 46.7238095238095  63.8196202531646 46.7238095238095  C 63.8196202531646 46.7238095238095  64.2436708860759 47.9809523809524  64.2436708860759 47.9809523809524  C 64.2436708860759 47.9809523809524  65.9398734177215 48.4  65.9398734177215 48.4  C 65.9398734177215 48.4  66.7879746835443 49.6571428571429  66.7879746835443 49.6571428571429  C 66.7879746835443 49.6571428571429  65.5158227848101 49.6571428571429  65.5158227848101 49.6571428571429  C 65.5158227848101 49.6571428571429  65.5158227848101 51.3333333333333  65.5158227848101 51.3333333333333  C 65.5158227848101 51.3333333333333  64.2436708860759 50.4952380952381  64.2436708860759 50.4952380952381  C 64.2436708860759 50.4952380952381  61.6993670886076 50.4952380952381  61.6993670886076 50.4952380952381  C 61.6993670886076 50.4952380952381  60.8512658227848 51.3333333333333  60.8512658227848 51.3333333333333  C 60.8512658227848 51.3333333333333  61.6993670886076 53.0095238095238  61.6993670886076 53.0095238095238  C 61.6993670886076 53.0095238095238  60.003164556962 54.2666666666667  60.003164556962 54.2666666666667  C 60.003164556962 54.2666666666667  59.5791139240506 53.4285714285714  59.5791139240506 53.4285714285714  C 59.5791139240506 53.4285714285714  58.7310126582278 53.847619047619  58.7310126582278 53.847619047619  C 58.7310126582278 53.847619047619  58.7310126582278 55.5238095238095  58.7310126582278 55.5238095238095  C 58.7310126582278 55.5238095238095  59.5791139240506 55.5238095238095  59.5791139240506 55.5238095238095  C 59.5791139240506 55.5238095238095  60.8512658227848 60.552380952381  60.8512658227848 60.552380952381  C 60.8512658227848 60.552380952381  60.003164556962 60.1333333333333  60.003164556962 60.1333333333333  C 60.003164556962 60.1333333333333  58.3069620253165 61.3904761904762  58.3069620253165 61.3904761904762  C 58.3069620253165 61.3904761904762  56.1867088607595 61.3904761904762  56.1867088607595 61.3904761904762  C 56.1867088607595 61.3904761904762  55.7626582278481 63.0666666666667  55.7626582278481 63.0666666666667  C 55.7626582278481 63.0666666666667  57.4588607594937 67.2571428571429  57.4588607594937 67.2571428571429  C 57.4588607594937 67.2571428571429  57.4588607594937 68.0952380952381  57.4588607594937 68.0952380952381  C 57.4588607594937 68.0952380952381  56.6107594936709 68.5142857142857  56.6107594936709 68.5142857142857  C 56.6107594936709 68.5142857142857  58.7310126582278 68.5142857142857  58.7310126582278 68.5142857142857  C 58.7310126582278 68.5142857142857  59.5791139240506 70.1904761904762  59.5791139240506 70.1904761904762  C 59.5791139240506 70.1904761904762  59.1550632911392 71.0285714285714  59.1550632911392 71.0285714285714  C 59.1550632911392 71.0285714285714  50.6740506329114 73.1238095238095  50.6740506329114 73.1238095238095  C 50.6740506329114 73.1238095238095  50.6740506329114 76.0571428571429  50.6740506329114 76.0571428571429  C 50.6740506329114 76.0571428571429  46.8575949367089 78.9904761904762  46.8575949367089 78.9904761904762  C 46.8575949367089 78.9904761904762  46.8575949367089 79.8285714285714  46.8575949367089 79.8285714285714  C 46.8575949367089 79.8285714285714  48.9778481012658 81.9238095238095  48.9778481012658 81.9238095238095  C 48.9778481012658 81.9238095238095  48.129746835443 82.3428571428571  48.129746835443 82.3428571428571  C 48.129746835443 82.3428571428571  48.129746835443 83.1809523809524  48.129746835443 83.1809523809524  C 48.129746835443 83.1809523809524  46.8575949367089 83.6  46.8575949367089 83.6  C 46.8575949367089 83.6  46.0094936708861 82.7619047619048  46.0094936708861 82.7619047619048  C 46.0094936708861 82.7619047619048  41.3449367088608 84.4380952380952  41.3449367088608 84.4380952380952  C 41.3449367088608 84.4380952380952  41.3449367088608 87.3714285714286  41.3449367088608 87.3714285714286  C 41.3449367088608 87.3714285714286  40.496835443038 86.952380952381  40.496835443038 86.952380952381  C 40.496835443038 86.952380952381  40.496835443038 87.7904761904762  40.496835443038 87.7904761904762  C 40.496835443038 87.7904761904762  39.6487341772152 87.7904761904762  39.6487341772152 87.7904761904762  C 39.6487341772152 87.7904761904762  38.8006329113924 85.2761904761905  38.8006329113924 85.2761904761905  C 38.8006329113924 85.2761904761905  37.1044303797468 83.6  37.1044303797468 83.6  C 37.1044303797468 83.6  34.9841772151899 82.3428571428571  34.9841772151899 82.3428571428571  C 34.9841772151899 82.3428571428571  34.1360759493671 83.1809523809524  34.1360759493671 83.1809523809524  C 34.1360759493671 83.1809523809524  31.5917721518987 82.7619047619048  31.5917721518987 82.7619047619048  C 31.5917721518987 82.7619047619048  31.5917721518987 81.9238095238095  31.5917721518987 81.9238095238095  C 31.5917721518987 81.9238095238095  30.3196202531646 80.6666666666667  30.3196202531646 80.6666666666667  C 30.3196202531646 80.6666666666667  30.743670886076 78.5714285714286  30.743670886076 78.5714285714286  C 30.743670886076 78.5714285714286  28.623417721519 78.5714285714286  28.623417721519 78.5714285714286  C 28.623417721519 78.5714285714286  27.7753164556962 77.7333333333333  27.7753164556962 77.7333333333333  C 27.7753164556962 77.7333333333333  27.7753164556962 71.8666666666667  27.7753164556962 71.8666666666667  C 27.7753164556962 71.8666666666667  24.8069620253165 71.0285714285714  24.8069620253165 71.0285714285714  C 24.8069620253165 71.0285714285714  22.2626582278481 71.447619047619  22.2626582278481 71.447619047619  C 22.2626582278481 71.447619047619  21.8386075949367 69.352380952381  21.8386075949367 69.352380952381  C 21.8386075949367 69.352380952381  19.2943037974684 68.9333333333333  19.2943037974684 68.9333333333333  C 19.2943037974684 68.9333333333333  19.7183544303797 67.6761904761905  19.7183544303797 67.6761904761905  C 19.7183544303797 67.6761904761905  18.870253164557 67.6761904761905  18.870253164557 67.6761904761905  C 18.870253164557 67.6761904761905  18.870253164557 66.4190476190476  18.870253164557 66.4190476190476  C 18.870253164557 66.4190476190476  19.7183544303797 66  19.7183544303797 66  C 19.7183544303797 66  19.7183544303797 64.7428571428571  19.7183544303797 64.7428571428571  C 19.7183544303797 64.7428571428571  18.4462025316456 64.7428571428571  18.4462025316456 64.7428571428571  C 18.4462025316456 64.7428571428571  17.1740506329114 61.8095238095238  17.1740506329114 61.8095238095238  C 17.1740506329114 61.8095238095238  16.3259493670886 62.2285714285714  16.3259493670886 62.2285714285714  C 16.3259493670886 62.2285714285714  15.9018987341772 60.9714285714286  15.9018987341772 60.9714285714286  C 15.9018987341772 60.9714285714286  14.2056962025316 61.3904761904762  14.2056962025316 61.3904761904762  C 14.2056962025316 61.3904761904762  11.2373417721519 64.3238095238095  11.2373417721519 64.3238095238095  C 11.2373417721519 64.3238095238095  8.69303797468354 63.9047619047619  8.69303797468354 63.9047619047619  C 8.69303797468354 63.9047619047619  8.26898734177215 64.7428571428571  8.26898734177215 64.7428571428571  C 8.26898734177215 64.7428571428571  7.42088607594937 64.7428571428571  7.42088607594937 64.7428571428571  C 7.42088607594937 64.7428571428571  7.42088607594937 63.9047619047619  7.42088607594937 63.9047619047619  C 7.42088607594937 63.9047619047619  3.18037974683544 63.4857142857143  3.18037974683544 63.4857142857143  C 3.18037974683544 63.4857142857143  1.48417721518987 64.3238095238095  1.48417721518987 64.3238095238095  C 1.48417721518987 64.3238095238095  0.636075949367089 63.9047619047619  0.636075949367089 63.9047619047619  C 0.636075949367089 63.9047619047619  1.06012658227848 63.4857142857143  1.06012658227848 63.4857142857143  C 1.06012658227848 63.4857142857143  0.212025316455696 63.4857142857143  0.212025316455696 63.4857142857143  C 0.212025316455696 63.4857142857143  1.90822784810127 62.2285714285714  1.90822784810127 62.2285714285714  C 1.90822784810127 62.2285714285714  1.90822784810127 60.9714285714286  1.90822784810127 60.9714285714286  C 1.90822784810127 60.9714285714286  1.06012658227848 60.552380952381  1.06012658227848 60.552380952381  C 1.06012658227848 60.552380952381  1.06012658227848 58.8761904761905  1.06012658227848 58.8761904761905  C 1.06012658227848 58.8761904761905  1.90822784810127 58.8761904761905  1.90822784810127 58.8761904761905  C 1.90822784810127 58.8761904761905  0.212025316455696 58.0380952380952  0.212025316455696 58.0380952380952  C 0.212025316455696 58.0380952380952  2.33227848101266 54.6857142857143  2.33227848101266 54.6857142857143  C 2.33227848101266 54.6857142857143  3.60443037974684 53.4285714285714  3.60443037974684 53.4285714285714  C 3.60443037974684 53.4285714285714  10.8132911392405 51.3333333333333  10.8132911392405 51.3333333333333  C 10.8132911392405 51.3333333333333  7.84493670886076 47.1428571428571  7.84493670886076 47.1428571428571  C 7.84493670886076 47.1428571428571  6.14873417721519 47.9809523809524  6.14873417721519 47.9809523809524  C 6.14873417721519 47.9809523809524  5.7246835443038 47.1428571428571  5.7246835443038 47.1428571428571  C 5.7246835443038 47.1428571428571  4.45253164556962 47.9809523809524  4.45253164556962 47.9809523809524  C 4.45253164556962 47.9809523809524  1.48417721518987 42.5333333333333  1.48417721518987 42.5333333333333  C 1.48417721518987 42.5333333333333  2.33227848101266 42.1142857142857  2.33227848101266 42.1142857142857  Z " fill-rule="evenodd" />
    </mask>
  </defs>
  <g transform="matrix(1 0 0 1 -221 -854 )">
    <path d="M 2.33227848101266 42.1142857142857  C 2.33227848101266 42.1142857142857  1.48417721518987 41.2761904761905  1.48417721518987 41.2761904761905  C 1.48417721518987 41.2761904761905  1.90822784810127 40.8571428571429  1.90822784810127 40.8571428571429  C 1.90822784810127 40.8571428571429  1.06012658227848 40.0190476190476  1.06012658227848 40.0190476190476  C 1.06012658227848 40.0190476190476  2.75632911392405 40.4380952380952  2.75632911392405 40.4380952380952  C 2.75632911392405 40.4380952380952  2.75632911392405 39.1809523809524  2.75632911392405 39.1809523809524  C 2.75632911392405 39.1809523809524  6.99683544303798 39.6  6.99683544303798 39.6  C 6.99683544303798 39.6  10.3892405063291 41.6952380952381  10.3892405063291 41.6952380952381  C 10.3892405063291 41.6952380952381  11.2373417721519 41.2761904761905  11.2373417721519 41.2761904761905  C 11.2373417721519 41.2761904761905  11.2373417721519 40.0190476190476  11.2373417721519 40.0190476190476  C 11.2373417721519 40.0190476190476  12.0854430379747 40.0190476190476  12.0854430379747 40.0190476190476  C 12.0854430379747 40.0190476190476  11.6613924050633 38.3428571428571  11.6613924050633 38.3428571428571  C 11.6613924050633 38.3428571428571  12.9335443037975 37.0857142857143  12.9335443037975 37.0857142857143  C 12.9335443037975 37.0857142857143  12.0854430379747 37.0857142857143  12.0854430379747 37.0857142857143  C 12.0854430379747 37.0857142857143  12.0854430379747 36.247619047619  12.0854430379747 36.247619047619  C 12.0854430379747 36.247619047619  13.7816455696203 36.247619047619  13.7816455696203 36.247619047619  C 13.7816455696203 36.247619047619  15.9018987341772 34.152380952381  15.9018987341772 34.152380952381  C 15.9018987341772 34.152380952381  14.629746835443 32.4761904761905  14.629746835443 32.4761904761905  C 14.629746835443 32.4761904761905  15.9018987341772 29.9619047619048  15.9018987341772 29.9619047619048  C 15.9018987341772 29.9619047619048  15.9018987341772 28.2857142857143  15.9018987341772 28.2857142857143  C 15.9018987341772 28.2857142857143  13.7816455696203 28.2857142857143  13.7816455696203 28.2857142857143  C 13.7816455696203 28.2857142857143  13.7816455696203 27.4476190476191  13.7816455696203 27.4476190476191  C 13.7816455696203 27.4476190476191  15.0537974683544 25.7714285714286  15.0537974683544 25.7714285714286  C 15.0537974683544 25.7714285714286  14.629746835443 22  14.629746835443 22  C 14.629746835443 22  16.3259493670886 22  16.3259493670886 22  C 16.3259493670886 22  15.4778481012658 20.3238095238095  15.4778481012658 20.3238095238095  C 15.4778481012658 20.3238095238095  16.75 18.2285714285714  16.75 18.2285714285714  C 16.75 18.2285714285714  16.3259493670886 16.552380952381  16.3259493670886 16.552380952381  C 16.3259493670886 16.552380952381  18.4462025316456 17.3904761904762  18.4462025316456 17.3904761904762  C 18.4462025316456 17.3904761904762  17.5981012658228 9.84761904761905  17.5981012658228 9.84761904761905  C 17.5981012658228 9.84761904761905  16.75 10.2666666666667  16.75 10.2666666666667  C 16.75 10.2666666666667  16.75 9.42857142857143  16.75 9.42857142857143  C 16.75 9.42857142857143  18.4462025316456 8.59047619047619  18.4462025316456 8.59047619047619  C 18.4462025316456 8.59047619047619  17.1740506329114 6.07619047619048  17.1740506329114 6.07619047619048  C 17.1740506329114 6.07619047619048  15.4778481012658 6.07619047619048  15.4778481012658 6.07619047619048  C 15.4778481012658 6.07619047619048  15.9018987341772 4.81904761904762  15.9018987341772 4.81904761904762  C 15.9018987341772 4.81904761904762  11.6613924050633 3.98095238095238  11.6613924050633 3.98095238095238  C 11.6613924050633 3.98095238095238  10.8132911392405 3.14285714285714  10.8132911392405 3.14285714285714  C 10.8132911392405 3.14285714285714  11.6613924050633 2.72380952380952  11.6613924050633 2.72380952380952  C 11.6613924050633 2.72380952380952  12.0854430379747 1.04761904761905  12.0854430379747 1.04761904761905  C 12.0854430379747 1.04761904761905  13.7816455696203 0.20952380952381  13.7816455696203 0.20952380952381  C 13.7816455696203 0.20952380952381  14.629746835443 1.88571428571429  14.629746835443 1.88571428571429  C 14.629746835443 1.88571428571429  16.75 1.88571428571429  16.75 1.88571428571429  C 16.75 1.88571428571429  17.1740506329114 2.72380952380952  17.1740506329114 2.72380952380952  C 17.1740506329114 2.72380952380952  19.2943037974684 1.46666666666667  19.2943037974684 1.46666666666667  C 19.2943037974684 1.46666666666667  20.1424050632911 2.72380952380952  20.1424050632911 2.72380952380952  C 20.1424050632911 2.72380952380952  20.9905063291139 2.30476190476191  20.9905063291139 2.30476190476191  C 20.9905063291139 2.30476190476191  22.2626582278481 3.98095238095238  22.2626582278481 3.98095238095238  C 22.2626582278481 3.98095238095238  24.3829113924051 3.56190476190476  24.3829113924051 3.56190476190476  C 24.3829113924051 3.56190476190476  24.8069620253165 4.81904761904762  24.8069620253165 4.81904761904762  C 24.8069620253165 4.81904761904762  24.8069620253165 3.14285714285714  24.8069620253165 3.14285714285714  C 24.8069620253165 3.14285714285714  27.7753164556962 2.72380952380952  27.7753164556962 2.72380952380952  C 27.7753164556962 2.72380952380952  28.1993670886076 1.04761904761905  28.1993670886076 1.04761904761905  C 28.1993670886076 1.04761904761905  29.8955696202532 2.72380952380952  29.8955696202532 2.72380952380952  C 29.8955696202532 2.72380952380952  29.8955696202532 1.88571428571429  29.8955696202532 1.88571428571429  C 29.8955696202532 1.88571428571429  32.0158227848101 2.30476190476191  32.0158227848101 2.30476190476191  C 32.0158227848101 2.30476190476191  32.0158227848101 1.46666666666667  32.0158227848101 1.46666666666667  C 32.0158227848101 1.46666666666667  32.8639240506329 1.04761904761905  32.8639240506329 1.04761904761905  C 32.8639240506329 1.04761904761905  34.5601265822785 1.46666666666667  34.5601265822785 1.46666666666667  C 34.5601265822785 1.46666666666667  34.5601265822785 2.30476190476191  34.5601265822785 2.30476190476191  C 34.5601265822785 2.30476190476191  35.8322784810127 3.56190476190476  35.8322784810127 3.56190476190476  C 35.8322784810127 3.56190476190476  38.376582278481 3.56190476190476  38.376582278481 3.56190476190476  C 38.376582278481 3.56190476190476  39.2246835443038 6.07619047619048  39.2246835443038 6.07619047619048  C 39.2246835443038 6.07619047619048  39.2246835443038 8.17142857142857  39.2246835443038 8.17142857142857  C 39.2246835443038 8.17142857142857  37.5284810126582 10.2666666666667  37.5284810126582 10.2666666666667  C 37.5284810126582 10.2666666666667  36.2563291139241 14.0380952380952  36.2563291139241 14.0380952380952  C 36.2563291139241 14.0380952380952  37.1044303797468 15.2952380952381  37.1044303797468 15.2952380952381  C 37.1044303797468 15.2952380952381  40.0727848101266 16.552380952381  40.0727848101266 16.552380952381  C 40.0727848101266 16.552380952381  40.0727848101266 24.5142857142857  40.0727848101266 24.5142857142857  C 40.0727848101266 24.5142857142857  40.9208860759494 29.1238095238095  40.9208860759494 29.1238095238095  C 40.9208860759494 29.1238095238095  43.4651898734177 30.8  43.4651898734177 30.8  C 43.4651898734177 30.8  43.4651898734177 29.5428571428571  43.4651898734177 29.5428571428571  C 43.4651898734177 29.5428571428571  44.3132911392405 29.5428571428571  44.3132911392405 29.5428571428571  C 44.3132911392405 29.5428571428571  44.3132911392405 28.7047619047619  44.3132911392405 28.7047619047619  C 44.3132911392405 28.7047619047619  45.5854430379747 30.8  45.5854430379747 30.8  C 45.5854430379747 30.8  47.2816455696203 31.2190476190476  47.2816455696203 31.2190476190476  C 47.2816455696203 31.2190476190476  48.5537974683544 33.3142857142857  48.5537974683544 33.3142857142857  C 48.5537974683544 33.3142857142857  51.0981012658228 34.5714285714286  51.0981012658228 34.5714285714286  C 51.0981012658228 34.5714285714286  51.9462025316456 36.6666666666667  51.9462025316456 36.6666666666667  C 51.9462025316456 36.6666666666667  54.0664556962025 37.9238095238095  54.0664556962025 37.9238095238095  C 54.0664556962025 37.9238095238095  56.1867088607595 37.5047619047619  56.1867088607595 37.5047619047619  C 56.1867088607595 37.5047619047619  58.7310126582278 40.4380952380952  58.7310126582278 40.4380952380952  C 58.7310126582278 40.4380952380952  59.5791139240506 39.6  59.5791139240506 39.6  C 59.5791139240506 39.6  58.7310126582278 36.6666666666667  58.7310126582278 36.6666666666667  C 58.7310126582278 36.6666666666667  60.003164556962 36.247619047619  60.003164556962 36.247619047619  C 60.003164556962 36.247619047619  62.123417721519 39.1809523809524  62.123417721519 39.1809523809524  C 62.123417721519 39.1809523809524  62.9715189873418 44.6285714285714  62.9715189873418 44.6285714285714  C 62.9715189873418 44.6285714285714  65.0917721518987 46.3047619047619  65.0917721518987 46.3047619047619  C 65.0917721518987 46.3047619047619  63.8196202531646 46.7238095238095  63.8196202531646 46.7238095238095  C 63.8196202531646 46.7238095238095  64.2436708860759 47.9809523809524  64.2436708860759 47.9809523809524  C 64.2436708860759 47.9809523809524  65.9398734177215 48.4  65.9398734177215 48.4  C 65.9398734177215 48.4  66.7879746835443 49.6571428571429  66.7879746835443 49.6571428571429  C 66.7879746835443 49.6571428571429  65.5158227848101 49.6571428571429  65.5158227848101 49.6571428571429  C 65.5158227848101 49.6571428571429  65.5158227848101 51.3333333333333  65.5158227848101 51.3333333333333  C 65.5158227848101 51.3333333333333  64.2436708860759 50.4952380952381  64.2436708860759 50.4952380952381  C 64.2436708860759 50.4952380952381  61.6993670886076 50.4952380952381  61.6993670886076 50.4952380952381  C 61.6993670886076 50.4952380952381  60.8512658227848 51.3333333333333  60.8512658227848 51.3333333333333  C 60.8512658227848 51.3333333333333  61.6993670886076 53.0095238095238  61.6993670886076 53.0095238095238  C 61.6993670886076 53.0095238095238  60.003164556962 54.2666666666667  60.003164556962 54.2666666666667  C 60.003164556962 54.2666666666667  59.5791139240506 53.4285714285714  59.5791139240506 53.4285714285714  C 59.5791139240506 53.4285714285714  58.7310126582278 53.847619047619  58.7310126582278 53.847619047619  C 58.7310126582278 53.847619047619  58.7310126582278 55.5238095238095  58.7310126582278 55.5238095238095  C 58.7310126582278 55.5238095238095  59.5791139240506 55.5238095238095  59.5791139240506 55.5238095238095  C 59.5791139240506 55.5238095238095  60.8512658227848 60.552380952381  60.8512658227848 60.552380952381  C 60.8512658227848 60.552380952381  60.003164556962 60.1333333333333  60.003164556962 60.1333333333333  C 60.003164556962 60.1333333333333  58.3069620253165 61.3904761904762  58.3069620253165 61.3904761904762  C 58.3069620253165 61.3904761904762  56.1867088607595 61.3904761904762  56.1867088607595 61.3904761904762  C 56.1867088607595 61.3904761904762  55.7626582278481 63.0666666666667  55.7626582278481 63.0666666666667  C 55.7626582278481 63.0666666666667  57.4588607594937 67.2571428571429  57.4588607594937 67.2571428571429  C 57.4588607594937 67.2571428571429  57.4588607594937 68.0952380952381  57.4588607594937 68.0952380952381  C 57.4588607594937 68.0952380952381  56.6107594936709 68.5142857142857  56.6107594936709 68.5142857142857  C 56.6107594936709 68.5142857142857  58.7310126582278 68.5142857142857  58.7310126582278 68.5142857142857  C 58.7310126582278 68.5142857142857  59.5791139240506 70.1904761904762  59.5791139240506 70.1904761904762  C 59.5791139240506 70.1904761904762  59.1550632911392 71.0285714285714  59.1550632911392 71.0285714285714  C 59.1550632911392 71.0285714285714  50.6740506329114 73.1238095238095  50.6740506329114 73.1238095238095  C 50.6740506329114 73.1238095238095  50.6740506329114 76.0571428571429  50.6740506329114 76.0571428571429  C 50.6740506329114 76.0571428571429  46.8575949367089 78.9904761904762  46.8575949367089 78.9904761904762  C 46.8575949367089 78.9904761904762  46.8575949367089 79.8285714285714  46.8575949367089 79.8285714285714  C 46.8575949367089 79.8285714285714  48.9778481012658 81.9238095238095  48.9778481012658 81.9238095238095  C 48.9778481012658 81.9238095238095  48.129746835443 82.3428571428571  48.129746835443 82.3428571428571  C 48.129746835443 82.3428571428571  48.129746835443 83.1809523809524  48.129746835443 83.1809523809524  C 48.129746835443 83.1809523809524  46.8575949367089 83.6  46.8575949367089 83.6  C 46.8575949367089 83.6  46.0094936708861 82.7619047619048  46.0094936708861 82.7619047619048  C 46.0094936708861 82.7619047619048  41.3449367088608 84.4380952380952  41.3449367088608 84.4380952380952  C 41.3449367088608 84.4380952380952  41.3449367088608 87.3714285714286  41.3449367088608 87.3714285714286  C 41.3449367088608 87.3714285714286  40.496835443038 86.952380952381  40.496835443038 86.952380952381  C 40.496835443038 86.952380952381  40.496835443038 87.7904761904762  40.496835443038 87.7904761904762  C 40.496835443038 87.7904761904762  39.6487341772152 87.7904761904762  39.6487341772152 87.7904761904762  C 39.6487341772152 87.7904761904762  38.8006329113924 85.2761904761905  38.8006329113924 85.2761904761905  C 38.8006329113924 85.2761904761905  37.1044303797468 83.6  37.1044303797468 83.6  C 37.1044303797468 83.6  34.9841772151899 82.3428571428571  34.9841772151899 82.3428571428571  C 34.9841772151899 82.3428571428571  34.1360759493671 83.1809523809524  34.1360759493671 83.1809523809524  C 34.1360759493671 83.1809523809524  31.5917721518987 82.7619047619048  31.5917721518987 82.7619047619048  C 31.5917721518987 82.7619047619048  31.5917721518987 81.9238095238095  31.5917721518987 81.9238095238095  C 31.5917721518987 81.9238095238095  30.3196202531646 80.6666666666667  30.3196202531646 80.6666666666667  C 30.3196202531646 80.6666666666667  30.743670886076 78.5714285714286  30.743670886076 78.5714285714286  C 30.743670886076 78.5714285714286  28.623417721519 78.5714285714286  28.623417721519 78.5714285714286  C 28.623417721519 78.5714285714286  27.7753164556962 77.7333333333333  27.7753164556962 77.7333333333333  C 27.7753164556962 77.7333333333333  27.7753164556962 71.8666666666667  27.7753164556962 71.8666666666667  C 27.7753164556962 71.8666666666667  24.8069620253165 71.0285714285714  24.8069620253165 71.0285714285714  C 24.8069620253165 71.0285714285714  22.2626582278481 71.447619047619  22.2626582278481 71.447619047619  C 22.2626582278481 71.447619047619  21.8386075949367 69.352380952381  21.8386075949367 69.352380952381  C 21.8386075949367 69.352380952381  19.2943037974684 68.9333333333333  19.2943037974684 68.9333333333333  C 19.2943037974684 68.9333333333333  19.7183544303797 67.6761904761905  19.7183544303797 67.6761904761905  C 19.7183544303797 67.6761904761905  18.870253164557 67.6761904761905  18.870253164557 67.6761904761905  C 18.870253164557 67.6761904761905  18.870253164557 66.4190476190476  18.870253164557 66.4190476190476  C 18.870253164557 66.4190476190476  19.7183544303797 66  19.7183544303797 66  C 19.7183544303797 66  19.7183544303797 64.7428571428571  19.7183544303797 64.7428571428571  C 19.7183544303797 64.7428571428571  18.4462025316456 64.7428571428571  18.4462025316456 64.7428571428571  C 18.4462025316456 64.7428571428571  17.1740506329114 61.8095238095238  17.1740506329114 61.8095238095238  C 17.1740506329114 61.8095238095238  16.3259493670886 62.2285714285714  16.3259493670886 62.2285714285714  C 16.3259493670886 62.2285714285714  15.9018987341772 60.9714285714286  15.9018987341772 60.9714285714286  C 15.9018987341772 60.9714285714286  14.2056962025316 61.3904761904762  14.2056962025316 61.3904761904762  C 14.2056962025316 61.3904761904762  11.2373417721519 64.3238095238095  11.2373417721519 64.3238095238095  C 11.2373417721519 64.3238095238095  8.69303797468354 63.9047619047619  8.69303797468354 63.9047619047619  C 8.69303797468354 63.9047619047619  8.26898734177215 64.7428571428571  8.26898734177215 64.7428571428571  C 8.26898734177215 64.7428571428571  7.42088607594937 64.7428571428571  7.42088607594937 64.7428571428571  C 7.42088607594937 64.7428571428571  7.42088607594937 63.9047619047619  7.42088607594937 63.9047619047619  C 7.42088607594937 63.9047619047619  3.18037974683544 63.4857142857143  3.18037974683544 63.4857142857143  C 3.18037974683544 63.4857142857143  1.48417721518987 64.3238095238095  1.48417721518987 64.3238095238095  C 1.48417721518987 64.3238095238095  0.636075949367089 63.9047619047619  0.636075949367089 63.9047619047619  C 0.636075949367089 63.9047619047619  1.06012658227848 63.4857142857143  1.06012658227848 63.4857142857143  C 1.06012658227848 63.4857142857143  0.212025316455696 63.4857142857143  0.212025316455696 63.4857142857143  C 0.212025316455696 63.4857142857143  1.90822784810127 62.2285714285714  1.90822784810127 62.2285714285714  C 1.90822784810127 62.2285714285714  1.90822784810127 60.9714285714286  1.90822784810127 60.9714285714286  C 1.90822784810127 60.9714285714286  1.06012658227848 60.552380952381  1.06012658227848 60.552380952381  C 1.06012658227848 60.552380952381  1.06012658227848 58.8761904761905  1.06012658227848 58.8761904761905  C 1.06012658227848 58.8761904761905  1.90822784810127 58.8761904761905  1.90822784810127 58.8761904761905  C 1.90822784810127 58.8761904761905  0.212025316455696 58.0380952380952  0.212025316455696 58.0380952380952  C 0.212025316455696 58.0380952380952  2.33227848101266 54.6857142857143  2.33227848101266 54.6857142857143  C 2.33227848101266 54.6857142857143  3.60443037974684 53.4285714285714  3.60443037974684 53.4285714285714  C 3.60443037974684 53.4285714285714  10.8132911392405 51.3333333333333  10.8132911392405 51.3333333333333  C 10.8132911392405 51.3333333333333  7.84493670886076 47.1428571428571  7.84493670886076 47.1428571428571  C 7.84493670886076 47.1428571428571  6.14873417721519 47.9809523809524  6.14873417721519 47.9809523809524  C 6.14873417721519 47.9809523809524  5.7246835443038 47.1428571428571  5.7246835443038 47.1428571428571  C 5.7246835443038 47.1428571428571  4.45253164556962 47.9809523809524  4.45253164556962 47.9809523809524  C 4.45253164556962 47.9809523809524  1.48417721518987 42.5333333333333  1.48417721518987 42.5333333333333  C 1.48417721518987 42.5333333333333  2.33227848101266 42.1142857142857  2.33227848101266 42.1142857142857  Z " fill-rule="nonzero" fill="#ffffff" stroke="none" fill-opacity="0" transform="matrix(1 0 0 1 221 854 )" />
    <path d="M 2.33227848101266 42.1142857142857  C 2.33227848101266 42.1142857142857  1.48417721518987 41.2761904761905  1.48417721518987 41.2761904761905  C 1.48417721518987 41.2761904761905  1.90822784810127 40.8571428571429  1.90822784810127 40.8571428571429  C 1.90822784810127 40.8571428571429  1.06012658227848 40.0190476190476  1.06012658227848 40.0190476190476  C 1.06012658227848 40.0190476190476  2.75632911392405 40.4380952380952  2.75632911392405 40.4380952380952  C 2.75632911392405 40.4380952380952  2.75632911392405 39.1809523809524  2.75632911392405 39.1809523809524  C 2.75632911392405 39.1809523809524  6.99683544303798 39.6  6.99683544303798 39.6  C 6.99683544303798 39.6  10.3892405063291 41.6952380952381  10.3892405063291 41.6952380952381  C 10.3892405063291 41.6952380952381  11.2373417721519 41.2761904761905  11.2373417721519 41.2761904761905  C 11.2373417721519 41.2761904761905  11.2373417721519 40.0190476190476  11.2373417721519 40.0190476190476  C 11.2373417721519 40.0190476190476  12.0854430379747 40.0190476190476  12.0854430379747 40.0190476190476  C 12.0854430379747 40.0190476190476  11.6613924050633 38.3428571428571  11.6613924050633 38.3428571428571  C 11.6613924050633 38.3428571428571  12.9335443037975 37.0857142857143  12.9335443037975 37.0857142857143  C 12.9335443037975 37.0857142857143  12.0854430379747 37.0857142857143  12.0854430379747 37.0857142857143  C 12.0854430379747 37.0857142857143  12.0854430379747 36.247619047619  12.0854430379747 36.247619047619  C 12.0854430379747 36.247619047619  13.7816455696203 36.247619047619  13.7816455696203 36.247619047619  C 13.7816455696203 36.247619047619  15.9018987341772 34.152380952381  15.9018987341772 34.152380952381  C 15.9018987341772 34.152380952381  14.629746835443 32.4761904761905  14.629746835443 32.4761904761905  C 14.629746835443 32.4761904761905  15.9018987341772 29.9619047619048  15.9018987341772 29.9619047619048  C 15.9018987341772 29.9619047619048  15.9018987341772 28.2857142857143  15.9018987341772 28.2857142857143  C 15.9018987341772 28.2857142857143  13.7816455696203 28.2857142857143  13.7816455696203 28.2857142857143  C 13.7816455696203 28.2857142857143  13.7816455696203 27.4476190476191  13.7816455696203 27.4476190476191  C 13.7816455696203 27.4476190476191  15.0537974683544 25.7714285714286  15.0537974683544 25.7714285714286  C 15.0537974683544 25.7714285714286  14.629746835443 22  14.629746835443 22  C 14.629746835443 22  16.3259493670886 22  16.3259493670886 22  C 16.3259493670886 22  15.4778481012658 20.3238095238095  15.4778481012658 20.3238095238095  C 15.4778481012658 20.3238095238095  16.75 18.2285714285714  16.75 18.2285714285714  C 16.75 18.2285714285714  16.3259493670886 16.552380952381  16.3259493670886 16.552380952381  C 16.3259493670886 16.552380952381  18.4462025316456 17.3904761904762  18.4462025316456 17.3904761904762  C 18.4462025316456 17.3904761904762  17.5981012658228 9.84761904761905  17.5981012658228 9.84761904761905  C 17.5981012658228 9.84761904761905  16.75 10.2666666666667  16.75 10.2666666666667  C 16.75 10.2666666666667  16.75 9.42857142857143  16.75 9.42857142857143  C 16.75 9.42857142857143  18.4462025316456 8.59047619047619  18.4462025316456 8.59047619047619  C 18.4462025316456 8.59047619047619  17.1740506329114 6.07619047619048  17.1740506329114 6.07619047619048  C 17.1740506329114 6.07619047619048  15.4778481012658 6.07619047619048  15.4778481012658 6.07619047619048  C 15.4778481012658 6.07619047619048  15.9018987341772 4.81904761904762  15.9018987341772 4.81904761904762  C 15.9018987341772 4.81904761904762  11.6613924050633 3.98095238095238  11.6613924050633 3.98095238095238  C 11.6613924050633 3.98095238095238  10.8132911392405 3.14285714285714  10.8132911392405 3.14285714285714  C 10.8132911392405 3.14285714285714  11.6613924050633 2.72380952380952  11.6613924050633 2.72380952380952  C 11.6613924050633 2.72380952380952  12.0854430379747 1.04761904761905  12.0854430379747 1.04761904761905  C 12.0854430379747 1.04761904761905  13.7816455696203 0.20952380952381  13.7816455696203 0.20952380952381  C 13.7816455696203 0.20952380952381  14.629746835443 1.88571428571429  14.629746835443 1.88571428571429  C 14.629746835443 1.88571428571429  16.75 1.88571428571429  16.75 1.88571428571429  C 16.75 1.88571428571429  17.1740506329114 2.72380952380952  17.1740506329114 2.72380952380952  C 17.1740506329114 2.72380952380952  19.2943037974684 1.46666666666667  19.2943037974684 1.46666666666667  C 19.2943037974684 1.46666666666667  20.1424050632911 2.72380952380952  20.1424050632911 2.72380952380952  C 20.1424050632911 2.72380952380952  20.9905063291139 2.30476190476191  20.9905063291139 2.30476190476191  C 20.9905063291139 2.30476190476191  22.2626582278481 3.98095238095238  22.2626582278481 3.98095238095238  C 22.2626582278481 3.98095238095238  24.3829113924051 3.56190476190476  24.3829113924051 3.56190476190476  C 24.3829113924051 3.56190476190476  24.8069620253165 4.81904761904762  24.8069620253165 4.81904761904762  C 24.8069620253165 4.81904761904762  24.8069620253165 3.14285714285714  24.8069620253165 3.14285714285714  C 24.8069620253165 3.14285714285714  27.7753164556962 2.72380952380952  27.7753164556962 2.72380952380952  C 27.7753164556962 2.72380952380952  28.1993670886076 1.04761904761905  28.1993670886076 1.04761904761905  C 28.1993670886076 1.04761904761905  29.8955696202532 2.72380952380952  29.8955696202532 2.72380952380952  C 29.8955696202532 2.72380952380952  29.8955696202532 1.88571428571429  29.8955696202532 1.88571428571429  C 29.8955696202532 1.88571428571429  32.0158227848101 2.30476190476191  32.0158227848101 2.30476190476191  C 32.0158227848101 2.30476190476191  32.0158227848101 1.46666666666667  32.0158227848101 1.46666666666667  C 32.0158227848101 1.46666666666667  32.8639240506329 1.04761904761905  32.8639240506329 1.04761904761905  C 32.8639240506329 1.04761904761905  34.5601265822785 1.46666666666667  34.5601265822785 1.46666666666667  C 34.5601265822785 1.46666666666667  34.5601265822785 2.30476190476191  34.5601265822785 2.30476190476191  C 34.5601265822785 2.30476190476191  35.8322784810127 3.56190476190476  35.8322784810127 3.56190476190476  C 35.8322784810127 3.56190476190476  38.376582278481 3.56190476190476  38.376582278481 3.56190476190476  C 38.376582278481 3.56190476190476  39.2246835443038 6.07619047619048  39.2246835443038 6.07619047619048  C 39.2246835443038 6.07619047619048  39.2246835443038 8.17142857142857  39.2246835443038 8.17142857142857  C 39.2246835443038 8.17142857142857  37.5284810126582 10.2666666666667  37.5284810126582 10.2666666666667  C 37.5284810126582 10.2666666666667  36.2563291139241 14.0380952380952  36.2563291139241 14.0380952380952  C 36.2563291139241 14.0380952380952  37.1044303797468 15.2952380952381  37.1044303797468 15.2952380952381  C 37.1044303797468 15.2952380952381  40.0727848101266 16.552380952381  40.0727848101266 16.552380952381  C 40.0727848101266 16.552380952381  40.0727848101266 24.5142857142857  40.0727848101266 24.5142857142857  C 40.0727848101266 24.5142857142857  40.9208860759494 29.1238095238095  40.9208860759494 29.1238095238095  C 40.9208860759494 29.1238095238095  43.4651898734177 30.8  43.4651898734177 30.8  C 43.4651898734177 30.8  43.4651898734177 29.5428571428571  43.4651898734177 29.5428571428571  C 43.4651898734177 29.5428571428571  44.3132911392405 29.5428571428571  44.3132911392405 29.5428571428571  C 44.3132911392405 29.5428571428571  44.3132911392405 28.7047619047619  44.3132911392405 28.7047619047619  C 44.3132911392405 28.7047619047619  45.5854430379747 30.8  45.5854430379747 30.8  C 45.5854430379747 30.8  47.2816455696203 31.2190476190476  47.2816455696203 31.2190476190476  C 47.2816455696203 31.2190476190476  48.5537974683544 33.3142857142857  48.5537974683544 33.3142857142857  C 48.5537974683544 33.3142857142857  51.0981012658228 34.5714285714286  51.0981012658228 34.5714285714286  C 51.0981012658228 34.5714285714286  51.9462025316456 36.6666666666667  51.9462025316456 36.6666666666667  C 51.9462025316456 36.6666666666667  54.0664556962025 37.9238095238095  54.0664556962025 37.9238095238095  C 54.0664556962025 37.9238095238095  56.1867088607595 37.5047619047619  56.1867088607595 37.5047619047619  C 56.1867088607595 37.5047619047619  58.7310126582278 40.4380952380952  58.7310126582278 40.4380952380952  C 58.7310126582278 40.4380952380952  59.5791139240506 39.6  59.5791139240506 39.6  C 59.5791139240506 39.6  58.7310126582278 36.6666666666667  58.7310126582278 36.6666666666667  C 58.7310126582278 36.6666666666667  60.003164556962 36.247619047619  60.003164556962 36.247619047619  C 60.003164556962 36.247619047619  62.123417721519 39.1809523809524  62.123417721519 39.1809523809524  C 62.123417721519 39.1809523809524  62.9715189873418 44.6285714285714  62.9715189873418 44.6285714285714  C 62.9715189873418 44.6285714285714  65.0917721518987 46.3047619047619  65.0917721518987 46.3047619047619  C 65.0917721518987 46.3047619047619  63.8196202531646 46.7238095238095  63.8196202531646 46.7238095238095  C 63.8196202531646 46.7238095238095  64.2436708860759 47.9809523809524  64.2436708860759 47.9809523809524  C 64.2436708860759 47.9809523809524  65.9398734177215 48.4  65.9398734177215 48.4  C 65.9398734177215 48.4  66.7879746835443 49.6571428571429  66.7879746835443 49.6571428571429  C 66.7879746835443 49.6571428571429  65.5158227848101 49.6571428571429  65.5158227848101 49.6571428571429  C 65.5158227848101 49.6571428571429  65.5158227848101 51.3333333333333  65.5158227848101 51.3333333333333  C 65.5158227848101 51.3333333333333  64.2436708860759 50.4952380952381  64.2436708860759 50.4952380952381  C 64.2436708860759 50.4952380952381  61.6993670886076 50.4952380952381  61.6993670886076 50.4952380952381  C 61.6993670886076 50.4952380952381  60.8512658227848 51.3333333333333  60.8512658227848 51.3333333333333  C 60.8512658227848 51.3333333333333  61.6993670886076 53.0095238095238  61.6993670886076 53.0095238095238  C 61.6993670886076 53.0095238095238  60.003164556962 54.2666666666667  60.003164556962 54.2666666666667  C 60.003164556962 54.2666666666667  59.5791139240506 53.4285714285714  59.5791139240506 53.4285714285714  C 59.5791139240506 53.4285714285714  58.7310126582278 53.847619047619  58.7310126582278 53.847619047619  C 58.7310126582278 53.847619047619  58.7310126582278 55.5238095238095  58.7310126582278 55.5238095238095  C 58.7310126582278 55.5238095238095  59.5791139240506 55.5238095238095  59.5791139240506 55.5238095238095  C 59.5791139240506 55.5238095238095  60.8512658227848 60.552380952381  60.8512658227848 60.552380952381  C 60.8512658227848 60.552380952381  60.003164556962 60.1333333333333  60.003164556962 60.1333333333333  C 60.003164556962 60.1333333333333  58.3069620253165 61.3904761904762  58.3069620253165 61.3904761904762  C 58.3069620253165 61.3904761904762  56.1867088607595 61.3904761904762  56.1867088607595 61.3904761904762  C 56.1867088607595 61.3904761904762  55.7626582278481 63.0666666666667  55.7626582278481 63.0666666666667  C 55.7626582278481 63.0666666666667  57.4588607594937 67.2571428571429  57.4588607594937 67.2571428571429  C 57.4588607594937 67.2571428571429  57.4588607594937 68.0952380952381  57.4588607594937 68.0952380952381  C 57.4588607594937 68.0952380952381  56.6107594936709 68.5142857142857  56.6107594936709 68.5142857142857  C 56.6107594936709 68.5142857142857  58.7310126582278 68.5142857142857  58.7310126582278 68.5142857142857  C 58.7310126582278 68.5142857142857  59.5791139240506 70.1904761904762  59.5791139240506 70.1904761904762  C 59.5791139240506 70.1904761904762  59.1550632911392 71.0285714285714  59.1550632911392 71.0285714285714  C 59.1550632911392 71.0285714285714  50.6740506329114 73.1238095238095  50.6740506329114 73.1238095238095  C 50.6740506329114 73.1238095238095  50.6740506329114 76.0571428571429  50.6740506329114 76.0571428571429  C 50.6740506329114 76.0571428571429  46.8575949367089 78.9904761904762  46.8575949367089 78.9904761904762  C 46.8575949367089 78.9904761904762  46.8575949367089 79.8285714285714  46.8575949367089 79.8285714285714  C 46.8575949367089 79.8285714285714  48.9778481012658 81.9238095238095  48.9778481012658 81.9238095238095  C 48.9778481012658 81.9238095238095  48.129746835443 82.3428571428571  48.129746835443 82.3428571428571  C 48.129746835443 82.3428571428571  48.129746835443 83.1809523809524  48.129746835443 83.1809523809524  C 48.129746835443 83.1809523809524  46.8575949367089 83.6  46.8575949367089 83.6  C 46.8575949367089 83.6  46.0094936708861 82.7619047619048  46.0094936708861 82.7619047619048  C 46.0094936708861 82.7619047619048  41.3449367088608 84.4380952380952  41.3449367088608 84.4380952380952  C 41.3449367088608 84.4380952380952  41.3449367088608 87.3714285714286  41.3449367088608 87.3714285714286  C 41.3449367088608 87.3714285714286  40.496835443038 86.952380952381  40.496835443038 86.952380952381  C 40.496835443038 86.952380952381  40.496835443038 87.7904761904762  40.496835443038 87.7904761904762  C 40.496835443038 87.7904761904762  39.6487341772152 87.7904761904762  39.6487341772152 87.7904761904762  C 39.6487341772152 87.7904761904762  38.8006329113924 85.2761904761905  38.8006329113924 85.2761904761905  C 38.8006329113924 85.2761904761905  37.1044303797468 83.6  37.1044303797468 83.6  C 37.1044303797468 83.6  34.9841772151899 82.3428571428571  34.9841772151899 82.3428571428571  C 34.9841772151899 82.3428571428571  34.1360759493671 83.1809523809524  34.1360759493671 83.1809523809524  C 34.1360759493671 83.1809523809524  31.5917721518987 82.7619047619048  31.5917721518987 82.7619047619048  C 31.5917721518987 82.7619047619048  31.5917721518987 81.9238095238095  31.5917721518987 81.9238095238095  C 31.5917721518987 81.9238095238095  30.3196202531646 80.6666666666667  30.3196202531646 80.6666666666667  C 30.3196202531646 80.6666666666667  30.743670886076 78.5714285714286  30.743670886076 78.5714285714286  C 30.743670886076 78.5714285714286  28.623417721519 78.5714285714286  28.623417721519 78.5714285714286  C 28.623417721519 78.5714285714286  27.7753164556962 77.7333333333333  27.7753164556962 77.7333333333333  C 27.7753164556962 77.7333333333333  27.7753164556962 71.8666666666667  27.7753164556962 71.8666666666667  C 27.7753164556962 71.8666666666667  24.8069620253165 71.0285714285714  24.8069620253165 71.0285714285714  C 24.8069620253165 71.0285714285714  22.2626582278481 71.447619047619  22.2626582278481 71.447619047619  C 22.2626582278481 71.447619047619  21.8386075949367 69.352380952381  21.8386075949367 69.352380952381  C 21.8386075949367 69.352380952381  19.2943037974684 68.9333333333333  19.2943037974684 68.9333333333333  C 19.2943037974684 68.9333333333333  19.7183544303797 67.6761904761905  19.7183544303797 67.6761904761905  C 19.7183544303797 67.6761904761905  18.870253164557 67.6761904761905  18.870253164557 67.6761904761905  C 18.870253164557 67.6761904761905  18.870253164557 66.4190476190476  18.870253164557 66.4190476190476  C 18.870253164557 66.4190476190476  19.7183544303797 66  19.7183544303797 66  C 19.7183544303797 66  19.7183544303797 64.7428571428571  19.7183544303797 64.7428571428571  C 19.7183544303797 64.7428571428571  18.4462025316456 64.7428571428571  18.4462025316456 64.7428571428571  C 18.4462025316456 64.7428571428571  17.1740506329114 61.8095238095238  17.1740506329114 61.8095238095238  C 17.1740506329114 61.8095238095238  16.3259493670886 62.2285714285714  16.3259493670886 62.2285714285714  C 16.3259493670886 62.2285714285714  15.9018987341772 60.9714285714286  15.9018987341772 60.9714285714286  C 15.9018987341772 60.9714285714286  14.2056962025316 61.3904761904762  14.2056962025316 61.3904761904762  C 14.2056962025316 61.3904761904762  11.2373417721519 64.3238095238095  11.2373417721519 64.3238095238095  C 11.2373417721519 64.3238095238095  8.69303797468354 63.9047619047619  8.69303797468354 63.9047619047619  C 8.69303797468354 63.9047619047619  8.26898734177215 64.7428571428571  8.26898734177215 64.7428571428571  C 8.26898734177215 64.7428571428571  7.42088607594937 64.7428571428571  7.42088607594937 64.7428571428571  C 7.42088607594937 64.7428571428571  7.42088607594937 63.9047619047619  7.42088607594937 63.9047619047619  C 7.42088607594937 63.9047619047619  3.18037974683544 63.4857142857143  3.18037974683544 63.4857142857143  C 3.18037974683544 63.4857142857143  1.48417721518987 64.3238095238095  1.48417721518987 64.3238095238095  C 1.48417721518987 64.3238095238095  0.636075949367089 63.9047619047619  0.636075949367089 63.9047619047619  C 0.636075949367089 63.9047619047619  1.06012658227848 63.4857142857143  1.06012658227848 63.4857142857143  C 1.06012658227848 63.4857142857143  0.212025316455696 63.4857142857143  0.212025316455696 63.4857142857143  C 0.212025316455696 63.4857142857143  1.90822784810127 62.2285714285714  1.90822784810127 62.2285714285714  C 1.90822784810127 62.2285714285714  1.90822784810127 60.9714285714286  1.90822784810127 60.9714285714286  C 1.90822784810127 60.9714285714286  1.06012658227848 60.552380952381  1.06012658227848 60.552380952381  C 1.06012658227848 60.552380952381  1.06012658227848 58.8761904761905  1.06012658227848 58.8761904761905  C 1.06012658227848 58.8761904761905  1.90822784810127 58.8761904761905  1.90822784810127 58.8761904761905  C 1.90822784810127 58.8761904761905  0.212025316455696 58.0380952380952  0.212025316455696 58.0380952380952  C 0.212025316455696 58.0380952380952  2.33227848101266 54.6857142857143  2.33227848101266 54.6857142857143  C 2.33227848101266 54.6857142857143  3.60443037974684 53.4285714285714  3.60443037974684 53.4285714285714  C 3.60443037974684 53.4285714285714  10.8132911392405 51.3333333333333  10.8132911392405 51.3333333333333  C 10.8132911392405 51.3333333333333  7.84493670886076 47.1428571428571  7.84493670886076 47.1428571428571  C 7.84493670886076 47.1428571428571  6.14873417721519 47.9809523809524  6.14873417721519 47.9809523809524  C 6.14873417721519 47.9809523809524  5.7246835443038 47.1428571428571  5.7246835443038 47.1428571428571  C 5.7246835443038 47.1428571428571  4.45253164556962 47.9809523809524  4.45253164556962 47.9809523809524  C 4.45253164556962 47.9809523809524  1.48417721518987 42.5333333333333  1.48417721518987 42.5333333333333  C 1.48417721518987 42.5333333333333  2.33227848101266 42.1142857142857  2.33227848101266 42.1142857142857  Z " stroke-width="2" stroke-dasharray="1,1" stroke="#999999" fill="none" transform="matrix(1 0 0 1 221 854 )" mask="url(#clip31)" />
  </g>
</svg>