<?xml version="1.0" encoding="utf-8"?>
<svg version="1.1" xmlns:xlink="http://www.w3.org/1999/xlink" width="103px" height="72px" xmlns="http://www.w3.org/2000/svg">
  <defs>
    <mask fill="white" id="clip34">
      <path d="M 96.4300411522634 60.0697674418605  C 96.4300411522634 60.0697674418605  96.4300411522634 60.906976744186  96.4300411522634 60.906976744186  C 96.4300411522634 60.906976744186  96.4300411522634 62.5813953488372  96.4300411522634 62.5813953488372  C 96.4300411522634 62.5813953488372  95.582304526749 63  95.582304526749 63  C 95.582304526749 63  96.0061728395062 63.8372093023256  96.0061728395062 63.8372093023256  C 96.0061728395062 63.8372093023256  95.1584362139918 63.8372093023256  95.1584362139918 63.8372093023256  C 95.1584362139918 63.8372093023256  95.1584362139918 65.093023255814  95.1584362139918 65.093023255814  C 95.1584362139918 65.093023255814  96.0061728395062 65.5116279069767  96.0061728395062 65.5116279069767  C 96.0061728395062 65.5116279069767  95.582304526749 67.1860465116279  95.582304526749 67.1860465116279  C 95.582304526749 67.1860465116279  91.343621399177 66.7674418604651  91.343621399177 66.7674418604651  C 91.343621399177 66.7674418604651  87.5288065843621 68.0232558139535  87.5288065843621 68.0232558139535  C 87.5288065843621 68.0232558139535  87.1049382716049 71.3720930232558  87.1049382716049 71.3720930232558  C 87.1049382716049 71.3720930232558  85.4094650205761 71.7906976744186  85.4094650205761 71.7906976744186  C 85.4094650205761 71.7906976744186  84.9855967078189 70.5348837209302  84.9855967078189 70.5348837209302  C 84.9855967078189 70.5348837209302  82.8662551440329 70.5348837209302  82.8662551440329 70.5348837209302  C 82.8662551440329 70.5348837209302  81.5946502057613 69.6976744186046  81.5946502057613 69.6976744186046  C 81.5946502057613 69.6976744186046  81.1707818930041 68.4418604651163  81.1707818930041 68.4418604651163  C 81.1707818930041 68.4418604651163  83.7139917695473 66.7674418604651  83.7139917695473 66.7674418604651  C 83.7139917695473 66.7674418604651  83.2901234567901 65.9302325581395  83.2901234567901 65.9302325581395  C 83.2901234567901 65.9302325581395  80.7469135802469 65.093023255814  80.7469135802469 65.093023255814  C 80.7469135802469 65.093023255814  80.3230452674897 65.9302325581395  80.3230452674897 65.9302325581395  C 80.3230452674897 65.9302325581395  78.2037037037037 66.3488372093023  78.2037037037037 66.3488372093023  C 78.2037037037037 66.3488372093023  77.3559670781893 68.0232558139535  77.3559670781893 68.0232558139535  C 77.3559670781893 68.0232558139535  76.9320987654321 67.1860465116279  76.9320987654321 67.1860465116279  C 76.9320987654321 67.1860465116279  74.8127572016461 68.0232558139535  74.8127572016461 68.0232558139535  C 74.8127572016461 68.0232558139535  73.5411522633745 66.7674418604651  73.5411522633745 66.7674418604651  C 73.5411522633745 66.7674418604651  71.4218106995885 66.7674418604651  71.4218106995885 66.7674418604651  C 71.4218106995885 66.7674418604651  69.3024691358025 62.5813953488372  69.3024691358025 62.5813953488372  C 69.3024691358025 62.5813953488372  67.6069958847737 63  67.6069958847737 63  C 67.6069958847737 63  66.7592592592593 60.4883720930233  66.7592592592593 60.4883720930233  C 66.7592592592593 60.4883720930233  64.2160493827161 58.8139534883721  64.2160493827161 58.8139534883721  C 64.2160493827161 58.8139534883721  65.0637860082305 58.3953488372093  65.0637860082305 58.3953488372093  C 65.0637860082305 58.3953488372093  65.0637860082305 57.1395348837209  65.0637860082305 57.1395348837209  C 65.0637860082305 57.1395348837209  64.2160493827161 56.7209302325581  64.2160493827161 56.7209302325581  C 64.2160493827161 56.7209302325581  64.6399176954732 57.5581395348837  64.6399176954732 57.5581395348837  C 64.6399176954732 57.5581395348837  63.7921810699589 57.9767441860465  63.7921810699589 57.9767441860465  C 63.7921810699589 57.9767441860465  61.6728395061728 57.5581395348837  61.6728395061728 57.5581395348837  C 61.6728395061728 57.5581395348837  61.6728395061728 55.4651162790698  61.6728395061728 55.4651162790698  C 61.6728395061728 55.4651162790698  62.5205761316872 55.4651162790698  62.5205761316872 55.4651162790698  C 62.5205761316872 55.4651162790698  62.5205761316872 51.6976744186047  62.5205761316872 51.6976744186047  C 62.5205761316872 51.6976744186047  56.1625514403292 50.4418604651163  56.1625514403292 50.4418604651163  C 56.1625514403292 50.4418604651163  55.738683127572 47.093023255814  55.738683127572 47.093023255814  C 55.738683127572 47.093023255814  54.4670781893004 47.093023255814  54.4670781893004 47.093023255814  C 54.4670781893004 47.093023255814  54.0432098765432 47.9302325581395  54.0432098765432 47.9302325581395  C 54.0432098765432 47.9302325581395  52.7716049382716 47.5116279069767  52.7716049382716 47.5116279069767  C 52.7716049382716 47.5116279069767  52.3477366255144 49.6046511627907  52.3477366255144 49.6046511627907  C 52.3477366255144 49.6046511627907  49.8045267489712 50.8604651162791  49.8045267489712 50.8604651162791  C 49.8045267489712 50.8604651162791  50.6522633744856 53.3720930232558  50.6522633744856 53.3720930232558  C 50.6522633744856 53.3720930232558  49.8045267489712 53.3720930232558  49.8045267489712 53.3720930232558  C 49.8045267489712 53.3720930232558  50.2283950617284 54.2093023255814  50.2283950617284 54.2093023255814  C 50.2283950617284 54.2093023255814  44.7181069958848 54.6279069767442  44.7181069958848 54.6279069767442  C 44.7181069958848 54.6279069767442  44.2942386831276 55.8837209302326  44.2942386831276 55.8837209302326  C 44.2942386831276 55.8837209302326  40.0555555555556 55.8837209302326  40.0555555555556 55.8837209302326  C 40.0555555555556 55.8837209302326  38.7839506172839 54.6279069767442  38.7839506172839 54.6279069767442  C 38.7839506172839 54.6279069767442  37.0884773662551 55.046511627907  37.0884773662551 55.046511627907  C 37.0884773662551 55.046511627907  35.3930041152263 55.8837209302326  35.3930041152263 55.8837209302326  C 35.3930041152263 55.8837209302326  34.9691358024691 57.9767441860465  34.9691358024691 57.9767441860465  C 34.9691358024691 57.9767441860465  33.6975308641975 58.3953488372093  33.6975308641975 58.3953488372093  C 33.6975308641975 58.3953488372093  31.5781893004115 62.1627906976744  31.5781893004115 62.1627906976744  C 31.5781893004115 62.1627906976744  29.8827160493827 62.1627906976744  29.8827160493827 62.1627906976744  C 29.8827160493827 62.1627906976744  27.3395061728395 64.2558139534884  27.3395061728395 64.2558139534884  C 27.3395061728395 64.2558139534884  25.2201646090535 63  25.2201646090535 63  C 25.2201646090535 63  21.8292181069959 62.1627906976744  21.8292181069959 62.1627906976744  C 21.8292181069959 62.1627906976744  19.2860082304527 63.8372093023256  19.2860082304527 63.8372093023256  C 19.2860082304527 63.8372093023256  18.0144032921811 60.4883720930233  18.0144032921811 60.4883720930233  C 18.0144032921811 60.4883720930233  18.4382716049383 58.3953488372093  18.4382716049383 58.3953488372093  C 18.4382716049383 58.3953488372093  17.5905349794239 58.8139534883721  17.5905349794239 58.8139534883721  C 17.5905349794239 58.8139534883721  17.5905349794239 59.6511627906977  17.5905349794239 59.6511627906977  C 17.5905349794239 59.6511627906977  15.4711934156379 58.3953488372093  15.4711934156379 58.3953488372093  C 15.4711934156379 58.3953488372093  15.8950617283951 57.5581395348837  15.8950617283951 57.5581395348837  C 15.8950617283951 57.5581395348837  12.0802469135802 52.1162790697674  12.0802469135802 52.1162790697674  C 12.0802469135802 52.1162790697674  9.53703703703704 51.2790697674419  9.53703703703704 51.2790697674419  C 9.53703703703704 51.2790697674419  5.72222222222222 51.2790697674419  5.72222222222222 51.2790697674419  C 5.72222222222222 51.2790697674419  3.17901234567901 49.1860465116279  3.17901234567901 49.1860465116279  C 3.17901234567901 49.1860465116279  1.48353909465021 49.1860465116279  1.48353909465021 49.1860465116279  C 1.48353909465021 49.1860465116279  0.211934156378601 45.4186046511628  0.211934156378601 45.4186046511628  C 0.211934156378601 45.4186046511628  1.48353909465021 42.906976744186  1.48353909465021 42.906976744186  C 1.48353909465021 42.906976744186  0.635802469135802 42.4883720930233  0.635802469135802 42.4883720930233  C 0.635802469135802 42.4883720930233  1.90740740740741 41.2325581395349  1.90740740740741 41.2325581395349  C 1.90740740740741 41.2325581395349  2.75514403292181 42.0697674418605  2.75514403292181 42.0697674418605  C 2.75514403292181 42.0697674418605  4.02674897119342 42.0697674418605  4.02674897119342 42.0697674418605  C 4.02674897119342 42.0697674418605  4.45061728395062 40.3953488372093  4.45061728395062 40.3953488372093  C 4.45061728395062 40.3953488372093  6.56995884773663 37.8837209302326  6.56995884773663 37.8837209302326  C 6.56995884773663 37.8837209302326  6.14609053497942 35.3720930232558  6.14609053497942 35.3720930232558  C 6.14609053497942 35.3720930232558  8.26543209876543 31.6046511627907  8.26543209876543 31.6046511627907  C 8.26543209876543 31.6046511627907  10.3847736625514 31.6046511627907  10.3847736625514 31.6046511627907  C 10.3847736625514 31.6046511627907  11.2325102880658 29.093023255814  11.2325102880658 29.093023255814  C 11.2325102880658 29.093023255814  14.1995884773663 27.4186046511628  14.1995884773663 27.4186046511628  C 14.1995884773663 27.4186046511628  15.0473251028807 27.8372093023256  15.0473251028807 27.8372093023256  C 15.0473251028807 27.8372093023256  18.8621399176955 27  18.8621399176955 27  C 18.8621399176955 27  21.4053497942387 23.2325581395349  21.4053497942387 23.2325581395349  C 21.4053497942387 23.2325581395349  21.4053497942387 19.046511627907  21.4053497942387 19.046511627907  C 21.4053497942387 19.046511627907  22.6769547325103 18.6279069767442  22.6769547325103 18.6279069767442  C 22.6769547325103 18.6279069767442  22.2530864197531 17.7906976744186  22.2530864197531 17.7906976744186  C 22.2530864197531 17.7906976744186  20.1337448559671 16.953488372093  20.1337448559671 16.953488372093  C 20.1337448559671 16.953488372093  20.1337448559671 14.8604651162791  20.1337448559671 14.8604651162791  C 20.1337448559671 14.8604651162791  23.1008230452675 12.7674418604651  23.1008230452675 12.7674418604651  C 23.1008230452675 12.7674418604651  23.9485596707819 13.6046511627907  23.9485596707819 13.6046511627907  C 23.9485596707819 13.6046511627907  25.2201646090535 11.9302325581395  25.2201646090535 11.9302325581395  C 25.2201646090535 11.9302325581395  26.4917695473251 11.9302325581395  26.4917695473251 11.9302325581395  C 26.4917695473251 11.9302325581395  29.0349794238683 16.1162790697674  29.0349794238683 16.1162790697674  C 29.0349794238683 16.1162790697674  30.3065843621399 16.1162790697674  30.3065843621399 16.1162790697674  C 30.3065843621399 16.1162790697674  30.7304526748971 15.2790697674419  30.7304526748971 15.2790697674419  C 30.7304526748971 15.2790697674419  32.0020576131687 15.6976744186047  32.0020576131687 15.6976744186047  C 32.0020576131687 15.6976744186047  32.8497942386831 14.4418604651163  32.8497942386831 14.4418604651163  C 32.8497942386831 14.4418604651163  32.4259259259259 13.1860465116279  32.4259259259259 13.1860465116279  C 32.4259259259259 13.1860465116279  33.6975308641975 11.5116279069767  33.6975308641975 11.5116279069767  C 33.6975308641975 11.5116279069767  36.2407407407407 10.6744186046512  36.2407407407407 10.6744186046512  C 36.2407407407407 10.6744186046512  37.5123456790123 12.7674418604651  37.5123456790123 12.7674418604651  C 37.5123456790123 12.7674418604651  40.90329218107 12.7674418604651  40.90329218107 12.7674418604651  C 40.90329218107 12.7674418604651  43.022633744856 16.1162790697674  43.022633744856 16.1162790697674  C 43.022633744856 16.1162790697674  44.7181069958848 16.5348837209302  44.7181069958848 16.5348837209302  C 44.7181069958848 16.5348837209302  45.9897119341564 15.2790697674419  45.9897119341564 15.2790697674419  C 45.9897119341564 15.2790697674419  45.5658436213992 12.3488372093023  45.5658436213992 12.3488372093023  C 45.5658436213992 12.3488372093023  46.4135802469136 11.5116279069767  46.4135802469136 11.5116279069767  C 46.4135802469136 11.5116279069767  45.141975308642 11.5116279069767  45.141975308642 11.5116279069767  C 45.141975308642 11.5116279069767  45.141975308642 10.6744186046512  45.141975308642 10.6744186046512  C 45.141975308642 10.6744186046512  46.4135802469136 9  46.4135802469136 9  C 46.4135802469136 9  46.4135802469136 11.5116279069767  46.4135802469136 11.5116279069767  C 46.4135802469136 11.5116279069767  47.6851851851852 11.093023255814  47.6851851851852 11.093023255814  C 47.6851851851852 11.093023255814  48.1090534979424 9.83720930232558  48.1090534979424 9.83720930232558  C 48.1090534979424 9.83720930232558  46.4135802469136 8.58139534883721  46.4135802469136 8.58139534883721  C 46.4135802469136 8.58139534883721  46.8374485596708 6.48837209302325  46.8374485596708 6.48837209302325  C 46.8374485596708 6.48837209302325  51.9238683127572 4.3953488372093  51.9238683127572 4.3953488372093  C 51.9238683127572 4.3953488372093  52.3477366255144 5.23255813953488  52.3477366255144 5.23255813953488  C 52.3477366255144 5.23255813953488  56.5864197530864 3.55813953488372  56.5864197530864 3.55813953488372  C 56.5864197530864 3.55813953488372  57.0102880658436 2.30232558139535  57.0102880658436 2.30232558139535  C 57.0102880658436 2.30232558139535  59.5534979423868 2.30232558139535  59.5534979423868 2.30232558139535  C 59.5534979423868 2.30232558139535  60.4012345679012 3.55813953488372  60.4012345679012 3.55813953488372  C 60.4012345679012 3.55813953488372  62.09670781893 2.72093023255814  62.09670781893 2.72093023255814  C 62.09670781893 2.72093023255814  62.9444444444445 3.97674418604651  62.9444444444445 3.97674418604651  C 62.9444444444445 3.97674418604651  64.2160493827161 1.88372093023256  64.2160493827161 1.88372093023256  C 64.2160493827161 1.88372093023256  64.6399176954732 2.72093023255814  64.6399176954732 2.72093023255814  C 64.6399176954732 2.72093023255814  66.3353909465021 2.30232558139535  66.3353909465021 2.30232558139535  C 66.3353909465021 2.30232558139535  68.0308641975309 3.55813953488372  68.0308641975309 3.55813953488372  C 68.0308641975309 3.55813953488372  69.3024691358025 1.88372093023256  69.3024691358025 1.88372093023256  C 69.3024691358025 1.88372093023256  69.3024691358025 0.209302325581395  69.3024691358025 0.209302325581395  C 69.3024691358025 0.209302325581395  70.1502057613169 1.88372093023256  70.1502057613169 1.88372093023256  C 70.1502057613169 1.88372093023256  72.6934156378601 0.627906976744186  72.6934156378601 0.627906976744186  C 72.6934156378601 0.627906976744186  77.7798353909465 3.97674418604651  77.7798353909465 3.97674418604651  C 77.7798353909465 3.97674418604651  79.4753086419753 4.3953488372093  79.4753086419753 4.3953488372093  C 79.4753086419753 4.3953488372093  79.8991769547325 5.23255813953488  79.8991769547325 5.23255813953488  C 79.8991769547325 5.23255813953488  78.2037037037037 7.32558139534884  78.2037037037037 7.32558139534884  C 78.2037037037037 7.32558139534884  81.5946502057613 7.32558139534884  81.5946502057613 7.32558139534884  C 81.5946502057613 7.32558139534884  80.7469135802469 9  80.7469135802469 9  C 80.7469135802469 9  81.5946502057613 10.2558139534884  81.5946502057613 10.2558139534884  C 81.5946502057613 10.2558139534884  81.1707818930041 11.9302325581395  81.1707818930041 11.9302325581395  C 81.1707818930041 11.9302325581395  82.4423868312757 11.9302325581395  82.4423868312757 11.9302325581395  C 82.4423868312757 11.9302325581395  82.4423868312757 11.093023255814  82.4423868312757 11.093023255814  C 82.4423868312757 11.093023255814  84.9855967078189 11.093023255814  84.9855967078189 11.093023255814  C 84.9855967078189 11.093023255814  85.8333333333333 11.9302325581395  85.8333333333333 11.9302325581395  C 85.8333333333333 11.9302325581395  87.5288065843621 11.9302325581395  87.5288065843621 11.9302325581395  C 87.5288065843621 11.9302325581395  88.8004115226338 12.7674418604651  88.8004115226338 12.7674418604651  C 88.8004115226338 12.7674418604651  91.343621399177 12.7674418604651  91.343621399177 12.7674418604651  C 91.343621399177 12.7674418604651  92.1913580246914 11.9302325581395  92.1913580246914 11.9302325581395  C 92.1913580246914 11.9302325581395  93.0390946502058 14.0232558139535  93.0390946502058 14.0232558139535  C 93.0390946502058 14.0232558139535  94.7345679012346 15.2790697674419  94.7345679012346 15.2790697674419  C 94.7345679012346 15.2790697674419  93.0390946502058 18.2093023255814  93.0390946502058 18.2093023255814  C 93.0390946502058 18.2093023255814  94.3106995884774 20.3023255813953  94.3106995884774 20.3023255813953  C 94.3106995884774 20.3023255813953  93.8868312757202 21.5581395348837  93.8868312757202 21.5581395348837  C 93.8868312757202 21.5581395348837  95.582304526749 21.1395348837209  95.582304526749 21.1395348837209  C 95.582304526749 21.1395348837209  97.2777777777778 22.8139534883721  97.2777777777778 22.8139534883721  C 97.2777777777778 22.8139534883721  98.5493827160494 22.8139534883721  98.5493827160494 22.8139534883721  C 98.5493827160494 22.8139534883721  99.3971193415638 23.6511627906977  99.3971193415638 23.6511627906977  C 99.3971193415638 23.6511627906977  99.3971193415638 25.3255813953488  99.3971193415638 25.3255813953488  C 99.3971193415638 25.3255813953488  102.788065843621 26.5813953488372  102.788065843621 26.5813953488372  C 102.788065843621 26.5813953488372  101.940329218107 26.5813953488372  101.940329218107 26.5813953488372  C 101.940329218107 26.5813953488372  101.940329218107 28.2558139534884  101.940329218107 28.2558139534884  C 101.940329218107 28.2558139534884  98.9732510288066 29.5116279069767  98.9732510288066 29.5116279069767  C 98.9732510288066 29.5116279069767  98.9732510288066 33.6976744186046  98.9732510288066 33.6976744186046  C 98.9732510288066 33.6976744186046  98.1255144032922 33.6976744186046  98.1255144032922 33.6976744186046  C 98.1255144032922 33.6976744186046  97.701646090535 34.5348837209302  97.701646090535 34.5348837209302  C 97.701646090535 34.5348837209302  97.2777777777778 38.3023255813953  97.2777777777778 38.3023255813953  C 97.2777777777778 38.3023255813953  99.3971193415638 39.9767441860465  99.3971193415638 39.9767441860465  C 99.3971193415638 39.9767441860465  100.244855967078 42.906976744186  100.244855967078 42.906976744186  C 100.244855967078 42.906976744186  98.1255144032922 47.093023255814  98.1255144032922 47.093023255814  C 98.1255144032922 47.093023255814  100.668724279835 47.5116279069767  100.668724279835 47.5116279069767  C 100.668724279835 47.5116279069767  100.244855967078 49.1860465116279  100.244855967078 49.1860465116279  C 100.244855967078 49.1860465116279  98.5493827160494 49.6046511627907  98.5493827160494 49.6046511627907  C 98.5493827160494 49.6046511627907  100.668724279835 56.7209302325581  100.668724279835 56.7209302325581  C 100.668724279835 56.7209302325581  99.820987654321 58.8139534883721  99.820987654321 58.8139534883721  C 99.820987654321 58.8139534883721  96.4300411522634 60.0697674418605  96.4300411522634 60.0697674418605  Z " fill-rule="evenodd" />
    </mask>
  </defs>
  <g transform="matrix(1 0 0 1 -116 -781 )">
    <path d="M 96.4300411522634 60.0697674418605  C 96.4300411522634 60.0697674418605  96.4300411522634 60.906976744186  96.4300411522634 60.906976744186  C 96.4300411522634 60.906976744186  96.4300411522634 62.5813953488372  96.4300411522634 62.5813953488372  C 96.4300411522634 62.5813953488372  95.582304526749 63  95.582304526749 63  C 95.582304526749 63  96.0061728395062 63.8372093023256  96.0061728395062 63.8372093023256  C 96.0061728395062 63.8372093023256  95.1584362139918 63.8372093023256  95.1584362139918 63.8372093023256  C 95.1584362139918 63.8372093023256  95.1584362139918 65.093023255814  95.1584362139918 65.093023255814  C 95.1584362139918 65.093023255814  96.0061728395062 65.5116279069767  96.0061728395062 65.5116279069767  C 96.0061728395062 65.5116279069767  95.582304526749 67.1860465116279  95.582304526749 67.1860465116279  C 95.582304526749 67.1860465116279  91.343621399177 66.7674418604651  91.343621399177 66.7674418604651  C 91.343621399177 66.7674418604651  87.5288065843621 68.0232558139535  87.5288065843621 68.0232558139535  C 87.5288065843621 68.0232558139535  87.1049382716049 71.3720930232558  87.1049382716049 71.3720930232558  C 87.1049382716049 71.3720930232558  85.4094650205761 71.7906976744186  85.4094650205761 71.7906976744186  C 85.4094650205761 71.7906976744186  84.9855967078189 70.5348837209302  84.9855967078189 70.5348837209302  C 84.9855967078189 70.5348837209302  82.8662551440329 70.5348837209302  82.8662551440329 70.5348837209302  C 82.8662551440329 70.5348837209302  81.5946502057613 69.6976744186046  81.5946502057613 69.6976744186046  C 81.5946502057613 69.6976744186046  81.1707818930041 68.4418604651163  81.1707818930041 68.4418604651163  C 81.1707818930041 68.4418604651163  83.7139917695473 66.7674418604651  83.7139917695473 66.7674418604651  C 83.7139917695473 66.7674418604651  83.2901234567901 65.9302325581395  83.2901234567901 65.9302325581395  C 83.2901234567901 65.9302325581395  80.7469135802469 65.093023255814  80.7469135802469 65.093023255814  C 80.7469135802469 65.093023255814  80.3230452674897 65.9302325581395  80.3230452674897 65.9302325581395  C 80.3230452674897 65.9302325581395  78.2037037037037 66.3488372093023  78.2037037037037 66.3488372093023  C 78.2037037037037 66.3488372093023  77.3559670781893 68.0232558139535  77.3559670781893 68.0232558139535  C 77.3559670781893 68.0232558139535  76.9320987654321 67.1860465116279  76.9320987654321 67.1860465116279  C 76.9320987654321 67.1860465116279  74.8127572016461 68.0232558139535  74.8127572016461 68.0232558139535  C 74.8127572016461 68.0232558139535  73.5411522633745 66.7674418604651  73.5411522633745 66.7674418604651  C 73.5411522633745 66.7674418604651  71.4218106995885 66.7674418604651  71.4218106995885 66.7674418604651  C 71.4218106995885 66.7674418604651  69.3024691358025 62.5813953488372  69.3024691358025 62.5813953488372  C 69.3024691358025 62.5813953488372  67.6069958847737 63  67.6069958847737 63  C 67.6069958847737 63  66.7592592592593 60.4883720930233  66.7592592592593 60.4883720930233  C 66.7592592592593 60.4883720930233  64.2160493827161 58.8139534883721  64.2160493827161 58.8139534883721  C 64.2160493827161 58.8139534883721  65.0637860082305 58.3953488372093  65.0637860082305 58.3953488372093  C 65.0637860082305 58.3953488372093  65.0637860082305 57.1395348837209  65.0637860082305 57.1395348837209  C 65.0637860082305 57.1395348837209  64.2160493827161 56.7209302325581  64.2160493827161 56.7209302325581  C 64.2160493827161 56.7209302325581  64.6399176954732 57.5581395348837  64.6399176954732 57.5581395348837  C 64.6399176954732 57.5581395348837  63.7921810699589 57.9767441860465  63.7921810699589 57.9767441860465  C 63.7921810699589 57.9767441860465  61.6728395061728 57.5581395348837  61.6728395061728 57.5581395348837  C 61.6728395061728 57.5581395348837  61.6728395061728 55.4651162790698  61.6728395061728 55.4651162790698  C 61.6728395061728 55.4651162790698  62.5205761316872 55.4651162790698  62.5205761316872 55.4651162790698  C 62.5205761316872 55.4651162790698  62.5205761316872 51.6976744186047  62.5205761316872 51.6976744186047  C 62.5205761316872 51.6976744186047  56.1625514403292 50.4418604651163  56.1625514403292 50.4418604651163  C 56.1625514403292 50.4418604651163  55.738683127572 47.093023255814  55.738683127572 47.093023255814  C 55.738683127572 47.093023255814  54.4670781893004 47.093023255814  54.4670781893004 47.093023255814  C 54.4670781893004 47.093023255814  54.0432098765432 47.9302325581395  54.0432098765432 47.9302325581395  C 54.0432098765432 47.9302325581395  52.7716049382716 47.5116279069767  52.7716049382716 47.5116279069767  C 52.7716049382716 47.5116279069767  52.3477366255144 49.6046511627907  52.3477366255144 49.6046511627907  C 52.3477366255144 49.6046511627907  49.8045267489712 50.8604651162791  49.8045267489712 50.8604651162791  C 49.8045267489712 50.8604651162791  50.6522633744856 53.3720930232558  50.6522633744856 53.3720930232558  C 50.6522633744856 53.3720930232558  49.8045267489712 53.3720930232558  49.8045267489712 53.3720930232558  C 49.8045267489712 53.3720930232558  50.2283950617284 54.2093023255814  50.2283950617284 54.2093023255814  C 50.2283950617284 54.2093023255814  44.7181069958848 54.6279069767442  44.7181069958848 54.6279069767442  C 44.7181069958848 54.6279069767442  44.2942386831276 55.8837209302326  44.2942386831276 55.8837209302326  C 44.2942386831276 55.8837209302326  40.0555555555556 55.8837209302326  40.0555555555556 55.8837209302326  C 40.0555555555556 55.8837209302326  38.7839506172839 54.6279069767442  38.7839506172839 54.6279069767442  C 38.7839506172839 54.6279069767442  37.0884773662551 55.046511627907  37.0884773662551 55.046511627907  C 37.0884773662551 55.046511627907  35.3930041152263 55.8837209302326  35.3930041152263 55.8837209302326  C 35.3930041152263 55.8837209302326  34.9691358024691 57.9767441860465  34.9691358024691 57.9767441860465  C 34.9691358024691 57.9767441860465  33.6975308641975 58.3953488372093  33.6975308641975 58.3953488372093  C 33.6975308641975 58.3953488372093  31.5781893004115 62.1627906976744  31.5781893004115 62.1627906976744  C 31.5781893004115 62.1627906976744  29.8827160493827 62.1627906976744  29.8827160493827 62.1627906976744  C 29.8827160493827 62.1627906976744  27.3395061728395 64.2558139534884  27.3395061728395 64.2558139534884  C 27.3395061728395 64.2558139534884  25.2201646090535 63  25.2201646090535 63  C 25.2201646090535 63  21.8292181069959 62.1627906976744  21.8292181069959 62.1627906976744  C 21.8292181069959 62.1627906976744  19.2860082304527 63.8372093023256  19.2860082304527 63.8372093023256  C 19.2860082304527 63.8372093023256  18.0144032921811 60.4883720930233  18.0144032921811 60.4883720930233  C 18.0144032921811 60.4883720930233  18.4382716049383 58.3953488372093  18.4382716049383 58.3953488372093  C 18.4382716049383 58.3953488372093  17.5905349794239 58.8139534883721  17.5905349794239 58.8139534883721  C 17.5905349794239 58.8139534883721  17.5905349794239 59.6511627906977  17.5905349794239 59.6511627906977  C 17.5905349794239 59.6511627906977  15.4711934156379 58.3953488372093  15.4711934156379 58.3953488372093  C 15.4711934156379 58.3953488372093  15.8950617283951 57.5581395348837  15.8950617283951 57.5581395348837  C 15.8950617283951 57.5581395348837  12.0802469135802 52.1162790697674  12.0802469135802 52.1162790697674  C 12.0802469135802 52.1162790697674  9.53703703703704 51.2790697674419  9.53703703703704 51.2790697674419  C 9.53703703703704 51.2790697674419  5.72222222222222 51.2790697674419  5.72222222222222 51.2790697674419  C 5.72222222222222 51.2790697674419  3.17901234567901 49.1860465116279  3.17901234567901 49.1860465116279  C 3.17901234567901 49.1860465116279  1.48353909465021 49.1860465116279  1.48353909465021 49.1860465116279  C 1.48353909465021 49.1860465116279  0.211934156378601 45.4186046511628  0.211934156378601 45.4186046511628  C 0.211934156378601 45.4186046511628  1.48353909465021 42.906976744186  1.48353909465021 42.906976744186  C 1.48353909465021 42.906976744186  0.635802469135802 42.4883720930233  0.635802469135802 42.4883720930233  C 0.635802469135802 42.4883720930233  1.90740740740741 41.2325581395349  1.90740740740741 41.2325581395349  C 1.90740740740741 41.2325581395349  2.75514403292181 42.0697674418605  2.75514403292181 42.0697674418605  C 2.75514403292181 42.0697674418605  4.02674897119342 42.0697674418605  4.02674897119342 42.0697674418605  C 4.02674897119342 42.0697674418605  4.45061728395062 40.3953488372093  4.45061728395062 40.3953488372093  C 4.45061728395062 40.3953488372093  6.56995884773663 37.8837209302326  6.56995884773663 37.8837209302326  C 6.56995884773663 37.8837209302326  6.14609053497942 35.3720930232558  6.14609053497942 35.3720930232558  C 6.14609053497942 35.3720930232558  8.26543209876543 31.6046511627907  8.26543209876543 31.6046511627907  C 8.26543209876543 31.6046511627907  10.3847736625514 31.6046511627907  10.3847736625514 31.6046511627907  C 10.3847736625514 31.6046511627907  11.2325102880658 29.093023255814  11.2325102880658 29.093023255814  C 11.2325102880658 29.093023255814  14.1995884773663 27.4186046511628  14.1995884773663 27.4186046511628  C 14.1995884773663 27.4186046511628  15.0473251028807 27.8372093023256  15.0473251028807 27.8372093023256  C 15.0473251028807 27.8372093023256  18.8621399176955 27  18.8621399176955 27  C 18.8621399176955 27  21.4053497942387 23.2325581395349  21.4053497942387 23.2325581395349  C 21.4053497942387 23.2325581395349  21.4053497942387 19.046511627907  21.4053497942387 19.046511627907  C 21.4053497942387 19.046511627907  22.6769547325103 18.6279069767442  22.6769547325103 18.6279069767442  C 22.6769547325103 18.6279069767442  22.2530864197531 17.7906976744186  22.2530864197531 17.7906976744186  C 22.2530864197531 17.7906976744186  20.1337448559671 16.953488372093  20.1337448559671 16.953488372093  C 20.1337448559671 16.953488372093  20.1337448559671 14.8604651162791  20.1337448559671 14.8604651162791  C 20.1337448559671 14.8604651162791  23.1008230452675 12.7674418604651  23.1008230452675 12.7674418604651  C 23.1008230452675 12.7674418604651  23.9485596707819 13.6046511627907  23.9485596707819 13.6046511627907  C 23.9485596707819 13.6046511627907  25.2201646090535 11.9302325581395  25.2201646090535 11.9302325581395  C 25.2201646090535 11.9302325581395  26.4917695473251 11.9302325581395  26.4917695473251 11.9302325581395  C 26.4917695473251 11.9302325581395  29.0349794238683 16.1162790697674  29.0349794238683 16.1162790697674  C 29.0349794238683 16.1162790697674  30.3065843621399 16.1162790697674  30.3065843621399 16.1162790697674  C 30.3065843621399 16.1162790697674  30.7304526748971 15.2790697674419  30.7304526748971 15.2790697674419  C 30.7304526748971 15.2790697674419  32.0020576131687 15.6976744186047  32.0020576131687 15.6976744186047  C 32.0020576131687 15.6976744186047  32.8497942386831 14.4418604651163  32.8497942386831 14.4418604651163  C 32.8497942386831 14.4418604651163  32.4259259259259 13.1860465116279  32.4259259259259 13.1860465116279  C 32.4259259259259 13.1860465116279  33.6975308641975 11.5116279069767  33.6975308641975 11.5116279069767  C 33.6975308641975 11.5116279069767  36.2407407407407 10.6744186046512  36.2407407407407 10.6744186046512  C 36.2407407407407 10.6744186046512  37.5123456790123 12.7674418604651  37.5123456790123 12.7674418604651  C 37.5123456790123 12.7674418604651  40.90329218107 12.7674418604651  40.90329218107 12.7674418604651  C 40.90329218107 12.7674418604651  43.022633744856 16.1162790697674  43.022633744856 16.1162790697674  C 43.022633744856 16.1162790697674  44.7181069958848 16.5348837209302  44.7181069958848 16.5348837209302  C 44.7181069958848 16.5348837209302  45.9897119341564 15.2790697674419  45.9897119341564 15.2790697674419  C 45.9897119341564 15.2790697674419  45.5658436213992 12.3488372093023  45.5658436213992 12.3488372093023  C 45.5658436213992 12.3488372093023  46.4135802469136 11.5116279069767  46.4135802469136 11.5116279069767  C 46.4135802469136 11.5116279069767  45.141975308642 11.5116279069767  45.141975308642 11.5116279069767  C 45.141975308642 11.5116279069767  45.141975308642 10.6744186046512  45.141975308642 10.6744186046512  C 45.141975308642 10.6744186046512  46.4135802469136 9  46.4135802469136 9  C 46.4135802469136 9  46.4135802469136 11.5116279069767  46.4135802469136 11.5116279069767  C 46.4135802469136 11.5116279069767  47.6851851851852 11.093023255814  47.6851851851852 11.093023255814  C 47.6851851851852 11.093023255814  48.1090534979424 9.83720930232558  48.1090534979424 9.83720930232558  C 48.1090534979424 9.83720930232558  46.4135802469136 8.58139534883721  46.4135802469136 8.58139534883721  C 46.4135802469136 8.58139534883721  46.8374485596708 6.48837209302325  46.8374485596708 6.48837209302325  C 46.8374485596708 6.48837209302325  51.9238683127572 4.3953488372093  51.9238683127572 4.3953488372093  C 51.9238683127572 4.3953488372093  52.3477366255144 5.23255813953488  52.3477366255144 5.23255813953488  C 52.3477366255144 5.23255813953488  56.5864197530864 3.55813953488372  56.5864197530864 3.55813953488372  C 56.5864197530864 3.55813953488372  57.0102880658436 2.30232558139535  57.0102880658436 2.30232558139535  C 57.0102880658436 2.30232558139535  59.5534979423868 2.30232558139535  59.5534979423868 2.30232558139535  C 59.5534979423868 2.30232558139535  60.4012345679012 3.55813953488372  60.4012345679012 3.55813953488372  C 60.4012345679012 3.55813953488372  62.09670781893 2.72093023255814  62.09670781893 2.72093023255814  C 62.09670781893 2.72093023255814  62.9444444444445 3.97674418604651  62.9444444444445 3.97674418604651  C 62.9444444444445 3.97674418604651  64.2160493827161 1.88372093023256  64.2160493827161 1.88372093023256  C 64.2160493827161 1.88372093023256  64.6399176954732 2.72093023255814  64.6399176954732 2.72093023255814  C 64.6399176954732 2.72093023255814  66.3353909465021 2.30232558139535  66.3353909465021 2.30232558139535  C 66.3353909465021 2.30232558139535  68.0308641975309 3.55813953488372  68.0308641975309 3.55813953488372  C 68.0308641975309 3.55813953488372  69.3024691358025 1.88372093023256  69.3024691358025 1.88372093023256  C 69.3024691358025 1.88372093023256  69.3024691358025 0.209302325581395  69.3024691358025 0.209302325581395  C 69.3024691358025 0.209302325581395  70.1502057613169 1.88372093023256  70.1502057613169 1.88372093023256  C 70.1502057613169 1.88372093023256  72.6934156378601 0.627906976744186  72.6934156378601 0.627906976744186  C 72.6934156378601 0.627906976744186  77.7798353909465 3.97674418604651  77.7798353909465 3.97674418604651  C 77.7798353909465 3.97674418604651  79.4753086419753 4.3953488372093  79.4753086419753 4.3953488372093  C 79.4753086419753 4.3953488372093  79.8991769547325 5.23255813953488  79.8991769547325 5.23255813953488  C 79.8991769547325 5.23255813953488  78.2037037037037 7.32558139534884  78.2037037037037 7.32558139534884  C 78.2037037037037 7.32558139534884  81.5946502057613 7.32558139534884  81.5946502057613 7.32558139534884  C 81.5946502057613 7.32558139534884  80.7469135802469 9  80.7469135802469 9  C 80.7469135802469 9  81.5946502057613 10.2558139534884  81.5946502057613 10.2558139534884  C 81.5946502057613 10.2558139534884  81.1707818930041 11.9302325581395  81.1707818930041 11.9302325581395  C 81.1707818930041 11.9302325581395  82.4423868312757 11.9302325581395  82.4423868312757 11.9302325581395  C 82.4423868312757 11.9302325581395  82.4423868312757 11.093023255814  82.4423868312757 11.093023255814  C 82.4423868312757 11.093023255814  84.9855967078189 11.093023255814  84.9855967078189 11.093023255814  C 84.9855967078189 11.093023255814  85.8333333333333 11.9302325581395  85.8333333333333 11.9302325581395  C 85.8333333333333 11.9302325581395  87.5288065843621 11.9302325581395  87.5288065843621 11.9302325581395  C 87.5288065843621 11.9302325581395  88.8004115226338 12.7674418604651  88.8004115226338 12.7674418604651  C 88.8004115226338 12.7674418604651  91.343621399177 12.7674418604651  91.343621399177 12.7674418604651  C 91.343621399177 12.7674418604651  92.1913580246914 11.9302325581395  92.1913580246914 11.9302325581395  C 92.1913580246914 11.9302325581395  93.0390946502058 14.0232558139535  93.0390946502058 14.0232558139535  C 93.0390946502058 14.0232558139535  94.7345679012346 15.2790697674419  94.7345679012346 15.2790697674419  C 94.7345679012346 15.2790697674419  93.0390946502058 18.2093023255814  93.0390946502058 18.2093023255814  C 93.0390946502058 18.2093023255814  94.3106995884774 20.3023255813953  94.3106995884774 20.3023255813953  C 94.3106995884774 20.3023255813953  93.8868312757202 21.5581395348837  93.8868312757202 21.5581395348837  C 93.8868312757202 21.5581395348837  95.582304526749 21.1395348837209  95.582304526749 21.1395348837209  C 95.582304526749 21.1395348837209  97.2777777777778 22.8139534883721  97.2777777777778 22.8139534883721  C 97.2777777777778 22.8139534883721  98.5493827160494 22.8139534883721  98.5493827160494 22.8139534883721  C 98.5493827160494 22.8139534883721  99.3971193415638 23.6511627906977  99.3971193415638 23.6511627906977  C 99.3971193415638 23.6511627906977  99.3971193415638 25.3255813953488  99.3971193415638 25.3255813953488  C 99.3971193415638 25.3255813953488  102.788065843621 26.5813953488372  102.788065843621 26.5813953488372  C 102.788065843621 26.5813953488372  101.940329218107 26.5813953488372  101.940329218107 26.5813953488372  C 101.940329218107 26.5813953488372  101.940329218107 28.2558139534884  101.940329218107 28.2558139534884  C 101.940329218107 28.2558139534884  98.9732510288066 29.5116279069767  98.9732510288066 29.5116279069767  C 98.9732510288066 29.5116279069767  98.9732510288066 33.6976744186046  98.9732510288066 33.6976744186046  C 98.9732510288066 33.6976744186046  98.1255144032922 33.6976744186046  98.1255144032922 33.6976744186046  C 98.1255144032922 33.6976744186046  97.701646090535 34.5348837209302  97.701646090535 34.5348837209302  C 97.701646090535 34.5348837209302  97.2777777777778 38.3023255813953  97.2777777777778 38.3023255813953  C 97.2777777777778 38.3023255813953  99.3971193415638 39.9767441860465  99.3971193415638 39.9767441860465  C 99.3971193415638 39.9767441860465  100.244855967078 42.906976744186  100.244855967078 42.906976744186  C 100.244855967078 42.906976744186  98.1255144032922 47.093023255814  98.1255144032922 47.093023255814  C 98.1255144032922 47.093023255814  100.668724279835 47.5116279069767  100.668724279835 47.5116279069767  C 100.668724279835 47.5116279069767  100.244855967078 49.1860465116279  100.244855967078 49.1860465116279  C 100.244855967078 49.1860465116279  98.5493827160494 49.6046511627907  98.5493827160494 49.6046511627907  C 98.5493827160494 49.6046511627907  100.668724279835 56.7209302325581  100.668724279835 56.7209302325581  C 100.668724279835 56.7209302325581  99.820987654321 58.8139534883721  99.820987654321 58.8139534883721  C 99.820987654321 58.8139534883721  96.4300411522634 60.0697674418605  96.4300411522634 60.0697674418605  Z " fill-rule="nonzero" fill="#ffffff" stroke="none" fill-opacity="0" transform="matrix(1 0 0 1 116 781 )" />
    <path d="M 96.4300411522634 60.0697674418605  C 96.4300411522634 60.0697674418605  96.4300411522634 60.906976744186  96.4300411522634 60.906976744186  C 96.4300411522634 60.906976744186  96.4300411522634 62.5813953488372  96.4300411522634 62.5813953488372  C 96.4300411522634 62.5813953488372  95.582304526749 63  95.582304526749 63  C 95.582304526749 63  96.0061728395062 63.8372093023256  96.0061728395062 63.8372093023256  C 96.0061728395062 63.8372093023256  95.1584362139918 63.8372093023256  95.1584362139918 63.8372093023256  C 95.1584362139918 63.8372093023256  95.1584362139918 65.093023255814  95.1584362139918 65.093023255814  C 95.1584362139918 65.093023255814  96.0061728395062 65.5116279069767  96.0061728395062 65.5116279069767  C 96.0061728395062 65.5116279069767  95.582304526749 67.1860465116279  95.582304526749 67.1860465116279  C 95.582304526749 67.1860465116279  91.343621399177 66.7674418604651  91.343621399177 66.7674418604651  C 91.343621399177 66.7674418604651  87.5288065843621 68.0232558139535  87.5288065843621 68.0232558139535  C 87.5288065843621 68.0232558139535  87.1049382716049 71.3720930232558  87.1049382716049 71.3720930232558  C 87.1049382716049 71.3720930232558  85.4094650205761 71.7906976744186  85.4094650205761 71.7906976744186  C 85.4094650205761 71.7906976744186  84.9855967078189 70.5348837209302  84.9855967078189 70.5348837209302  C 84.9855967078189 70.5348837209302  82.8662551440329 70.5348837209302  82.8662551440329 70.5348837209302  C 82.8662551440329 70.5348837209302  81.5946502057613 69.6976744186046  81.5946502057613 69.6976744186046  C 81.5946502057613 69.6976744186046  81.1707818930041 68.4418604651163  81.1707818930041 68.4418604651163  C 81.1707818930041 68.4418604651163  83.7139917695473 66.7674418604651  83.7139917695473 66.7674418604651  C 83.7139917695473 66.7674418604651  83.2901234567901 65.9302325581395  83.2901234567901 65.9302325581395  C 83.2901234567901 65.9302325581395  80.7469135802469 65.093023255814  80.7469135802469 65.093023255814  C 80.7469135802469 65.093023255814  80.3230452674897 65.9302325581395  80.3230452674897 65.9302325581395  C 80.3230452674897 65.9302325581395  78.2037037037037 66.3488372093023  78.2037037037037 66.3488372093023  C 78.2037037037037 66.3488372093023  77.3559670781893 68.0232558139535  77.3559670781893 68.0232558139535  C 77.3559670781893 68.0232558139535  76.9320987654321 67.1860465116279  76.9320987654321 67.1860465116279  C 76.9320987654321 67.1860465116279  74.8127572016461 68.0232558139535  74.8127572016461 68.0232558139535  C 74.8127572016461 68.0232558139535  73.5411522633745 66.7674418604651  73.5411522633745 66.7674418604651  C 73.5411522633745 66.7674418604651  71.4218106995885 66.7674418604651  71.4218106995885 66.7674418604651  C 71.4218106995885 66.7674418604651  69.3024691358025 62.5813953488372  69.3024691358025 62.5813953488372  C 69.3024691358025 62.5813953488372  67.6069958847737 63  67.6069958847737 63  C 67.6069958847737 63  66.7592592592593 60.4883720930233  66.7592592592593 60.4883720930233  C 66.7592592592593 60.4883720930233  64.2160493827161 58.8139534883721  64.2160493827161 58.8139534883721  C 64.2160493827161 58.8139534883721  65.0637860082305 58.3953488372093  65.0637860082305 58.3953488372093  C 65.0637860082305 58.3953488372093  65.0637860082305 57.1395348837209  65.0637860082305 57.1395348837209  C 65.0637860082305 57.1395348837209  64.2160493827161 56.7209302325581  64.2160493827161 56.7209302325581  C 64.2160493827161 56.7209302325581  64.6399176954732 57.5581395348837  64.6399176954732 57.5581395348837  C 64.6399176954732 57.5581395348837  63.7921810699589 57.9767441860465  63.7921810699589 57.9767441860465  C 63.7921810699589 57.9767441860465  61.6728395061728 57.5581395348837  61.6728395061728 57.5581395348837  C 61.6728395061728 57.5581395348837  61.6728395061728 55.4651162790698  61.6728395061728 55.4651162790698  C 61.6728395061728 55.4651162790698  62.5205761316872 55.4651162790698  62.5205761316872 55.4651162790698  C 62.5205761316872 55.4651162790698  62.5205761316872 51.6976744186047  62.5205761316872 51.6976744186047  C 62.5205761316872 51.6976744186047  56.1625514403292 50.4418604651163  56.1625514403292 50.4418604651163  C 56.1625514403292 50.4418604651163  55.738683127572 47.093023255814  55.738683127572 47.093023255814  C 55.738683127572 47.093023255814  54.4670781893004 47.093023255814  54.4670781893004 47.093023255814  C 54.4670781893004 47.093023255814  54.0432098765432 47.9302325581395  54.0432098765432 47.9302325581395  C 54.0432098765432 47.9302325581395  52.7716049382716 47.5116279069767  52.7716049382716 47.5116279069767  C 52.7716049382716 47.5116279069767  52.3477366255144 49.6046511627907  52.3477366255144 49.6046511627907  C 52.3477366255144 49.6046511627907  49.8045267489712 50.8604651162791  49.8045267489712 50.8604651162791  C 49.8045267489712 50.8604651162791  50.6522633744856 53.3720930232558  50.6522633744856 53.3720930232558  C 50.6522633744856 53.3720930232558  49.8045267489712 53.3720930232558  49.8045267489712 53.3720930232558  C 49.8045267489712 53.3720930232558  50.2283950617284 54.2093023255814  50.2283950617284 54.2093023255814  C 50.2283950617284 54.2093023255814  44.7181069958848 54.6279069767442  44.7181069958848 54.6279069767442  C 44.7181069958848 54.6279069767442  44.2942386831276 55.8837209302326  44.2942386831276 55.8837209302326  C 44.2942386831276 55.8837209302326  40.0555555555556 55.8837209302326  40.0555555555556 55.8837209302326  C 40.0555555555556 55.8837209302326  38.7839506172839 54.6279069767442  38.7839506172839 54.6279069767442  C 38.7839506172839 54.6279069767442  37.0884773662551 55.046511627907  37.0884773662551 55.046511627907  C 37.0884773662551 55.046511627907  35.3930041152263 55.8837209302326  35.3930041152263 55.8837209302326  C 35.3930041152263 55.8837209302326  34.9691358024691 57.9767441860465  34.9691358024691 57.9767441860465  C 34.9691358024691 57.9767441860465  33.6975308641975 58.3953488372093  33.6975308641975 58.3953488372093  C 33.6975308641975 58.3953488372093  31.5781893004115 62.1627906976744  31.5781893004115 62.1627906976744  C 31.5781893004115 62.1627906976744  29.8827160493827 62.1627906976744  29.8827160493827 62.1627906976744  C 29.8827160493827 62.1627906976744  27.3395061728395 64.2558139534884  27.3395061728395 64.2558139534884  C 27.3395061728395 64.2558139534884  25.2201646090535 63  25.2201646090535 63  C 25.2201646090535 63  21.8292181069959 62.1627906976744  21.8292181069959 62.1627906976744  C 21.8292181069959 62.1627906976744  19.2860082304527 63.8372093023256  19.2860082304527 63.8372093023256  C 19.2860082304527 63.8372093023256  18.0144032921811 60.4883720930233  18.0144032921811 60.4883720930233  C 18.0144032921811 60.4883720930233  18.4382716049383 58.3953488372093  18.4382716049383 58.3953488372093  C 18.4382716049383 58.3953488372093  17.5905349794239 58.8139534883721  17.5905349794239 58.8139534883721  C 17.5905349794239 58.8139534883721  17.5905349794239 59.6511627906977  17.5905349794239 59.6511627906977  C 17.5905349794239 59.6511627906977  15.4711934156379 58.3953488372093  15.4711934156379 58.3953488372093  C 15.4711934156379 58.3953488372093  15.8950617283951 57.5581395348837  15.8950617283951 57.5581395348837  C 15.8950617283951 57.5581395348837  12.0802469135802 52.1162790697674  12.0802469135802 52.1162790697674  C 12.0802469135802 52.1162790697674  9.53703703703704 51.2790697674419  9.53703703703704 51.2790697674419  C 9.53703703703704 51.2790697674419  5.72222222222222 51.2790697674419  5.72222222222222 51.2790697674419  C 5.72222222222222 51.2790697674419  3.17901234567901 49.1860465116279  3.17901234567901 49.1860465116279  C 3.17901234567901 49.1860465116279  1.48353909465021 49.1860465116279  1.48353909465021 49.1860465116279  C 1.48353909465021 49.1860465116279  0.211934156378601 45.4186046511628  0.211934156378601 45.4186046511628  C 0.211934156378601 45.4186046511628  1.48353909465021 42.906976744186  1.48353909465021 42.906976744186  C 1.48353909465021 42.906976744186  0.635802469135802 42.4883720930233  0.635802469135802 42.4883720930233  C 0.635802469135802 42.4883720930233  1.90740740740741 41.2325581395349  1.90740740740741 41.2325581395349  C 1.90740740740741 41.2325581395349  2.75514403292181 42.0697674418605  2.75514403292181 42.0697674418605  C 2.75514403292181 42.0697674418605  4.02674897119342 42.0697674418605  4.02674897119342 42.0697674418605  C 4.02674897119342 42.0697674418605  4.45061728395062 40.3953488372093  4.45061728395062 40.3953488372093  C 4.45061728395062 40.3953488372093  6.56995884773663 37.8837209302326  6.56995884773663 37.8837209302326  C 6.56995884773663 37.8837209302326  6.14609053497942 35.3720930232558  6.14609053497942 35.3720930232558  C 6.14609053497942 35.3720930232558  8.26543209876543 31.6046511627907  8.26543209876543 31.6046511627907  C 8.26543209876543 31.6046511627907  10.3847736625514 31.6046511627907  10.3847736625514 31.6046511627907  C 10.3847736625514 31.6046511627907  11.2325102880658 29.093023255814  11.2325102880658 29.093023255814  C 11.2325102880658 29.093023255814  14.1995884773663 27.4186046511628  14.1995884773663 27.4186046511628  C 14.1995884773663 27.4186046511628  15.0473251028807 27.8372093023256  15.0473251028807 27.8372093023256  C 15.0473251028807 27.8372093023256  18.8621399176955 27  18.8621399176955 27  C 18.8621399176955 27  21.4053497942387 23.2325581395349  21.4053497942387 23.2325581395349  C 21.4053497942387 23.2325581395349  21.4053497942387 19.046511627907  21.4053497942387 19.046511627907  C 21.4053497942387 19.046511627907  22.6769547325103 18.6279069767442  22.6769547325103 18.6279069767442  C 22.6769547325103 18.6279069767442  22.2530864197531 17.7906976744186  22.2530864197531 17.7906976744186  C 22.2530864197531 17.7906976744186  20.1337448559671 16.953488372093  20.1337448559671 16.953488372093  C 20.1337448559671 16.953488372093  20.1337448559671 14.8604651162791  20.1337448559671 14.8604651162791  C 20.1337448559671 14.8604651162791  23.1008230452675 12.7674418604651  23.1008230452675 12.7674418604651  C 23.1008230452675 12.7674418604651  23.9485596707819 13.6046511627907  23.9485596707819 13.6046511627907  C 23.9485596707819 13.6046511627907  25.2201646090535 11.9302325581395  25.2201646090535 11.9302325581395  C 25.2201646090535 11.9302325581395  26.4917695473251 11.9302325581395  26.4917695473251 11.9302325581395  C 26.4917695473251 11.9302325581395  29.0349794238683 16.1162790697674  29.0349794238683 16.1162790697674  C 29.0349794238683 16.1162790697674  30.3065843621399 16.1162790697674  30.3065843621399 16.1162790697674  C 30.3065843621399 16.1162790697674  30.7304526748971 15.2790697674419  30.7304526748971 15.2790697674419  C 30.7304526748971 15.2790697674419  32.0020576131687 15.6976744186047  32.0020576131687 15.6976744186047  C 32.0020576131687 15.6976744186047  32.8497942386831 14.4418604651163  32.8497942386831 14.4418604651163  C 32.8497942386831 14.4418604651163  32.4259259259259 13.1860465116279  32.4259259259259 13.1860465116279  C 32.4259259259259 13.1860465116279  33.6975308641975 11.5116279069767  33.6975308641975 11.5116279069767  C 33.6975308641975 11.5116279069767  36.2407407407407 10.6744186046512  36.2407407407407 10.6744186046512  C 36.2407407407407 10.6744186046512  37.5123456790123 12.7674418604651  37.5123456790123 12.7674418604651  C 37.5123456790123 12.7674418604651  40.90329218107 12.7674418604651  40.90329218107 12.7674418604651  C 40.90329218107 12.7674418604651  43.022633744856 16.1162790697674  43.022633744856 16.1162790697674  C 43.022633744856 16.1162790697674  44.7181069958848 16.5348837209302  44.7181069958848 16.5348837209302  C 44.7181069958848 16.5348837209302  45.9897119341564 15.2790697674419  45.9897119341564 15.2790697674419  C 45.9897119341564 15.2790697674419  45.5658436213992 12.3488372093023  45.5658436213992 12.3488372093023  C 45.5658436213992 12.3488372093023  46.4135802469136 11.5116279069767  46.4135802469136 11.5116279069767  C 46.4135802469136 11.5116279069767  45.141975308642 11.5116279069767  45.141975308642 11.5116279069767  C 45.141975308642 11.5116279069767  45.141975308642 10.6744186046512  45.141975308642 10.6744186046512  C 45.141975308642 10.6744186046512  46.4135802469136 9  46.4135802469136 9  C 46.4135802469136 9  46.4135802469136 11.5116279069767  46.4135802469136 11.5116279069767  C 46.4135802469136 11.5116279069767  47.6851851851852 11.093023255814  47.6851851851852 11.093023255814  C 47.6851851851852 11.093023255814  48.1090534979424 9.83720930232558  48.1090534979424 9.83720930232558  C 48.1090534979424 9.83720930232558  46.4135802469136 8.58139534883721  46.4135802469136 8.58139534883721  C 46.4135802469136 8.58139534883721  46.8374485596708 6.48837209302325  46.8374485596708 6.48837209302325  C 46.8374485596708 6.48837209302325  51.9238683127572 4.3953488372093  51.9238683127572 4.3953488372093  C 51.9238683127572 4.3953488372093  52.3477366255144 5.23255813953488  52.3477366255144 5.23255813953488  C 52.3477366255144 5.23255813953488  56.5864197530864 3.55813953488372  56.5864197530864 3.55813953488372  C 56.5864197530864 3.55813953488372  57.0102880658436 2.30232558139535  57.0102880658436 2.30232558139535  C 57.0102880658436 2.30232558139535  59.5534979423868 2.30232558139535  59.5534979423868 2.30232558139535  C 59.5534979423868 2.30232558139535  60.4012345679012 3.55813953488372  60.4012345679012 3.55813953488372  C 60.4012345679012 3.55813953488372  62.09670781893 2.72093023255814  62.09670781893 2.72093023255814  C 62.09670781893 2.72093023255814  62.9444444444445 3.97674418604651  62.9444444444445 3.97674418604651  C 62.9444444444445 3.97674418604651  64.2160493827161 1.88372093023256  64.2160493827161 1.88372093023256  C 64.2160493827161 1.88372093023256  64.6399176954732 2.72093023255814  64.6399176954732 2.72093023255814  C 64.6399176954732 2.72093023255814  66.3353909465021 2.30232558139535  66.3353909465021 2.30232558139535  C 66.3353909465021 2.30232558139535  68.0308641975309 3.55813953488372  68.0308641975309 3.55813953488372  C 68.0308641975309 3.55813953488372  69.3024691358025 1.88372093023256  69.3024691358025 1.88372093023256  C 69.3024691358025 1.88372093023256  69.3024691358025 0.209302325581395  69.3024691358025 0.209302325581395  C 69.3024691358025 0.209302325581395  70.1502057613169 1.88372093023256  70.1502057613169 1.88372093023256  C 70.1502057613169 1.88372093023256  72.6934156378601 0.627906976744186  72.6934156378601 0.627906976744186  C 72.6934156378601 0.627906976744186  77.7798353909465 3.97674418604651  77.7798353909465 3.97674418604651  C 77.7798353909465 3.97674418604651  79.4753086419753 4.3953488372093  79.4753086419753 4.3953488372093  C 79.4753086419753 4.3953488372093  79.8991769547325 5.23255813953488  79.8991769547325 5.23255813953488  C 79.8991769547325 5.23255813953488  78.2037037037037 7.32558139534884  78.2037037037037 7.32558139534884  C 78.2037037037037 7.32558139534884  81.5946502057613 7.32558139534884  81.5946502057613 7.32558139534884  C 81.5946502057613 7.32558139534884  80.7469135802469 9  80.7469135802469 9  C 80.7469135802469 9  81.5946502057613 10.2558139534884  81.5946502057613 10.2558139534884  C 81.5946502057613 10.2558139534884  81.1707818930041 11.9302325581395  81.1707818930041 11.9302325581395  C 81.1707818930041 11.9302325581395  82.4423868312757 11.9302325581395  82.4423868312757 11.9302325581395  C 82.4423868312757 11.9302325581395  82.4423868312757 11.093023255814  82.4423868312757 11.093023255814  C 82.4423868312757 11.093023255814  84.9855967078189 11.093023255814  84.9855967078189 11.093023255814  C 84.9855967078189 11.093023255814  85.8333333333333 11.9302325581395  85.8333333333333 11.9302325581395  C 85.8333333333333 11.9302325581395  87.5288065843621 11.9302325581395  87.5288065843621 11.9302325581395  C 87.5288065843621 11.9302325581395  88.8004115226338 12.7674418604651  88.8004115226338 12.7674418604651  C 88.8004115226338 12.7674418604651  91.343621399177 12.7674418604651  91.343621399177 12.7674418604651  C 91.343621399177 12.7674418604651  92.1913580246914 11.9302325581395  92.1913580246914 11.9302325581395  C 92.1913580246914 11.9302325581395  93.0390946502058 14.0232558139535  93.0390946502058 14.0232558139535  C 93.0390946502058 14.0232558139535  94.7345679012346 15.2790697674419  94.7345679012346 15.2790697674419  C 94.7345679012346 15.2790697674419  93.0390946502058 18.2093023255814  93.0390946502058 18.2093023255814  C 93.0390946502058 18.2093023255814  94.3106995884774 20.3023255813953  94.3106995884774 20.3023255813953  C 94.3106995884774 20.3023255813953  93.8868312757202 21.5581395348837  93.8868312757202 21.5581395348837  C 93.8868312757202 21.5581395348837  95.582304526749 21.1395348837209  95.582304526749 21.1395348837209  C 95.582304526749 21.1395348837209  97.2777777777778 22.8139534883721  97.2777777777778 22.8139534883721  C 97.2777777777778 22.8139534883721  98.5493827160494 22.8139534883721  98.5493827160494 22.8139534883721  C 98.5493827160494 22.8139534883721  99.3971193415638 23.6511627906977  99.3971193415638 23.6511627906977  C 99.3971193415638 23.6511627906977  99.3971193415638 25.3255813953488  99.3971193415638 25.3255813953488  C 99.3971193415638 25.3255813953488  102.788065843621 26.5813953488372  102.788065843621 26.5813953488372  C 102.788065843621 26.5813953488372  101.940329218107 26.5813953488372  101.940329218107 26.5813953488372  C 101.940329218107 26.5813953488372  101.940329218107 28.2558139534884  101.940329218107 28.2558139534884  C 101.940329218107 28.2558139534884  98.9732510288066 29.5116279069767  98.9732510288066 29.5116279069767  C 98.9732510288066 29.5116279069767  98.9732510288066 33.6976744186046  98.9732510288066 33.6976744186046  C 98.9732510288066 33.6976744186046  98.1255144032922 33.6976744186046  98.1255144032922 33.6976744186046  C 98.1255144032922 33.6976744186046  97.701646090535 34.5348837209302  97.701646090535 34.5348837209302  C 97.701646090535 34.5348837209302  97.2777777777778 38.3023255813953  97.2777777777778 38.3023255813953  C 97.2777777777778 38.3023255813953  99.3971193415638 39.9767441860465  99.3971193415638 39.9767441860465  C 99.3971193415638 39.9767441860465  100.244855967078 42.906976744186  100.244855967078 42.906976744186  C 100.244855967078 42.906976744186  98.1255144032922 47.093023255814  98.1255144032922 47.093023255814  C 98.1255144032922 47.093023255814  100.668724279835 47.5116279069767  100.668724279835 47.5116279069767  C 100.668724279835 47.5116279069767  100.244855967078 49.1860465116279  100.244855967078 49.1860465116279  C 100.244855967078 49.1860465116279  98.5493827160494 49.6046511627907  98.5493827160494 49.6046511627907  C 98.5493827160494 49.6046511627907  100.668724279835 56.7209302325581  100.668724279835 56.7209302325581  C 100.668724279835 56.7209302325581  99.820987654321 58.8139534883721  99.820987654321 58.8139534883721  C 99.820987654321 58.8139534883721  96.4300411522634 60.0697674418605  96.4300411522634 60.0697674418605  Z " stroke-width="2" stroke-dasharray="1,1" stroke="#999999" fill="none" transform="matrix(1 0 0 1 116 781 )" mask="url(#clip34)" />
  </g>
</svg>