<?xml version="1.0" encoding="utf-8"?>
<svg version="1.1" xmlns:xlink="http://www.w3.org/1999/xlink" width="79px" height="78px" xmlns="http://www.w3.org/2000/svg">
  <defs>
    <mask fill="white" id="clip35">
      <path d="M 48.1143617021277 1.04838709677419  C 48.1143617021277 1.04838709677419  49.375 1.46774193548387  49.375 1.46774193548387  C 49.375 1.46774193548387  50.2154255319149 2.30645161290323  50.2154255319149 2.30645161290323  C 50.2154255319149 2.30645161290323  49.375 2.7258064516129  49.375 2.7258064516129  C 49.375 2.7258064516129  52.3164893617021 7.75806451612903  52.3164893617021 7.75806451612903  C 52.3164893617021 7.75806451612903  53.5771276595745 6.91935483870968  53.5771276595745 6.91935483870968  C 53.5771276595745 6.91935483870968  53.9973404255319 7.75806451612903  53.9973404255319 7.75806451612903  C 53.9973404255319 7.75806451612903  55.6781914893617 6.91935483870968  55.6781914893617 6.91935483870968  C 55.6781914893617 6.91935483870968  58.6196808510638 11.1129032258065  58.6196808510638 11.1129032258065  C 58.6196808510638 11.1129032258065  53.5771276595745 12.3709677419355  53.5771276595745 12.3709677419355  C 53.5771276595745 12.3709677419355  50.2154255319149 14.4677419354839  50.2154255319149 14.4677419354839  C 50.2154255319149 14.4677419354839  48.1143617021277 17.8225806451613  48.1143617021277 17.8225806451613  C 48.1143617021277 17.8225806451613  49.7952127659575 18.241935483871  49.7952127659575 18.241935483871  C 49.7952127659575 18.241935483871  48.9547872340425 18.6612903225806  48.9547872340425 18.6612903225806  C 48.9547872340425 18.6612903225806  49.7952127659575 22.0161290322581  49.7952127659575 22.0161290322581  C 49.7952127659575 22.0161290322581  48.1143617021277 23.2741935483871  48.1143617021277 23.2741935483871  C 48.1143617021277 23.2741935483871  48.9547872340425 23.2741935483871  48.9547872340425 23.2741935483871  C 48.9547872340425 23.2741935483871  48.5345744680851 23.6935483870968  48.5345744680851 23.6935483870968  C 48.5345744680851 23.6935483870968  49.375 24.1129032258065  49.375 24.1129032258065  C 49.375 24.1129032258065  51.0558510638298 23.2741935483871  51.0558510638298 23.2741935483871  C 51.0558510638298 23.2741935483871  55.2579787234043 23.6935483870968  55.2579787234043 23.6935483870968  C 55.2579787234043 23.6935483870968  55.2579787234043 24.5322580645161  55.2579787234043 24.5322580645161  C 55.2579787234043 24.5322580645161  56.0984042553192 24.5322580645161  56.0984042553192 24.5322580645161  C 56.0984042553192 24.5322580645161  56.5186170212766 23.6935483870968  56.5186170212766 23.6935483870968  C 56.5186170212766 23.6935483870968  59.0398936170213 24.1129032258065  59.0398936170213 24.1129032258065  C 59.0398936170213 24.1129032258065  61.9813829787234 21.1774193548387  61.9813829787234 21.1774193548387  C 61.9813829787234 21.1774193548387  63.6622340425532 20.758064516129  63.6622340425532 20.758064516129  C 63.6622340425532 20.758064516129  64.0824468085106 22.0161290322581  64.0824468085106 22.0161290322581  C 64.0824468085106 22.0161290322581  64.9228723404255 21.5967741935484  64.9228723404255 21.5967741935484  C 64.9228723404255 21.5967741935484  66.1835106382979 24.5322580645161  66.1835106382979 24.5322580645161  C 66.1835106382979 24.5322580645161  67.4441489361702 24.5322580645161  67.4441489361702 24.5322580645161  C 67.4441489361702 24.5322580645161  67.4441489361702 25.7903225806452  67.4441489361702 25.7903225806452  C 67.4441489361702 25.7903225806452  66.6037234042553 25.7903225806452  66.6037234042553 25.7903225806452  C 66.6037234042553 25.7903225806452  66.6037234042553 27.4677419354839  66.6037234042553 27.4677419354839  C 66.6037234042553 27.4677419354839  67.4441489361702 27.4677419354839  67.4441489361702 27.4677419354839  C 67.4441489361702 27.4677419354839  67.0239361702128 28.7258064516129  67.0239361702128 28.7258064516129  C 67.0239361702128 28.7258064516129  69.5452127659574 29.1451612903226  69.5452127659574 29.1451612903226  C 69.5452127659574 29.1451612903226  69.9654255319149 31.241935483871  69.9654255319149 31.241935483871  C 69.9654255319149 31.241935483871  73.7473404255319 30.8225806451613  73.7473404255319 30.8225806451613  C 73.7473404255319 30.8225806451613  75.4281914893617 31.6612903225806  75.4281914893617 31.6612903225806  C 75.4281914893617 31.6612903225806  75.0079787234043 36.2741935483871  75.0079787234043 36.2741935483871  C 75.0079787234043 36.2741935483871  76.2686170212766 38.3709677419355  76.2686170212766 38.3709677419355  C 76.2686170212766 38.3709677419355  78.3696808510638 38.3709677419355  78.3696808510638 38.3709677419355  C 78.3696808510638 38.3709677419355  78.3696808510638 41.7258064516129  78.3696808510638 41.7258064516129  C 78.3696808510638 41.7258064516129  76.2686170212766 42.9838709677419  76.2686170212766 42.9838709677419  C 76.2686170212766 42.9838709677419  74.5877659574468 42.5645161290323  74.5877659574468 42.5645161290323  C 74.5877659574468 42.5645161290323  75.0079787234043 44.6612903225806  75.0079787234043 44.6612903225806  C 75.0079787234043 44.6612903225806  77.5292553191489 45.9193548387097  77.5292553191489 45.9193548387097  C 77.5292553191489 45.9193548387097  78.7898936170213 48.0161290322581  78.7898936170213 48.0161290322581  C 78.7898936170213 48.0161290322581  75.4281914893617 48.8548387096774  75.4281914893617 48.8548387096774  C 75.4281914893617 48.8548387096774  74.5877659574468 48.4354838709677  74.5877659574468 48.4354838709677  C 74.5877659574468 48.4354838709677  73.7473404255319 46.3387096774194  73.7473404255319 46.3387096774194  C 73.7473404255319 46.3387096774194  72.906914893617 46.758064516129  72.906914893617 46.758064516129  C 72.906914893617 46.758064516129  68.7047872340426 45.5  68.7047872340426 45.5  C 68.7047872340426 45.5  67.8643617021277 45.9193548387097  67.8643617021277 45.9193548387097  C 67.8643617021277 45.9193548387097  68.2845744680851 46.3387096774194  68.2845744680851 46.3387096774194  C 68.2845744680851 46.3387096774194  66.6037234042553 46.758064516129  66.6037234042553 46.758064516129  C 66.6037234042553 46.758064516129  64.9228723404255 45.5  64.9228723404255 45.5  C 64.9228723404255 45.5  64.9228723404255 46.758064516129  64.9228723404255 46.758064516129  C 64.9228723404255 46.758064516129  62.4015957446808 46.3387096774194  62.4015957446808 46.3387096774194  C 62.4015957446808 46.3387096774194  61.9813829787234 43.8225806451613  61.9813829787234 43.8225806451613  C 61.9813829787234 43.8225806451613  60.7207446808511 42.5645161290323  60.7207446808511 42.5645161290323  C 60.7207446808511 42.5645161290323  60.7207446808511 41.7258064516129  60.7207446808511 41.7258064516129  C 60.7207446808511 41.7258064516129  58.1994680851064 42.9838709677419  58.1994680851064 42.9838709677419  C 58.1994680851064 42.9838709677419  56.0984042553192 42.1451612903226  56.0984042553192 42.1451612903226  C 56.0984042553192 42.1451612903226  53.9973404255319 42.5645161290323  53.9973404255319 42.5645161290323  C 53.9973404255319 42.5645161290323  54.8377659574468 44.241935483871  54.8377659574468 44.241935483871  C 54.8377659574468 44.241935483871  53.9973404255319 44.241935483871  53.9973404255319 44.241935483871  C 53.9973404255319 44.241935483871  54.4175531914894 45.9193548387097  54.4175531914894 45.9193548387097  C 54.4175531914894 45.9193548387097  52.7367021276596 46.3387096774194  52.7367021276596 46.3387096774194  C 52.7367021276596 46.3387096774194  51.4760638297872 47.5967741935484  51.4760638297872 47.5967741935484  C 51.4760638297872 47.5967741935484  50.6356382978723 47.1774193548387  50.6356382978723 47.1774193548387  C 50.6356382978723 47.1774193548387  50.6356382978723 45.9193548387097  50.6356382978723 45.9193548387097  C 50.6356382978723 45.9193548387097  50.6356382978723 48.0161290322581  50.6356382978723 48.0161290322581  C 50.6356382978723 48.0161290322581  47.6941489361702 47.1774193548387  47.6941489361702 47.1774193548387  C 47.6941489361702 47.1774193548387  47.2739361702128 50.9516129032258  47.2739361702128 50.9516129032258  C 47.2739361702128 50.9516129032258  48.1143617021277 50.9516129032258  48.1143617021277 50.9516129032258  C 48.1143617021277 50.9516129032258  48.1143617021277 51.7903225806452  48.1143617021277 51.7903225806452  C 48.1143617021277 51.7903225806452  46.8537234042553 53.4677419354839  46.8537234042553 53.4677419354839  C 46.8537234042553 53.4677419354839  46.0132978723404 53.4677419354839  46.0132978723404 53.4677419354839  C 46.0132978723404 53.4677419354839  45.1728723404255 56.4032258064516  45.1728723404255 56.4032258064516  C 45.1728723404255 56.4032258064516  39.7101063829787 55.5645161290323  39.7101063829787 55.5645161290323  C 39.7101063829787 55.5645161290323  40.5505319148936 59.3387096774194  40.5505319148936 59.3387096774194  C 40.5505319148936 59.3387096774194  38.0292553191489 60.1774193548387  38.0292553191489 60.1774193548387  C 38.0292553191489 60.1774193548387  38.0292553191489 61.0161290322581  38.0292553191489 61.0161290322581  C 38.0292553191489 61.0161290322581  33.8271276595745 61.0161290322581  33.8271276595745 61.0161290322581  C 33.8271276595745 61.0161290322581  35.0877659574468 64.3709677419355  35.0877659574468 64.3709677419355  C 35.0877659574468 64.3709677419355  32.1462765957447 64.3709677419355  32.1462765957447 64.3709677419355  C 32.1462765957447 64.3709677419355  32.1462765957447 61.8548387096774  32.1462765957447 61.8548387096774  C 32.1462765957447 61.8548387096774  28.7845744680851 61.0161290322581  28.7845744680851 61.0161290322581  C 28.7845744680851 61.0161290322581  28.7845744680851 63.5322580645161  28.7845744680851 63.5322580645161  C 28.7845744680851 63.5322580645161  29.625 63.9516129032258  29.625 63.9516129032258  C 29.625 63.9516129032258  29.625 64.7903225806452  29.625 64.7903225806452  C 29.625 64.7903225806452  31.3058510638298 65.2096774193548  31.3058510638298 65.2096774193548  C 31.3058510638298 65.2096774193548  31.7260638297872 67.3064516129032  31.7260638297872 67.3064516129032  C 31.7260638297872 67.3064516129032  30.0452127659574 69.4032258064516  30.0452127659574 69.4032258064516  C 30.0452127659574 69.4032258064516  32.5664893617021 68.9838709677419  32.5664893617021 68.9838709677419  C 32.5664893617021 68.9838709677419  32.5664893617021 71.0806451612903  32.5664893617021 71.0806451612903  C 32.5664893617021 71.0806451612903  33.8271276595745 69.8225806451613  33.8271276595745 69.8225806451613  C 33.8271276595745 69.8225806451613  35.0877659574468 69.8225806451613  35.0877659574468 69.8225806451613  C 35.0877659574468 69.8225806451613  36.7686170212766 74.8548387096774  36.7686170212766 74.8548387096774  C 36.7686170212766 74.8548387096774  35.9281914893617 76.5322580645161  35.9281914893617 76.5322580645161  C 35.9281914893617 76.5322580645161  33.406914893617 77.7903225806452  33.406914893617 77.7903225806452  C 33.406914893617 77.7903225806452  29.625 76.1129032258064  29.625 76.1129032258064  C 29.625 76.1129032258064  23.3218085106383 76.1129032258064  23.3218085106383 76.1129032258064  C 23.3218085106383 76.1129032258064  22.4813829787234 75.2741935483871  22.4813829787234 75.2741935483871  C 22.4813829787234 75.2741935483871  18.2792553191489 74.8548387096774  18.2792553191489 74.8548387096774  C 18.2792553191489 74.8548387096774  16.1781914893617 72.758064516129  16.1781914893617 72.758064516129  C 16.1781914893617 72.758064516129  16.1781914893617 71.5  16.1781914893617 71.5  C 16.1781914893617 71.5  13.656914893617 68.5645161290323  13.656914893617 68.5645161290323  C 13.656914893617 68.5645161290323  10.2952127659574 67.7258064516129  10.2952127659574 67.7258064516129  C 10.2952127659574 67.7258064516129  9.875 68.1451612903226  9.875 68.1451612903226  C 9.875 68.1451612903226  9.45478723404255 67.3064516129032  9.45478723404255 67.3064516129032  C 9.45478723404255 67.3064516129032  6.51329787234043 66.4677419354839  6.51329787234043 66.4677419354839  C 6.51329787234043 66.4677419354839  6.51329787234043 65.2096774193548  6.51329787234043 65.2096774193548  C 6.51329787234043 65.2096774193548  4.83244680851064 63.5322580645161  4.83244680851064 63.5322580645161  C 4.83244680851064 63.5322580645161  4.41223404255319 61.4354838709677  4.41223404255319 61.4354838709677  C 4.41223404255319 61.4354838709677  5.25265957446809 60.5967741935484  5.25265957446809 60.5967741935484  C 5.25265957446809 60.5967741935484  4.41223404255319 55.9838709677419  4.41223404255319 55.9838709677419  C 4.41223404255319 55.9838709677419  4.83244680851064 55.1451612903226  4.83244680851064 55.1451612903226  C 4.83244680851064 55.1451612903226  3.99202127659574 53.8870967741936  3.99202127659574 53.8870967741936  C 3.99202127659574 53.8870967741936  3.15159574468085 53.8870967741936  3.15159574468085 53.8870967741936  C 3.15159574468085 53.8870967741936  3.15159574468085 53.0483870967742  3.15159574468085 53.0483870967742  C 3.15159574468085 53.0483870967742  1.89095744680851 53.0483870967742  1.89095744680851 53.0483870967742  C 1.89095744680851 53.0483870967742  1.05053191489362 50.9516129032258  1.05053191489362 50.9516129032258  C 1.05053191489362 50.9516129032258  1.89095744680851 48.0161290322581  1.89095744680851 48.0161290322581  C 1.89095744680851 48.0161290322581  1.05053191489362 48.0161290322581  1.05053191489362 48.0161290322581  C 1.05053191489362 48.0161290322581  1.47074468085106 47.1774193548387  1.47074468085106 47.1774193548387  C 1.47074468085106 47.1774193548387  0.63031914893617 45.0806451612903  0.63031914893617 45.0806451612903  C 0.63031914893617 45.0806451612903  0.210106382978723 35.8548387096774  0.210106382978723 35.8548387096774  C 0.210106382978723 35.8548387096774  1.47074468085106 33.3387096774194  1.47074468085106 33.3387096774194  C 1.47074468085106 33.3387096774194  1.05053191489362 30.8225806451613  1.05053191489362 30.8225806451613  C 1.05053191489362 30.8225806451613  3.15159574468085 25.7903225806452  3.15159574468085 25.7903225806452  C 3.15159574468085 25.7903225806452  3.15159574468085 23.6935483870968  3.15159574468085 23.6935483870968  C 3.15159574468085 23.6935483870968  4.83244680851064 22.8548387096774  4.83244680851064 22.8548387096774  C 4.83244680851064 22.8548387096774  5.25265957446809 20.758064516129  5.25265957446809 20.758064516129  C 5.25265957446809 20.758064516129  4.41223404255319 18.241935483871  4.41223404255319 18.241935483871  C 4.41223404255319 18.241935483871  5.67287234042553 16.5645161290323  5.67287234042553 16.5645161290323  C 5.67287234042553 16.5645161290323  6.09308510638298 13.6290322580645  6.09308510638298 13.6290322580645  C 6.09308510638298 13.6290322580645  5.67287234042553 7.75806451612903  5.67287234042553 7.75806451612903  C 5.67287234042553 7.75806451612903  6.93351063829787 6.91935483870968  6.93351063829787 6.91935483870968  C 6.93351063829787 6.91935483870968  7.35372340425532 7.75806451612903  7.35372340425532 7.75806451612903  C 7.35372340425532 7.75806451612903  11.1356382978723 6.5  11.1356382978723 6.5  C 11.1356382978723 6.5  11.5558510638298 7.33870967741936  11.5558510638298 7.33870967741936  C 11.5558510638298 7.33870967741936  12.3962765957447 7.33870967741936  12.3962765957447 7.33870967741936  C 12.3962765957447 7.33870967741936  11.5558510638298 7.75806451612903  11.5558510638298 7.75806451612903  C 11.5558510638298 7.75806451612903  12.3962765957447 8.17741935483871  12.3962765957447 8.17741935483871  C 12.3962765957447 8.17741935483871  13.2367021276596 11.5322580645161  13.2367021276596 11.5322580645161  C 13.2367021276596 11.5322580645161  14.0771276595745 12.3709677419355  14.0771276595745 12.3709677419355  C 14.0771276595745 12.3709677419355  17.438829787234 6.08064516129032  17.438829787234 6.08064516129032  C 17.438829787234 6.08064516129032  19.1196808510638 6.08064516129032  19.1196808510638 6.08064516129032  C 19.1196808510638 6.08064516129032  19.5398936170213 4.82258064516129  19.5398936170213 4.82258064516129  C 19.5398936170213 4.82258064516129  21.6409574468085 5.24193548387097  21.6409574468085 5.24193548387097  C 21.6409574468085 5.24193548387097  21.6409574468085 6.5  21.6409574468085 6.5  C 21.6409574468085 6.5  23.3218085106383 6.5  23.3218085106383 6.5  C 23.3218085106383 6.5  23.3218085106383 9.43548387096774  23.3218085106383 9.43548387096774  C 23.3218085106383 9.43548387096774  25.0026595744681 9.43548387096774  25.0026595744681 9.43548387096774  C 25.0026595744681 9.43548387096774  25.0026595744681 10.6935483870968  25.0026595744681 10.6935483870968  C 25.0026595744681 10.6935483870968  27.1037234042553 10.2741935483871  27.1037234042553 10.2741935483871  C 27.1037234042553 10.2741935483871  27.1037234042553 13.2096774193548  27.1037234042553 13.2096774193548  C 27.1037234042553 13.2096774193548  28.3643617021277 13.2096774193548  28.3643617021277 13.2096774193548  C 28.3643617021277 13.2096774193548  27.5239361702128 9.01612903225806  27.5239361702128 9.01612903225806  C 27.5239361702128 9.01612903225806  31.3058510638298 9.01612903225806  31.3058510638298 9.01612903225806  C 31.3058510638298 9.01612903225806  31.7260638297872 7.75806451612903  31.7260638297872 7.75806451612903  C 31.7260638297872 7.75806451612903  32.9867021276596 7.75806451612903  32.9867021276596 7.75806451612903  C 32.9867021276596 7.75806451612903  32.9867021276596 5.66129032258065  32.9867021276596 5.66129032258065  C 32.9867021276596 5.66129032258065  32.1462765957447 5.66129032258065  32.1462765957447 5.66129032258065  C 32.1462765957447 5.66129032258065  31.7260638297872 4.40322580645161  31.7260638297872 4.40322580645161  C 31.7260638297872 4.40322580645161  30.0452127659574 4.40322580645161  30.0452127659574 4.40322580645161  C 30.0452127659574 4.40322580645161  30.0452127659574 3.14516129032258  30.0452127659574 3.14516129032258  C 30.0452127659574 3.14516129032258  31.3058510638298 3.56451612903226  31.3058510638298 3.56451612903226  C 31.3058510638298 3.56451612903226  31.3058510638298 1.88709677419355  31.3058510638298 1.88709677419355  C 31.3058510638298 1.88709677419355  30.4654255319149 1.88709677419355  30.4654255319149 1.88709677419355  C 30.4654255319149 1.88709677419355  30.8856382978723 0.629032258064516  30.8856382978723 0.629032258064516  C 30.8856382978723 0.629032258064516  31.3058510638298 1.04838709677419  31.3058510638298 1.04838709677419  C 31.3058510638298 1.04838709677419  32.1462765957447 0.209677419354839  32.1462765957447 0.209677419354839  C 32.1462765957447 0.209677419354839  35.5079787234043 1.04838709677419  35.5079787234043 1.04838709677419  C 35.5079787234043 1.04838709677419  35.0877659574468 2.30645161290323  35.0877659574468 2.30645161290323  C 35.0877659574468 2.30645161290323  36.3484042553192 1.88709677419355  36.3484042553192 1.88709677419355  C 36.3484042553192 1.88709677419355  40.1303191489362 4.40322580645161  40.1303191489362 4.40322580645161  C 40.1303191489362 4.40322580645161  41.811170212766 3.98387096774194  41.811170212766 3.98387096774194  C 41.811170212766 3.98387096774194  41.811170212766 3.14516129032258  41.811170212766 3.14516129032258  C 41.811170212766 3.14516129032258  44.7526595744681 3.14516129032258  44.7526595744681 3.14516129032258  C 44.7526595744681 3.14516129032258  44.3324468085106 2.7258064516129  44.3324468085106 2.7258064516129  C 44.3324468085106 2.7258064516129  45.593085106383 2.30645161290323  45.593085106383 2.30645161290323  C 45.593085106383 2.30645161290323  45.593085106383 1.04838709677419  45.593085106383 1.04838709677419  C 45.593085106383 1.04838709677419  46.4335106382979 0.629032258064516  46.4335106382979 0.629032258064516  C 46.4335106382979 0.629032258064516  48.1143617021277 1.04838709677419  48.1143617021277 1.04838709677419  Z " fill-rule="evenodd" />
    </mask>
  </defs>
  <g transform="matrix(1 0 0 1 -174 -893 )">
    <path d="M 48.1143617021277 1.04838709677419  C 48.1143617021277 1.04838709677419  49.375 1.46774193548387  49.375 1.46774193548387  C 49.375 1.46774193548387  50.2154255319149 2.30645161290323  50.2154255319149 2.30645161290323  C 50.2154255319149 2.30645161290323  49.375 2.7258064516129  49.375 2.7258064516129  C 49.375 2.7258064516129  52.3164893617021 7.75806451612903  52.3164893617021 7.75806451612903  C 52.3164893617021 7.75806451612903  53.5771276595745 6.91935483870968  53.5771276595745 6.91935483870968  C 53.5771276595745 6.91935483870968  53.9973404255319 7.75806451612903  53.9973404255319 7.75806451612903  C 53.9973404255319 7.75806451612903  55.6781914893617 6.91935483870968  55.6781914893617 6.91935483870968  C 55.6781914893617 6.91935483870968  58.6196808510638 11.1129032258065  58.6196808510638 11.1129032258065  C 58.6196808510638 11.1129032258065  53.5771276595745 12.3709677419355  53.5771276595745 12.3709677419355  C 53.5771276595745 12.3709677419355  50.2154255319149 14.4677419354839  50.2154255319149 14.4677419354839  C 50.2154255319149 14.4677419354839  48.1143617021277 17.8225806451613  48.1143617021277 17.8225806451613  C 48.1143617021277 17.8225806451613  49.7952127659575 18.241935483871  49.7952127659575 18.241935483871  C 49.7952127659575 18.241935483871  48.9547872340425 18.6612903225806  48.9547872340425 18.6612903225806  C 48.9547872340425 18.6612903225806  49.7952127659575 22.0161290322581  49.7952127659575 22.0161290322581  C 49.7952127659575 22.0161290322581  48.1143617021277 23.2741935483871  48.1143617021277 23.2741935483871  C 48.1143617021277 23.2741935483871  48.9547872340425 23.2741935483871  48.9547872340425 23.2741935483871  C 48.9547872340425 23.2741935483871  48.5345744680851 23.6935483870968  48.5345744680851 23.6935483870968  C 48.5345744680851 23.6935483870968  49.375 24.1129032258065  49.375 24.1129032258065  C 49.375 24.1129032258065  51.0558510638298 23.2741935483871  51.0558510638298 23.2741935483871  C 51.0558510638298 23.2741935483871  55.2579787234043 23.6935483870968  55.2579787234043 23.6935483870968  C 55.2579787234043 23.6935483870968  55.2579787234043 24.5322580645161  55.2579787234043 24.5322580645161  C 55.2579787234043 24.5322580645161  56.0984042553192 24.5322580645161  56.0984042553192 24.5322580645161  C 56.0984042553192 24.5322580645161  56.5186170212766 23.6935483870968  56.5186170212766 23.6935483870968  C 56.5186170212766 23.6935483870968  59.0398936170213 24.1129032258065  59.0398936170213 24.1129032258065  C 59.0398936170213 24.1129032258065  61.9813829787234 21.1774193548387  61.9813829787234 21.1774193548387  C 61.9813829787234 21.1774193548387  63.6622340425532 20.758064516129  63.6622340425532 20.758064516129  C 63.6622340425532 20.758064516129  64.0824468085106 22.0161290322581  64.0824468085106 22.0161290322581  C 64.0824468085106 22.0161290322581  64.9228723404255 21.5967741935484  64.9228723404255 21.5967741935484  C 64.9228723404255 21.5967741935484  66.1835106382979 24.5322580645161  66.1835106382979 24.5322580645161  C 66.1835106382979 24.5322580645161  67.4441489361702 24.5322580645161  67.4441489361702 24.5322580645161  C 67.4441489361702 24.5322580645161  67.4441489361702 25.7903225806452  67.4441489361702 25.7903225806452  C 67.4441489361702 25.7903225806452  66.6037234042553 25.7903225806452  66.6037234042553 25.7903225806452  C 66.6037234042553 25.7903225806452  66.6037234042553 27.4677419354839  66.6037234042553 27.4677419354839  C 66.6037234042553 27.4677419354839  67.4441489361702 27.4677419354839  67.4441489361702 27.4677419354839  C 67.4441489361702 27.4677419354839  67.0239361702128 28.7258064516129  67.0239361702128 28.7258064516129  C 67.0239361702128 28.7258064516129  69.5452127659574 29.1451612903226  69.5452127659574 29.1451612903226  C 69.5452127659574 29.1451612903226  69.9654255319149 31.241935483871  69.9654255319149 31.241935483871  C 69.9654255319149 31.241935483871  73.7473404255319 30.8225806451613  73.7473404255319 30.8225806451613  C 73.7473404255319 30.8225806451613  75.4281914893617 31.6612903225806  75.4281914893617 31.6612903225806  C 75.4281914893617 31.6612903225806  75.0079787234043 36.2741935483871  75.0079787234043 36.2741935483871  C 75.0079787234043 36.2741935483871  76.2686170212766 38.3709677419355  76.2686170212766 38.3709677419355  C 76.2686170212766 38.3709677419355  78.3696808510638 38.3709677419355  78.3696808510638 38.3709677419355  C 78.3696808510638 38.3709677419355  78.3696808510638 41.7258064516129  78.3696808510638 41.7258064516129  C 78.3696808510638 41.7258064516129  76.2686170212766 42.9838709677419  76.2686170212766 42.9838709677419  C 76.2686170212766 42.9838709677419  74.5877659574468 42.5645161290323  74.5877659574468 42.5645161290323  C 74.5877659574468 42.5645161290323  75.0079787234043 44.6612903225806  75.0079787234043 44.6612903225806  C 75.0079787234043 44.6612903225806  77.5292553191489 45.9193548387097  77.5292553191489 45.9193548387097  C 77.5292553191489 45.9193548387097  78.7898936170213 48.0161290322581  78.7898936170213 48.0161290322581  C 78.7898936170213 48.0161290322581  75.4281914893617 48.8548387096774  75.4281914893617 48.8548387096774  C 75.4281914893617 48.8548387096774  74.5877659574468 48.4354838709677  74.5877659574468 48.4354838709677  C 74.5877659574468 48.4354838709677  73.7473404255319 46.3387096774194  73.7473404255319 46.3387096774194  C 73.7473404255319 46.3387096774194  72.906914893617 46.758064516129  72.906914893617 46.758064516129  C 72.906914893617 46.758064516129  68.7047872340426 45.5  68.7047872340426 45.5  C 68.7047872340426 45.5  67.8643617021277 45.9193548387097  67.8643617021277 45.9193548387097  C 67.8643617021277 45.9193548387097  68.2845744680851 46.3387096774194  68.2845744680851 46.3387096774194  C 68.2845744680851 46.3387096774194  66.6037234042553 46.758064516129  66.6037234042553 46.758064516129  C 66.6037234042553 46.758064516129  64.9228723404255 45.5  64.9228723404255 45.5  C 64.9228723404255 45.5  64.9228723404255 46.758064516129  64.9228723404255 46.758064516129  C 64.9228723404255 46.758064516129  62.4015957446808 46.3387096774194  62.4015957446808 46.3387096774194  C 62.4015957446808 46.3387096774194  61.9813829787234 43.8225806451613  61.9813829787234 43.8225806451613  C 61.9813829787234 43.8225806451613  60.7207446808511 42.5645161290323  60.7207446808511 42.5645161290323  C 60.7207446808511 42.5645161290323  60.7207446808511 41.7258064516129  60.7207446808511 41.7258064516129  C 60.7207446808511 41.7258064516129  58.1994680851064 42.9838709677419  58.1994680851064 42.9838709677419  C 58.1994680851064 42.9838709677419  56.0984042553192 42.1451612903226  56.0984042553192 42.1451612903226  C 56.0984042553192 42.1451612903226  53.9973404255319 42.5645161290323  53.9973404255319 42.5645161290323  C 53.9973404255319 42.5645161290323  54.8377659574468 44.241935483871  54.8377659574468 44.241935483871  C 54.8377659574468 44.241935483871  53.9973404255319 44.241935483871  53.9973404255319 44.241935483871  C 53.9973404255319 44.241935483871  54.4175531914894 45.9193548387097  54.4175531914894 45.9193548387097  C 54.4175531914894 45.9193548387097  52.7367021276596 46.3387096774194  52.7367021276596 46.3387096774194  C 52.7367021276596 46.3387096774194  51.4760638297872 47.5967741935484  51.4760638297872 47.5967741935484  C 51.4760638297872 47.5967741935484  50.6356382978723 47.1774193548387  50.6356382978723 47.1774193548387  C 50.6356382978723 47.1774193548387  50.6356382978723 45.9193548387097  50.6356382978723 45.9193548387097  C 50.6356382978723 45.9193548387097  50.6356382978723 48.0161290322581  50.6356382978723 48.0161290322581  C 50.6356382978723 48.0161290322581  47.6941489361702 47.1774193548387  47.6941489361702 47.1774193548387  C 47.6941489361702 47.1774193548387  47.2739361702128 50.9516129032258  47.2739361702128 50.9516129032258  C 47.2739361702128 50.9516129032258  48.1143617021277 50.9516129032258  48.1143617021277 50.9516129032258  C 48.1143617021277 50.9516129032258  48.1143617021277 51.7903225806452  48.1143617021277 51.7903225806452  C 48.1143617021277 51.7903225806452  46.8537234042553 53.4677419354839  46.8537234042553 53.4677419354839  C 46.8537234042553 53.4677419354839  46.0132978723404 53.4677419354839  46.0132978723404 53.4677419354839  C 46.0132978723404 53.4677419354839  45.1728723404255 56.4032258064516  45.1728723404255 56.4032258064516  C 45.1728723404255 56.4032258064516  39.7101063829787 55.5645161290323  39.7101063829787 55.5645161290323  C 39.7101063829787 55.5645161290323  40.5505319148936 59.3387096774194  40.5505319148936 59.3387096774194  C 40.5505319148936 59.3387096774194  38.0292553191489 60.1774193548387  38.0292553191489 60.1774193548387  C 38.0292553191489 60.1774193548387  38.0292553191489 61.0161290322581  38.0292553191489 61.0161290322581  C 38.0292553191489 61.0161290322581  33.8271276595745 61.0161290322581  33.8271276595745 61.0161290322581  C 33.8271276595745 61.0161290322581  35.0877659574468 64.3709677419355  35.0877659574468 64.3709677419355  C 35.0877659574468 64.3709677419355  32.1462765957447 64.3709677419355  32.1462765957447 64.3709677419355  C 32.1462765957447 64.3709677419355  32.1462765957447 61.8548387096774  32.1462765957447 61.8548387096774  C 32.1462765957447 61.8548387096774  28.7845744680851 61.0161290322581  28.7845744680851 61.0161290322581  C 28.7845744680851 61.0161290322581  28.7845744680851 63.5322580645161  28.7845744680851 63.5322580645161  C 28.7845744680851 63.5322580645161  29.625 63.9516129032258  29.625 63.9516129032258  C 29.625 63.9516129032258  29.625 64.7903225806452  29.625 64.7903225806452  C 29.625 64.7903225806452  31.3058510638298 65.2096774193548  31.3058510638298 65.2096774193548  C 31.3058510638298 65.2096774193548  31.7260638297872 67.3064516129032  31.7260638297872 67.3064516129032  C 31.7260638297872 67.3064516129032  30.0452127659574 69.4032258064516  30.0452127659574 69.4032258064516  C 30.0452127659574 69.4032258064516  32.5664893617021 68.9838709677419  32.5664893617021 68.9838709677419  C 32.5664893617021 68.9838709677419  32.5664893617021 71.0806451612903  32.5664893617021 71.0806451612903  C 32.5664893617021 71.0806451612903  33.8271276595745 69.8225806451613  33.8271276595745 69.8225806451613  C 33.8271276595745 69.8225806451613  35.0877659574468 69.8225806451613  35.0877659574468 69.8225806451613  C 35.0877659574468 69.8225806451613  36.7686170212766 74.8548387096774  36.7686170212766 74.8548387096774  C 36.7686170212766 74.8548387096774  35.9281914893617 76.5322580645161  35.9281914893617 76.5322580645161  C 35.9281914893617 76.5322580645161  33.406914893617 77.7903225806452  33.406914893617 77.7903225806452  C 33.406914893617 77.7903225806452  29.625 76.1129032258064  29.625 76.1129032258064  C 29.625 76.1129032258064  23.3218085106383 76.1129032258064  23.3218085106383 76.1129032258064  C 23.3218085106383 76.1129032258064  22.4813829787234 75.2741935483871  22.4813829787234 75.2741935483871  C 22.4813829787234 75.2741935483871  18.2792553191489 74.8548387096774  18.2792553191489 74.8548387096774  C 18.2792553191489 74.8548387096774  16.1781914893617 72.758064516129  16.1781914893617 72.758064516129  C 16.1781914893617 72.758064516129  16.1781914893617 71.5  16.1781914893617 71.5  C 16.1781914893617 71.5  13.656914893617 68.5645161290323  13.656914893617 68.5645161290323  C 13.656914893617 68.5645161290323  10.2952127659574 67.7258064516129  10.2952127659574 67.7258064516129  C 10.2952127659574 67.7258064516129  9.875 68.1451612903226  9.875 68.1451612903226  C 9.875 68.1451612903226  9.45478723404255 67.3064516129032  9.45478723404255 67.3064516129032  C 9.45478723404255 67.3064516129032  6.51329787234043 66.4677419354839  6.51329787234043 66.4677419354839  C 6.51329787234043 66.4677419354839  6.51329787234043 65.2096774193548  6.51329787234043 65.2096774193548  C 6.51329787234043 65.2096774193548  4.83244680851064 63.5322580645161  4.83244680851064 63.5322580645161  C 4.83244680851064 63.5322580645161  4.41223404255319 61.4354838709677  4.41223404255319 61.4354838709677  C 4.41223404255319 61.4354838709677  5.25265957446809 60.5967741935484  5.25265957446809 60.5967741935484  C 5.25265957446809 60.5967741935484  4.41223404255319 55.9838709677419  4.41223404255319 55.9838709677419  C 4.41223404255319 55.9838709677419  4.83244680851064 55.1451612903226  4.83244680851064 55.1451612903226  C 4.83244680851064 55.1451612903226  3.99202127659574 53.8870967741936  3.99202127659574 53.8870967741936  C 3.99202127659574 53.8870967741936  3.15159574468085 53.8870967741936  3.15159574468085 53.8870967741936  C 3.15159574468085 53.8870967741936  3.15159574468085 53.0483870967742  3.15159574468085 53.0483870967742  C 3.15159574468085 53.0483870967742  1.89095744680851 53.0483870967742  1.89095744680851 53.0483870967742  C 1.89095744680851 53.0483870967742  1.05053191489362 50.9516129032258  1.05053191489362 50.9516129032258  C 1.05053191489362 50.9516129032258  1.89095744680851 48.0161290322581  1.89095744680851 48.0161290322581  C 1.89095744680851 48.0161290322581  1.05053191489362 48.0161290322581  1.05053191489362 48.0161290322581  C 1.05053191489362 48.0161290322581  1.47074468085106 47.1774193548387  1.47074468085106 47.1774193548387  C 1.47074468085106 47.1774193548387  0.63031914893617 45.0806451612903  0.63031914893617 45.0806451612903  C 0.63031914893617 45.0806451612903  0.210106382978723 35.8548387096774  0.210106382978723 35.8548387096774  C 0.210106382978723 35.8548387096774  1.47074468085106 33.3387096774194  1.47074468085106 33.3387096774194  C 1.47074468085106 33.3387096774194  1.05053191489362 30.8225806451613  1.05053191489362 30.8225806451613  C 1.05053191489362 30.8225806451613  3.15159574468085 25.7903225806452  3.15159574468085 25.7903225806452  C 3.15159574468085 25.7903225806452  3.15159574468085 23.6935483870968  3.15159574468085 23.6935483870968  C 3.15159574468085 23.6935483870968  4.83244680851064 22.8548387096774  4.83244680851064 22.8548387096774  C 4.83244680851064 22.8548387096774  5.25265957446809 20.758064516129  5.25265957446809 20.758064516129  C 5.25265957446809 20.758064516129  4.41223404255319 18.241935483871  4.41223404255319 18.241935483871  C 4.41223404255319 18.241935483871  5.67287234042553 16.5645161290323  5.67287234042553 16.5645161290323  C 5.67287234042553 16.5645161290323  6.09308510638298 13.6290322580645  6.09308510638298 13.6290322580645  C 6.09308510638298 13.6290322580645  5.67287234042553 7.75806451612903  5.67287234042553 7.75806451612903  C 5.67287234042553 7.75806451612903  6.93351063829787 6.91935483870968  6.93351063829787 6.91935483870968  C 6.93351063829787 6.91935483870968  7.35372340425532 7.75806451612903  7.35372340425532 7.75806451612903  C 7.35372340425532 7.75806451612903  11.1356382978723 6.5  11.1356382978723 6.5  C 11.1356382978723 6.5  11.5558510638298 7.33870967741936  11.5558510638298 7.33870967741936  C 11.5558510638298 7.33870967741936  12.3962765957447 7.33870967741936  12.3962765957447 7.33870967741936  C 12.3962765957447 7.33870967741936  11.5558510638298 7.75806451612903  11.5558510638298 7.75806451612903  C 11.5558510638298 7.75806451612903  12.3962765957447 8.17741935483871  12.3962765957447 8.17741935483871  C 12.3962765957447 8.17741935483871  13.2367021276596 11.5322580645161  13.2367021276596 11.5322580645161  C 13.2367021276596 11.5322580645161  14.0771276595745 12.3709677419355  14.0771276595745 12.3709677419355  C 14.0771276595745 12.3709677419355  17.438829787234 6.08064516129032  17.438829787234 6.08064516129032  C 17.438829787234 6.08064516129032  19.1196808510638 6.08064516129032  19.1196808510638 6.08064516129032  C 19.1196808510638 6.08064516129032  19.5398936170213 4.82258064516129  19.5398936170213 4.82258064516129  C 19.5398936170213 4.82258064516129  21.6409574468085 5.24193548387097  21.6409574468085 5.24193548387097  C 21.6409574468085 5.24193548387097  21.6409574468085 6.5  21.6409574468085 6.5  C 21.6409574468085 6.5  23.3218085106383 6.5  23.3218085106383 6.5  C 23.3218085106383 6.5  23.3218085106383 9.43548387096774  23.3218085106383 9.43548387096774  C 23.3218085106383 9.43548387096774  25.0026595744681 9.43548387096774  25.0026595744681 9.43548387096774  C 25.0026595744681 9.43548387096774  25.0026595744681 10.6935483870968  25.0026595744681 10.6935483870968  C 25.0026595744681 10.6935483870968  27.1037234042553 10.2741935483871  27.1037234042553 10.2741935483871  C 27.1037234042553 10.2741935483871  27.1037234042553 13.2096774193548  27.1037234042553 13.2096774193548  C 27.1037234042553 13.2096774193548  28.3643617021277 13.2096774193548  28.3643617021277 13.2096774193548  C 28.3643617021277 13.2096774193548  27.5239361702128 9.01612903225806  27.5239361702128 9.01612903225806  C 27.5239361702128 9.01612903225806  31.3058510638298 9.01612903225806  31.3058510638298 9.01612903225806  C 31.3058510638298 9.01612903225806  31.7260638297872 7.75806451612903  31.7260638297872 7.75806451612903  C 31.7260638297872 7.75806451612903  32.9867021276596 7.75806451612903  32.9867021276596 7.75806451612903  C 32.9867021276596 7.75806451612903  32.9867021276596 5.66129032258065  32.9867021276596 5.66129032258065  C 32.9867021276596 5.66129032258065  32.1462765957447 5.66129032258065  32.1462765957447 5.66129032258065  C 32.1462765957447 5.66129032258065  31.7260638297872 4.40322580645161  31.7260638297872 4.40322580645161  C 31.7260638297872 4.40322580645161  30.0452127659574 4.40322580645161  30.0452127659574 4.40322580645161  C 30.0452127659574 4.40322580645161  30.0452127659574 3.14516129032258  30.0452127659574 3.14516129032258  C 30.0452127659574 3.14516129032258  31.3058510638298 3.56451612903226  31.3058510638298 3.56451612903226  C 31.3058510638298 3.56451612903226  31.3058510638298 1.88709677419355  31.3058510638298 1.88709677419355  C 31.3058510638298 1.88709677419355  30.4654255319149 1.88709677419355  30.4654255319149 1.88709677419355  C 30.4654255319149 1.88709677419355  30.8856382978723 0.629032258064516  30.8856382978723 0.629032258064516  C 30.8856382978723 0.629032258064516  31.3058510638298 1.04838709677419  31.3058510638298 1.04838709677419  C 31.3058510638298 1.04838709677419  32.1462765957447 0.209677419354839  32.1462765957447 0.209677419354839  C 32.1462765957447 0.209677419354839  35.5079787234043 1.04838709677419  35.5079787234043 1.04838709677419  C 35.5079787234043 1.04838709677419  35.0877659574468 2.30645161290323  35.0877659574468 2.30645161290323  C 35.0877659574468 2.30645161290323  36.3484042553192 1.88709677419355  36.3484042553192 1.88709677419355  C 36.3484042553192 1.88709677419355  40.1303191489362 4.40322580645161  40.1303191489362 4.40322580645161  C 40.1303191489362 4.40322580645161  41.811170212766 3.98387096774194  41.811170212766 3.98387096774194  C 41.811170212766 3.98387096774194  41.811170212766 3.14516129032258  41.811170212766 3.14516129032258  C 41.811170212766 3.14516129032258  44.7526595744681 3.14516129032258  44.7526595744681 3.14516129032258  C 44.7526595744681 3.14516129032258  44.3324468085106 2.7258064516129  44.3324468085106 2.7258064516129  C 44.3324468085106 2.7258064516129  45.593085106383 2.30645161290323  45.593085106383 2.30645161290323  C 45.593085106383 2.30645161290323  45.593085106383 1.04838709677419  45.593085106383 1.04838709677419  C 45.593085106383 1.04838709677419  46.4335106382979 0.629032258064516  46.4335106382979 0.629032258064516  C 46.4335106382979 0.629032258064516  48.1143617021277 1.04838709677419  48.1143617021277 1.04838709677419  Z " fill-rule="nonzero" fill="#ffffff" stroke="none" fill-opacity="0" transform="matrix(1 0 0 1 174 893 )" />
    <path d="M 48.1143617021277 1.04838709677419  C 48.1143617021277 1.04838709677419  49.375 1.46774193548387  49.375 1.46774193548387  C 49.375 1.46774193548387  50.2154255319149 2.30645161290323  50.2154255319149 2.30645161290323  C 50.2154255319149 2.30645161290323  49.375 2.7258064516129  49.375 2.7258064516129  C 49.375 2.7258064516129  52.3164893617021 7.75806451612903  52.3164893617021 7.75806451612903  C 52.3164893617021 7.75806451612903  53.5771276595745 6.91935483870968  53.5771276595745 6.91935483870968  C 53.5771276595745 6.91935483870968  53.9973404255319 7.75806451612903  53.9973404255319 7.75806451612903  C 53.9973404255319 7.75806451612903  55.6781914893617 6.91935483870968  55.6781914893617 6.91935483870968  C 55.6781914893617 6.91935483870968  58.6196808510638 11.1129032258065  58.6196808510638 11.1129032258065  C 58.6196808510638 11.1129032258065  53.5771276595745 12.3709677419355  53.5771276595745 12.3709677419355  C 53.5771276595745 12.3709677419355  50.2154255319149 14.4677419354839  50.2154255319149 14.4677419354839  C 50.2154255319149 14.4677419354839  48.1143617021277 17.8225806451613  48.1143617021277 17.8225806451613  C 48.1143617021277 17.8225806451613  49.7952127659575 18.241935483871  49.7952127659575 18.241935483871  C 49.7952127659575 18.241935483871  48.9547872340425 18.6612903225806  48.9547872340425 18.6612903225806  C 48.9547872340425 18.6612903225806  49.7952127659575 22.0161290322581  49.7952127659575 22.0161290322581  C 49.7952127659575 22.0161290322581  48.1143617021277 23.2741935483871  48.1143617021277 23.2741935483871  C 48.1143617021277 23.2741935483871  48.9547872340425 23.2741935483871  48.9547872340425 23.2741935483871  C 48.9547872340425 23.2741935483871  48.5345744680851 23.6935483870968  48.5345744680851 23.6935483870968  C 48.5345744680851 23.6935483870968  49.375 24.1129032258065  49.375 24.1129032258065  C 49.375 24.1129032258065  51.0558510638298 23.2741935483871  51.0558510638298 23.2741935483871  C 51.0558510638298 23.2741935483871  55.2579787234043 23.6935483870968  55.2579787234043 23.6935483870968  C 55.2579787234043 23.6935483870968  55.2579787234043 24.5322580645161  55.2579787234043 24.5322580645161  C 55.2579787234043 24.5322580645161  56.0984042553192 24.5322580645161  56.0984042553192 24.5322580645161  C 56.0984042553192 24.5322580645161  56.5186170212766 23.6935483870968  56.5186170212766 23.6935483870968  C 56.5186170212766 23.6935483870968  59.0398936170213 24.1129032258065  59.0398936170213 24.1129032258065  C 59.0398936170213 24.1129032258065  61.9813829787234 21.1774193548387  61.9813829787234 21.1774193548387  C 61.9813829787234 21.1774193548387  63.6622340425532 20.758064516129  63.6622340425532 20.758064516129  C 63.6622340425532 20.758064516129  64.0824468085106 22.0161290322581  64.0824468085106 22.0161290322581  C 64.0824468085106 22.0161290322581  64.9228723404255 21.5967741935484  64.9228723404255 21.5967741935484  C 64.9228723404255 21.5967741935484  66.1835106382979 24.5322580645161  66.1835106382979 24.5322580645161  C 66.1835106382979 24.5322580645161  67.4441489361702 24.5322580645161  67.4441489361702 24.5322580645161  C 67.4441489361702 24.5322580645161  67.4441489361702 25.7903225806452  67.4441489361702 25.7903225806452  C 67.4441489361702 25.7903225806452  66.6037234042553 25.7903225806452  66.6037234042553 25.7903225806452  C 66.6037234042553 25.7903225806452  66.6037234042553 27.4677419354839  66.6037234042553 27.4677419354839  C 66.6037234042553 27.4677419354839  67.4441489361702 27.4677419354839  67.4441489361702 27.4677419354839  C 67.4441489361702 27.4677419354839  67.0239361702128 28.7258064516129  67.0239361702128 28.7258064516129  C 67.0239361702128 28.7258064516129  69.5452127659574 29.1451612903226  69.5452127659574 29.1451612903226  C 69.5452127659574 29.1451612903226  69.9654255319149 31.241935483871  69.9654255319149 31.241935483871  C 69.9654255319149 31.241935483871  73.7473404255319 30.8225806451613  73.7473404255319 30.8225806451613  C 73.7473404255319 30.8225806451613  75.4281914893617 31.6612903225806  75.4281914893617 31.6612903225806  C 75.4281914893617 31.6612903225806  75.0079787234043 36.2741935483871  75.0079787234043 36.2741935483871  C 75.0079787234043 36.2741935483871  76.2686170212766 38.3709677419355  76.2686170212766 38.3709677419355  C 76.2686170212766 38.3709677419355  78.3696808510638 38.3709677419355  78.3696808510638 38.3709677419355  C 78.3696808510638 38.3709677419355  78.3696808510638 41.7258064516129  78.3696808510638 41.7258064516129  C 78.3696808510638 41.7258064516129  76.2686170212766 42.9838709677419  76.2686170212766 42.9838709677419  C 76.2686170212766 42.9838709677419  74.5877659574468 42.5645161290323  74.5877659574468 42.5645161290323  C 74.5877659574468 42.5645161290323  75.0079787234043 44.6612903225806  75.0079787234043 44.6612903225806  C 75.0079787234043 44.6612903225806  77.5292553191489 45.9193548387097  77.5292553191489 45.9193548387097  C 77.5292553191489 45.9193548387097  78.7898936170213 48.0161290322581  78.7898936170213 48.0161290322581  C 78.7898936170213 48.0161290322581  75.4281914893617 48.8548387096774  75.4281914893617 48.8548387096774  C 75.4281914893617 48.8548387096774  74.5877659574468 48.4354838709677  74.5877659574468 48.4354838709677  C 74.5877659574468 48.4354838709677  73.7473404255319 46.3387096774194  73.7473404255319 46.3387096774194  C 73.7473404255319 46.3387096774194  72.906914893617 46.758064516129  72.906914893617 46.758064516129  C 72.906914893617 46.758064516129  68.7047872340426 45.5  68.7047872340426 45.5  C 68.7047872340426 45.5  67.8643617021277 45.9193548387097  67.8643617021277 45.9193548387097  C 67.8643617021277 45.9193548387097  68.2845744680851 46.3387096774194  68.2845744680851 46.3387096774194  C 68.2845744680851 46.3387096774194  66.6037234042553 46.758064516129  66.6037234042553 46.758064516129  C 66.6037234042553 46.758064516129  64.9228723404255 45.5  64.9228723404255 45.5  C 64.9228723404255 45.5  64.9228723404255 46.758064516129  64.9228723404255 46.758064516129  C 64.9228723404255 46.758064516129  62.4015957446808 46.3387096774194  62.4015957446808 46.3387096774194  C 62.4015957446808 46.3387096774194  61.9813829787234 43.8225806451613  61.9813829787234 43.8225806451613  C 61.9813829787234 43.8225806451613  60.7207446808511 42.5645161290323  60.7207446808511 42.5645161290323  C 60.7207446808511 42.5645161290323  60.7207446808511 41.7258064516129  60.7207446808511 41.7258064516129  C 60.7207446808511 41.7258064516129  58.1994680851064 42.9838709677419  58.1994680851064 42.9838709677419  C 58.1994680851064 42.9838709677419  56.0984042553192 42.1451612903226  56.0984042553192 42.1451612903226  C 56.0984042553192 42.1451612903226  53.9973404255319 42.5645161290323  53.9973404255319 42.5645161290323  C 53.9973404255319 42.5645161290323  54.8377659574468 44.241935483871  54.8377659574468 44.241935483871  C 54.8377659574468 44.241935483871  53.9973404255319 44.241935483871  53.9973404255319 44.241935483871  C 53.9973404255319 44.241935483871  54.4175531914894 45.9193548387097  54.4175531914894 45.9193548387097  C 54.4175531914894 45.9193548387097  52.7367021276596 46.3387096774194  52.7367021276596 46.3387096774194  C 52.7367021276596 46.3387096774194  51.4760638297872 47.5967741935484  51.4760638297872 47.5967741935484  C 51.4760638297872 47.5967741935484  50.6356382978723 47.1774193548387  50.6356382978723 47.1774193548387  C 50.6356382978723 47.1774193548387  50.6356382978723 45.9193548387097  50.6356382978723 45.9193548387097  C 50.6356382978723 45.9193548387097  50.6356382978723 48.0161290322581  50.6356382978723 48.0161290322581  C 50.6356382978723 48.0161290322581  47.6941489361702 47.1774193548387  47.6941489361702 47.1774193548387  C 47.6941489361702 47.1774193548387  47.2739361702128 50.9516129032258  47.2739361702128 50.9516129032258  C 47.2739361702128 50.9516129032258  48.1143617021277 50.9516129032258  48.1143617021277 50.9516129032258  C 48.1143617021277 50.9516129032258  48.1143617021277 51.7903225806452  48.1143617021277 51.7903225806452  C 48.1143617021277 51.7903225806452  46.8537234042553 53.4677419354839  46.8537234042553 53.4677419354839  C 46.8537234042553 53.4677419354839  46.0132978723404 53.4677419354839  46.0132978723404 53.4677419354839  C 46.0132978723404 53.4677419354839  45.1728723404255 56.4032258064516  45.1728723404255 56.4032258064516  C 45.1728723404255 56.4032258064516  39.7101063829787 55.5645161290323  39.7101063829787 55.5645161290323  C 39.7101063829787 55.5645161290323  40.5505319148936 59.3387096774194  40.5505319148936 59.3387096774194  C 40.5505319148936 59.3387096774194  38.0292553191489 60.1774193548387  38.0292553191489 60.1774193548387  C 38.0292553191489 60.1774193548387  38.0292553191489 61.0161290322581  38.0292553191489 61.0161290322581  C 38.0292553191489 61.0161290322581  33.8271276595745 61.0161290322581  33.8271276595745 61.0161290322581  C 33.8271276595745 61.0161290322581  35.0877659574468 64.3709677419355  35.0877659574468 64.3709677419355  C 35.0877659574468 64.3709677419355  32.1462765957447 64.3709677419355  32.1462765957447 64.3709677419355  C 32.1462765957447 64.3709677419355  32.1462765957447 61.8548387096774  32.1462765957447 61.8548387096774  C 32.1462765957447 61.8548387096774  28.7845744680851 61.0161290322581  28.7845744680851 61.0161290322581  C 28.7845744680851 61.0161290322581  28.7845744680851 63.5322580645161  28.7845744680851 63.5322580645161  C 28.7845744680851 63.5322580645161  29.625 63.9516129032258  29.625 63.9516129032258  C 29.625 63.9516129032258  29.625 64.7903225806452  29.625 64.7903225806452  C 29.625 64.7903225806452  31.3058510638298 65.2096774193548  31.3058510638298 65.2096774193548  C 31.3058510638298 65.2096774193548  31.7260638297872 67.3064516129032  31.7260638297872 67.3064516129032  C 31.7260638297872 67.3064516129032  30.0452127659574 69.4032258064516  30.0452127659574 69.4032258064516  C 30.0452127659574 69.4032258064516  32.5664893617021 68.9838709677419  32.5664893617021 68.9838709677419  C 32.5664893617021 68.9838709677419  32.5664893617021 71.0806451612903  32.5664893617021 71.0806451612903  C 32.5664893617021 71.0806451612903  33.8271276595745 69.8225806451613  33.8271276595745 69.8225806451613  C 33.8271276595745 69.8225806451613  35.0877659574468 69.8225806451613  35.0877659574468 69.8225806451613  C 35.0877659574468 69.8225806451613  36.7686170212766 74.8548387096774  36.7686170212766 74.8548387096774  C 36.7686170212766 74.8548387096774  35.9281914893617 76.5322580645161  35.9281914893617 76.5322580645161  C 35.9281914893617 76.5322580645161  33.406914893617 77.7903225806452  33.406914893617 77.7903225806452  C 33.406914893617 77.7903225806452  29.625 76.1129032258064  29.625 76.1129032258064  C 29.625 76.1129032258064  23.3218085106383 76.1129032258064  23.3218085106383 76.1129032258064  C 23.3218085106383 76.1129032258064  22.4813829787234 75.2741935483871  22.4813829787234 75.2741935483871  C 22.4813829787234 75.2741935483871  18.2792553191489 74.8548387096774  18.2792553191489 74.8548387096774  C 18.2792553191489 74.8548387096774  16.1781914893617 72.758064516129  16.1781914893617 72.758064516129  C 16.1781914893617 72.758064516129  16.1781914893617 71.5  16.1781914893617 71.5  C 16.1781914893617 71.5  13.656914893617 68.5645161290323  13.656914893617 68.5645161290323  C 13.656914893617 68.5645161290323  10.2952127659574 67.7258064516129  10.2952127659574 67.7258064516129  C 10.2952127659574 67.7258064516129  9.875 68.1451612903226  9.875 68.1451612903226  C 9.875 68.1451612903226  9.45478723404255 67.3064516129032  9.45478723404255 67.3064516129032  C 9.45478723404255 67.3064516129032  6.51329787234043 66.4677419354839  6.51329787234043 66.4677419354839  C 6.51329787234043 66.4677419354839  6.51329787234043 65.2096774193548  6.51329787234043 65.2096774193548  C 6.51329787234043 65.2096774193548  4.83244680851064 63.5322580645161  4.83244680851064 63.5322580645161  C 4.83244680851064 63.5322580645161  4.41223404255319 61.4354838709677  4.41223404255319 61.4354838709677  C 4.41223404255319 61.4354838709677  5.25265957446809 60.5967741935484  5.25265957446809 60.5967741935484  C 5.25265957446809 60.5967741935484  4.41223404255319 55.9838709677419  4.41223404255319 55.9838709677419  C 4.41223404255319 55.9838709677419  4.83244680851064 55.1451612903226  4.83244680851064 55.1451612903226  C 4.83244680851064 55.1451612903226  3.99202127659574 53.8870967741936  3.99202127659574 53.8870967741936  C 3.99202127659574 53.8870967741936  3.15159574468085 53.8870967741936  3.15159574468085 53.8870967741936  C 3.15159574468085 53.8870967741936  3.15159574468085 53.0483870967742  3.15159574468085 53.0483870967742  C 3.15159574468085 53.0483870967742  1.89095744680851 53.0483870967742  1.89095744680851 53.0483870967742  C 1.89095744680851 53.0483870967742  1.05053191489362 50.9516129032258  1.05053191489362 50.9516129032258  C 1.05053191489362 50.9516129032258  1.89095744680851 48.0161290322581  1.89095744680851 48.0161290322581  C 1.89095744680851 48.0161290322581  1.05053191489362 48.0161290322581  1.05053191489362 48.0161290322581  C 1.05053191489362 48.0161290322581  1.47074468085106 47.1774193548387  1.47074468085106 47.1774193548387  C 1.47074468085106 47.1774193548387  0.63031914893617 45.0806451612903  0.63031914893617 45.0806451612903  C 0.63031914893617 45.0806451612903  0.210106382978723 35.8548387096774  0.210106382978723 35.8548387096774  C 0.210106382978723 35.8548387096774  1.47074468085106 33.3387096774194  1.47074468085106 33.3387096774194  C 1.47074468085106 33.3387096774194  1.05053191489362 30.8225806451613  1.05053191489362 30.8225806451613  C 1.05053191489362 30.8225806451613  3.15159574468085 25.7903225806452  3.15159574468085 25.7903225806452  C 3.15159574468085 25.7903225806452  3.15159574468085 23.6935483870968  3.15159574468085 23.6935483870968  C 3.15159574468085 23.6935483870968  4.83244680851064 22.8548387096774  4.83244680851064 22.8548387096774  C 4.83244680851064 22.8548387096774  5.25265957446809 20.758064516129  5.25265957446809 20.758064516129  C 5.25265957446809 20.758064516129  4.41223404255319 18.241935483871  4.41223404255319 18.241935483871  C 4.41223404255319 18.241935483871  5.67287234042553 16.5645161290323  5.67287234042553 16.5645161290323  C 5.67287234042553 16.5645161290323  6.09308510638298 13.6290322580645  6.09308510638298 13.6290322580645  C 6.09308510638298 13.6290322580645  5.67287234042553 7.75806451612903  5.67287234042553 7.75806451612903  C 5.67287234042553 7.75806451612903  6.93351063829787 6.91935483870968  6.93351063829787 6.91935483870968  C 6.93351063829787 6.91935483870968  7.35372340425532 7.75806451612903  7.35372340425532 7.75806451612903  C 7.35372340425532 7.75806451612903  11.1356382978723 6.5  11.1356382978723 6.5  C 11.1356382978723 6.5  11.5558510638298 7.33870967741936  11.5558510638298 7.33870967741936  C 11.5558510638298 7.33870967741936  12.3962765957447 7.33870967741936  12.3962765957447 7.33870967741936  C 12.3962765957447 7.33870967741936  11.5558510638298 7.75806451612903  11.5558510638298 7.75806451612903  C 11.5558510638298 7.75806451612903  12.3962765957447 8.17741935483871  12.3962765957447 8.17741935483871  C 12.3962765957447 8.17741935483871  13.2367021276596 11.5322580645161  13.2367021276596 11.5322580645161  C 13.2367021276596 11.5322580645161  14.0771276595745 12.3709677419355  14.0771276595745 12.3709677419355  C 14.0771276595745 12.3709677419355  17.438829787234 6.08064516129032  17.438829787234 6.08064516129032  C 17.438829787234 6.08064516129032  19.1196808510638 6.08064516129032  19.1196808510638 6.08064516129032  C 19.1196808510638 6.08064516129032  19.5398936170213 4.82258064516129  19.5398936170213 4.82258064516129  C 19.5398936170213 4.82258064516129  21.6409574468085 5.24193548387097  21.6409574468085 5.24193548387097  C 21.6409574468085 5.24193548387097  21.6409574468085 6.5  21.6409574468085 6.5  C 21.6409574468085 6.5  23.3218085106383 6.5  23.3218085106383 6.5  C 23.3218085106383 6.5  23.3218085106383 9.43548387096774  23.3218085106383 9.43548387096774  C 23.3218085106383 9.43548387096774  25.0026595744681 9.43548387096774  25.0026595744681 9.43548387096774  C 25.0026595744681 9.43548387096774  25.0026595744681 10.6935483870968  25.0026595744681 10.6935483870968  C 25.0026595744681 10.6935483870968  27.1037234042553 10.2741935483871  27.1037234042553 10.2741935483871  C 27.1037234042553 10.2741935483871  27.1037234042553 13.2096774193548  27.1037234042553 13.2096774193548  C 27.1037234042553 13.2096774193548  28.3643617021277 13.2096774193548  28.3643617021277 13.2096774193548  C 28.3643617021277 13.2096774193548  27.5239361702128 9.01612903225806  27.5239361702128 9.01612903225806  C 27.5239361702128 9.01612903225806  31.3058510638298 9.01612903225806  31.3058510638298 9.01612903225806  C 31.3058510638298 9.01612903225806  31.7260638297872 7.75806451612903  31.7260638297872 7.75806451612903  C 31.7260638297872 7.75806451612903  32.9867021276596 7.75806451612903  32.9867021276596 7.75806451612903  C 32.9867021276596 7.75806451612903  32.9867021276596 5.66129032258065  32.9867021276596 5.66129032258065  C 32.9867021276596 5.66129032258065  32.1462765957447 5.66129032258065  32.1462765957447 5.66129032258065  C 32.1462765957447 5.66129032258065  31.7260638297872 4.40322580645161  31.7260638297872 4.40322580645161  C 31.7260638297872 4.40322580645161  30.0452127659574 4.40322580645161  30.0452127659574 4.40322580645161  C 30.0452127659574 4.40322580645161  30.0452127659574 3.14516129032258  30.0452127659574 3.14516129032258  C 30.0452127659574 3.14516129032258  31.3058510638298 3.56451612903226  31.3058510638298 3.56451612903226  C 31.3058510638298 3.56451612903226  31.3058510638298 1.88709677419355  31.3058510638298 1.88709677419355  C 31.3058510638298 1.88709677419355  30.4654255319149 1.88709677419355  30.4654255319149 1.88709677419355  C 30.4654255319149 1.88709677419355  30.8856382978723 0.629032258064516  30.8856382978723 0.629032258064516  C 30.8856382978723 0.629032258064516  31.3058510638298 1.04838709677419  31.3058510638298 1.04838709677419  C 31.3058510638298 1.04838709677419  32.1462765957447 0.209677419354839  32.1462765957447 0.209677419354839  C 32.1462765957447 0.209677419354839  35.5079787234043 1.04838709677419  35.5079787234043 1.04838709677419  C 35.5079787234043 1.04838709677419  35.0877659574468 2.30645161290323  35.0877659574468 2.30645161290323  C 35.0877659574468 2.30645161290323  36.3484042553192 1.88709677419355  36.3484042553192 1.88709677419355  C 36.3484042553192 1.88709677419355  40.1303191489362 4.40322580645161  40.1303191489362 4.40322580645161  C 40.1303191489362 4.40322580645161  41.811170212766 3.98387096774194  41.811170212766 3.98387096774194  C 41.811170212766 3.98387096774194  41.811170212766 3.14516129032258  41.811170212766 3.14516129032258  C 41.811170212766 3.14516129032258  44.7526595744681 3.14516129032258  44.7526595744681 3.14516129032258  C 44.7526595744681 3.14516129032258  44.3324468085106 2.7258064516129  44.3324468085106 2.7258064516129  C 44.3324468085106 2.7258064516129  45.593085106383 2.30645161290323  45.593085106383 2.30645161290323  C 45.593085106383 2.30645161290323  45.593085106383 1.04838709677419  45.593085106383 1.04838709677419  C 45.593085106383 1.04838709677419  46.4335106382979 0.629032258064516  46.4335106382979 0.629032258064516  C 46.4335106382979 0.629032258064516  48.1143617021277 1.04838709677419  48.1143617021277 1.04838709677419  Z " stroke-width="2" stroke-dasharray="1,1" stroke="#999999" fill="none" transform="matrix(1 0 0 1 174 893 )" mask="url(#clip35)" />
  </g>
</svg>