<?xml version="1.0" encoding="utf-8"?>
<svg version="1.1" xmlns:xlink="http://www.w3.org/1999/xlink" width="94px" height="167px" xmlns="http://www.w3.org/2000/svg">
  <defs>
    <mask fill="white" id="clip36">
      <path d="M 1.48868778280543 134.981203007519  C 1.48868778280543 134.981203007519  1.06334841628959 134.981203007519  1.06334841628959 134.981203007519  C 1.06334841628959 134.981203007519  0.212669683257919 134.144110275689  0.212669683257919 134.144110275689  C 0.212669683257919 134.144110275689  1.06334841628959 132.888471177945  1.06334841628959 132.888471177945  C 1.06334841628959 132.888471177945  0.638009049773756 130.795739348371  0.638009049773756 130.795739348371  C 0.638009049773756 130.795739348371  1.91402714932127 129.540100250627  1.91402714932127 129.540100250627  C 1.91402714932127 129.540100250627  1.91402714932127 127.447368421053  1.91402714932127 127.447368421053  C 1.91402714932127 127.447368421053  1.06334841628959 126.191729323308  1.06334841628959 126.191729323308  C 1.06334841628959 126.191729323308  1.48868778280543 122.84335839599  1.48868778280543 122.84335839599  C 1.48868778280543 122.84335839599  2.76470588235294 122.00626566416  2.76470588235294 122.00626566416  C 2.76470588235294 122.00626566416  3.61538461538462 120.332080200501  3.61538461538462 120.332080200501  C 3.61538461538462 120.332080200501  2.76470588235294 119.913533834586  2.76470588235294 119.913533834586  C 2.76470588235294 119.913533834586  1.48868778280543 116.565162907268  1.48868778280543 116.565162907268  C 1.48868778280543 116.565162907268  3.19004524886878 116.146616541353  3.19004524886878 116.146616541353  C 3.19004524886878 116.146616541353  6.16742081447964 113.635338345865  6.16742081447964 113.635338345865  C 6.16742081447964 113.635338345865  13.3981900452489 113.21679197995  13.3981900452489 113.21679197995  C 13.3981900452489 113.21679197995  14.6742081447964 114.053884711779  14.6742081447964 114.053884711779  C 14.6742081447964 114.053884711779  14.6742081447964 116.146616541353  14.6742081447964 116.146616541353  C 14.6742081447964 116.146616541353  17.2262443438914 119.076441102757  17.2262443438914 119.076441102757  C 17.2262443438914 119.076441102757  18.9276018099548 116.983709273183  18.9276018099548 116.983709273183  C 18.9276018099548 116.983709273183  23.1809954751131 117.820802005013  23.1809954751131 117.820802005013  C 23.1809954751131 117.820802005013  24.8823529411765 116.983709273183  24.8823529411765 116.983709273183  C 24.8823529411765 116.983709273183  26.5837104072398 117.402255639098  26.5837104072398 117.402255639098  C 26.5837104072398 117.402255639098  27.0090497737557 115.728070175439  27.0090497737557 115.728070175439  C 27.0090497737557 115.728070175439  32.5384615384615 117.402255639098  32.5384615384615 117.402255639098  C 32.5384615384615 117.402255639098  34.6651583710407 116.983709273183  34.6651583710407 116.983709273183  C 34.6651583710407 116.983709273183  36.3665158371041 115.309523809524  36.3665158371041 115.309523809524  C 36.3665158371041 115.309523809524  36.3665158371041 114.053884711779  36.3665158371041 114.053884711779  C 36.3665158371041 114.053884711779  33.3891402714932 109.868421052632  33.3891402714932 109.868421052632  C 33.3891402714932 109.868421052632  29.9864253393665 110.705513784461  29.9864253393665 110.705513784461  C 29.9864253393665 110.705513784461  28.2850678733032 109.868421052632  28.2850678733032 109.868421052632  C 28.2850678733032 109.868421052632  27.4343891402715 108.612781954887  27.4343891402715 108.612781954887  C 27.4343891402715 108.612781954887  30.4117647058824 105.264411027569  30.4117647058824 105.264411027569  C 30.4117647058824 105.264411027569  31.262443438914 102.75313283208  31.262443438914 102.75313283208  C 31.262443438914 102.75313283208  32.9638009049774 102.334586466165  32.9638009049774 102.334586466165  C 32.9638009049774 102.334586466165  36.3665158371041 97.312030075188  36.3665158371041 97.312030075188  C 36.3665158371041 97.312030075188  37.6425339366516 96.8934837092732  37.6425339366516 96.8934837092732  C 37.6425339366516 96.8934837092732  38.9185520361991 93.5451127819549  38.9185520361991 93.5451127819549  C 38.9185520361991 93.5451127819549  38.4932126696833 92.2894736842105  38.4932126696833 92.2894736842105  C 38.4932126696833 92.2894736842105  39.7692307692308 88.1040100250627  39.7692307692308 88.1040100250627  C 39.7692307692308 88.1040100250627  44.0226244343891 88.1040100250627  44.0226244343891 88.1040100250627  C 44.0226244343891 88.1040100250627  44.8733031674208 86.8483709273183  44.8733031674208 86.8483709273183  C 44.8733031674208 86.8483709273183  44.8733031674208 86.0112781954887  44.8733031674208 86.0112781954887  C 44.8733031674208 86.0112781954887  43.5972850678733 86.0112781954887  43.5972850678733 86.0112781954887  C 43.5972850678733 86.0112781954887  39.7692307692308 81.8258145363409  39.7692307692308 81.8258145363409  C 39.7692307692308 81.8258145363409  38.0678733031674 82.2443609022556  38.0678733031674 82.2443609022556  C 38.0678733031674 82.2443609022556  36.3665158371041 80.5701754385965  36.3665158371041 80.5701754385965  C 36.3665158371041 80.5701754385965  36.7918552036199 80.1516290726817  36.7918552036199 80.1516290726817  C 36.7918552036199 80.1516290726817  35.5158371040724 78.4774436090226  35.5158371040724 78.4774436090226  C 35.5158371040724 78.4774436090226  33.814479638009 78.8959899749374  33.814479638009 78.8959899749374  C 33.814479638009 78.8959899749374  30.8371040723982 77.2218045112782  30.8371040723982 77.2218045112782  C 30.8371040723982 77.2218045112782  31.6877828054299 74.7105263157895  31.6877828054299 74.7105263157895  C 31.6877828054299 74.7105263157895  32.9638009049774 73.4548872180451  32.9638009049774 73.4548872180451  C 32.9638009049774 73.4548872180451  33.814479638009 73.4548872180451  33.814479638009 73.4548872180451  C 33.814479638009 73.4548872180451  33.814479638009 71.3621553884712  33.814479638009 71.3621553884712  C 33.814479638009 71.3621553884712  34.6651583710407 70.5250626566416  34.6651583710407 70.5250626566416  C 34.6651583710407 70.5250626566416  33.814479638009 69.687969924812  33.814479638009 69.687969924812  C 33.814479638009 69.687969924812  35.0904977375566 67.5952380952381  35.0904977375566 67.5952380952381  C 35.0904977375566 67.5952380952381  35.5158371040724 64.6654135338346  35.5158371040724 64.6654135338346  C 35.5158371040724 64.6654135338346  33.814479638009 63.4097744360902  33.814479638009 63.4097744360902  C 33.814479638009 63.4097744360902  33.3891402714932 60.4799498746867  33.3891402714932 60.4799498746867  C 33.3891402714932 60.4799498746867  32.9638009049774 60.8984962406015  32.9638009049774 60.8984962406015  C 32.9638009049774 60.8984962406015  30.4117647058824 58.3872180451128  30.4117647058824 58.3872180451128  C 30.4117647058824 58.3872180451128  28.2850678733032 58.3872180451128  28.2850678733032 58.3872180451128  C 28.2850678733032 58.3872180451128  27.0090497737557 52.9461152882206  27.0090497737557 52.9461152882206  C 27.0090497737557 52.9461152882206  26.158371040724 53.3646616541353  26.158371040724 53.3646616541353  C 26.158371040724 53.3646616541353  23.606334841629 48.7606516290727  23.606334841629 48.7606516290727  C 23.606334841629 48.7606516290727  21.4796380090498 48.3421052631579  21.4796380090498 48.3421052631579  C 21.4796380090498 48.3421052631579  18.9276018099548 46.249373433584  18.9276018099548 46.249373433584  C 18.9276018099548 46.249373433584  18.0769230769231 42.4824561403509  18.0769230769231 42.4824561403509  C 18.0769230769231 42.4824561403509  16.8009049773756 41.6453634085213  16.8009049773756 41.6453634085213  C 16.8009049773756 41.6453634085213  16.3755656108597 40.3897243107769  16.3755656108597 40.3897243107769  C 16.3755656108597 40.3897243107769  15.0995475113122 39.9711779448622  15.0995475113122 39.9711779448622  C 15.0995475113122 39.9711779448622  14.2488687782805 38.296992481203  14.2488687782805 38.296992481203  C 14.2488687782805 38.296992481203  12.972850678733 37.4598997493734  12.972850678733 37.4598997493734  C 12.972850678733 37.4598997493734  12.972850678733 36.6228070175439  12.972850678733 36.6228070175439  C 12.972850678733 36.6228070175439  7.86877828054299 31.6002506265664  7.86877828054299 31.6002506265664  C 7.86877828054299 31.6002506265664  7.86877828054299 28.2518796992481  7.86877828054299 28.2518796992481  C 7.86877828054299 28.2518796992481  8.71945701357466 26.577694235589  8.71945701357466 26.577694235589  C 8.71945701357466 26.577694235589  10.420814479638 25.3220551378446  10.420814479638 25.3220551378446  C 10.420814479638 25.3220551378446  11.6968325791855 25.3220551378446  11.6968325791855 25.3220551378446  C 11.6968325791855 25.3220551378446  13.3981900452489 23.6478696741855  13.3981900452489 23.6478696741855  C 13.3981900452489 23.6478696741855  15.0995475113122 25.3220551378446  15.0995475113122 25.3220551378446  C 15.0995475113122 25.3220551378446  15.5248868778281 28.2518796992481  15.5248868778281 28.2518796992481  C 15.5248868778281 28.2518796992481  17.6515837104072 30.3446115288221  17.6515837104072 30.3446115288221  C 17.6515837104072 30.3446115288221  17.6515837104072 31.6002506265664  17.6515837104072 31.6002506265664  C 17.6515837104072 31.6002506265664  18.9276018099548 31.6002506265664  18.9276018099548 31.6002506265664  C 18.9276018099548 31.6002506265664  20.2036199095023 32.8558897243108  20.2036199095023 32.8558897243108  C 20.2036199095023 32.8558897243108  21.0542986425339 32.0187969924812  21.0542986425339 32.0187969924812  C 21.0542986425339 32.0187969924812  22.7556561085973 32.0187969924812  22.7556561085973 32.0187969924812  C 22.7556561085973 32.0187969924812  23.606334841629 32.8558897243108  23.606334841629 32.8558897243108  C 23.606334841629 32.8558897243108  27.0090497737557 32.437343358396  27.0090497737557 32.437343358396  C 27.0090497737557 32.437343358396  27.8597285067873 33.2744360902256  27.8597285067873 33.2744360902256  C 27.8597285067873 33.2744360902256  29.5610859728507 33.2744360902256  29.5610859728507 33.2744360902256  C 29.5610859728507 33.2744360902256  29.5610859728507 28.6704260651629  29.5610859728507 28.6704260651629  C 29.5610859728507 28.6704260651629  28.2850678733032 26.1591478696742  28.2850678733032 26.1591478696742  C 28.2850678733032 26.1591478696742  27.4343891402715 26.1591478696742  27.4343891402715 26.1591478696742  C 27.4343891402715 26.1591478696742  27.8597285067873 25.7406015037594  27.8597285067873 25.7406015037594  C 27.8597285067873 25.7406015037594  26.5837104072398 22.8107769423559  26.5837104072398 22.8107769423559  C 26.5837104072398 22.8107769423559  25.3076923076923 21.9736842105263  25.3076923076923 21.9736842105263  C 25.3076923076923 21.9736842105263  26.5837104072398 16.5325814536341  26.5837104072398 16.5325814536341  C 26.5837104072398 16.5325814536341  27.8597285067873 15.6954887218045  27.8597285067873 15.6954887218045  C 27.8597285067873 15.6954887218045  29.5610859728507 16.9511278195489  29.5610859728507 16.9511278195489  C 29.5610859728507 16.9511278195489  31.262443438914 16.1140350877193  31.262443438914 16.1140350877193  C 31.262443438914 16.1140350877193  32.5384615384615 16.9511278195489  32.5384615384615 16.9511278195489  C 32.5384615384615 16.9511278195489  35.9411764705882 17.3696741854637  35.9411764705882 17.3696741854637  C 35.9411764705882 17.3696741854637  36.3665158371041 16.1140350877193  36.3665158371041 16.1140350877193  C 36.3665158371041 16.1140350877193  40.1945701357466 14.4398496240601  40.1945701357466 14.4398496240601  C 40.1945701357466 14.4398496240601  42.7466063348416 14.8583959899749  42.7466063348416 14.8583959899749  C 42.7466063348416 14.8583959899749  43.1719457013575 13.6027568922306  43.1719457013575 13.6027568922306  C 43.1719457013575 13.6027568922306  44.447963800905 14.0213032581454  44.447963800905 14.0213032581454  C 44.447963800905 14.0213032581454  47.8506787330317 17.3696741854637  47.8506787330317 17.3696741854637  C 47.8506787330317 17.3696741854637  49.1266968325792 17.3696741854637  49.1266968325792 17.3696741854637  C 49.1266968325792 17.3696741854637  51.6787330316742 15.6954887218045  51.6787330316742 15.6954887218045  C 51.6787330316742 15.6954887218045  51.6787330316742 11.9285714285714  51.6787330316742 11.9285714285714  C 51.6787330316742 11.9285714285714  52.9547511312217 8.16165413533835  52.9547511312217 8.16165413533835  C 52.9547511312217 8.16165413533835  51.6787330316742 5.23182957393484  51.6787330316742 5.23182957393484  C 51.6787330316742 5.23182957393484  52.10407239819 1.88345864661654  52.10407239819 1.88345864661654  C 52.10407239819 1.88345864661654  53.3800904977376 1.46491228070175  53.3800904977376 1.46491228070175  C 53.3800904977376 1.46491228070175  54.2307692307692 0.209273182957393  54.2307692307692 0.209273182957393  C 54.2307692307692 0.209273182957393  56.7828054298642 0.62781954887218  56.7828054298642 0.62781954887218  C 56.7828054298642 0.62781954887218  59.7601809954751 3.1390977443609  59.7601809954751 3.1390977443609  C 59.7601809954751 3.1390977443609  61.4615384615385 3.97619047619048  61.4615384615385 3.97619047619048  C 61.4615384615385 3.97619047619048  63.1628959276018 3.55764411027569  63.1628959276018 3.55764411027569  C 63.1628959276018 3.55764411027569  63.5882352941177 4.39473684210526  63.5882352941177 4.39473684210526  C 63.5882352941177 4.39473684210526  64.8642533936652 8.16165413533835  64.8642533936652 8.16165413533835  C 64.8642533936652 8.16165413533835  63.5882352941177 11.0914786967419  63.5882352941177 11.0914786967419  C 63.5882352941177 11.0914786967419  62.3122171945701 12.3471177944862  62.3122171945701 12.3471177944862  C 62.3122171945701 12.3471177944862  62.737556561086 16.1140350877193  62.737556561086 16.1140350877193  C 62.737556561086 16.1140350877193  61.8868778280543 16.5325814536341  61.8868778280543 16.5325814536341  C 61.8868778280543 16.5325814536341  61.4615384615385 18.2067669172932  61.4615384615385 18.2067669172932  C 61.4615384615385 18.2067669172932  63.1628959276018 19.8809523809524  63.1628959276018 19.8809523809524  C 63.1628959276018 19.8809523809524  63.1628959276018 22.3922305764411  63.1628959276018 22.3922305764411  C 63.1628959276018 22.3922305764411  65.289592760181 24.484962406015  65.289592760181 24.484962406015  C 65.289592760181 24.484962406015  65.289592760181 25.3220551378446  65.289592760181 25.3220551378446  C 65.289592760181 25.3220551378446  66.9909502262444 25.7406015037594  66.9909502262444 25.7406015037594  C 66.9909502262444 25.7406015037594  66.9909502262444 26.577694235589  66.9909502262444 26.577694235589  C 66.9909502262444 26.577694235589  68.2669683257919 26.9962406015038  68.2669683257919 26.9962406015038  C 68.2669683257919 26.9962406015038  66.9909502262444 30.3446115288221  66.9909502262444 30.3446115288221  C 66.9909502262444 30.3446115288221  68.6923076923077 31.1817042606516  68.6923076923077 31.1817042606516  C 68.6923076923077 31.1817042606516  69.5429864253394 33.2744360902256  69.5429864253394 33.2744360902256  C 69.5429864253394 33.2744360902256  71.2443438914027 33.2744360902256  71.2443438914027 33.2744360902256  C 71.2443438914027 33.2744360902256  72.5203619909502 34.5300751879699  72.5203619909502 34.5300751879699  C 72.5203619909502 34.5300751879699  74.2217194570136 34.5300751879699  74.2217194570136 34.5300751879699  C 74.2217194570136 34.5300751879699  73.7963800904977 36.2042606516291  73.7963800904977 36.2042606516291  C 73.7963800904977 36.2042606516291  75.4977375565611 36.2042606516291  75.4977375565611 36.2042606516291  C 75.4977375565611 36.2042606516291  80.1764705882353 40.8082706766917  80.1764705882353 40.8082706766917  C 80.1764705882353 40.8082706766917  79.7511312217195 41.6453634085213  79.7511312217195 41.6453634085213  C 79.7511312217195 41.6453634085213  80.6018099547511 42.4824561403509  80.6018099547511 42.4824561403509  C 80.6018099547511 42.4824561403509  80.6018099547511 44.15664160401  80.6018099547511 44.15664160401  C 80.6018099547511 44.15664160401  81.4524886877828 44.5751879699248  81.4524886877828 44.5751879699248  C 81.4524886877828 44.5751879699248  82.7285067873303 42.9010025062657  82.7285067873303 42.9010025062657  C 82.7285067873303 42.9010025062657  83.579185520362 42.9010025062657  83.579185520362 42.9010025062657  C 83.579185520362 42.9010025062657  84.0045248868778 44.15664160401  84.0045248868778 44.15664160401  C 84.0045248868778 44.15664160401  89.1085972850679 45.8308270676692  89.1085972850679 45.8308270676692  C 89.1085972850679 45.8308270676692  89.9592760180996 47.5050125313283  89.9592760180996 47.5050125313283  C 89.9592760180996 47.5050125313283  92.0859728506787 48.3421052631579  92.0859728506787 48.3421052631579  C 92.0859728506787 48.3421052631579  93.3619909502262 50.016290726817  93.3619909502262 50.016290726817  C 93.3619909502262 50.016290726817  92.9366515837104 52.109022556391  92.9366515837104 52.109022556391  C 92.9366515837104 52.109022556391  93.7873303167421 52.5275689223058  93.7873303167421 52.5275689223058  C 93.7873303167421 52.5275689223058  92.5113122171946 53.3646616541353  92.5113122171946 53.3646616541353  C 92.5113122171946 53.3646616541353  91.6606334841629 52.9461152882206  91.6606334841629 52.9461152882206  C 91.6606334841629 52.9461152882206  91.6606334841629 53.7832080200501  91.6606334841629 53.7832080200501  C 91.6606334841629 53.7832080200501  89.9592760180996 54.2017543859649  89.9592760180996 54.2017543859649  C 89.9592760180996 54.2017543859649  90.8099547511312 55.8759398496241  90.8099547511312 55.8759398496241  C 90.8099547511312 55.8759398496241  88.2579185520362 57.1315789473684  88.2579185520362 57.1315789473684  C 88.2579185520362 57.1315789473684  88.2579185520362 57.968671679198  88.2579185520362 57.968671679198  C 88.2579185520362 57.968671679198  85.7058823529412 58.8057644110276  85.7058823529412 58.8057644110276  C 85.7058823529412 58.8057644110276  86.5565610859728 60.8984962406015  86.5565610859728 60.8984962406015  C 86.5565610859728 60.8984962406015  85.2805429864253 62.5726817042607  85.2805429864253 62.5726817042607  C 85.2805429864253 62.5726817042607  83.1538461538461 62.5726817042607  83.1538461538461 62.5726817042607  C 83.1538461538461 62.5726817042607  81.027149321267 63.828320802005  81.027149321267 63.828320802005  C 81.027149321267 63.828320802005  79.3257918552036 63.4097744360902  79.3257918552036 63.4097744360902  C 79.3257918552036 63.4097744360902  78.0497737556561 61.3170426065163  78.0497737556561 61.3170426065163  C 78.0497737556561 61.3170426065163  77.6244343891403 63.4097744360902  77.6244343891403 63.4097744360902  C 77.6244343891403 63.4097744360902  78.9004524886878 67.1766917293233  78.9004524886878 67.1766917293233  C 78.9004524886878 67.1766917293233  78.4751131221719 72.1992481203008  78.4751131221719 72.1992481203008  C 78.4751131221719 72.1992481203008  78.0497737556561 72.6177944862155  78.0497737556561 72.6177944862155  C 78.0497737556561 72.6177944862155  73.7963800904977 71.780701754386  73.7963800904977 71.780701754386  C 73.7963800904977 71.780701754386  71.6696832579186 73.8734335839599  71.6696832579186 73.8734335839599  C 71.6696832579186 73.8734335839599  68.6923076923077 75.1290726817043  68.6923076923077 75.1290726817043  C 68.6923076923077 75.1290726817043  68.6923076923077 75.9661654135338  68.6923076923077 75.9661654135338  C 68.6923076923077 75.9661654135338  67.4162895927602 76.8032581453634  67.4162895927602 76.8032581453634  C 67.4162895927602 76.8032581453634  66.5656108597285 80.5701754385965  66.5656108597285 80.5701754385965  C 66.5656108597285 80.5701754385965  66.9909502262444 85.1741854636591  66.9909502262444 85.1741854636591  C 66.9909502262444 85.1741854636591  65.289592760181 86.8483709273183  65.289592760181 86.8483709273183  C 65.289592760181 86.8483709273183  65.7149321266968 89.359649122807  65.7149321266968 89.359649122807  C 65.7149321266968 89.359649122807  65.289592760181 88.9411027568922  65.289592760181 88.9411027568922  C 65.289592760181 88.9411027568922  64.4389140271493 89.7781954887218  64.4389140271493 89.7781954887218  C 64.4389140271493 89.7781954887218  65.289592760181 91.0338345864662  65.289592760181 91.0338345864662  C 65.289592760181 91.0338345864662  66.1402714932127 91.0338345864662  66.1402714932127 91.0338345864662  C 66.1402714932127 91.0338345864662  65.7149321266968 92.7080200501253  65.7149321266968 92.7080200501253  C 65.7149321266968 92.7080200501253  66.5656108597285 93.5451127819549  66.5656108597285 93.5451127819549  C 66.5656108597285 93.5451127819549  66.1402714932127 94.3822055137845  66.1402714932127 94.3822055137845  C 66.1402714932127 94.3822055137845  66.9909502262444 99.4047619047619  66.9909502262444 99.4047619047619  C 66.9909502262444 99.4047619047619  64.8642533936652 100.660401002506  64.8642533936652 100.660401002506  C 64.8642533936652 100.660401002506  62.737556561086 100.660401002506  62.737556561086 100.660401002506  C 62.737556561086 100.660401002506  61.8868778280543 101.078947368421  61.8868778280543 101.078947368421  C 61.8868778280543 101.078947368421  62.3122171945701 101.916040100251  62.3122171945701 101.916040100251  C 62.3122171945701 101.916040100251  60.1855203619909 101.916040100251  60.1855203619909 101.916040100251  C 60.1855203619909 101.916040100251  59.7601809954751 102.75313283208  59.7601809954751 102.75313283208  C 59.7601809954751 102.75313283208  61.4615384615385 102.75313283208  61.4615384615385 102.75313283208  C 61.4615384615385 102.75313283208  62.3122171945701 103.59022556391  62.3122171945701 103.59022556391  C 62.3122171945701 103.59022556391  65.289592760181 104.427318295739  65.289592760181 104.427318295739  C 65.289592760181 104.427318295739  67.4162895927602 108.612781954887  67.4162895927602 108.612781954887  C 67.4162895927602 108.612781954887  65.289592760181 111.542606516291  65.289592760181 111.542606516291  C 65.289592760181 111.542606516291  64.8642533936652 114.890977443609  64.8642533936652 114.890977443609  C 64.8642533936652 114.890977443609  64.0135746606335 115.309523809524  64.0135746606335 115.309523809524  C 64.0135746606335 115.309523809524  64.0135746606335 116.565162907268  64.0135746606335 116.565162907268  C 64.0135746606335 116.565162907268  65.7149321266968 117.820802005013  65.7149321266968 117.820802005013  C 65.7149321266968 117.820802005013  64.0135746606335 116.983709273183  64.0135746606335 116.983709273183  C 64.0135746606335 116.983709273183  64.0135746606335 118.239348370927  64.0135746606335 118.239348370927  C 64.0135746606335 118.239348370927  64.4389140271493 120.332080200501  64.4389140271493 120.332080200501  C 64.4389140271493 120.332080200501  64.8642533936652 119.913533834586  64.8642533936652 119.913533834586  C 64.8642533936652 119.913533834586  65.7149321266968 121.587719298246  65.7149321266968 121.587719298246  C 65.7149321266968 121.587719298246  68.6923076923077 121.587719298246  68.6923076923077 121.587719298246  C 68.6923076923077 121.587719298246  67.841628959276 122.424812030075  67.841628959276 122.424812030075  C 67.841628959276 122.424812030075  67.841628959276 123.68045112782  67.841628959276 123.68045112782  C 67.841628959276 123.68045112782  69.1176470588235 124.936090225564  69.1176470588235 124.936090225564  C 69.1176470588235 124.936090225564  67.4162895927602 125.354636591479  67.4162895927602 125.354636591479  C 67.4162895927602 125.354636591479  68.6923076923077 126.610275689223  68.6923076923077 126.610275689223  C 68.6923076923077 126.610275689223  68.2669683257919 128.703007518797  68.2669683257919 128.703007518797  C 68.2669683257919 128.703007518797  68.6923076923077 129.958646616541  68.6923076923077 129.958646616541  C 68.6923076923077 129.958646616541  69.9683257918552 129.540100250627  69.9683257918552 129.540100250627  C 69.9683257918552 129.540100250627  71.2443438914027 130.377192982456  71.2443438914027 130.377192982456  C 71.2443438914027 130.377192982456  66.9909502262444 133.30701754386  66.9909502262444 133.30701754386  C 66.9909502262444 133.30701754386  66.5656108597285 136.236842105263  66.5656108597285 136.236842105263  C 66.5656108597285 136.236842105263  67.4162895927602 136.655388471178  67.4162895927602 136.655388471178  C 67.4162895927602 136.655388471178  66.1402714932127 137.911027568922  66.1402714932127 137.911027568922  C 66.1402714932127 137.911027568922  66.1402714932127 138.748120300752  66.1402714932127 138.748120300752  C 66.1402714932127 138.748120300752  67.841628959276 139.585213032581  67.841628959276 139.585213032581  C 67.841628959276 139.585213032581  67.841628959276 141.259398496241  67.841628959276 141.259398496241  C 67.841628959276 141.259398496241  69.1176470588235 141.259398496241  69.1176470588235 141.259398496241  C 69.1176470588235 141.259398496241  68.6923076923077 145.863408521303  68.6923076923077 145.863408521303  C 68.6923076923077 145.863408521303  71.6696832579186 145.863408521303  71.6696832579186 145.863408521303  C 71.6696832579186 145.863408521303  71.6696832579186 146.700501253133  71.6696832579186 146.700501253133  C 71.6696832579186 146.700501253133  73.7963800904977 146.700501253133  73.7963800904977 146.700501253133  C 73.7963800904977 146.700501253133  75.4977375565611 150.048872180451  75.4977375565611 150.048872180451  C 75.4977375565611 150.048872180451  76.3484162895928 150.467418546366  76.3484162895928 150.467418546366  C 76.3484162895928 150.467418546366  74.6470588235294 151.304511278195  74.6470588235294 151.304511278195  C 74.6470588235294 151.304511278195  73.7963800904977 152.978696741855  73.7963800904977 152.978696741855  C 73.7963800904977 152.978696741855  73.3710407239819 152.56015037594  73.3710407239819 152.56015037594  C 73.3710407239819 152.56015037594  70.8190045248869 156.745614035088  70.8190045248869 156.745614035088  C 70.8190045248869 156.745614035088  62.3122171945701 166.790726817043  62.3122171945701 166.790726817043  C 62.3122171945701 166.790726817043  61.4615384615385 166.790726817043  61.4615384615385 166.790726817043  C 61.4615384615385 166.790726817043  61.4615384615385 165.953634085213  61.4615384615385 165.953634085213  C 61.4615384615385 165.953634085213  60.1855203619909 166.372180451128  60.1855203619909 166.372180451128  C 60.1855203619909 166.372180451128  60.6108597285068 164.279448621554  60.6108597285068 164.279448621554  C 60.6108597285068 164.279448621554  59.7601809954751 160.931077694236  59.7601809954751 160.931077694236  C 59.7601809954751 160.931077694236  56.7828054298642 161.34962406015  56.7828054298642 161.34962406015  C 56.7828054298642 161.34962406015  55.9321266968326 162.18671679198  55.9321266968326 162.18671679198  C 55.9321266968326 162.18671679198  52.9547511312217 161.34962406015  52.9547511312217 161.34962406015  C 52.9547511312217 161.34962406015  52.9547511312217 163.02380952381  52.9547511312217 163.02380952381  C 52.9547511312217 163.02380952381  49.9773755656109 163.02380952381  49.9773755656109 163.02380952381  C 49.9773755656109 163.02380952381  49.552036199095 160.512531328321  49.552036199095 160.512531328321  C 49.552036199095 160.512531328321  47.8506787330317 160.512531328321  47.8506787330317 160.512531328321  C 47.8506787330317 160.512531328321  47.8506787330317 159.675438596491  47.8506787330317 159.675438596491  C 47.8506787330317 159.675438596491  44.447963800905 159.675438596491  44.447963800905 159.675438596491  C 44.447963800905 159.675438596491  43.5972850678733 158.001253132832  43.5972850678733 158.001253132832  C 43.5972850678733 158.001253132832  41.4705882352941 158.838345864662  41.4705882352941 158.838345864662  C 41.4705882352941 158.838345864662  39.3438914027149 158.001253132832  39.3438914027149 158.001253132832  C 39.3438914027149 158.001253132832  39.7692307692308 160.093984962406  39.7692307692308 160.093984962406  C 39.7692307692308 160.093984962406  38.9185520361991 161.34962406015  38.9185520361991 161.34962406015  C 38.9185520361991 161.34962406015  35.0904977375566 161.768170426065  35.0904977375566 161.768170426065  C 35.0904977375566 161.768170426065  31.262443438914 160.093984962406  31.262443438914 160.093984962406  C 31.262443438914 160.093984962406  31.262443438914 158.419799498747  31.262443438914 158.419799498747  C 31.262443438914 158.419799498747  30.4117647058824 157.582706766917  30.4117647058824 157.582706766917  C 30.4117647058824 157.582706766917  29.1357466063348 157.582706766917  29.1357466063348 157.582706766917  C 29.1357466063348 157.582706766917  27.4343891402715 155.908521303258  27.4343891402715 155.908521303258  C 27.4343891402715 155.908521303258  25.7330316742081 156.327067669173  25.7330316742081 156.327067669173  C 25.7330316742081 156.327067669173  26.158371040724 155.071428571429  26.158371040724 155.071428571429  C 26.158371040724 155.071428571429  24.8823529411765 152.978696741855  24.8823529411765 152.978696741855  C 24.8823529411765 152.978696741855  26.5837104072398 150.048872180451  26.5837104072398 150.048872180451  C 26.5837104072398 150.048872180451  24.8823529411765 148.793233082707  24.8823529411765 148.793233082707  C 24.8823529411765 148.793233082707  24.0316742081448 146.700501253133  24.0316742081448 146.700501253133  C 24.0316742081448 146.700501253133  23.1809954751131 147.537593984962  23.1809954751131 147.537593984962  C 23.1809954751131 147.537593984962  20.6289592760181 147.537593984962  20.6289592760181 147.537593984962  C 20.6289592760181 147.537593984962  19.3529411764706 146.700501253133  19.3529411764706 146.700501253133  C 19.3529411764706 146.700501253133  17.6515837104072 146.700501253133  17.6515837104072 146.700501253133  C 17.6515837104072 146.700501253133  16.8009049773756 145.863408521303  16.8009049773756 145.863408521303  C 16.8009049773756 145.863408521303  14.2488687782805 145.863408521303  14.2488687782805 145.863408521303  C 14.2488687782805 145.863408521303  14.2488687782805 146.700501253133  14.2488687782805 146.700501253133  C 14.2488687782805 146.700501253133  12.972850678733 147.119047619048  12.972850678733 147.119047619048  C 12.972850678733 147.119047619048  13.3981900452489 145.026315789474  13.3981900452489 145.026315789474  C 13.3981900452489 145.026315789474  12.5475113122172 143.770676691729  12.5475113122172 143.770676691729  C 12.5475113122172 143.770676691729  13.3981900452489 142.09649122807  13.3981900452489 142.09649122807  C 13.3981900452489 142.09649122807  9.99547511312217 142.09649122807  9.99547511312217 142.09649122807  C 9.99547511312217 142.09649122807  11.6968325791855 140.003759398496  11.6968325791855 140.003759398496  C 11.6968325791855 140.003759398496  11.2714932126697 139.166666666667  11.2714932126697 139.166666666667  C 11.2714932126697 139.166666666667  9.57013574660633 138.748120300752  9.57013574660633 138.748120300752  C 9.57013574660633 138.748120300752  4.46606334841629 135.399749373434  4.46606334841629 135.399749373434  C 4.46606334841629 135.399749373434  1.91402714932127 136.655388471178  1.91402714932127 136.655388471178  C 1.91402714932127 136.655388471178  1.48868778280543 134.981203007519  1.48868778280543 134.981203007519  Z " fill-rule="evenodd" />
    </mask>
  </defs>
  <g transform="matrix(1 0 0 1 -184 -647 )">
    <path d="M 1.48868778280543 134.981203007519  C 1.48868778280543 134.981203007519  1.06334841628959 134.981203007519  1.06334841628959 134.981203007519  C 1.06334841628959 134.981203007519  0.212669683257919 134.144110275689  0.212669683257919 134.144110275689  C 0.212669683257919 134.144110275689  1.06334841628959 132.888471177945  1.06334841628959 132.888471177945  C 1.06334841628959 132.888471177945  0.638009049773756 130.795739348371  0.638009049773756 130.795739348371  C 0.638009049773756 130.795739348371  1.91402714932127 129.540100250627  1.91402714932127 129.540100250627  C 1.91402714932127 129.540100250627  1.91402714932127 127.447368421053  1.91402714932127 127.447368421053  C 1.91402714932127 127.447368421053  1.06334841628959 126.191729323308  1.06334841628959 126.191729323308  C 1.06334841628959 126.191729323308  1.48868778280543 122.84335839599  1.48868778280543 122.84335839599  C 1.48868778280543 122.84335839599  2.76470588235294 122.00626566416  2.76470588235294 122.00626566416  C 2.76470588235294 122.00626566416  3.61538461538462 120.332080200501  3.61538461538462 120.332080200501  C 3.61538461538462 120.332080200501  2.76470588235294 119.913533834586  2.76470588235294 119.913533834586  C 2.76470588235294 119.913533834586  1.48868778280543 116.565162907268  1.48868778280543 116.565162907268  C 1.48868778280543 116.565162907268  3.19004524886878 116.146616541353  3.19004524886878 116.146616541353  C 3.19004524886878 116.146616541353  6.16742081447964 113.635338345865  6.16742081447964 113.635338345865  C 6.16742081447964 113.635338345865  13.3981900452489 113.21679197995  13.3981900452489 113.21679197995  C 13.3981900452489 113.21679197995  14.6742081447964 114.053884711779  14.6742081447964 114.053884711779  C 14.6742081447964 114.053884711779  14.6742081447964 116.146616541353  14.6742081447964 116.146616541353  C 14.6742081447964 116.146616541353  17.2262443438914 119.076441102757  17.2262443438914 119.076441102757  C 17.2262443438914 119.076441102757  18.9276018099548 116.983709273183  18.9276018099548 116.983709273183  C 18.9276018099548 116.983709273183  23.1809954751131 117.820802005013  23.1809954751131 117.820802005013  C 23.1809954751131 117.820802005013  24.8823529411765 116.983709273183  24.8823529411765 116.983709273183  C 24.8823529411765 116.983709273183  26.5837104072398 117.402255639098  26.5837104072398 117.402255639098  C 26.5837104072398 117.402255639098  27.0090497737557 115.728070175439  27.0090497737557 115.728070175439  C 27.0090497737557 115.728070175439  32.5384615384615 117.402255639098  32.5384615384615 117.402255639098  C 32.5384615384615 117.402255639098  34.6651583710407 116.983709273183  34.6651583710407 116.983709273183  C 34.6651583710407 116.983709273183  36.3665158371041 115.309523809524  36.3665158371041 115.309523809524  C 36.3665158371041 115.309523809524  36.3665158371041 114.053884711779  36.3665158371041 114.053884711779  C 36.3665158371041 114.053884711779  33.3891402714932 109.868421052632  33.3891402714932 109.868421052632  C 33.3891402714932 109.868421052632  29.9864253393665 110.705513784461  29.9864253393665 110.705513784461  C 29.9864253393665 110.705513784461  28.2850678733032 109.868421052632  28.2850678733032 109.868421052632  C 28.2850678733032 109.868421052632  27.4343891402715 108.612781954887  27.4343891402715 108.612781954887  C 27.4343891402715 108.612781954887  30.4117647058824 105.264411027569  30.4117647058824 105.264411027569  C 30.4117647058824 105.264411027569  31.262443438914 102.75313283208  31.262443438914 102.75313283208  C 31.262443438914 102.75313283208  32.9638009049774 102.334586466165  32.9638009049774 102.334586466165  C 32.9638009049774 102.334586466165  36.3665158371041 97.312030075188  36.3665158371041 97.312030075188  C 36.3665158371041 97.312030075188  37.6425339366516 96.8934837092732  37.6425339366516 96.8934837092732  C 37.6425339366516 96.8934837092732  38.9185520361991 93.5451127819549  38.9185520361991 93.5451127819549  C 38.9185520361991 93.5451127819549  38.4932126696833 92.2894736842105  38.4932126696833 92.2894736842105  C 38.4932126696833 92.2894736842105  39.7692307692308 88.1040100250627  39.7692307692308 88.1040100250627  C 39.7692307692308 88.1040100250627  44.0226244343891 88.1040100250627  44.0226244343891 88.1040100250627  C 44.0226244343891 88.1040100250627  44.8733031674208 86.8483709273183  44.8733031674208 86.8483709273183  C 44.8733031674208 86.8483709273183  44.8733031674208 86.0112781954887  44.8733031674208 86.0112781954887  C 44.8733031674208 86.0112781954887  43.5972850678733 86.0112781954887  43.5972850678733 86.0112781954887  C 43.5972850678733 86.0112781954887  39.7692307692308 81.8258145363409  39.7692307692308 81.8258145363409  C 39.7692307692308 81.8258145363409  38.0678733031674 82.2443609022556  38.0678733031674 82.2443609022556  C 38.0678733031674 82.2443609022556  36.3665158371041 80.5701754385965  36.3665158371041 80.5701754385965  C 36.3665158371041 80.5701754385965  36.7918552036199 80.1516290726817  36.7918552036199 80.1516290726817  C 36.7918552036199 80.1516290726817  35.5158371040724 78.4774436090226  35.5158371040724 78.4774436090226  C 35.5158371040724 78.4774436090226  33.814479638009 78.8959899749374  33.814479638009 78.8959899749374  C 33.814479638009 78.8959899749374  30.8371040723982 77.2218045112782  30.8371040723982 77.2218045112782  C 30.8371040723982 77.2218045112782  31.6877828054299 74.7105263157895  31.6877828054299 74.7105263157895  C 31.6877828054299 74.7105263157895  32.9638009049774 73.4548872180451  32.9638009049774 73.4548872180451  C 32.9638009049774 73.4548872180451  33.814479638009 73.4548872180451  33.814479638009 73.4548872180451  C 33.814479638009 73.4548872180451  33.814479638009 71.3621553884712  33.814479638009 71.3621553884712  C 33.814479638009 71.3621553884712  34.6651583710407 70.5250626566416  34.6651583710407 70.5250626566416  C 34.6651583710407 70.5250626566416  33.814479638009 69.687969924812  33.814479638009 69.687969924812  C 33.814479638009 69.687969924812  35.0904977375566 67.5952380952381  35.0904977375566 67.5952380952381  C 35.0904977375566 67.5952380952381  35.5158371040724 64.6654135338346  35.5158371040724 64.6654135338346  C 35.5158371040724 64.6654135338346  33.814479638009 63.4097744360902  33.814479638009 63.4097744360902  C 33.814479638009 63.4097744360902  33.3891402714932 60.4799498746867  33.3891402714932 60.4799498746867  C 33.3891402714932 60.4799498746867  32.9638009049774 60.8984962406015  32.9638009049774 60.8984962406015  C 32.9638009049774 60.8984962406015  30.4117647058824 58.3872180451128  30.4117647058824 58.3872180451128  C 30.4117647058824 58.3872180451128  28.2850678733032 58.3872180451128  28.2850678733032 58.3872180451128  C 28.2850678733032 58.3872180451128  27.0090497737557 52.9461152882206  27.0090497737557 52.9461152882206  C 27.0090497737557 52.9461152882206  26.158371040724 53.3646616541353  26.158371040724 53.3646616541353  C 26.158371040724 53.3646616541353  23.606334841629 48.7606516290727  23.606334841629 48.7606516290727  C 23.606334841629 48.7606516290727  21.4796380090498 48.3421052631579  21.4796380090498 48.3421052631579  C 21.4796380090498 48.3421052631579  18.9276018099548 46.249373433584  18.9276018099548 46.249373433584  C 18.9276018099548 46.249373433584  18.0769230769231 42.4824561403509  18.0769230769231 42.4824561403509  C 18.0769230769231 42.4824561403509  16.8009049773756 41.6453634085213  16.8009049773756 41.6453634085213  C 16.8009049773756 41.6453634085213  16.3755656108597 40.3897243107769  16.3755656108597 40.3897243107769  C 16.3755656108597 40.3897243107769  15.0995475113122 39.9711779448622  15.0995475113122 39.9711779448622  C 15.0995475113122 39.9711779448622  14.2488687782805 38.296992481203  14.2488687782805 38.296992481203  C 14.2488687782805 38.296992481203  12.972850678733 37.4598997493734  12.972850678733 37.4598997493734  C 12.972850678733 37.4598997493734  12.972850678733 36.6228070175439  12.972850678733 36.6228070175439  C 12.972850678733 36.6228070175439  7.86877828054299 31.6002506265664  7.86877828054299 31.6002506265664  C 7.86877828054299 31.6002506265664  7.86877828054299 28.2518796992481  7.86877828054299 28.2518796992481  C 7.86877828054299 28.2518796992481  8.71945701357466 26.577694235589  8.71945701357466 26.577694235589  C 8.71945701357466 26.577694235589  10.420814479638 25.3220551378446  10.420814479638 25.3220551378446  C 10.420814479638 25.3220551378446  11.6968325791855 25.3220551378446  11.6968325791855 25.3220551378446  C 11.6968325791855 25.3220551378446  13.3981900452489 23.6478696741855  13.3981900452489 23.6478696741855  C 13.3981900452489 23.6478696741855  15.0995475113122 25.3220551378446  15.0995475113122 25.3220551378446  C 15.0995475113122 25.3220551378446  15.5248868778281 28.2518796992481  15.5248868778281 28.2518796992481  C 15.5248868778281 28.2518796992481  17.6515837104072 30.3446115288221  17.6515837104072 30.3446115288221  C 17.6515837104072 30.3446115288221  17.6515837104072 31.6002506265664  17.6515837104072 31.6002506265664  C 17.6515837104072 31.6002506265664  18.9276018099548 31.6002506265664  18.9276018099548 31.6002506265664  C 18.9276018099548 31.6002506265664  20.2036199095023 32.8558897243108  20.2036199095023 32.8558897243108  C 20.2036199095023 32.8558897243108  21.0542986425339 32.0187969924812  21.0542986425339 32.0187969924812  C 21.0542986425339 32.0187969924812  22.7556561085973 32.0187969924812  22.7556561085973 32.0187969924812  C 22.7556561085973 32.0187969924812  23.606334841629 32.8558897243108  23.606334841629 32.8558897243108  C 23.606334841629 32.8558897243108  27.0090497737557 32.437343358396  27.0090497737557 32.437343358396  C 27.0090497737557 32.437343358396  27.8597285067873 33.2744360902256  27.8597285067873 33.2744360902256  C 27.8597285067873 33.2744360902256  29.5610859728507 33.2744360902256  29.5610859728507 33.2744360902256  C 29.5610859728507 33.2744360902256  29.5610859728507 28.6704260651629  29.5610859728507 28.6704260651629  C 29.5610859728507 28.6704260651629  28.2850678733032 26.1591478696742  28.2850678733032 26.1591478696742  C 28.2850678733032 26.1591478696742  27.4343891402715 26.1591478696742  27.4343891402715 26.1591478696742  C 27.4343891402715 26.1591478696742  27.8597285067873 25.7406015037594  27.8597285067873 25.7406015037594  C 27.8597285067873 25.7406015037594  26.5837104072398 22.8107769423559  26.5837104072398 22.8107769423559  C 26.5837104072398 22.8107769423559  25.3076923076923 21.9736842105263  25.3076923076923 21.9736842105263  C 25.3076923076923 21.9736842105263  26.5837104072398 16.5325814536341  26.5837104072398 16.5325814536341  C 26.5837104072398 16.5325814536341  27.8597285067873 15.6954887218045  27.8597285067873 15.6954887218045  C 27.8597285067873 15.6954887218045  29.5610859728507 16.9511278195489  29.5610859728507 16.9511278195489  C 29.5610859728507 16.9511278195489  31.262443438914 16.1140350877193  31.262443438914 16.1140350877193  C 31.262443438914 16.1140350877193  32.5384615384615 16.9511278195489  32.5384615384615 16.9511278195489  C 32.5384615384615 16.9511278195489  35.9411764705882 17.3696741854637  35.9411764705882 17.3696741854637  C 35.9411764705882 17.3696741854637  36.3665158371041 16.1140350877193  36.3665158371041 16.1140350877193  C 36.3665158371041 16.1140350877193  40.1945701357466 14.4398496240601  40.1945701357466 14.4398496240601  C 40.1945701357466 14.4398496240601  42.7466063348416 14.8583959899749  42.7466063348416 14.8583959899749  C 42.7466063348416 14.8583959899749  43.1719457013575 13.6027568922306  43.1719457013575 13.6027568922306  C 43.1719457013575 13.6027568922306  44.447963800905 14.0213032581454  44.447963800905 14.0213032581454  C 44.447963800905 14.0213032581454  47.8506787330317 17.3696741854637  47.8506787330317 17.3696741854637  C 47.8506787330317 17.3696741854637  49.1266968325792 17.3696741854637  49.1266968325792 17.3696741854637  C 49.1266968325792 17.3696741854637  51.6787330316742 15.6954887218045  51.6787330316742 15.6954887218045  C 51.6787330316742 15.6954887218045  51.6787330316742 11.9285714285714  51.6787330316742 11.9285714285714  C 51.6787330316742 11.9285714285714  52.9547511312217 8.16165413533835  52.9547511312217 8.16165413533835  C 52.9547511312217 8.16165413533835  51.6787330316742 5.23182957393484  51.6787330316742 5.23182957393484  C 51.6787330316742 5.23182957393484  52.10407239819 1.88345864661654  52.10407239819 1.88345864661654  C 52.10407239819 1.88345864661654  53.3800904977376 1.46491228070175  53.3800904977376 1.46491228070175  C 53.3800904977376 1.46491228070175  54.2307692307692 0.209273182957393  54.2307692307692 0.209273182957393  C 54.2307692307692 0.209273182957393  56.7828054298642 0.62781954887218  56.7828054298642 0.62781954887218  C 56.7828054298642 0.62781954887218  59.7601809954751 3.1390977443609  59.7601809954751 3.1390977443609  C 59.7601809954751 3.1390977443609  61.4615384615385 3.97619047619048  61.4615384615385 3.97619047619048  C 61.4615384615385 3.97619047619048  63.1628959276018 3.55764411027569  63.1628959276018 3.55764411027569  C 63.1628959276018 3.55764411027569  63.5882352941177 4.39473684210526  63.5882352941177 4.39473684210526  C 63.5882352941177 4.39473684210526  64.8642533936652 8.16165413533835  64.8642533936652 8.16165413533835  C 64.8642533936652 8.16165413533835  63.5882352941177 11.0914786967419  63.5882352941177 11.0914786967419  C 63.5882352941177 11.0914786967419  62.3122171945701 12.3471177944862  62.3122171945701 12.3471177944862  C 62.3122171945701 12.3471177944862  62.737556561086 16.1140350877193  62.737556561086 16.1140350877193  C 62.737556561086 16.1140350877193  61.8868778280543 16.5325814536341  61.8868778280543 16.5325814536341  C 61.8868778280543 16.5325814536341  61.4615384615385 18.2067669172932  61.4615384615385 18.2067669172932  C 61.4615384615385 18.2067669172932  63.1628959276018 19.8809523809524  63.1628959276018 19.8809523809524  C 63.1628959276018 19.8809523809524  63.1628959276018 22.3922305764411  63.1628959276018 22.3922305764411  C 63.1628959276018 22.3922305764411  65.289592760181 24.484962406015  65.289592760181 24.484962406015  C 65.289592760181 24.484962406015  65.289592760181 25.3220551378446  65.289592760181 25.3220551378446  C 65.289592760181 25.3220551378446  66.9909502262444 25.7406015037594  66.9909502262444 25.7406015037594  C 66.9909502262444 25.7406015037594  66.9909502262444 26.577694235589  66.9909502262444 26.577694235589  C 66.9909502262444 26.577694235589  68.2669683257919 26.9962406015038  68.2669683257919 26.9962406015038  C 68.2669683257919 26.9962406015038  66.9909502262444 30.3446115288221  66.9909502262444 30.3446115288221  C 66.9909502262444 30.3446115288221  68.6923076923077 31.1817042606516  68.6923076923077 31.1817042606516  C 68.6923076923077 31.1817042606516  69.5429864253394 33.2744360902256  69.5429864253394 33.2744360902256  C 69.5429864253394 33.2744360902256  71.2443438914027 33.2744360902256  71.2443438914027 33.2744360902256  C 71.2443438914027 33.2744360902256  72.5203619909502 34.5300751879699  72.5203619909502 34.5300751879699  C 72.5203619909502 34.5300751879699  74.2217194570136 34.5300751879699  74.2217194570136 34.5300751879699  C 74.2217194570136 34.5300751879699  73.7963800904977 36.2042606516291  73.7963800904977 36.2042606516291  C 73.7963800904977 36.2042606516291  75.4977375565611 36.2042606516291  75.4977375565611 36.2042606516291  C 75.4977375565611 36.2042606516291  80.1764705882353 40.8082706766917  80.1764705882353 40.8082706766917  C 80.1764705882353 40.8082706766917  79.7511312217195 41.6453634085213  79.7511312217195 41.6453634085213  C 79.7511312217195 41.6453634085213  80.6018099547511 42.4824561403509  80.6018099547511 42.4824561403509  C 80.6018099547511 42.4824561403509  80.6018099547511 44.15664160401  80.6018099547511 44.15664160401  C 80.6018099547511 44.15664160401  81.4524886877828 44.5751879699248  81.4524886877828 44.5751879699248  C 81.4524886877828 44.5751879699248  82.7285067873303 42.9010025062657  82.7285067873303 42.9010025062657  C 82.7285067873303 42.9010025062657  83.579185520362 42.9010025062657  83.579185520362 42.9010025062657  C 83.579185520362 42.9010025062657  84.0045248868778 44.15664160401  84.0045248868778 44.15664160401  C 84.0045248868778 44.15664160401  89.1085972850679 45.8308270676692  89.1085972850679 45.8308270676692  C 89.1085972850679 45.8308270676692  89.9592760180996 47.5050125313283  89.9592760180996 47.5050125313283  C 89.9592760180996 47.5050125313283  92.0859728506787 48.3421052631579  92.0859728506787 48.3421052631579  C 92.0859728506787 48.3421052631579  93.3619909502262 50.016290726817  93.3619909502262 50.016290726817  C 93.3619909502262 50.016290726817  92.9366515837104 52.109022556391  92.9366515837104 52.109022556391  C 92.9366515837104 52.109022556391  93.7873303167421 52.5275689223058  93.7873303167421 52.5275689223058  C 93.7873303167421 52.5275689223058  92.5113122171946 53.3646616541353  92.5113122171946 53.3646616541353  C 92.5113122171946 53.3646616541353  91.6606334841629 52.9461152882206  91.6606334841629 52.9461152882206  C 91.6606334841629 52.9461152882206  91.6606334841629 53.7832080200501  91.6606334841629 53.7832080200501  C 91.6606334841629 53.7832080200501  89.9592760180996 54.2017543859649  89.9592760180996 54.2017543859649  C 89.9592760180996 54.2017543859649  90.8099547511312 55.8759398496241  90.8099547511312 55.8759398496241  C 90.8099547511312 55.8759398496241  88.2579185520362 57.1315789473684  88.2579185520362 57.1315789473684  C 88.2579185520362 57.1315789473684  88.2579185520362 57.968671679198  88.2579185520362 57.968671679198  C 88.2579185520362 57.968671679198  85.7058823529412 58.8057644110276  85.7058823529412 58.8057644110276  C 85.7058823529412 58.8057644110276  86.5565610859728 60.8984962406015  86.5565610859728 60.8984962406015  C 86.5565610859728 60.8984962406015  85.2805429864253 62.5726817042607  85.2805429864253 62.5726817042607  C 85.2805429864253 62.5726817042607  83.1538461538461 62.5726817042607  83.1538461538461 62.5726817042607  C 83.1538461538461 62.5726817042607  81.027149321267 63.828320802005  81.027149321267 63.828320802005  C 81.027149321267 63.828320802005  79.3257918552036 63.4097744360902  79.3257918552036 63.4097744360902  C 79.3257918552036 63.4097744360902  78.0497737556561 61.3170426065163  78.0497737556561 61.3170426065163  C 78.0497737556561 61.3170426065163  77.6244343891403 63.4097744360902  77.6244343891403 63.4097744360902  C 77.6244343891403 63.4097744360902  78.9004524886878 67.1766917293233  78.9004524886878 67.1766917293233  C 78.9004524886878 67.1766917293233  78.4751131221719 72.1992481203008  78.4751131221719 72.1992481203008  C 78.4751131221719 72.1992481203008  78.0497737556561 72.6177944862155  78.0497737556561 72.6177944862155  C 78.0497737556561 72.6177944862155  73.7963800904977 71.780701754386  73.7963800904977 71.780701754386  C 73.7963800904977 71.780701754386  71.6696832579186 73.8734335839599  71.6696832579186 73.8734335839599  C 71.6696832579186 73.8734335839599  68.6923076923077 75.1290726817043  68.6923076923077 75.1290726817043  C 68.6923076923077 75.1290726817043  68.6923076923077 75.9661654135338  68.6923076923077 75.9661654135338  C 68.6923076923077 75.9661654135338  67.4162895927602 76.8032581453634  67.4162895927602 76.8032581453634  C 67.4162895927602 76.8032581453634  66.5656108597285 80.5701754385965  66.5656108597285 80.5701754385965  C 66.5656108597285 80.5701754385965  66.9909502262444 85.1741854636591  66.9909502262444 85.1741854636591  C 66.9909502262444 85.1741854636591  65.289592760181 86.8483709273183  65.289592760181 86.8483709273183  C 65.289592760181 86.8483709273183  65.7149321266968 89.359649122807  65.7149321266968 89.359649122807  C 65.7149321266968 89.359649122807  65.289592760181 88.9411027568922  65.289592760181 88.9411027568922  C 65.289592760181 88.9411027568922  64.4389140271493 89.7781954887218  64.4389140271493 89.7781954887218  C 64.4389140271493 89.7781954887218  65.289592760181 91.0338345864662  65.289592760181 91.0338345864662  C 65.289592760181 91.0338345864662  66.1402714932127 91.0338345864662  66.1402714932127 91.0338345864662  C 66.1402714932127 91.0338345864662  65.7149321266968 92.7080200501253  65.7149321266968 92.7080200501253  C 65.7149321266968 92.7080200501253  66.5656108597285 93.5451127819549  66.5656108597285 93.5451127819549  C 66.5656108597285 93.5451127819549  66.1402714932127 94.3822055137845  66.1402714932127 94.3822055137845  C 66.1402714932127 94.3822055137845  66.9909502262444 99.4047619047619  66.9909502262444 99.4047619047619  C 66.9909502262444 99.4047619047619  64.8642533936652 100.660401002506  64.8642533936652 100.660401002506  C 64.8642533936652 100.660401002506  62.737556561086 100.660401002506  62.737556561086 100.660401002506  C 62.737556561086 100.660401002506  61.8868778280543 101.078947368421  61.8868778280543 101.078947368421  C 61.8868778280543 101.078947368421  62.3122171945701 101.916040100251  62.3122171945701 101.916040100251  C 62.3122171945701 101.916040100251  60.1855203619909 101.916040100251  60.1855203619909 101.916040100251  C 60.1855203619909 101.916040100251  59.7601809954751 102.75313283208  59.7601809954751 102.75313283208  C 59.7601809954751 102.75313283208  61.4615384615385 102.75313283208  61.4615384615385 102.75313283208  C 61.4615384615385 102.75313283208  62.3122171945701 103.59022556391  62.3122171945701 103.59022556391  C 62.3122171945701 103.59022556391  65.289592760181 104.427318295739  65.289592760181 104.427318295739  C 65.289592760181 104.427318295739  67.4162895927602 108.612781954887  67.4162895927602 108.612781954887  C 67.4162895927602 108.612781954887  65.289592760181 111.542606516291  65.289592760181 111.542606516291  C 65.289592760181 111.542606516291  64.8642533936652 114.890977443609  64.8642533936652 114.890977443609  C 64.8642533936652 114.890977443609  64.0135746606335 115.309523809524  64.0135746606335 115.309523809524  C 64.0135746606335 115.309523809524  64.0135746606335 116.565162907268  64.0135746606335 116.565162907268  C 64.0135746606335 116.565162907268  65.7149321266968 117.820802005013  65.7149321266968 117.820802005013  C 65.7149321266968 117.820802005013  64.0135746606335 116.983709273183  64.0135746606335 116.983709273183  C 64.0135746606335 116.983709273183  64.0135746606335 118.239348370927  64.0135746606335 118.239348370927  C 64.0135746606335 118.239348370927  64.4389140271493 120.332080200501  64.4389140271493 120.332080200501  C 64.4389140271493 120.332080200501  64.8642533936652 119.913533834586  64.8642533936652 119.913533834586  C 64.8642533936652 119.913533834586  65.7149321266968 121.587719298246  65.7149321266968 121.587719298246  C 65.7149321266968 121.587719298246  68.6923076923077 121.587719298246  68.6923076923077 121.587719298246  C 68.6923076923077 121.587719298246  67.841628959276 122.424812030075  67.841628959276 122.424812030075  C 67.841628959276 122.424812030075  67.841628959276 123.68045112782  67.841628959276 123.68045112782  C 67.841628959276 123.68045112782  69.1176470588235 124.936090225564  69.1176470588235 124.936090225564  C 69.1176470588235 124.936090225564  67.4162895927602 125.354636591479  67.4162895927602 125.354636591479  C 67.4162895927602 125.354636591479  68.6923076923077 126.610275689223  68.6923076923077 126.610275689223  C 68.6923076923077 126.610275689223  68.2669683257919 128.703007518797  68.2669683257919 128.703007518797  C 68.2669683257919 128.703007518797  68.6923076923077 129.958646616541  68.6923076923077 129.958646616541  C 68.6923076923077 129.958646616541  69.9683257918552 129.540100250627  69.9683257918552 129.540100250627  C 69.9683257918552 129.540100250627  71.2443438914027 130.377192982456  71.2443438914027 130.377192982456  C 71.2443438914027 130.377192982456  66.9909502262444 133.30701754386  66.9909502262444 133.30701754386  C 66.9909502262444 133.30701754386  66.5656108597285 136.236842105263  66.5656108597285 136.236842105263  C 66.5656108597285 136.236842105263  67.4162895927602 136.655388471178  67.4162895927602 136.655388471178  C 67.4162895927602 136.655388471178  66.1402714932127 137.911027568922  66.1402714932127 137.911027568922  C 66.1402714932127 137.911027568922  66.1402714932127 138.748120300752  66.1402714932127 138.748120300752  C 66.1402714932127 138.748120300752  67.841628959276 139.585213032581  67.841628959276 139.585213032581  C 67.841628959276 139.585213032581  67.841628959276 141.259398496241  67.841628959276 141.259398496241  C 67.841628959276 141.259398496241  69.1176470588235 141.259398496241  69.1176470588235 141.259398496241  C 69.1176470588235 141.259398496241  68.6923076923077 145.863408521303  68.6923076923077 145.863408521303  C 68.6923076923077 145.863408521303  71.6696832579186 145.863408521303  71.6696832579186 145.863408521303  C 71.6696832579186 145.863408521303  71.6696832579186 146.700501253133  71.6696832579186 146.700501253133  C 71.6696832579186 146.700501253133  73.7963800904977 146.700501253133  73.7963800904977 146.700501253133  C 73.7963800904977 146.700501253133  75.4977375565611 150.048872180451  75.4977375565611 150.048872180451  C 75.4977375565611 150.048872180451  76.3484162895928 150.467418546366  76.3484162895928 150.467418546366  C 76.3484162895928 150.467418546366  74.6470588235294 151.304511278195  74.6470588235294 151.304511278195  C 74.6470588235294 151.304511278195  73.7963800904977 152.978696741855  73.7963800904977 152.978696741855  C 73.7963800904977 152.978696741855  73.3710407239819 152.56015037594  73.3710407239819 152.56015037594  C 73.3710407239819 152.56015037594  70.8190045248869 156.745614035088  70.8190045248869 156.745614035088  C 70.8190045248869 156.745614035088  62.3122171945701 166.790726817043  62.3122171945701 166.790726817043  C 62.3122171945701 166.790726817043  61.4615384615385 166.790726817043  61.4615384615385 166.790726817043  C 61.4615384615385 166.790726817043  61.4615384615385 165.953634085213  61.4615384615385 165.953634085213  C 61.4615384615385 165.953634085213  60.1855203619909 166.372180451128  60.1855203619909 166.372180451128  C 60.1855203619909 166.372180451128  60.6108597285068 164.279448621554  60.6108597285068 164.279448621554  C 60.6108597285068 164.279448621554  59.7601809954751 160.931077694236  59.7601809954751 160.931077694236  C 59.7601809954751 160.931077694236  56.7828054298642 161.34962406015  56.7828054298642 161.34962406015  C 56.7828054298642 161.34962406015  55.9321266968326 162.18671679198  55.9321266968326 162.18671679198  C 55.9321266968326 162.18671679198  52.9547511312217 161.34962406015  52.9547511312217 161.34962406015  C 52.9547511312217 161.34962406015  52.9547511312217 163.02380952381  52.9547511312217 163.02380952381  C 52.9547511312217 163.02380952381  49.9773755656109 163.02380952381  49.9773755656109 163.02380952381  C 49.9773755656109 163.02380952381  49.552036199095 160.512531328321  49.552036199095 160.512531328321  C 49.552036199095 160.512531328321  47.8506787330317 160.512531328321  47.8506787330317 160.512531328321  C 47.8506787330317 160.512531328321  47.8506787330317 159.675438596491  47.8506787330317 159.675438596491  C 47.8506787330317 159.675438596491  44.447963800905 159.675438596491  44.447963800905 159.675438596491  C 44.447963800905 159.675438596491  43.5972850678733 158.001253132832  43.5972850678733 158.001253132832  C 43.5972850678733 158.001253132832  41.4705882352941 158.838345864662  41.4705882352941 158.838345864662  C 41.4705882352941 158.838345864662  39.3438914027149 158.001253132832  39.3438914027149 158.001253132832  C 39.3438914027149 158.001253132832  39.7692307692308 160.093984962406  39.7692307692308 160.093984962406  C 39.7692307692308 160.093984962406  38.9185520361991 161.34962406015  38.9185520361991 161.34962406015  C 38.9185520361991 161.34962406015  35.0904977375566 161.768170426065  35.0904977375566 161.768170426065  C 35.0904977375566 161.768170426065  31.262443438914 160.093984962406  31.262443438914 160.093984962406  C 31.262443438914 160.093984962406  31.262443438914 158.419799498747  31.262443438914 158.419799498747  C 31.262443438914 158.419799498747  30.4117647058824 157.582706766917  30.4117647058824 157.582706766917  C 30.4117647058824 157.582706766917  29.1357466063348 157.582706766917  29.1357466063348 157.582706766917  C 29.1357466063348 157.582706766917  27.4343891402715 155.908521303258  27.4343891402715 155.908521303258  C 27.4343891402715 155.908521303258  25.7330316742081 156.327067669173  25.7330316742081 156.327067669173  C 25.7330316742081 156.327067669173  26.158371040724 155.071428571429  26.158371040724 155.071428571429  C 26.158371040724 155.071428571429  24.8823529411765 152.978696741855  24.8823529411765 152.978696741855  C 24.8823529411765 152.978696741855  26.5837104072398 150.048872180451  26.5837104072398 150.048872180451  C 26.5837104072398 150.048872180451  24.8823529411765 148.793233082707  24.8823529411765 148.793233082707  C 24.8823529411765 148.793233082707  24.0316742081448 146.700501253133  24.0316742081448 146.700501253133  C 24.0316742081448 146.700501253133  23.1809954751131 147.537593984962  23.1809954751131 147.537593984962  C 23.1809954751131 147.537593984962  20.6289592760181 147.537593984962  20.6289592760181 147.537593984962  C 20.6289592760181 147.537593984962  19.3529411764706 146.700501253133  19.3529411764706 146.700501253133  C 19.3529411764706 146.700501253133  17.6515837104072 146.700501253133  17.6515837104072 146.700501253133  C 17.6515837104072 146.700501253133  16.8009049773756 145.863408521303  16.8009049773756 145.863408521303  C 16.8009049773756 145.863408521303  14.2488687782805 145.863408521303  14.2488687782805 145.863408521303  C 14.2488687782805 145.863408521303  14.2488687782805 146.700501253133  14.2488687782805 146.700501253133  C 14.2488687782805 146.700501253133  12.972850678733 147.119047619048  12.972850678733 147.119047619048  C 12.972850678733 147.119047619048  13.3981900452489 145.026315789474  13.3981900452489 145.026315789474  C 13.3981900452489 145.026315789474  12.5475113122172 143.770676691729  12.5475113122172 143.770676691729  C 12.5475113122172 143.770676691729  13.3981900452489 142.09649122807  13.3981900452489 142.09649122807  C 13.3981900452489 142.09649122807  9.99547511312217 142.09649122807  9.99547511312217 142.09649122807  C 9.99547511312217 142.09649122807  11.6968325791855 140.003759398496  11.6968325791855 140.003759398496  C 11.6968325791855 140.003759398496  11.2714932126697 139.166666666667  11.2714932126697 139.166666666667  C 11.2714932126697 139.166666666667  9.57013574660633 138.748120300752  9.57013574660633 138.748120300752  C 9.57013574660633 138.748120300752  4.46606334841629 135.399749373434  4.46606334841629 135.399749373434  C 4.46606334841629 135.399749373434  1.91402714932127 136.655388471178  1.91402714932127 136.655388471178  C 1.91402714932127 136.655388471178  1.48868778280543 134.981203007519  1.48868778280543 134.981203007519  Z " fill-rule="nonzero" fill="#ffffff" stroke="none" fill-opacity="0" transform="matrix(1 0 0 1 184 647 )" />
    <path d="M 1.48868778280543 134.981203007519  C 1.48868778280543 134.981203007519  1.06334841628959 134.981203007519  1.06334841628959 134.981203007519  C 1.06334841628959 134.981203007519  0.212669683257919 134.144110275689  0.212669683257919 134.144110275689  C 0.212669683257919 134.144110275689  1.06334841628959 132.888471177945  1.06334841628959 132.888471177945  C 1.06334841628959 132.888471177945  0.638009049773756 130.795739348371  0.638009049773756 130.795739348371  C 0.638009049773756 130.795739348371  1.91402714932127 129.540100250627  1.91402714932127 129.540100250627  C 1.91402714932127 129.540100250627  1.91402714932127 127.447368421053  1.91402714932127 127.447368421053  C 1.91402714932127 127.447368421053  1.06334841628959 126.191729323308  1.06334841628959 126.191729323308  C 1.06334841628959 126.191729323308  1.48868778280543 122.84335839599  1.48868778280543 122.84335839599  C 1.48868778280543 122.84335839599  2.76470588235294 122.00626566416  2.76470588235294 122.00626566416  C 2.76470588235294 122.00626566416  3.61538461538462 120.332080200501  3.61538461538462 120.332080200501  C 3.61538461538462 120.332080200501  2.76470588235294 119.913533834586  2.76470588235294 119.913533834586  C 2.76470588235294 119.913533834586  1.48868778280543 116.565162907268  1.48868778280543 116.565162907268  C 1.48868778280543 116.565162907268  3.19004524886878 116.146616541353  3.19004524886878 116.146616541353  C 3.19004524886878 116.146616541353  6.16742081447964 113.635338345865  6.16742081447964 113.635338345865  C 6.16742081447964 113.635338345865  13.3981900452489 113.21679197995  13.3981900452489 113.21679197995  C 13.3981900452489 113.21679197995  14.6742081447964 114.053884711779  14.6742081447964 114.053884711779  C 14.6742081447964 114.053884711779  14.6742081447964 116.146616541353  14.6742081447964 116.146616541353  C 14.6742081447964 116.146616541353  17.2262443438914 119.076441102757  17.2262443438914 119.076441102757  C 17.2262443438914 119.076441102757  18.9276018099548 116.983709273183  18.9276018099548 116.983709273183  C 18.9276018099548 116.983709273183  23.1809954751131 117.820802005013  23.1809954751131 117.820802005013  C 23.1809954751131 117.820802005013  24.8823529411765 116.983709273183  24.8823529411765 116.983709273183  C 24.8823529411765 116.983709273183  26.5837104072398 117.402255639098  26.5837104072398 117.402255639098  C 26.5837104072398 117.402255639098  27.0090497737557 115.728070175439  27.0090497737557 115.728070175439  C 27.0090497737557 115.728070175439  32.5384615384615 117.402255639098  32.5384615384615 117.402255639098  C 32.5384615384615 117.402255639098  34.6651583710407 116.983709273183  34.6651583710407 116.983709273183  C 34.6651583710407 116.983709273183  36.3665158371041 115.309523809524  36.3665158371041 115.309523809524  C 36.3665158371041 115.309523809524  36.3665158371041 114.053884711779  36.3665158371041 114.053884711779  C 36.3665158371041 114.053884711779  33.3891402714932 109.868421052632  33.3891402714932 109.868421052632  C 33.3891402714932 109.868421052632  29.9864253393665 110.705513784461  29.9864253393665 110.705513784461  C 29.9864253393665 110.705513784461  28.2850678733032 109.868421052632  28.2850678733032 109.868421052632  C 28.2850678733032 109.868421052632  27.4343891402715 108.612781954887  27.4343891402715 108.612781954887  C 27.4343891402715 108.612781954887  30.4117647058824 105.264411027569  30.4117647058824 105.264411027569  C 30.4117647058824 105.264411027569  31.262443438914 102.75313283208  31.262443438914 102.75313283208  C 31.262443438914 102.75313283208  32.9638009049774 102.334586466165  32.9638009049774 102.334586466165  C 32.9638009049774 102.334586466165  36.3665158371041 97.312030075188  36.3665158371041 97.312030075188  C 36.3665158371041 97.312030075188  37.6425339366516 96.8934837092732  37.6425339366516 96.8934837092732  C 37.6425339366516 96.8934837092732  38.9185520361991 93.5451127819549  38.9185520361991 93.5451127819549  C 38.9185520361991 93.5451127819549  38.4932126696833 92.2894736842105  38.4932126696833 92.2894736842105  C 38.4932126696833 92.2894736842105  39.7692307692308 88.1040100250627  39.7692307692308 88.1040100250627  C 39.7692307692308 88.1040100250627  44.0226244343891 88.1040100250627  44.0226244343891 88.1040100250627  C 44.0226244343891 88.1040100250627  44.8733031674208 86.8483709273183  44.8733031674208 86.8483709273183  C 44.8733031674208 86.8483709273183  44.8733031674208 86.0112781954887  44.8733031674208 86.0112781954887  C 44.8733031674208 86.0112781954887  43.5972850678733 86.0112781954887  43.5972850678733 86.0112781954887  C 43.5972850678733 86.0112781954887  39.7692307692308 81.8258145363409  39.7692307692308 81.8258145363409  C 39.7692307692308 81.8258145363409  38.0678733031674 82.2443609022556  38.0678733031674 82.2443609022556  C 38.0678733031674 82.2443609022556  36.3665158371041 80.5701754385965  36.3665158371041 80.5701754385965  C 36.3665158371041 80.5701754385965  36.7918552036199 80.1516290726817  36.7918552036199 80.1516290726817  C 36.7918552036199 80.1516290726817  35.5158371040724 78.4774436090226  35.5158371040724 78.4774436090226  C 35.5158371040724 78.4774436090226  33.814479638009 78.8959899749374  33.814479638009 78.8959899749374  C 33.814479638009 78.8959899749374  30.8371040723982 77.2218045112782  30.8371040723982 77.2218045112782  C 30.8371040723982 77.2218045112782  31.6877828054299 74.7105263157895  31.6877828054299 74.7105263157895  C 31.6877828054299 74.7105263157895  32.9638009049774 73.4548872180451  32.9638009049774 73.4548872180451  C 32.9638009049774 73.4548872180451  33.814479638009 73.4548872180451  33.814479638009 73.4548872180451  C 33.814479638009 73.4548872180451  33.814479638009 71.3621553884712  33.814479638009 71.3621553884712  C 33.814479638009 71.3621553884712  34.6651583710407 70.5250626566416  34.6651583710407 70.5250626566416  C 34.6651583710407 70.5250626566416  33.814479638009 69.687969924812  33.814479638009 69.687969924812  C 33.814479638009 69.687969924812  35.0904977375566 67.5952380952381  35.0904977375566 67.5952380952381  C 35.0904977375566 67.5952380952381  35.5158371040724 64.6654135338346  35.5158371040724 64.6654135338346  C 35.5158371040724 64.6654135338346  33.814479638009 63.4097744360902  33.814479638009 63.4097744360902  C 33.814479638009 63.4097744360902  33.3891402714932 60.4799498746867  33.3891402714932 60.4799498746867  C 33.3891402714932 60.4799498746867  32.9638009049774 60.8984962406015  32.9638009049774 60.8984962406015  C 32.9638009049774 60.8984962406015  30.4117647058824 58.3872180451128  30.4117647058824 58.3872180451128  C 30.4117647058824 58.3872180451128  28.2850678733032 58.3872180451128  28.2850678733032 58.3872180451128  C 28.2850678733032 58.3872180451128  27.0090497737557 52.9461152882206  27.0090497737557 52.9461152882206  C 27.0090497737557 52.9461152882206  26.158371040724 53.3646616541353  26.158371040724 53.3646616541353  C 26.158371040724 53.3646616541353  23.606334841629 48.7606516290727  23.606334841629 48.7606516290727  C 23.606334841629 48.7606516290727  21.4796380090498 48.3421052631579  21.4796380090498 48.3421052631579  C 21.4796380090498 48.3421052631579  18.9276018099548 46.249373433584  18.9276018099548 46.249373433584  C 18.9276018099548 46.249373433584  18.0769230769231 42.4824561403509  18.0769230769231 42.4824561403509  C 18.0769230769231 42.4824561403509  16.8009049773756 41.6453634085213  16.8009049773756 41.6453634085213  C 16.8009049773756 41.6453634085213  16.3755656108597 40.3897243107769  16.3755656108597 40.3897243107769  C 16.3755656108597 40.3897243107769  15.0995475113122 39.9711779448622  15.0995475113122 39.9711779448622  C 15.0995475113122 39.9711779448622  14.2488687782805 38.296992481203  14.2488687782805 38.296992481203  C 14.2488687782805 38.296992481203  12.972850678733 37.4598997493734  12.972850678733 37.4598997493734  C 12.972850678733 37.4598997493734  12.972850678733 36.6228070175439  12.972850678733 36.6228070175439  C 12.972850678733 36.6228070175439  7.86877828054299 31.6002506265664  7.86877828054299 31.6002506265664  C 7.86877828054299 31.6002506265664  7.86877828054299 28.2518796992481  7.86877828054299 28.2518796992481  C 7.86877828054299 28.2518796992481  8.71945701357466 26.577694235589  8.71945701357466 26.577694235589  C 8.71945701357466 26.577694235589  10.420814479638 25.3220551378446  10.420814479638 25.3220551378446  C 10.420814479638 25.3220551378446  11.6968325791855 25.3220551378446  11.6968325791855 25.3220551378446  C 11.6968325791855 25.3220551378446  13.3981900452489 23.6478696741855  13.3981900452489 23.6478696741855  C 13.3981900452489 23.6478696741855  15.0995475113122 25.3220551378446  15.0995475113122 25.3220551378446  C 15.0995475113122 25.3220551378446  15.5248868778281 28.2518796992481  15.5248868778281 28.2518796992481  C 15.5248868778281 28.2518796992481  17.6515837104072 30.3446115288221  17.6515837104072 30.3446115288221  C 17.6515837104072 30.3446115288221  17.6515837104072 31.6002506265664  17.6515837104072 31.6002506265664  C 17.6515837104072 31.6002506265664  18.9276018099548 31.6002506265664  18.9276018099548 31.6002506265664  C 18.9276018099548 31.6002506265664  20.2036199095023 32.8558897243108  20.2036199095023 32.8558897243108  C 20.2036199095023 32.8558897243108  21.0542986425339 32.0187969924812  21.0542986425339 32.0187969924812  C 21.0542986425339 32.0187969924812  22.7556561085973 32.0187969924812  22.7556561085973 32.0187969924812  C 22.7556561085973 32.0187969924812  23.606334841629 32.8558897243108  23.606334841629 32.8558897243108  C 23.606334841629 32.8558897243108  27.0090497737557 32.437343358396  27.0090497737557 32.437343358396  C 27.0090497737557 32.437343358396  27.8597285067873 33.2744360902256  27.8597285067873 33.2744360902256  C 27.8597285067873 33.2744360902256  29.5610859728507 33.2744360902256  29.5610859728507 33.2744360902256  C 29.5610859728507 33.2744360902256  29.5610859728507 28.6704260651629  29.5610859728507 28.6704260651629  C 29.5610859728507 28.6704260651629  28.2850678733032 26.1591478696742  28.2850678733032 26.1591478696742  C 28.2850678733032 26.1591478696742  27.4343891402715 26.1591478696742  27.4343891402715 26.1591478696742  C 27.4343891402715 26.1591478696742  27.8597285067873 25.7406015037594  27.8597285067873 25.7406015037594  C 27.8597285067873 25.7406015037594  26.5837104072398 22.8107769423559  26.5837104072398 22.8107769423559  C 26.5837104072398 22.8107769423559  25.3076923076923 21.9736842105263  25.3076923076923 21.9736842105263  C 25.3076923076923 21.9736842105263  26.5837104072398 16.5325814536341  26.5837104072398 16.5325814536341  C 26.5837104072398 16.5325814536341  27.8597285067873 15.6954887218045  27.8597285067873 15.6954887218045  C 27.8597285067873 15.6954887218045  29.5610859728507 16.9511278195489  29.5610859728507 16.9511278195489  C 29.5610859728507 16.9511278195489  31.262443438914 16.1140350877193  31.262443438914 16.1140350877193  C 31.262443438914 16.1140350877193  32.5384615384615 16.9511278195489  32.5384615384615 16.9511278195489  C 32.5384615384615 16.9511278195489  35.9411764705882 17.3696741854637  35.9411764705882 17.3696741854637  C 35.9411764705882 17.3696741854637  36.3665158371041 16.1140350877193  36.3665158371041 16.1140350877193  C 36.3665158371041 16.1140350877193  40.1945701357466 14.4398496240601  40.1945701357466 14.4398496240601  C 40.1945701357466 14.4398496240601  42.7466063348416 14.8583959899749  42.7466063348416 14.8583959899749  C 42.7466063348416 14.8583959899749  43.1719457013575 13.6027568922306  43.1719457013575 13.6027568922306  C 43.1719457013575 13.6027568922306  44.447963800905 14.0213032581454  44.447963800905 14.0213032581454  C 44.447963800905 14.0213032581454  47.8506787330317 17.3696741854637  47.8506787330317 17.3696741854637  C 47.8506787330317 17.3696741854637  49.1266968325792 17.3696741854637  49.1266968325792 17.3696741854637  C 49.1266968325792 17.3696741854637  51.6787330316742 15.6954887218045  51.6787330316742 15.6954887218045  C 51.6787330316742 15.6954887218045  51.6787330316742 11.9285714285714  51.6787330316742 11.9285714285714  C 51.6787330316742 11.9285714285714  52.9547511312217 8.16165413533835  52.9547511312217 8.16165413533835  C 52.9547511312217 8.16165413533835  51.6787330316742 5.23182957393484  51.6787330316742 5.23182957393484  C 51.6787330316742 5.23182957393484  52.10407239819 1.88345864661654  52.10407239819 1.88345864661654  C 52.10407239819 1.88345864661654  53.3800904977376 1.46491228070175  53.3800904977376 1.46491228070175  C 53.3800904977376 1.46491228070175  54.2307692307692 0.209273182957393  54.2307692307692 0.209273182957393  C 54.2307692307692 0.209273182957393  56.7828054298642 0.62781954887218  56.7828054298642 0.62781954887218  C 56.7828054298642 0.62781954887218  59.7601809954751 3.1390977443609  59.7601809954751 3.1390977443609  C 59.7601809954751 3.1390977443609  61.4615384615385 3.97619047619048  61.4615384615385 3.97619047619048  C 61.4615384615385 3.97619047619048  63.1628959276018 3.55764411027569  63.1628959276018 3.55764411027569  C 63.1628959276018 3.55764411027569  63.5882352941177 4.39473684210526  63.5882352941177 4.39473684210526  C 63.5882352941177 4.39473684210526  64.8642533936652 8.16165413533835  64.8642533936652 8.16165413533835  C 64.8642533936652 8.16165413533835  63.5882352941177 11.0914786967419  63.5882352941177 11.0914786967419  C 63.5882352941177 11.0914786967419  62.3122171945701 12.3471177944862  62.3122171945701 12.3471177944862  C 62.3122171945701 12.3471177944862  62.737556561086 16.1140350877193  62.737556561086 16.1140350877193  C 62.737556561086 16.1140350877193  61.8868778280543 16.5325814536341  61.8868778280543 16.5325814536341  C 61.8868778280543 16.5325814536341  61.4615384615385 18.2067669172932  61.4615384615385 18.2067669172932  C 61.4615384615385 18.2067669172932  63.1628959276018 19.8809523809524  63.1628959276018 19.8809523809524  C 63.1628959276018 19.8809523809524  63.1628959276018 22.3922305764411  63.1628959276018 22.3922305764411  C 63.1628959276018 22.3922305764411  65.289592760181 24.484962406015  65.289592760181 24.484962406015  C 65.289592760181 24.484962406015  65.289592760181 25.3220551378446  65.289592760181 25.3220551378446  C 65.289592760181 25.3220551378446  66.9909502262444 25.7406015037594  66.9909502262444 25.7406015037594  C 66.9909502262444 25.7406015037594  66.9909502262444 26.577694235589  66.9909502262444 26.577694235589  C 66.9909502262444 26.577694235589  68.2669683257919 26.9962406015038  68.2669683257919 26.9962406015038  C 68.2669683257919 26.9962406015038  66.9909502262444 30.3446115288221  66.9909502262444 30.3446115288221  C 66.9909502262444 30.3446115288221  68.6923076923077 31.1817042606516  68.6923076923077 31.1817042606516  C 68.6923076923077 31.1817042606516  69.5429864253394 33.2744360902256  69.5429864253394 33.2744360902256  C 69.5429864253394 33.2744360902256  71.2443438914027 33.2744360902256  71.2443438914027 33.2744360902256  C 71.2443438914027 33.2744360902256  72.5203619909502 34.5300751879699  72.5203619909502 34.5300751879699  C 72.5203619909502 34.5300751879699  74.2217194570136 34.5300751879699  74.2217194570136 34.5300751879699  C 74.2217194570136 34.5300751879699  73.7963800904977 36.2042606516291  73.7963800904977 36.2042606516291  C 73.7963800904977 36.2042606516291  75.4977375565611 36.2042606516291  75.4977375565611 36.2042606516291  C 75.4977375565611 36.2042606516291  80.1764705882353 40.8082706766917  80.1764705882353 40.8082706766917  C 80.1764705882353 40.8082706766917  79.7511312217195 41.6453634085213  79.7511312217195 41.6453634085213  C 79.7511312217195 41.6453634085213  80.6018099547511 42.4824561403509  80.6018099547511 42.4824561403509  C 80.6018099547511 42.4824561403509  80.6018099547511 44.15664160401  80.6018099547511 44.15664160401  C 80.6018099547511 44.15664160401  81.4524886877828 44.5751879699248  81.4524886877828 44.5751879699248  C 81.4524886877828 44.5751879699248  82.7285067873303 42.9010025062657  82.7285067873303 42.9010025062657  C 82.7285067873303 42.9010025062657  83.579185520362 42.9010025062657  83.579185520362 42.9010025062657  C 83.579185520362 42.9010025062657  84.0045248868778 44.15664160401  84.0045248868778 44.15664160401  C 84.0045248868778 44.15664160401  89.1085972850679 45.8308270676692  89.1085972850679 45.8308270676692  C 89.1085972850679 45.8308270676692  89.9592760180996 47.5050125313283  89.9592760180996 47.5050125313283  C 89.9592760180996 47.5050125313283  92.0859728506787 48.3421052631579  92.0859728506787 48.3421052631579  C 92.0859728506787 48.3421052631579  93.3619909502262 50.016290726817  93.3619909502262 50.016290726817  C 93.3619909502262 50.016290726817  92.9366515837104 52.109022556391  92.9366515837104 52.109022556391  C 92.9366515837104 52.109022556391  93.7873303167421 52.5275689223058  93.7873303167421 52.5275689223058  C 93.7873303167421 52.5275689223058  92.5113122171946 53.3646616541353  92.5113122171946 53.3646616541353  C 92.5113122171946 53.3646616541353  91.6606334841629 52.9461152882206  91.6606334841629 52.9461152882206  C 91.6606334841629 52.9461152882206  91.6606334841629 53.7832080200501  91.6606334841629 53.7832080200501  C 91.6606334841629 53.7832080200501  89.9592760180996 54.2017543859649  89.9592760180996 54.2017543859649  C 89.9592760180996 54.2017543859649  90.8099547511312 55.8759398496241  90.8099547511312 55.8759398496241  C 90.8099547511312 55.8759398496241  88.2579185520362 57.1315789473684  88.2579185520362 57.1315789473684  C 88.2579185520362 57.1315789473684  88.2579185520362 57.968671679198  88.2579185520362 57.968671679198  C 88.2579185520362 57.968671679198  85.7058823529412 58.8057644110276  85.7058823529412 58.8057644110276  C 85.7058823529412 58.8057644110276  86.5565610859728 60.8984962406015  86.5565610859728 60.8984962406015  C 86.5565610859728 60.8984962406015  85.2805429864253 62.5726817042607  85.2805429864253 62.5726817042607  C 85.2805429864253 62.5726817042607  83.1538461538461 62.5726817042607  83.1538461538461 62.5726817042607  C 83.1538461538461 62.5726817042607  81.027149321267 63.828320802005  81.027149321267 63.828320802005  C 81.027149321267 63.828320802005  79.3257918552036 63.4097744360902  79.3257918552036 63.4097744360902  C 79.3257918552036 63.4097744360902  78.0497737556561 61.3170426065163  78.0497737556561 61.3170426065163  C 78.0497737556561 61.3170426065163  77.6244343891403 63.4097744360902  77.6244343891403 63.4097744360902  C 77.6244343891403 63.4097744360902  78.9004524886878 67.1766917293233  78.9004524886878 67.1766917293233  C 78.9004524886878 67.1766917293233  78.4751131221719 72.1992481203008  78.4751131221719 72.1992481203008  C 78.4751131221719 72.1992481203008  78.0497737556561 72.6177944862155  78.0497737556561 72.6177944862155  C 78.0497737556561 72.6177944862155  73.7963800904977 71.780701754386  73.7963800904977 71.780701754386  C 73.7963800904977 71.780701754386  71.6696832579186 73.8734335839599  71.6696832579186 73.8734335839599  C 71.6696832579186 73.8734335839599  68.6923076923077 75.1290726817043  68.6923076923077 75.1290726817043  C 68.6923076923077 75.1290726817043  68.6923076923077 75.9661654135338  68.6923076923077 75.9661654135338  C 68.6923076923077 75.9661654135338  67.4162895927602 76.8032581453634  67.4162895927602 76.8032581453634  C 67.4162895927602 76.8032581453634  66.5656108597285 80.5701754385965  66.5656108597285 80.5701754385965  C 66.5656108597285 80.5701754385965  66.9909502262444 85.1741854636591  66.9909502262444 85.1741854636591  C 66.9909502262444 85.1741854636591  65.289592760181 86.8483709273183  65.289592760181 86.8483709273183  C 65.289592760181 86.8483709273183  65.7149321266968 89.359649122807  65.7149321266968 89.359649122807  C 65.7149321266968 89.359649122807  65.289592760181 88.9411027568922  65.289592760181 88.9411027568922  C 65.289592760181 88.9411027568922  64.4389140271493 89.7781954887218  64.4389140271493 89.7781954887218  C 64.4389140271493 89.7781954887218  65.289592760181 91.0338345864662  65.289592760181 91.0338345864662  C 65.289592760181 91.0338345864662  66.1402714932127 91.0338345864662  66.1402714932127 91.0338345864662  C 66.1402714932127 91.0338345864662  65.7149321266968 92.7080200501253  65.7149321266968 92.7080200501253  C 65.7149321266968 92.7080200501253  66.5656108597285 93.5451127819549  66.5656108597285 93.5451127819549  C 66.5656108597285 93.5451127819549  66.1402714932127 94.3822055137845  66.1402714932127 94.3822055137845  C 66.1402714932127 94.3822055137845  66.9909502262444 99.4047619047619  66.9909502262444 99.4047619047619  C 66.9909502262444 99.4047619047619  64.8642533936652 100.660401002506  64.8642533936652 100.660401002506  C 64.8642533936652 100.660401002506  62.737556561086 100.660401002506  62.737556561086 100.660401002506  C 62.737556561086 100.660401002506  61.8868778280543 101.078947368421  61.8868778280543 101.078947368421  C 61.8868778280543 101.078947368421  62.3122171945701 101.916040100251  62.3122171945701 101.916040100251  C 62.3122171945701 101.916040100251  60.1855203619909 101.916040100251  60.1855203619909 101.916040100251  C 60.1855203619909 101.916040100251  59.7601809954751 102.75313283208  59.7601809954751 102.75313283208  C 59.7601809954751 102.75313283208  61.4615384615385 102.75313283208  61.4615384615385 102.75313283208  C 61.4615384615385 102.75313283208  62.3122171945701 103.59022556391  62.3122171945701 103.59022556391  C 62.3122171945701 103.59022556391  65.289592760181 104.427318295739  65.289592760181 104.427318295739  C 65.289592760181 104.427318295739  67.4162895927602 108.612781954887  67.4162895927602 108.612781954887  C 67.4162895927602 108.612781954887  65.289592760181 111.542606516291  65.289592760181 111.542606516291  C 65.289592760181 111.542606516291  64.8642533936652 114.890977443609  64.8642533936652 114.890977443609  C 64.8642533936652 114.890977443609  64.0135746606335 115.309523809524  64.0135746606335 115.309523809524  C 64.0135746606335 115.309523809524  64.0135746606335 116.565162907268  64.0135746606335 116.565162907268  C 64.0135746606335 116.565162907268  65.7149321266968 117.820802005013  65.7149321266968 117.820802005013  C 65.7149321266968 117.820802005013  64.0135746606335 116.983709273183  64.0135746606335 116.983709273183  C 64.0135746606335 116.983709273183  64.0135746606335 118.239348370927  64.0135746606335 118.239348370927  C 64.0135746606335 118.239348370927  64.4389140271493 120.332080200501  64.4389140271493 120.332080200501  C 64.4389140271493 120.332080200501  64.8642533936652 119.913533834586  64.8642533936652 119.913533834586  C 64.8642533936652 119.913533834586  65.7149321266968 121.587719298246  65.7149321266968 121.587719298246  C 65.7149321266968 121.587719298246  68.6923076923077 121.587719298246  68.6923076923077 121.587719298246  C 68.6923076923077 121.587719298246  67.841628959276 122.424812030075  67.841628959276 122.424812030075  C 67.841628959276 122.424812030075  67.841628959276 123.68045112782  67.841628959276 123.68045112782  C 67.841628959276 123.68045112782  69.1176470588235 124.936090225564  69.1176470588235 124.936090225564  C 69.1176470588235 124.936090225564  67.4162895927602 125.354636591479  67.4162895927602 125.354636591479  C 67.4162895927602 125.354636591479  68.6923076923077 126.610275689223  68.6923076923077 126.610275689223  C 68.6923076923077 126.610275689223  68.2669683257919 128.703007518797  68.2669683257919 128.703007518797  C 68.2669683257919 128.703007518797  68.6923076923077 129.958646616541  68.6923076923077 129.958646616541  C 68.6923076923077 129.958646616541  69.9683257918552 129.540100250627  69.9683257918552 129.540100250627  C 69.9683257918552 129.540100250627  71.2443438914027 130.377192982456  71.2443438914027 130.377192982456  C 71.2443438914027 130.377192982456  66.9909502262444 133.30701754386  66.9909502262444 133.30701754386  C 66.9909502262444 133.30701754386  66.5656108597285 136.236842105263  66.5656108597285 136.236842105263  C 66.5656108597285 136.236842105263  67.4162895927602 136.655388471178  67.4162895927602 136.655388471178  C 67.4162895927602 136.655388471178  66.1402714932127 137.911027568922  66.1402714932127 137.911027568922  C 66.1402714932127 137.911027568922  66.1402714932127 138.748120300752  66.1402714932127 138.748120300752  C 66.1402714932127 138.748120300752  67.841628959276 139.585213032581  67.841628959276 139.585213032581  C 67.841628959276 139.585213032581  67.841628959276 141.259398496241  67.841628959276 141.259398496241  C 67.841628959276 141.259398496241  69.1176470588235 141.259398496241  69.1176470588235 141.259398496241  C 69.1176470588235 141.259398496241  68.6923076923077 145.863408521303  68.6923076923077 145.863408521303  C 68.6923076923077 145.863408521303  71.6696832579186 145.863408521303  71.6696832579186 145.863408521303  C 71.6696832579186 145.863408521303  71.6696832579186 146.700501253133  71.6696832579186 146.700501253133  C 71.6696832579186 146.700501253133  73.7963800904977 146.700501253133  73.7963800904977 146.700501253133  C 73.7963800904977 146.700501253133  75.4977375565611 150.048872180451  75.4977375565611 150.048872180451  C 75.4977375565611 150.048872180451  76.3484162895928 150.467418546366  76.3484162895928 150.467418546366  C 76.3484162895928 150.467418546366  74.6470588235294 151.304511278195  74.6470588235294 151.304511278195  C 74.6470588235294 151.304511278195  73.7963800904977 152.978696741855  73.7963800904977 152.978696741855  C 73.7963800904977 152.978696741855  73.3710407239819 152.56015037594  73.3710407239819 152.56015037594  C 73.3710407239819 152.56015037594  70.8190045248869 156.745614035088  70.8190045248869 156.745614035088  C 70.8190045248869 156.745614035088  62.3122171945701 166.790726817043  62.3122171945701 166.790726817043  C 62.3122171945701 166.790726817043  61.4615384615385 166.790726817043  61.4615384615385 166.790726817043  C 61.4615384615385 166.790726817043  61.4615384615385 165.953634085213  61.4615384615385 165.953634085213  C 61.4615384615385 165.953634085213  60.1855203619909 166.372180451128  60.1855203619909 166.372180451128  C 60.1855203619909 166.372180451128  60.6108597285068 164.279448621554  60.6108597285068 164.279448621554  C 60.6108597285068 164.279448621554  59.7601809954751 160.931077694236  59.7601809954751 160.931077694236  C 59.7601809954751 160.931077694236  56.7828054298642 161.34962406015  56.7828054298642 161.34962406015  C 56.7828054298642 161.34962406015  55.9321266968326 162.18671679198  55.9321266968326 162.18671679198  C 55.9321266968326 162.18671679198  52.9547511312217 161.34962406015  52.9547511312217 161.34962406015  C 52.9547511312217 161.34962406015  52.9547511312217 163.02380952381  52.9547511312217 163.02380952381  C 52.9547511312217 163.02380952381  49.9773755656109 163.02380952381  49.9773755656109 163.02380952381  C 49.9773755656109 163.02380952381  49.552036199095 160.512531328321  49.552036199095 160.512531328321  C 49.552036199095 160.512531328321  47.8506787330317 160.512531328321  47.8506787330317 160.512531328321  C 47.8506787330317 160.512531328321  47.8506787330317 159.675438596491  47.8506787330317 159.675438596491  C 47.8506787330317 159.675438596491  44.447963800905 159.675438596491  44.447963800905 159.675438596491  C 44.447963800905 159.675438596491  43.5972850678733 158.001253132832  43.5972850678733 158.001253132832  C 43.5972850678733 158.001253132832  41.4705882352941 158.838345864662  41.4705882352941 158.838345864662  C 41.4705882352941 158.838345864662  39.3438914027149 158.001253132832  39.3438914027149 158.001253132832  C 39.3438914027149 158.001253132832  39.7692307692308 160.093984962406  39.7692307692308 160.093984962406  C 39.7692307692308 160.093984962406  38.9185520361991 161.34962406015  38.9185520361991 161.34962406015  C 38.9185520361991 161.34962406015  35.0904977375566 161.768170426065  35.0904977375566 161.768170426065  C 35.0904977375566 161.768170426065  31.262443438914 160.093984962406  31.262443438914 160.093984962406  C 31.262443438914 160.093984962406  31.262443438914 158.419799498747  31.262443438914 158.419799498747  C 31.262443438914 158.419799498747  30.4117647058824 157.582706766917  30.4117647058824 157.582706766917  C 30.4117647058824 157.582706766917  29.1357466063348 157.582706766917  29.1357466063348 157.582706766917  C 29.1357466063348 157.582706766917  27.4343891402715 155.908521303258  27.4343891402715 155.908521303258  C 27.4343891402715 155.908521303258  25.7330316742081 156.327067669173  25.7330316742081 156.327067669173  C 25.7330316742081 156.327067669173  26.158371040724 155.071428571429  26.158371040724 155.071428571429  C 26.158371040724 155.071428571429  24.8823529411765 152.978696741855  24.8823529411765 152.978696741855  C 24.8823529411765 152.978696741855  26.5837104072398 150.048872180451  26.5837104072398 150.048872180451  C 26.5837104072398 150.048872180451  24.8823529411765 148.793233082707  24.8823529411765 148.793233082707  C 24.8823529411765 148.793233082707  24.0316742081448 146.700501253133  24.0316742081448 146.700501253133  C 24.0316742081448 146.700501253133  23.1809954751131 147.537593984962  23.1809954751131 147.537593984962  C 23.1809954751131 147.537593984962  20.6289592760181 147.537593984962  20.6289592760181 147.537593984962  C 20.6289592760181 147.537593984962  19.3529411764706 146.700501253133  19.3529411764706 146.700501253133  C 19.3529411764706 146.700501253133  17.6515837104072 146.700501253133  17.6515837104072 146.700501253133  C 17.6515837104072 146.700501253133  16.8009049773756 145.863408521303  16.8009049773756 145.863408521303  C 16.8009049773756 145.863408521303  14.2488687782805 145.863408521303  14.2488687782805 145.863408521303  C 14.2488687782805 145.863408521303  14.2488687782805 146.700501253133  14.2488687782805 146.700501253133  C 14.2488687782805 146.700501253133  12.972850678733 147.119047619048  12.972850678733 147.119047619048  C 12.972850678733 147.119047619048  13.3981900452489 145.026315789474  13.3981900452489 145.026315789474  C 13.3981900452489 145.026315789474  12.5475113122172 143.770676691729  12.5475113122172 143.770676691729  C 12.5475113122172 143.770676691729  13.3981900452489 142.09649122807  13.3981900452489 142.09649122807  C 13.3981900452489 142.09649122807  9.99547511312217 142.09649122807  9.99547511312217 142.09649122807  C 9.99547511312217 142.09649122807  11.6968325791855 140.003759398496  11.6968325791855 140.003759398496  C 11.6968325791855 140.003759398496  11.2714932126697 139.166666666667  11.2714932126697 139.166666666667  C 11.2714932126697 139.166666666667  9.57013574660633 138.748120300752  9.57013574660633 138.748120300752  C 9.57013574660633 138.748120300752  4.46606334841629 135.399749373434  4.46606334841629 135.399749373434  C 4.46606334841629 135.399749373434  1.91402714932127 136.655388471178  1.91402714932127 136.655388471178  C 1.91402714932127 136.655388471178  1.48868778280543 134.981203007519  1.48868778280543 134.981203007519  Z " stroke-width="2" stroke-dasharray="1,1" stroke="#999999" fill="none" transform="matrix(1 0 0 1 184 647 )" mask="url(#clip36)" />
  </g>
</svg>