<?xml version="1.0" encoding="utf-8"?>
<svg version="1.1" xmlns:xlink="http://www.w3.org/1999/xlink" width="74px" height="71px" xmlns="http://www.w3.org/2000/svg">
  <defs>
    <mask fill="white" id="clip37">
      <path d="M 5.67613636363636 66.9851190476191  C 5.67613636363636 66.9851190476191  5.25568181818182 66.5625  5.25568181818182 66.5625  C 5.25568181818182 66.5625  5.25568181818182 64.0267857142857  5.25568181818182 64.0267857142857  C 5.25568181818182 64.0267857142857  7.77840909090909 63.6041666666667  7.77840909090909 63.6041666666667  C 7.77840909090909 63.6041666666667  8.61931818181818 61.0684523809524  8.61931818181818 61.0684523809524  C 8.61931818181818 61.0684523809524  7.77840909090909 57.6875  7.77840909090909 57.6875  C 7.77840909090909 57.6875  6.9375 57.6875  6.9375 57.6875  C 6.9375 57.6875  6.09659090909091 56.4196428571429  6.09659090909091 56.4196428571429  C 6.09659090909091 56.4196428571429  6.9375 55.9970238095238  6.9375 55.9970238095238  C 6.9375 55.9970238095238  7.35795454545455 54.3065476190476  7.35795454545455 54.3065476190476  C 7.35795454545455 54.3065476190476  6.51704545454546 53.8839285714286  6.51704545454546 53.8839285714286  C 6.51704545454546 53.8839285714286  6.51704545454546 51.7708333333333  6.51704545454546 51.7708333333333  C 6.51704545454546 51.7708333333333  5.67613636363636 50.9255952380952  5.67613636363636 50.9255952380952  C 5.67613636363636 50.9255952380952  6.09659090909091 48.389880952381  6.09659090909091 48.389880952381  C 6.09659090909091 48.389880952381  7.35795454545455 46.2767857142857  7.35795454545455 46.2767857142857  C 7.35795454545455 46.2767857142857  4.83522727272727 42.0505952380952  4.83522727272727 42.0505952380952  C 4.83522727272727 42.0505952380952  5.25568181818182 41.6279761904762  5.25568181818182 41.6279761904762  C 5.25568181818182 41.6279761904762  3.57386363636364 41.6279761904762  3.57386363636364 41.6279761904762  C 3.57386363636364 41.6279761904762  2.73295454545455 40.360119047619  2.73295454545455 40.360119047619  C 2.73295454545455 40.360119047619  2.73295454545455 37.8244047619048  2.73295454545455 37.8244047619048  C 2.73295454545455 37.8244047619048  1.47159090909091 38.2470238095238  1.47159090909091 38.2470238095238  C 1.47159090909091 38.2470238095238  0.210227272727273 34.8660714285714  0.210227272727273 34.8660714285714  C 0.210227272727273 34.8660714285714  0.210227272727273 33.5982142857143  0.210227272727273 33.5982142857143  C 0.210227272727273 33.5982142857143  1.47159090909091 34.0208333333333  1.47159090909091 34.0208333333333  C 1.47159090909091 34.0208333333333  1.89204545454545 31.485119047619  1.89204545454545 31.485119047619  C 1.89204545454545 31.485119047619  1.05113636363636 30.2172619047619  1.05113636363636 30.2172619047619  C 1.05113636363636 30.2172619047619  3.57386363636364 28.9494047619048  3.57386363636364 28.9494047619048  C 3.57386363636364 28.9494047619048  4.83522727272727 29.3720238095238  4.83522727272727 29.3720238095238  C 4.83522727272727 29.3720238095238  6.9375 27.2589285714286  6.9375 27.2589285714286  C 6.9375 27.2589285714286  7.35795454545455 25.9910714285714  7.35795454545455 25.9910714285714  C 7.35795454545455 25.9910714285714  6.09659090909091 25.1458333333333  6.09659090909091 25.1458333333333  C 6.09659090909091 25.1458333333333  4.83522727272727 25.5684523809524  4.83522727272727 25.5684523809524  C 4.83522727272727 25.5684523809524  3.57386363636364 23.8779761904762  3.57386363636364 23.8779761904762  C 3.57386363636364 23.8779761904762  4.83522727272727 21.764880952381  4.83522727272727 21.764880952381  C 4.83522727272727 21.764880952381  8.19886363636364 18.3839285714286  8.19886363636364 18.3839285714286  C 8.19886363636364 18.3839285714286  10.7215909090909 17.9613095238095  10.7215909090909 17.9613095238095  C 10.7215909090909 17.9613095238095  11.5625 17.1160714285714  11.5625 17.1160714285714  C 11.5625 17.1160714285714  11.1420454545455 15.8482142857143  11.1420454545455 15.8482142857143  C 11.1420454545455 15.8482142857143  12.8238636363636 14.5803571428571  12.8238636363636 14.5803571428571  C 12.8238636363636 14.5803571428571  11.9829545454545 12.0446428571429  11.9829545454545 12.0446428571429  C 11.9829545454545 12.0446428571429  14.9261363636364 8.24107142857143  14.9261363636364 8.24107142857143  C 14.9261363636364 8.24107142857143  18.2897727272727 7.39583333333333  18.2897727272727 7.39583333333333  C 18.2897727272727 7.39583333333333  19.1306818181818 8.24107142857143  19.1306818181818 8.24107142857143  C 19.1306818181818 8.24107142857143  20.3920454545455 8.24107142857143  20.3920454545455 8.24107142857143  C 20.3920454545455 8.24107142857143  26.2784090909091 3.5922619047619  26.2784090909091 3.5922619047619  C 26.2784090909091 3.5922619047619  28.8011363636364 5.28273809523809  28.8011363636364 5.28273809523809  C 28.8011363636364 5.28273809523809  32.5852272727273 3.16964285714286  32.5852272727273 3.16964285714286  C 32.5852272727273 3.16964285714286  35.1079545454545 0.633928571428571  35.1079545454545 0.633928571428571  C 35.1079545454545 0.633928571428571  37.2102272727273 1.47916666666667  37.2102272727273 1.47916666666667  C 37.2102272727273 1.47916666666667  39.7329545454545 0.211309523809524  39.7329545454545 0.211309523809524  C 39.7329545454545 0.211309523809524  42.6761363636364 1.05654761904762  42.6761363636364 1.05654761904762  C 42.6761363636364 1.05654761904762  44.7784090909091 0.211309523809524  44.7784090909091 0.211309523809524  C 44.7784090909091 0.211309523809524  45.6193181818182 0.633928571428571  45.6193181818182 0.633928571428571  C 45.6193181818182 0.633928571428571  46.0397727272727 1.90178571428571  46.0397727272727 1.90178571428571  C 46.0397727272727 1.90178571428571  48.5625 1.90178571428571  48.5625 1.90178571428571  C 48.5625 1.90178571428571  49.4034090909091 4.01488095238095  49.4034090909091 4.01488095238095  C 49.4034090909091 4.01488095238095  50.2443181818182 4.4375  50.2443181818182 4.4375  C 50.2443181818182 4.4375  51.0852272727273 8.24107142857143  51.0852272727273 8.24107142857143  C 51.0852272727273 8.24107142857143  53.6079545454545 9.50892857142857  53.6079545454545 9.50892857142857  C 53.6079545454545 9.50892857142857  52.7670454545455 10.7767857142857  52.7670454545455 10.7767857142857  C 52.7670454545455 10.7767857142857  53.1875 14.1577380952381  53.1875 14.1577380952381  C 53.1875 14.1577380952381  56.1306818181818 16.6934523809524  56.1306818181818 16.6934523809524  C 56.1306818181818 16.6934523809524  56.5511363636364 20.4970238095238  56.5511363636364 20.4970238095238  C 56.5511363636364 20.4970238095238  59.9147727272727 19.6517857142857  59.9147727272727 19.6517857142857  C 59.9147727272727 19.6517857142857  59.9147727272727 18.8065476190476  59.9147727272727 18.8065476190476  C 59.9147727272727 18.8065476190476  60.7556818181818 19.2291666666667  60.7556818181818 19.2291666666667  C 60.7556818181818 19.2291666666667  62.0170454545455 17.9613095238095  62.0170454545455 17.9613095238095  C 62.0170454545455 17.9613095238095  63.6988636363636 24.7232142857143  63.6988636363636 24.7232142857143  C 63.6988636363636 24.7232142857143  63.2784090909091 26.8363095238095  63.2784090909091 26.8363095238095  C 63.2784090909091 26.8363095238095  64.1193181818182 28.9494047619048  64.1193181818182 28.9494047619048  C 64.1193181818182 28.9494047619048  64.9602272727273 30.2172619047619  64.9602272727273 30.2172619047619  C 64.9602272727273 30.2172619047619  66.6420454545455 29.3720238095238  66.6420454545455 29.3720238095238  C 66.6420454545455 29.3720238095238  68.7443181818182 29.3720238095238  68.7443181818182 29.3720238095238  C 68.7443181818182 29.3720238095238  71.6875 31.9077380952381  71.6875 31.9077380952381  C 71.6875 31.9077380952381  69.1647727272727 32.3303571428571  69.1647727272727 32.3303571428571  C 69.1647727272727 32.3303571428571  69.1647727272727 34.0208333333333  69.1647727272727 34.0208333333333  C 69.1647727272727 34.0208333333333  71.6875 35.7113095238095  71.6875 35.7113095238095  C 71.6875 35.7113095238095  69.5852272727273 36.1339285714286  69.5852272727273 36.1339285714286  C 69.5852272727273 36.1339285714286  69.5852272727273 37.4017857142857  69.5852272727273 37.4017857142857  C 69.5852272727273 37.4017857142857  70.0056818181818 39.0922619047619  70.0056818181818 39.0922619047619  C 70.0056818181818 39.0922619047619  70.8465909090909 39.0922619047619  70.8465909090909 39.0922619047619  C 70.8465909090909 39.0922619047619  72.1079545454545 37.8244047619048  72.1079545454545 37.8244047619048  C 72.1079545454545 37.8244047619048  73.7897727272727 39.0922619047619  73.7897727272727 39.0922619047619  C 73.7897727272727 39.0922619047619  73.3693181818182 39.9375  73.3693181818182 39.9375  C 73.3693181818182 39.9375  72.5284090909091 39.9375  72.5284090909091 39.9375  C 72.5284090909091 39.9375  71.2670454545455 41.2053571428571  71.2670454545455 41.2053571428571  C 71.2670454545455 41.2053571428571  71.6875 41.6279761904762  71.6875 41.6279761904762  C 71.6875 41.6279761904762  69.5852272727273 41.2053571428571  69.5852272727273 41.2053571428571  C 69.5852272727273 41.2053571428571  69.5852272727273 42.0505952380952  69.5852272727273 42.0505952380952  C 69.5852272727273 42.0505952380952  69.1647727272727 41.2053571428571  69.1647727272727 41.2053571428571  C 69.1647727272727 41.2053571428571  68.3238636363636 41.2053571428571  68.3238636363636 41.2053571428571  C 68.3238636363636 41.2053571428571  67.9034090909091 42.0505952380952  67.9034090909091 42.0505952380952  C 67.9034090909091 42.0505952380952  67.0625 41.2053571428571  67.0625 41.2053571428571  C 67.0625 41.2053571428571  66.2215909090909 42.0505952380952  66.2215909090909 42.0505952380952  C 66.2215909090909 42.0505952380952  64.9602272727273 42.0505952380952  64.9602272727273 42.0505952380952  C 64.9602272727273 42.0505952380952  66.6420454545455 45.0089285714286  66.6420454545455 45.0089285714286  C 66.6420454545455 45.0089285714286  64.9602272727273 46.2767857142857  64.9602272727273 46.2767857142857  C 64.9602272727273 46.2767857142857  65.8011363636364 46.6994047619048  65.8011363636364 46.6994047619048  C 65.8011363636364 46.6994047619048  64.9602272727273 47.5446428571429  64.9602272727273 47.5446428571429  C 64.9602272727273 47.5446428571429  65.8011363636364 47.5446428571429  65.8011363636364 47.5446428571429  C 65.8011363636364 47.5446428571429  65.8011363636364 48.389880952381  65.8011363636364 48.389880952381  C 65.8011363636364 48.389880952381  64.5397727272727 49.235119047619  64.5397727272727 49.235119047619  C 64.5397727272727 49.235119047619  62.0170454545455 50.0803571428571  62.0170454545455 50.0803571428571  C 62.0170454545455 50.0803571428571  60.7556818181818 48.389880952381  60.7556818181818 48.389880952381  C 60.7556818181818 48.389880952381  58.2329545454545 49.235119047619  58.2329545454545 49.235119047619  C 58.2329545454545 49.235119047619  56.9715909090909 53.0386904761905  56.9715909090909 53.0386904761905  C 56.9715909090909 53.0386904761905  54.8693181818182 52.1934523809524  54.8693181818182 52.1934523809524  C 54.8693181818182 52.1934523809524  53.1875 55.5744047619048  53.1875 55.5744047619048  C 53.1875 55.5744047619048  52.3465909090909 54.3065476190476  52.3465909090909 54.3065476190476  C 52.3465909090909 54.3065476190476  49.4034090909091 53.4613095238095  49.4034090909091 53.4613095238095  C 49.4034090909091 53.4613095238095  47.7215909090909 54.3065476190476  47.7215909090909 54.3065476190476  C 47.7215909090909 54.3065476190476  45.6193181818182 56.8422619047619  45.6193181818182 56.8422619047619  C 45.6193181818182 56.8422619047619  45.6193181818182 57.6875  45.6193181818182 57.6875  C 45.6193181818182 57.6875  43.5170454545455 57.264880952381  43.5170454545455 57.264880952381  C 43.5170454545455 57.264880952381  43.9375 59.3779761904762  43.9375 59.3779761904762  C 43.9375 59.3779761904762  42.6761363636364 60.6458333333333  42.6761363636364 60.6458333333333  C 42.6761363636364 60.6458333333333  42.6761363636364 62.7589285714286  42.6761363636364 62.7589285714286  C 42.6761363636364 62.7589285714286  41.4147727272727 63.1815476190476  41.4147727272727 63.1815476190476  C 41.4147727272727 63.1815476190476  41.8352272727273 62.7589285714286  41.8352272727273 62.7589285714286  C 41.8352272727273 62.7589285714286  40.5738636363636 61.9136904761905  40.5738636363636 61.9136904761905  C 40.5738636363636 61.9136904761905  39.7329545454545 59.8005952380952  39.7329545454545 59.8005952380952  C 39.7329545454545 59.8005952380952  38.8920454545455 60.6458333333333  38.8920454545455 60.6458333333333  C 38.8920454545455 60.6458333333333  39.7329545454545 61.4910714285714  39.7329545454545 61.4910714285714  C 39.7329545454545 61.4910714285714  39.3125 62.3363095238095  39.3125 62.3363095238095  C 39.3125 62.3363095238095  35.1079545454545 61.0684523809524  35.1079545454545 61.0684523809524  C 35.1079545454545 61.0684523809524  35.5284090909091 61.4910714285714  35.5284090909091 61.4910714285714  C 35.5284090909091 61.4910714285714  34.6875 62.7589285714286  34.6875 62.7589285714286  C 34.6875 62.7589285714286  32.1647727272727 64.0267857142857  32.1647727272727 64.0267857142857  C 32.1647727272727 64.0267857142857  26.6988636363636 61.4910714285714  26.6988636363636 61.4910714285714  C 26.6988636363636 61.4910714285714  24.1761363636364 61.4910714285714  24.1761363636364 61.4910714285714  C 24.1761363636364 61.4910714285714  23.3352272727273 63.6041666666667  23.3352272727273 63.6041666666667  C 23.3352272727273 63.6041666666667  23.3352272727273 62.7589285714286  23.3352272727273 62.7589285714286  C 23.3352272727273 62.7589285714286  21.6534090909091 63.1815476190476  21.6534090909091 63.1815476190476  C 21.6534090909091 63.1815476190476  21.6534090909091 64.0267857142857  21.6534090909091 64.0267857142857  C 21.6534090909091 64.0267857142857  20.8125 64.0267857142857  20.8125 64.0267857142857  C 20.8125 64.0267857142857  20.3920454545455 64.8720238095238  20.3920454545455 64.8720238095238  C 20.3920454545455 64.8720238095238  18.7102272727273 64.8720238095238  18.7102272727273 64.8720238095238  C 18.7102272727273 64.8720238095238  19.1306818181818 66.1398809523809  19.1306818181818 66.1398809523809  C 19.1306818181818 66.1398809523809  16.6079545454545 66.9851190476191  16.6079545454545 66.9851190476191  C 16.6079545454545 66.9851190476191  14.9261363636364 69.0982142857143  14.9261363636364 69.0982142857143  C 14.9261363636364 69.0982142857143  15.3465909090909 69.9434523809524  15.3465909090909 69.9434523809524  C 15.3465909090909 69.9434523809524  14.5056818181818 69.9434523809524  14.5056818181818 69.9434523809524  C 14.5056818181818 69.9434523809524  14.5056818181818 70.7886904761905  14.5056818181818 70.7886904761905  C 14.5056818181818 70.7886904761905  11.1420454545455 70.7886904761905  11.1420454545455 70.7886904761905  C 11.1420454545455 70.7886904761905  8.61931818181818 69.0982142857143  8.61931818181818 69.0982142857143  C 8.61931818181818 69.0982142857143  6.51704545454546 69.5208333333333  6.51704545454546 69.5208333333333  C 6.51704545454546 69.5208333333333  5.67613636363636 66.9851190476191  5.67613636363636 66.9851190476191  Z " fill-rule="evenodd" />
    </mask>
  </defs>
  <g transform="matrix(1 0 0 1 -284 -784 )">
    <path d="M 5.67613636363636 66.9851190476191  C 5.67613636363636 66.9851190476191  5.25568181818182 66.5625  5.25568181818182 66.5625  C 5.25568181818182 66.5625  5.25568181818182 64.0267857142857  5.25568181818182 64.0267857142857  C 5.25568181818182 64.0267857142857  7.77840909090909 63.6041666666667  7.77840909090909 63.6041666666667  C 7.77840909090909 63.6041666666667  8.61931818181818 61.0684523809524  8.61931818181818 61.0684523809524  C 8.61931818181818 61.0684523809524  7.77840909090909 57.6875  7.77840909090909 57.6875  C 7.77840909090909 57.6875  6.9375 57.6875  6.9375 57.6875  C 6.9375 57.6875  6.09659090909091 56.4196428571429  6.09659090909091 56.4196428571429  C 6.09659090909091 56.4196428571429  6.9375 55.9970238095238  6.9375 55.9970238095238  C 6.9375 55.9970238095238  7.35795454545455 54.3065476190476  7.35795454545455 54.3065476190476  C 7.35795454545455 54.3065476190476  6.51704545454546 53.8839285714286  6.51704545454546 53.8839285714286  C 6.51704545454546 53.8839285714286  6.51704545454546 51.7708333333333  6.51704545454546 51.7708333333333  C 6.51704545454546 51.7708333333333  5.67613636363636 50.9255952380952  5.67613636363636 50.9255952380952  C 5.67613636363636 50.9255952380952  6.09659090909091 48.389880952381  6.09659090909091 48.389880952381  C 6.09659090909091 48.389880952381  7.35795454545455 46.2767857142857  7.35795454545455 46.2767857142857  C 7.35795454545455 46.2767857142857  4.83522727272727 42.0505952380952  4.83522727272727 42.0505952380952  C 4.83522727272727 42.0505952380952  5.25568181818182 41.6279761904762  5.25568181818182 41.6279761904762  C 5.25568181818182 41.6279761904762  3.57386363636364 41.6279761904762  3.57386363636364 41.6279761904762  C 3.57386363636364 41.6279761904762  2.73295454545455 40.360119047619  2.73295454545455 40.360119047619  C 2.73295454545455 40.360119047619  2.73295454545455 37.8244047619048  2.73295454545455 37.8244047619048  C 2.73295454545455 37.8244047619048  1.47159090909091 38.2470238095238  1.47159090909091 38.2470238095238  C 1.47159090909091 38.2470238095238  0.210227272727273 34.8660714285714  0.210227272727273 34.8660714285714  C 0.210227272727273 34.8660714285714  0.210227272727273 33.5982142857143  0.210227272727273 33.5982142857143  C 0.210227272727273 33.5982142857143  1.47159090909091 34.0208333333333  1.47159090909091 34.0208333333333  C 1.47159090909091 34.0208333333333  1.89204545454545 31.485119047619  1.89204545454545 31.485119047619  C 1.89204545454545 31.485119047619  1.05113636363636 30.2172619047619  1.05113636363636 30.2172619047619  C 1.05113636363636 30.2172619047619  3.57386363636364 28.9494047619048  3.57386363636364 28.9494047619048  C 3.57386363636364 28.9494047619048  4.83522727272727 29.3720238095238  4.83522727272727 29.3720238095238  C 4.83522727272727 29.3720238095238  6.9375 27.2589285714286  6.9375 27.2589285714286  C 6.9375 27.2589285714286  7.35795454545455 25.9910714285714  7.35795454545455 25.9910714285714  C 7.35795454545455 25.9910714285714  6.09659090909091 25.1458333333333  6.09659090909091 25.1458333333333  C 6.09659090909091 25.1458333333333  4.83522727272727 25.5684523809524  4.83522727272727 25.5684523809524  C 4.83522727272727 25.5684523809524  3.57386363636364 23.8779761904762  3.57386363636364 23.8779761904762  C 3.57386363636364 23.8779761904762  4.83522727272727 21.764880952381  4.83522727272727 21.764880952381  C 4.83522727272727 21.764880952381  8.19886363636364 18.3839285714286  8.19886363636364 18.3839285714286  C 8.19886363636364 18.3839285714286  10.7215909090909 17.9613095238095  10.7215909090909 17.9613095238095  C 10.7215909090909 17.9613095238095  11.5625 17.1160714285714  11.5625 17.1160714285714  C 11.5625 17.1160714285714  11.1420454545455 15.8482142857143  11.1420454545455 15.8482142857143  C 11.1420454545455 15.8482142857143  12.8238636363636 14.5803571428571  12.8238636363636 14.5803571428571  C 12.8238636363636 14.5803571428571  11.9829545454545 12.0446428571429  11.9829545454545 12.0446428571429  C 11.9829545454545 12.0446428571429  14.9261363636364 8.24107142857143  14.9261363636364 8.24107142857143  C 14.9261363636364 8.24107142857143  18.2897727272727 7.39583333333333  18.2897727272727 7.39583333333333  C 18.2897727272727 7.39583333333333  19.1306818181818 8.24107142857143  19.1306818181818 8.24107142857143  C 19.1306818181818 8.24107142857143  20.3920454545455 8.24107142857143  20.3920454545455 8.24107142857143  C 20.3920454545455 8.24107142857143  26.2784090909091 3.5922619047619  26.2784090909091 3.5922619047619  C 26.2784090909091 3.5922619047619  28.8011363636364 5.28273809523809  28.8011363636364 5.28273809523809  C 28.8011363636364 5.28273809523809  32.5852272727273 3.16964285714286  32.5852272727273 3.16964285714286  C 32.5852272727273 3.16964285714286  35.1079545454545 0.633928571428571  35.1079545454545 0.633928571428571  C 35.1079545454545 0.633928571428571  37.2102272727273 1.47916666666667  37.2102272727273 1.47916666666667  C 37.2102272727273 1.47916666666667  39.7329545454545 0.211309523809524  39.7329545454545 0.211309523809524  C 39.7329545454545 0.211309523809524  42.6761363636364 1.05654761904762  42.6761363636364 1.05654761904762  C 42.6761363636364 1.05654761904762  44.7784090909091 0.211309523809524  44.7784090909091 0.211309523809524  C 44.7784090909091 0.211309523809524  45.6193181818182 0.633928571428571  45.6193181818182 0.633928571428571  C 45.6193181818182 0.633928571428571  46.0397727272727 1.90178571428571  46.0397727272727 1.90178571428571  C 46.0397727272727 1.90178571428571  48.5625 1.90178571428571  48.5625 1.90178571428571  C 48.5625 1.90178571428571  49.4034090909091 4.01488095238095  49.4034090909091 4.01488095238095  C 49.4034090909091 4.01488095238095  50.2443181818182 4.4375  50.2443181818182 4.4375  C 50.2443181818182 4.4375  51.0852272727273 8.24107142857143  51.0852272727273 8.24107142857143  C 51.0852272727273 8.24107142857143  53.6079545454545 9.50892857142857  53.6079545454545 9.50892857142857  C 53.6079545454545 9.50892857142857  52.7670454545455 10.7767857142857  52.7670454545455 10.7767857142857  C 52.7670454545455 10.7767857142857  53.1875 14.1577380952381  53.1875 14.1577380952381  C 53.1875 14.1577380952381  56.1306818181818 16.6934523809524  56.1306818181818 16.6934523809524  C 56.1306818181818 16.6934523809524  56.5511363636364 20.4970238095238  56.5511363636364 20.4970238095238  C 56.5511363636364 20.4970238095238  59.9147727272727 19.6517857142857  59.9147727272727 19.6517857142857  C 59.9147727272727 19.6517857142857  59.9147727272727 18.8065476190476  59.9147727272727 18.8065476190476  C 59.9147727272727 18.8065476190476  60.7556818181818 19.2291666666667  60.7556818181818 19.2291666666667  C 60.7556818181818 19.2291666666667  62.0170454545455 17.9613095238095  62.0170454545455 17.9613095238095  C 62.0170454545455 17.9613095238095  63.6988636363636 24.7232142857143  63.6988636363636 24.7232142857143  C 63.6988636363636 24.7232142857143  63.2784090909091 26.8363095238095  63.2784090909091 26.8363095238095  C 63.2784090909091 26.8363095238095  64.1193181818182 28.9494047619048  64.1193181818182 28.9494047619048  C 64.1193181818182 28.9494047619048  64.9602272727273 30.2172619047619  64.9602272727273 30.2172619047619  C 64.9602272727273 30.2172619047619  66.6420454545455 29.3720238095238  66.6420454545455 29.3720238095238  C 66.6420454545455 29.3720238095238  68.7443181818182 29.3720238095238  68.7443181818182 29.3720238095238  C 68.7443181818182 29.3720238095238  71.6875 31.9077380952381  71.6875 31.9077380952381  C 71.6875 31.9077380952381  69.1647727272727 32.3303571428571  69.1647727272727 32.3303571428571  C 69.1647727272727 32.3303571428571  69.1647727272727 34.0208333333333  69.1647727272727 34.0208333333333  C 69.1647727272727 34.0208333333333  71.6875 35.7113095238095  71.6875 35.7113095238095  C 71.6875 35.7113095238095  69.5852272727273 36.1339285714286  69.5852272727273 36.1339285714286  C 69.5852272727273 36.1339285714286  69.5852272727273 37.4017857142857  69.5852272727273 37.4017857142857  C 69.5852272727273 37.4017857142857  70.0056818181818 39.0922619047619  70.0056818181818 39.0922619047619  C 70.0056818181818 39.0922619047619  70.8465909090909 39.0922619047619  70.8465909090909 39.0922619047619  C 70.8465909090909 39.0922619047619  72.1079545454545 37.8244047619048  72.1079545454545 37.8244047619048  C 72.1079545454545 37.8244047619048  73.7897727272727 39.0922619047619  73.7897727272727 39.0922619047619  C 73.7897727272727 39.0922619047619  73.3693181818182 39.9375  73.3693181818182 39.9375  C 73.3693181818182 39.9375  72.5284090909091 39.9375  72.5284090909091 39.9375  C 72.5284090909091 39.9375  71.2670454545455 41.2053571428571  71.2670454545455 41.2053571428571  C 71.2670454545455 41.2053571428571  71.6875 41.6279761904762  71.6875 41.6279761904762  C 71.6875 41.6279761904762  69.5852272727273 41.2053571428571  69.5852272727273 41.2053571428571  C 69.5852272727273 41.2053571428571  69.5852272727273 42.0505952380952  69.5852272727273 42.0505952380952  C 69.5852272727273 42.0505952380952  69.1647727272727 41.2053571428571  69.1647727272727 41.2053571428571  C 69.1647727272727 41.2053571428571  68.3238636363636 41.2053571428571  68.3238636363636 41.2053571428571  C 68.3238636363636 41.2053571428571  67.9034090909091 42.0505952380952  67.9034090909091 42.0505952380952  C 67.9034090909091 42.0505952380952  67.0625 41.2053571428571  67.0625 41.2053571428571  C 67.0625 41.2053571428571  66.2215909090909 42.0505952380952  66.2215909090909 42.0505952380952  C 66.2215909090909 42.0505952380952  64.9602272727273 42.0505952380952  64.9602272727273 42.0505952380952  C 64.9602272727273 42.0505952380952  66.6420454545455 45.0089285714286  66.6420454545455 45.0089285714286  C 66.6420454545455 45.0089285714286  64.9602272727273 46.2767857142857  64.9602272727273 46.2767857142857  C 64.9602272727273 46.2767857142857  65.8011363636364 46.6994047619048  65.8011363636364 46.6994047619048  C 65.8011363636364 46.6994047619048  64.9602272727273 47.5446428571429  64.9602272727273 47.5446428571429  C 64.9602272727273 47.5446428571429  65.8011363636364 47.5446428571429  65.8011363636364 47.5446428571429  C 65.8011363636364 47.5446428571429  65.8011363636364 48.389880952381  65.8011363636364 48.389880952381  C 65.8011363636364 48.389880952381  64.5397727272727 49.235119047619  64.5397727272727 49.235119047619  C 64.5397727272727 49.235119047619  62.0170454545455 50.0803571428571  62.0170454545455 50.0803571428571  C 62.0170454545455 50.0803571428571  60.7556818181818 48.389880952381  60.7556818181818 48.389880952381  C 60.7556818181818 48.389880952381  58.2329545454545 49.235119047619  58.2329545454545 49.235119047619  C 58.2329545454545 49.235119047619  56.9715909090909 53.0386904761905  56.9715909090909 53.0386904761905  C 56.9715909090909 53.0386904761905  54.8693181818182 52.1934523809524  54.8693181818182 52.1934523809524  C 54.8693181818182 52.1934523809524  53.1875 55.5744047619048  53.1875 55.5744047619048  C 53.1875 55.5744047619048  52.3465909090909 54.3065476190476  52.3465909090909 54.3065476190476  C 52.3465909090909 54.3065476190476  49.4034090909091 53.4613095238095  49.4034090909091 53.4613095238095  C 49.4034090909091 53.4613095238095  47.7215909090909 54.3065476190476  47.7215909090909 54.3065476190476  C 47.7215909090909 54.3065476190476  45.6193181818182 56.8422619047619  45.6193181818182 56.8422619047619  C 45.6193181818182 56.8422619047619  45.6193181818182 57.6875  45.6193181818182 57.6875  C 45.6193181818182 57.6875  43.5170454545455 57.264880952381  43.5170454545455 57.264880952381  C 43.5170454545455 57.264880952381  43.9375 59.3779761904762  43.9375 59.3779761904762  C 43.9375 59.3779761904762  42.6761363636364 60.6458333333333  42.6761363636364 60.6458333333333  C 42.6761363636364 60.6458333333333  42.6761363636364 62.7589285714286  42.6761363636364 62.7589285714286  C 42.6761363636364 62.7589285714286  41.4147727272727 63.1815476190476  41.4147727272727 63.1815476190476  C 41.4147727272727 63.1815476190476  41.8352272727273 62.7589285714286  41.8352272727273 62.7589285714286  C 41.8352272727273 62.7589285714286  40.5738636363636 61.9136904761905  40.5738636363636 61.9136904761905  C 40.5738636363636 61.9136904761905  39.7329545454545 59.8005952380952  39.7329545454545 59.8005952380952  C 39.7329545454545 59.8005952380952  38.8920454545455 60.6458333333333  38.8920454545455 60.6458333333333  C 38.8920454545455 60.6458333333333  39.7329545454545 61.4910714285714  39.7329545454545 61.4910714285714  C 39.7329545454545 61.4910714285714  39.3125 62.3363095238095  39.3125 62.3363095238095  C 39.3125 62.3363095238095  35.1079545454545 61.0684523809524  35.1079545454545 61.0684523809524  C 35.1079545454545 61.0684523809524  35.5284090909091 61.4910714285714  35.5284090909091 61.4910714285714  C 35.5284090909091 61.4910714285714  34.6875 62.7589285714286  34.6875 62.7589285714286  C 34.6875 62.7589285714286  32.1647727272727 64.0267857142857  32.1647727272727 64.0267857142857  C 32.1647727272727 64.0267857142857  26.6988636363636 61.4910714285714  26.6988636363636 61.4910714285714  C 26.6988636363636 61.4910714285714  24.1761363636364 61.4910714285714  24.1761363636364 61.4910714285714  C 24.1761363636364 61.4910714285714  23.3352272727273 63.6041666666667  23.3352272727273 63.6041666666667  C 23.3352272727273 63.6041666666667  23.3352272727273 62.7589285714286  23.3352272727273 62.7589285714286  C 23.3352272727273 62.7589285714286  21.6534090909091 63.1815476190476  21.6534090909091 63.1815476190476  C 21.6534090909091 63.1815476190476  21.6534090909091 64.0267857142857  21.6534090909091 64.0267857142857  C 21.6534090909091 64.0267857142857  20.8125 64.0267857142857  20.8125 64.0267857142857  C 20.8125 64.0267857142857  20.3920454545455 64.8720238095238  20.3920454545455 64.8720238095238  C 20.3920454545455 64.8720238095238  18.7102272727273 64.8720238095238  18.7102272727273 64.8720238095238  C 18.7102272727273 64.8720238095238  19.1306818181818 66.1398809523809  19.1306818181818 66.1398809523809  C 19.1306818181818 66.1398809523809  16.6079545454545 66.9851190476191  16.6079545454545 66.9851190476191  C 16.6079545454545 66.9851190476191  14.9261363636364 69.0982142857143  14.9261363636364 69.0982142857143  C 14.9261363636364 69.0982142857143  15.3465909090909 69.9434523809524  15.3465909090909 69.9434523809524  C 15.3465909090909 69.9434523809524  14.5056818181818 69.9434523809524  14.5056818181818 69.9434523809524  C 14.5056818181818 69.9434523809524  14.5056818181818 70.7886904761905  14.5056818181818 70.7886904761905  C 14.5056818181818 70.7886904761905  11.1420454545455 70.7886904761905  11.1420454545455 70.7886904761905  C 11.1420454545455 70.7886904761905  8.61931818181818 69.0982142857143  8.61931818181818 69.0982142857143  C 8.61931818181818 69.0982142857143  6.51704545454546 69.5208333333333  6.51704545454546 69.5208333333333  C 6.51704545454546 69.5208333333333  5.67613636363636 66.9851190476191  5.67613636363636 66.9851190476191  Z " fill-rule="nonzero" fill="#ffffff" stroke="none" fill-opacity="0" transform="matrix(1 0 0 1 284 784 )" />
    <path d="M 5.67613636363636 66.9851190476191  C 5.67613636363636 66.9851190476191  5.25568181818182 66.5625  5.25568181818182 66.5625  C 5.25568181818182 66.5625  5.25568181818182 64.0267857142857  5.25568181818182 64.0267857142857  C 5.25568181818182 64.0267857142857  7.77840909090909 63.6041666666667  7.77840909090909 63.6041666666667  C 7.77840909090909 63.6041666666667  8.61931818181818 61.0684523809524  8.61931818181818 61.0684523809524  C 8.61931818181818 61.0684523809524  7.77840909090909 57.6875  7.77840909090909 57.6875  C 7.77840909090909 57.6875  6.9375 57.6875  6.9375 57.6875  C 6.9375 57.6875  6.09659090909091 56.4196428571429  6.09659090909091 56.4196428571429  C 6.09659090909091 56.4196428571429  6.9375 55.9970238095238  6.9375 55.9970238095238  C 6.9375 55.9970238095238  7.35795454545455 54.3065476190476  7.35795454545455 54.3065476190476  C 7.35795454545455 54.3065476190476  6.51704545454546 53.8839285714286  6.51704545454546 53.8839285714286  C 6.51704545454546 53.8839285714286  6.51704545454546 51.7708333333333  6.51704545454546 51.7708333333333  C 6.51704545454546 51.7708333333333  5.67613636363636 50.9255952380952  5.67613636363636 50.9255952380952  C 5.67613636363636 50.9255952380952  6.09659090909091 48.389880952381  6.09659090909091 48.389880952381  C 6.09659090909091 48.389880952381  7.35795454545455 46.2767857142857  7.35795454545455 46.2767857142857  C 7.35795454545455 46.2767857142857  4.83522727272727 42.0505952380952  4.83522727272727 42.0505952380952  C 4.83522727272727 42.0505952380952  5.25568181818182 41.6279761904762  5.25568181818182 41.6279761904762  C 5.25568181818182 41.6279761904762  3.57386363636364 41.6279761904762  3.57386363636364 41.6279761904762  C 3.57386363636364 41.6279761904762  2.73295454545455 40.360119047619  2.73295454545455 40.360119047619  C 2.73295454545455 40.360119047619  2.73295454545455 37.8244047619048  2.73295454545455 37.8244047619048  C 2.73295454545455 37.8244047619048  1.47159090909091 38.2470238095238  1.47159090909091 38.2470238095238  C 1.47159090909091 38.2470238095238  0.210227272727273 34.8660714285714  0.210227272727273 34.8660714285714  C 0.210227272727273 34.8660714285714  0.210227272727273 33.5982142857143  0.210227272727273 33.5982142857143  C 0.210227272727273 33.5982142857143  1.47159090909091 34.0208333333333  1.47159090909091 34.0208333333333  C 1.47159090909091 34.0208333333333  1.89204545454545 31.485119047619  1.89204545454545 31.485119047619  C 1.89204545454545 31.485119047619  1.05113636363636 30.2172619047619  1.05113636363636 30.2172619047619  C 1.05113636363636 30.2172619047619  3.57386363636364 28.9494047619048  3.57386363636364 28.9494047619048  C 3.57386363636364 28.9494047619048  4.83522727272727 29.3720238095238  4.83522727272727 29.3720238095238  C 4.83522727272727 29.3720238095238  6.9375 27.2589285714286  6.9375 27.2589285714286  C 6.9375 27.2589285714286  7.35795454545455 25.9910714285714  7.35795454545455 25.9910714285714  C 7.35795454545455 25.9910714285714  6.09659090909091 25.1458333333333  6.09659090909091 25.1458333333333  C 6.09659090909091 25.1458333333333  4.83522727272727 25.5684523809524  4.83522727272727 25.5684523809524  C 4.83522727272727 25.5684523809524  3.57386363636364 23.8779761904762  3.57386363636364 23.8779761904762  C 3.57386363636364 23.8779761904762  4.83522727272727 21.764880952381  4.83522727272727 21.764880952381  C 4.83522727272727 21.764880952381  8.19886363636364 18.3839285714286  8.19886363636364 18.3839285714286  C 8.19886363636364 18.3839285714286  10.7215909090909 17.9613095238095  10.7215909090909 17.9613095238095  C 10.7215909090909 17.9613095238095  11.5625 17.1160714285714  11.5625 17.1160714285714  C 11.5625 17.1160714285714  11.1420454545455 15.8482142857143  11.1420454545455 15.8482142857143  C 11.1420454545455 15.8482142857143  12.8238636363636 14.5803571428571  12.8238636363636 14.5803571428571  C 12.8238636363636 14.5803571428571  11.9829545454545 12.0446428571429  11.9829545454545 12.0446428571429  C 11.9829545454545 12.0446428571429  14.9261363636364 8.24107142857143  14.9261363636364 8.24107142857143  C 14.9261363636364 8.24107142857143  18.2897727272727 7.39583333333333  18.2897727272727 7.39583333333333  C 18.2897727272727 7.39583333333333  19.1306818181818 8.24107142857143  19.1306818181818 8.24107142857143  C 19.1306818181818 8.24107142857143  20.3920454545455 8.24107142857143  20.3920454545455 8.24107142857143  C 20.3920454545455 8.24107142857143  26.2784090909091 3.5922619047619  26.2784090909091 3.5922619047619  C 26.2784090909091 3.5922619047619  28.8011363636364 5.28273809523809  28.8011363636364 5.28273809523809  C 28.8011363636364 5.28273809523809  32.5852272727273 3.16964285714286  32.5852272727273 3.16964285714286  C 32.5852272727273 3.16964285714286  35.1079545454545 0.633928571428571  35.1079545454545 0.633928571428571  C 35.1079545454545 0.633928571428571  37.2102272727273 1.47916666666667  37.2102272727273 1.47916666666667  C 37.2102272727273 1.47916666666667  39.7329545454545 0.211309523809524  39.7329545454545 0.211309523809524  C 39.7329545454545 0.211309523809524  42.6761363636364 1.05654761904762  42.6761363636364 1.05654761904762  C 42.6761363636364 1.05654761904762  44.7784090909091 0.211309523809524  44.7784090909091 0.211309523809524  C 44.7784090909091 0.211309523809524  45.6193181818182 0.633928571428571  45.6193181818182 0.633928571428571  C 45.6193181818182 0.633928571428571  46.0397727272727 1.90178571428571  46.0397727272727 1.90178571428571  C 46.0397727272727 1.90178571428571  48.5625 1.90178571428571  48.5625 1.90178571428571  C 48.5625 1.90178571428571  49.4034090909091 4.01488095238095  49.4034090909091 4.01488095238095  C 49.4034090909091 4.01488095238095  50.2443181818182 4.4375  50.2443181818182 4.4375  C 50.2443181818182 4.4375  51.0852272727273 8.24107142857143  51.0852272727273 8.24107142857143  C 51.0852272727273 8.24107142857143  53.6079545454545 9.50892857142857  53.6079545454545 9.50892857142857  C 53.6079545454545 9.50892857142857  52.7670454545455 10.7767857142857  52.7670454545455 10.7767857142857  C 52.7670454545455 10.7767857142857  53.1875 14.1577380952381  53.1875 14.1577380952381  C 53.1875 14.1577380952381  56.1306818181818 16.6934523809524  56.1306818181818 16.6934523809524  C 56.1306818181818 16.6934523809524  56.5511363636364 20.4970238095238  56.5511363636364 20.4970238095238  C 56.5511363636364 20.4970238095238  59.9147727272727 19.6517857142857  59.9147727272727 19.6517857142857  C 59.9147727272727 19.6517857142857  59.9147727272727 18.8065476190476  59.9147727272727 18.8065476190476  C 59.9147727272727 18.8065476190476  60.7556818181818 19.2291666666667  60.7556818181818 19.2291666666667  C 60.7556818181818 19.2291666666667  62.0170454545455 17.9613095238095  62.0170454545455 17.9613095238095  C 62.0170454545455 17.9613095238095  63.6988636363636 24.7232142857143  63.6988636363636 24.7232142857143  C 63.6988636363636 24.7232142857143  63.2784090909091 26.8363095238095  63.2784090909091 26.8363095238095  C 63.2784090909091 26.8363095238095  64.1193181818182 28.9494047619048  64.1193181818182 28.9494047619048  C 64.1193181818182 28.9494047619048  64.9602272727273 30.2172619047619  64.9602272727273 30.2172619047619  C 64.9602272727273 30.2172619047619  66.6420454545455 29.3720238095238  66.6420454545455 29.3720238095238  C 66.6420454545455 29.3720238095238  68.7443181818182 29.3720238095238  68.7443181818182 29.3720238095238  C 68.7443181818182 29.3720238095238  71.6875 31.9077380952381  71.6875 31.9077380952381  C 71.6875 31.9077380952381  69.1647727272727 32.3303571428571  69.1647727272727 32.3303571428571  C 69.1647727272727 32.3303571428571  69.1647727272727 34.0208333333333  69.1647727272727 34.0208333333333  C 69.1647727272727 34.0208333333333  71.6875 35.7113095238095  71.6875 35.7113095238095  C 71.6875 35.7113095238095  69.5852272727273 36.1339285714286  69.5852272727273 36.1339285714286  C 69.5852272727273 36.1339285714286  69.5852272727273 37.4017857142857  69.5852272727273 37.4017857142857  C 69.5852272727273 37.4017857142857  70.0056818181818 39.0922619047619  70.0056818181818 39.0922619047619  C 70.0056818181818 39.0922619047619  70.8465909090909 39.0922619047619  70.8465909090909 39.0922619047619  C 70.8465909090909 39.0922619047619  72.1079545454545 37.8244047619048  72.1079545454545 37.8244047619048  C 72.1079545454545 37.8244047619048  73.7897727272727 39.0922619047619  73.7897727272727 39.0922619047619  C 73.7897727272727 39.0922619047619  73.3693181818182 39.9375  73.3693181818182 39.9375  C 73.3693181818182 39.9375  72.5284090909091 39.9375  72.5284090909091 39.9375  C 72.5284090909091 39.9375  71.2670454545455 41.2053571428571  71.2670454545455 41.2053571428571  C 71.2670454545455 41.2053571428571  71.6875 41.6279761904762  71.6875 41.6279761904762  C 71.6875 41.6279761904762  69.5852272727273 41.2053571428571  69.5852272727273 41.2053571428571  C 69.5852272727273 41.2053571428571  69.5852272727273 42.0505952380952  69.5852272727273 42.0505952380952  C 69.5852272727273 42.0505952380952  69.1647727272727 41.2053571428571  69.1647727272727 41.2053571428571  C 69.1647727272727 41.2053571428571  68.3238636363636 41.2053571428571  68.3238636363636 41.2053571428571  C 68.3238636363636 41.2053571428571  67.9034090909091 42.0505952380952  67.9034090909091 42.0505952380952  C 67.9034090909091 42.0505952380952  67.0625 41.2053571428571  67.0625 41.2053571428571  C 67.0625 41.2053571428571  66.2215909090909 42.0505952380952  66.2215909090909 42.0505952380952  C 66.2215909090909 42.0505952380952  64.9602272727273 42.0505952380952  64.9602272727273 42.0505952380952  C 64.9602272727273 42.0505952380952  66.6420454545455 45.0089285714286  66.6420454545455 45.0089285714286  C 66.6420454545455 45.0089285714286  64.9602272727273 46.2767857142857  64.9602272727273 46.2767857142857  C 64.9602272727273 46.2767857142857  65.8011363636364 46.6994047619048  65.8011363636364 46.6994047619048  C 65.8011363636364 46.6994047619048  64.9602272727273 47.5446428571429  64.9602272727273 47.5446428571429  C 64.9602272727273 47.5446428571429  65.8011363636364 47.5446428571429  65.8011363636364 47.5446428571429  C 65.8011363636364 47.5446428571429  65.8011363636364 48.389880952381  65.8011363636364 48.389880952381  C 65.8011363636364 48.389880952381  64.5397727272727 49.235119047619  64.5397727272727 49.235119047619  C 64.5397727272727 49.235119047619  62.0170454545455 50.0803571428571  62.0170454545455 50.0803571428571  C 62.0170454545455 50.0803571428571  60.7556818181818 48.389880952381  60.7556818181818 48.389880952381  C 60.7556818181818 48.389880952381  58.2329545454545 49.235119047619  58.2329545454545 49.235119047619  C 58.2329545454545 49.235119047619  56.9715909090909 53.0386904761905  56.9715909090909 53.0386904761905  C 56.9715909090909 53.0386904761905  54.8693181818182 52.1934523809524  54.8693181818182 52.1934523809524  C 54.8693181818182 52.1934523809524  53.1875 55.5744047619048  53.1875 55.5744047619048  C 53.1875 55.5744047619048  52.3465909090909 54.3065476190476  52.3465909090909 54.3065476190476  C 52.3465909090909 54.3065476190476  49.4034090909091 53.4613095238095  49.4034090909091 53.4613095238095  C 49.4034090909091 53.4613095238095  47.7215909090909 54.3065476190476  47.7215909090909 54.3065476190476  C 47.7215909090909 54.3065476190476  45.6193181818182 56.8422619047619  45.6193181818182 56.8422619047619  C 45.6193181818182 56.8422619047619  45.6193181818182 57.6875  45.6193181818182 57.6875  C 45.6193181818182 57.6875  43.5170454545455 57.264880952381  43.5170454545455 57.264880952381  C 43.5170454545455 57.264880952381  43.9375 59.3779761904762  43.9375 59.3779761904762  C 43.9375 59.3779761904762  42.6761363636364 60.6458333333333  42.6761363636364 60.6458333333333  C 42.6761363636364 60.6458333333333  42.6761363636364 62.7589285714286  42.6761363636364 62.7589285714286  C 42.6761363636364 62.7589285714286  41.4147727272727 63.1815476190476  41.4147727272727 63.1815476190476  C 41.4147727272727 63.1815476190476  41.8352272727273 62.7589285714286  41.8352272727273 62.7589285714286  C 41.8352272727273 62.7589285714286  40.5738636363636 61.9136904761905  40.5738636363636 61.9136904761905  C 40.5738636363636 61.9136904761905  39.7329545454545 59.8005952380952  39.7329545454545 59.8005952380952  C 39.7329545454545 59.8005952380952  38.8920454545455 60.6458333333333  38.8920454545455 60.6458333333333  C 38.8920454545455 60.6458333333333  39.7329545454545 61.4910714285714  39.7329545454545 61.4910714285714  C 39.7329545454545 61.4910714285714  39.3125 62.3363095238095  39.3125 62.3363095238095  C 39.3125 62.3363095238095  35.1079545454545 61.0684523809524  35.1079545454545 61.0684523809524  C 35.1079545454545 61.0684523809524  35.5284090909091 61.4910714285714  35.5284090909091 61.4910714285714  C 35.5284090909091 61.4910714285714  34.6875 62.7589285714286  34.6875 62.7589285714286  C 34.6875 62.7589285714286  32.1647727272727 64.0267857142857  32.1647727272727 64.0267857142857  C 32.1647727272727 64.0267857142857  26.6988636363636 61.4910714285714  26.6988636363636 61.4910714285714  C 26.6988636363636 61.4910714285714  24.1761363636364 61.4910714285714  24.1761363636364 61.4910714285714  C 24.1761363636364 61.4910714285714  23.3352272727273 63.6041666666667  23.3352272727273 63.6041666666667  C 23.3352272727273 63.6041666666667  23.3352272727273 62.7589285714286  23.3352272727273 62.7589285714286  C 23.3352272727273 62.7589285714286  21.6534090909091 63.1815476190476  21.6534090909091 63.1815476190476  C 21.6534090909091 63.1815476190476  21.6534090909091 64.0267857142857  21.6534090909091 64.0267857142857  C 21.6534090909091 64.0267857142857  20.8125 64.0267857142857  20.8125 64.0267857142857  C 20.8125 64.0267857142857  20.3920454545455 64.8720238095238  20.3920454545455 64.8720238095238  C 20.3920454545455 64.8720238095238  18.7102272727273 64.8720238095238  18.7102272727273 64.8720238095238  C 18.7102272727273 64.8720238095238  19.1306818181818 66.1398809523809  19.1306818181818 66.1398809523809  C 19.1306818181818 66.1398809523809  16.6079545454545 66.9851190476191  16.6079545454545 66.9851190476191  C 16.6079545454545 66.9851190476191  14.9261363636364 69.0982142857143  14.9261363636364 69.0982142857143  C 14.9261363636364 69.0982142857143  15.3465909090909 69.9434523809524  15.3465909090909 69.9434523809524  C 15.3465909090909 69.9434523809524  14.5056818181818 69.9434523809524  14.5056818181818 69.9434523809524  C 14.5056818181818 69.9434523809524  14.5056818181818 70.7886904761905  14.5056818181818 70.7886904761905  C 14.5056818181818 70.7886904761905  11.1420454545455 70.7886904761905  11.1420454545455 70.7886904761905  C 11.1420454545455 70.7886904761905  8.61931818181818 69.0982142857143  8.61931818181818 69.0982142857143  C 8.61931818181818 69.0982142857143  6.51704545454546 69.5208333333333  6.51704545454546 69.5208333333333  C 6.51704545454546 69.5208333333333  5.67613636363636 66.9851190476191  5.67613636363636 66.9851190476191  Z " stroke-width="2" stroke-dasharray="1,1" stroke="#999999" fill="none" transform="matrix(1 0 0 1 284 784 )" mask="url(#clip37)" />
  </g>
</svg>