<?xml version="1.0" encoding="utf-8"?>
<svg version="1.1" xmlns:xlink="http://www.w3.org/1999/xlink" width="132px" height="117px" xmlns="http://www.w3.org/2000/svg">
  <defs>
    <mask fill="white" id="clip38">
      <path d="M 32.8938906752412 1.04464285714286  C 32.8938906752412 1.04464285714286  34.1672025723473 0.208928571428571  34.1672025723473 0.208928571428571  C 34.1672025723473 0.208928571428571  35.8649517684887 1.04464285714286  35.8649517684887 1.04464285714286  C 35.8649517684887 1.04464285714286  35.8649517684887 5.22321428571429  35.8649517684887 5.22321428571429  C 35.8649517684887 5.22321428571429  40.1093247588424 5.64107142857143  40.1093247588424 5.64107142857143  C 40.1093247588424 5.64107142857143  39.6848874598071 7.3125  39.6848874598071 7.3125  C 39.6848874598071 7.3125  40.5337620578778 8.98392857142857  40.5337620578778 8.98392857142857  C 40.5337620578778 8.98392857142857  40.5337620578778 11.4910714285714  40.5337620578778 11.4910714285714  C 40.5337620578778 11.4910714285714  42.6559485530547 12.7446428571429  42.6559485530547 12.7446428571429  C 42.6559485530547 12.7446428571429  43.5048231511254 15.2517857142857  43.5048231511254 15.2517857142857  C 43.5048231511254 15.2517857142857  46.475884244373 17.3410714285714  46.475884244373 17.3410714285714  C 46.475884244373 17.3410714285714  46.9003215434084 19.4303571428571  46.9003215434084 19.4303571428571  C 46.9003215434084 19.4303571428571  49.871382636656 19.8482142857143  49.871382636656 19.8482142857143  C 49.871382636656 19.8482142857143  53.6913183279743 21.9375  53.6913183279743 21.9375  C 53.6913183279743 21.9375  56.6623794212219 21.9375  56.6623794212219 21.9375  C 56.6623794212219 21.9375  57.5112540192926 21.1017857142857  57.5112540192926 21.1017857142857  C 57.5112540192926 21.1017857142857  60.9067524115756 20.2660714285714  60.9067524115756 20.2660714285714  C 60.9067524115756 20.2660714285714  63.4533762057878 20.6839285714286  63.4533762057878 20.6839285714286  C 63.4533762057878 20.6839285714286  64.3022508038585 19.8482142857143  64.3022508038585 19.8482142857143  C 64.3022508038585 19.8482142857143  65.1511254019293 20.2660714285714  65.1511254019293 20.2660714285714  C 65.1511254019293 20.2660714285714  69.395498392283 19.0125  69.395498392283 19.0125  C 69.395498392283 19.0125  70.2443729903537 20.6839285714286  70.2443729903537 20.6839285714286  C 70.2443729903537 20.6839285714286  78.3086816720257 20.6839285714286  78.3086816720257 20.6839285714286  C 78.3086816720257 20.6839285714286  79.5819935691318 21.9375  79.5819935691318 21.9375  C 79.5819935691318 21.9375  80.4308681672026 21.1017857142857  80.4308681672026 21.1017857142857  C 80.4308681672026 21.1017857142857  84.2508038585209 21.5196428571429  84.2508038585209 21.5196428571429  C 84.2508038585209 21.5196428571429  89.3440514469453 25.2803571428571  89.3440514469453 25.2803571428571  C 89.3440514469453 25.2803571428571  92.7395498392283 24.4446428571429  92.7395498392283 24.4446428571429  C 92.7395498392283 24.4446428571429  95.2861736334405 26.9517857142857  95.2861736334405 26.9517857142857  C 95.2861736334405 26.9517857142857  95.2861736334405 27.7875  95.2861736334405 27.7875  C 95.2861736334405 27.7875  96.983922829582 28.6232142857143  96.983922829582 28.6232142857143  C 96.983922829582 28.6232142857143  101.652733118971 29.0410714285714  101.652733118971 29.0410714285714  C 101.652733118971 29.0410714285714  104.199356913183 27.7875  104.199356913183 27.7875  C 104.199356913183 27.7875  105.048231511254 25.6982142857143  105.048231511254 25.6982142857143  C 105.048231511254 25.6982142857143  107.594855305466 25.6982142857143  107.594855305466 25.6982142857143  C 107.594855305466 25.6982142857143  109.292604501608 24.4446428571429  109.292604501608 24.4446428571429  C 109.292604501608 24.4446428571429  110.565916398714 24.8625  110.565916398714 24.8625  C 110.565916398714 24.8625  111.83922829582 23.6089285714286  111.83922829582 23.6089285714286  C 111.83922829582 23.6089285714286  115.234726688103 23.1910714285714  115.234726688103 23.1910714285714  C 115.234726688103 23.1910714285714  116.932475884244 23.1910714285714  116.932475884244 23.1910714285714  C 116.932475884244 23.1910714285714  119.054662379421 24.4446428571429  119.054662379421 24.4446428571429  C 119.054662379421 24.4446428571429  119.903536977492 24.0267857142857  119.903536977492 24.0267857142857  C 119.903536977492 24.0267857142857  120.327974276527 25.2803571428571  120.327974276527 25.2803571428571  C 120.327974276527 25.2803571428571  122.450160771704 24.8625  122.450160771704 24.8625  C 122.450160771704 24.8625  124.996784565916 25.6982142857143  124.996784565916 25.6982142857143  C 124.996784565916 25.6982142857143  126.694533762058 24.8625  126.694533762058 24.8625  C 126.694533762058 24.8625  130.090032154341 26.5339285714286  130.090032154341 26.5339285714286  C 130.090032154341 26.5339285714286  131.787781350482 28.6232142857143  131.787781350482 28.6232142857143  C 131.787781350482 28.6232142857143  131.787781350482 29.4589285714286  131.787781350482 29.4589285714286  C 131.787781350482 29.4589285714286  129.665594855305 29.8767857142857  129.665594855305 29.8767857142857  C 129.665594855305 29.8767857142857  129.665594855305 33.2196428571429  129.665594855305 33.2196428571429  C 129.665594855305 33.2196428571429  127.967845659164 33.2196428571429  127.967845659164 33.2196428571429  C 127.967845659164 33.2196428571429  127.118971061093 34.0553571428571  127.118971061093 34.0553571428571  C 127.118971061093 34.0553571428571  125.845659163987 33.6375  125.845659163987 33.6375  C 125.845659163987 33.6375  125.845659163987 31.5482142857143  125.845659163987 31.5482142857143  C 125.845659163987 31.5482142857143  123.72347266881 30.7125  123.72347266881 30.7125  C 123.72347266881 30.7125  123.72347266881 29.8767857142857  123.72347266881 29.8767857142857  C 123.72347266881 29.8767857142857  121.601286173633 30.2946428571429  121.601286173633 30.2946428571429  C 121.601286173633 30.2946428571429  122.87459807074 30.7125  122.87459807074 30.7125  C 122.87459807074 30.7125  122.025723472669 31.1303571428571  122.025723472669 31.1303571428571  C 122.025723472669 31.1303571428571  122.450160771704 31.9660714285714  122.450160771704 31.9660714285714  C 122.450160771704 31.9660714285714  121.601286173633 34.8910714285714  121.601286173633 34.8910714285714  C 121.601286173633 34.8910714285714  119.054662379421 35.3089285714286  119.054662379421 35.3089285714286  C 119.054662379421 35.3089285714286  118.20578778135 34.0553571428571  118.20578778135 34.0553571428571  C 118.20578778135 34.0553571428571  118.630225080386 33.2196428571429  118.630225080386 33.2196428571429  C 118.630225080386 33.2196428571429  117.35691318328 33.6375  117.35691318328 33.6375  C 117.35691318328 33.6375  117.781350482315 36.1446428571429  117.781350482315 36.1446428571429  C 117.781350482315 36.1446428571429  116.083601286174 39.4875  116.083601286174 39.4875  C 116.083601286174 39.4875  117.35691318328 41.9946428571429  117.35691318328 41.9946428571429  C 117.35691318328 41.9946428571429  117.35691318328 44.5017857142857  117.35691318328 44.5017857142857  C 117.35691318328 44.5017857142857  118.630225080386 44.9196428571429  118.630225080386 44.9196428571429  C 118.630225080386 44.9196428571429  117.35691318328 47.0089285714286  117.35691318328 47.0089285714286  C 117.35691318328 47.0089285714286  114.385852090032 45.7553571428571  114.385852090032 45.7553571428571  C 114.385852090032 45.7553571428571  112.263665594855 48.2625  112.263665594855 48.2625  C 112.263665594855 48.2625  110.565916398714 47.8446428571429  110.565916398714 47.8446428571429  C 110.565916398714 47.8446428571429  108.868167202572 45.3375  108.868167202572 45.3375  C 108.868167202572 45.3375  106.745980707396 44.9196428571429  106.745980707396 44.9196428571429  C 106.745980707396 44.9196428571429  106.32154340836 44.0839285714286  106.32154340836 44.0839285714286  C 106.32154340836 44.0839285714286  103.774919614148 45.3375  103.774919614148 45.3375  C 103.774919614148 45.3375  100.379421221865 44.9196428571429  100.379421221865 44.9196428571429  C 100.379421221865 44.9196428571429  98.2572347266881 47.4267857142857  98.2572347266881 47.4267857142857  C 98.2572347266881 47.4267857142857  96.1350482315113 47.4267857142857  96.1350482315113 47.4267857142857  C 96.1350482315113 47.4267857142857  95.2861736334405 48.6803571428571  95.2861736334405 48.6803571428571  C 95.2861736334405 48.6803571428571  93.588424437299 48.6803571428571  93.588424437299 48.6803571428571  C 93.588424437299 48.6803571428571  90.6173633440515 51.1875  90.6173633440515 51.1875  C 90.6173633440515 51.1875  91.0418006430868 52.0232142857143  91.0418006430868 52.0232142857143  C 91.0418006430868 52.0232142857143  90.1929260450161 52.4410714285714  90.1929260450161 52.4410714285714  C 90.1929260450161 52.4410714285714  93.1639871382637 57.0375  93.1639871382637 57.0375  C 93.1639871382637 57.0375  92.7395498392283 57.8732142857143  92.7395498392283 57.8732142857143  C 92.7395498392283 57.8732142857143  85.9485530546624 57.8732142857143  85.9485530546624 57.8732142857143  C 85.9485530546624 57.8732142857143  84.2508038585209 60.7982142857143  84.2508038585209 60.7982142857143  C 84.2508038585209 60.7982142857143  84.2508038585209 61.6339285714286  84.2508038585209 61.6339285714286  C 84.2508038585209 61.6339285714286  85.9485530546624 62.0517857142857  85.9485530546624 62.0517857142857  C 85.9485530546624 62.0517857142857  87.6463022508039 64.9767857142857  87.6463022508039 64.9767857142857  C 87.6463022508039 64.9767857142857  87.2218649517685 65.8125  87.2218649517685 65.8125  C 87.2218649517685 65.8125  87.6463022508039 67.0660714285714  87.6463022508039 67.0660714285714  C 87.6463022508039 67.0660714285714  88.91961414791 67.4839285714286  88.91961414791 67.4839285714286  C 88.91961414791 67.4839285714286  88.0707395498392 68.3196428571429  88.0707395498392 68.3196428571429  C 88.0707395498392 68.3196428571429  88.91961414791 69.5732142857143  88.91961414791 69.5732142857143  C 88.91961414791 69.5732142857143  92.7395498392283 72.4982142857143  92.7395498392283 72.4982142857143  C 92.7395498392283 72.4982142857143  91.8906752411576 74.1696428571428  91.8906752411576 74.1696428571428  C 91.8906752411576 74.1696428571428  88.4951768488746 77.5125  88.4951768488746 77.5125  C 88.4951768488746 77.5125  89.3440514469453 81.6910714285714  89.3440514469453 81.6910714285714  C 89.3440514469453 81.6910714285714  87.6463022508039 83.7803571428571  87.6463022508039 83.7803571428571  C 87.6463022508039 83.7803571428571  87.2218649517685 85.4517857142857  87.2218649517685 85.4517857142857  C 87.2218649517685 85.4517857142857  84.6752411575563 86.2875  84.6752411575563 86.2875  C 84.6752411575563 86.2875  80.8553054662379 85.4517857142857  80.8553054662379 85.4517857142857  C 80.8553054662379 85.4517857142857  78.3086816720257 86.2875  78.3086816720257 86.2875  C 78.3086816720257 86.2875  76.6109324758842 85.8696428571429  76.6109324758842 85.8696428571429  C 76.6109324758842 85.8696428571429  74.064308681672 88.3767857142857  74.064308681672 88.3767857142857  C 74.064308681672 88.3767857142857  70.2443729903537 90.4660714285714  70.2443729903537 90.4660714285714  C 70.2443729903537 90.4660714285714  67.6977491961415 88.7946428571428  67.6977491961415 88.7946428571428  C 67.6977491961415 88.7946428571428  61.3311897106109 93.3910714285714  61.3311897106109 93.3910714285714  C 61.3311897106109 93.3910714285714  60.0578778135048 93.3910714285714  60.0578778135048 93.3910714285714  C 60.0578778135048 93.3910714285714  59.2090032154341 92.5553571428571  59.2090032154341 92.5553571428571  C 59.2090032154341 92.5553571428571  54.9646302250804 93.8089285714286  54.9646302250804 93.8089285714286  C 54.9646302250804 93.8089285714286  52.8424437299035 97.1517857142857  52.8424437299035 97.1517857142857  C 52.8424437299035 97.1517857142857  53.6913183279743 99.6589285714286  53.6913183279743 99.6589285714286  C 53.6913183279743 99.6589285714286  51.9935691318328 100.9125  51.9935691318328 100.9125  C 51.9935691318328 100.9125  52.4180064308682 102.166071428571  52.4180064308682 102.166071428571  C 52.4180064308682 102.166071428571  47.3247588424437 104.673214285714  47.3247588424437 104.673214285714  C 47.3247588424437 104.673214285714  47.3247588424437 105.508928571429  47.3247588424437 105.508928571429  C 47.3247588424437 105.508928571429  45.6270096463022 106.7625  45.6270096463022 106.7625  C 45.6270096463022 106.7625  44.3536977491961 108.851785714286  44.3536977491961 108.851785714286  C 44.3536977491961 108.851785714286  45.6270096463022 110.523214285714  45.6270096463022 110.523214285714  C 45.6270096463022 110.523214285714  46.9003215434084 110.105357142857  46.9003215434084 110.105357142857  C 46.9003215434084 110.105357142857  48.1736334405145 110.941071428571  48.1736334405145 110.941071428571  C 48.1736334405145 110.941071428571  47.7491961414791 112.194642857143  47.7491961414791 112.194642857143  C 47.7491961414791 112.194642857143  45.6270096463022 114.283928571429  45.6270096463022 114.283928571429  C 45.6270096463022 114.283928571429  43.5048231511254 113.866071428571  43.5048231511254 113.866071428571  C 43.5048231511254 113.866071428571  40.9581993569132 114.701785714286  40.9581993569132 114.701785714286  C 40.9581993569132 114.701785714286  39.6848874598071 116.791071428571  39.6848874598071 116.791071428571  C 39.6848874598071 116.791071428571  37.5627009646302 116.373214285714  37.5627009646302 116.373214285714  C 37.5627009646302 116.373214285714  37.1382636655949 115.119642857143  37.1382636655949 115.119642857143  C 37.1382636655949 115.119642857143  35.4405144694534 114.283928571429  35.4405144694534 114.283928571429  C 35.4405144694534 114.283928571429  36.7138263665595 113.448214285714  36.7138263665595 113.448214285714  C 36.7138263665595 113.448214285714  35.4405144694534 113.030357142857  35.4405144694534 113.030357142857  C 35.4405144694534 113.030357142857  33.3183279742765 109.269642857143  33.3183279742765 109.269642857143  C 33.3183279742765 109.269642857143  32.0450160771704 103.001785714286  32.0450160771704 103.001785714286  C 32.0450160771704 103.001785714286  29.4983922829582 102.583928571429  29.4983922829582 102.583928571429  C 29.4983922829582 102.583928571429  28.2250803858521 98.8232142857143  28.2250803858521 98.8232142857143  C 28.2250803858521 98.8232142857143  26.951768488746 98.8232142857143  26.951768488746 98.8232142857143  C 26.951768488746 98.8232142857143  25.2540192926045 100.076785714286  25.2540192926045 100.076785714286  C 25.2540192926045 100.076785714286  25.6784565916399 101.330357142857  25.6784565916399 101.330357142857  C 25.6784565916399 101.330357142857  24.8295819935691 101.330357142857  24.8295819935691 101.330357142857  C 24.8295819935691 101.330357142857  24.8295819935691 103.8375  24.8295819935691 103.8375  C 24.8295819935691 103.8375  22.7073954983923 104.673214285714  22.7073954983923 104.673214285714  C 22.7073954983923 104.673214285714  21.0096463022508 103.001785714286  21.0096463022508 103.001785714286  C 21.0096463022508 103.001785714286  18.887459807074 103.001785714286  18.887459807074 103.001785714286  C 18.887459807074 103.001785714286  18.0385852090032 106.344642857143  18.0385852090032 106.344642857143  C 18.0385852090032 106.344642857143  16.3408360128617 107.598214285714  16.3408360128617 107.598214285714  C 16.3408360128617 107.598214285714  15.9163987138264 106.7625  15.9163987138264 106.7625  C 15.9163987138264 106.7625  15.0675241157556 107.180357142857  15.0675241157556 107.180357142857  C 15.0675241157556 107.180357142857  11.2475884244373 105.091071428571  11.2475884244373 105.091071428571  C 11.2475884244373 105.091071428571  13.7942122186495 100.076785714286  13.7942122186495 100.076785714286  C 13.7942122186495 100.076785714286  14.2186495176849 100.494642857143  14.2186495176849 100.494642857143  C 14.2186495176849 100.494642857143  15.0675241157556 98.8232142857143  15.0675241157556 98.8232142857143  C 15.0675241157556 98.8232142857143  16.7652733118971 97.9875  16.7652733118971 97.9875  C 16.7652733118971 97.9875  15.9163987138264 97.5696428571429  15.9163987138264 97.5696428571429  C 15.9163987138264 97.5696428571429  14.2186495176849 94.2267857142857  14.2186495176849 94.2267857142857  C 14.2186495176849 94.2267857142857  12.096463022508 94.2267857142857  12.096463022508 94.2267857142857  C 12.096463022508 94.2267857142857  12.096463022508 93.3910714285714  12.096463022508 93.3910714285714  C 12.096463022508 93.3910714285714  9.12540192926045 93.3910714285714  9.12540192926045 93.3910714285714  C 9.12540192926045 93.3910714285714  9.97427652733119 90.0482142857143  9.97427652733119 90.0482142857143  C 9.97427652733119 90.0482142857143  9.54983922829582 88.7946428571428  9.54983922829582 88.7946428571428  C 9.54983922829582 88.7946428571428  8.27652733118971 88.7946428571428  8.27652733118971 88.7946428571428  C 8.27652733118971 88.7946428571428  8.27652733118971 87.1232142857143  8.27652733118971 87.1232142857143  C 8.27652733118971 87.1232142857143  6.57877813504823 86.2875  6.57877813504823 86.2875  C 6.57877813504823 86.2875  6.57877813504823 85.4517857142857  6.57877813504823 85.4517857142857  C 6.57877813504823 85.4517857142857  7.85209003215434 84.1982142857143  7.85209003215434 84.1982142857143  C 7.85209003215434 84.1982142857143  7.0032154340836 83.7803571428571  7.0032154340836 83.7803571428571  C 7.0032154340836 83.7803571428571  7.42765273311897 80.8553571428571  7.42765273311897 80.8553571428571  C 7.42765273311897 80.8553571428571  11.6720257234727 77.9303571428571  11.6720257234727 77.9303571428571  C 11.6720257234727 77.9303571428571  9.12540192926045 77.5125  9.12540192926045 77.5125  C 9.12540192926045 77.5125  8.70096463022508 76.2589285714286  8.70096463022508 76.2589285714286  C 8.70096463022508 76.2589285714286  9.12540192926045 74.1696428571428  9.12540192926045 74.1696428571428  C 9.12540192926045 74.1696428571428  7.85209003215434 72.9160714285714  7.85209003215434 72.9160714285714  C 7.85209003215434 72.9160714285714  9.54983922829582 72.4982142857143  9.54983922829582 72.4982142857143  C 9.54983922829582 72.4982142857143  8.27652733118971 71.2446428571429  8.27652733118971 71.2446428571429  C 8.27652733118971 71.2446428571429  8.27652733118971 69.9910714285714  8.27652733118971 69.9910714285714  C 8.27652733118971 69.9910714285714  9.12540192926045 69.1553571428571  9.12540192926045 69.1553571428571  C 9.12540192926045 69.1553571428571  6.15434083601286 69.1553571428571  6.15434083601286 69.1553571428571  C 6.15434083601286 69.1553571428571  5.30546623794212 67.4839285714286  5.30546623794212 67.4839285714286  C 5.30546623794212 67.4839285714286  4.88102893890675 67.9017857142857  4.88102893890675 67.9017857142857  C 4.88102893890675 67.9017857142857  4.45659163987138 65.8125  4.45659163987138 65.8125  C 4.45659163987138 65.8125  4.45659163987138 64.5589285714286  4.45659163987138 64.5589285714286  C 4.45659163987138 64.5589285714286  6.15434083601286 65.3946428571429  6.15434083601286 65.3946428571429  C 6.15434083601286 65.3946428571429  4.45659163987138 64.1410714285714  4.45659163987138 64.1410714285714  C 4.45659163987138 64.1410714285714  4.45659163987138 62.8875  4.45659163987138 62.8875  C 4.45659163987138 62.8875  5.30546623794212 62.4696428571429  5.30546623794212 62.4696428571429  C 5.30546623794212 62.4696428571429  5.30546623794212 59.9625  5.30546623794212 59.9625  C 5.30546623794212 59.9625  7.85209003215434 55.7839285714286  7.85209003215434 55.7839285714286  C 7.85209003215434 55.7839285714286  5.72990353697749 51.6053571428571  5.72990353697749 51.6053571428571  C 5.72990353697749 51.6053571428571  2.7588424437299 50.7696428571429  2.7588424437299 50.7696428571429  C 2.7588424437299 50.7696428571429  1.90996784565916 49.9339285714286  1.90996784565916 49.9339285714286  C 1.90996784565916 49.9339285714286  0.212218649517685 49.9339285714286  0.212218649517685 49.9339285714286  C 0.212218649517685 49.9339285714286  0.636655948553055 49.0982142857143  0.636655948553055 49.0982142857143  C 0.636655948553055 49.0982142857143  2.7588424437299 49.0982142857143  2.7588424437299 49.0982142857143  C 2.7588424437299 49.0982142857143  2.33440514469453 48.2625  2.33440514469453 48.2625  C 2.33440514469453 48.2625  3.18327974276527 47.8446428571429  3.18327974276527 47.8446428571429  C 3.18327974276527 47.8446428571429  7.0032154340836 47.4267857142857  7.0032154340836 47.4267857142857  C 7.0032154340836 47.4267857142857  7.42765273311897 46.5910714285714  7.42765273311897 46.5910714285714  C 7.42765273311897 46.5910714285714  6.57877813504823 42.4125  6.57877813504823 42.4125  C 6.57877813504823 42.4125  7.0032154340836 40.7410714285714  7.0032154340836 40.7410714285714  C 7.0032154340836 40.7410714285714  6.15434083601286 39.9053571428571  6.15434083601286 39.9053571428571  C 6.15434083601286 39.9053571428571  6.57877813504823 38.2339285714286  6.57877813504823 38.2339285714286  C 6.57877813504823 38.2339285714286  5.72990353697749 38.2339285714286  5.72990353697749 38.2339285714286  C 5.72990353697749 38.2339285714286  4.88102893890675 36.9803571428571  4.88102893890675 36.9803571428571  C 4.88102893890675 36.9803571428571  5.72990353697749 36.1446428571429  5.72990353697749 36.1446428571429  C 5.72990353697749 36.1446428571429  6.15434083601286 36.5625  6.15434083601286 36.5625  C 6.15434083601286 36.5625  5.72990353697749 34.0553571428571  5.72990353697749 34.0553571428571  C 5.72990353697749 34.0553571428571  7.42765273311897 32.3839285714286  7.42765273311897 32.3839285714286  C 7.42765273311897 32.3839285714286  7.0032154340836 28.2053571428571  7.0032154340836 28.2053571428571  C 7.0032154340836 28.2053571428571  7.85209003215434 24.4446428571429  7.85209003215434 24.4446428571429  C 7.85209003215434 24.4446428571429  9.12540192926045 23.6089285714286  9.12540192926045 23.6089285714286  C 9.12540192926045 23.6089285714286  9.12540192926045 22.7732142857143  9.12540192926045 22.7732142857143  C 9.12540192926045 22.7732142857143  10.8231511254019 22.3553571428571  10.8231511254019 22.3553571428571  C 10.8231511254019 22.3553571428571  14.2186495176849 19.4303571428571  14.2186495176849 19.4303571428571  C 14.2186495176849 19.4303571428571  18.4630225080386 20.2660714285714  18.4630225080386 20.2660714285714  C 18.4630225080386 20.2660714285714  19.3118971061093 18.1767857142857  19.3118971061093 18.1767857142857  C 19.3118971061093 18.1767857142857  19.3118971061093 14.8339285714286  19.3118971061093 14.8339285714286  C 19.3118971061093 14.8339285714286  18.0385852090032 11.0732142857143  18.0385852090032 11.0732142857143  C 18.0385852090032 11.0732142857143  18.4630225080386 8.98392857142857  18.4630225080386 8.98392857142857  C 18.4630225080386 8.98392857142857  19.7363344051447 11.0732142857143  19.7363344051447 11.0732142857143  C 19.7363344051447 11.0732142857143  21.4340836012862 11.4910714285714  21.4340836012862 11.4910714285714  C 21.4340836012862 11.4910714285714  23.556270096463 10.2375  23.556270096463 10.2375  C 23.556270096463 10.2375  25.6784565916399 10.2375  25.6784565916399 10.2375  C 25.6784565916399 10.2375  26.951768488746 8.56607142857143  26.951768488746 8.56607142857143  C 26.951768488746 8.56607142857143  26.1028938906752 6.47678571428571  26.1028938906752 6.47678571428571  C 26.1028938906752 6.47678571428571  28.6495176848875 5.64107142857143  28.6495176848875 5.64107142857143  C 28.6495176848875 5.64107142857143  28.6495176848875 4.80535714285714  28.6495176848875 4.80535714285714  C 28.6495176848875 4.80535714285714  31.1961414790997 3.55178571428571  31.1961414790997 3.55178571428571  C 31.1961414790997 3.55178571428571  30.3472668810289 1.88035714285714  30.3472668810289 1.88035714285714  C 30.3472668810289 1.88035714285714  32.0450160771704 1.4625  32.0450160771704 1.4625  C 32.0450160771704 1.4625  32.0450160771704 0.626785714285714  32.0450160771704 0.626785714285714  C 32.0450160771704 0.626785714285714  32.8938906752412 1.04464285714286  32.8938906752412 1.04464285714286  Z " fill-rule="evenodd" />
    </mask>
  </defs>
  <g transform="matrix(1 0 0 1 -243 -699 )">
    <path d="M 32.8938906752412 1.04464285714286  C 32.8938906752412 1.04464285714286  34.1672025723473 0.208928571428571  34.1672025723473 0.208928571428571  C 34.1672025723473 0.208928571428571  35.8649517684887 1.04464285714286  35.8649517684887 1.04464285714286  C 35.8649517684887 1.04464285714286  35.8649517684887 5.22321428571429  35.8649517684887 5.22321428571429  C 35.8649517684887 5.22321428571429  40.1093247588424 5.64107142857143  40.1093247588424 5.64107142857143  C 40.1093247588424 5.64107142857143  39.6848874598071 7.3125  39.6848874598071 7.3125  C 39.6848874598071 7.3125  40.5337620578778 8.98392857142857  40.5337620578778 8.98392857142857  C 40.5337620578778 8.98392857142857  40.5337620578778 11.4910714285714  40.5337620578778 11.4910714285714  C 40.5337620578778 11.4910714285714  42.6559485530547 12.7446428571429  42.6559485530547 12.7446428571429  C 42.6559485530547 12.7446428571429  43.5048231511254 15.2517857142857  43.5048231511254 15.2517857142857  C 43.5048231511254 15.2517857142857  46.475884244373 17.3410714285714  46.475884244373 17.3410714285714  C 46.475884244373 17.3410714285714  46.9003215434084 19.4303571428571  46.9003215434084 19.4303571428571  C 46.9003215434084 19.4303571428571  49.871382636656 19.8482142857143  49.871382636656 19.8482142857143  C 49.871382636656 19.8482142857143  53.6913183279743 21.9375  53.6913183279743 21.9375  C 53.6913183279743 21.9375  56.6623794212219 21.9375  56.6623794212219 21.9375  C 56.6623794212219 21.9375  57.5112540192926 21.1017857142857  57.5112540192926 21.1017857142857  C 57.5112540192926 21.1017857142857  60.9067524115756 20.2660714285714  60.9067524115756 20.2660714285714  C 60.9067524115756 20.2660714285714  63.4533762057878 20.6839285714286  63.4533762057878 20.6839285714286  C 63.4533762057878 20.6839285714286  64.3022508038585 19.8482142857143  64.3022508038585 19.8482142857143  C 64.3022508038585 19.8482142857143  65.1511254019293 20.2660714285714  65.1511254019293 20.2660714285714  C 65.1511254019293 20.2660714285714  69.395498392283 19.0125  69.395498392283 19.0125  C 69.395498392283 19.0125  70.2443729903537 20.6839285714286  70.2443729903537 20.6839285714286  C 70.2443729903537 20.6839285714286  78.3086816720257 20.6839285714286  78.3086816720257 20.6839285714286  C 78.3086816720257 20.6839285714286  79.5819935691318 21.9375  79.5819935691318 21.9375  C 79.5819935691318 21.9375  80.4308681672026 21.1017857142857  80.4308681672026 21.1017857142857  C 80.4308681672026 21.1017857142857  84.2508038585209 21.5196428571429  84.2508038585209 21.5196428571429  C 84.2508038585209 21.5196428571429  89.3440514469453 25.2803571428571  89.3440514469453 25.2803571428571  C 89.3440514469453 25.2803571428571  92.7395498392283 24.4446428571429  92.7395498392283 24.4446428571429  C 92.7395498392283 24.4446428571429  95.2861736334405 26.9517857142857  95.2861736334405 26.9517857142857  C 95.2861736334405 26.9517857142857  95.2861736334405 27.7875  95.2861736334405 27.7875  C 95.2861736334405 27.7875  96.983922829582 28.6232142857143  96.983922829582 28.6232142857143  C 96.983922829582 28.6232142857143  101.652733118971 29.0410714285714  101.652733118971 29.0410714285714  C 101.652733118971 29.0410714285714  104.199356913183 27.7875  104.199356913183 27.7875  C 104.199356913183 27.7875  105.048231511254 25.6982142857143  105.048231511254 25.6982142857143  C 105.048231511254 25.6982142857143  107.594855305466 25.6982142857143  107.594855305466 25.6982142857143  C 107.594855305466 25.6982142857143  109.292604501608 24.4446428571429  109.292604501608 24.4446428571429  C 109.292604501608 24.4446428571429  110.565916398714 24.8625  110.565916398714 24.8625  C 110.565916398714 24.8625  111.83922829582 23.6089285714286  111.83922829582 23.6089285714286  C 111.83922829582 23.6089285714286  115.234726688103 23.1910714285714  115.234726688103 23.1910714285714  C 115.234726688103 23.1910714285714  116.932475884244 23.1910714285714  116.932475884244 23.1910714285714  C 116.932475884244 23.1910714285714  119.054662379421 24.4446428571429  119.054662379421 24.4446428571429  C 119.054662379421 24.4446428571429  119.903536977492 24.0267857142857  119.903536977492 24.0267857142857  C 119.903536977492 24.0267857142857  120.327974276527 25.2803571428571  120.327974276527 25.2803571428571  C 120.327974276527 25.2803571428571  122.450160771704 24.8625  122.450160771704 24.8625  C 122.450160771704 24.8625  124.996784565916 25.6982142857143  124.996784565916 25.6982142857143  C 124.996784565916 25.6982142857143  126.694533762058 24.8625  126.694533762058 24.8625  C 126.694533762058 24.8625  130.090032154341 26.5339285714286  130.090032154341 26.5339285714286  C 130.090032154341 26.5339285714286  131.787781350482 28.6232142857143  131.787781350482 28.6232142857143  C 131.787781350482 28.6232142857143  131.787781350482 29.4589285714286  131.787781350482 29.4589285714286  C 131.787781350482 29.4589285714286  129.665594855305 29.8767857142857  129.665594855305 29.8767857142857  C 129.665594855305 29.8767857142857  129.665594855305 33.2196428571429  129.665594855305 33.2196428571429  C 129.665594855305 33.2196428571429  127.967845659164 33.2196428571429  127.967845659164 33.2196428571429  C 127.967845659164 33.2196428571429  127.118971061093 34.0553571428571  127.118971061093 34.0553571428571  C 127.118971061093 34.0553571428571  125.845659163987 33.6375  125.845659163987 33.6375  C 125.845659163987 33.6375  125.845659163987 31.5482142857143  125.845659163987 31.5482142857143  C 125.845659163987 31.5482142857143  123.72347266881 30.7125  123.72347266881 30.7125  C 123.72347266881 30.7125  123.72347266881 29.8767857142857  123.72347266881 29.8767857142857  C 123.72347266881 29.8767857142857  121.601286173633 30.2946428571429  121.601286173633 30.2946428571429  C 121.601286173633 30.2946428571429  122.87459807074 30.7125  122.87459807074 30.7125  C 122.87459807074 30.7125  122.025723472669 31.1303571428571  122.025723472669 31.1303571428571  C 122.025723472669 31.1303571428571  122.450160771704 31.9660714285714  122.450160771704 31.9660714285714  C 122.450160771704 31.9660714285714  121.601286173633 34.8910714285714  121.601286173633 34.8910714285714  C 121.601286173633 34.8910714285714  119.054662379421 35.3089285714286  119.054662379421 35.3089285714286  C 119.054662379421 35.3089285714286  118.20578778135 34.0553571428571  118.20578778135 34.0553571428571  C 118.20578778135 34.0553571428571  118.630225080386 33.2196428571429  118.630225080386 33.2196428571429  C 118.630225080386 33.2196428571429  117.35691318328 33.6375  117.35691318328 33.6375  C 117.35691318328 33.6375  117.781350482315 36.1446428571429  117.781350482315 36.1446428571429  C 117.781350482315 36.1446428571429  116.083601286174 39.4875  116.083601286174 39.4875  C 116.083601286174 39.4875  117.35691318328 41.9946428571429  117.35691318328 41.9946428571429  C 117.35691318328 41.9946428571429  117.35691318328 44.5017857142857  117.35691318328 44.5017857142857  C 117.35691318328 44.5017857142857  118.630225080386 44.9196428571429  118.630225080386 44.9196428571429  C 118.630225080386 44.9196428571429  117.35691318328 47.0089285714286  117.35691318328 47.0089285714286  C 117.35691318328 47.0089285714286  114.385852090032 45.7553571428571  114.385852090032 45.7553571428571  C 114.385852090032 45.7553571428571  112.263665594855 48.2625  112.263665594855 48.2625  C 112.263665594855 48.2625  110.565916398714 47.8446428571429  110.565916398714 47.8446428571429  C 110.565916398714 47.8446428571429  108.868167202572 45.3375  108.868167202572 45.3375  C 108.868167202572 45.3375  106.745980707396 44.9196428571429  106.745980707396 44.9196428571429  C 106.745980707396 44.9196428571429  106.32154340836 44.0839285714286  106.32154340836 44.0839285714286  C 106.32154340836 44.0839285714286  103.774919614148 45.3375  103.774919614148 45.3375  C 103.774919614148 45.3375  100.379421221865 44.9196428571429  100.379421221865 44.9196428571429  C 100.379421221865 44.9196428571429  98.2572347266881 47.4267857142857  98.2572347266881 47.4267857142857  C 98.2572347266881 47.4267857142857  96.1350482315113 47.4267857142857  96.1350482315113 47.4267857142857  C 96.1350482315113 47.4267857142857  95.2861736334405 48.6803571428571  95.2861736334405 48.6803571428571  C 95.2861736334405 48.6803571428571  93.588424437299 48.6803571428571  93.588424437299 48.6803571428571  C 93.588424437299 48.6803571428571  90.6173633440515 51.1875  90.6173633440515 51.1875  C 90.6173633440515 51.1875  91.0418006430868 52.0232142857143  91.0418006430868 52.0232142857143  C 91.0418006430868 52.0232142857143  90.1929260450161 52.4410714285714  90.1929260450161 52.4410714285714  C 90.1929260450161 52.4410714285714  93.1639871382637 57.0375  93.1639871382637 57.0375  C 93.1639871382637 57.0375  92.7395498392283 57.8732142857143  92.7395498392283 57.8732142857143  C 92.7395498392283 57.8732142857143  85.9485530546624 57.8732142857143  85.9485530546624 57.8732142857143  C 85.9485530546624 57.8732142857143  84.2508038585209 60.7982142857143  84.2508038585209 60.7982142857143  C 84.2508038585209 60.7982142857143  84.2508038585209 61.6339285714286  84.2508038585209 61.6339285714286  C 84.2508038585209 61.6339285714286  85.9485530546624 62.0517857142857  85.9485530546624 62.0517857142857  C 85.9485530546624 62.0517857142857  87.6463022508039 64.9767857142857  87.6463022508039 64.9767857142857  C 87.6463022508039 64.9767857142857  87.2218649517685 65.8125  87.2218649517685 65.8125  C 87.2218649517685 65.8125  87.6463022508039 67.0660714285714  87.6463022508039 67.0660714285714  C 87.6463022508039 67.0660714285714  88.91961414791 67.4839285714286  88.91961414791 67.4839285714286  C 88.91961414791 67.4839285714286  88.0707395498392 68.3196428571429  88.0707395498392 68.3196428571429  C 88.0707395498392 68.3196428571429  88.91961414791 69.5732142857143  88.91961414791 69.5732142857143  C 88.91961414791 69.5732142857143  92.7395498392283 72.4982142857143  92.7395498392283 72.4982142857143  C 92.7395498392283 72.4982142857143  91.8906752411576 74.1696428571428  91.8906752411576 74.1696428571428  C 91.8906752411576 74.1696428571428  88.4951768488746 77.5125  88.4951768488746 77.5125  C 88.4951768488746 77.5125  89.3440514469453 81.6910714285714  89.3440514469453 81.6910714285714  C 89.3440514469453 81.6910714285714  87.6463022508039 83.7803571428571  87.6463022508039 83.7803571428571  C 87.6463022508039 83.7803571428571  87.2218649517685 85.4517857142857  87.2218649517685 85.4517857142857  C 87.2218649517685 85.4517857142857  84.6752411575563 86.2875  84.6752411575563 86.2875  C 84.6752411575563 86.2875  80.8553054662379 85.4517857142857  80.8553054662379 85.4517857142857  C 80.8553054662379 85.4517857142857  78.3086816720257 86.2875  78.3086816720257 86.2875  C 78.3086816720257 86.2875  76.6109324758842 85.8696428571429  76.6109324758842 85.8696428571429  C 76.6109324758842 85.8696428571429  74.064308681672 88.3767857142857  74.064308681672 88.3767857142857  C 74.064308681672 88.3767857142857  70.2443729903537 90.4660714285714  70.2443729903537 90.4660714285714  C 70.2443729903537 90.4660714285714  67.6977491961415 88.7946428571428  67.6977491961415 88.7946428571428  C 67.6977491961415 88.7946428571428  61.3311897106109 93.3910714285714  61.3311897106109 93.3910714285714  C 61.3311897106109 93.3910714285714  60.0578778135048 93.3910714285714  60.0578778135048 93.3910714285714  C 60.0578778135048 93.3910714285714  59.2090032154341 92.5553571428571  59.2090032154341 92.5553571428571  C 59.2090032154341 92.5553571428571  54.9646302250804 93.8089285714286  54.9646302250804 93.8089285714286  C 54.9646302250804 93.8089285714286  52.8424437299035 97.1517857142857  52.8424437299035 97.1517857142857  C 52.8424437299035 97.1517857142857  53.6913183279743 99.6589285714286  53.6913183279743 99.6589285714286  C 53.6913183279743 99.6589285714286  51.9935691318328 100.9125  51.9935691318328 100.9125  C 51.9935691318328 100.9125  52.4180064308682 102.166071428571  52.4180064308682 102.166071428571  C 52.4180064308682 102.166071428571  47.3247588424437 104.673214285714  47.3247588424437 104.673214285714  C 47.3247588424437 104.673214285714  47.3247588424437 105.508928571429  47.3247588424437 105.508928571429  C 47.3247588424437 105.508928571429  45.6270096463022 106.7625  45.6270096463022 106.7625  C 45.6270096463022 106.7625  44.3536977491961 108.851785714286  44.3536977491961 108.851785714286  C 44.3536977491961 108.851785714286  45.6270096463022 110.523214285714  45.6270096463022 110.523214285714  C 45.6270096463022 110.523214285714  46.9003215434084 110.105357142857  46.9003215434084 110.105357142857  C 46.9003215434084 110.105357142857  48.1736334405145 110.941071428571  48.1736334405145 110.941071428571  C 48.1736334405145 110.941071428571  47.7491961414791 112.194642857143  47.7491961414791 112.194642857143  C 47.7491961414791 112.194642857143  45.6270096463022 114.283928571429  45.6270096463022 114.283928571429  C 45.6270096463022 114.283928571429  43.5048231511254 113.866071428571  43.5048231511254 113.866071428571  C 43.5048231511254 113.866071428571  40.9581993569132 114.701785714286  40.9581993569132 114.701785714286  C 40.9581993569132 114.701785714286  39.6848874598071 116.791071428571  39.6848874598071 116.791071428571  C 39.6848874598071 116.791071428571  37.5627009646302 116.373214285714  37.5627009646302 116.373214285714  C 37.5627009646302 116.373214285714  37.1382636655949 115.119642857143  37.1382636655949 115.119642857143  C 37.1382636655949 115.119642857143  35.4405144694534 114.283928571429  35.4405144694534 114.283928571429  C 35.4405144694534 114.283928571429  36.7138263665595 113.448214285714  36.7138263665595 113.448214285714  C 36.7138263665595 113.448214285714  35.4405144694534 113.030357142857  35.4405144694534 113.030357142857  C 35.4405144694534 113.030357142857  33.3183279742765 109.269642857143  33.3183279742765 109.269642857143  C 33.3183279742765 109.269642857143  32.0450160771704 103.001785714286  32.0450160771704 103.001785714286  C 32.0450160771704 103.001785714286  29.4983922829582 102.583928571429  29.4983922829582 102.583928571429  C 29.4983922829582 102.583928571429  28.2250803858521 98.8232142857143  28.2250803858521 98.8232142857143  C 28.2250803858521 98.8232142857143  26.951768488746 98.8232142857143  26.951768488746 98.8232142857143  C 26.951768488746 98.8232142857143  25.2540192926045 100.076785714286  25.2540192926045 100.076785714286  C 25.2540192926045 100.076785714286  25.6784565916399 101.330357142857  25.6784565916399 101.330357142857  C 25.6784565916399 101.330357142857  24.8295819935691 101.330357142857  24.8295819935691 101.330357142857  C 24.8295819935691 101.330357142857  24.8295819935691 103.8375  24.8295819935691 103.8375  C 24.8295819935691 103.8375  22.7073954983923 104.673214285714  22.7073954983923 104.673214285714  C 22.7073954983923 104.673214285714  21.0096463022508 103.001785714286  21.0096463022508 103.001785714286  C 21.0096463022508 103.001785714286  18.887459807074 103.001785714286  18.887459807074 103.001785714286  C 18.887459807074 103.001785714286  18.0385852090032 106.344642857143  18.0385852090032 106.344642857143  C 18.0385852090032 106.344642857143  16.3408360128617 107.598214285714  16.3408360128617 107.598214285714  C 16.3408360128617 107.598214285714  15.9163987138264 106.7625  15.9163987138264 106.7625  C 15.9163987138264 106.7625  15.0675241157556 107.180357142857  15.0675241157556 107.180357142857  C 15.0675241157556 107.180357142857  11.2475884244373 105.091071428571  11.2475884244373 105.091071428571  C 11.2475884244373 105.091071428571  13.7942122186495 100.076785714286  13.7942122186495 100.076785714286  C 13.7942122186495 100.076785714286  14.2186495176849 100.494642857143  14.2186495176849 100.494642857143  C 14.2186495176849 100.494642857143  15.0675241157556 98.8232142857143  15.0675241157556 98.8232142857143  C 15.0675241157556 98.8232142857143  16.7652733118971 97.9875  16.7652733118971 97.9875  C 16.7652733118971 97.9875  15.9163987138264 97.5696428571429  15.9163987138264 97.5696428571429  C 15.9163987138264 97.5696428571429  14.2186495176849 94.2267857142857  14.2186495176849 94.2267857142857  C 14.2186495176849 94.2267857142857  12.096463022508 94.2267857142857  12.096463022508 94.2267857142857  C 12.096463022508 94.2267857142857  12.096463022508 93.3910714285714  12.096463022508 93.3910714285714  C 12.096463022508 93.3910714285714  9.12540192926045 93.3910714285714  9.12540192926045 93.3910714285714  C 9.12540192926045 93.3910714285714  9.97427652733119 90.0482142857143  9.97427652733119 90.0482142857143  C 9.97427652733119 90.0482142857143  9.54983922829582 88.7946428571428  9.54983922829582 88.7946428571428  C 9.54983922829582 88.7946428571428  8.27652733118971 88.7946428571428  8.27652733118971 88.7946428571428  C 8.27652733118971 88.7946428571428  8.27652733118971 87.1232142857143  8.27652733118971 87.1232142857143  C 8.27652733118971 87.1232142857143  6.57877813504823 86.2875  6.57877813504823 86.2875  C 6.57877813504823 86.2875  6.57877813504823 85.4517857142857  6.57877813504823 85.4517857142857  C 6.57877813504823 85.4517857142857  7.85209003215434 84.1982142857143  7.85209003215434 84.1982142857143  C 7.85209003215434 84.1982142857143  7.0032154340836 83.7803571428571  7.0032154340836 83.7803571428571  C 7.0032154340836 83.7803571428571  7.42765273311897 80.8553571428571  7.42765273311897 80.8553571428571  C 7.42765273311897 80.8553571428571  11.6720257234727 77.9303571428571  11.6720257234727 77.9303571428571  C 11.6720257234727 77.9303571428571  9.12540192926045 77.5125  9.12540192926045 77.5125  C 9.12540192926045 77.5125  8.70096463022508 76.2589285714286  8.70096463022508 76.2589285714286  C 8.70096463022508 76.2589285714286  9.12540192926045 74.1696428571428  9.12540192926045 74.1696428571428  C 9.12540192926045 74.1696428571428  7.85209003215434 72.9160714285714  7.85209003215434 72.9160714285714  C 7.85209003215434 72.9160714285714  9.54983922829582 72.4982142857143  9.54983922829582 72.4982142857143  C 9.54983922829582 72.4982142857143  8.27652733118971 71.2446428571429  8.27652733118971 71.2446428571429  C 8.27652733118971 71.2446428571429  8.27652733118971 69.9910714285714  8.27652733118971 69.9910714285714  C 8.27652733118971 69.9910714285714  9.12540192926045 69.1553571428571  9.12540192926045 69.1553571428571  C 9.12540192926045 69.1553571428571  6.15434083601286 69.1553571428571  6.15434083601286 69.1553571428571  C 6.15434083601286 69.1553571428571  5.30546623794212 67.4839285714286  5.30546623794212 67.4839285714286  C 5.30546623794212 67.4839285714286  4.88102893890675 67.9017857142857  4.88102893890675 67.9017857142857  C 4.88102893890675 67.9017857142857  4.45659163987138 65.8125  4.45659163987138 65.8125  C 4.45659163987138 65.8125  4.45659163987138 64.5589285714286  4.45659163987138 64.5589285714286  C 4.45659163987138 64.5589285714286  6.15434083601286 65.3946428571429  6.15434083601286 65.3946428571429  C 6.15434083601286 65.3946428571429  4.45659163987138 64.1410714285714  4.45659163987138 64.1410714285714  C 4.45659163987138 64.1410714285714  4.45659163987138 62.8875  4.45659163987138 62.8875  C 4.45659163987138 62.8875  5.30546623794212 62.4696428571429  5.30546623794212 62.4696428571429  C 5.30546623794212 62.4696428571429  5.30546623794212 59.9625  5.30546623794212 59.9625  C 5.30546623794212 59.9625  7.85209003215434 55.7839285714286  7.85209003215434 55.7839285714286  C 7.85209003215434 55.7839285714286  5.72990353697749 51.6053571428571  5.72990353697749 51.6053571428571  C 5.72990353697749 51.6053571428571  2.7588424437299 50.7696428571429  2.7588424437299 50.7696428571429  C 2.7588424437299 50.7696428571429  1.90996784565916 49.9339285714286  1.90996784565916 49.9339285714286  C 1.90996784565916 49.9339285714286  0.212218649517685 49.9339285714286  0.212218649517685 49.9339285714286  C 0.212218649517685 49.9339285714286  0.636655948553055 49.0982142857143  0.636655948553055 49.0982142857143  C 0.636655948553055 49.0982142857143  2.7588424437299 49.0982142857143  2.7588424437299 49.0982142857143  C 2.7588424437299 49.0982142857143  2.33440514469453 48.2625  2.33440514469453 48.2625  C 2.33440514469453 48.2625  3.18327974276527 47.8446428571429  3.18327974276527 47.8446428571429  C 3.18327974276527 47.8446428571429  7.0032154340836 47.4267857142857  7.0032154340836 47.4267857142857  C 7.0032154340836 47.4267857142857  7.42765273311897 46.5910714285714  7.42765273311897 46.5910714285714  C 7.42765273311897 46.5910714285714  6.57877813504823 42.4125  6.57877813504823 42.4125  C 6.57877813504823 42.4125  7.0032154340836 40.7410714285714  7.0032154340836 40.7410714285714  C 7.0032154340836 40.7410714285714  6.15434083601286 39.9053571428571  6.15434083601286 39.9053571428571  C 6.15434083601286 39.9053571428571  6.57877813504823 38.2339285714286  6.57877813504823 38.2339285714286  C 6.57877813504823 38.2339285714286  5.72990353697749 38.2339285714286  5.72990353697749 38.2339285714286  C 5.72990353697749 38.2339285714286  4.88102893890675 36.9803571428571  4.88102893890675 36.9803571428571  C 4.88102893890675 36.9803571428571  5.72990353697749 36.1446428571429  5.72990353697749 36.1446428571429  C 5.72990353697749 36.1446428571429  6.15434083601286 36.5625  6.15434083601286 36.5625  C 6.15434083601286 36.5625  5.72990353697749 34.0553571428571  5.72990353697749 34.0553571428571  C 5.72990353697749 34.0553571428571  7.42765273311897 32.3839285714286  7.42765273311897 32.3839285714286  C 7.42765273311897 32.3839285714286  7.0032154340836 28.2053571428571  7.0032154340836 28.2053571428571  C 7.0032154340836 28.2053571428571  7.85209003215434 24.4446428571429  7.85209003215434 24.4446428571429  C 7.85209003215434 24.4446428571429  9.12540192926045 23.6089285714286  9.12540192926045 23.6089285714286  C 9.12540192926045 23.6089285714286  9.12540192926045 22.7732142857143  9.12540192926045 22.7732142857143  C 9.12540192926045 22.7732142857143  10.8231511254019 22.3553571428571  10.8231511254019 22.3553571428571  C 10.8231511254019 22.3553571428571  14.2186495176849 19.4303571428571  14.2186495176849 19.4303571428571  C 14.2186495176849 19.4303571428571  18.4630225080386 20.2660714285714  18.4630225080386 20.2660714285714  C 18.4630225080386 20.2660714285714  19.3118971061093 18.1767857142857  19.3118971061093 18.1767857142857  C 19.3118971061093 18.1767857142857  19.3118971061093 14.8339285714286  19.3118971061093 14.8339285714286  C 19.3118971061093 14.8339285714286  18.0385852090032 11.0732142857143  18.0385852090032 11.0732142857143  C 18.0385852090032 11.0732142857143  18.4630225080386 8.98392857142857  18.4630225080386 8.98392857142857  C 18.4630225080386 8.98392857142857  19.7363344051447 11.0732142857143  19.7363344051447 11.0732142857143  C 19.7363344051447 11.0732142857143  21.4340836012862 11.4910714285714  21.4340836012862 11.4910714285714  C 21.4340836012862 11.4910714285714  23.556270096463 10.2375  23.556270096463 10.2375  C 23.556270096463 10.2375  25.6784565916399 10.2375  25.6784565916399 10.2375  C 25.6784565916399 10.2375  26.951768488746 8.56607142857143  26.951768488746 8.56607142857143  C 26.951768488746 8.56607142857143  26.1028938906752 6.47678571428571  26.1028938906752 6.47678571428571  C 26.1028938906752 6.47678571428571  28.6495176848875 5.64107142857143  28.6495176848875 5.64107142857143  C 28.6495176848875 5.64107142857143  28.6495176848875 4.80535714285714  28.6495176848875 4.80535714285714  C 28.6495176848875 4.80535714285714  31.1961414790997 3.55178571428571  31.1961414790997 3.55178571428571  C 31.1961414790997 3.55178571428571  30.3472668810289 1.88035714285714  30.3472668810289 1.88035714285714  C 30.3472668810289 1.88035714285714  32.0450160771704 1.4625  32.0450160771704 1.4625  C 32.0450160771704 1.4625  32.0450160771704 0.626785714285714  32.0450160771704 0.626785714285714  C 32.0450160771704 0.626785714285714  32.8938906752412 1.04464285714286  32.8938906752412 1.04464285714286  Z " fill-rule="nonzero" fill="#ffffff" stroke="none" fill-opacity="0" transform="matrix(1 0 0 1 243 699 )" />
    <path d="M 32.8938906752412 1.04464285714286  C 32.8938906752412 1.04464285714286  34.1672025723473 0.208928571428571  34.1672025723473 0.208928571428571  C 34.1672025723473 0.208928571428571  35.8649517684887 1.04464285714286  35.8649517684887 1.04464285714286  C 35.8649517684887 1.04464285714286  35.8649517684887 5.22321428571429  35.8649517684887 5.22321428571429  C 35.8649517684887 5.22321428571429  40.1093247588424 5.64107142857143  40.1093247588424 5.64107142857143  C 40.1093247588424 5.64107142857143  39.6848874598071 7.3125  39.6848874598071 7.3125  C 39.6848874598071 7.3125  40.5337620578778 8.98392857142857  40.5337620578778 8.98392857142857  C 40.5337620578778 8.98392857142857  40.5337620578778 11.4910714285714  40.5337620578778 11.4910714285714  C 40.5337620578778 11.4910714285714  42.6559485530547 12.7446428571429  42.6559485530547 12.7446428571429  C 42.6559485530547 12.7446428571429  43.5048231511254 15.2517857142857  43.5048231511254 15.2517857142857  C 43.5048231511254 15.2517857142857  46.475884244373 17.3410714285714  46.475884244373 17.3410714285714  C 46.475884244373 17.3410714285714  46.9003215434084 19.4303571428571  46.9003215434084 19.4303571428571  C 46.9003215434084 19.4303571428571  49.871382636656 19.8482142857143  49.871382636656 19.8482142857143  C 49.871382636656 19.8482142857143  53.6913183279743 21.9375  53.6913183279743 21.9375  C 53.6913183279743 21.9375  56.6623794212219 21.9375  56.6623794212219 21.9375  C 56.6623794212219 21.9375  57.5112540192926 21.1017857142857  57.5112540192926 21.1017857142857  C 57.5112540192926 21.1017857142857  60.9067524115756 20.2660714285714  60.9067524115756 20.2660714285714  C 60.9067524115756 20.2660714285714  63.4533762057878 20.6839285714286  63.4533762057878 20.6839285714286  C 63.4533762057878 20.6839285714286  64.3022508038585 19.8482142857143  64.3022508038585 19.8482142857143  C 64.3022508038585 19.8482142857143  65.1511254019293 20.2660714285714  65.1511254019293 20.2660714285714  C 65.1511254019293 20.2660714285714  69.395498392283 19.0125  69.395498392283 19.0125  C 69.395498392283 19.0125  70.2443729903537 20.6839285714286  70.2443729903537 20.6839285714286  C 70.2443729903537 20.6839285714286  78.3086816720257 20.6839285714286  78.3086816720257 20.6839285714286  C 78.3086816720257 20.6839285714286  79.5819935691318 21.9375  79.5819935691318 21.9375  C 79.5819935691318 21.9375  80.4308681672026 21.1017857142857  80.4308681672026 21.1017857142857  C 80.4308681672026 21.1017857142857  84.2508038585209 21.5196428571429  84.2508038585209 21.5196428571429  C 84.2508038585209 21.5196428571429  89.3440514469453 25.2803571428571  89.3440514469453 25.2803571428571  C 89.3440514469453 25.2803571428571  92.7395498392283 24.4446428571429  92.7395498392283 24.4446428571429  C 92.7395498392283 24.4446428571429  95.2861736334405 26.9517857142857  95.2861736334405 26.9517857142857  C 95.2861736334405 26.9517857142857  95.2861736334405 27.7875  95.2861736334405 27.7875  C 95.2861736334405 27.7875  96.983922829582 28.6232142857143  96.983922829582 28.6232142857143  C 96.983922829582 28.6232142857143  101.652733118971 29.0410714285714  101.652733118971 29.0410714285714  C 101.652733118971 29.0410714285714  104.199356913183 27.7875  104.199356913183 27.7875  C 104.199356913183 27.7875  105.048231511254 25.6982142857143  105.048231511254 25.6982142857143  C 105.048231511254 25.6982142857143  107.594855305466 25.6982142857143  107.594855305466 25.6982142857143  C 107.594855305466 25.6982142857143  109.292604501608 24.4446428571429  109.292604501608 24.4446428571429  C 109.292604501608 24.4446428571429  110.565916398714 24.8625  110.565916398714 24.8625  C 110.565916398714 24.8625  111.83922829582 23.6089285714286  111.83922829582 23.6089285714286  C 111.83922829582 23.6089285714286  115.234726688103 23.1910714285714  115.234726688103 23.1910714285714  C 115.234726688103 23.1910714285714  116.932475884244 23.1910714285714  116.932475884244 23.1910714285714  C 116.932475884244 23.1910714285714  119.054662379421 24.4446428571429  119.054662379421 24.4446428571429  C 119.054662379421 24.4446428571429  119.903536977492 24.0267857142857  119.903536977492 24.0267857142857  C 119.903536977492 24.0267857142857  120.327974276527 25.2803571428571  120.327974276527 25.2803571428571  C 120.327974276527 25.2803571428571  122.450160771704 24.8625  122.450160771704 24.8625  C 122.450160771704 24.8625  124.996784565916 25.6982142857143  124.996784565916 25.6982142857143  C 124.996784565916 25.6982142857143  126.694533762058 24.8625  126.694533762058 24.8625  C 126.694533762058 24.8625  130.090032154341 26.5339285714286  130.090032154341 26.5339285714286  C 130.090032154341 26.5339285714286  131.787781350482 28.6232142857143  131.787781350482 28.6232142857143  C 131.787781350482 28.6232142857143  131.787781350482 29.4589285714286  131.787781350482 29.4589285714286  C 131.787781350482 29.4589285714286  129.665594855305 29.8767857142857  129.665594855305 29.8767857142857  C 129.665594855305 29.8767857142857  129.665594855305 33.2196428571429  129.665594855305 33.2196428571429  C 129.665594855305 33.2196428571429  127.967845659164 33.2196428571429  127.967845659164 33.2196428571429  C 127.967845659164 33.2196428571429  127.118971061093 34.0553571428571  127.118971061093 34.0553571428571  C 127.118971061093 34.0553571428571  125.845659163987 33.6375  125.845659163987 33.6375  C 125.845659163987 33.6375  125.845659163987 31.5482142857143  125.845659163987 31.5482142857143  C 125.845659163987 31.5482142857143  123.72347266881 30.7125  123.72347266881 30.7125  C 123.72347266881 30.7125  123.72347266881 29.8767857142857  123.72347266881 29.8767857142857  C 123.72347266881 29.8767857142857  121.601286173633 30.2946428571429  121.601286173633 30.2946428571429  C 121.601286173633 30.2946428571429  122.87459807074 30.7125  122.87459807074 30.7125  C 122.87459807074 30.7125  122.025723472669 31.1303571428571  122.025723472669 31.1303571428571  C 122.025723472669 31.1303571428571  122.450160771704 31.9660714285714  122.450160771704 31.9660714285714  C 122.450160771704 31.9660714285714  121.601286173633 34.8910714285714  121.601286173633 34.8910714285714  C 121.601286173633 34.8910714285714  119.054662379421 35.3089285714286  119.054662379421 35.3089285714286  C 119.054662379421 35.3089285714286  118.20578778135 34.0553571428571  118.20578778135 34.0553571428571  C 118.20578778135 34.0553571428571  118.630225080386 33.2196428571429  118.630225080386 33.2196428571429  C 118.630225080386 33.2196428571429  117.35691318328 33.6375  117.35691318328 33.6375  C 117.35691318328 33.6375  117.781350482315 36.1446428571429  117.781350482315 36.1446428571429  C 117.781350482315 36.1446428571429  116.083601286174 39.4875  116.083601286174 39.4875  C 116.083601286174 39.4875  117.35691318328 41.9946428571429  117.35691318328 41.9946428571429  C 117.35691318328 41.9946428571429  117.35691318328 44.5017857142857  117.35691318328 44.5017857142857  C 117.35691318328 44.5017857142857  118.630225080386 44.9196428571429  118.630225080386 44.9196428571429  C 118.630225080386 44.9196428571429  117.35691318328 47.0089285714286  117.35691318328 47.0089285714286  C 117.35691318328 47.0089285714286  114.385852090032 45.7553571428571  114.385852090032 45.7553571428571  C 114.385852090032 45.7553571428571  112.263665594855 48.2625  112.263665594855 48.2625  C 112.263665594855 48.2625  110.565916398714 47.8446428571429  110.565916398714 47.8446428571429  C 110.565916398714 47.8446428571429  108.868167202572 45.3375  108.868167202572 45.3375  C 108.868167202572 45.3375  106.745980707396 44.9196428571429  106.745980707396 44.9196428571429  C 106.745980707396 44.9196428571429  106.32154340836 44.0839285714286  106.32154340836 44.0839285714286  C 106.32154340836 44.0839285714286  103.774919614148 45.3375  103.774919614148 45.3375  C 103.774919614148 45.3375  100.379421221865 44.9196428571429  100.379421221865 44.9196428571429  C 100.379421221865 44.9196428571429  98.2572347266881 47.4267857142857  98.2572347266881 47.4267857142857  C 98.2572347266881 47.4267857142857  96.1350482315113 47.4267857142857  96.1350482315113 47.4267857142857  C 96.1350482315113 47.4267857142857  95.2861736334405 48.6803571428571  95.2861736334405 48.6803571428571  C 95.2861736334405 48.6803571428571  93.588424437299 48.6803571428571  93.588424437299 48.6803571428571  C 93.588424437299 48.6803571428571  90.6173633440515 51.1875  90.6173633440515 51.1875  C 90.6173633440515 51.1875  91.0418006430868 52.0232142857143  91.0418006430868 52.0232142857143  C 91.0418006430868 52.0232142857143  90.1929260450161 52.4410714285714  90.1929260450161 52.4410714285714  C 90.1929260450161 52.4410714285714  93.1639871382637 57.0375  93.1639871382637 57.0375  C 93.1639871382637 57.0375  92.7395498392283 57.8732142857143  92.7395498392283 57.8732142857143  C 92.7395498392283 57.8732142857143  85.9485530546624 57.8732142857143  85.9485530546624 57.8732142857143  C 85.9485530546624 57.8732142857143  84.2508038585209 60.7982142857143  84.2508038585209 60.7982142857143  C 84.2508038585209 60.7982142857143  84.2508038585209 61.6339285714286  84.2508038585209 61.6339285714286  C 84.2508038585209 61.6339285714286  85.9485530546624 62.0517857142857  85.9485530546624 62.0517857142857  C 85.9485530546624 62.0517857142857  87.6463022508039 64.9767857142857  87.6463022508039 64.9767857142857  C 87.6463022508039 64.9767857142857  87.2218649517685 65.8125  87.2218649517685 65.8125  C 87.2218649517685 65.8125  87.6463022508039 67.0660714285714  87.6463022508039 67.0660714285714  C 87.6463022508039 67.0660714285714  88.91961414791 67.4839285714286  88.91961414791 67.4839285714286  C 88.91961414791 67.4839285714286  88.0707395498392 68.3196428571429  88.0707395498392 68.3196428571429  C 88.0707395498392 68.3196428571429  88.91961414791 69.5732142857143  88.91961414791 69.5732142857143  C 88.91961414791 69.5732142857143  92.7395498392283 72.4982142857143  92.7395498392283 72.4982142857143  C 92.7395498392283 72.4982142857143  91.8906752411576 74.1696428571428  91.8906752411576 74.1696428571428  C 91.8906752411576 74.1696428571428  88.4951768488746 77.5125  88.4951768488746 77.5125  C 88.4951768488746 77.5125  89.3440514469453 81.6910714285714  89.3440514469453 81.6910714285714  C 89.3440514469453 81.6910714285714  87.6463022508039 83.7803571428571  87.6463022508039 83.7803571428571  C 87.6463022508039 83.7803571428571  87.2218649517685 85.4517857142857  87.2218649517685 85.4517857142857  C 87.2218649517685 85.4517857142857  84.6752411575563 86.2875  84.6752411575563 86.2875  C 84.6752411575563 86.2875  80.8553054662379 85.4517857142857  80.8553054662379 85.4517857142857  C 80.8553054662379 85.4517857142857  78.3086816720257 86.2875  78.3086816720257 86.2875  C 78.3086816720257 86.2875  76.6109324758842 85.8696428571429  76.6109324758842 85.8696428571429  C 76.6109324758842 85.8696428571429  74.064308681672 88.3767857142857  74.064308681672 88.3767857142857  C 74.064308681672 88.3767857142857  70.2443729903537 90.4660714285714  70.2443729903537 90.4660714285714  C 70.2443729903537 90.4660714285714  67.6977491961415 88.7946428571428  67.6977491961415 88.7946428571428  C 67.6977491961415 88.7946428571428  61.3311897106109 93.3910714285714  61.3311897106109 93.3910714285714  C 61.3311897106109 93.3910714285714  60.0578778135048 93.3910714285714  60.0578778135048 93.3910714285714  C 60.0578778135048 93.3910714285714  59.2090032154341 92.5553571428571  59.2090032154341 92.5553571428571  C 59.2090032154341 92.5553571428571  54.9646302250804 93.8089285714286  54.9646302250804 93.8089285714286  C 54.9646302250804 93.8089285714286  52.8424437299035 97.1517857142857  52.8424437299035 97.1517857142857  C 52.8424437299035 97.1517857142857  53.6913183279743 99.6589285714286  53.6913183279743 99.6589285714286  C 53.6913183279743 99.6589285714286  51.9935691318328 100.9125  51.9935691318328 100.9125  C 51.9935691318328 100.9125  52.4180064308682 102.166071428571  52.4180064308682 102.166071428571  C 52.4180064308682 102.166071428571  47.3247588424437 104.673214285714  47.3247588424437 104.673214285714  C 47.3247588424437 104.673214285714  47.3247588424437 105.508928571429  47.3247588424437 105.508928571429  C 47.3247588424437 105.508928571429  45.6270096463022 106.7625  45.6270096463022 106.7625  C 45.6270096463022 106.7625  44.3536977491961 108.851785714286  44.3536977491961 108.851785714286  C 44.3536977491961 108.851785714286  45.6270096463022 110.523214285714  45.6270096463022 110.523214285714  C 45.6270096463022 110.523214285714  46.9003215434084 110.105357142857  46.9003215434084 110.105357142857  C 46.9003215434084 110.105357142857  48.1736334405145 110.941071428571  48.1736334405145 110.941071428571  C 48.1736334405145 110.941071428571  47.7491961414791 112.194642857143  47.7491961414791 112.194642857143  C 47.7491961414791 112.194642857143  45.6270096463022 114.283928571429  45.6270096463022 114.283928571429  C 45.6270096463022 114.283928571429  43.5048231511254 113.866071428571  43.5048231511254 113.866071428571  C 43.5048231511254 113.866071428571  40.9581993569132 114.701785714286  40.9581993569132 114.701785714286  C 40.9581993569132 114.701785714286  39.6848874598071 116.791071428571  39.6848874598071 116.791071428571  C 39.6848874598071 116.791071428571  37.5627009646302 116.373214285714  37.5627009646302 116.373214285714  C 37.5627009646302 116.373214285714  37.1382636655949 115.119642857143  37.1382636655949 115.119642857143  C 37.1382636655949 115.119642857143  35.4405144694534 114.283928571429  35.4405144694534 114.283928571429  C 35.4405144694534 114.283928571429  36.7138263665595 113.448214285714  36.7138263665595 113.448214285714  C 36.7138263665595 113.448214285714  35.4405144694534 113.030357142857  35.4405144694534 113.030357142857  C 35.4405144694534 113.030357142857  33.3183279742765 109.269642857143  33.3183279742765 109.269642857143  C 33.3183279742765 109.269642857143  32.0450160771704 103.001785714286  32.0450160771704 103.001785714286  C 32.0450160771704 103.001785714286  29.4983922829582 102.583928571429  29.4983922829582 102.583928571429  C 29.4983922829582 102.583928571429  28.2250803858521 98.8232142857143  28.2250803858521 98.8232142857143  C 28.2250803858521 98.8232142857143  26.951768488746 98.8232142857143  26.951768488746 98.8232142857143  C 26.951768488746 98.8232142857143  25.2540192926045 100.076785714286  25.2540192926045 100.076785714286  C 25.2540192926045 100.076785714286  25.6784565916399 101.330357142857  25.6784565916399 101.330357142857  C 25.6784565916399 101.330357142857  24.8295819935691 101.330357142857  24.8295819935691 101.330357142857  C 24.8295819935691 101.330357142857  24.8295819935691 103.8375  24.8295819935691 103.8375  C 24.8295819935691 103.8375  22.7073954983923 104.673214285714  22.7073954983923 104.673214285714  C 22.7073954983923 104.673214285714  21.0096463022508 103.001785714286  21.0096463022508 103.001785714286  C 21.0096463022508 103.001785714286  18.887459807074 103.001785714286  18.887459807074 103.001785714286  C 18.887459807074 103.001785714286  18.0385852090032 106.344642857143  18.0385852090032 106.344642857143  C 18.0385852090032 106.344642857143  16.3408360128617 107.598214285714  16.3408360128617 107.598214285714  C 16.3408360128617 107.598214285714  15.9163987138264 106.7625  15.9163987138264 106.7625  C 15.9163987138264 106.7625  15.0675241157556 107.180357142857  15.0675241157556 107.180357142857  C 15.0675241157556 107.180357142857  11.2475884244373 105.091071428571  11.2475884244373 105.091071428571  C 11.2475884244373 105.091071428571  13.7942122186495 100.076785714286  13.7942122186495 100.076785714286  C 13.7942122186495 100.076785714286  14.2186495176849 100.494642857143  14.2186495176849 100.494642857143  C 14.2186495176849 100.494642857143  15.0675241157556 98.8232142857143  15.0675241157556 98.8232142857143  C 15.0675241157556 98.8232142857143  16.7652733118971 97.9875  16.7652733118971 97.9875  C 16.7652733118971 97.9875  15.9163987138264 97.5696428571429  15.9163987138264 97.5696428571429  C 15.9163987138264 97.5696428571429  14.2186495176849 94.2267857142857  14.2186495176849 94.2267857142857  C 14.2186495176849 94.2267857142857  12.096463022508 94.2267857142857  12.096463022508 94.2267857142857  C 12.096463022508 94.2267857142857  12.096463022508 93.3910714285714  12.096463022508 93.3910714285714  C 12.096463022508 93.3910714285714  9.12540192926045 93.3910714285714  9.12540192926045 93.3910714285714  C 9.12540192926045 93.3910714285714  9.97427652733119 90.0482142857143  9.97427652733119 90.0482142857143  C 9.97427652733119 90.0482142857143  9.54983922829582 88.7946428571428  9.54983922829582 88.7946428571428  C 9.54983922829582 88.7946428571428  8.27652733118971 88.7946428571428  8.27652733118971 88.7946428571428  C 8.27652733118971 88.7946428571428  8.27652733118971 87.1232142857143  8.27652733118971 87.1232142857143  C 8.27652733118971 87.1232142857143  6.57877813504823 86.2875  6.57877813504823 86.2875  C 6.57877813504823 86.2875  6.57877813504823 85.4517857142857  6.57877813504823 85.4517857142857  C 6.57877813504823 85.4517857142857  7.85209003215434 84.1982142857143  7.85209003215434 84.1982142857143  C 7.85209003215434 84.1982142857143  7.0032154340836 83.7803571428571  7.0032154340836 83.7803571428571  C 7.0032154340836 83.7803571428571  7.42765273311897 80.8553571428571  7.42765273311897 80.8553571428571  C 7.42765273311897 80.8553571428571  11.6720257234727 77.9303571428571  11.6720257234727 77.9303571428571  C 11.6720257234727 77.9303571428571  9.12540192926045 77.5125  9.12540192926045 77.5125  C 9.12540192926045 77.5125  8.70096463022508 76.2589285714286  8.70096463022508 76.2589285714286  C 8.70096463022508 76.2589285714286  9.12540192926045 74.1696428571428  9.12540192926045 74.1696428571428  C 9.12540192926045 74.1696428571428  7.85209003215434 72.9160714285714  7.85209003215434 72.9160714285714  C 7.85209003215434 72.9160714285714  9.54983922829582 72.4982142857143  9.54983922829582 72.4982142857143  C 9.54983922829582 72.4982142857143  8.27652733118971 71.2446428571429  8.27652733118971 71.2446428571429  C 8.27652733118971 71.2446428571429  8.27652733118971 69.9910714285714  8.27652733118971 69.9910714285714  C 8.27652733118971 69.9910714285714  9.12540192926045 69.1553571428571  9.12540192926045 69.1553571428571  C 9.12540192926045 69.1553571428571  6.15434083601286 69.1553571428571  6.15434083601286 69.1553571428571  C 6.15434083601286 69.1553571428571  5.30546623794212 67.4839285714286  5.30546623794212 67.4839285714286  C 5.30546623794212 67.4839285714286  4.88102893890675 67.9017857142857  4.88102893890675 67.9017857142857  C 4.88102893890675 67.9017857142857  4.45659163987138 65.8125  4.45659163987138 65.8125  C 4.45659163987138 65.8125  4.45659163987138 64.5589285714286  4.45659163987138 64.5589285714286  C 4.45659163987138 64.5589285714286  6.15434083601286 65.3946428571429  6.15434083601286 65.3946428571429  C 6.15434083601286 65.3946428571429  4.45659163987138 64.1410714285714  4.45659163987138 64.1410714285714  C 4.45659163987138 64.1410714285714  4.45659163987138 62.8875  4.45659163987138 62.8875  C 4.45659163987138 62.8875  5.30546623794212 62.4696428571429  5.30546623794212 62.4696428571429  C 5.30546623794212 62.4696428571429  5.30546623794212 59.9625  5.30546623794212 59.9625  C 5.30546623794212 59.9625  7.85209003215434 55.7839285714286  7.85209003215434 55.7839285714286  C 7.85209003215434 55.7839285714286  5.72990353697749 51.6053571428571  5.72990353697749 51.6053571428571  C 5.72990353697749 51.6053571428571  2.7588424437299 50.7696428571429  2.7588424437299 50.7696428571429  C 2.7588424437299 50.7696428571429  1.90996784565916 49.9339285714286  1.90996784565916 49.9339285714286  C 1.90996784565916 49.9339285714286  0.212218649517685 49.9339285714286  0.212218649517685 49.9339285714286  C 0.212218649517685 49.9339285714286  0.636655948553055 49.0982142857143  0.636655948553055 49.0982142857143  C 0.636655948553055 49.0982142857143  2.7588424437299 49.0982142857143  2.7588424437299 49.0982142857143  C 2.7588424437299 49.0982142857143  2.33440514469453 48.2625  2.33440514469453 48.2625  C 2.33440514469453 48.2625  3.18327974276527 47.8446428571429  3.18327974276527 47.8446428571429  C 3.18327974276527 47.8446428571429  7.0032154340836 47.4267857142857  7.0032154340836 47.4267857142857  C 7.0032154340836 47.4267857142857  7.42765273311897 46.5910714285714  7.42765273311897 46.5910714285714  C 7.42765273311897 46.5910714285714  6.57877813504823 42.4125  6.57877813504823 42.4125  C 6.57877813504823 42.4125  7.0032154340836 40.7410714285714  7.0032154340836 40.7410714285714  C 7.0032154340836 40.7410714285714  6.15434083601286 39.9053571428571  6.15434083601286 39.9053571428571  C 6.15434083601286 39.9053571428571  6.57877813504823 38.2339285714286  6.57877813504823 38.2339285714286  C 6.57877813504823 38.2339285714286  5.72990353697749 38.2339285714286  5.72990353697749 38.2339285714286  C 5.72990353697749 38.2339285714286  4.88102893890675 36.9803571428571  4.88102893890675 36.9803571428571  C 4.88102893890675 36.9803571428571  5.72990353697749 36.1446428571429  5.72990353697749 36.1446428571429  C 5.72990353697749 36.1446428571429  6.15434083601286 36.5625  6.15434083601286 36.5625  C 6.15434083601286 36.5625  5.72990353697749 34.0553571428571  5.72990353697749 34.0553571428571  C 5.72990353697749 34.0553571428571  7.42765273311897 32.3839285714286  7.42765273311897 32.3839285714286  C 7.42765273311897 32.3839285714286  7.0032154340836 28.2053571428571  7.0032154340836 28.2053571428571  C 7.0032154340836 28.2053571428571  7.85209003215434 24.4446428571429  7.85209003215434 24.4446428571429  C 7.85209003215434 24.4446428571429  9.12540192926045 23.6089285714286  9.12540192926045 23.6089285714286  C 9.12540192926045 23.6089285714286  9.12540192926045 22.7732142857143  9.12540192926045 22.7732142857143  C 9.12540192926045 22.7732142857143  10.8231511254019 22.3553571428571  10.8231511254019 22.3553571428571  C 10.8231511254019 22.3553571428571  14.2186495176849 19.4303571428571  14.2186495176849 19.4303571428571  C 14.2186495176849 19.4303571428571  18.4630225080386 20.2660714285714  18.4630225080386 20.2660714285714  C 18.4630225080386 20.2660714285714  19.3118971061093 18.1767857142857  19.3118971061093 18.1767857142857  C 19.3118971061093 18.1767857142857  19.3118971061093 14.8339285714286  19.3118971061093 14.8339285714286  C 19.3118971061093 14.8339285714286  18.0385852090032 11.0732142857143  18.0385852090032 11.0732142857143  C 18.0385852090032 11.0732142857143  18.4630225080386 8.98392857142857  18.4630225080386 8.98392857142857  C 18.4630225080386 8.98392857142857  19.7363344051447 11.0732142857143  19.7363344051447 11.0732142857143  C 19.7363344051447 11.0732142857143  21.4340836012862 11.4910714285714  21.4340836012862 11.4910714285714  C 21.4340836012862 11.4910714285714  23.556270096463 10.2375  23.556270096463 10.2375  C 23.556270096463 10.2375  25.6784565916399 10.2375  25.6784565916399 10.2375  C 25.6784565916399 10.2375  26.951768488746 8.56607142857143  26.951768488746 8.56607142857143  C 26.951768488746 8.56607142857143  26.1028938906752 6.47678571428571  26.1028938906752 6.47678571428571  C 26.1028938906752 6.47678571428571  28.6495176848875 5.64107142857143  28.6495176848875 5.64107142857143  C 28.6495176848875 5.64107142857143  28.6495176848875 4.80535714285714  28.6495176848875 4.80535714285714  C 28.6495176848875 4.80535714285714  31.1961414790997 3.55178571428571  31.1961414790997 3.55178571428571  C 31.1961414790997 3.55178571428571  30.3472668810289 1.88035714285714  30.3472668810289 1.88035714285714  C 30.3472668810289 1.88035714285714  32.0450160771704 1.4625  32.0450160771704 1.4625  C 32.0450160771704 1.4625  32.0450160771704 0.626785714285714  32.0450160771704 0.626785714285714  C 32.0450160771704 0.626785714285714  32.8938906752412 1.04464285714286  32.8938906752412 1.04464285714286  Z " stroke-width="2" stroke-dasharray="1,1" stroke="#999999" fill="none" transform="matrix(1 0 0 1 243 699 )" mask="url(#clip38)" />
  </g>
</svg>