<?xml version="1.0" encoding="utf-8"?>
<svg version="1.1" xmlns:xlink="http://www.w3.org/1999/xlink" width="130px" height="107px" xmlns="http://www.w3.org/2000/svg">
  <defs>
    <mask fill="white" id="clip39">
      <path d="M 37.4755700325733 105.525590551181  C 37.4755700325733 105.525590551181  35.7817589576547 106.78937007874  35.7817589576547 106.78937007874  C 35.7817589576547 106.78937007874  31.5472312703583 98.7854330708661  31.5472312703583 98.7854330708661  C 31.5472312703583 98.7854330708661  32.3941368078176 97.5216535433071  32.3941368078176 97.5216535433071  C 32.3941368078176 97.5216535433071  31.1237785016287 97.1003937007874  31.1237785016287 97.1003937007874  C 31.1237785016287 97.1003937007874  31.1237785016287 96.257874015748  31.1237785016287 96.257874015748  C 31.1237785016287 96.257874015748  30.2768729641694 95.4153543307087  30.2768729641694 95.4153543307087  C 30.2768729641694 95.4153543307087  29.8534201954397 95.8366141732283  29.8534201954397 95.8366141732283  C 29.8534201954397 95.8366141732283  29.0065146579805 94.5728346456693  29.0065146579805 94.5728346456693  C 29.0065146579805 94.5728346456693  29.8534201954397 93.7303149606299  29.8534201954397 93.7303149606299  C 29.8534201954397 93.7303149606299  29.0065146579805 93.3090551181102  29.0065146579805 93.3090551181102  C 29.0065146579805 93.3090551181102  29.4299674267101 91.6240157480315  29.4299674267101 91.6240157480315  C 29.4299674267101 91.6240157480315  28.5830618892508 90.3602362204724  28.5830618892508 90.3602362204724  C 28.5830618892508 90.3602362204724  28.5830618892508 88.6751968503937  28.5830618892508 88.6751968503937  C 28.5830618892508 88.6751968503937  24.3485342019544 88.6751968503937  24.3485342019544 88.6751968503937  C 24.3485342019544 88.6751968503937  21.8078175895765 87.4114173228347  21.8078175895765 87.4114173228347  C 21.8078175895765 87.4114173228347  20.114006514658 87.8326771653543  20.114006514658 87.8326771653543  C 20.114006514658 87.8326771653543  19.6905537459283 84.8838582677165  19.6905537459283 84.8838582677165  C 19.6905537459283 84.8838582677165  18.8436482084691 84.0413385826772  18.8436482084691 84.0413385826772  C 18.8436482084691 84.0413385826772  17.5732899022801 84.4625984251969  17.5732899022801 84.4625984251969  C 17.5732899022801 84.4625984251969  16.3029315960912 83.1988188976378  16.3029315960912 83.1988188976378  C 16.3029315960912 83.1988188976378  9.52768729641694 74.3523622047244  9.52768729641694 74.3523622047244  C 9.52768729641694 74.3523622047244  9.52768729641694 73.0885826771653  9.52768729641694 73.0885826771653  C 9.52768729641694 73.0885826771653  8.68078175895766 73.0885826771653  8.68078175895766 73.0885826771653  C 8.68078175895766 73.0885826771653  5.71661237785016 70.5610236220472  5.71661237785016 70.5610236220472  C 5.71661237785016 70.5610236220472  5.71661237785016 68.8759842519685  5.71661237785016 68.8759842519685  C 5.71661237785016 68.8759842519685  6.56351791530945 69.2972440944882  6.56351791530945 69.2972440944882  C 6.56351791530945 69.2972440944882  6.1400651465798 68.0334645669291  6.1400651465798 68.0334645669291  C 6.1400651465798 68.0334645669291  6.98697068403909 66.7696850393701  6.98697068403909 66.7696850393701  C 6.98697068403909 66.7696850393701  6.1400651465798 67.1909448818898  6.1400651465798 67.1909448818898  C 6.1400651465798 67.1909448818898  5.71661237785016 65.0846456692913  5.71661237785016 65.0846456692913  C 5.71661237785016 65.0846456692913  7.41042345276873 60.8720472440945  7.41042345276873 60.8720472440945  C 7.41042345276873 60.8720472440945  6.1400651465798 60.8720472440945  6.1400651465798 60.8720472440945  C 6.1400651465798 60.8720472440945  5.29315960912052 59.6082677165354  5.29315960912052 59.6082677165354  C 5.29315960912052 59.6082677165354  1.48208469055375 59.6082677165354  1.48208469055375 59.6082677165354  C 1.48208469055375 59.6082677165354  1.48208469055375 60.4507874015748  1.48208469055375 60.4507874015748  C 1.48208469055375 60.4507874015748  0.211726384364821 58.7657480314961  0.211726384364821 58.7657480314961  C 0.211726384364821 58.7657480314961  3.17589576547231 52.8681102362205  3.17589576547231 52.8681102362205  C 3.17589576547231 52.8681102362205  3.17589576547231 50.761811023622  3.17589576547231 50.761811023622  C 3.17589576547231 50.761811023622  4.0228013029316 51.1830708661417  4.0228013029316 51.1830708661417  C 4.0228013029316 51.1830708661417  9.1042345276873 46.5492125984252  9.1042345276873 46.5492125984252  C 9.1042345276873 46.5492125984252  9.95114006514658 47.3917322834646  9.95114006514658 47.3917322834646  C 9.95114006514658 47.3917322834646  13.3387622149837 46.9704724409449  13.3387622149837 46.9704724409449  C 13.3387622149837 46.9704724409449  14.185667752443 41.494094488189  14.185667752443 41.494094488189  C 14.185667752443 41.494094488189  17.1498371335505 40.2303149606299  17.1498371335505 40.2303149606299  C 17.1498371335505 40.2303149606299  18.4201954397394 40.6515748031496  18.4201954397394 40.6515748031496  C 18.4201954397394 40.6515748031496  23.5016286644951 39.8090551181102  23.5016286644951 39.8090551181102  C 23.5016286644951 39.8090551181102  24.771986970684 37.2814960629921  24.771986970684 37.2814960629921  C 24.771986970684 37.2814960629921  26.8892508143323 35.1751968503937  26.8892508143323 35.1751968503937  C 26.8892508143323 35.1751968503937  35.7817589576547 37.7027559055118  35.7817589576547 37.7027559055118  C 35.7817589576547 37.7027559055118  38.3224755700326 43.1791338582677  38.3224755700326 43.1791338582677  C 38.3224755700326 43.1791338582677  40.4397394136808 42.757874015748  40.4397394136808 42.757874015748  C 40.4397394136808 42.757874015748  40.4397394136808 41.9153543307087  40.4397394136808 41.9153543307087  C 40.4397394136808 41.9153543307087  41.7100977198697 41.9153543307087  41.7100977198697 41.9153543307087  C 41.7100977198697 41.9153543307087  45.5211726384365 37.2814960629921  45.5211726384365 37.2814960629921  C 45.5211726384365 37.2814960629921  45.5211726384365 39.3877952755906  45.5211726384365 39.3877952755906  C 45.5211726384365 39.3877952755906  50.6026058631922 36.8602362204724  50.6026058631922 36.8602362204724  C 50.6026058631922 36.8602362204724  51.8729641693811 36.8602362204724  51.8729641693811 36.8602362204724  C 51.8729641693811 36.8602362204724  52.7198697068404 34.753937007874  52.7198697068404 34.753937007874  C 52.7198697068404 34.753937007874  56.1074918566775 32.6476377952756  56.1074918566775 32.6476377952756  C 56.1074918566775 32.6476377952756  56.9543973941368 33.490157480315  56.9543973941368 33.490157480315  C 56.9543973941368 33.490157480315  59.9185667752443 32.6476377952756  59.9185667752443 32.6476377952756  C 59.9185667752443 32.6476377952756  58.2247557003257 30.5413385826772  58.2247557003257 30.5413385826772  C 58.2247557003257 30.5413385826772  58.2247557003257 29.2775590551181  58.2247557003257 29.2775590551181  C 58.2247557003257 29.2775590551181  60.3420195439739 28.0137795275591  60.3420195439739 28.0137795275591  C 60.3420195439739 28.0137795275591  62.0358306188925 25.0649606299213  62.0358306188925 25.0649606299213  C 62.0358306188925 25.0649606299213  66.6938110749186 26.3287401574803  66.6938110749186 26.3287401574803  C 66.6938110749186 26.3287401574803  68.3876221498371 20.8523622047244  68.3876221498371 20.8523622047244  C 68.3876221498371 20.8523622047244  67.9641693811075 19.5885826771654  67.9641693811075 19.5885826771654  C 67.9641693811075 19.5885826771654  68.8110749185668 17.0610236220472  68.8110749185668 17.0610236220472  C 68.8110749185668 17.0610236220472  70.928338762215 13.6909448818898  70.928338762215 13.6909448818898  C 70.928338762215 13.6909448818898  73.0456026058632 12.005905511811  73.0456026058632 12.005905511811  C 73.0456026058632 12.005905511811  73.0456026058632 10.742125984252  73.0456026058632 10.742125984252  C 73.0456026058632 10.742125984252  75.586319218241 9.47834645669291  75.586319218241 9.47834645669291  C 75.586319218241 9.47834645669291  76.0097719869707 7.79330708661417  76.0097719869707 7.79330708661417  C 76.0097719869707 7.79330708661417  77.2801302931596 6.52952755905512  77.2801302931596 6.52952755905512  C 77.2801302931596 6.52952755905512  76.85667752443 6.10826771653543  76.85667752443 6.10826771653543  C 76.85667752443 6.10826771653543  77.7035830618893 1.89566929133858  77.7035830618893 1.89566929133858  C 77.7035830618893 1.89566929133858  79.8208469055375 0.210629921259843  79.8208469055375 0.210629921259843  C 79.8208469055375 0.210629921259843  81.0912052117264 0.631889763779528  81.0912052117264 0.631889763779528  C 81.0912052117264 0.631889763779528  84.0553745928339 6.10826771653543  84.0553745928339 6.10826771653543  C 84.0553745928339 6.10826771653543  86.1726384364821 5.68700787401575  86.1726384364821 5.68700787401575  C 86.1726384364821 5.68700787401575  88.7133550488599 8.21456692913386  88.7133550488599 8.21456692913386  C 88.7133550488599 8.21456692913386  89.5602605863192 7.37204724409449  89.5602605863192 7.37204724409449  C 89.5602605863192 7.37204724409449  88.7133550488599 5.68700787401575  88.7133550488599 5.68700787401575  C 88.7133550488599 5.68700787401575  90.4071661237785 4.00196850393701  90.4071661237785 4.00196850393701  C 90.4071661237785 4.00196850393701  92.5244299674267 3.58070866141732  92.5244299674267 3.58070866141732  C 92.5244299674267 3.58070866141732  98.0293159609121 4.42322834645669  98.0293159609121 4.42322834645669  C 98.0293159609121 4.42322834645669  104.381107491857 2.31692913385827  104.381107491857 2.31692913385827  C 104.381107491857 2.31692913385827  105.228013029316 2.73818897637795  105.228013029316 2.73818897637795  C 105.228013029316 2.73818897637795  105.651465798046 4.42322834645669  105.651465798046 4.42322834645669  C 105.651465798046 4.42322834645669  106.921824104235 4.84448818897638  106.921824104235 4.84448818897638  C 106.921824104235 4.84448818897638  109.039087947883 5.26574803149606  109.039087947883 5.26574803149606  C 109.039087947883 5.26574803149606  109.885993485342 4.42322834645669  109.885993485342 4.42322834645669  C 109.885993485342 4.42322834645669  111.579804560261 5.26574803149606  111.579804560261 5.26574803149606  C 111.579804560261 5.26574803149606  113.273615635179 4.00196850393701  113.273615635179 4.00196850393701  C 113.273615635179 4.00196850393701  115.390879478827 4.00196850393701  115.390879478827 4.00196850393701  C 115.390879478827 4.00196850393701  117.931596091205 6.52952755905512  117.931596091205 6.52952755905512  C 117.931596091205 6.52952755905512  118.355048859935 6.10826771653543  118.355048859935 6.10826771653543  C 118.355048859935 6.10826771653543  118.778501628664 9.05708661417323  118.778501628664 9.05708661417323  C 118.778501628664 9.05708661417323  120.472312703583 10.3208661417323  120.472312703583 10.3208661417323  C 120.472312703583 10.3208661417323  120.048859934853 13.2696850393701  120.048859934853 13.2696850393701  C 120.048859934853 13.2696850393701  118.778501628664 15.3759842519685  118.778501628664 15.3759842519685  C 118.778501628664 15.3759842519685  119.625407166124 16.2185039370079  119.625407166124 16.2185039370079  C 119.625407166124 16.2185039370079  118.778501628664 17.0610236220472  118.778501628664 17.0610236220472  C 118.778501628664 17.0610236220472  118.778501628664 19.1673228346457  118.778501628664 19.1673228346457  C 118.778501628664 19.1673228346457  117.931596091205 19.1673228346457  117.931596091205 19.1673228346457  C 117.931596091205 19.1673228346457  116.661237785016 20.4311023622047  116.661237785016 20.4311023622047  C 116.661237785016 20.4311023622047  115.814332247557 22.9586614173228  115.814332247557 22.9586614173228  C 115.814332247557 22.9586614173228  118.778501628664 24.6437007874016  118.778501628664 24.6437007874016  C 118.778501628664 24.6437007874016  120.472312703583 24.2224409448819  120.472312703583 24.2224409448819  C 120.472312703583 24.2224409448819  121.742671009772 25.9074803149606  121.742671009772 25.9074803149606  C 121.742671009772 25.9074803149606  121.319218241042 26.3287401574803  121.319218241042 26.3287401574803  C 121.319218241042 26.3287401574803  123.013029315961 28.0137795275591  123.013029315961 28.0137795275591  C 123.013029315961 28.0137795275591  124.706840390879 27.5925196850394  124.706840390879 27.5925196850394  C 124.706840390879 27.5925196850394  126.400651465798 29.2775590551181  126.400651465798 29.2775590551181  C 126.400651465798 29.2775590551181  126.400651465798 30.1200787401575  126.400651465798 30.1200787401575  C 126.400651465798 30.1200787401575  128.517915309446 31.3838582677165  128.517915309446 31.3838582677165  C 128.517915309446 31.3838582677165  129.788273615635 31.3838582677165  129.788273615635 31.3838582677165  C 129.788273615635 31.3838582677165  128.941368078176 33.490157480315  128.941368078176 33.490157480315  C 128.941368078176 33.490157480315  124.706840390879 33.490157480315  124.706840390879 33.490157480315  C 124.706840390879 33.490157480315  123.436482084691 37.7027559055118  123.436482084691 37.7027559055118  C 123.436482084691 37.7027559055118  123.85993485342 38.9665354330709  123.85993485342 38.9665354330709  C 123.85993485342 38.9665354330709  122.589576547231 42.3366141732283  122.589576547231 42.3366141732283  C 122.589576547231 42.3366141732283  121.319218241042 42.757874015748  121.319218241042 42.757874015748  C 121.319218241042 42.757874015748  117.931596091205 47.8129921259843  117.931596091205 47.8129921259843  C 117.931596091205 47.8129921259843  116.237785016287 48.2342519685039  116.237785016287 48.2342519685039  C 116.237785016287 48.2342519685039  115.390879478827 50.761811023622  115.390879478827 50.761811023622  C 115.390879478827 50.761811023622  112.42671009772 54.5531496062992  112.42671009772 54.5531496062992  C 112.42671009772 54.5531496062992  113.273615635179 55.8169291338583  113.273615635179 55.8169291338583  C 113.273615635179 55.8169291338583  114.967426710098 56.6594488188976  114.967426710098 56.6594488188976  C 114.967426710098 56.6594488188976  118.355048859935 55.8169291338583  118.355048859935 55.8169291338583  C 118.355048859935 55.8169291338583  121.319218241042 60.0295275590551  121.319218241042 60.0295275590551  C 121.319218241042 60.0295275590551  121.319218241042 61.2933070866142  121.319218241042 61.2933070866142  C 121.319218241042 61.2933070866142  119.625407166124 62.9783464566929  119.625407166124 62.9783464566929  C 119.625407166124 62.9783464566929  117.508143322476 63.3996062992126  117.508143322476 63.3996062992126  C 117.508143322476 63.3996062992126  112.00325732899 61.7145669291339  112.00325732899 61.7145669291339  C 112.00325732899 61.7145669291339  111.579804560261 63.3996062992126  111.579804560261 63.3996062992126  C 111.579804560261 63.3996062992126  109.885993485342 62.9783464566929  109.885993485342 62.9783464566929  C 109.885993485342 62.9783464566929  108.192182410423 63.8208661417323  108.192182410423 63.8208661417323  C 108.192182410423 63.8208661417323  103.957654723127 62.9783464566929  103.957654723127 62.9783464566929  C 103.957654723127 62.9783464566929  102.263843648208 65.0846456692913  102.263843648208 65.0846456692913  C 102.263843648208 65.0846456692913  100.99348534202 64.242125984252  100.99348534202 64.242125984252  C 100.99348534202 64.242125984252  100.99348534202 62.9783464566929  100.99348534202 62.9783464566929  C 100.99348534202 62.9783464566929  99.7231270358306 62.1358267716535  99.7231270358306 62.1358267716535  C 99.7231270358306 62.1358267716535  99.7231270358306 60.0295275590551  99.7231270358306 60.0295275590551  C 99.7231270358306 60.0295275590551  98.4527687296417 59.1870078740157  98.4527687296417 59.1870078740157  C 98.4527687296417 59.1870078740157  91.2540716612378 59.6082677165354  91.2540716612378 59.6082677165354  C 91.2540716612378 59.6082677165354  88.2899022801303 62.1358267716535  88.2899022801303 62.1358267716535  C 88.2899022801303 62.1358267716535  86.5960912052117 62.5570866141732  86.5960912052117 62.5570866141732  C 86.5960912052117 62.5570866141732  87.8664495114006 65.9271653543307  87.8664495114006 65.9271653543307  C 87.8664495114006 65.9271653543307  88.7133550488599 66.3484251968504  88.7133550488599 66.3484251968504  C 88.7133550488599 66.3484251968504  87.8664495114006 68.0334645669291  87.8664495114006 68.0334645669291  C 87.8664495114006 68.0334645669291  86.5960912052117 68.8759842519685  86.5960912052117 68.8759842519685  C 86.5960912052117 68.8759842519685  86.1726384364821 72.246062992126  86.1726384364821 72.246062992126  C 86.1726384364821 72.246062992126  87.0195439739414 73.509842519685  87.0195439739414 73.509842519685  C 87.0195439739414 73.509842519685  87.0195439739414 75.6161417322835  87.0195439739414 75.6161417322835  C 87.0195439739414 75.6161417322835  85.7491856677524 76.8799212598425  85.7491856677524 76.8799212598425  C 85.7491856677524 76.8799212598425  86.1726384364821 78.9862204724409  86.1726384364821 78.9862204724409  C 86.1726384364821 78.9862204724409  85.3257328990228 80.25  85.3257328990228 80.25  C 85.3257328990228 80.25  86.1726384364821 81.0925196850394  86.1726384364821 81.0925196850394  C 86.1726384364821 81.0925196850394  86.1726384364821 82.7775590551181  86.1726384364821 82.7775590551181  C 86.1726384364821 82.7775590551181  84.9022801302932 84.4625984251969  84.9022801302932 84.4625984251969  C 84.9022801302932 84.4625984251969  83.2084690553746 83.1988188976378  83.2084690553746 83.1988188976378  C 83.2084690553746 83.1988188976378  81.514657980456 83.6200787401575  81.514657980456 83.6200787401575  C 81.514657980456 83.6200787401575  81.0912052117264 82.7775590551181  81.0912052117264 82.7775590551181  C 81.0912052117264 82.7775590551181  79.8208469055375 84.8838582677165  79.8208469055375 84.8838582677165  C 79.8208469055375 84.8838582677165  78.9739413680782 83.6200787401575  78.9739413680782 83.6200787401575  C 78.9739413680782 83.6200787401575  77.2801302931596 84.4625984251969  77.2801302931596 84.4625984251969  C 77.2801302931596 84.4625984251969  76.4332247557003 83.1988188976378  76.4332247557003 83.1988188976378  C 76.4332247557003 83.1988188976378  73.8925081433225 83.1988188976378  73.8925081433225 83.1988188976378  C 73.8925081433225 83.1988188976378  73.4690553745928 84.4625984251969  73.4690553745928 84.4625984251969  C 73.4690553745928 84.4625984251969  69.2345276872964 86.1476377952756  69.2345276872964 86.1476377952756  C 69.2345276872964 86.1476377952756  68.8110749185668 85.3051181102362  68.8110749185668 85.3051181102362  C 68.8110749185668 85.3051181102362  63.7296416938111 87.4114173228347  63.7296416938111 87.4114173228347  C 63.7296416938111 87.4114173228347  63.3061889250814 89.5177165354331  63.3061889250814 89.5177165354331  C 63.3061889250814 89.5177165354331  65.4234527687296 90.7814960629921  65.4234527687296 90.7814960629921  C 65.4234527687296 90.7814960629921  64.5765472312704 92.0452755905512  64.5765472312704 92.0452755905512  C 64.5765472312704 92.0452755905512  63.3061889250814 92.4665354330709  63.3061889250814 92.4665354330709  C 63.3061889250814 92.4665354330709  63.3061889250814 89.9389763779528  63.3061889250814 89.9389763779528  C 63.3061889250814 89.9389763779528  62.4592833876222 90.7814960629921  62.4592833876222 90.7814960629921  C 62.4592833876222 90.7814960629921  62.8827361563518 91.2027559055118  62.8827361563518 91.2027559055118  C 62.8827361563518 91.2027559055118  62.0358306188925 91.6240157480315  62.0358306188925 91.6240157480315  C 62.0358306188925 91.6240157480315  62.0358306188925 92.4665354330709  62.0358306188925 92.4665354330709  C 62.0358306188925 92.4665354330709  63.3061889250814 92.4665354330709  63.3061889250814 92.4665354330709  C 63.3061889250814 92.4665354330709  62.4592833876222 93.3090551181102  62.4592833876222 93.3090551181102  C 62.4592833876222 93.3090551181102  62.8827361563518 96.257874015748  62.8827361563518 96.257874015748  C 62.8827361563518 96.257874015748  61.6123778501629 97.5216535433071  61.6123778501629 97.5216535433071  C 61.6123778501629 97.5216535433071  59.9185667752443 97.1003937007874  59.9185667752443 97.1003937007874  C 59.9185667752443 97.1003937007874  57.8013029315961 93.7303149606299  57.8013029315961 93.7303149606299  C 57.8013029315961 93.7303149606299  54.413680781759 93.7303149606299  54.413680781759 93.7303149606299  C 54.413680781759 93.7303149606299  53.14332247557 91.6240157480315  53.14332247557 91.6240157480315  C 53.14332247557 91.6240157480315  50.6026058631922 92.4665354330709  50.6026058631922 92.4665354330709  C 50.6026058631922 92.4665354330709  49.3322475570033 94.1515748031496  49.3322475570033 94.1515748031496  C 49.3322475570033 94.1515748031496  49.7557003257329 95.4153543307087  49.7557003257329 95.4153543307087  C 49.7557003257329 95.4153543307087  48.9087947882736 96.6791338582677  48.9087947882736 96.6791338582677  C 48.9087947882736 96.6791338582677  47.6384364820847 96.257874015748  47.6384364820847 96.257874015748  C 47.6384364820847 96.257874015748  47.214983713355 97.1003937007874  47.214983713355 97.1003937007874  C 47.214983713355 97.1003937007874  45.9446254071661 97.1003937007874  45.9446254071661 97.1003937007874  C 45.9446254071661 97.1003937007874  43.4039087947883 92.8877952755905  43.4039087947883 92.8877952755905  C 43.4039087947883 92.8877952755905  42.1335504885993 92.8877952755905  42.1335504885993 92.8877952755905  C 42.1335504885993 92.8877952755905  40.8631921824104 94.5728346456693  40.8631921824104 94.5728346456693  C 40.8631921824104 94.5728346456693  40.0162866449511 93.7303149606299  40.0162866449511 93.7303149606299  C 40.0162866449511 93.7303149606299  37.0521172638436 95.8366141732283  37.0521172638436 95.8366141732283  C 37.0521172638436 95.8366141732283  37.0521172638436 97.9429133858268  37.0521172638436 97.9429133858268  C 37.0521172638436 97.9429133858268  39.1693811074919 98.7854330708661  39.1693811074919 98.7854330708661  C 39.1693811074919 98.7854330708661  39.5928338762215 99.6279527559055  39.5928338762215 99.6279527559055  C 39.5928338762215 99.6279527559055  38.3224755700326 100.049212598425  38.3224755700326 100.049212598425  C 38.3224755700326 100.049212598425  38.3224755700326 104.261811023622  38.3224755700326 104.261811023622  C 38.3224755700326 104.261811023622  37.4755700325733 105.525590551181  37.4755700325733 105.525590551181  Z " fill-rule="evenodd" />
    </mask>
  </defs>
  <g transform="matrix(1 0 0 1 -99 -701 )">
    <path d="M 37.4755700325733 105.525590551181  C 37.4755700325733 105.525590551181  35.7817589576547 106.78937007874  35.7817589576547 106.78937007874  C 35.7817589576547 106.78937007874  31.5472312703583 98.7854330708661  31.5472312703583 98.7854330708661  C 31.5472312703583 98.7854330708661  32.3941368078176 97.5216535433071  32.3941368078176 97.5216535433071  C 32.3941368078176 97.5216535433071  31.1237785016287 97.1003937007874  31.1237785016287 97.1003937007874  C 31.1237785016287 97.1003937007874  31.1237785016287 96.257874015748  31.1237785016287 96.257874015748  C 31.1237785016287 96.257874015748  30.2768729641694 95.4153543307087  30.2768729641694 95.4153543307087  C 30.2768729641694 95.4153543307087  29.8534201954397 95.8366141732283  29.8534201954397 95.8366141732283  C 29.8534201954397 95.8366141732283  29.0065146579805 94.5728346456693  29.0065146579805 94.5728346456693  C 29.0065146579805 94.5728346456693  29.8534201954397 93.7303149606299  29.8534201954397 93.7303149606299  C 29.8534201954397 93.7303149606299  29.0065146579805 93.3090551181102  29.0065146579805 93.3090551181102  C 29.0065146579805 93.3090551181102  29.4299674267101 91.6240157480315  29.4299674267101 91.6240157480315  C 29.4299674267101 91.6240157480315  28.5830618892508 90.3602362204724  28.5830618892508 90.3602362204724  C 28.5830618892508 90.3602362204724  28.5830618892508 88.6751968503937  28.5830618892508 88.6751968503937  C 28.5830618892508 88.6751968503937  24.3485342019544 88.6751968503937  24.3485342019544 88.6751968503937  C 24.3485342019544 88.6751968503937  21.8078175895765 87.4114173228347  21.8078175895765 87.4114173228347  C 21.8078175895765 87.4114173228347  20.114006514658 87.8326771653543  20.114006514658 87.8326771653543  C 20.114006514658 87.8326771653543  19.6905537459283 84.8838582677165  19.6905537459283 84.8838582677165  C 19.6905537459283 84.8838582677165  18.8436482084691 84.0413385826772  18.8436482084691 84.0413385826772  C 18.8436482084691 84.0413385826772  17.5732899022801 84.4625984251969  17.5732899022801 84.4625984251969  C 17.5732899022801 84.4625984251969  16.3029315960912 83.1988188976378  16.3029315960912 83.1988188976378  C 16.3029315960912 83.1988188976378  9.52768729641694 74.3523622047244  9.52768729641694 74.3523622047244  C 9.52768729641694 74.3523622047244  9.52768729641694 73.0885826771653  9.52768729641694 73.0885826771653  C 9.52768729641694 73.0885826771653  8.68078175895766 73.0885826771653  8.68078175895766 73.0885826771653  C 8.68078175895766 73.0885826771653  5.71661237785016 70.5610236220472  5.71661237785016 70.5610236220472  C 5.71661237785016 70.5610236220472  5.71661237785016 68.8759842519685  5.71661237785016 68.8759842519685  C 5.71661237785016 68.8759842519685  6.56351791530945 69.2972440944882  6.56351791530945 69.2972440944882  C 6.56351791530945 69.2972440944882  6.1400651465798 68.0334645669291  6.1400651465798 68.0334645669291  C 6.1400651465798 68.0334645669291  6.98697068403909 66.7696850393701  6.98697068403909 66.7696850393701  C 6.98697068403909 66.7696850393701  6.1400651465798 67.1909448818898  6.1400651465798 67.1909448818898  C 6.1400651465798 67.1909448818898  5.71661237785016 65.0846456692913  5.71661237785016 65.0846456692913  C 5.71661237785016 65.0846456692913  7.41042345276873 60.8720472440945  7.41042345276873 60.8720472440945  C 7.41042345276873 60.8720472440945  6.1400651465798 60.8720472440945  6.1400651465798 60.8720472440945  C 6.1400651465798 60.8720472440945  5.29315960912052 59.6082677165354  5.29315960912052 59.6082677165354  C 5.29315960912052 59.6082677165354  1.48208469055375 59.6082677165354  1.48208469055375 59.6082677165354  C 1.48208469055375 59.6082677165354  1.48208469055375 60.4507874015748  1.48208469055375 60.4507874015748  C 1.48208469055375 60.4507874015748  0.211726384364821 58.7657480314961  0.211726384364821 58.7657480314961  C 0.211726384364821 58.7657480314961  3.17589576547231 52.8681102362205  3.17589576547231 52.8681102362205  C 3.17589576547231 52.8681102362205  3.17589576547231 50.761811023622  3.17589576547231 50.761811023622  C 3.17589576547231 50.761811023622  4.0228013029316 51.1830708661417  4.0228013029316 51.1830708661417  C 4.0228013029316 51.1830708661417  9.1042345276873 46.5492125984252  9.1042345276873 46.5492125984252  C 9.1042345276873 46.5492125984252  9.95114006514658 47.3917322834646  9.95114006514658 47.3917322834646  C 9.95114006514658 47.3917322834646  13.3387622149837 46.9704724409449  13.3387622149837 46.9704724409449  C 13.3387622149837 46.9704724409449  14.185667752443 41.494094488189  14.185667752443 41.494094488189  C 14.185667752443 41.494094488189  17.1498371335505 40.2303149606299  17.1498371335505 40.2303149606299  C 17.1498371335505 40.2303149606299  18.4201954397394 40.6515748031496  18.4201954397394 40.6515748031496  C 18.4201954397394 40.6515748031496  23.5016286644951 39.8090551181102  23.5016286644951 39.8090551181102  C 23.5016286644951 39.8090551181102  24.771986970684 37.2814960629921  24.771986970684 37.2814960629921  C 24.771986970684 37.2814960629921  26.8892508143323 35.1751968503937  26.8892508143323 35.1751968503937  C 26.8892508143323 35.1751968503937  35.7817589576547 37.7027559055118  35.7817589576547 37.7027559055118  C 35.7817589576547 37.7027559055118  38.3224755700326 43.1791338582677  38.3224755700326 43.1791338582677  C 38.3224755700326 43.1791338582677  40.4397394136808 42.757874015748  40.4397394136808 42.757874015748  C 40.4397394136808 42.757874015748  40.4397394136808 41.9153543307087  40.4397394136808 41.9153543307087  C 40.4397394136808 41.9153543307087  41.7100977198697 41.9153543307087  41.7100977198697 41.9153543307087  C 41.7100977198697 41.9153543307087  45.5211726384365 37.2814960629921  45.5211726384365 37.2814960629921  C 45.5211726384365 37.2814960629921  45.5211726384365 39.3877952755906  45.5211726384365 39.3877952755906  C 45.5211726384365 39.3877952755906  50.6026058631922 36.8602362204724  50.6026058631922 36.8602362204724  C 50.6026058631922 36.8602362204724  51.8729641693811 36.8602362204724  51.8729641693811 36.8602362204724  C 51.8729641693811 36.8602362204724  52.7198697068404 34.753937007874  52.7198697068404 34.753937007874  C 52.7198697068404 34.753937007874  56.1074918566775 32.6476377952756  56.1074918566775 32.6476377952756  C 56.1074918566775 32.6476377952756  56.9543973941368 33.490157480315  56.9543973941368 33.490157480315  C 56.9543973941368 33.490157480315  59.9185667752443 32.6476377952756  59.9185667752443 32.6476377952756  C 59.9185667752443 32.6476377952756  58.2247557003257 30.5413385826772  58.2247557003257 30.5413385826772  C 58.2247557003257 30.5413385826772  58.2247557003257 29.2775590551181  58.2247557003257 29.2775590551181  C 58.2247557003257 29.2775590551181  60.3420195439739 28.0137795275591  60.3420195439739 28.0137795275591  C 60.3420195439739 28.0137795275591  62.0358306188925 25.0649606299213  62.0358306188925 25.0649606299213  C 62.0358306188925 25.0649606299213  66.6938110749186 26.3287401574803  66.6938110749186 26.3287401574803  C 66.6938110749186 26.3287401574803  68.3876221498371 20.8523622047244  68.3876221498371 20.8523622047244  C 68.3876221498371 20.8523622047244  67.9641693811075 19.5885826771654  67.9641693811075 19.5885826771654  C 67.9641693811075 19.5885826771654  68.8110749185668 17.0610236220472  68.8110749185668 17.0610236220472  C 68.8110749185668 17.0610236220472  70.928338762215 13.6909448818898  70.928338762215 13.6909448818898  C 70.928338762215 13.6909448818898  73.0456026058632 12.005905511811  73.0456026058632 12.005905511811  C 73.0456026058632 12.005905511811  73.0456026058632 10.742125984252  73.0456026058632 10.742125984252  C 73.0456026058632 10.742125984252  75.586319218241 9.47834645669291  75.586319218241 9.47834645669291  C 75.586319218241 9.47834645669291  76.0097719869707 7.79330708661417  76.0097719869707 7.79330708661417  C 76.0097719869707 7.79330708661417  77.2801302931596 6.52952755905512  77.2801302931596 6.52952755905512  C 77.2801302931596 6.52952755905512  76.85667752443 6.10826771653543  76.85667752443 6.10826771653543  C 76.85667752443 6.10826771653543  77.7035830618893 1.89566929133858  77.7035830618893 1.89566929133858  C 77.7035830618893 1.89566929133858  79.8208469055375 0.210629921259843  79.8208469055375 0.210629921259843  C 79.8208469055375 0.210629921259843  81.0912052117264 0.631889763779528  81.0912052117264 0.631889763779528  C 81.0912052117264 0.631889763779528  84.0553745928339 6.10826771653543  84.0553745928339 6.10826771653543  C 84.0553745928339 6.10826771653543  86.1726384364821 5.68700787401575  86.1726384364821 5.68700787401575  C 86.1726384364821 5.68700787401575  88.7133550488599 8.21456692913386  88.7133550488599 8.21456692913386  C 88.7133550488599 8.21456692913386  89.5602605863192 7.37204724409449  89.5602605863192 7.37204724409449  C 89.5602605863192 7.37204724409449  88.7133550488599 5.68700787401575  88.7133550488599 5.68700787401575  C 88.7133550488599 5.68700787401575  90.4071661237785 4.00196850393701  90.4071661237785 4.00196850393701  C 90.4071661237785 4.00196850393701  92.5244299674267 3.58070866141732  92.5244299674267 3.58070866141732  C 92.5244299674267 3.58070866141732  98.0293159609121 4.42322834645669  98.0293159609121 4.42322834645669  C 98.0293159609121 4.42322834645669  104.381107491857 2.31692913385827  104.381107491857 2.31692913385827  C 104.381107491857 2.31692913385827  105.228013029316 2.73818897637795  105.228013029316 2.73818897637795  C 105.228013029316 2.73818897637795  105.651465798046 4.42322834645669  105.651465798046 4.42322834645669  C 105.651465798046 4.42322834645669  106.921824104235 4.84448818897638  106.921824104235 4.84448818897638  C 106.921824104235 4.84448818897638  109.039087947883 5.26574803149606  109.039087947883 5.26574803149606  C 109.039087947883 5.26574803149606  109.885993485342 4.42322834645669  109.885993485342 4.42322834645669  C 109.885993485342 4.42322834645669  111.579804560261 5.26574803149606  111.579804560261 5.26574803149606  C 111.579804560261 5.26574803149606  113.273615635179 4.00196850393701  113.273615635179 4.00196850393701  C 113.273615635179 4.00196850393701  115.390879478827 4.00196850393701  115.390879478827 4.00196850393701  C 115.390879478827 4.00196850393701  117.931596091205 6.52952755905512  117.931596091205 6.52952755905512  C 117.931596091205 6.52952755905512  118.355048859935 6.10826771653543  118.355048859935 6.10826771653543  C 118.355048859935 6.10826771653543  118.778501628664 9.05708661417323  118.778501628664 9.05708661417323  C 118.778501628664 9.05708661417323  120.472312703583 10.3208661417323  120.472312703583 10.3208661417323  C 120.472312703583 10.3208661417323  120.048859934853 13.2696850393701  120.048859934853 13.2696850393701  C 120.048859934853 13.2696850393701  118.778501628664 15.3759842519685  118.778501628664 15.3759842519685  C 118.778501628664 15.3759842519685  119.625407166124 16.2185039370079  119.625407166124 16.2185039370079  C 119.625407166124 16.2185039370079  118.778501628664 17.0610236220472  118.778501628664 17.0610236220472  C 118.778501628664 17.0610236220472  118.778501628664 19.1673228346457  118.778501628664 19.1673228346457  C 118.778501628664 19.1673228346457  117.931596091205 19.1673228346457  117.931596091205 19.1673228346457  C 117.931596091205 19.1673228346457  116.661237785016 20.4311023622047  116.661237785016 20.4311023622047  C 116.661237785016 20.4311023622047  115.814332247557 22.9586614173228  115.814332247557 22.9586614173228  C 115.814332247557 22.9586614173228  118.778501628664 24.6437007874016  118.778501628664 24.6437007874016  C 118.778501628664 24.6437007874016  120.472312703583 24.2224409448819  120.472312703583 24.2224409448819  C 120.472312703583 24.2224409448819  121.742671009772 25.9074803149606  121.742671009772 25.9074803149606  C 121.742671009772 25.9074803149606  121.319218241042 26.3287401574803  121.319218241042 26.3287401574803  C 121.319218241042 26.3287401574803  123.013029315961 28.0137795275591  123.013029315961 28.0137795275591  C 123.013029315961 28.0137795275591  124.706840390879 27.5925196850394  124.706840390879 27.5925196850394  C 124.706840390879 27.5925196850394  126.400651465798 29.2775590551181  126.400651465798 29.2775590551181  C 126.400651465798 29.2775590551181  126.400651465798 30.1200787401575  126.400651465798 30.1200787401575  C 126.400651465798 30.1200787401575  128.517915309446 31.3838582677165  128.517915309446 31.3838582677165  C 128.517915309446 31.3838582677165  129.788273615635 31.3838582677165  129.788273615635 31.3838582677165  C 129.788273615635 31.3838582677165  128.941368078176 33.490157480315  128.941368078176 33.490157480315  C 128.941368078176 33.490157480315  124.706840390879 33.490157480315  124.706840390879 33.490157480315  C 124.706840390879 33.490157480315  123.436482084691 37.7027559055118  123.436482084691 37.7027559055118  C 123.436482084691 37.7027559055118  123.85993485342 38.9665354330709  123.85993485342 38.9665354330709  C 123.85993485342 38.9665354330709  122.589576547231 42.3366141732283  122.589576547231 42.3366141732283  C 122.589576547231 42.3366141732283  121.319218241042 42.757874015748  121.319218241042 42.757874015748  C 121.319218241042 42.757874015748  117.931596091205 47.8129921259843  117.931596091205 47.8129921259843  C 117.931596091205 47.8129921259843  116.237785016287 48.2342519685039  116.237785016287 48.2342519685039  C 116.237785016287 48.2342519685039  115.390879478827 50.761811023622  115.390879478827 50.761811023622  C 115.390879478827 50.761811023622  112.42671009772 54.5531496062992  112.42671009772 54.5531496062992  C 112.42671009772 54.5531496062992  113.273615635179 55.8169291338583  113.273615635179 55.8169291338583  C 113.273615635179 55.8169291338583  114.967426710098 56.6594488188976  114.967426710098 56.6594488188976  C 114.967426710098 56.6594488188976  118.355048859935 55.8169291338583  118.355048859935 55.8169291338583  C 118.355048859935 55.8169291338583  121.319218241042 60.0295275590551  121.319218241042 60.0295275590551  C 121.319218241042 60.0295275590551  121.319218241042 61.2933070866142  121.319218241042 61.2933070866142  C 121.319218241042 61.2933070866142  119.625407166124 62.9783464566929  119.625407166124 62.9783464566929  C 119.625407166124 62.9783464566929  117.508143322476 63.3996062992126  117.508143322476 63.3996062992126  C 117.508143322476 63.3996062992126  112.00325732899 61.7145669291339  112.00325732899 61.7145669291339  C 112.00325732899 61.7145669291339  111.579804560261 63.3996062992126  111.579804560261 63.3996062992126  C 111.579804560261 63.3996062992126  109.885993485342 62.9783464566929  109.885993485342 62.9783464566929  C 109.885993485342 62.9783464566929  108.192182410423 63.8208661417323  108.192182410423 63.8208661417323  C 108.192182410423 63.8208661417323  103.957654723127 62.9783464566929  103.957654723127 62.9783464566929  C 103.957654723127 62.9783464566929  102.263843648208 65.0846456692913  102.263843648208 65.0846456692913  C 102.263843648208 65.0846456692913  100.99348534202 64.242125984252  100.99348534202 64.242125984252  C 100.99348534202 64.242125984252  100.99348534202 62.9783464566929  100.99348534202 62.9783464566929  C 100.99348534202 62.9783464566929  99.7231270358306 62.1358267716535  99.7231270358306 62.1358267716535  C 99.7231270358306 62.1358267716535  99.7231270358306 60.0295275590551  99.7231270358306 60.0295275590551  C 99.7231270358306 60.0295275590551  98.4527687296417 59.1870078740157  98.4527687296417 59.1870078740157  C 98.4527687296417 59.1870078740157  91.2540716612378 59.6082677165354  91.2540716612378 59.6082677165354  C 91.2540716612378 59.6082677165354  88.2899022801303 62.1358267716535  88.2899022801303 62.1358267716535  C 88.2899022801303 62.1358267716535  86.5960912052117 62.5570866141732  86.5960912052117 62.5570866141732  C 86.5960912052117 62.5570866141732  87.8664495114006 65.9271653543307  87.8664495114006 65.9271653543307  C 87.8664495114006 65.9271653543307  88.7133550488599 66.3484251968504  88.7133550488599 66.3484251968504  C 88.7133550488599 66.3484251968504  87.8664495114006 68.0334645669291  87.8664495114006 68.0334645669291  C 87.8664495114006 68.0334645669291  86.5960912052117 68.8759842519685  86.5960912052117 68.8759842519685  C 86.5960912052117 68.8759842519685  86.1726384364821 72.246062992126  86.1726384364821 72.246062992126  C 86.1726384364821 72.246062992126  87.0195439739414 73.509842519685  87.0195439739414 73.509842519685  C 87.0195439739414 73.509842519685  87.0195439739414 75.6161417322835  87.0195439739414 75.6161417322835  C 87.0195439739414 75.6161417322835  85.7491856677524 76.8799212598425  85.7491856677524 76.8799212598425  C 85.7491856677524 76.8799212598425  86.1726384364821 78.9862204724409  86.1726384364821 78.9862204724409  C 86.1726384364821 78.9862204724409  85.3257328990228 80.25  85.3257328990228 80.25  C 85.3257328990228 80.25  86.1726384364821 81.0925196850394  86.1726384364821 81.0925196850394  C 86.1726384364821 81.0925196850394  86.1726384364821 82.7775590551181  86.1726384364821 82.7775590551181  C 86.1726384364821 82.7775590551181  84.9022801302932 84.4625984251969  84.9022801302932 84.4625984251969  C 84.9022801302932 84.4625984251969  83.2084690553746 83.1988188976378  83.2084690553746 83.1988188976378  C 83.2084690553746 83.1988188976378  81.514657980456 83.6200787401575  81.514657980456 83.6200787401575  C 81.514657980456 83.6200787401575  81.0912052117264 82.7775590551181  81.0912052117264 82.7775590551181  C 81.0912052117264 82.7775590551181  79.8208469055375 84.8838582677165  79.8208469055375 84.8838582677165  C 79.8208469055375 84.8838582677165  78.9739413680782 83.6200787401575  78.9739413680782 83.6200787401575  C 78.9739413680782 83.6200787401575  77.2801302931596 84.4625984251969  77.2801302931596 84.4625984251969  C 77.2801302931596 84.4625984251969  76.4332247557003 83.1988188976378  76.4332247557003 83.1988188976378  C 76.4332247557003 83.1988188976378  73.8925081433225 83.1988188976378  73.8925081433225 83.1988188976378  C 73.8925081433225 83.1988188976378  73.4690553745928 84.4625984251969  73.4690553745928 84.4625984251969  C 73.4690553745928 84.4625984251969  69.2345276872964 86.1476377952756  69.2345276872964 86.1476377952756  C 69.2345276872964 86.1476377952756  68.8110749185668 85.3051181102362  68.8110749185668 85.3051181102362  C 68.8110749185668 85.3051181102362  63.7296416938111 87.4114173228347  63.7296416938111 87.4114173228347  C 63.7296416938111 87.4114173228347  63.3061889250814 89.5177165354331  63.3061889250814 89.5177165354331  C 63.3061889250814 89.5177165354331  65.4234527687296 90.7814960629921  65.4234527687296 90.7814960629921  C 65.4234527687296 90.7814960629921  64.5765472312704 92.0452755905512  64.5765472312704 92.0452755905512  C 64.5765472312704 92.0452755905512  63.3061889250814 92.4665354330709  63.3061889250814 92.4665354330709  C 63.3061889250814 92.4665354330709  63.3061889250814 89.9389763779528  63.3061889250814 89.9389763779528  C 63.3061889250814 89.9389763779528  62.4592833876222 90.7814960629921  62.4592833876222 90.7814960629921  C 62.4592833876222 90.7814960629921  62.8827361563518 91.2027559055118  62.8827361563518 91.2027559055118  C 62.8827361563518 91.2027559055118  62.0358306188925 91.6240157480315  62.0358306188925 91.6240157480315  C 62.0358306188925 91.6240157480315  62.0358306188925 92.4665354330709  62.0358306188925 92.4665354330709  C 62.0358306188925 92.4665354330709  63.3061889250814 92.4665354330709  63.3061889250814 92.4665354330709  C 63.3061889250814 92.4665354330709  62.4592833876222 93.3090551181102  62.4592833876222 93.3090551181102  C 62.4592833876222 93.3090551181102  62.8827361563518 96.257874015748  62.8827361563518 96.257874015748  C 62.8827361563518 96.257874015748  61.6123778501629 97.5216535433071  61.6123778501629 97.5216535433071  C 61.6123778501629 97.5216535433071  59.9185667752443 97.1003937007874  59.9185667752443 97.1003937007874  C 59.9185667752443 97.1003937007874  57.8013029315961 93.7303149606299  57.8013029315961 93.7303149606299  C 57.8013029315961 93.7303149606299  54.413680781759 93.7303149606299  54.413680781759 93.7303149606299  C 54.413680781759 93.7303149606299  53.14332247557 91.6240157480315  53.14332247557 91.6240157480315  C 53.14332247557 91.6240157480315  50.6026058631922 92.4665354330709  50.6026058631922 92.4665354330709  C 50.6026058631922 92.4665354330709  49.3322475570033 94.1515748031496  49.3322475570033 94.1515748031496  C 49.3322475570033 94.1515748031496  49.7557003257329 95.4153543307087  49.7557003257329 95.4153543307087  C 49.7557003257329 95.4153543307087  48.9087947882736 96.6791338582677  48.9087947882736 96.6791338582677  C 48.9087947882736 96.6791338582677  47.6384364820847 96.257874015748  47.6384364820847 96.257874015748  C 47.6384364820847 96.257874015748  47.214983713355 97.1003937007874  47.214983713355 97.1003937007874  C 47.214983713355 97.1003937007874  45.9446254071661 97.1003937007874  45.9446254071661 97.1003937007874  C 45.9446254071661 97.1003937007874  43.4039087947883 92.8877952755905  43.4039087947883 92.8877952755905  C 43.4039087947883 92.8877952755905  42.1335504885993 92.8877952755905  42.1335504885993 92.8877952755905  C 42.1335504885993 92.8877952755905  40.8631921824104 94.5728346456693  40.8631921824104 94.5728346456693  C 40.8631921824104 94.5728346456693  40.0162866449511 93.7303149606299  40.0162866449511 93.7303149606299  C 40.0162866449511 93.7303149606299  37.0521172638436 95.8366141732283  37.0521172638436 95.8366141732283  C 37.0521172638436 95.8366141732283  37.0521172638436 97.9429133858268  37.0521172638436 97.9429133858268  C 37.0521172638436 97.9429133858268  39.1693811074919 98.7854330708661  39.1693811074919 98.7854330708661  C 39.1693811074919 98.7854330708661  39.5928338762215 99.6279527559055  39.5928338762215 99.6279527559055  C 39.5928338762215 99.6279527559055  38.3224755700326 100.049212598425  38.3224755700326 100.049212598425  C 38.3224755700326 100.049212598425  38.3224755700326 104.261811023622  38.3224755700326 104.261811023622  C 38.3224755700326 104.261811023622  37.4755700325733 105.525590551181  37.4755700325733 105.525590551181  Z " fill-rule="nonzero" fill="#ffffff" stroke="none" fill-opacity="0" transform="matrix(1 0 0 1 99 701 )" />
    <path d="M 37.4755700325733 105.525590551181  C 37.4755700325733 105.525590551181  35.7817589576547 106.78937007874  35.7817589576547 106.78937007874  C 35.7817589576547 106.78937007874  31.5472312703583 98.7854330708661  31.5472312703583 98.7854330708661  C 31.5472312703583 98.7854330708661  32.3941368078176 97.5216535433071  32.3941368078176 97.5216535433071  C 32.3941368078176 97.5216535433071  31.1237785016287 97.1003937007874  31.1237785016287 97.1003937007874  C 31.1237785016287 97.1003937007874  31.1237785016287 96.257874015748  31.1237785016287 96.257874015748  C 31.1237785016287 96.257874015748  30.2768729641694 95.4153543307087  30.2768729641694 95.4153543307087  C 30.2768729641694 95.4153543307087  29.8534201954397 95.8366141732283  29.8534201954397 95.8366141732283  C 29.8534201954397 95.8366141732283  29.0065146579805 94.5728346456693  29.0065146579805 94.5728346456693  C 29.0065146579805 94.5728346456693  29.8534201954397 93.7303149606299  29.8534201954397 93.7303149606299  C 29.8534201954397 93.7303149606299  29.0065146579805 93.3090551181102  29.0065146579805 93.3090551181102  C 29.0065146579805 93.3090551181102  29.4299674267101 91.6240157480315  29.4299674267101 91.6240157480315  C 29.4299674267101 91.6240157480315  28.5830618892508 90.3602362204724  28.5830618892508 90.3602362204724  C 28.5830618892508 90.3602362204724  28.5830618892508 88.6751968503937  28.5830618892508 88.6751968503937  C 28.5830618892508 88.6751968503937  24.3485342019544 88.6751968503937  24.3485342019544 88.6751968503937  C 24.3485342019544 88.6751968503937  21.8078175895765 87.4114173228347  21.8078175895765 87.4114173228347  C 21.8078175895765 87.4114173228347  20.114006514658 87.8326771653543  20.114006514658 87.8326771653543  C 20.114006514658 87.8326771653543  19.6905537459283 84.8838582677165  19.6905537459283 84.8838582677165  C 19.6905537459283 84.8838582677165  18.8436482084691 84.0413385826772  18.8436482084691 84.0413385826772  C 18.8436482084691 84.0413385826772  17.5732899022801 84.4625984251969  17.5732899022801 84.4625984251969  C 17.5732899022801 84.4625984251969  16.3029315960912 83.1988188976378  16.3029315960912 83.1988188976378  C 16.3029315960912 83.1988188976378  9.52768729641694 74.3523622047244  9.52768729641694 74.3523622047244  C 9.52768729641694 74.3523622047244  9.52768729641694 73.0885826771653  9.52768729641694 73.0885826771653  C 9.52768729641694 73.0885826771653  8.68078175895766 73.0885826771653  8.68078175895766 73.0885826771653  C 8.68078175895766 73.0885826771653  5.71661237785016 70.5610236220472  5.71661237785016 70.5610236220472  C 5.71661237785016 70.5610236220472  5.71661237785016 68.8759842519685  5.71661237785016 68.8759842519685  C 5.71661237785016 68.8759842519685  6.56351791530945 69.2972440944882  6.56351791530945 69.2972440944882  C 6.56351791530945 69.2972440944882  6.1400651465798 68.0334645669291  6.1400651465798 68.0334645669291  C 6.1400651465798 68.0334645669291  6.98697068403909 66.7696850393701  6.98697068403909 66.7696850393701  C 6.98697068403909 66.7696850393701  6.1400651465798 67.1909448818898  6.1400651465798 67.1909448818898  C 6.1400651465798 67.1909448818898  5.71661237785016 65.0846456692913  5.71661237785016 65.0846456692913  C 5.71661237785016 65.0846456692913  7.41042345276873 60.8720472440945  7.41042345276873 60.8720472440945  C 7.41042345276873 60.8720472440945  6.1400651465798 60.8720472440945  6.1400651465798 60.8720472440945  C 6.1400651465798 60.8720472440945  5.29315960912052 59.6082677165354  5.29315960912052 59.6082677165354  C 5.29315960912052 59.6082677165354  1.48208469055375 59.6082677165354  1.48208469055375 59.6082677165354  C 1.48208469055375 59.6082677165354  1.48208469055375 60.4507874015748  1.48208469055375 60.4507874015748  C 1.48208469055375 60.4507874015748  0.211726384364821 58.7657480314961  0.211726384364821 58.7657480314961  C 0.211726384364821 58.7657480314961  3.17589576547231 52.8681102362205  3.17589576547231 52.8681102362205  C 3.17589576547231 52.8681102362205  3.17589576547231 50.761811023622  3.17589576547231 50.761811023622  C 3.17589576547231 50.761811023622  4.0228013029316 51.1830708661417  4.0228013029316 51.1830708661417  C 4.0228013029316 51.1830708661417  9.1042345276873 46.5492125984252  9.1042345276873 46.5492125984252  C 9.1042345276873 46.5492125984252  9.95114006514658 47.3917322834646  9.95114006514658 47.3917322834646  C 9.95114006514658 47.3917322834646  13.3387622149837 46.9704724409449  13.3387622149837 46.9704724409449  C 13.3387622149837 46.9704724409449  14.185667752443 41.494094488189  14.185667752443 41.494094488189  C 14.185667752443 41.494094488189  17.1498371335505 40.2303149606299  17.1498371335505 40.2303149606299  C 17.1498371335505 40.2303149606299  18.4201954397394 40.6515748031496  18.4201954397394 40.6515748031496  C 18.4201954397394 40.6515748031496  23.5016286644951 39.8090551181102  23.5016286644951 39.8090551181102  C 23.5016286644951 39.8090551181102  24.771986970684 37.2814960629921  24.771986970684 37.2814960629921  C 24.771986970684 37.2814960629921  26.8892508143323 35.1751968503937  26.8892508143323 35.1751968503937  C 26.8892508143323 35.1751968503937  35.7817589576547 37.7027559055118  35.7817589576547 37.7027559055118  C 35.7817589576547 37.7027559055118  38.3224755700326 43.1791338582677  38.3224755700326 43.1791338582677  C 38.3224755700326 43.1791338582677  40.4397394136808 42.757874015748  40.4397394136808 42.757874015748  C 40.4397394136808 42.757874015748  40.4397394136808 41.9153543307087  40.4397394136808 41.9153543307087  C 40.4397394136808 41.9153543307087  41.7100977198697 41.9153543307087  41.7100977198697 41.9153543307087  C 41.7100977198697 41.9153543307087  45.5211726384365 37.2814960629921  45.5211726384365 37.2814960629921  C 45.5211726384365 37.2814960629921  45.5211726384365 39.3877952755906  45.5211726384365 39.3877952755906  C 45.5211726384365 39.3877952755906  50.6026058631922 36.8602362204724  50.6026058631922 36.8602362204724  C 50.6026058631922 36.8602362204724  51.8729641693811 36.8602362204724  51.8729641693811 36.8602362204724  C 51.8729641693811 36.8602362204724  52.7198697068404 34.753937007874  52.7198697068404 34.753937007874  C 52.7198697068404 34.753937007874  56.1074918566775 32.6476377952756  56.1074918566775 32.6476377952756  C 56.1074918566775 32.6476377952756  56.9543973941368 33.490157480315  56.9543973941368 33.490157480315  C 56.9543973941368 33.490157480315  59.9185667752443 32.6476377952756  59.9185667752443 32.6476377952756  C 59.9185667752443 32.6476377952756  58.2247557003257 30.5413385826772  58.2247557003257 30.5413385826772  C 58.2247557003257 30.5413385826772  58.2247557003257 29.2775590551181  58.2247557003257 29.2775590551181  C 58.2247557003257 29.2775590551181  60.3420195439739 28.0137795275591  60.3420195439739 28.0137795275591  C 60.3420195439739 28.0137795275591  62.0358306188925 25.0649606299213  62.0358306188925 25.0649606299213  C 62.0358306188925 25.0649606299213  66.6938110749186 26.3287401574803  66.6938110749186 26.3287401574803  C 66.6938110749186 26.3287401574803  68.3876221498371 20.8523622047244  68.3876221498371 20.8523622047244  C 68.3876221498371 20.8523622047244  67.9641693811075 19.5885826771654  67.9641693811075 19.5885826771654  C 67.9641693811075 19.5885826771654  68.8110749185668 17.0610236220472  68.8110749185668 17.0610236220472  C 68.8110749185668 17.0610236220472  70.928338762215 13.6909448818898  70.928338762215 13.6909448818898  C 70.928338762215 13.6909448818898  73.0456026058632 12.005905511811  73.0456026058632 12.005905511811  C 73.0456026058632 12.005905511811  73.0456026058632 10.742125984252  73.0456026058632 10.742125984252  C 73.0456026058632 10.742125984252  75.586319218241 9.47834645669291  75.586319218241 9.47834645669291  C 75.586319218241 9.47834645669291  76.0097719869707 7.79330708661417  76.0097719869707 7.79330708661417  C 76.0097719869707 7.79330708661417  77.2801302931596 6.52952755905512  77.2801302931596 6.52952755905512  C 77.2801302931596 6.52952755905512  76.85667752443 6.10826771653543  76.85667752443 6.10826771653543  C 76.85667752443 6.10826771653543  77.7035830618893 1.89566929133858  77.7035830618893 1.89566929133858  C 77.7035830618893 1.89566929133858  79.8208469055375 0.210629921259843  79.8208469055375 0.210629921259843  C 79.8208469055375 0.210629921259843  81.0912052117264 0.631889763779528  81.0912052117264 0.631889763779528  C 81.0912052117264 0.631889763779528  84.0553745928339 6.10826771653543  84.0553745928339 6.10826771653543  C 84.0553745928339 6.10826771653543  86.1726384364821 5.68700787401575  86.1726384364821 5.68700787401575  C 86.1726384364821 5.68700787401575  88.7133550488599 8.21456692913386  88.7133550488599 8.21456692913386  C 88.7133550488599 8.21456692913386  89.5602605863192 7.37204724409449  89.5602605863192 7.37204724409449  C 89.5602605863192 7.37204724409449  88.7133550488599 5.68700787401575  88.7133550488599 5.68700787401575  C 88.7133550488599 5.68700787401575  90.4071661237785 4.00196850393701  90.4071661237785 4.00196850393701  C 90.4071661237785 4.00196850393701  92.5244299674267 3.58070866141732  92.5244299674267 3.58070866141732  C 92.5244299674267 3.58070866141732  98.0293159609121 4.42322834645669  98.0293159609121 4.42322834645669  C 98.0293159609121 4.42322834645669  104.381107491857 2.31692913385827  104.381107491857 2.31692913385827  C 104.381107491857 2.31692913385827  105.228013029316 2.73818897637795  105.228013029316 2.73818897637795  C 105.228013029316 2.73818897637795  105.651465798046 4.42322834645669  105.651465798046 4.42322834645669  C 105.651465798046 4.42322834645669  106.921824104235 4.84448818897638  106.921824104235 4.84448818897638  C 106.921824104235 4.84448818897638  109.039087947883 5.26574803149606  109.039087947883 5.26574803149606  C 109.039087947883 5.26574803149606  109.885993485342 4.42322834645669  109.885993485342 4.42322834645669  C 109.885993485342 4.42322834645669  111.579804560261 5.26574803149606  111.579804560261 5.26574803149606  C 111.579804560261 5.26574803149606  113.273615635179 4.00196850393701  113.273615635179 4.00196850393701  C 113.273615635179 4.00196850393701  115.390879478827 4.00196850393701  115.390879478827 4.00196850393701  C 115.390879478827 4.00196850393701  117.931596091205 6.52952755905512  117.931596091205 6.52952755905512  C 117.931596091205 6.52952755905512  118.355048859935 6.10826771653543  118.355048859935 6.10826771653543  C 118.355048859935 6.10826771653543  118.778501628664 9.05708661417323  118.778501628664 9.05708661417323  C 118.778501628664 9.05708661417323  120.472312703583 10.3208661417323  120.472312703583 10.3208661417323  C 120.472312703583 10.3208661417323  120.048859934853 13.2696850393701  120.048859934853 13.2696850393701  C 120.048859934853 13.2696850393701  118.778501628664 15.3759842519685  118.778501628664 15.3759842519685  C 118.778501628664 15.3759842519685  119.625407166124 16.2185039370079  119.625407166124 16.2185039370079  C 119.625407166124 16.2185039370079  118.778501628664 17.0610236220472  118.778501628664 17.0610236220472  C 118.778501628664 17.0610236220472  118.778501628664 19.1673228346457  118.778501628664 19.1673228346457  C 118.778501628664 19.1673228346457  117.931596091205 19.1673228346457  117.931596091205 19.1673228346457  C 117.931596091205 19.1673228346457  116.661237785016 20.4311023622047  116.661237785016 20.4311023622047  C 116.661237785016 20.4311023622047  115.814332247557 22.9586614173228  115.814332247557 22.9586614173228  C 115.814332247557 22.9586614173228  118.778501628664 24.6437007874016  118.778501628664 24.6437007874016  C 118.778501628664 24.6437007874016  120.472312703583 24.2224409448819  120.472312703583 24.2224409448819  C 120.472312703583 24.2224409448819  121.742671009772 25.9074803149606  121.742671009772 25.9074803149606  C 121.742671009772 25.9074803149606  121.319218241042 26.3287401574803  121.319218241042 26.3287401574803  C 121.319218241042 26.3287401574803  123.013029315961 28.0137795275591  123.013029315961 28.0137795275591  C 123.013029315961 28.0137795275591  124.706840390879 27.5925196850394  124.706840390879 27.5925196850394  C 124.706840390879 27.5925196850394  126.400651465798 29.2775590551181  126.400651465798 29.2775590551181  C 126.400651465798 29.2775590551181  126.400651465798 30.1200787401575  126.400651465798 30.1200787401575  C 126.400651465798 30.1200787401575  128.517915309446 31.3838582677165  128.517915309446 31.3838582677165  C 128.517915309446 31.3838582677165  129.788273615635 31.3838582677165  129.788273615635 31.3838582677165  C 129.788273615635 31.3838582677165  128.941368078176 33.490157480315  128.941368078176 33.490157480315  C 128.941368078176 33.490157480315  124.706840390879 33.490157480315  124.706840390879 33.490157480315  C 124.706840390879 33.490157480315  123.436482084691 37.7027559055118  123.436482084691 37.7027559055118  C 123.436482084691 37.7027559055118  123.85993485342 38.9665354330709  123.85993485342 38.9665354330709  C 123.85993485342 38.9665354330709  122.589576547231 42.3366141732283  122.589576547231 42.3366141732283  C 122.589576547231 42.3366141732283  121.319218241042 42.757874015748  121.319218241042 42.757874015748  C 121.319218241042 42.757874015748  117.931596091205 47.8129921259843  117.931596091205 47.8129921259843  C 117.931596091205 47.8129921259843  116.237785016287 48.2342519685039  116.237785016287 48.2342519685039  C 116.237785016287 48.2342519685039  115.390879478827 50.761811023622  115.390879478827 50.761811023622  C 115.390879478827 50.761811023622  112.42671009772 54.5531496062992  112.42671009772 54.5531496062992  C 112.42671009772 54.5531496062992  113.273615635179 55.8169291338583  113.273615635179 55.8169291338583  C 113.273615635179 55.8169291338583  114.967426710098 56.6594488188976  114.967426710098 56.6594488188976  C 114.967426710098 56.6594488188976  118.355048859935 55.8169291338583  118.355048859935 55.8169291338583  C 118.355048859935 55.8169291338583  121.319218241042 60.0295275590551  121.319218241042 60.0295275590551  C 121.319218241042 60.0295275590551  121.319218241042 61.2933070866142  121.319218241042 61.2933070866142  C 121.319218241042 61.2933070866142  119.625407166124 62.9783464566929  119.625407166124 62.9783464566929  C 119.625407166124 62.9783464566929  117.508143322476 63.3996062992126  117.508143322476 63.3996062992126  C 117.508143322476 63.3996062992126  112.00325732899 61.7145669291339  112.00325732899 61.7145669291339  C 112.00325732899 61.7145669291339  111.579804560261 63.3996062992126  111.579804560261 63.3996062992126  C 111.579804560261 63.3996062992126  109.885993485342 62.9783464566929  109.885993485342 62.9783464566929  C 109.885993485342 62.9783464566929  108.192182410423 63.8208661417323  108.192182410423 63.8208661417323  C 108.192182410423 63.8208661417323  103.957654723127 62.9783464566929  103.957654723127 62.9783464566929  C 103.957654723127 62.9783464566929  102.263843648208 65.0846456692913  102.263843648208 65.0846456692913  C 102.263843648208 65.0846456692913  100.99348534202 64.242125984252  100.99348534202 64.242125984252  C 100.99348534202 64.242125984252  100.99348534202 62.9783464566929  100.99348534202 62.9783464566929  C 100.99348534202 62.9783464566929  99.7231270358306 62.1358267716535  99.7231270358306 62.1358267716535  C 99.7231270358306 62.1358267716535  99.7231270358306 60.0295275590551  99.7231270358306 60.0295275590551  C 99.7231270358306 60.0295275590551  98.4527687296417 59.1870078740157  98.4527687296417 59.1870078740157  C 98.4527687296417 59.1870078740157  91.2540716612378 59.6082677165354  91.2540716612378 59.6082677165354  C 91.2540716612378 59.6082677165354  88.2899022801303 62.1358267716535  88.2899022801303 62.1358267716535  C 88.2899022801303 62.1358267716535  86.5960912052117 62.5570866141732  86.5960912052117 62.5570866141732  C 86.5960912052117 62.5570866141732  87.8664495114006 65.9271653543307  87.8664495114006 65.9271653543307  C 87.8664495114006 65.9271653543307  88.7133550488599 66.3484251968504  88.7133550488599 66.3484251968504  C 88.7133550488599 66.3484251968504  87.8664495114006 68.0334645669291  87.8664495114006 68.0334645669291  C 87.8664495114006 68.0334645669291  86.5960912052117 68.8759842519685  86.5960912052117 68.8759842519685  C 86.5960912052117 68.8759842519685  86.1726384364821 72.246062992126  86.1726384364821 72.246062992126  C 86.1726384364821 72.246062992126  87.0195439739414 73.509842519685  87.0195439739414 73.509842519685  C 87.0195439739414 73.509842519685  87.0195439739414 75.6161417322835  87.0195439739414 75.6161417322835  C 87.0195439739414 75.6161417322835  85.7491856677524 76.8799212598425  85.7491856677524 76.8799212598425  C 85.7491856677524 76.8799212598425  86.1726384364821 78.9862204724409  86.1726384364821 78.9862204724409  C 86.1726384364821 78.9862204724409  85.3257328990228 80.25  85.3257328990228 80.25  C 85.3257328990228 80.25  86.1726384364821 81.0925196850394  86.1726384364821 81.0925196850394  C 86.1726384364821 81.0925196850394  86.1726384364821 82.7775590551181  86.1726384364821 82.7775590551181  C 86.1726384364821 82.7775590551181  84.9022801302932 84.4625984251969  84.9022801302932 84.4625984251969  C 84.9022801302932 84.4625984251969  83.2084690553746 83.1988188976378  83.2084690553746 83.1988188976378  C 83.2084690553746 83.1988188976378  81.514657980456 83.6200787401575  81.514657980456 83.6200787401575  C 81.514657980456 83.6200787401575  81.0912052117264 82.7775590551181  81.0912052117264 82.7775590551181  C 81.0912052117264 82.7775590551181  79.8208469055375 84.8838582677165  79.8208469055375 84.8838582677165  C 79.8208469055375 84.8838582677165  78.9739413680782 83.6200787401575  78.9739413680782 83.6200787401575  C 78.9739413680782 83.6200787401575  77.2801302931596 84.4625984251969  77.2801302931596 84.4625984251969  C 77.2801302931596 84.4625984251969  76.4332247557003 83.1988188976378  76.4332247557003 83.1988188976378  C 76.4332247557003 83.1988188976378  73.8925081433225 83.1988188976378  73.8925081433225 83.1988188976378  C 73.8925081433225 83.1988188976378  73.4690553745928 84.4625984251969  73.4690553745928 84.4625984251969  C 73.4690553745928 84.4625984251969  69.2345276872964 86.1476377952756  69.2345276872964 86.1476377952756  C 69.2345276872964 86.1476377952756  68.8110749185668 85.3051181102362  68.8110749185668 85.3051181102362  C 68.8110749185668 85.3051181102362  63.7296416938111 87.4114173228347  63.7296416938111 87.4114173228347  C 63.7296416938111 87.4114173228347  63.3061889250814 89.5177165354331  63.3061889250814 89.5177165354331  C 63.3061889250814 89.5177165354331  65.4234527687296 90.7814960629921  65.4234527687296 90.7814960629921  C 65.4234527687296 90.7814960629921  64.5765472312704 92.0452755905512  64.5765472312704 92.0452755905512  C 64.5765472312704 92.0452755905512  63.3061889250814 92.4665354330709  63.3061889250814 92.4665354330709  C 63.3061889250814 92.4665354330709  63.3061889250814 89.9389763779528  63.3061889250814 89.9389763779528  C 63.3061889250814 89.9389763779528  62.4592833876222 90.7814960629921  62.4592833876222 90.7814960629921  C 62.4592833876222 90.7814960629921  62.8827361563518 91.2027559055118  62.8827361563518 91.2027559055118  C 62.8827361563518 91.2027559055118  62.0358306188925 91.6240157480315  62.0358306188925 91.6240157480315  C 62.0358306188925 91.6240157480315  62.0358306188925 92.4665354330709  62.0358306188925 92.4665354330709  C 62.0358306188925 92.4665354330709  63.3061889250814 92.4665354330709  63.3061889250814 92.4665354330709  C 63.3061889250814 92.4665354330709  62.4592833876222 93.3090551181102  62.4592833876222 93.3090551181102  C 62.4592833876222 93.3090551181102  62.8827361563518 96.257874015748  62.8827361563518 96.257874015748  C 62.8827361563518 96.257874015748  61.6123778501629 97.5216535433071  61.6123778501629 97.5216535433071  C 61.6123778501629 97.5216535433071  59.9185667752443 97.1003937007874  59.9185667752443 97.1003937007874  C 59.9185667752443 97.1003937007874  57.8013029315961 93.7303149606299  57.8013029315961 93.7303149606299  C 57.8013029315961 93.7303149606299  54.413680781759 93.7303149606299  54.413680781759 93.7303149606299  C 54.413680781759 93.7303149606299  53.14332247557 91.6240157480315  53.14332247557 91.6240157480315  C 53.14332247557 91.6240157480315  50.6026058631922 92.4665354330709  50.6026058631922 92.4665354330709  C 50.6026058631922 92.4665354330709  49.3322475570033 94.1515748031496  49.3322475570033 94.1515748031496  C 49.3322475570033 94.1515748031496  49.7557003257329 95.4153543307087  49.7557003257329 95.4153543307087  C 49.7557003257329 95.4153543307087  48.9087947882736 96.6791338582677  48.9087947882736 96.6791338582677  C 48.9087947882736 96.6791338582677  47.6384364820847 96.257874015748  47.6384364820847 96.257874015748  C 47.6384364820847 96.257874015748  47.214983713355 97.1003937007874  47.214983713355 97.1003937007874  C 47.214983713355 97.1003937007874  45.9446254071661 97.1003937007874  45.9446254071661 97.1003937007874  C 45.9446254071661 97.1003937007874  43.4039087947883 92.8877952755905  43.4039087947883 92.8877952755905  C 43.4039087947883 92.8877952755905  42.1335504885993 92.8877952755905  42.1335504885993 92.8877952755905  C 42.1335504885993 92.8877952755905  40.8631921824104 94.5728346456693  40.8631921824104 94.5728346456693  C 40.8631921824104 94.5728346456693  40.0162866449511 93.7303149606299  40.0162866449511 93.7303149606299  C 40.0162866449511 93.7303149606299  37.0521172638436 95.8366141732283  37.0521172638436 95.8366141732283  C 37.0521172638436 95.8366141732283  37.0521172638436 97.9429133858268  37.0521172638436 97.9429133858268  C 37.0521172638436 97.9429133858268  39.1693811074919 98.7854330708661  39.1693811074919 98.7854330708661  C 39.1693811074919 98.7854330708661  39.5928338762215 99.6279527559055  39.5928338762215 99.6279527559055  C 39.5928338762215 99.6279527559055  38.3224755700326 100.049212598425  38.3224755700326 100.049212598425  C 38.3224755700326 100.049212598425  38.3224755700326 104.261811023622  38.3224755700326 104.261811023622  C 38.3224755700326 104.261811023622  37.4755700325733 105.525590551181  37.4755700325733 105.525590551181  Z " stroke-width="2" stroke-dasharray="1,1" stroke="#999999" fill="none" transform="matrix(1 0 0 1 99 701 )" mask="url(#clip39)" />
  </g>
</svg>